  0
SECTION
  2
HEADER
  9
$ACADVER
  1
AC1014
  9
$HANDSEED
  5
FFFF
  9
$MEASUREMENT
 70
     1
  0
ENDSEC
  0
SECTION
  2
TABLES
  0
TABLE
  2
VPORT
  5
8
330
0
100
AcDbSymbolTable
 70
     4
  0
VPORT
  5
2E
330
8
100
AcDbSymbolTableRecord
100
AcDbViewportTableRecord
  2
*ACTIVE
 70
     0
 10
0.0
 20
0.0
 11
1.0
 21
1.0
 12
210.0
 22
148.5
 13
0.0
 23
0.0
 14
10.0
 24
10.0
 15
10.0
 25
10.0
 16
0.0
 26
0.0
 36
1.0
 17
0.0
 27
0.0
 37
0.0
 40
341.0
 41
1.24
 42
50.0
 43
0.0
 44
0.0
 50
0.0
 51
0.0
 71
     0
 72
   100
 73
     1
 74
     3
 75
     0
 76
     0
 77
     0
 78
     0
  0
ENDTAB
  0
TABLE
  2
LTYPE
  5
5
330
0
100
AcDbSymbolTable
 70
     1
  0
LTYPE
  5
14
330
5
100
AcDbSymbolTableRecord
100
AcDbLinetypeTableRecord
  2
BYBLOCK
 70
     0
  3

 72
    65
 73
     0
 40
0.0
  0
LTYPE
  5
15
330
5
100
AcDbSymbolTableRecord
100
AcDbLinetypeTableRecord
  2
BYLAYER
 70
     0
  3

 72
    65
 73
     0
 40
0.0
  0
LTYPE
  5
16
330
5
100
AcDbSymbolTableRecord
100
AcDbLinetypeTableRecord
  2
CONTINUOUS
 70
     0
  3
Solid line
 72
    65
 73
     0
 40
0.0
  0
ENDTAB
  0
TABLE
  2
LAYER
  5
2
100
AcDbSymbolTable
 70
1
  0
LAYER
  5
50
100
AcDbSymbolTableRecord
100
AcDbLayerTableRecord
  2
0
 70
0
  6
CONTINUOUS
  0
ENDTAB
  0
TABLE
  2
STYLE
  5
3
330
0
100
AcDbSymbolTable
 70
     1
  0
STYLE
  5
11
330
3
100
AcDbSymbolTableRecord
100
AcDbTextStyleTableRecord
  2
STANDARD
 70
     0
 40
0.0
 41
1.0
 50
0.0
 71
     0
 42
2.5
  3
txt
  4

  0
ENDTAB
  0
TABLE
  2
VIEW
  5
6
330
0
100
AcDbSymbolTable
 70
     0
  0
ENDTAB
  0
TABLE
  2
UCS
  5
7
330
0
100
AcDbSymbolTable
 70
     0
  0
ENDTAB
  0
TABLE
  2
APPID
  5
9
330
0
100
AcDbSymbolTable
 70
     2
  0
APPID
  5
12
330
9
100
AcDbSymbolTableRecord
100
AcDbRegAppTableRecord
  2
ACAD
 70
     0
  0
ENDTAB
  0
TABLE
  2
DIMSTYLE
  5
A
330
0
100
AcDbSymbolTable
 70
     1
  0
DIMSTYLE
105
27
330
A
100
AcDbSymbolTableRecord
100
AcDbDimStyleTableRecord
  2
ISO-25
 70
     0
  3

  4

  5

  6

  7

 40
1.0
 41
2.5
 42
0.625
 43
3.75
 44
1.25
 45
0.0
 46
0.0
 47
0.0
 48
0.0
140
2.5
141
2.5
142
0.0
143
0.03937007874016
144
1.0
145
0.0
146
1.0
147
0.625
 71
     0
 72
     0
 73
     0
 74
     0
 75
     0
 76
     0
 77
     1
 78
     8
170
     0
171
     3
172
     1
173
     0
174
     0
175
     0
176
     0
177
     0
178
     0
270
     2
271
     2
272
     2
273
     2
274
     3
340
11
275
     0
280
     0
281
     0
282
     0
283
     0
284
     8
285
     0
286
     0
287
     3
288
     0
  0
ENDTAB
  0
TABLE
  2
BLOCK_RECORD
  5
1
330
0
100
AcDbSymbolTable
 70
     1
  0
BLOCK_RECORD
  5
1F
330
1
100
AcDbSymbolTableRecord
100
AcDbBlockTableRecord
  2
*MODEL_SPACE
  0
BLOCK_RECORD
  5
1B
330
1
100
AcDbSymbolTableRecord
100
AcDbBlockTableRecord
  2
*PAPER_SPACE
  0
ENDTAB
  0
ENDSEC
  0
SECTION
  2
BLOCKS
  0
BLOCK
  5
20
330
1F
100
AcDbEntity
  8
0
100
AcDbBlockBegin
  2
*MODEL_SPACE
 70
     0
 10
0.0
 20
0.0
 30
0.0
  3
*MODEL_SPACE
  1

  0
ENDBLK
  5
21
330
1F
100
AcDbEntity
  8
0
100
AcDbBlockEnd
  0
BLOCK
  5
1C
330
1B
100
AcDbEntity
 67
     1
  8
0
100
AcDbBlockBegin
  2
*PAPER_SPACE
  1

  0
ENDBLK
  5
1D
330
1B
100
AcDbEntity
 67
     1
  8
0
100
AcDbBlockEnd
  0
ENDSEC
  0
SECTION
  2
ENTITIES
  0
SPLINE
  5
100
100
AcDbEntity
  8
0
 62
7
100
AcDbSpline
 70
8
 71
3
 72
8
 73
4
 74
0
 40
0
 40
0
 40
0
 40
0
 40
1
 40
1
 40
1
 40
1
 10
37.040073
 20
529.985010
 30
0.0
 10
35.956336
 20
531.238277
 30
0.0
 10
36.093767
 20
533.132792
 30
0.0
 10
37.347033
 20
534.216530
 30
0.0
  0
SPLINE
  5
101
100
AcDbEntity
  8
0
 62
7
100
AcDbSpline
 70
8
 71
3
 72
8
 73
4
 74
0
 40
0
 40
0
 40
0
 40
0
 40
1
 40
1
 40
1
 40
1
 10
37.347033
 20
534.216530
 30
0.0
 10
37.347033
 20
534.216530
 30
0.0
 10
43.119479
 20
539.208140
 30
0.0
 10
43.119479
 20
539.208140
 30
0.0
  0
SPLINE
  5
102
100
AcDbEntity
  8
0
 62
7
100
AcDbSpline
 70
8
 71
3
 72
8
 73
4
 74
0
 40
0
 40
0
 40
0
 40
0
 40
1
 40
1
 40
1
 40
1
 10
43.119479
 20
539.208140
 30
0.0
 10
43.664575
 20
539.679501
 30
0.0
 10
44.361128
 20
539.938900
 30
0.0
 10
45.081760
 20
539.938900
 30
0.0
  0
SPLINE
  5
103
100
AcDbEntity
  8
0
 62
7
100
AcDbSpline
 70
8
 71
3
 72
8
 73
4
 74
0
 40
0
 40
0
 40
0
 40
0
 40
1
 40
1
 40
1
 40
1
 10
45.081760
 20
539.938900
 30
0.0
 10
45.081760
 20
539.938900
 30
0.0
 10
87.194070
 20
539.938900
 30
0.0
 10
87.194070
 20
539.938900
 30
0.0
  0
SPLINE
  5
104
100
AcDbEntity
  8
0
 62
7
100
AcDbSpline
 70
8
 71
3
 72
8
 73
4
 74
0
 40
0
 40
0
 40
0
 40
0
 40
1
 40
1
 40
1
 40
1
 10
87.194070
 20
539.938900
 30
0.0
 10
88.081244
 20
539.938898
 30
0.0
 10
88.922921
 20
539.546222
 30
0.0
 10
89.492928
 20
538.866390
 30
0.0
  0
LWPOLYLINE
  5
105
100
AcDbEntity
  8
0
 62
7
100
AcDbPolyline
 90
2
 70
1
 10
40.506251
 20
525.976620
 30
0.0
 10
37.040073
 20
529.985010
 30
0.0
  0
SPLINE
  5
106
100
AcDbEntity
  8
0
 62
7
100
AcDbSpline
 70
8
 71
3
 72
8
 73
4
 74
0
 40
0
 40
0
 40
0
 40
0
 40
1
 40
1
 40
1
 40
1
 10
93.147180
 20
534.508100
 30
0.0
 10
93.658385
 20
533.898405
 30
0.0
 10
93.906452
 20
533.110605
 30
0.0
 10
93.836808
 20
532.318009
 30
0.0
  0
SPLINE
  5
107
100
AcDbEntity
  8
0
 62
7
100
AcDbSpline
 70
8
 71
3
 72
8
 73
4
 74
0
 40
0
 40
0
 40
0
 40
0
 40
1
 40
1
 40
1
 40
1
 10
93.836808
 20
532.318009
 30
0.0
 10
93.767165
 20
531.525412
 30
0.0
 10
93.385515
 20
530.792944
 30
0.0
 10
92.775819
 20
530.281740
 30
0.0
  0
LWPOLYLINE
  5
108
100
AcDbEntity
  8
0
 62
7
100
AcDbPolyline
 90
2
 70
1
 10
89.492928
 20
538.866390
 30
0.0
 10
93.147180
 20
534.508100
 30
0.0
  0
SPLINE
  5
109
100
AcDbEntity
  8
0
 62
7
100
AcDbSpline
 70
8
 71
3
 72
8
 73
4
 74
0
 40
0
 40
0
 40
0
 40
0
 40
1
 40
1
 40
1
 40
1
 10
87.239824
 20
525.640040
 30
0.0
 10
86.699653
 20
525.187130
 30
0.0
 10
86.017246
 20
524.938900
 30
0.0
 10
85.312326
 20
524.938900
 30
0.0
  0
LWPOLYLINE
  5
10a
100
AcDbEntity
  8
0
 62
7
100
AcDbPolyline
 90
2
 70
1
 10
92.775819
 20
530.281740
 30
0.0
 10
87.239824
 20
525.640040
 30
0.0
  0
SPLINE
  5
10b
100
AcDbEntity
  8
0
 62
7
100
AcDbSpline
 70
8
 71
3
 72
8
 73
4
 74
0
 40
0
 40
0
 40
0
 40
0
 40
1
 40
1
 40
1
 40
1
 10
42.775492
 20
524.938900
 30
0.0
 10
41.904282
 20
524.938900
 30
0.0
 10
41.076103
 20
525.317625
 30
0.0
 10
40.506251
 20
525.976620
 30
0.0
  0
LWPOLYLINE
  5
10c
100
AcDbEntity
  8
0
 62
7
100
AcDbPolyline
 90
2
 70
1
 10
85.312326
 20
524.938900
 30
0.0
 10
42.775492
 20
524.938900
 30
0.0
  0
LWPOLYLINE
  5
10d
100
AcDbEntity
  8
0
 62
7
100
AcDbPolyline
 90
2
 70
1
 10
40.506251
 20
525.976620
 30
0.0
 10
40.506251
 20
525.976620
 30
0.0
  0
SPLINE
  5
10e
100
AcDbEntity
  8
0
 62
7
100
AcDbSpline
 70
8
 71
3
 72
8
 73
4
 74
0
 40
0
 40
0
 40
0
 40
0
 40
1
 40
1
 40
1
 40
1
 10
84.020140
 20
473.964785
 30
0.0
 10
84.526409
 20
473.338904
 30
0.0
 10
85.262974
 20
472.942748
 30
0.0
 10
86.064254
 20
472.865375
 30
0.0
  0
SPLINE
  5
10f
100
AcDbEntity
  8
0
 62
7
100
AcDbSpline
 70
8
 71
3
 72
8
 73
4
 74
0
 40
0
 40
0
 40
0
 40
0
 40
1
 40
1
 40
1
 40
1
 10
86.064254
 20
472.865375
 30
0.0
 10
86.865533
 20
472.788002
 30
0.0
 10
87.664290
 20
473.035904
 30
0.0
 10
88.280961
 20
473.553352
 30
0.0
  0
LWPOLYLINE
  5
110
100
AcDbEntity
  8
0
 62
7
100
AcDbPolyline
 90
2
 70
1
 10
80.733632
 20
478.027774
 30
0.0
 10
84.020140
 20
473.964785
 30
0.0
  0
SPLINE
  5
111
100
AcDbEntity
  8
0
 62
7
100
AcDbSpline
 70
8
 71
3
 72
8
 73
4
 74
0
 40
0
 40
0
 40
0
 40
0
 40
1
 40
1
 40
1
 40
1
 10
94.308720
 20
478.611243
 30
0.0
 10
94.849017
 20
479.064606
 30
0.0
 10
95.212305
 20
479.693839
 30
0.0
 10
95.334780
 20
480.388432
 30
0.0
  0
SPLINE
  5
112
100
AcDbEntity
  8
0
 62
7
100
AcDbSpline
 70
8
 71
3
 72
8
 73
4
 74
0
 40
0
 40
0
 40
0
 40
0
 40
1
 40
1
 40
1
 40
1
 10
95.334780
 20
480.388432
 30
0.0
 10
95.334780
 20
480.388432
 30
0.0
 10
102.596490
 20
521.571660
 30
0.0
 10
102.596490
 20
521.571660
 30
0.0
  0
SPLINE
  5
113
100
AcDbEntity
  8
0
 62
7
100
AcDbSpline
 70
8
 71
3
 72
8
 73
4
 74
0
 40
0
 40
0
 40
0
 40
0
 40
1
 40
1
 40
1
 40
1
 10
102.596490
 20
521.571660
 30
0.0
 10
102.750409
 20
522.444576
 30
0.0
 10
102.510429
 20
523.340876
 30
0.0
 10
101.940930
 20
524.020100
 30
0.0
  0
LWPOLYLINE
  5
114
100
AcDbEntity
  8
0
 62
7
100
AcDbPolyline
 90
2
 70
1
 10
88.280961
 20
473.553352
 30
0.0
 10
94.308720
 20
478.611243
 30
0.0
  0
SPLINE
  5
115
100
AcDbEntity
  8
0
 62
7
100
AcDbSpline
 70
8
 71
3
 72
8
 73
4
 74
0
 40
0
 40
0
 40
0
 40
0
 40
1
 40
1
 40
1
 40
1
 10
98.287175
 20
528.377810
 30
0.0
 10
97.775971
 20
528.987505
 30
0.0
 10
97.043503
 20
529.369154
 30
0.0
 10
96.250908
 20
529.438797
 30
0.0
  0
SPLINE
  5
116
100
AcDbEntity
  8
0
 62
7
100
AcDbSpline
 70
8
 71
3
 72
8
 73
4
 74
0
 40
0
 40
0
 40
0
 40
0
 40
1
 40
1
 40
1
 40
1
 10
96.250908
 20
529.438797
 30
0.0
 10
95.458312
 20
529.508441
 30
0.0
 10
94.670513
 20
529.260374
 30
0.0
 10
94.060818
 20
528.749170
 30
0.0
  0
LWPOLYLINE
  5
117
100
AcDbEntity
  8
0
 62
7
100
AcDbPolyline
 90
2
 70
1
 10
101.940930
 20
524.020100
 30
0.0
 10
98.287175
 20
528.377810
 30
0.0
  0
SPLINE
  5
118
100
AcDbEntity
  8
0
 62
7
100
AcDbSpline
 70
8
 71
3
 72
8
 73
4
 74
0
 40
0
 40
0
 40
0
 40
0
 40
1
 40
1
 40
1
 40
1
 10
88.525802
 20
524.108290
 30
0.0
 10
87.985036
 20
523.654879
 30
0.0
 10
87.621418
 20
523.025347
 30
0.0
 10
87.498877
 20
522.330370
 30
0.0
  0
LWPOLYLINE
  5
119
100
AcDbEntity
  8
0
 62
7
100
AcDbPolyline
 90
2
 70
1
 10
94.060818
 20
528.749170
 30
0.0
 10
88.525802
 20
524.108290
 30
0.0
  0
SPLINE
  5
11a
100
AcDbEntity
  8
0
 62
7
100
AcDbSpline
 70
8
 71
3
 72
8
 73
4
 74
0
 40
0
 40
0
 40
0
 40
0
 40
1
 40
1
 40
1
 40
1
 10
80.111666
 20
480.435419
 30
0.0
 10
79.960954
 20
479.580685
 30
0.0
 10
80.187797
 20
478.702569
 30
0.0
 10
80.733632
 20
478.027774
 30
0.0
  0
LWPOLYLINE
  5
11b
100
AcDbEntity
  8
0
 62
7
100
AcDbPolyline
 90
2
 70
1
 10
87.498877
 20
522.330370
 30
0.0
 10
80.111666
 20
480.435419
 30
0.0
  0
LWPOLYLINE
  5
11c
100
AcDbEntity
  8
0
 62
7
100
AcDbPolyline
 90
2
 70
1
 10
80.733632
 20
478.027774
 30
0.0
 10
80.733632
 20
478.027774
 30
0.0
  0
SPLINE
  5
11d
100
AcDbEntity
  8
0
 62
7
100
AcDbSpline
 70
8
 71
3
 72
8
 73
4
 74
0
 40
0
 40
0
 40
0
 40
0
 40
1
 40
1
 40
1
 40
1
 10
21.310481
 20
418.256651
 30
0.0
 10
21.190273
 20
417.574916
 30
0.0
 10
20.837997
 20
416.955732
 30
0.0
 10
20.313382
 20
416.504078
 30
0.0
  0
LWPOLYLINE
  5
11e
100
AcDbEntity
  8
0
 62
7
100
AcDbPolyline
 90
2
 70
1
 10
28.701531
 20
460.173381
 30
0.0
 10
21.310481
 20
418.256651
 30
0.0
  0
SPLINE
  5
11f
100
AcDbEntity
  8
0
 62
7
100
AcDbSpline
 70
8
 71
3
 72
8
 73
4
 74
0
 40
0
 40
0
 40
0
 40
0
 40
1
 40
1
 40
1
 40
1
 10
14.757349
 20
411.720759
 30
0.0
 10
14.142287
 20
411.191237
 30
0.0
 10
13.338924
 20
410.933511
 30
0.0
 10
12.530603
 20
411.006398
 30
0.0
  0
SPLINE
  5
120
100
AcDbEntity
  8
0
 62
7
100
AcDbSpline
 70
8
 71
3
 72
8
 73
4
 74
0
 40
0
 40
0
 40
0
 40
0
 40
1
 40
1
 40
1
 40
1
 10
12.530603
 20
411.006398
 30
0.0
 10
11.722282
 20
411.079286
 30
0.0
 10
10.977982
 20
411.476567
 30
0.0
 10
10.467566
 20
412.107575
 30
0.0
  0
SPLINE
  5
121
100
AcDbEntity
  8
0
 62
7
100
AcDbSpline
 70
8
 71
3
 72
8
 73
4
 74
0
 40
0
 40
0
 40
0
 40
0
 40
1
 40
1
 40
1
 40
1
 10
10.467566
 20
412.107575
 30
0.0
 10
10.467566
 20
412.107575
 30
0.0
 10
6.833507
 20
416.600228
 30
0.0
 10
6.833507
 20
416.600228
 30
0.0
  0
SPLINE
  5
122
100
AcDbEntity
  8
0
 62
7
100
AcDbSpline
 70
8
 71
3
 72
8
 73
4
 74
0
 40
0
 40
0
 40
0
 40
0
 40
1
 40
1
 40
1
 40
1
 10
6.833507
 20
416.600228
 30
0.0
 10
6.287673
 20
417.275023
 30
0.0
 10
6.060830
 20
418.153140
 30
0.0
 10
6.211542
 20
419.007873
 30
0.0
  0
SPLINE
  5
123
100
AcDbEntity
  8
0
 62
7
100
AcDbSpline
 70
8
 71
3
 72
8
 73
4
 74
0
 40
0
 40
0
 40
0
 40
0
 40
1
 40
1
 40
1
 40
1
 10
6.211542
 20
419.007873
 30
0.0
 10
6.211542
 20
419.007873
 30
0.0
 10
13.478417
 20
460.220368
 30
0.0
 10
13.478417
 20
460.220368
 30
0.0
  0
SPLINE
  5
124
100
AcDbEntity
  8
0
 62
7
100
AcDbSpline
 70
8
 71
3
 72
8
 73
4
 74
0
 40
0
 40
0
 40
0
 40
0
 40
1
 40
1
 40
1
 40
1
 10
13.478417
 20
460.220368
 30
0.0
 10
13.600892
 20
460.914961
 30
0.0
 10
13.964180
 20
461.544194
 30
0.0
 10
14.504477
 20
461.997557
 30
0.0
  0
SPLINE
  5
125
100
AcDbEntity
  8
0
 62
7
100
AcDbSpline
 70
8
 71
3
 72
8
 73
4
 74
0
 40
0
 40
0
 40
0
 40
0
 40
1
 40
1
 40
1
 40
1
 10
14.504477
 20
461.997557
 30
0.0
 10
14.504477
 20
461.997557
 30
0.0
 10
20.532236
 20
467.055447
 30
0.0
 10
20.532236
 20
467.055447
 30
0.0
  0
SPLINE
  5
126
100
AcDbEntity
  8
0
 62
7
100
AcDbSpline
 70
8
 71
3
 72
8
 73
4
 74
0
 40
0
 40
0
 40
0
 40
0
 40
1
 40
1
 40
1
 40
1
 10
20.532236
 20
467.055447
 30
0.0
 10
21.148907
 20
467.572895
 30
0.0
 10
21.947664
 20
467.820797
 30
0.0
 10
22.748943
 20
467.743424
 30
0.0
  0
SPLINE
  5
127
100
AcDbEntity
  8
0
 62
7
100
AcDbSpline
 70
8
 71
3
 72
8
 73
4
 74
0
 40
0
 40
0
 40
0
 40
0
 40
1
 40
1
 40
1
 40
1
 10
22.748943
 20
467.743424
 30
0.0
 10
23.550223
 20
467.666051
 30
0.0
 10
24.286788
 20
467.269895
 30
0.0
 10
24.793057
 20
466.644014
 30
0.0
  0
LWPOLYLINE
  5
128
100
AcDbEntity
  8
0
 62
7
100
AcDbPolyline
 90
2
 70
1
 10
20.313382
 20
416.504078
 30
0.0
 10
14.757349
 20
411.720759
 30
0.0
  0
SPLINE
  5
129
100
AcDbEntity
  8
0
 62
7
100
AcDbSpline
 70
8
 71
3
 72
8
 73
4
 74
0
 40
0
 40
0
 40
0
 40
0
 40
1
 40
1
 40
1
 40
1
 10
28.079566
 20
462.581026
 30
0.0
 10
28.625400
 20
461.906231
 30
0.0
 10
28.852244
 20
461.028114
 30
0.0
 10
28.701531
 20
460.173381
 30
0.0
  0
LWPOLYLINE
  5
12a
100
AcDbEntity
  8
0
 62
7
100
AcDbPolyline
 90
2
 70
1
 10
24.793057
 20
466.644014
 30
0.0
 10
28.079566
 20
462.581026
 30
0.0
  0
SPLINE
  5
12b
100
AcDbEntity
  8
0
 62
7
100
AcDbSpline
 70
8
 71
3
 72
8
 73
4
 74
0
 40
0
 40
0
 40
0
 40
0
 40
1
 40
1
 40
1
 40
1
 10
98.400097
 20
416.933073
 30
0.0
 10
100.389221
 20
416.933072
 30
0.0
 10
102.296876
 20
417.723248
 30
0.0
 10
103.703400
 20
419.129771
 30
0.0
  0
SPLINE
  5
12c
100
AcDbEntity
  8
0
 62
7
100
AcDbSpline
 70
8
 71
3
 72
8
 73
4
 74
0
 40
0
 40
0
 40
0
 40
0
 40
1
 40
1
 40
1
 40
1
 10
103.703400
 20
419.129771
 30
0.0
 10
105.109923
 20
420.536294
 30
0.0
 10
105.900100
 20
422.443949
 30
0.0
 10
105.900100
 20
424.433073
 30
0.0
  0
SPLINE
  5
12d
100
AcDbEntity
  8
0
 62
7
100
AcDbSpline
 70
8
 71
3
 72
8
 73
4
 74
0
 40
0
 40
0
 40
0
 40
0
 40
1
 40
1
 40
1
 40
1
 10
105.900100
 20
424.433073
 30
0.0
 10
105.900100
 20
428.575208
 30
0.0
 10
102.542236
 20
431.933072
 30
0.0
 10
98.400101
 20
431.933073
 30
0.0
  0
SPLINE
  5
12e
100
AcDbEntity
  8
0
 62
7
100
AcDbSpline
 70
8
 71
3
 72
8
 73
4
 74
0
 40
0
 40
0
 40
0
 40
0
 40
1
 40
1
 40
1
 40
1
 10
98.400101
 20
431.933073
 30
0.0
 10
94.257966
 20
431.933074
 30
0.0
 10
90.900101
 20
428.575210
 30
0.0
 10
90.900100
 20
424.433075
 30
0.0
  0
SPLINE
  5
12f
100
AcDbEntity
  8
0
 62
7
100
AcDbSpline
 70
8
 71
3
 72
8
 73
4
 74
0
 40
0
 40
0
 40
0
 40
0
 40
1
 40
1
 40
1
 40
1
 10
90.900100
 20
424.433075
 30
0.0
 10
90.900099
 20
420.290940
 30
0.0
 10
94.257962
 20
416.933075
 30
0.0
 10
98.400097
 20
416.933073
 30
0.0
  0
LWPOLYLINE
  5
130
100
AcDbEntity
  8
0
 62
7
100
AcDbPolyline
 90
2
 70
1
 10
28.701531
 20
460.173381
 30
0.0
 10
28.701531
 20
460.173381
 30
0.0
  0
LWPOLYLINE
  5
131
100
AcDbEntity
  8
0
 62
7
100
AcDbPolyline
 90
2
 70
1
 10
98.400097
 20
416.933073
 30
0.0
 10
98.400097
 20
416.933073
 30
0.0
  0
LWPOLYLINE
  5
132
100
AcDbEntity
  8
0
 62
7
100
AcDbPolyline
 90
6
 70
1
 10
1.066800
 20
394.093200
 30
0.0
 10
107.746800
 20
394.093200
 30
0.0
 10
107.746800
 20
546.493200
 30
0.0
 10
1.066800
 20
546.493200
 30
0.0
 10
1.066800
 20
394.093200
 30
0.0
 10
1.066800
 20
394.093200
 30
0.0
  0
SPLINE
  5
133
100
AcDbEntity
  8
0
 62
7
100
AcDbSpline
 70
8
 71
3
 72
8
 73
4
 74
0
 40
0
 40
0
 40
0
 40
0
 40
1
 40
1
 40
1
 40
1
 10
25.486249
 20
473.822749
 30
0.0
 10
24.869578
 20
473.305301
 30
0.0
 10
24.070821
 20
473.057399
 30
0.0
 10
23.269542
 20
473.134772
 30
0.0
  0
SPLINE
  5
134
100
AcDbEntity
  8
0
 62
7
100
AcDbSpline
 70
8
 71
3
 72
8
 73
4
 74
0
 40
0
 40
0
 40
0
 40
0
 40
1
 40
1
 40
1
 40
1
 10
23.269542
 20
473.134772
 30
0.0
 10
22.468262
 20
473.212145
 30
0.0
 10
21.731697
 20
473.608301
 30
0.0
 10
21.225428
 20
474.234182
 30
0.0
  0
LWPOLYLINE
  5
135
100
AcDbEntity
  8
0
 62
7
100
AcDbPolyline
 90
2
 70
1
 10
31.248087
 20
478.657505
 30
0.0
 10
25.486249
 20
473.822749
 30
0.0
  0
SPLINE
  5
136
100
AcDbEntity
  8
0
 62
7
100
AcDbSpline
 70
8
 71
3
 72
8
 73
4
 74
0
 40
0
 40
0
 40
0
 40
0
 40
1
 40
1
 40
1
 40
1
 10
17.752894
 20
478.527147
 30
0.0
 10
17.207060
 20
479.201942
 30
0.0
 10
16.980216
 20
480.080059
 30
0.0
 10
17.130929
 20
480.934792
 30
0.0
  0
SPLINE
  5
137
100
AcDbEntity
  8
0
 62
7
100
AcDbSpline
 70
8
 71
3
 72
8
 73
4
 74
0
 40
0
 40
0
 40
0
 40
0
 40
1
 40
1
 40
1
 40
1
 10
17.130929
 20
480.934792
 30
0.0
 10
17.130929
 20
480.934792
 30
0.0
 10
24.393912
 20
522.125220
 30
0.0
 10
24.393912
 20
522.125220
 30
0.0
  0
SPLINE
  5
138
100
AcDbEntity
  8
0
 62
7
100
AcDbSpline
 70
8
 71
3
 72
8
 73
4
 74
0
 40
0
 40
0
 40
0
 40
0
 40
1
 40
1
 40
1
 40
1
 10
24.393912
 20
522.125220
 30
0.0
 10
24.513729
 20
522.804743
 30
0.0
 10
24.864126
 20
523.422192
 30
0.0
 10
25.386055
 20
523.873520
 30
0.0
  0
LWPOLYLINE
  5
139
100
AcDbEntity
  8
0
 62
7
100
AcDbPolyline
 90
2
 70
1
 10
21.225428
 20
474.234182
 30
0.0
 10
17.752894
 20
478.527147
 30
0.0
  0
SPLINE
  5
13a
100
AcDbEntity
  8
0
 62
7
100
AcDbSpline
 70
8
 71
3
 72
8
 73
4
 74
0
 40
0
 40
0
 40
0
 40
0
 40
1
 40
1
 40
1
 40
1
 10
31.295724
 20
528.983780
 30
0.0
 10
31.897564
 20
529.504209
 30
0.0
 10
32.681494
 20
529.764243
 30
0.0
 10
33.475059
 20
529.706677
 30
0.0
  0
SPLINE
  5
13b
100
AcDbEntity
  8
0
 62
7
100
AcDbSpline
 70
8
 71
3
 72
8
 73
4
 74
0
 40
0
 40
0
 40
0
 40
0
 40
1
 40
1
 40
1
 40
1
 10
33.475059
 20
529.706677
 30
0.0
 10
34.268623
 20
529.649111
 30
0.0
 10
35.006817
 20
529.278660
 30
0.0
 10
35.527246
 20
528.676820
 30
0.0
  0
LWPOLYLINE
  5
13c
100
AcDbEntity
  8
0
 62
7
100
AcDbPolyline
 90
2
 70
1
 10
25.386055
 20
523.873520
 30
0.0
 10
31.295724
 20
528.983780
 30
0.0
  0
SPLINE
  5
13d
100
AcDbEntity
  8
0
 62
7
100
AcDbSpline
 70
8
 71
3
 72
8
 73
4
 74
0
 40
0
 40
0
 40
0
 40
0
 40
1
 40
1
 40
1
 40
1
 10
38.957941
 20
524.709460
 30
0.0
 10
39.548176
 20
524.026894
 30
0.0
 10
39.799818
 20
523.114903
 30
0.0
 10
39.643124
 20
522.226240
 30
0.0
  0
SPLINE
  5
13e
100
AcDbEntity
  8
0
 62
7
100
AcDbSpline
 70
8
 71
3
 72
8
 73
4
 74
0
 40
0
 40
0
 40
0
 40
0
 40
1
 40
1
 40
1
 40
1
 10
39.643124
 20
522.226240
 30
0.0
 10
39.643124
 20
522.226240
 30
0.0
 10
32.274147
 20
480.434694
 30
0.0
 10
32.274147
 20
480.434694
 30
0.0
  0
SPLINE
  5
13f
100
AcDbEntity
  8
0
 62
7
100
AcDbSpline
 70
8
 71
3
 72
8
 73
4
 74
0
 40
0
 40
0
 40
0
 40
0
 40
1
 40
1
 40
1
 40
1
 10
32.274147
 20
480.434694
 30
0.0
 10
32.151672
 20
479.740101
 30
0.0
 10
31.788384
 20
479.110868
 30
0.0
 10
31.248087
 20
478.657505
 30
0.0
  0
LWPOLYLINE
  5
140
100
AcDbEntity
  8
0
 62
7
100
AcDbPolyline
 90
2
 70
1
 10
35.527246
 20
528.676820
 30
0.0
 10
38.957941
 20
524.709460
 30
0.0
  0
SPLINE
  5
141
100
AcDbEntity
  8
0
 62
7
100
AcDbSpline
 70
8
 71
3
 72
8
 73
4
 74
0
 40
0
 40
0
 40
0
 40
0
 40
1
 40
1
 40
1
 40
1
 10
77.565111
 20
461.951294
 30
0.0
 10
77.565111
 20
461.951294
 30
0.0
 10
83.326948
 20
466.786050
 30
0.0
 10
83.326948
 20
466.786050
 30
0.0
  0
SPLINE
  5
142
100
AcDbEntity
  8
0
 62
7
100
AcDbSpline
 70
8
 71
3
 72
8
 73
4
 74
0
 40
0
 40
0
 40
0
 40
0
 40
1
 40
1
 40
1
 40
1
 10
83.326948
 20
466.786050
 30
0.0
 10
83.943619
 20
467.303498
 30
0.0
 10
84.742375
 20
467.551401
 30
0.0
 10
85.543655
 20
467.474028
 30
0.0
  0
SPLINE
  5
143
100
AcDbEntity
  8
0
 62
7
100
AcDbSpline
 70
8
 71
3
 72
8
 73
4
 74
0
 40
0
 40
0
 40
0
 40
0
 40
1
 40
1
 40
1
 40
1
 10
85.543655
 20
467.474028
 30
0.0
 10
86.344935
 20
467.396655
 30
0.0
 10
87.081500
 20
467.000499
 30
0.0
 10
87.587769
 20
466.374618
 30
0.0
  0
LWPOLYLINE
  5
144
100
AcDbEntity
  8
0
 62
7
100
AcDbPolyline
 90
2
 70
1
 10
31.248087
 20
478.657505
 30
0.0
 10
31.248087
 20
478.657505
 30
0.0
  0
SPLINE
  5
145
100
AcDbEntity
  8
0
 62
7
100
AcDbSpline
 70
8
 71
3
 72
8
 73
4
 74
0
 40
0
 40
0
 40
0
 40
0
 40
1
 40
1
 40
1
 40
1
 10
91.060303
 20
462.081652
 30
0.0
 10
91.606137
 20
461.406857
 30
0.0
 10
91.832981
 20
460.528740
 30
0.0
 10
91.682268
 20
459.674007
 30
0.0
  0
LWPOLYLINE
  5
146
100
AcDbEntity
  8
0
 62
7
100
AcDbPolyline
 90
2
 70
1
 10
87.587769
 20
466.374618
 30
0.0
 10
91.060303
 20
462.081652
 30
0.0
  0
SPLINE
  5
147
100
AcDbEntity
  8
0
 62
7
100
AcDbSpline
 70
8
 71
3
 72
8
 73
4
 74
0
 40
0
 40
0
 40
0
 40
0
 40
1
 40
1
 40
1
 40
1
 10
84.335498
 20
418.008401
 30
0.0
 10
84.213023
 20
417.313808
 30
0.0
 10
83.849735
 20
416.684575
 30
0.0
 10
83.309438
 20
416.231212
 30
0.0
  0
SPLINE
  5
148
100
AcDbEntity
  8
0
 62
7
100
AcDbSpline
 70
8
 71
3
 72
8
 73
4
 74
0
 40
0
 40
0
 40
0
 40
0
 40
1
 40
1
 40
1
 40
1
 10
83.309438
 20
416.231212
 30
0.0
 10
83.309438
 20
416.231212
 30
0.0
 10
77.505871
 20
411.361442
 30
0.0
 10
77.505871
 20
411.361442
 30
0.0
  0
SPLINE
  5
149
100
AcDbEntity
  8
0
 62
7
100
AcDbSpline
 70
8
 71
3
 72
8
 73
4
 74
0
 40
0
 40
0
 40
0
 40
0
 40
1
 40
1
 40
1
 40
1
 10
77.505871
 20
411.361442
 30
0.0
 10
76.236647
 20
410.296437
 30
0.0
 10
74.344381
 20
410.461988
 30
0.0
 10
73.279375
 20
411.731212
 30
0.0
  0
LWPOLYLINE
  5
14a
100
AcDbEntity
  8
0
 62
7
100
AcDbPolyline
 90
2
 70
1
 10
91.682268
 20
459.674007
 30
0.0
 10
84.335498
 20
418.008401
 30
0.0
  0
SPLINE
  5
14b
100
AcDbEntity
  8
0
 62
7
100
AcDbSpline
 70
8
 71
3
 72
8
 73
4
 74
0
 40
0
 40
0
 40
0
 40
0
 40
1
 40
1
 40
1
 40
1
 10
69.813701
 20
415.861442
 30
0.0
 10
69.243691
 20
416.540754
 30
0.0
 10
69.003424
 20
417.437443
 30
0.0
 10
69.157411
 20
418.310749
 30
0.0
  0
SPLINE
  5
14c
100
AcDbEntity
  8
0
 62
7
100
AcDbSpline
 70
8
 71
3
 72
8
 73
4
 74
0
 40
0
 40
0
 40
0
 40
0
 40
1
 40
1
 40
1
 40
1
 10
69.157411
 20
418.310749
 30
0.0
 10
69.157411
 20
418.310749
 30
0.0
 10
76.539050
 20
460.174106
 30
0.0
 10
76.539050
 20
460.174106
 30
0.0
  0
SPLINE
  5
14d
100
AcDbEntity
  8
0
 62
7
100
AcDbSpline
 70
8
 71
3
 72
8
 73
4
 74
0
 40
0
 40
0
 40
0
 40
0
 40
1
 40
1
 40
1
 40
1
 10
76.539050
 20
460.174106
 30
0.0
 10
76.661526
 20
460.868699
 30
0.0
 10
77.024814
 20
461.497931
 30
0.0
 10
77.565111
 20
461.951294
 30
0.0
  0
LWPOLYLINE
  5
14e
100
AcDbEntity
  8
0
 62
7
100
AcDbPolyline
 90
2
 70
1
 10
73.279375
 20
411.731212
 30
0.0
 10
69.813701
 20
415.861442
 30
0.0
  0
SPLINE
  5
14f
100
AcDbEntity
  8
0
 62
7
100
AcDbSpline
 70
8
 71
3
 72
8
 73
4
 74
0
 40
0
 40
0
 40
0
 40
0
 40
1
 40
1
 40
1
 40
1
 10
29.570322
 20
463.917699
 30
0.0
 10
29.570322
 20
463.917699
 30
0.0
 10
26.257241
 20
468.013538
 30
0.0
 10
26.257241
 20
468.013538
 30
0.0
  0
SPLINE
  5
150
100
AcDbEntity
  8
0
 62
7
100
AcDbSpline
 70
8
 71
3
 72
8
 73
4
 74
0
 40
0
 40
0
 40
0
 40
0
 40
1
 40
1
 40
1
 40
1
 10
26.257241
 20
468.013538
 30
0.0
 10
25.228478
 20
469.285359
 30
0.0
 10
25.408231
 20
471.146892
 30
0.0
 10
26.661336
 20
472.198372
 30
0.0
  0
SPLINE
  5
151
100
AcDbEntity
  8
0
 62
7
100
AcDbSpline
 70
8
 71
3
 72
8
 73
4
 74
0
 40
0
 40
0
 40
0
 40
0
 40
1
 40
1
 40
1
 40
1
 10
26.661336
 20
472.198372
 30
0.0
 10
26.661336
 20
472.198372
 30
0.0
 10
32.505887
 20
477.102533
 30
0.0
 10
32.505887
 20
477.102533
 30
0.0
  0
SPLINE
  5
152
100
AcDbEntity
  8
0
 62
7
100
AcDbSpline
 70
8
 71
3
 72
8
 73
4
 74
0
 40
0
 40
0
 40
0
 40
0
 40
1
 40
1
 40
1
 40
1
 10
32.505887
 20
477.102533
 30
0.0
 10
33.046184
 20
477.555896
 30
0.0
 10
33.728942
 20
477.804400
 30
0.0
 10
34.434250
 20
477.804400
 30
0.0
  0
LWPOLYLINE
  5
153
100
AcDbEntity
  8
0
 62
7
100
AcDbPolyline
 90
2
 70
1
 10
77.565111
 20
461.951294
 30
0.0
 10
77.565111
 20
461.951294
 30
0.0
  0
SPLINE
  5
154
100
AcDbEntity
  8
0
 62
7
100
AcDbSpline
 70
8
 71
3
 72
8
 73
4
 74
0
 40
0
 40
0
 40
0
 40
0
 40
1
 40
1
 40
1
 40
1
 10
76.910417
 20
477.804400
 30
0.0
 10
77.816093
 20
477.804400
 30
0.0
 10
78.673295
 20
477.395251
 30
0.0
 10
79.242875
 20
476.691100
 30
0.0
  0
LWPOLYLINE
  5
155
100
AcDbEntity
  8
0
 62
7
100
AcDbPolyline
 90
2
 70
1
 10
34.434250
 20
477.804400
 30
0.0
 10
76.910417
 20
477.804400
 30
0.0
  0
SPLINE
  5
156
100
AcDbEntity
  8
0
 62
7
100
AcDbSpline
 70
8
 71
3
 72
8
 73
4
 74
0
 40
0
 40
0
 40
0
 40
0
 40
1
 40
1
 40
1
 40
1
 10
82.555957
 20
472.595261
 30
0.0
 10
83.584719
 20
471.323440
 30
0.0
 10
83.404966
 20
469.461907
 30
0.0
 10
82.151861
 20
468.410427
 30
0.0
  0
LWPOLYLINE
  5
157
100
AcDbEntity
  8
0
 62
7
100
AcDbPolyline
 90
2
 70
1
 10
79.242875
 20
476.691100
 30
0.0
 10
82.555957
 20
472.595261
 30
0.0
  0
SPLINE
  5
158
100
AcDbEntity
  8
0
 62
7
100
AcDbSpline
 70
8
 71
3
 72
8
 73
4
 74
0
 40
0
 40
0
 40
0
 40
0
 40
1
 40
1
 40
1
 40
1
 10
76.307310
 20
463.506266
 30
0.0
 10
75.767013
 20
463.052903
 30
0.0
 10
75.084255
 20
462.804400
 30
0.0
 10
74.378947
 20
462.804400
 30
0.0
  0
SPLINE
  5
159
100
AcDbEntity
  8
0
 62
7
100
AcDbSpline
 70
8
 71
3
 72
8
 73
4
 74
0
 40
0
 40
0
 40
0
 40
0
 40
1
 40
1
 40
1
 40
1
 10
74.378947
 20
462.804400
 30
0.0
 10
74.378947
 20
462.804400
 30
0.0
 10
31.902780
 20
462.804400
 30
0.0
 10
31.902780
 20
462.804400
 30
0.0
  0
SPLINE
  5
15a
100
AcDbEntity
  8
0
 62
7
100
AcDbSpline
 70
8
 71
3
 72
8
 73
4
 74
0
 40
0
 40
0
 40
0
 40
0
 40
1
 40
1
 40
1
 40
1
 10
31.902780
 20
462.804400
 30
0.0
 10
30.997104
 20
462.804400
 30
0.0
 10
30.139902
 20
463.213549
 30
0.0
 10
29.570322
 20
463.917699
 30
0.0
  0
LWPOLYLINE
  5
15b
100
AcDbEntity
  8
0
 62
7
100
AcDbPolyline
 90
2
 70
1
 10
82.151861
 20
468.410427
 30
0.0
 10
76.307310
 20
463.506266
 30
0.0
  0
SPLINE
  5
15c
100
AcDbEntity
  8
0
 62
7
100
AcDbSpline
 70
8
 71
3
 72
8
 73
4
 74
0
 40
0
 40
0
 40
0
 40
0
 40
1
 40
1
 40
1
 40
1
 10
18.836961
 20
401.760803
 30
0.0
 10
18.836961
 20
401.760803
 30
0.0
 10
15.500543
 20
405.885493
 30
0.0
 10
15.500543
 20
405.885493
 30
0.0
  0
SPLINE
  5
15d
100
AcDbEntity
  8
0
 62
7
100
AcDbSpline
 70
8
 71
3
 72
8
 73
4
 74
0
 40
0
 40
0
 40
0
 40
0
 40
1
 40
1
 40
1
 40
1
 10
15.500543
 20
405.885493
 30
0.0
 10
14.481069
 20
407.145831
 30
0.0
 10
14.647187
 20
408.988075
 30
0.0
 10
15.875676
 20
410.045711
 30
0.0
  0
LWPOLYLINE
  5
15e
100
AcDbEntity
  8
0
 62
7
100
AcDbPolyline
 90
2
 70
1
 10
29.570322
 20
463.917699
 30
0.0
 10
29.570322
 20
463.917699
 30
0.0
  0
SPLINE
  5
15f
100
AcDbEntity
  8
0
 62
7
100
AcDbSpline
 70
8
 71
3
 72
8
 73
4
 74
0
 40
0
 40
0
 40
0
 40
0
 40
1
 40
1
 40
1
 40
1
 10
21.538560
 20
414.921021
 30
0.0
 10
22.082976
 20
415.389722
 30
0.0
 10
22.777506
 20
415.647504
 30
0.0
 10
23.495885
 20
415.647504
 30
0.0
  0
LWPOLYLINE
  5
160
100
AcDbEntity
  8
0
 62
7
100
AcDbPolyline
 90
2
 70
1
 10
15.875676
 20
410.045711
 30
0.0
 10
21.538560
 20
414.921021
 30
0.0
  0
SPLINE
  5
161
100
AcDbEntity
  8
0
 62
7
100
AcDbSpline
 70
8
 71
3
 72
8
 73
4
 74
0
 40
0
 40
0
 40
0
 40
0
 40
1
 40
1
 40
1
 40
1
 10
65.983479
 20
415.647504
 30
0.0
 10
66.870258
 20
415.647504
 30
0.0
 10
67.711602
 20
415.255178
 30
0.0
 10
68.281612
 20
414.575866
 30
0.0
  0
LWPOLYLINE
  5
162
100
AcDbEntity
  8
0
 62
7
100
AcDbPolyline
 90
2
 70
1
 10
23.495885
 20
415.647504
 30
0.0
 10
65.983479
 20
415.647504
 30
0.0
  0
SPLINE
  5
163
100
AcDbEntity
  8
0
 62
7
100
AcDbSpline
 70
8
 71
3
 72
8
 73
4
 74
0
 40
0
 40
0
 40
0
 40
0
 40
1
 40
1
 40
1
 40
1
 10
71.747286
 20
410.445637
 30
0.0
 10
72.812291
 20
409.176413
 30
0.0
 10
72.646739
 20
407.284146
 30
0.0
 10
71.377515
 20
406.219141
 30
0.0
  0
LWPOLYLINE
  5
164
100
AcDbEntity
  8
0
 62
7
100
AcDbPolyline
 90
2
 70
1
 10
68.281612
 20
414.575866
 30
0.0
 10
71.747286
 20
410.445637
 30
0.0
  0
SPLINE
  5
165
100
AcDbEntity
  8
0
 62
7
100
AcDbSpline
 70
8
 71
3
 72
8
 73
4
 74
0
 40
0
 40
0
 40
0
 40
0
 40
1
 40
1
 40
1
 40
1
 10
65.573949
 20
401.349370
 30
0.0
 10
65.033652
 20
400.896007
 30
0.0
 10
64.350894
 20
400.647504
 30
0.0
 10
63.645586
 20
400.647504
 30
0.0
  0
LWPOLYLINE
  5
166
100
AcDbEntity
  8
0
 62
7
100
AcDbPolyline
 90
2
 70
1
 10
71.377515
 20
406.219141
 30
0.0
 10
65.573949
 20
401.349370
 30
0.0
  0
SPLINE
  5
167
100
AcDbEntity
  8
0
 62
7
100
AcDbSpline
 70
8
 71
3
 72
8
 73
4
 74
0
 40
0
 40
0
 40
0
 40
0
 40
1
 40
1
 40
1
 40
1
 10
21.169419
 20
400.647504
 30
0.0
 10
20.263743
 20
400.647504
 30
0.0
 10
19.406541
 20
401.056653
 30
0.0
 10
18.836961
 20
401.760803
 30
0.0
  0
LWPOLYLINE
  5
168
100
AcDbEntity
  8
0
 62
7
100
AcDbPolyline
 90
2
 70
1
 10
63.645586
 20
400.647504
 30
0.0
 10
21.169419
 20
400.647504
 30
0.0
  0
LWPOLYLINE
  5
169
100
AcDbEntity
  8
0
 62
7
100
AcDbPolyline
 90
2
 70
1
 10
18.836961
 20
401.760803
 30
0.0
 10
18.836961
 20
401.760803
 30
0.0
  0
SPLINE
  5
16a
100
AcDbEntity
  8
0
 62
7
100
AcDbSpline
 70
8
 71
3
 72
8
 73
4
 74
0
 40
0
 40
0
 40
0
 40
0
 40
1
 40
1
 40
1
 40
1
 10
40.506251
 20
525.976620
 30
0.0
 10
41.076103
 20
525.317625
 30
0.0
 10
41.904282
 20
524.938900
 30
0.0
 10
42.775492
 20
524.938900
 30
0.0
  0
LWPOLYLINE
  5
16b
100
AcDbEntity
  8
0
 62
7
100
AcDbPolyline
 90
6
 70
1
 10
40.506251
 20
525.976620
 30
0.0
 10
37.040073
 20
529.985010
 30
0.0
 10
37.040073
 20
529.985010
 30
0.0
 10
40.506251
 20
525.976620
 30
0.0
 10
40.506251
 20
525.976620
 30
0.0
 10
40.506251
 20
525.976620
 30
0.0
  0
SPLINE
  5
16c
100
AcDbEntity
  8
0
 62
7
100
AcDbSpline
 70
8
 71
3
 72
8
 73
4
 74
0
 40
0
 40
0
 40
0
 40
0
 40
1
 40
1
 40
1
 40
1
 10
42.775492
 20
524.938900
 30
0.0
 10
41.904282
 20
524.938900
 30
0.0
 10
41.076103
 20
525.317625
 30
0.0
 10
40.506251
 20
525.976620
 30
0.0
  0
LWPOLYLINE
  5
16d
100
AcDbEntity
  8
0
 62
7
100
AcDbPolyline
 90
2
 70
1
 10
42.775492
 20
524.938900
 30
0.0
 10
42.775492
 20
524.938900
 30
0.0
  0
SPLINE
  5
16e
100
AcDbEntity
  8
0
 62
7
100
AcDbSpline
 70
8
 71
3
 72
8
 73
4
 74
0
 40
0
 40
0
 40
0
 40
0
 40
1
 40
1
 40
1
 40
1
 10
37.040073
 20
529.985010
 30
0.0
 10
35.956336
 20
531.238277
 30
0.0
 10
36.093767
 20
533.132792
 30
0.0
 10
37.347033
 20
534.216530
 30
0.0
  0
LWPOLYLINE
  5
16f
100
AcDbEntity
  8
0
 62
7
100
AcDbPolyline
 90
3
 70
1
 10
40.506251
 20
525.976620
 30
0.0
 10
40.506251
 20
525.976620
 30
0.0
 10
40.506251
 20
525.976620
 30
0.0
  0
SPLINE
  5
170
100
AcDbEntity
  8
0
 62
7
100
AcDbSpline
 70
8
 71
3
 72
8
 73
4
 74
0
 40
0
 40
0
 40
0
 40
0
 40
1
 40
1
 40
1
 40
1
 10
37.347033
 20
534.216530
 30
0.0
 10
36.093767
 20
533.132792
 30
0.0
 10
35.956336
 20
531.238277
 30
0.0
 10
37.040073
 20
529.985010
 30
0.0
  0
LWPOLYLINE
  5
171
100
AcDbEntity
  8
0
 62
7
100
AcDbPolyline
 90
2
 70
1
 10
37.347033
 20
534.216530
 30
0.0
 10
37.347033
 20
534.216530
 30
0.0
  0
LWPOLYLINE
  5
172
100
AcDbEntity
  8
0
 62
7
100
AcDbPolyline
 90
3
 70
1
 10
37.040073
 20
529.985010
 30
0.0
 10
37.040073
 20
529.985010
 30
0.0
 10
37.040073
 20
529.985010
 30
0.0
  0
LWPOLYLINE
  5
173
100
AcDbEntity
  8
0
 62
7
100
AcDbPolyline
 90
6
 70
1
 10
85.312326
 20
524.938900
 30
0.0
 10
42.775492
 20
524.938900
 30
0.0
 10
42.775492
 20
524.938900
 30
0.0
 10
85.312326
 20
524.938900
 30
0.0
 10
85.312326
 20
524.938900
 30
0.0
 10
85.312326
 20
524.938900
 30
0.0
  0
SPLINE
  5
174
100
AcDbEntity
  8
0
 62
7
100
AcDbSpline
 70
8
 71
3
 72
8
 73
4
 74
0
 40
0
 40
0
 40
0
 40
0
 40
1
 40
1
 40
1
 40
1
 10
85.312326
 20
524.938900
 30
0.0
 10
86.017246
 20
524.938900
 30
0.0
 10
86.699653
 20
525.187130
 30
0.0
 10
87.239824
 20
525.640040
 30
0.0
  0
SPLINE
  5
175
100
AcDbEntity
  8
0
 62
7
100
AcDbSpline
 70
8
 71
3
 72
8
 73
4
 74
0
 40
0
 40
0
 40
0
 40
0
 40
1
 40
1
 40
1
 40
1
 10
87.239824
 20
525.640040
 30
0.0
 10
87.239824
 20
525.640040
 30
0.0
 10
87.239824
 20
525.640040
 30
0.0
 10
87.239824
 20
525.640040
 30
0.0
  0
SPLINE
  5
176
100
AcDbEntity
  8
0
 62
7
100
AcDbSpline
 70
8
 71
3
 72
8
 73
4
 74
0
 40
0
 40
0
 40
0
 40
0
 40
1
 40
1
 40
1
 40
1
 10
87.239824
 20
525.640040
 30
0.0
 10
86.699653
 20
525.187130
 30
0.0
 10
86.017246
 20
524.938900
 30
0.0
 10
85.312326
 20
524.938900
 30
0.0
  0
LWPOLYLINE
  5
177
100
AcDbEntity
  8
0
 62
7
100
AcDbPolyline
 90
6
 70
1
 10
43.119479
 20
539.208140
 30
0.0
 10
37.347033
 20
534.216530
 30
0.0
 10
37.347033
 20
534.216530
 30
0.0
 10
43.119479
 20
539.208140
 30
0.0
 10
43.119479
 20
539.208140
 30
0.0
 10
43.119479
 20
539.208140
 30
0.0
  0
SPLINE
  5
178
100
AcDbEntity
  8
0
 62
7
100
AcDbSpline
 70
8
 71
3
 72
8
 73
4
 74
0
 40
0
 40
0
 40
0
 40
0
 40
1
 40
1
 40
1
 40
1
 10
43.119479
 20
539.208140
 30
0.0
 10
43.664575
 20
539.679501
 30
0.0
 10
44.361128
 20
539.938900
 30
0.0
 10
45.081760
 20
539.938900
 30
0.0
  0
LWPOLYLINE
  5
179
100
AcDbEntity
  8
0
 62
7
100
AcDbPolyline
 90
3
 70
1
 10
85.312326
 20
524.938900
 30
0.0
 10
85.312326
 20
524.938900
 30
0.0
 10
85.312326
 20
524.938900
 30
0.0
  0
SPLINE
  5
17a
100
AcDbEntity
  8
0
 62
7
100
AcDbSpline
 70
8
 71
3
 72
8
 73
4
 74
0
 40
0
 40
0
 40
0
 40
0
 40
1
 40
1
 40
1
 40
1
 10
45.081760
 20
539.938900
 30
0.0
 10
44.361128
 20
539.938900
 30
0.0
 10
43.664575
 20
539.679501
 30
0.0
 10
43.119479
 20
539.208140
 30
0.0
  0
LWPOLYLINE
  5
17b
100
AcDbEntity
  8
0
 62
7
100
AcDbPolyline
 90
2
 70
1
 10
45.081760
 20
539.938900
 30
0.0
 10
45.081760
 20
539.938900
 30
0.0
  0
LWPOLYLINE
  5
17c
100
AcDbEntity
  8
0
 62
7
100
AcDbPolyline
 90
3
 70
1
 10
43.119479
 20
539.208140
 30
0.0
 10
43.119479
 20
539.208140
 30
0.0
 10
43.119479
 20
539.208140
 30
0.0
  0
LWPOLYLINE
  5
17d
100
AcDbEntity
  8
0
 62
7
100
AcDbPolyline
 90
6
 70
1
 10
87.239824
 20
525.640040
 30
0.0
 10
92.775819
 20
530.281740
 30
0.0
 10
92.775819
 20
530.281740
 30
0.0
 10
87.239824
 20
525.640040
 30
0.0
 10
87.239824
 20
525.640040
 30
0.0
 10
87.239824
 20
525.640040
 30
0.0
  0
SPLINE
  5
17e
100
AcDbEntity
  8
0
 62
7
100
AcDbSpline
 70
8
 71
3
 72
8
 73
4
 74
0
 40
0
 40
0
 40
0
 40
0
 40
1
 40
1
 40
1
 40
1
 10
93.147180
 20
534.508100
 30
0.0
 10
93.658385
 20
533.898405
 30
0.0
 10
93.906452
 20
533.110605
 30
0.0
 10
93.836808
 20
532.318009
 30
0.0
  0
SPLINE
  5
17f
100
AcDbEntity
  8
0
 62
7
100
AcDbSpline
 70
8
 71
3
 72
8
 73
4
 74
0
 40
0
 40
0
 40
0
 40
0
 40
1
 40
1
 40
1
 40
1
 10
93.836808
 20
532.318009
 30
0.0
 10
93.767165
 20
531.525412
 30
0.0
 10
93.385515
 20
530.792944
 30
0.0
 10
92.775819
 20
530.281740
 30
0.0
  0
SPLINE
  5
180
100
AcDbEntity
  8
0
 62
7
100
AcDbSpline
 70
8
 71
3
 72
8
 73
4
 74
0
 40
0
 40
0
 40
0
 40
0
 40
1
 40
1
 40
1
 40
1
 10
92.775819
 20
530.281740
 30
0.0
 10
92.775819
 20
530.281740
 30
0.0
 10
92.775819
 20
530.281740
 30
0.0
 10
92.775819
 20
530.281740
 30
0.0
  0
SPLINE
  5
181
100
AcDbEntity
  8
0
 62
7
100
AcDbSpline
 70
8
 71
3
 72
8
 73
4
 74
0
 40
0
 40
0
 40
0
 40
0
 40
1
 40
1
 40
1
 40
1
 10
92.775819
 20
530.281740
 30
0.0
 10
93.385515
 20
530.792944
 30
0.0
 10
93.767165
 20
531.525412
 30
0.0
 10
93.836808
 20
532.318009
 30
0.0
  0
SPLINE
  5
182
100
AcDbEntity
  8
0
 62
7
100
AcDbSpline
 70
8
 71
3
 72
8
 73
4
 74
0
 40
0
 40
0
 40
0
 40
0
 40
1
 40
1
 40
1
 40
1
 10
93.836808
 20
532.318009
 30
0.0
 10
93.906452
 20
533.110605
 30
0.0
 10
93.658385
 20
533.898405
 30
0.0
 10
93.147180
 20
534.508100
 30
0.0
  0
LWPOLYLINE
  5
183
100
AcDbEntity
  8
0
 62
7
100
AcDbPolyline
 90
6
 70
1
 10
45.081760
 20
539.938900
 30
0.0
 10
87.194070
 20
539.938900
 30
0.0
 10
87.194070
 20
539.938900
 30
0.0
 10
45.081760
 20
539.938900
 30
0.0
 10
45.081760
 20
539.938900
 30
0.0
 10
45.081760
 20
539.938900
 30
0.0
  0
SPLINE
  5
184
100
AcDbEntity
  8
0
 62
7
100
AcDbSpline
 70
8
 71
3
 72
8
 73
4
 74
0
 40
0
 40
0
 40
0
 40
0
 40
1
 40
1
 40
1
 40
1
 10
87.194070
 20
539.938900
 30
0.0
 10
88.081244
 20
539.938898
 30
0.0
 10
88.922921
 20
539.546222
 30
0.0
 10
89.492928
 20
538.866390
 30
0.0
  0
LWPOLYLINE
  5
185
100
AcDbEntity
  8
0
 62
7
100
AcDbPolyline
 90
3
 70
1
 10
93.147180
 20
534.508100
 30
0.0
 10
93.147180
 20
534.508100
 30
0.0
 10
93.147180
 20
534.508100
 30
0.0
  0
SPLINE
  5
186
100
AcDbEntity
  8
0
 62
7
100
AcDbSpline
 70
8
 71
3
 72
8
 73
4
 74
0
 40
0
 40
0
 40
0
 40
0
 40
1
 40
1
 40
1
 40
1
 10
89.492928
 20
538.866390
 30
0.0
 10
88.922921
 20
539.546222
 30
0.0
 10
88.081244
 20
539.938898
 30
0.0
 10
87.194070
 20
539.938900
 30
0.0
  0
LWPOLYLINE
  5
187
100
AcDbEntity
  8
0
 62
7
100
AcDbPolyline
 90
2
 70
1
 10
89.492928
 20
538.866390
 30
0.0
 10
89.492928
 20
538.866390
 30
0.0
  0
LWPOLYLINE
  5
188
100
AcDbEntity
  8
0
 62
7
100
AcDbPolyline
 90
3
 70
1
 10
87.194070
 20
539.938900
 30
0.0
 10
87.194070
 20
539.938900
 30
0.0
 10
87.194070
 20
539.938900
 30
0.0
  0
LWPOLYLINE
  5
189
100
AcDbEntity
  8
0
 62
7
100
AcDbPolyline
 90
6
 70
1
 10
89.492928
 20
538.866390
 30
0.0
 10
93.147180
 20
534.508100
 30
0.0
 10
93.147180
 20
534.508100
 30
0.0
 10
89.492928
 20
538.866390
 30
0.0
 10
89.492928
 20
538.866390
 30
0.0
 10
89.492928
 20
538.866390
 30
0.0
  0
SPLINE
  5
18a
100
AcDbEntity
  8
0
 62
7
100
AcDbSpline
 70
8
 71
3
 72
8
 73
4
 74
0
 40
0
 40
0
 40
0
 40
0
 40
1
 40
1
 40
1
 40
1
 10
80.733632
 20
478.027774
 30
0.0
 10
80.187797
 20
478.702569
 30
0.0
 10
79.960954
 20
479.580685
 30
0.0
 10
80.111666
 20
480.435419
 30
0.0
  0
LWPOLYLINE
  5
18b
100
AcDbEntity
  8
0
 62
7
100
AcDbPolyline
 90
6
 70
1
 10
80.733632
 20
478.027774
 30
0.0
 10
84.020140
 20
473.964785
 30
0.0
 10
84.020140
 20
473.964785
 30
0.0
 10
80.733632
 20
478.027774
 30
0.0
 10
80.733632
 20
478.027774
 30
0.0
 10
80.733632
 20
478.027774
 30
0.0
  0
SPLINE
  5
18c
100
AcDbEntity
  8
0
 62
7
100
AcDbSpline
 70
8
 71
3
 72
8
 73
4
 74
0
 40
0
 40
0
 40
0
 40
0
 40
1
 40
1
 40
1
 40
1
 10
80.111666
 20
480.435419
 30
0.0
 10
79.960954
 20
479.580685
 30
0.0
 10
80.187797
 20
478.702569
 30
0.0
 10
80.733632
 20
478.027774
 30
0.0
  0
LWPOLYLINE
  5
18d
100
AcDbEntity
  8
0
 62
7
100
AcDbPolyline
 90
2
 70
1
 10
80.111666
 20
480.435419
 30
0.0
 10
80.111666
 20
480.435419
 30
0.0
  0
SPLINE
  5
18e
100
AcDbEntity
  8
0
 62
7
100
AcDbSpline
 70
8
 71
3
 72
8
 73
4
 74
0
 40
0
 40
0
 40
0
 40
0
 40
1
 40
1
 40
1
 40
1
 10
84.020140
 20
473.964785
 30
0.0
 10
84.526409
 20
473.338904
 30
0.0
 10
85.262974
 20
472.942748
 30
0.0
 10
86.064254
 20
472.865375
 30
0.0
  0
SPLINE
  5
18f
100
AcDbEntity
  8
0
 62
7
100
AcDbSpline
 70
8
 71
3
 72
8
 73
4
 74
0
 40
0
 40
0
 40
0
 40
0
 40
1
 40
1
 40
1
 40
1
 10
86.064254
 20
472.865375
 30
0.0
 10
86.865533
 20
472.788002
 30
0.0
 10
87.664290
 20
473.035904
 30
0.0
 10
88.280961
 20
473.553352
 30
0.0
  0
LWPOLYLINE
  5
190
100
AcDbEntity
  8
0
 62
7
100
AcDbPolyline
 90
3
 70
1
 10
80.733632
 20
478.027774
 30
0.0
 10
80.733632
 20
478.027774
 30
0.0
 10
80.733632
 20
478.027774
 30
0.0
  0
SPLINE
  5
191
100
AcDbEntity
  8
0
 62
7
100
AcDbSpline
 70
8
 71
3
 72
8
 73
4
 74
0
 40
0
 40
0
 40
0
 40
0
 40
1
 40
1
 40
1
 40
1
 10
88.280961
 20
473.553352
 30
0.0
 10
87.664290
 20
473.035904
 30
0.0
 10
86.865533
 20
472.788002
 30
0.0
 10
86.064254
 20
472.865375
 30
0.0
  0
SPLINE
  5
192
100
AcDbEntity
  8
0
 62
7
100
AcDbSpline
 70
8
 71
3
 72
8
 73
4
 74
0
 40
0
 40
0
 40
0
 40
0
 40
1
 40
1
 40
1
 40
1
 10
86.064254
 20
472.865375
 30
0.0
 10
85.262974
 20
472.942748
 30
0.0
 10
84.526409
 20
473.338904
 30
0.0
 10
84.020140
 20
473.964785
 30
0.0
  0
LWPOLYLINE
  5
193
100
AcDbEntity
  8
0
 62
7
100
AcDbPolyline
 90
2
 70
1
 10
88.280961
 20
473.553352
 30
0.0
 10
88.280961
 20
473.553352
 30
0.0
  0
LWPOLYLINE
  5
194
100
AcDbEntity
  8
0
 62
7
100
AcDbPolyline
 90
3
 70
1
 10
84.020140
 20
473.964785
 30
0.0
 10
84.020140
 20
473.964785
 30
0.0
 10
84.020140
 20
473.964785
 30
0.0
  0
LWPOLYLINE
  5
195
100
AcDbEntity
  8
0
 62
7
100
AcDbPolyline
 90
6
 70
1
 10
80.111666
 20
480.435419
 30
0.0
 10
87.498877
 20
522.330370
 30
0.0
 10
87.498877
 20
522.330370
 30
0.0
 10
80.111666
 20
480.435419
 30
0.0
 10
80.111666
 20
480.435419
 30
0.0
 10
80.111666
 20
480.435419
 30
0.0
  0
SPLINE
  5
196
100
AcDbEntity
  8
0
 62
7
100
AcDbSpline
 70
8
 71
3
 72
8
 73
4
 74
0
 40
0
 40
0
 40
0
 40
0
 40
1
 40
1
 40
1
 40
1
 10
87.498877
 20
522.330370
 30
0.0
 10
87.621418
 20
523.025347
 30
0.0
 10
87.985036
 20
523.654879
 30
0.0
 10
88.525802
 20
524.108290
 30
0.0
  0
LWPOLYLINE
  5
197
100
AcDbEntity
  8
0
 62
7
100
AcDbPolyline
 90
6
 70
1
 10
94.308720
 20
478.611243
 30
0.0
 10
88.280961
 20
473.553352
 30
0.0
 10
88.280961
 20
473.553352
 30
0.0
 10
94.308720
 20
478.611243
 30
0.0
 10
94.308720
 20
478.611243
 30
0.0
 10
94.308720
 20
478.611243
 30
0.0
  0
SPLINE
  5
198
100
AcDbEntity
  8
0
 62
7
100
AcDbSpline
 70
8
 71
3
 72
8
 73
4
 74
0
 40
0
 40
0
 40
0
 40
0
 40
1
 40
1
 40
1
 40
1
 10
88.525802
 20
524.108290
 30
0.0
 10
87.985036
 20
523.654879
 30
0.0
 10
87.621418
 20
523.025347
 30
0.0
 10
87.498877
 20
522.330370
 30
0.0
  0
LWPOLYLINE
  5
199
100
AcDbEntity
  8
0
 62
7
100
AcDbPolyline
 90
2
 70
1
 10
88.525802
 20
524.108290
 30
0.0
 10
88.525802
 20
524.108290
 30
0.0
  0
SPLINE
  5
19a
100
AcDbEntity
  8
0
 62
7
100
AcDbSpline
 70
8
 71
3
 72
8
 73
4
 74
0
 40
0
 40
0
 40
0
 40
0
 40
1
 40
1
 40
1
 40
1
 10
94.308720
 20
478.611243
 30
0.0
 10
94.849017
 20
479.064606
 30
0.0
 10
95.212305
 20
479.693839
 30
0.0
 10
95.334780
 20
480.388432
 30
0.0
  0
LWPOLYLINE
  5
19b
100
AcDbEntity
  8
0
 62
7
100
AcDbPolyline
 90
3
 70
1
 10
87.498877
 20
522.330370
 30
0.0
 10
87.498877
 20
522.330370
 30
0.0
 10
87.498877
 20
522.330370
 30
0.0
  0
SPLINE
  5
19c
100
AcDbEntity
  8
0
 62
7
100
AcDbSpline
 70
8
 71
3
 72
8
 73
4
 74
0
 40
0
 40
0
 40
0
 40
0
 40
1
 40
1
 40
1
 40
1
 10
95.334780
 20
480.388432
 30
0.0
 10
95.212305
 20
479.693839
 30
0.0
 10
94.849017
 20
479.064606
 30
0.0
 10
94.308720
 20
478.611243
 30
0.0
  0
LWPOLYLINE
  5
19d
100
AcDbEntity
  8
0
 62
7
100
AcDbPolyline
 90
2
 70
1
 10
95.334780
 20
480.388432
 30
0.0
 10
95.334780
 20
480.388432
 30
0.0
  0
LWPOLYLINE
  5
19e
100
AcDbEntity
  8
0
 62
7
100
AcDbPolyline
 90
3
 70
1
 10
94.308720
 20
478.611243
 30
0.0
 10
94.308720
 20
478.611243
 30
0.0
 10
94.308720
 20
478.611243
 30
0.0
  0
LWPOLYLINE
  5
19f
100
AcDbEntity
  8
0
 62
7
100
AcDbPolyline
 90
6
 70
1
 10
88.525802
 20
524.108290
 30
0.0
 10
94.060818
 20
528.749170
 30
0.0
 10
94.060818
 20
528.749170
 30
0.0
 10
88.525802
 20
524.108290
 30
0.0
 10
88.525802
 20
524.108290
 30
0.0
 10
88.525802
 20
524.108290
 30
0.0
  0
SPLINE
  5
1a0
100
AcDbEntity
  8
0
 62
7
100
AcDbSpline
 70
8
 71
3
 72
8
 73
4
 74
0
 40
0
 40
0
 40
0
 40
0
 40
1
 40
1
 40
1
 40
1
 10
94.060818
 20
528.749170
 30
0.0
 10
94.670513
 20
529.260374
 30
0.0
 10
95.458312
 20
529.508441
 30
0.0
 10
96.250908
 20
529.438797
 30
0.0
  0
SPLINE
  5
1a1
100
AcDbEntity
  8
0
 62
7
100
AcDbSpline
 70
8
 71
3
 72
8
 73
4
 74
0
 40
0
 40
0
 40
0
 40
0
 40
1
 40
1
 40
1
 40
1
 10
96.250908
 20
529.438797
 30
0.0
 10
97.043503
 20
529.369154
 30
0.0
 10
97.775971
 20
528.987505
 30
0.0
 10
98.287175
 20
528.377810
 30
0.0
  0
LWPOLYLINE
  5
1a2
100
AcDbEntity
  8
0
 62
7
100
AcDbPolyline
 90
6
 70
1
 10
102.596490
 20
521.571660
 30
0.0
 10
95.334780
 20
480.388432
 30
0.0
 10
95.334780
 20
480.388432
 30
0.0
 10
102.596490
 20
521.571660
 30
0.0
 10
102.596490
 20
521.571660
 30
0.0
 10
102.596490
 20
521.571660
 30
0.0
  0
SPLINE
  5
1a3
100
AcDbEntity
  8
0
 62
7
100
AcDbSpline
 70
8
 71
3
 72
8
 73
4
 74
0
 40
0
 40
0
 40
0
 40
0
 40
1
 40
1
 40
1
 40
1
 10
98.287175
 20
528.377810
 30
0.0
 10
97.775971
 20
528.987505
 30
0.0
 10
97.043503
 20
529.369154
 30
0.0
 10
96.250908
 20
529.438797
 30
0.0
  0
SPLINE
  5
1a4
100
AcDbEntity
  8
0
 62
7
100
AcDbSpline
 70
8
 71
3
 72
8
 73
4
 74
0
 40
0
 40
0
 40
0
 40
0
 40
1
 40
1
 40
1
 40
1
 10
96.250908
 20
529.438797
 30
0.0
 10
95.458312
 20
529.508441
 30
0.0
 10
94.670513
 20
529.260374
 30
0.0
 10
94.060818
 20
528.749170
 30
0.0
  0
LWPOLYLINE
  5
1a5
100
AcDbEntity
  8
0
 62
7
100
AcDbPolyline
 90
2
 70
1
 10
98.287175
 20
528.377810
 30
0.0
 10
98.287175
 20
528.377810
 30
0.0
  0
SPLINE
  5
1a6
100
AcDbEntity
  8
0
 62
7
100
AcDbSpline
 70
8
 71
3
 72
8
 73
4
 74
0
 40
0
 40
0
 40
0
 40
0
 40
1
 40
1
 40
1
 40
1
 10
102.596490
 20
521.571660
 30
0.0
 10
102.750409
 20
522.444576
 30
0.0
 10
102.510429
 20
523.340876
 30
0.0
 10
101.940930
 20
524.020100
 30
0.0
  0
LWPOLYLINE
  5
1a7
100
AcDbEntity
  8
0
 62
7
100
AcDbPolyline
 90
3
 70
1
 10
94.060818
 20
528.749170
 30
0.0
 10
94.060818
 20
528.749170
 30
0.0
 10
94.060818
 20
528.749170
 30
0.0
  0
SPLINE
  5
1a8
100
AcDbEntity
  8
0
 62
7
100
AcDbSpline
 70
8
 71
3
 72
8
 73
4
 74
0
 40
0
 40
0
 40
0
 40
0
 40
1
 40
1
 40
1
 40
1
 10
101.940930
 20
524.020100
 30
0.0
 10
102.510429
 20
523.340876
 30
0.0
 10
102.750409
 20
522.444576
 30
0.0
 10
102.596490
 20
521.571660
 30
0.0
  0
LWPOLYLINE
  5
1a9
100
AcDbEntity
  8
0
 62
7
100
AcDbPolyline
 90
2
 70
1
 10
101.940930
 20
524.020100
 30
0.0
 10
101.940930
 20
524.020100
 30
0.0
  0
LWPOLYLINE
  5
1aa
100
AcDbEntity
  8
0
 62
7
100
AcDbPolyline
 90
3
 70
1
 10
102.596490
 20
521.571660
 30
0.0
 10
102.596490
 20
521.571660
 30
0.0
 10
102.596490
 20
521.571660
 30
0.0
  0
LWPOLYLINE
  5
1ab
100
AcDbEntity
  8
0
 62
7
100
AcDbPolyline
 90
6
 70
1
 10
101.940930
 20
524.020100
 30
0.0
 10
98.287175
 20
528.377810
 30
0.0
 10
98.287175
 20
528.377810
 30
0.0
 10
101.940930
 20
524.020100
 30
0.0
 10
101.940930
 20
524.020100
 30
0.0
 10
101.940930
 20
524.020100
 30
0.0
  0
SPLINE
  5
1ac
100
AcDbEntity
  8
0
 62
7
100
AcDbSpline
 70
8
 71
3
 72
8
 73
4
 74
0
 40
0
 40
0
 40
0
 40
0
 40
1
 40
1
 40
1
 40
1
 10
28.701531
 20
460.173381
 30
0.0
 10
28.852244
 20
461.028114
 30
0.0
 10
28.625400
 20
461.906231
 30
0.0
 10
28.079566
 20
462.581026
 30
0.0
  0
LWPOLYLINE
  5
1ad
100
AcDbEntity
  8
0
 62
7
100
AcDbPolyline
 90
6
 70
1
 10
28.701531
 20
460.173381
 30
0.0
 10
21.310481
 20
418.256651
 30
0.0
 10
21.310481
 20
418.256651
 30
0.0
 10
28.701531
 20
460.173381
 30
0.0
 10
28.701531
 20
460.173381
 30
0.0
 10
28.701531
 20
460.173381
 30
0.0
  0
SPLINE
  5
1ae
100
AcDbEntity
  8
0
 62
7
100
AcDbSpline
 70
8
 71
3
 72
8
 73
4
 74
0
 40
0
 40
0
 40
0
 40
0
 40
1
 40
1
 40
1
 40
1
 10
28.079566
 20
462.581026
 30
0.0
 10
28.625400
 20
461.906231
 30
0.0
 10
28.852244
 20
461.028114
 30
0.0
 10
28.701531
 20
460.173381
 30
0.0
  0
LWPOLYLINE
  5
1af
100
AcDbEntity
  8
0
 62
7
100
AcDbPolyline
 90
2
 70
1
 10
28.079566
 20
462.581026
 30
0.0
 10
28.079566
 20
462.581026
 30
0.0
  0
SPLINE
  5
1b0
100
AcDbEntity
  8
0
 62
7
100
AcDbSpline
 70
8
 71
3
 72
8
 73
4
 74
0
 40
0
 40
0
 40
0
 40
0
 40
1
 40
1
 40
1
 40
1
 10
20.313382
 20
416.504078
 30
0.0
 10
20.837997
 20
416.955732
 30
0.0
 10
21.190273
 20
417.574916
 30
0.0
 10
21.310481
 20
418.256651
 30
0.0
  0
LWPOLYLINE
  5
1b1
100
AcDbEntity
  8
0
 62
7
100
AcDbPolyline
 90
3
 70
1
 10
28.701531
 20
460.173381
 30
0.0
 10
28.701531
 20
460.173381
 30
0.0
 10
28.701531
 20
460.173381
 30
0.0
  0
SPLINE
  5
1b2
100
AcDbEntity
  8
0
 62
7
100
AcDbSpline
 70
8
 71
3
 72
8
 73
4
 74
0
 40
0
 40
0
 40
0
 40
0
 40
1
 40
1
 40
1
 40
1
 10
21.310481
 20
418.256651
 30
0.0
 10
21.190273
 20
417.574916
 30
0.0
 10
20.837997
 20
416.955732
 30
0.0
 10
20.313382
 20
416.504078
 30
0.0
  0
LWPOLYLINE
  5
1b3
100
AcDbEntity
  8
0
 62
7
100
AcDbPolyline
 90
2
 70
1
 10
21.310481
 20
418.256651
 30
0.0
 10
21.310481
 20
418.256651
 30
0.0
  0
LWPOLYLINE
  5
1b4
100
AcDbEntity
  8
0
 62
7
100
AcDbPolyline
 90
3
 70
1
 10
20.313382
 20
416.504078
 30
0.0
 10
20.313382
 20
416.504078
 30
0.0
 10
20.313382
 20
416.504078
 30
0.0
  0
LWPOLYLINE
  5
1b5
100
AcDbEntity
  8
0
 62
7
100
AcDbPolyline
 90
6
 70
1
 10
28.079566
 20
462.581026
 30
0.0
 10
24.793057
 20
466.644014
 30
0.0
 10
24.793057
 20
466.644014
 30
0.0
 10
28.079566
 20
462.581026
 30
0.0
 10
28.079566
 20
462.581026
 30
0.0
 10
28.079566
 20
462.581026
 30
0.0
  0
SPLINE
  5
1b6
100
AcDbEntity
  8
0
 62
7
100
AcDbSpline
 70
8
 71
3
 72
8
 73
4
 74
0
 40
0
 40
0
 40
0
 40
0
 40
1
 40
1
 40
1
 40
1
 10
20.532236
 20
467.055447
 30
0.0
 10
21.148907
 20
467.572895
 30
0.0
 10
21.947664
 20
467.820797
 30
0.0
 10
22.748943
 20
467.743424
 30
0.0
  0
SPLINE
  5
1b7
100
AcDbEntity
  8
0
 62
7
100
AcDbSpline
 70
8
 71
3
 72
8
 73
4
 74
0
 40
0
 40
0
 40
0
 40
0
 40
1
 40
1
 40
1
 40
1
 10
22.748943
 20
467.743424
 30
0.0
 10
23.550223
 20
467.666051
 30
0.0
 10
24.286788
 20
467.269895
 30
0.0
 10
24.793057
 20
466.644014
 30
0.0
  0
SPLINE
  5
1b8
100
AcDbEntity
  8
0
 62
7
100
AcDbSpline
 70
8
 71
3
 72
8
 73
4
 74
0
 40
0
 40
0
 40
0
 40
0
 40
1
 40
1
 40
1
 40
1
 10
24.793057
 20
466.644014
 30
0.0
 10
24.793057
 20
466.644014
 30
0.0
 10
24.793057
 20
466.644014
 30
0.0
 10
24.793057
 20
466.644014
 30
0.0
  0
SPLINE
  5
1b9
100
AcDbEntity
  8
0
 62
7
100
AcDbSpline
 70
8
 71
3
 72
8
 73
4
 74
0
 40
0
 40
0
 40
0
 40
0
 40
1
 40
1
 40
1
 40
1
 10
24.793057
 20
466.644014
 30
0.0
 10
24.286788
 20
467.269895
 30
0.0
 10
23.550223
 20
467.666051
 30
0.0
 10
22.748943
 20
467.743424
 30
0.0
  0
SPLINE
  5
1ba
100
AcDbEntity
  8
0
 62
7
100
AcDbSpline
 70
8
 71
3
 72
8
 73
4
 74
0
 40
0
 40
0
 40
0
 40
0
 40
1
 40
1
 40
1
 40
1
 10
22.748943
 20
467.743424
 30
0.0
 10
21.947664
 20
467.820797
 30
0.0
 10
21.148907
 20
467.572895
 30
0.0
 10
20.532236
 20
467.055447
 30
0.0
  0
LWPOLYLINE
  5
1bb
100
AcDbEntity
  8
0
 62
7
100
AcDbPolyline
 90
6
 70
1
 10
20.313382
 20
416.504078
 30
0.0
 10
14.757349
 20
411.720759
 30
0.0
 10
14.757349
 20
411.720759
 30
0.0
 10
20.313382
 20
416.504078
 30
0.0
 10
20.313382
 20
416.504078
 30
0.0
 10
20.313382
 20
416.504078
 30
0.0
  0
SPLINE
  5
1bc
100
AcDbEntity
  8
0
 62
7
100
AcDbSpline
 70
8
 71
3
 72
8
 73
4
 74
0
 40
0
 40
0
 40
0
 40
0
 40
1
 40
1
 40
1
 40
1
 10
10.467566
 20
412.107575
 30
0.0
 10
10.977982
 20
411.476567
 30
0.0
 10
11.722282
 20
411.079286
 30
0.0
 10
12.530603
 20
411.006398
 30
0.0
  0
SPLINE
  5
1bd
100
AcDbEntity
  8
0
 62
7
100
AcDbSpline
 70
8
 71
3
 72
8
 73
4
 74
0
 40
0
 40
0
 40
0
 40
0
 40
1
 40
1
 40
1
 40
1
 10
12.530603
 20
411.006398
 30
0.0
 10
13.338924
 20
410.933511
 30
0.0
 10
14.142287
 20
411.191237
 30
0.0
 10
14.757349
 20
411.720759
 30
0.0
  0
LWPOLYLINE
  5
1be
100
AcDbEntity
  8
0
 62
7
100
AcDbPolyline
 90
3
 70
1
 10
20.532236
 20
467.055447
 30
0.0
 10
20.532236
 20
467.055447
 30
0.0
 10
20.532236
 20
467.055447
 30
0.0
  0
SPLINE
  5
1bf
100
AcDbEntity
  8
0
 62
7
100
AcDbSpline
 70
8
 71
3
 72
8
 73
4
 74
0
 40
0
 40
0
 40
0
 40
0
 40
1
 40
1
 40
1
 40
1
 10
14.757349
 20
411.720759
 30
0.0
 10
14.142287
 20
411.191237
 30
0.0
 10
13.338924
 20
410.933511
 30
0.0
 10
12.530603
 20
411.006398
 30
0.0
  0
SPLINE
  5
1c0
100
AcDbEntity
  8
0
 62
7
100
AcDbSpline
 70
8
 71
3
 72
8
 73
4
 74
0
 40
0
 40
0
 40
0
 40
0
 40
1
 40
1
 40
1
 40
1
 10
12.530603
 20
411.006398
 30
0.0
 10
11.722282
 20
411.079286
 30
0.0
 10
10.977982
 20
411.476567
 30
0.0
 10
10.467566
 20
412.107575
 30
0.0
  0
LWPOLYLINE
  5
1c1
100
AcDbEntity
  8
0
 62
7
100
AcDbPolyline
 90
2
 70
1
 10
14.757349
 20
411.720759
 30
0.0
 10
14.757349
 20
411.720759
 30
0.0
  0
LWPOLYLINE
  5
1c2
100
AcDbEntity
  8
0
 62
7
100
AcDbPolyline
 90
3
 70
1
 10
10.467566
 20
412.107575
 30
0.0
 10
10.467566
 20
412.107575
 30
0.0
 10
10.467566
 20
412.107575
 30
0.0
  0
LWPOLYLINE
  5
1c3
100
AcDbEntity
  8
0
 62
7
100
AcDbPolyline
 90
6
 70
1
 10
14.504477
 20
461.997557
 30
0.0
 10
20.532236
 20
467.055447
 30
0.0
 10
20.532236
 20
467.055447
 30
0.0
 10
14.504477
 20
461.997557
 30
0.0
 10
14.504477
 20
461.997557
 30
0.0
 10
14.504477
 20
461.997557
 30
0.0
  0
SPLINE
  5
1c4
100
AcDbEntity
  8
0
 62
7
100
AcDbSpline
 70
8
 71
3
 72
8
 73
4
 74
0
 40
0
 40
0
 40
0
 40
0
 40
1
 40
1
 40
1
 40
1
 10
13.478417
 20
460.220368
 30
0.0
 10
13.600892
 20
460.914961
 30
0.0
 10
13.964180
 20
461.544194
 30
0.0
 10
14.504477
 20
461.997557
 30
0.0
  0
SPLINE
  5
1c5
100
AcDbEntity
  8
0
 62
7
100
AcDbSpline
 70
8
 71
3
 72
8
 73
4
 74
0
 40
0
 40
0
 40
0
 40
0
 40
1
 40
1
 40
1
 40
1
 10
14.504477
 20
461.997557
 30
0.0
 10
14.504477
 20
461.997557
 30
0.0
 10
14.504477
 20
461.997557
 30
0.0
 10
14.504477
 20
461.997557
 30
0.0
  0
SPLINE
  5
1c6
100
AcDbEntity
  8
0
 62
7
100
AcDbSpline
 70
8
 71
3
 72
8
 73
4
 74
0
 40
0
 40
0
 40
0
 40
0
 40
1
 40
1
 40
1
 40
1
 10
14.504477
 20
461.997557
 30
0.0
 10
13.964180
 20
461.544194
 30
0.0
 10
13.600892
 20
460.914961
 30
0.0
 10
13.478417
 20
460.220368
 30
0.0
  0
LWPOLYLINE
  5
1c7
100
AcDbEntity
  8
0
 62
7
100
AcDbPolyline
 90
6
 70
1
 10
6.833507
 20
416.600228
 30
0.0
 10
10.467566
 20
412.107575
 30
0.0
 10
10.467566
 20
412.107575
 30
0.0
 10
6.833507
 20
416.600228
 30
0.0
 10
6.833507
 20
416.600228
 30
0.0
 10
6.833507
 20
416.600228
 30
0.0
  0
SPLINE
  5
1c8
100
AcDbEntity
  8
0
 62
7
100
AcDbSpline
 70
8
 71
3
 72
8
 73
4
 74
0
 40
0
 40
0
 40
0
 40
0
 40
1
 40
1
 40
1
 40
1
 10
6.833507
 20
416.600228
 30
0.0
 10
6.287673
 20
417.275023
 30
0.0
 10
6.060830
 20
418.153140
 30
0.0
 10
6.211542
 20
419.007873
 30
0.0
  0
LWPOLYLINE
  5
1c9
100
AcDbEntity
  8
0
 62
7
100
AcDbPolyline
 90
3
 70
1
 10
13.478417
 20
460.220368
 30
0.0
 10
13.478417
 20
460.220368
 30
0.0
 10
13.478417
 20
460.220368
 30
0.0
  0
SPLINE
  5
1ca
100
AcDbEntity
  8
0
 62
7
100
AcDbSpline
 70
8
 71
3
 72
8
 73
4
 74
0
 40
0
 40
0
 40
0
 40
0
 40
1
 40
1
 40
1
 40
1
 10
6.211542
 20
419.007873
 30
0.0
 10
6.060830
 20
418.153140
 30
0.0
 10
6.287673
 20
417.275023
 30
0.0
 10
6.833507
 20
416.600228
 30
0.0
  0
LWPOLYLINE
  5
1cb
100
AcDbEntity
  8
0
 62
7
100
AcDbPolyline
 90
2
 70
1
 10
6.211542
 20
419.007873
 30
0.0
 10
6.211542
 20
419.007873
 30
0.0
  0
LWPOLYLINE
  5
1cc
100
AcDbEntity
  8
0
 62
7
100
AcDbPolyline
 90
3
 70
1
 10
6.833507
 20
416.600228
 30
0.0
 10
6.833507
 20
416.600228
 30
0.0
 10
6.833507
 20
416.600228
 30
0.0
  0
SPLINE
  5
1cd
100
AcDbEntity
  8
0
 62
7
100
AcDbSpline
 70
8
 71
3
 72
8
 73
4
 74
0
 40
0
 40
0
 40
0
 40
0
 40
1
 40
1
 40
1
 40
1
 10
105.900100
 20
424.433073
 30
0.0
 10
105.900100
 20
424.433073
 30
0.0
 10
105.900100
 20
424.433073
 30
0.0
 10
105.900100
 20
424.433073
 30
0.0
  0
SPLINE
  5
1ce
100
AcDbEntity
  8
0
 62
7
100
AcDbSpline
 70
8
 71
3
 72
8
 73
4
 74
0
 40
0
 40
0
 40
0
 40
0
 40
1
 40
1
 40
1
 40
1
 10
105.900100
 20
424.433073
 30
0.0
 10
105.900100
 20
422.443949
 30
0.0
 10
105.109923
 20
420.536294
 30
0.0
 10
103.703400
 20
419.129771
 30
0.0
  0
SPLINE
  5
1cf
100
AcDbEntity
  8
0
 62
7
100
AcDbSpline
 70
8
 71
3
 72
8
 73
4
 74
0
 40
0
 40
0
 40
0
 40
0
 40
1
 40
1
 40
1
 40
1
 10
103.703400
 20
419.129771
 30
0.0
 10
102.296876
 20
417.723248
 30
0.0
 10
100.389221
 20
416.933072
 30
0.0
 10
98.400097
 20
416.933073
 30
0.0
  0
SPLINE
  5
1d0
100
AcDbEntity
  8
0
 62
7
100
AcDbSpline
 70
8
 71
3
 72
8
 73
4
 74
0
 40
0
 40
0
 40
0
 40
0
 40
1
 40
1
 40
1
 40
1
 10
98.400097
 20
416.933073
 30
0.0
 10
94.257962
 20
416.933075
 30
0.0
 10
90.900099
 20
420.290940
 30
0.0
 10
90.900100
 20
424.433075
 30
0.0
  0
SPLINE
  5
1d1
100
AcDbEntity
  8
0
 62
7
100
AcDbSpline
 70
8
 71
3
 72
8
 73
4
 74
0
 40
0
 40
0
 40
0
 40
0
 40
1
 40
1
 40
1
 40
1
 10
90.900100
 20
424.433075
 30
0.0
 10
90.900101
 20
428.575210
 30
0.0
 10
94.257966
 20
431.933074
 30
0.0
 10
98.400101
 20
431.933073
 30
0.0
  0
SPLINE
  5
1d2
100
AcDbEntity
  8
0
 62
7
100
AcDbSpline
 70
8
 71
3
 72
8
 73
4
 74
0
 40
0
 40
0
 40
0
 40
0
 40
1
 40
1
 40
1
 40
1
 10
98.400101
 20
431.933073
 30
0.0
 10
102.542236
 20
431.933072
 30
0.0
 10
105.900100
 20
428.575208
 30
0.0
 10
105.900100
 20
424.433073
 30
0.0
  0
LWPOLYLINE
  5
1d3
100
AcDbEntity
  8
0
 62
7
100
AcDbPolyline
 90
6
 70
1
 10
6.211542
 20
419.007873
 30
0.0
 10
13.478417
 20
460.220368
 30
0.0
 10
13.478417
 20
460.220368
 30
0.0
 10
6.211542
 20
419.007873
 30
0.0
 10
6.211542
 20
419.007873
 30
0.0
 10
6.211542
 20
419.007873
 30
0.0
  0
LWPOLYLINE
  5
1d4
100
AcDbEntity
  8
0
 62
7
100
AcDbPolyline
 90
2
 70
1
 10
105.900100
 20
424.433073
 30
0.0
 10
105.900100
 20
424.433073
 30
0.0
  0
LWPOLYLINE
  5
1d5
100
AcDbEntity
  8
0
 62
7
100
AcDbPolyline
 90
6
 70
1
 10
1.066800
 20
394.093200
 30
0.0
 10
1.066800
 20
394.093200
 30
0.0
 10
107.746800
 20
394.093200
 30
0.0
 10
107.746800
 20
394.093200
 30
0.0
 10
1.066800
 20
394.093200
 30
0.0
 10
1.066800
 20
394.093200
 30
0.0
  0
LWPOLYLINE
  5
1d6
100
AcDbEntity
  8
0
 62
7
100
AcDbPolyline
 90
6
 70
1
 10
1.066800
 20
546.493200
 30
0.0
 10
1.066800
 20
546.493200
 30
0.0
 10
1.066800
 20
394.093200
 30
0.0
 10
1.066800
 20
394.093200
 30
0.0
 10
1.066800
 20
546.493200
 30
0.0
 10
1.066800
 20
546.493200
 30
0.0
  0
LWPOLYLINE
  5
1d7
100
AcDbEntity
  8
0
 62
7
100
AcDbPolyline
 90
6
 70
1
 10
107.746800
 20
394.093200
 30
0.0
 10
107.746800
 20
394.093200
 30
0.0
 10
107.746800
 20
546.493200
 30
0.0
 10
107.746800
 20
546.493200
 30
0.0
 10
107.746800
 20
394.093200
 30
0.0
 10
107.746800
 20
394.093200
 30
0.0
  0
LWPOLYLINE
  5
1d8
100
AcDbEntity
  8
0
 62
7
100
AcDbPolyline
 90
6
 70
1
 10
107.746800
 20
546.493200
 30
0.0
 10
107.746800
 20
546.493200
 30
0.0
 10
1.066800
 20
546.493200
 30
0.0
 10
1.066800
 20
546.493200
 30
0.0
 10
107.746800
 20
546.493200
 30
0.0
 10
107.746800
 20
546.493200
 30
0.0
  0
SPLINE
  5
1d9
100
AcDbEntity
  8
0
 62
7
100
AcDbSpline
 70
8
 71
3
 72
8
 73
4
 74
0
 40
0
 40
0
 40
0
 40
0
 40
1
 40
1
 40
1
 40
1
 10
31.248087
 20
478.657505
 30
0.0
 10
31.788384
 20
479.110868
 30
0.0
 10
32.151672
 20
479.740101
 30
0.0
 10
32.274147
 20
480.434694
 30
0.0
  0
LWPOLYLINE
  5
1da
100
AcDbEntity
  8
0
 62
7
100
AcDbPolyline
 90
6
 70
1
 10
31.248087
 20
478.657505
 30
0.0
 10
25.486249
 20
473.822749
 30
0.0
 10
25.486249
 20
473.822749
 30
0.0
 10
31.248087
 20
478.657505
 30
0.0
 10
31.248087
 20
478.657505
 30
0.0
 10
31.248087
 20
478.657505
 30
0.0
  0
SPLINE
  5
1db
100
AcDbEntity
  8
0
 62
7
100
AcDbSpline
 70
8
 71
3
 72
8
 73
4
 74
0
 40
0
 40
0
 40
0
 40
0
 40
1
 40
1
 40
1
 40
1
 10
32.274147
 20
480.434694
 30
0.0
 10
32.151672
 20
479.740101
 30
0.0
 10
31.788384
 20
479.110868
 30
0.0
 10
31.248087
 20
478.657505
 30
0.0
  0
LWPOLYLINE
  5
1dc
100
AcDbEntity
  8
0
 62
7
100
AcDbPolyline
 90
2
 70
1
 10
32.274147
 20
480.434694
 30
0.0
 10
32.274147
 20
480.434694
 30
0.0
  0
SPLINE
  5
1dd
100
AcDbEntity
  8
0
 62
7
100
AcDbSpline
 70
8
 71
3
 72
8
 73
4
 74
0
 40
0
 40
0
 40
0
 40
0
 40
1
 40
1
 40
1
 40
1
 10
25.486249
 20
473.822749
 30
0.0
 10
24.869578
 20
473.305301
 30
0.0
 10
24.070821
 20
473.057399
 30
0.0
 10
23.269542
 20
473.134772
 30
0.0
  0
SPLINE
  5
1de
100
AcDbEntity
  8
0
 62
7
100
AcDbSpline
 70
8
 71
3
 72
8
 73
4
 74
0
 40
0
 40
0
 40
0
 40
0
 40
1
 40
1
 40
1
 40
1
 10
23.269542
 20
473.134772
 30
0.0
 10
22.468262
 20
473.212145
 30
0.0
 10
21.731697
 20
473.608301
 30
0.0
 10
21.225428
 20
474.234182
 30
0.0
  0
SPLINE
  5
1df
100
AcDbEntity
  8
0
 62
7
100
AcDbSpline
 70
8
 71
3
 72
8
 73
4
 74
0
 40
0
 40
0
 40
0
 40
0
 40
1
 40
1
 40
1
 40
1
 10
21.225428
 20
474.234182
 30
0.0
 10
21.225428
 20
474.234182
 30
0.0
 10
21.225428
 20
474.234182
 30
0.0
 10
21.225428
 20
474.234182
 30
0.0
  0
SPLINE
  5
1e0
100
AcDbEntity
  8
0
 62
7
100
AcDbSpline
 70
8
 71
3
 72
8
 73
4
 74
0
 40
0
 40
0
 40
0
 40
0
 40
1
 40
1
 40
1
 40
1
 10
21.225428
 20
474.234182
 30
0.0
 10
21.731697
 20
473.608301
 30
0.0
 10
22.468262
 20
473.212145
 30
0.0
 10
23.269542
 20
473.134772
 30
0.0
  0
SPLINE
  5
1e1
100
AcDbEntity
  8
0
 62
7
100
AcDbSpline
 70
8
 71
3
 72
8
 73
4
 74
0
 40
0
 40
0
 40
0
 40
0
 40
1
 40
1
 40
1
 40
1
 10
23.269542
 20
473.134772
 30
0.0
 10
24.070821
 20
473.057399
 30
0.0
 10
24.869578
 20
473.305301
 30
0.0
 10
25.486249
 20
473.822749
 30
0.0
  0
LWPOLYLINE
  5
1e2
100
AcDbEntity
  8
0
 62
7
100
AcDbPolyline
 90
3
 70
1
 10
31.248087
 20
478.657505
 30
0.0
 10
31.248087
 20
478.657505
 30
0.0
 10
31.248087
 20
478.657505
 30
0.0
  0
LWPOLYLINE
  5
1e3
100
AcDbEntity
  8
0
 62
7
100
AcDbPolyline
 90
3
 70
1
 10
25.486249
 20
473.822749
 30
0.0
 10
25.486249
 20
473.822749
 30
0.0
 10
25.486249
 20
473.822749
 30
0.0
  0
LWPOLYLINE
  5
1e4
100
AcDbEntity
  8
0
 62
7
100
AcDbPolyline
 90
6
 70
1
 10
39.643124
 20
522.226240
 30
0.0
 10
32.274147
 20
480.434694
 30
0.0
 10
32.274147
 20
480.434694
 30
0.0
 10
39.643124
 20
522.226240
 30
0.0
 10
39.643124
 20
522.226240
 30
0.0
 10
39.643124
 20
522.226240
 30
0.0
  0
SPLINE
  5
1e5
100
AcDbEntity
  8
0
 62
7
100
AcDbSpline
 70
8
 71
3
 72
8
 73
4
 74
0
 40
0
 40
0
 40
0
 40
0
 40
1
 40
1
 40
1
 40
1
 10
39.643124
 20
522.226240
 30
0.0
 10
39.799818
 20
523.114903
 30
0.0
 10
39.548176
 20
524.026894
 30
0.0
 10
38.957941
 20
524.709460
 30
0.0
  0
LWPOLYLINE
  5
1e6
100
AcDbEntity
  8
0
 62
7
100
AcDbPolyline
 90
6
 70
1
 10
17.752894
 20
478.527147
 30
0.0
 10
21.225428
 20
474.234182
 30
0.0
 10
21.225428
 20
474.234182
 30
0.0
 10
17.752894
 20
478.527147
 30
0.0
 10
17.752894
 20
478.527147
 30
0.0
 10
17.752894
 20
478.527147
 30
0.0
  0
SPLINE
  5
1e7
100
AcDbEntity
  8
0
 62
7
100
AcDbSpline
 70
8
 71
3
 72
8
 73
4
 74
0
 40
0
 40
0
 40
0
 40
0
 40
1
 40
1
 40
1
 40
1
 10
38.957941
 20
524.709460
 30
0.0
 10
39.548176
 20
524.026894
 30
0.0
 10
39.799818
 20
523.114903
 30
0.0
 10
39.643124
 20
522.226240
 30
0.0
  0
LWPOLYLINE
  5
1e8
100
AcDbEntity
  8
0
 62
7
100
AcDbPolyline
 90
2
 70
1
 10
38.957941
 20
524.709460
 30
0.0
 10
38.957941
 20
524.709460
 30
0.0
  0
SPLINE
  5
1e9
100
AcDbEntity
  8
0
 62
7
100
AcDbSpline
 70
8
 71
3
 72
8
 73
4
 74
0
 40
0
 40
0
 40
0
 40
0
 40
1
 40
1
 40
1
 40
1
 10
17.752894
 20
478.527147
 30
0.0
 10
17.207060
 20
479.201942
 30
0.0
 10
16.980216
 20
480.080059
 30
0.0
 10
17.130929
 20
480.934792
 30
0.0
  0
SPLINE
  5
1ea
100
AcDbEntity
  8
0
 62
7
100
AcDbSpline
 70
8
 71
3
 72
8
 73
4
 74
0
 40
0
 40
0
 40
0
 40
0
 40
1
 40
1
 40
1
 40
1
 10
17.130929
 20
480.934792
 30
0.0
 10
17.130929
 20
480.934792
 30
0.0
 10
17.130929
 20
480.934792
 30
0.0
 10
17.130929
 20
480.934792
 30
0.0
  0
SPLINE
  5
1eb
100
AcDbEntity
  8
0
 62
7
100
AcDbSpline
 70
8
 71
3
 72
8
 73
4
 74
0
 40
0
 40
0
 40
0
 40
0
 40
1
 40
1
 40
1
 40
1
 10
17.130929
 20
480.934792
 30
0.0
 10
16.980216
 20
480.080059
 30
0.0
 10
17.207060
 20
479.201942
 30
0.0
 10
17.752894
 20
478.527147
 30
0.0
  0
LWPOLYLINE
  5
1ec
100
AcDbEntity
  8
0
 62
7
100
AcDbPolyline
 90
3
 70
1
 10
39.643124
 20
522.226240
 30
0.0
 10
39.643124
 20
522.226240
 30
0.0
 10
39.643124
 20
522.226240
 30
0.0
  0
LWPOLYLINE
  5
1ed
100
AcDbEntity
  8
0
 62
7
100
AcDbPolyline
 90
3
 70
1
 10
17.752894
 20
478.527147
 30
0.0
 10
17.752894
 20
478.527147
 30
0.0
 10
17.752894
 20
478.527147
 30
0.0
  0
LWPOLYLINE
  5
1ee
100
AcDbEntity
  8
0
 62
7
100
AcDbPolyline
 90
6
 70
1
 10
38.957941
 20
524.709460
 30
0.0
 10
35.527246
 20
528.676820
 30
0.0
 10
35.527246
 20
528.676820
 30
0.0
 10
38.957941
 20
524.709460
 30
0.0
 10
38.957941
 20
524.709460
 30
0.0
 10
38.957941
 20
524.709460
 30
0.0
  0
SPLINE
  5
1ef
100
AcDbEntity
  8
0
 62
7
100
AcDbSpline
 70
8
 71
3
 72
8
 73
4
 74
0
 40
0
 40
0
 40
0
 40
0
 40
1
 40
1
 40
1
 40
1
 10
31.295724
 20
528.983780
 30
0.0
 10
31.897564
 20
529.504209
 30
0.0
 10
32.681494
 20
529.764243
 30
0.0
 10
33.475059
 20
529.706677
 30
0.0
  0
SPLINE
  5
1f0
100
AcDbEntity
  8
0
 62
7
100
AcDbSpline
 70
8
 71
3
 72
8
 73
4
 74
0
 40
0
 40
0
 40
0
 40
0
 40
1
 40
1
 40
1
 40
1
 10
33.475059
 20
529.706677
 30
0.0
 10
34.268623
 20
529.649111
 30
0.0
 10
35.006817
 20
529.278660
 30
0.0
 10
35.527246
 20
528.676820
 30
0.0
  0
LWPOLYLINE
  5
1f1
100
AcDbEntity
  8
0
 62
7
100
AcDbPolyline
 90
6
 70
1
 10
17.130929
 20
480.934792
 30
0.0
 10
24.393912
 20
522.125220
 30
0.0
 10
24.393912
 20
522.125220
 30
0.0
 10
17.130929
 20
480.934792
 30
0.0
 10
17.130929
 20
480.934792
 30
0.0
 10
17.130929
 20
480.934792
 30
0.0
  0
SPLINE
  5
1f2
100
AcDbEntity
  8
0
 62
7
100
AcDbSpline
 70
8
 71
3
 72
8
 73
4
 74
0
 40
0
 40
0
 40
0
 40
0
 40
1
 40
1
 40
1
 40
1
 10
35.527246
 20
528.676820
 30
0.0
 10
35.006817
 20
529.278660
 30
0.0
 10
34.268623
 20
529.649111
 30
0.0
 10
33.475059
 20
529.706677
 30
0.0
  0
SPLINE
  5
1f3
100
AcDbEntity
  8
0
 62
7
100
AcDbSpline
 70
8
 71
3
 72
8
 73
4
 74
0
 40
0
 40
0
 40
0
 40
0
 40
1
 40
1
 40
1
 40
1
 10
33.475059
 20
529.706677
 30
0.0
 10
32.681494
 20
529.764243
 30
0.0
 10
31.897564
 20
529.504209
 30
0.0
 10
31.295724
 20
528.983780
 30
0.0
  0
LWPOLYLINE
  5
1f4
100
AcDbEntity
  8
0
 62
7
100
AcDbPolyline
 90
2
 70
1
 10
35.527246
 20
528.676820
 30
0.0
 10
35.527246
 20
528.676820
 30
0.0
  0
SPLINE
  5
1f5
100
AcDbEntity
  8
0
 62
7
100
AcDbSpline
 70
8
 71
3
 72
8
 73
4
 74
0
 40
0
 40
0
 40
0
 40
0
 40
1
 40
1
 40
1
 40
1
 10
24.393912
 20
522.125220
 30
0.0
 10
24.513729
 20
522.804743
 30
0.0
 10
24.864126
 20
523.422192
 30
0.0
 10
25.386055
 20
523.873520
 30
0.0
  0
SPLINE
  5
1f6
100
AcDbEntity
  8
0
 62
7
100
AcDbSpline
 70
8
 71
3
 72
8
 73
4
 74
0
 40
0
 40
0
 40
0
 40
0
 40
1
 40
1
 40
1
 40
1
 10
25.386055
 20
523.873520
 30
0.0
 10
25.386055
 20
523.873520
 30
0.0
 10
25.386055
 20
523.873520
 30
0.0
 10
25.386055
 20
523.873520
 30
0.0
  0
SPLINE
  5
1f7
100
AcDbEntity
  8
0
 62
7
100
AcDbSpline
 70
8
 71
3
 72
8
 73
4
 74
0
 40
0
 40
0
 40
0
 40
0
 40
1
 40
1
 40
1
 40
1
 10
25.386055
 20
523.873520
 30
0.0
 10
24.864126
 20
523.422192
 30
0.0
 10
24.513729
 20
522.804743
 30
0.0
 10
24.393912
 20
522.125220
 30
0.0
  0
LWPOLYLINE
  5
1f8
100
AcDbEntity
  8
0
 62
7
100
AcDbPolyline
 90
3
 70
1
 10
31.295724
 20
528.983780
 30
0.0
 10
31.295724
 20
528.983780
 30
0.0
 10
31.295724
 20
528.983780
 30
0.0
  0
LWPOLYLINE
  5
1f9
100
AcDbEntity
  8
0
 62
7
100
AcDbPolyline
 90
3
 70
1
 10
24.393912
 20
522.125220
 30
0.0
 10
24.393912
 20
522.125220
 30
0.0
 10
24.393912
 20
522.125220
 30
0.0
  0
LWPOLYLINE
  5
1fa
100
AcDbEntity
  8
0
 62
7
100
AcDbPolyline
 90
6
 70
1
 10
25.386055
 20
523.873520
 30
0.0
 10
31.295724
 20
528.983780
 30
0.0
 10
31.295724
 20
528.983780
 30
0.0
 10
25.386055
 20
523.873520
 30
0.0
 10
25.386055
 20
523.873520
 30
0.0
 10
25.386055
 20
523.873520
 30
0.0
  0
SPLINE
  5
1fb
100
AcDbEntity
  8
0
 62
7
100
AcDbSpline
 70
8
 71
3
 72
8
 73
4
 74
0
 40
0
 40
0
 40
0
 40
0
 40
1
 40
1
 40
1
 40
1
 10
77.565111
 20
461.951294
 30
0.0
 10
77.024814
 20
461.497931
 30
0.0
 10
76.661526
 20
460.868699
 30
0.0
 10
76.539050
 20
460.174106
 30
0.0
  0
SPLINE
  5
1fc
100
AcDbEntity
  8
0
 62
7
100
AcDbSpline
 70
8
 71
3
 72
8
 73
4
 74
0
 40
0
 40
0
 40
0
 40
0
 40
1
 40
1
 40
1
 40
1
 10
76.539050
 20
460.174106
 30
0.0
 10
76.539050
 20
460.174106
 30
0.0
 10
76.539050
 20
460.174106
 30
0.0
 10
76.539050
 20
460.174106
 30
0.0
  0
SPLINE
  5
1fd
100
AcDbEntity
  8
0
 62
7
100
AcDbSpline
 70
8
 71
3
 72
8
 73
4
 74
0
 40
0
 40
0
 40
0
 40
0
 40
1
 40
1
 40
1
 40
1
 10
76.539050
 20
460.174106
 30
0.0
 10
76.661526
 20
460.868699
 30
0.0
 10
77.024814
 20
461.497931
 30
0.0
 10
77.565111
 20
461.951294
 30
0.0
  0
SPLINE
  5
1fe
100
AcDbEntity
  8
0
 62
7
100
AcDbSpline
 70
8
 71
3
 72
8
 73
4
 74
0
 40
0
 40
0
 40
0
 40
0
 40
1
 40
1
 40
1
 40
1
 10
83.326948
 20
466.786050
 30
0.0
 10
83.943619
 20
467.303498
 30
0.0
 10
84.742375
 20
467.551401
 30
0.0
 10
85.543655
 20
467.474028
 30
0.0
  0
SPLINE
  5
1ff
100
AcDbEntity
  8
0
 62
7
100
AcDbSpline
 70
8
 71
3
 72
8
 73
4
 74
0
 40
0
 40
0
 40
0
 40
0
 40
1
 40
1
 40
1
 40
1
 10
85.543655
 20
467.474028
 30
0.0
 10
86.344935
 20
467.396655
 30
0.0
 10
87.081500
 20
467.000499
 30
0.0
 10
87.587769
 20
466.374618
 30
0.0
  0
LWPOLYLINE
  5
200
100
AcDbEntity
  8
0
 62
7
100
AcDbPolyline
 90
8
 70
1
 10
77.565111
 20
461.951294
 30
0.0
 10
83.326948
 20
466.786050
 30
0.0
 10
83.326948
 20
466.786050
 30
0.0
 10
77.565111
 20
461.951294
 30
0.0
 10
77.565111
 20
461.951294
 30
0.0
 10
77.565111
 20
461.951294
 30
0.0
 10
77.565111
 20
461.951294
 30
0.0
 10
77.565111
 20
461.951294
 30
0.0
  0
SPLINE
  5
201
100
AcDbEntity
  8
0
 62
7
100
AcDbSpline
 70
8
 71
3
 72
8
 73
4
 74
0
 40
0
 40
0
 40
0
 40
0
 40
1
 40
1
 40
1
 40
1
 10
87.587769
 20
466.374618
 30
0.0
 10
87.081500
 20
467.000499
 30
0.0
 10
86.344935
 20
467.396655
 30
0.0
 10
85.543655
 20
467.474028
 30
0.0
  0
SPLINE
  5
202
100
AcDbEntity
  8
0
 62
7
100
AcDbSpline
 70
8
 71
3
 72
8
 73
4
 74
0
 40
0
 40
0
 40
0
 40
0
 40
1
 40
1
 40
1
 40
1
 10
85.543655
 20
467.474028
 30
0.0
 10
84.742375
 20
467.551401
 30
0.0
 10
83.943619
 20
467.303498
 30
0.0
 10
83.326948
 20
466.786050
 30
0.0
  0
LWPOLYLINE
  5
203
100
AcDbEntity
  8
0
 62
7
100
AcDbPolyline
 90
2
 70
1
 10
87.587769
 20
466.374618
 30
0.0
 10
87.587769
 20
466.374618
 30
0.0
  0
LWPOLYLINE
  5
204
100
AcDbEntity
  8
0
 62
7
100
AcDbPolyline
 90
3
 70
1
 10
83.326948
 20
466.786050
 30
0.0
 10
83.326948
 20
466.786050
 30
0.0
 10
83.326948
 20
466.786050
 30
0.0
  0
LWPOLYLINE
  5
205
100
AcDbEntity
  8
0
 62
7
100
AcDbPolyline
 90
6
 70
1
 10
76.539050
 20
460.174106
 30
0.0
 10
69.157411
 20
418.310749
 30
0.0
 10
69.157411
 20
418.310749
 30
0.0
 10
76.539050
 20
460.174106
 30
0.0
 10
76.539050
 20
460.174106
 30
0.0
 10
76.539050
 20
460.174106
 30
0.0
  0
SPLINE
  5
206
100
AcDbEntity
  8
0
 62
7
100
AcDbSpline
 70
8
 71
3
 72
8
 73
4
 74
0
 40
0
 40
0
 40
0
 40
0
 40
1
 40
1
 40
1
 40
1
 10
69.157411
 20
418.310749
 30
0.0
 10
69.003424
 20
417.437443
 30
0.0
 10
69.243691
 20
416.540754
 30
0.0
 10
69.813701
 20
415.861442
 30
0.0
  0
LWPOLYLINE
  5
207
100
AcDbEntity
  8
0
 62
7
100
AcDbPolyline
 90
6
 70
1
 10
91.060303
 20
462.081652
 30
0.0
 10
87.587769
 20
466.374618
 30
0.0
 10
87.587769
 20
466.374618
 30
0.0
 10
91.060303
 20
462.081652
 30
0.0
 10
91.060303
 20
462.081652
 30
0.0
 10
91.060303
 20
462.081652
 30
0.0
  0
SPLINE
  5
208
100
AcDbEntity
  8
0
 62
7
100
AcDbSpline
 70
8
 71
3
 72
8
 73
4
 74
0
 40
0
 40
0
 40
0
 40
0
 40
1
 40
1
 40
1
 40
1
 10
69.813701
 20
415.861442
 30
0.0
 10
69.243691
 20
416.540754
 30
0.0
 10
69.003424
 20
417.437443
 30
0.0
 10
69.157411
 20
418.310749
 30
0.0
  0
LWPOLYLINE
  5
209
100
AcDbEntity
  8
0
 62
7
100
AcDbPolyline
 90
2
 70
1
 10
69.813701
 20
415.861442
 30
0.0
 10
69.813701
 20
415.861442
 30
0.0
  0
SPLINE
  5
20a
100
AcDbEntity
  8
0
 62
7
100
AcDbSpline
 70
8
 71
3
 72
8
 73
4
 74
0
 40
0
 40
0
 40
0
 40
0
 40
1
 40
1
 40
1
 40
1
 10
91.060303
 20
462.081652
 30
0.0
 10
91.606137
 20
461.406857
 30
0.0
 10
91.832981
 20
460.528740
 30
0.0
 10
91.682268
 20
459.674007
 30
0.0
  0
LWPOLYLINE
  5
20b
100
AcDbEntity
  8
0
 62
7
100
AcDbPolyline
 90
3
 70
1
 10
69.157411
 20
418.310749
 30
0.0
 10
69.157411
 20
418.310749
 30
0.0
 10
69.157411
 20
418.310749
 30
0.0
  0
SPLINE
  5
20c
100
AcDbEntity
  8
0
 62
7
100
AcDbSpline
 70
8
 71
3
 72
8
 73
4
 74
0
 40
0
 40
0
 40
0
 40
0
 40
1
 40
1
 40
1
 40
1
 10
91.682268
 20
459.674007
 30
0.0
 10
91.832981
 20
460.528740
 30
0.0
 10
91.606137
 20
461.406857
 30
0.0
 10
91.060303
 20
462.081652
 30
0.0
  0
LWPOLYLINE
  5
20d
100
AcDbEntity
  8
0
 62
7
100
AcDbPolyline
 90
2
 70
1
 10
91.682268
 20
459.674007
 30
0.0
 10
91.682268
 20
459.674007
 30
0.0
  0
LWPOLYLINE
  5
20e
100
AcDbEntity
  8
0
 62
7
100
AcDbPolyline
 90
3
 70
1
 10
91.060303
 20
462.081652
 30
0.0
 10
91.060303
 20
462.081652
 30
0.0
 10
91.060303
 20
462.081652
 30
0.0
  0
LWPOLYLINE
  5
20f
100
AcDbEntity
  8
0
 62
7
100
AcDbPolyline
 90
6
 70
1
 10
69.813701
 20
415.861442
 30
0.0
 10
73.279375
 20
411.731212
 30
0.0
 10
73.279375
 20
411.731212
 30
0.0
 10
69.813701
 20
415.861442
 30
0.0
 10
69.813701
 20
415.861442
 30
0.0
 10
69.813701
 20
415.861442
 30
0.0
  0
SPLINE
  5
210
100
AcDbEntity
  8
0
 62
7
100
AcDbSpline
 70
8
 71
3
 72
8
 73
4
 74
0
 40
0
 40
0
 40
0
 40
0
 40
1
 40
1
 40
1
 40
1
 10
77.505871
 20
411.361442
 30
0.0
 10
76.236647
 20
410.296437
 30
0.0
 10
74.344381
 20
410.461988
 30
0.0
 10
73.279375
 20
411.731212
 30
0.0
  0
LWPOLYLINE
  5
211
100
AcDbEntity
  8
0
 62
7
100
AcDbPolyline
 90
6
 70
1
 10
84.335498
 20
418.008401
 30
0.0
 10
91.682268
 20
459.674007
 30
0.0
 10
91.682268
 20
459.674007
 30
0.0
 10
84.335498
 20
418.008401
 30
0.0
 10
84.335498
 20
418.008401
 30
0.0
 10
84.335498
 20
418.008401
 30
0.0
  0
SPLINE
  5
212
100
AcDbEntity
  8
0
 62
7
100
AcDbSpline
 70
8
 71
3
 72
8
 73
4
 74
0
 40
0
 40
0
 40
0
 40
0
 40
1
 40
1
 40
1
 40
1
 10
73.279375
 20
411.731212
 30
0.0
 10
74.344381
 20
410.461988
 30
0.0
 10
76.236647
 20
410.296437
 30
0.0
 10
77.505871
 20
411.361442
 30
0.0
  0
LWPOLYLINE
  5
213
100
AcDbEntity
  8
0
 62
7
100
AcDbPolyline
 90
2
 70
1
 10
73.279375
 20
411.731212
 30
0.0
 10
73.279375
 20
411.731212
 30
0.0
  0
SPLINE
  5
214
100
AcDbEntity
  8
0
 62
7
100
AcDbSpline
 70
8
 71
3
 72
8
 73
4
 74
0
 40
0
 40
0
 40
0
 40
0
 40
1
 40
1
 40
1
 40
1
 10
84.335498
 20
418.008401
 30
0.0
 10
84.213023
 20
417.313808
 30
0.0
 10
83.849735
 20
416.684575
 30
0.0
 10
83.309438
 20
416.231212
 30
0.0
  0
LWPOLYLINE
  5
215
100
AcDbEntity
  8
0
 62
7
100
AcDbPolyline
 90
3
 70
1
 10
77.505871
 20
411.361442
 30
0.0
 10
77.505871
 20
411.361442
 30
0.0
 10
77.505871
 20
411.361442
 30
0.0
  0
SPLINE
  5
216
100
AcDbEntity
  8
0
 62
7
100
AcDbSpline
 70
8
 71
3
 72
8
 73
4
 74
0
 40
0
 40
0
 40
0
 40
0
 40
1
 40
1
 40
1
 40
1
 10
83.309438
 20
416.231212
 30
0.0
 10
83.849735
 20
416.684575
 30
0.0
 10
84.213023
 20
417.313808
 30
0.0
 10
84.335498
 20
418.008401
 30
0.0
  0
LWPOLYLINE
  5
217
100
AcDbEntity
  8
0
 62
7
100
AcDbPolyline
 90
2
 70
1
 10
83.309438
 20
416.231212
 30
0.0
 10
83.309438
 20
416.231212
 30
0.0
  0
LWPOLYLINE
  5
218
100
AcDbEntity
  8
0
 62
7
100
AcDbPolyline
 90
3
 70
1
 10
84.335498
 20
418.008401
 30
0.0
 10
84.335498
 20
418.008401
 30
0.0
 10
84.335498
 20
418.008401
 30
0.0
  0
LWPOLYLINE
  5
219
100
AcDbEntity
  8
0
 62
7
100
AcDbPolyline
 90
6
 70
1
 10
83.309438
 20
416.231212
 30
0.0
 10
77.505871
 20
411.361442
 30
0.0
 10
77.505871
 20
411.361442
 30
0.0
 10
83.309438
 20
416.231212
 30
0.0
 10
83.309438
 20
416.231212
 30
0.0
 10
83.309438
 20
416.231212
 30
0.0
  0
SPLINE
  5
21a
100
AcDbEntity
  8
0
 62
7
100
AcDbSpline
 70
8
 71
3
 72
8
 73
4
 74
0
 40
0
 40
0
 40
0
 40
0
 40
1
 40
1
 40
1
 40
1
 10
29.570322
 20
463.917699
 30
0.0
 10
30.139902
 20
463.213549
 30
0.0
 10
30.997104
 20
462.804400
 30
0.0
 10
31.902780
 20
462.804400
 30
0.0
  0
SPLINE
  5
21b
100
AcDbEntity
  8
0
 62
7
100
AcDbSpline
 70
8
 71
3
 72
8
 73
4
 74
0
 40
0
 40
0
 40
0
 40
0
 40
1
 40
1
 40
1
 40
1
 10
31.902780
 20
462.804400
 30
0.0
 10
31.902780
 20
462.804400
 30
0.0
 10
31.902780
 20
462.804400
 30
0.0
 10
31.902780
 20
462.804400
 30
0.0
  0
SPLINE
  5
21c
100
AcDbEntity
  8
0
 62
7
100
AcDbSpline
 70
8
 71
3
 72
8
 73
4
 74
0
 40
0
 40
0
 40
0
 40
0
 40
1
 40
1
 40
1
 40
1
 10
31.902780
 20
462.804400
 30
0.0
 10
30.997104
 20
462.804400
 30
0.0
 10
30.139902
 20
463.213549
 30
0.0
 10
29.570322
 20
463.917699
 30
0.0
  0
SPLINE
  5
21d
100
AcDbEntity
  8
0
 62
7
100
AcDbSpline
 70
8
 71
3
 72
8
 73
4
 74
0
 40
0
 40
0
 40
0
 40
0
 40
1
 40
1
 40
1
 40
1
 10
26.257241
 20
468.013538
 30
0.0
 10
25.228478
 20
469.285359
 30
0.0
 10
25.408231
 20
471.146892
 30
0.0
 10
26.661336
 20
472.198372
 30
0.0
  0
SPLINE
  5
21e
100
AcDbEntity
  8
0
 62
7
100
AcDbSpline
 70
8
 71
3
 72
8
 73
4
 74
0
 40
0
 40
0
 40
0
 40
0
 40
1
 40
1
 40
1
 40
1
 10
26.661336
 20
472.198372
 30
0.0
 10
26.661336
 20
472.198372
 30
0.0
 10
26.661336
 20
472.198372
 30
0.0
 10
26.661336
 20
472.198372
 30
0.0
  0
SPLINE
  5
21f
100
AcDbEntity
  8
0
 62
7
100
AcDbSpline
 70
8
 71
3
 72
8
 73
4
 74
0
 40
0
 40
0
 40
0
 40
0
 40
1
 40
1
 40
1
 40
1
 10
26.661336
 20
472.198372
 30
0.0
 10
25.408231
 20
471.146892
 30
0.0
 10
25.228478
 20
469.285359
 30
0.0
 10
26.257241
 20
468.013538
 30
0.0
  0
LWPOLYLINE
  5
220
100
AcDbEntity
  8
0
 62
7
100
AcDbPolyline
 90
8
 70
1
 10
29.570322
 20
463.917699
 30
0.0
 10
26.257241
 20
468.013538
 30
0.0
 10
26.257241
 20
468.013538
 30
0.0
 10
29.570322
 20
463.917699
 30
0.0
 10
29.570322
 20
463.917699
 30
0.0
 10
29.570322
 20
463.917699
 30
0.0
 10
29.570322
 20
463.917699
 30
0.0
 10
29.570322
 20
463.917699
 30
0.0
  0
LWPOLYLINE
  5
221
100
AcDbEntity
  8
0
 62
7
100
AcDbPolyline
 90
3
 70
1
 10
26.257241
 20
468.013538
 30
0.0
 10
26.257241
 20
468.013538
 30
0.0
 10
26.257241
 20
468.013538
 30
0.0
  0
LWPOLYLINE
  5
222
100
AcDbEntity
  8
0
 62
7
100
AcDbPolyline
 90
6
 70
1
 10
74.378947
 20
462.804400
 30
0.0
 10
31.902780
 20
462.804400
 30
0.0
 10
31.902780
 20
462.804400
 30
0.0
 10
74.378947
 20
462.804400
 30
0.0
 10
74.378947
 20
462.804400
 30
0.0
 10
74.378947
 20
462.804400
 30
0.0
  0
SPLINE
  5
223
100
AcDbEntity
  8
0
 62
7
100
AcDbSpline
 70
8
 71
3
 72
8
 73
4
 74
0
 40
0
 40
0
 40
0
 40
0
 40
1
 40
1
 40
1
 40
1
 10
74.378947
 20
462.804400
 30
0.0
 10
75.084255
 20
462.804400
 30
0.0
 10
75.767013
 20
463.052903
 30
0.0
 10
76.307310
 20
463.506266
 30
0.0
  0
LWPOLYLINE
  5
224
100
AcDbEntity
  8
0
 62
7
100
AcDbPolyline
 90
6
 70
1
 10
32.505887
 20
477.102533
 30
0.0
 10
26.661336
 20
472.198372
 30
0.0
 10
26.661336
 20
472.198372
 30
0.0
 10
32.505887
 20
477.102533
 30
0.0
 10
32.505887
 20
477.102533
 30
0.0
 10
32.505887
 20
477.102533
 30
0.0
  0
SPLINE
  5
225
100
AcDbEntity
  8
0
 62
7
100
AcDbSpline
 70
8
 71
3
 72
8
 73
4
 74
0
 40
0
 40
0
 40
0
 40
0
 40
1
 40
1
 40
1
 40
1
 10
76.307310
 20
463.506266
 30
0.0
 10
75.767013
 20
463.052903
 30
0.0
 10
75.084255
 20
462.804400
 30
0.0
 10
74.378947
 20
462.804400
 30
0.0
  0
LWPOLYLINE
  5
226
100
AcDbEntity
  8
0
 62
7
100
AcDbPolyline
 90
2
 70
1
 10
76.307310
 20
463.506266
 30
0.0
 10
76.307310
 20
463.506266
 30
0.0
  0
SPLINE
  5
227
100
AcDbEntity
  8
0
 62
7
100
AcDbSpline
 70
8
 71
3
 72
8
 73
4
 74
0
 40
0
 40
0
 40
0
 40
0
 40
1
 40
1
 40
1
 40
1
 10
32.505887
 20
477.102533
 30
0.0
 10
33.046184
 20
477.555896
 30
0.0
 10
33.728942
 20
477.804400
 30
0.0
 10
34.434250
 20
477.804400
 30
0.0
  0
SPLINE
  5
228
100
AcDbEntity
  8
0
 62
7
100
AcDbSpline
 70
8
 71
3
 72
8
 73
4
 74
0
 40
0
 40
0
 40
0
 40
0
 40
1
 40
1
 40
1
 40
1
 10
34.434250
 20
477.804400
 30
0.0
 10
34.434250
 20
477.804400
 30
0.0
 10
34.434250
 20
477.804400
 30
0.0
 10
34.434250
 20
477.804400
 30
0.0
  0
SPLINE
  5
229
100
AcDbEntity
  8
0
 62
7
100
AcDbSpline
 70
8
 71
3
 72
8
 73
4
 74
0
 40
0
 40
0
 40
0
 40
0
 40
1
 40
1
 40
1
 40
1
 10
34.434250
 20
477.804400
 30
0.0
 10
33.728942
 20
477.804400
 30
0.0
 10
33.046184
 20
477.555896
 30
0.0
 10
32.505887
 20
477.102533
 30
0.0
  0
LWPOLYLINE
  5
22a
100
AcDbEntity
  8
0
 62
7
100
AcDbPolyline
 90
3
 70
1
 10
74.378947
 20
462.804400
 30
0.0
 10
74.378947
 20
462.804400
 30
0.0
 10
74.378947
 20
462.804400
 30
0.0
  0
LWPOLYLINE
  5
22b
100
AcDbEntity
  8
0
 62
7
100
AcDbPolyline
 90
3
 70
1
 10
32.505887
 20
477.102533
 30
0.0
 10
32.505887
 20
477.102533
 30
0.0
 10
32.505887
 20
477.102533
 30
0.0
  0
LWPOLYLINE
  5
22c
100
AcDbEntity
  8
0
 62
7
100
AcDbPolyline
 90
6
 70
1
 10
76.307310
 20
463.506266
 30
0.0
 10
82.151861
 20
468.410427
 30
0.0
 10
82.151861
 20
468.410427
 30
0.0
 10
76.307310
 20
463.506266
 30
0.0
 10
76.307310
 20
463.506266
 30
0.0
 10
76.307310
 20
463.506266
 30
0.0
  0
SPLINE
  5
22d
100
AcDbEntity
  8
0
 62
7
100
AcDbSpline
 70
8
 71
3
 72
8
 73
4
 74
0
 40
0
 40
0
 40
0
 40
0
 40
1
 40
1
 40
1
 40
1
 10
82.555957
 20
472.595261
 30
0.0
 10
83.584719
 20
471.323440
 30
0.0
 10
83.404966
 20
469.461907
 30
0.0
 10
82.151861
 20
468.410427
 30
0.0
  0
SPLINE
  5
22e
100
AcDbEntity
  8
0
 62
7
100
AcDbSpline
 70
8
 71
3
 72
8
 73
4
 74
0
 40
0
 40
0
 40
0
 40
0
 40
1
 40
1
 40
1
 40
1
 10
82.151861
 20
468.410427
 30
0.0
 10
82.151861
 20
468.410427
 30
0.0
 10
82.151861
 20
468.410427
 30
0.0
 10
82.151861
 20
468.410427
 30
0.0
  0
SPLINE
  5
22f
100
AcDbEntity
  8
0
 62
7
100
AcDbSpline
 70
8
 71
3
 72
8
 73
4
 74
0
 40
0
 40
0
 40
0
 40
0
 40
1
 40
1
 40
1
 40
1
 10
82.151861
 20
468.410427
 30
0.0
 10
83.404966
 20
469.461907
 30
0.0
 10
83.584719
 20
471.323440
 30
0.0
 10
82.555957
 20
472.595261
 30
0.0
  0
LWPOLYLINE
  5
230
100
AcDbEntity
  8
0
 62
7
100
AcDbPolyline
 90
6
 70
1
 10
34.434250
 20
477.804400
 30
0.0
 10
76.910417
 20
477.804400
 30
0.0
 10
76.910417
 20
477.804400
 30
0.0
 10
34.434250
 20
477.804400
 30
0.0
 10
34.434250
 20
477.804400
 30
0.0
 10
34.434250
 20
477.804400
 30
0.0
  0
SPLINE
  5
231
100
AcDbEntity
  8
0
 62
7
100
AcDbSpline
 70
8
 71
3
 72
8
 73
4
 74
0
 40
0
 40
0
 40
0
 40
0
 40
1
 40
1
 40
1
 40
1
 10
76.910417
 20
477.804400
 30
0.0
 10
77.816093
 20
477.804400
 30
0.0
 10
78.673295
 20
477.395251
 30
0.0
 10
79.242875
 20
476.691100
 30
0.0
  0
LWPOLYLINE
  5
232
100
AcDbEntity
  8
0
 62
7
100
AcDbPolyline
 90
3
 70
1
 10
82.555957
 20
472.595261
 30
0.0
 10
82.555957
 20
472.595261
 30
0.0
 10
82.555957
 20
472.595261
 30
0.0
  0
SPLINE
  5
233
100
AcDbEntity
  8
0
 62
7
100
AcDbSpline
 70
8
 71
3
 72
8
 73
4
 74
0
 40
0
 40
0
 40
0
 40
0
 40
1
 40
1
 40
1
 40
1
 10
79.242875
 20
476.691100
 30
0.0
 10
78.673295
 20
477.395251
 30
0.0
 10
77.816093
 20
477.804400
 30
0.0
 10
76.910417
 20
477.804400
 30
0.0
  0
LWPOLYLINE
  5
234
100
AcDbEntity
  8
0
 62
7
100
AcDbPolyline
 90
2
 70
1
 10
79.242875
 20
476.691100
 30
0.0
 10
79.242875
 20
476.691100
 30
0.0
  0
LWPOLYLINE
  5
235
100
AcDbEntity
  8
0
 62
7
100
AcDbPolyline
 90
3
 70
1
 10
76.910417
 20
477.804400
 30
0.0
 10
76.910417
 20
477.804400
 30
0.0
 10
76.910417
 20
477.804400
 30
0.0
  0
LWPOLYLINE
  5
236
100
AcDbEntity
  8
0
 62
7
100
AcDbPolyline
 90
6
 70
1
 10
79.242875
 20
476.691100
 30
0.0
 10
82.555957
 20
472.595261
 30
0.0
 10
82.555957
 20
472.595261
 30
0.0
 10
79.242875
 20
476.691100
 30
0.0
 10
79.242875
 20
476.691100
 30
0.0
 10
79.242875
 20
476.691100
 30
0.0
  0
SPLINE
  5
237
100
AcDbEntity
  8
0
 62
7
100
AcDbSpline
 70
8
 71
3
 72
8
 73
4
 74
0
 40
0
 40
0
 40
0
 40
0
 40
1
 40
1
 40
1
 40
1
 10
18.836961
 20
401.760803
 30
0.0
 10
19.406541
 20
401.056653
 30
0.0
 10
20.263743
 20
400.647504
 30
0.0
 10
21.169419
 20
400.647504
 30
0.0
  0
SPLINE
  5
238
100
AcDbEntity
  8
0
 62
7
100
AcDbSpline
 70
8
 71
3
 72
8
 73
4
 74
0
 40
0
 40
0
 40
0
 40
0
 40
1
 40
1
 40
1
 40
1
 10
21.169419
 20
400.647504
 30
0.0
 10
21.169419
 20
400.647504
 30
0.0
 10
21.169419
 20
400.647504
 30
0.0
 10
21.169419
 20
400.647504
 30
0.0
  0
SPLINE
  5
239
100
AcDbEntity
  8
0
 62
7
100
AcDbSpline
 70
8
 71
3
 72
8
 73
4
 74
0
 40
0
 40
0
 40
0
 40
0
 40
1
 40
1
 40
1
 40
1
 10
21.169419
 20
400.647504
 30
0.0
 10
20.263743
 20
400.647504
 30
0.0
 10
19.406541
 20
401.056653
 30
0.0
 10
18.836961
 20
401.760803
 30
0.0
  0
SPLINE
  5
23a
100
AcDbEntity
  8
0
 62
7
100
AcDbSpline
 70
8
 71
3
 72
8
 73
4
 74
0
 40
0
 40
0
 40
0
 40
0
 40
1
 40
1
 40
1
 40
1
 10
15.500543
 20
405.885493
 30
0.0
 10
14.481069
 20
407.145831
 30
0.0
 10
14.647187
 20
408.988075
 30
0.0
 10
15.875676
 20
410.045711
 30
0.0
  0
LWPOLYLINE
  5
23b
100
AcDbEntity
  8
0
 62
7
100
AcDbPolyline
 90
8
 70
1
 10
18.836961
 20
401.760803
 30
0.0
 10
15.500543
 20
405.885493
 30
0.0
 10
15.500543
 20
405.885493
 30
0.0
 10
18.836961
 20
401.760803
 30
0.0
 10
18.836961
 20
401.760803
 30
0.0
 10
18.836961
 20
401.760803
 30
0.0
 10
18.836961
 20
401.760803
 30
0.0
 10
18.836961
 20
401.760803
 30
0.0
  0
SPLINE
  5
23c
100
AcDbEntity
  8
0
 62
7
100
AcDbSpline
 70
8
 71
3
 72
8
 73
4
 74
0
 40
0
 40
0
 40
0
 40
0
 40
1
 40
1
 40
1
 40
1
 10
15.875676
 20
410.045711
 30
0.0
 10
14.647187
 20
408.988075
 30
0.0
 10
14.481069
 20
407.145831
 30
0.0
 10
15.500543
 20
405.885493
 30
0.0
  0
LWPOLYLINE
  5
23d
100
AcDbEntity
  8
0
 62
7
100
AcDbPolyline
 90
2
 70
1
 10
15.875676
 20
410.045711
 30
0.0
 10
15.875676
 20
410.045711
 30
0.0
  0
LWPOLYLINE
  5
23e
100
AcDbEntity
  8
0
 62
7
100
AcDbPolyline
 90
3
 70
1
 10
15.500543
 20
405.885493
 30
0.0
 10
15.500543
 20
405.885493
 30
0.0
 10
15.500543
 20
405.885493
 30
0.0
  0
LWPOLYLINE
  5
23f
100
AcDbEntity
  8
0
 62
7
100
AcDbPolyline
 90
6
 70
1
 10
63.645586
 20
400.647504
 30
0.0
 10
21.169419
 20
400.647504
 30
0.0
 10
21.169419
 20
400.647504
 30
0.0
 10
63.645586
 20
400.647504
 30
0.0
 10
63.645586
 20
400.647504
 30
0.0
 10
63.645586
 20
400.647504
 30
0.0
  0
SPLINE
  5
240
100
AcDbEntity
  8
0
 62
7
100
AcDbSpline
 70
8
 71
3
 72
8
 73
4
 74
0
 40
0
 40
0
 40
0
 40
0
 40
1
 40
1
 40
1
 40
1
 10
63.645586
 20
400.647504
 30
0.0
 10
64.350894
 20
400.647504
 30
0.0
 10
65.033652
 20
400.896007
 30
0.0
 10
65.573949
 20
401.349370
 30
0.0
  0
LWPOLYLINE
  5
241
100
AcDbEntity
  8
0
 62
7
100
AcDbPolyline
 90
6
 70
1
 10
21.538560
 20
414.921021
 30
0.0
 10
15.875676
 20
410.045711
 30
0.0
 10
15.875676
 20
410.045711
 30
0.0
 10
21.538560
 20
414.921021
 30
0.0
 10
21.538560
 20
414.921021
 30
0.0
 10
21.538560
 20
414.921021
 30
0.0
  0
SPLINE
  5
242
100
AcDbEntity
  8
0
 62
7
100
AcDbSpline
 70
8
 71
3
 72
8
 73
4
 74
0
 40
0
 40
0
 40
0
 40
0
 40
1
 40
1
 40
1
 40
1
 10
65.573949
 20
401.349370
 30
0.0
 10
65.033652
 20
400.896007
 30
0.0
 10
64.350894
 20
400.647504
 30
0.0
 10
63.645586
 20
400.647504
 30
0.0
  0
LWPOLYLINE
  5
243
100
AcDbEntity
  8
0
 62
7
100
AcDbPolyline
 90
2
 70
1
 10
65.573949
 20
401.349370
 30
0.0
 10
65.573949
 20
401.349370
 30
0.0
  0
SPLINE
  5
244
100
AcDbEntity
  8
0
 62
7
100
AcDbSpline
 70
8
 71
3
 72
8
 73
4
 74
0
 40
0
 40
0
 40
0
 40
0
 40
1
 40
1
 40
1
 40
1
 10
21.538560
 20
414.921021
 30
0.0
 10
22.082976
 20
415.389722
 30
0.0
 10
22.777506
 20
415.647504
 30
0.0
 10
23.495885
 20
415.647504
 30
0.0
  0
LWPOLYLINE
  5
245
100
AcDbEntity
  8
0
 62
7
100
AcDbPolyline
 90
3
 70
1
 10
63.645586
 20
400.647504
 30
0.0
 10
63.645586
 20
400.647504
 30
0.0
 10
63.645586
 20
400.647504
 30
0.0
  0
SPLINE
  5
246
100
AcDbEntity
  8
0
 62
7
100
AcDbSpline
 70
8
 71
3
 72
8
 73
4
 74
0
 40
0
 40
0
 40
0
 40
0
 40
1
 40
1
 40
1
 40
1
 10
23.495885
 20
415.647504
 30
0.0
 10
22.777506
 20
415.647504
 30
0.0
 10
22.082976
 20
415.389722
 30
0.0
 10
21.538560
 20
414.921021
 30
0.0
  0
LWPOLYLINE
  5
247
100
AcDbEntity
  8
0
 62
7
100
AcDbPolyline
 90
2
 70
1
 10
23.495885
 20
415.647504
 30
0.0
 10
23.495885
 20
415.647504
 30
0.0
  0
LWPOLYLINE
  5
248
100
AcDbEntity
  8
0
 62
7
100
AcDbPolyline
 90
3
 70
1
 10
21.538560
 20
414.921021
 30
0.0
 10
21.538560
 20
414.921021
 30
0.0
 10
21.538560
 20
414.921021
 30
0.0
  0
LWPOLYLINE
  5
249
100
AcDbEntity
  8
0
 62
7
100
AcDbPolyline
 90
6
 70
1
 10
65.573949
 20
401.349370
 30
0.0
 10
71.377515
 20
406.219141
 30
0.0
 10
71.377515
 20
406.219141
 30
0.0
 10
65.573949
 20
401.349370
 30
0.0
 10
65.573949
 20
401.349370
 30
0.0
 10
65.573949
 20
401.349370
 30
0.0
  0
SPLINE
  5
24a
100
AcDbEntity
  8
0
 62
7
100
AcDbSpline
 70
8
 71
3
 72
8
 73
4
 74
0
 40
0
 40
0
 40
0
 40
0
 40
1
 40
1
 40
1
 40
1
 10
71.747286
 20
410.445637
 30
0.0
 10
72.812291
 20
409.176413
 30
0.0
 10
72.646739
 20
407.284146
 30
0.0
 10
71.377515
 20
406.219141
 30
0.0
  0
LWPOLYLINE
  5
24b
100
AcDbEntity
  8
0
 62
7
100
AcDbPolyline
 90
6
 70
1
 10
65.983479
 20
415.647504
 30
0.0
 10
23.495885
 20
415.647504
 30
0.0
 10
23.495885
 20
415.647504
 30
0.0
 10
65.983479
 20
415.647504
 30
0.0
 10
65.983479
 20
415.647504
 30
0.0
 10
65.983479
 20
415.647504
 30
0.0
  0
SPLINE
  5
24c
100
AcDbEntity
  8
0
 62
7
100
AcDbSpline
 70
8
 71
3
 72
8
 73
4
 74
0
 40
0
 40
0
 40
0
 40
0
 40
1
 40
1
 40
1
 40
1
 10
71.377515
 20
406.219141
 30
0.0
 10
72.646739
 20
407.284146
 30
0.0
 10
72.812291
 20
409.176413
 30
0.0
 10
71.747286
 20
410.445637
 30
0.0
  0
LWPOLYLINE
  5
24d
100
AcDbEntity
  8
0
 62
7
100
AcDbPolyline
 90
2
 70
1
 10
71.377515
 20
406.219141
 30
0.0
 10
71.377515
 20
406.219141
 30
0.0
  0
SPLINE
  5
24e
100
AcDbEntity
  8
0
 62
7
100
AcDbSpline
 70
8
 71
3
 72
8
 73
4
 74
0
 40
0
 40
0
 40
0
 40
0
 40
1
 40
1
 40
1
 40
1
 10
65.983479
 20
415.647504
 30
0.0
 10
66.870258
 20
415.647504
 30
0.0
 10
67.711602
 20
415.255178
 30
0.0
 10
68.281612
 20
414.575866
 30
0.0
  0
LWPOLYLINE
  5
24f
100
AcDbEntity
  8
0
 62
7
100
AcDbPolyline
 90
3
 70
1
 10
71.747286
 20
410.445637
 30
0.0
 10
71.747286
 20
410.445637
 30
0.0
 10
71.747286
 20
410.445637
 30
0.0
  0
SPLINE
  5
250
100
AcDbEntity
  8
0
 62
7
100
AcDbSpline
 70
8
 71
3
 72
8
 73
4
 74
0
 40
0
 40
0
 40
0
 40
0
 40
1
 40
1
 40
1
 40
1
 10
68.281612
 20
414.575866
 30
0.0
 10
67.711602
 20
415.255178
 30
0.0
 10
66.870258
 20
415.647504
 30
0.0
 10
65.983479
 20
415.647504
 30
0.0
  0
LWPOLYLINE
  5
251
100
AcDbEntity
  8
0
 62
7
100
AcDbPolyline
 90
2
 70
1
 10
68.281612
 20
414.575866
 30
0.0
 10
68.281612
 20
414.575866
 30
0.0
  0
LWPOLYLINE
  5
252
100
AcDbEntity
  8
0
 62
7
100
AcDbPolyline
 90
3
 70
1
 10
65.983479
 20
415.647504
 30
0.0
 10
65.983479
 20
415.647504
 30
0.0
 10
65.983479
 20
415.647504
 30
0.0
  0
LWPOLYLINE
  5
253
100
AcDbEntity
  8
0
 62
7
100
AcDbPolyline
 90
6
 70
1
 10
68.281612
 20
414.575866
 30
0.0
 10
71.747286
 20
410.445637
 30
0.0
 10
71.747286
 20
410.445637
 30
0.0
 10
68.281612
 20
414.575866
 30
0.0
 10
68.281612
 20
414.575866
 30
0.0
 10
68.281612
 20
414.575866
 30
0.0
  0
ENDSEC
  0
SECTION
  2
OBJECTS
  0
DICTIONARY
  5
C
330
0
100
AcDbDictionary
  3
ACAD_GROUP
350
D
  3
ACAD_MLINESTYLE
350
17
  0
DICTIONARY
  5
D
330
C
100
AcDbDictionary
  0
DICTIONARY
  5
1A
330
C
100
AcDbDictionary
  0
DICTIONARY
  5
17
330
C
100
AcDbDictionary
  3
STANDARD
350
18
  0
DICTIONARY
  5
19
330
C
100
AcDbDictionary
  0
ENDSEC
  0
EOF
