G04 (created by PCBNEW (2013-07-07 BZR 4022)-stable) date 10/26/2014 6:34:32 PM*
%MOIN*%
G04 Gerber Fmt 3.4, Leading zero omitted, Abs format*
%FSLAX34Y34*%
G01*
G70*
G90*
G04 APERTURE LIST*
%ADD10C,0.01*%
%ADD11R,0.0512X0.059*%
%ADD12R,0.0394X0.0354*%
%ADD13C,0.287402*%
%ADD14R,0.06X0.06*%
%ADD15C,0.06*%
%ADD16R,0.0905512X0.220472*%
%ADD17R,0.075X0.04*%
%ADD18R,0.02X0.094*%
%ADD19R,0.0511811X0.0629921*%
%ADD20O,0.0847402X0.12411*%
%ADD21C,0.045*%
%ADD22C,0.025*%
%ADD23C,0.05*%
%ADD24C,0.1*%
G04 APERTURE END LIST*
G54D10*
G54D11*
X9125Y30000D03*
X9875Y30000D03*
G54D12*
X18250Y22796D03*
X18250Y22204D03*
X19750Y25204D03*
X19750Y25796D03*
G54D13*
X39000Y15000D03*
X3000Y45000D03*
X3000Y15000D03*
X39000Y45000D03*
G54D14*
X35000Y57500D03*
G54D15*
X35000Y56500D03*
X35000Y55500D03*
X35000Y54500D03*
X35000Y53500D03*
X35000Y52500D03*
X35000Y51500D03*
X35000Y50500D03*
G54D14*
X7000Y50500D03*
G54D15*
X7000Y51500D03*
X7000Y52500D03*
X7000Y53500D03*
X7000Y54500D03*
X7000Y55500D03*
X7000Y56500D03*
X7000Y57500D03*
G54D14*
X35000Y9500D03*
G54D15*
X35000Y8500D03*
X35000Y7500D03*
X35000Y6500D03*
X35000Y5500D03*
X35000Y4500D03*
X35000Y3500D03*
X35000Y2500D03*
G54D14*
X7000Y2500D03*
G54D15*
X7000Y3500D03*
X7000Y4500D03*
X7000Y5500D03*
X7000Y6500D03*
X7000Y7500D03*
X7000Y8500D03*
X7000Y9500D03*
G54D16*
X30456Y57000D03*
X27543Y57000D03*
X14456Y3000D03*
X11543Y3000D03*
G54D17*
X41025Y57500D03*
X41025Y56500D03*
X41025Y55500D03*
X41025Y54500D03*
X41025Y53500D03*
X41025Y52500D03*
X41025Y51500D03*
X41025Y50500D03*
X36975Y57500D03*
X36975Y56500D03*
X36975Y55500D03*
X36975Y54500D03*
X36975Y53500D03*
X36975Y52500D03*
X36975Y51500D03*
X36975Y50500D03*
X975Y50500D03*
X975Y51500D03*
X975Y52500D03*
X975Y53500D03*
X975Y54500D03*
X975Y55500D03*
X975Y56500D03*
X975Y57500D03*
X5025Y50500D03*
X5025Y51500D03*
X5025Y52500D03*
X5025Y53500D03*
X5025Y54500D03*
X5025Y55500D03*
X5025Y56500D03*
X5025Y57500D03*
X41025Y9500D03*
X41025Y8500D03*
X41025Y7500D03*
X41025Y6500D03*
X41025Y5500D03*
X41025Y4500D03*
X41025Y3500D03*
X41025Y2500D03*
X36975Y9500D03*
X36975Y8500D03*
X36975Y7500D03*
X36975Y6500D03*
X36975Y5500D03*
X36975Y4500D03*
X36975Y3500D03*
X36975Y2500D03*
X975Y2500D03*
X975Y3500D03*
X975Y4500D03*
X975Y5500D03*
X975Y6500D03*
X975Y7500D03*
X975Y8500D03*
X975Y9500D03*
X5025Y2500D03*
X5025Y3500D03*
X5025Y4500D03*
X5025Y5500D03*
X5025Y6500D03*
X5025Y7500D03*
X5025Y8500D03*
X5025Y9500D03*
G54D18*
X19250Y21585D03*
X19750Y21585D03*
X20250Y21585D03*
X20750Y21585D03*
X21250Y21585D03*
X21750Y21585D03*
X22250Y21585D03*
X22750Y21585D03*
X22750Y23415D03*
X22250Y23415D03*
X21750Y23415D03*
X21250Y23415D03*
X20750Y23415D03*
X20250Y23415D03*
X19750Y23415D03*
X19250Y23415D03*
G54D19*
X30978Y48063D03*
X29482Y48063D03*
G54D20*
X30230Y48063D03*
G54D19*
X23452Y54394D03*
X21956Y54394D03*
G54D20*
X22704Y54394D03*
G54D19*
X17547Y54394D03*
X16051Y54394D03*
G54D20*
X16799Y54394D03*
G54D19*
X11641Y54394D03*
X10145Y54394D03*
G54D20*
X10893Y54394D03*
G54D19*
X8307Y36326D03*
X6811Y36326D03*
G54D20*
X7559Y36326D03*
G54D19*
X7282Y42141D03*
X5785Y42141D03*
G54D20*
X6534Y42141D03*
G54D19*
X4427Y11944D03*
X2931Y11944D03*
G54D20*
X3679Y11944D03*
G54D19*
X15842Y30004D03*
X14346Y30004D03*
G54D20*
X15094Y30004D03*
G54D19*
X21748Y30004D03*
X20252Y30004D03*
G54D20*
X21000Y30004D03*
G54D19*
X27654Y30004D03*
X26158Y30004D03*
G54D20*
X26906Y30004D03*
G54D19*
X6256Y47957D03*
X4760Y47957D03*
G54D20*
X5508Y47957D03*
G54D19*
X32004Y42247D03*
X30508Y42247D03*
G54D20*
X31256Y42247D03*
G54D19*
X33029Y36432D03*
X31533Y36432D03*
G54D20*
X32281Y36432D03*
G54D19*
X35192Y23660D03*
X33696Y23660D03*
G54D20*
X34444Y23660D03*
G54D19*
X36222Y17821D03*
X34726Y17821D03*
G54D20*
X35474Y17821D03*
G54D19*
X37251Y11983D03*
X35755Y11983D03*
G54D20*
X36503Y11983D03*
G54D19*
X30383Y5533D03*
X31879Y5533D03*
G54D20*
X31131Y5533D03*
G54D19*
X24477Y5533D03*
X25973Y5533D03*
G54D20*
X25225Y5533D03*
G54D19*
X18571Y5533D03*
X20067Y5533D03*
G54D20*
X19319Y5533D03*
G54D19*
X8974Y23553D03*
X10470Y23553D03*
G54D20*
X9722Y23553D03*
G54D19*
X11499Y17715D03*
X10003Y17715D03*
G54D20*
X10751Y17715D03*
G54D19*
X11033Y11877D03*
X12529Y11877D03*
G54D20*
X11781Y11877D03*
G54D21*
X19250Y53500D03*
X20250Y18500D03*
X19750Y52500D03*
X20750Y19000D03*
X36000Y33000D03*
X6000Y33000D03*
X6000Y24750D03*
X11750Y26500D03*
X20250Y24750D03*
X3500Y55500D03*
X20250Y51500D03*
X20750Y26000D03*
X16750Y21500D03*
X16750Y20750D03*
X16750Y22250D03*
X18250Y20750D03*
X17500Y20750D03*
X18250Y25750D03*
X3750Y14250D03*
X2250Y14250D03*
X2250Y15750D03*
X3750Y15750D03*
X2000Y15000D03*
X4000Y15000D03*
X3000Y14000D03*
X3000Y16000D03*
X3750Y44250D03*
X2250Y44250D03*
X2250Y45750D03*
X3750Y45750D03*
X2000Y45000D03*
X3000Y44000D03*
X4000Y45000D03*
X3000Y46000D03*
X38250Y14250D03*
X38250Y15750D03*
X39750Y15750D03*
X39750Y14250D03*
X38000Y15000D03*
X40000Y15000D03*
X39000Y14000D03*
X39000Y16000D03*
X39750Y44250D03*
X38250Y44250D03*
X38250Y45750D03*
X39750Y45750D03*
X40000Y45000D03*
X39000Y44000D03*
X38000Y45000D03*
X39000Y46000D03*
X12750Y49000D03*
X16000Y17000D03*
X3750Y13000D03*
X5000Y27000D03*
X22250Y27500D03*
X25750Y48000D03*
X9500Y54000D03*
X16500Y17500D03*
X22750Y16000D03*
X32750Y6000D03*
X12250Y26000D03*
X7500Y26000D03*
X8127Y30000D03*
X9750Y11750D03*
X16750Y2500D03*
X16750Y5500D03*
X25750Y57500D03*
X25750Y54500D03*
X29750Y30000D03*
X36000Y10250D03*
X34500Y36500D03*
X10250Y36250D03*
G54D22*
X975Y53500D02*
X500Y53500D01*
X41025Y53500D02*
X41500Y53500D01*
X975Y6500D02*
X500Y6500D01*
X41025Y6500D02*
X41500Y6500D01*
X20250Y21585D02*
X20250Y20750D01*
G54D10*
X20250Y20750D02*
X20250Y18500D01*
X35000Y6500D02*
X7000Y6500D01*
X7000Y53500D02*
X19250Y53500D01*
X19250Y53500D02*
X35000Y53500D01*
G54D22*
X7000Y53500D02*
X5025Y53500D01*
X5025Y53500D02*
X975Y53500D01*
X975Y6500D02*
X5025Y6500D01*
X5025Y6500D02*
X7000Y6500D01*
X41025Y6500D02*
X36975Y6500D01*
X36975Y6500D02*
X35000Y6500D01*
G54D10*
X36975Y53500D02*
X35000Y53500D01*
G54D22*
X41025Y53500D02*
X36975Y53500D01*
X975Y52500D02*
X500Y52500D01*
X41025Y52500D02*
X41500Y52500D01*
X975Y7500D02*
X500Y7500D01*
X41025Y7500D02*
X41500Y7500D01*
G54D10*
X20750Y20750D02*
X20750Y19000D01*
G54D22*
X20750Y21585D02*
X20750Y20750D01*
G54D10*
X7000Y7500D02*
X35000Y7500D01*
X35000Y52500D02*
X19750Y52500D01*
X19750Y52500D02*
X7000Y52500D01*
G54D22*
X975Y52500D02*
X5025Y52500D01*
X5025Y52500D02*
X7000Y52500D01*
X5025Y7500D02*
X7000Y7500D01*
X975Y7500D02*
X5025Y7500D01*
X41025Y7500D02*
X36975Y7500D01*
X36975Y7500D02*
X35000Y7500D01*
X36975Y52500D02*
X35000Y52500D01*
X41025Y52500D02*
X36975Y52500D01*
X41025Y54500D02*
X41500Y54500D01*
X975Y5500D02*
X500Y5500D01*
G54D10*
X6000Y33000D02*
X36000Y33000D01*
G54D22*
X19750Y20750D02*
X19750Y21585D01*
G54D10*
X19750Y18750D02*
X19750Y20750D01*
X19000Y18000D02*
X19750Y18750D01*
X16750Y18000D02*
X19000Y18000D01*
X14750Y20000D02*
X16750Y18000D01*
X14750Y22250D02*
X14750Y20000D01*
X12250Y24750D02*
X14750Y22250D01*
X6000Y24750D02*
X12250Y24750D01*
G54D22*
X975Y5500D02*
X5025Y5500D01*
X5025Y5500D02*
X7000Y5500D01*
G54D10*
X36975Y54500D02*
X35000Y54500D01*
G54D22*
X41025Y54500D02*
X36975Y54500D01*
X975Y54500D02*
X500Y54500D01*
X41025Y5500D02*
X41500Y5500D01*
G54D10*
X20250Y26000D02*
X20250Y24750D01*
X19750Y26500D02*
X20250Y26000D01*
X11750Y26500D02*
X19750Y26500D01*
X20250Y24250D02*
X20250Y24750D01*
G54D22*
X20250Y23415D02*
X20250Y24250D01*
X5025Y54500D02*
X7000Y54500D01*
X975Y54500D02*
X5025Y54500D01*
X41025Y5500D02*
X36975Y5500D01*
X36975Y5500D02*
X35000Y5500D01*
X975Y55500D02*
X500Y55500D01*
X41025Y55500D02*
X41500Y55500D01*
X975Y4500D02*
X500Y4500D01*
X41025Y4500D02*
X41500Y4500D01*
G54D10*
X35000Y4500D02*
X17000Y4500D01*
X9250Y4500D02*
X7000Y4500D01*
X9750Y5000D02*
X9250Y4500D01*
X16500Y5000D02*
X9750Y5000D01*
X17000Y4500D02*
X16500Y5000D01*
X7000Y55500D02*
X25000Y55500D01*
X33000Y55500D02*
X35000Y55500D01*
X32500Y55000D02*
X33000Y55500D01*
X25500Y55000D02*
X32500Y55000D01*
X25000Y55500D02*
X25500Y55000D01*
G54D22*
X975Y55500D02*
X3500Y55500D01*
X3500Y55500D02*
X5025Y55500D01*
X5025Y55500D02*
X7000Y55500D01*
X975Y4500D02*
X5025Y4500D01*
X5025Y4500D02*
X7000Y4500D01*
X41025Y4500D02*
X36975Y4500D01*
X36975Y4500D02*
X35000Y4500D01*
X36975Y55500D02*
X35000Y55500D01*
X41025Y55500D02*
X36975Y55500D01*
X975Y51500D02*
X500Y51500D01*
X41025Y51500D02*
X41500Y51500D01*
X975Y8500D02*
X500Y8500D01*
X41025Y8500D02*
X41500Y8500D01*
G54D10*
X35000Y8500D02*
X7000Y8500D01*
X7000Y51500D02*
X20250Y51500D01*
X20250Y51500D02*
X35000Y51500D01*
G54D22*
X20750Y24250D02*
X20750Y23415D01*
G54D10*
X20750Y26000D02*
X20750Y24250D01*
G54D22*
X7000Y51500D02*
X5025Y51500D01*
X5025Y51500D02*
X975Y51500D01*
X975Y8500D02*
X5025Y8500D01*
X5025Y8500D02*
X7000Y8500D01*
X41025Y8500D02*
X36975Y8500D01*
X36975Y8500D02*
X35000Y8500D01*
X36975Y51500D02*
X35000Y51500D01*
X41025Y51500D02*
X36975Y51500D01*
X16750Y20750D02*
X17500Y20750D01*
X16750Y21500D02*
X16750Y20750D01*
X18250Y22204D02*
X16796Y22204D01*
X16796Y22204D02*
X16750Y22250D01*
X975Y50500D02*
X500Y50500D01*
X41025Y50500D02*
X41500Y50500D01*
X975Y9500D02*
X500Y9500D01*
X41025Y9500D02*
X41500Y9500D01*
X19750Y25796D02*
X18296Y25796D01*
X18296Y25796D02*
X18250Y25750D01*
X18250Y22204D02*
X19046Y22204D01*
X19250Y21500D02*
X19250Y21585D01*
X19250Y22000D02*
X19250Y21500D01*
X19046Y22204D02*
X19250Y22000D01*
G54D23*
X3750Y14250D02*
X3000Y15000D01*
X3000Y15000D02*
X2250Y14250D01*
X2250Y15750D02*
X3000Y15000D01*
X3000Y15000D02*
X3750Y15750D01*
X2000Y15000D02*
X3000Y15000D01*
X3000Y15000D02*
X4000Y15000D01*
X3000Y14000D02*
X3000Y15000D01*
X3000Y15000D02*
X3000Y16000D01*
X3750Y44250D02*
X3000Y45000D01*
X3000Y45000D02*
X2250Y44250D01*
X2250Y45750D02*
X3000Y45000D01*
X3000Y45000D02*
X3750Y45750D01*
X2000Y45000D02*
X3000Y45000D01*
X3000Y45000D02*
X3000Y44000D01*
X4000Y45000D02*
X3000Y45000D01*
X3000Y45000D02*
X3000Y46000D01*
X38250Y14250D02*
X39000Y15000D01*
X38250Y15750D02*
X39000Y15000D01*
X39000Y15000D02*
X39750Y15750D01*
X39750Y14250D02*
X39000Y15000D01*
X39000Y15000D02*
X38000Y15000D01*
X40000Y15000D02*
X39000Y15000D01*
X39000Y15000D02*
X39000Y14000D01*
X39000Y16000D02*
X39000Y15000D01*
X39000Y45000D02*
X39750Y44250D01*
X39000Y45000D02*
X38250Y44250D01*
X38250Y45750D02*
X39000Y45000D01*
X39000Y45000D02*
X39750Y45750D01*
X39000Y45000D02*
X40000Y45000D01*
X39000Y45000D02*
X40000Y45000D01*
X40000Y45000D02*
X39000Y45000D01*
X39000Y44000D02*
X39000Y45000D01*
X39000Y45000D02*
X38000Y45000D01*
X39000Y45000D02*
X39000Y46000D01*
G54D22*
X975Y50500D02*
X5025Y50500D01*
X5025Y50500D02*
X7000Y50500D01*
X975Y9500D02*
X5025Y9500D01*
X5025Y9500D02*
X7000Y9500D01*
X36975Y9500D02*
X35000Y9500D01*
X41025Y9500D02*
X36975Y9500D01*
X36975Y50500D02*
X35000Y50500D01*
X41025Y50500D02*
X36975Y50500D01*
X19750Y23415D02*
X19750Y25250D01*
X19750Y25250D02*
X19750Y25204D01*
X4760Y47957D02*
X4292Y47957D01*
X4500Y49000D02*
X5250Y49000D01*
X4000Y48500D02*
X4500Y49000D01*
X4000Y48250D02*
X4000Y48500D01*
X4292Y47957D02*
X4000Y48250D01*
X12750Y49000D02*
X5250Y49000D01*
X21750Y17750D02*
X21750Y21585D01*
X21000Y17000D02*
X21750Y17750D01*
X16000Y17000D02*
X21000Y17000D01*
X30978Y48063D02*
X31436Y48063D01*
X31750Y46000D02*
X30978Y45228D01*
X31750Y47750D02*
X31750Y46000D01*
X31436Y48063D02*
X31750Y47750D01*
X30508Y42247D02*
X30002Y42247D01*
X30002Y42247D02*
X29750Y42500D01*
X29750Y42500D02*
X29750Y44000D01*
X29750Y44000D02*
X30978Y45228D01*
X15842Y30004D02*
X20252Y30004D01*
X21748Y30004D02*
X26158Y30004D01*
X32004Y42247D02*
X32502Y42247D01*
X32750Y40250D02*
X32004Y39504D01*
X32750Y42000D02*
X32750Y40250D01*
X32502Y42247D02*
X32750Y42000D01*
X31533Y36432D02*
X31067Y36432D01*
X30750Y38250D02*
X31533Y39033D01*
X30750Y36750D02*
X30750Y38250D01*
X31067Y36432D02*
X30750Y36750D01*
X31533Y39033D02*
X32004Y39504D01*
X35192Y23660D02*
X35839Y23660D01*
X36250Y21500D02*
X35192Y20442D01*
X36250Y23250D02*
X36250Y21500D01*
X35839Y23660D02*
X36250Y23250D01*
X34726Y17821D02*
X34178Y17821D01*
X34178Y17821D02*
X33750Y18250D01*
X33750Y18250D02*
X33750Y19000D01*
X33750Y19000D02*
X35192Y20442D01*
X36222Y17821D02*
X36678Y17821D01*
X37000Y15500D02*
X36222Y14722D01*
X37000Y17500D02*
X37000Y15500D01*
X36678Y17821D02*
X37000Y17500D01*
X35755Y11983D02*
X35266Y11983D01*
X35266Y11983D02*
X35000Y12250D01*
X35000Y12250D02*
X35000Y13500D01*
X35000Y13500D02*
X36222Y14722D01*
G54D24*
X30456Y57000D02*
X31750Y57000D01*
X32250Y57500D02*
X34000Y57500D01*
X31750Y57000D02*
X32250Y57500D01*
G54D22*
X41025Y57500D02*
X41025Y57025D01*
X41025Y57025D02*
X41000Y57000D01*
X41000Y57000D02*
X40750Y57000D01*
X40750Y57000D02*
X40500Y57000D01*
X40500Y57000D02*
X40000Y57500D01*
X37000Y57000D02*
X36500Y57000D01*
X36500Y57000D02*
X36000Y57500D01*
X36975Y57500D02*
X37000Y57475D01*
X37000Y57475D02*
X37000Y57000D01*
X37000Y57000D02*
X37500Y57000D01*
X37500Y57000D02*
X38000Y57500D01*
G54D23*
X34500Y58250D02*
X34000Y57750D01*
G54D22*
X34000Y57750D02*
X34000Y57500D01*
G54D23*
X35500Y58250D02*
X36000Y57750D01*
X35000Y58250D02*
X34500Y58250D01*
G54D22*
X41025Y57500D02*
X41025Y58225D01*
X41025Y58225D02*
X41000Y58250D01*
G54D23*
X41000Y58250D02*
X40500Y58250D01*
X40500Y58250D02*
X40000Y57750D01*
G54D22*
X40000Y57750D02*
X40000Y57500D01*
G54D23*
X36975Y58250D02*
X37500Y58250D01*
X37500Y58250D02*
X38250Y57500D01*
G54D22*
X36975Y57500D02*
X36975Y58250D01*
X36975Y58250D02*
X36975Y58225D01*
X36975Y58225D02*
X36950Y58250D01*
G54D23*
X36950Y58250D02*
X36500Y58250D01*
X36500Y58250D02*
X36000Y57750D01*
G54D22*
X36000Y57750D02*
X36000Y57500D01*
X35000Y57500D02*
X35000Y58250D01*
G54D23*
X35000Y58250D02*
X35500Y58250D01*
G54D22*
X36000Y57500D02*
X36050Y57500D01*
X36050Y57500D02*
X36000Y57500D01*
G54D23*
X36250Y57500D02*
X36000Y57500D01*
X36000Y57500D02*
X35750Y57500D01*
G54D22*
X36975Y57500D02*
X36250Y57500D01*
X35750Y57500D02*
X35000Y57500D01*
X36975Y57500D02*
X37750Y57500D01*
X40250Y57500D02*
X41025Y57500D01*
G54D23*
X37750Y57500D02*
X38000Y57500D01*
X38000Y57500D02*
X38500Y57500D01*
X38500Y57500D02*
X40000Y57500D01*
X40000Y57500D02*
X40250Y57500D01*
G54D22*
X41025Y57500D02*
X41500Y57500D01*
G54D23*
X35000Y57500D02*
X34000Y57500D01*
G54D22*
X17547Y54394D02*
X21956Y54394D01*
X11641Y54394D02*
X16051Y54394D01*
X12529Y11877D02*
X13127Y11877D01*
X13127Y11877D02*
X13500Y12250D01*
X13500Y13000D02*
X12250Y14250D01*
X13500Y12250D02*
X13500Y13000D01*
X11499Y17715D02*
X11534Y17750D01*
X12250Y17500D02*
X12250Y14250D01*
X12000Y17750D02*
X12250Y17500D01*
X11534Y17750D02*
X12000Y17750D01*
X12529Y13970D02*
X12250Y14250D01*
X13127Y13372D02*
X12529Y13970D01*
X30383Y5533D02*
X25973Y5533D01*
X24477Y5533D02*
X20067Y5533D01*
X8974Y23553D02*
X8553Y23553D01*
X8250Y21500D02*
X8974Y20775D01*
X8250Y23250D02*
X8250Y21500D01*
X8553Y23553D02*
X8250Y23250D01*
X10003Y17715D02*
X9534Y17715D01*
X9534Y17715D02*
X9250Y18000D01*
X9250Y18000D02*
X9250Y20500D01*
X9250Y20500D02*
X8974Y20775D01*
X6256Y47957D02*
X6792Y47957D01*
X7250Y46000D02*
X6256Y45006D01*
X7250Y47500D02*
X7250Y46000D01*
X6792Y47957D02*
X7250Y47500D01*
X5785Y42141D02*
X5358Y42141D01*
X5358Y42141D02*
X5000Y42500D01*
X5000Y42500D02*
X5000Y43750D01*
X5000Y43750D02*
X6256Y45006D01*
X7282Y42141D02*
X7858Y42141D01*
X8250Y40250D02*
X8000Y40000D01*
X8250Y41750D02*
X8250Y40250D01*
X7858Y42141D02*
X8250Y41750D01*
X7282Y42141D02*
X7641Y42141D01*
X8000Y40000D02*
X7282Y39282D01*
X6811Y36326D02*
X6423Y36326D01*
X6423Y36326D02*
X6250Y36500D01*
X6250Y36500D02*
X6250Y38250D01*
X6250Y38250D02*
X7282Y39282D01*
X2931Y11944D02*
X2555Y11944D01*
X2750Y13000D02*
X3750Y13000D01*
X2250Y12500D02*
X2750Y13000D01*
X2250Y12250D02*
X2250Y12500D01*
X2500Y12000D02*
X2250Y12250D01*
X21250Y26250D02*
X21250Y23415D01*
X20500Y27000D02*
X6250Y27000D01*
X21250Y26250D02*
X20500Y27000D01*
X6250Y27000D02*
X5000Y27000D01*
X2555Y11944D02*
X2500Y12000D01*
X2931Y11944D02*
X2876Y12000D01*
X3000Y12000D02*
X2931Y11944D01*
G54D24*
X11543Y3000D02*
X10500Y3000D01*
X10000Y2500D02*
X8000Y2500D01*
X10500Y3000D02*
X10000Y2500D01*
G54D22*
X5025Y3000D02*
X4500Y3000D01*
X4500Y3000D02*
X4000Y2500D01*
X5025Y2500D02*
X5025Y3000D01*
X5025Y3000D02*
X5025Y2975D01*
X5025Y2975D02*
X5050Y3000D01*
X5050Y3000D02*
X5500Y3000D01*
X5500Y3000D02*
X6000Y2500D01*
X975Y2500D02*
X975Y2975D01*
X975Y2975D02*
X1000Y3000D01*
X1000Y3000D02*
X1500Y3000D01*
X1500Y3000D02*
X2000Y2500D01*
X2000Y2500D02*
X2000Y2250D01*
X975Y2500D02*
X975Y1775D01*
X975Y1775D02*
X1000Y1750D01*
G54D23*
X1000Y1750D02*
X1500Y1750D01*
X1500Y1750D02*
X2000Y2250D01*
G54D22*
X2000Y2250D02*
X2000Y2500D01*
G54D23*
X5025Y1750D02*
X4500Y1750D01*
X4500Y1750D02*
X3750Y2500D01*
G54D22*
X5025Y2500D02*
X5025Y1750D01*
X5025Y1750D02*
X5025Y1775D01*
X5025Y1775D02*
X5050Y1750D01*
G54D23*
X5050Y1750D02*
X5500Y1750D01*
X5500Y1750D02*
X6000Y2250D01*
X7000Y1750D02*
X6500Y1750D01*
X6500Y1750D02*
X6000Y2250D01*
G54D22*
X6000Y2250D02*
X6000Y2500D01*
X7000Y2500D02*
X7000Y1750D01*
G54D23*
X7000Y1750D02*
X7500Y1750D01*
X7500Y1750D02*
X8000Y2250D01*
G54D22*
X8000Y2250D02*
X8000Y2500D01*
X5025Y2500D02*
X5750Y2500D01*
G54D23*
X5750Y2500D02*
X6000Y2500D01*
X6000Y2500D02*
X6250Y2500D01*
G54D22*
X1750Y2500D02*
X975Y2500D01*
G54D23*
X1750Y2500D02*
X2000Y2500D01*
X2000Y2500D02*
X3750Y2500D01*
X3750Y2500D02*
X4000Y2500D01*
X4000Y2500D02*
X4250Y2500D01*
G54D22*
X6250Y2500D02*
X7000Y2500D01*
X5025Y2500D02*
X4250Y2500D01*
X975Y2500D02*
X500Y2500D01*
G54D23*
X7000Y2500D02*
X8000Y2500D01*
G54D22*
X14346Y30004D02*
X13754Y30004D01*
X13500Y29500D02*
X15500Y27500D01*
X13500Y29750D02*
X13500Y29500D01*
X13754Y30004D02*
X13500Y29750D01*
X15500Y27500D02*
X20750Y27500D01*
X20750Y27500D02*
X21750Y26500D01*
X21750Y26500D02*
X21750Y23250D01*
X21750Y23250D02*
X21750Y23415D01*
X25750Y48000D02*
X29419Y48000D01*
X22250Y23415D02*
X22250Y27500D01*
X29419Y48000D02*
X29482Y48063D01*
X9500Y54000D02*
X9894Y54394D01*
X10145Y54394D02*
X9894Y54394D01*
X21250Y18000D02*
X21250Y21585D01*
X20750Y17500D02*
X16500Y17500D01*
X21250Y18000D02*
X20750Y17500D01*
X22750Y23415D02*
X22750Y24500D01*
X33089Y23660D02*
X33696Y23660D01*
X31750Y25000D02*
X33089Y23660D01*
X23250Y25000D02*
X31750Y25000D01*
X22750Y24500D02*
X23250Y25000D01*
X31879Y5533D02*
X32283Y5533D01*
X32283Y5533D02*
X32750Y6000D01*
X22750Y16000D02*
X22750Y21585D01*
X22250Y21585D02*
X22250Y17500D01*
X22250Y17500D02*
X21250Y16500D01*
X21250Y16500D02*
X15750Y16500D01*
X15750Y16500D02*
X14250Y18000D01*
X14250Y18000D02*
X14250Y22000D01*
X14250Y22000D02*
X12696Y23553D01*
X12696Y23553D02*
X10470Y23553D01*
X975Y56500D02*
X500Y56500D01*
X41025Y56500D02*
X41500Y56500D01*
X975Y3500D02*
X500Y3500D01*
X41025Y3500D02*
X41500Y3500D01*
X7500Y26000D02*
X12250Y26000D01*
X12250Y26000D02*
X13500Y26000D01*
X13500Y26000D02*
X16704Y22796D01*
X18250Y22796D02*
X16704Y22796D01*
X7000Y3500D02*
X9000Y3500D01*
X9000Y3500D02*
X10000Y4500D01*
X10000Y4500D02*
X16250Y4500D01*
X16250Y4500D02*
X17250Y3500D01*
X17250Y3500D02*
X35000Y3500D01*
X7000Y56500D02*
X24750Y56500D01*
X24750Y56500D02*
X25750Y55500D01*
X25750Y55500D02*
X32250Y55500D01*
X32250Y55500D02*
X33250Y56500D01*
X33250Y56500D02*
X35000Y56500D01*
X18250Y22796D02*
X19046Y22796D01*
X19046Y22796D02*
X19250Y23000D01*
X19250Y23000D02*
X19250Y23500D01*
X19250Y23500D02*
X19250Y23415D01*
X975Y56500D02*
X5025Y56500D01*
X5025Y56500D02*
X7000Y56500D01*
X975Y3500D02*
X5025Y3500D01*
X5025Y3500D02*
X7000Y3500D01*
X35000Y3500D02*
X36975Y3500D01*
X41025Y3500D02*
X36975Y3500D01*
X41025Y56500D02*
X36975Y56500D01*
X36975Y56500D02*
X35000Y56500D01*
G54D24*
X27543Y57000D02*
X26500Y57000D01*
X26000Y57500D02*
X25750Y57500D01*
X26500Y57000D02*
X26000Y57500D01*
X14456Y3000D02*
X15500Y3000D01*
X16000Y2500D02*
X16750Y2500D01*
X15500Y3000D02*
X16000Y2500D01*
G54D22*
X37000Y3000D02*
X36500Y3000D01*
X36500Y3000D02*
X36000Y2500D01*
X36975Y2500D02*
X36975Y2975D01*
X36975Y2975D02*
X37000Y3000D01*
X37000Y3000D02*
X37500Y3000D01*
X37500Y3000D02*
X38000Y2500D01*
X41025Y2500D02*
X41025Y2975D01*
X41025Y2975D02*
X41000Y3000D01*
X41000Y3000D02*
X40500Y3000D01*
X40500Y3000D02*
X39875Y2375D01*
X5000Y57000D02*
X4500Y57000D01*
X4500Y57000D02*
X4000Y57500D01*
X5025Y57500D02*
X5000Y57475D01*
X5000Y57475D02*
X5000Y57000D01*
X5000Y57000D02*
X5500Y57000D01*
X5500Y57000D02*
X6000Y57500D01*
X975Y57500D02*
X1000Y57475D01*
X1000Y57475D02*
X1000Y57000D01*
X1000Y57000D02*
X1500Y57000D01*
X1500Y57000D02*
X1750Y57000D01*
X1750Y57000D02*
X2250Y57500D01*
G54D23*
X35000Y1750D02*
X34500Y1750D01*
X34500Y1750D02*
X34250Y2000D01*
X34250Y2000D02*
X34250Y2500D01*
G54D22*
X35000Y2500D02*
X35000Y1750D01*
G54D23*
X35000Y1750D02*
X35500Y1750D01*
X35500Y1750D02*
X36000Y2250D01*
G54D22*
X36000Y2250D02*
X36000Y2500D01*
G54D23*
X37000Y1750D02*
X36500Y1750D01*
X36500Y1750D02*
X36000Y2250D01*
G54D22*
X36000Y2250D02*
X36000Y2500D01*
X36975Y2500D02*
X36975Y1775D01*
X36975Y1775D02*
X37000Y1750D01*
G54D23*
X37000Y1750D02*
X37500Y1750D01*
X37500Y1750D02*
X38000Y2250D01*
G54D22*
X38000Y2250D02*
X38000Y2500D01*
X41025Y2500D02*
X41025Y1775D01*
X41025Y1775D02*
X41000Y1750D01*
G54D23*
X41000Y1750D02*
X40500Y1750D01*
X40500Y1750D02*
X39875Y2375D01*
X39875Y2375D02*
X39750Y2500D01*
X7000Y58250D02*
X7500Y58250D01*
X7500Y58250D02*
X8000Y57750D01*
G54D22*
X8000Y57750D02*
X8000Y57500D01*
X7000Y57500D02*
X7000Y58250D01*
G54D23*
X7000Y58250D02*
X6500Y58250D01*
X6500Y58250D02*
X6000Y57750D01*
G54D22*
X6000Y57750D02*
X6000Y57500D01*
G54D23*
X5000Y58250D02*
X5500Y58250D01*
X5500Y58250D02*
X6000Y57750D01*
G54D22*
X6000Y57750D02*
X6000Y57500D01*
X5025Y57500D02*
X5000Y57525D01*
X5000Y57525D02*
X5000Y58250D01*
G54D23*
X5000Y58250D02*
X4500Y58250D01*
X4500Y58250D02*
X3750Y57500D01*
G54D22*
X975Y57500D02*
X1000Y57525D01*
G54D23*
X1500Y58250D02*
X2250Y57500D01*
X1000Y58250D02*
X1500Y58250D01*
G54D22*
X1000Y57525D02*
X1000Y58250D01*
G54D23*
X5750Y57500D02*
X6000Y57500D01*
X6000Y57500D02*
X6250Y57500D01*
G54D22*
X6250Y57500D02*
X7000Y57500D01*
X5025Y57500D02*
X5750Y57500D01*
G54D23*
X36250Y2500D02*
X36000Y2500D01*
X36000Y2500D02*
X35750Y2500D01*
G54D22*
X36975Y2500D02*
X36250Y2500D01*
X35750Y2500D02*
X35000Y2500D01*
X36975Y2500D02*
X37750Y2500D01*
X40250Y2500D02*
X41025Y2500D01*
G54D23*
X37750Y2500D02*
X38000Y2500D01*
X38000Y2500D02*
X39750Y2500D01*
X39750Y2500D02*
X40250Y2500D01*
G54D22*
X975Y57500D02*
X1750Y57500D01*
X4250Y57500D02*
X5025Y57500D01*
G54D23*
X1750Y57500D02*
X2250Y57500D01*
X2250Y57500D02*
X3750Y57500D01*
X3750Y57500D02*
X4000Y57500D01*
X4000Y57500D02*
X4250Y57500D01*
G54D22*
X975Y57500D02*
X500Y57500D01*
X41025Y2500D02*
X41500Y2500D01*
X37251Y11983D02*
X37766Y11983D01*
X38000Y11750D02*
X37251Y11001D01*
X37766Y11983D02*
X38000Y11750D01*
G54D23*
X35000Y2500D02*
X34250Y2500D01*
G54D24*
X34250Y2500D02*
X16750Y2500D01*
G54D22*
X7000Y57500D02*
X8000Y57500D01*
G54D24*
X8000Y57500D02*
X25750Y57500D01*
G54D23*
X8127Y30000D02*
X9125Y30000D01*
G54D22*
X9750Y11750D02*
X9555Y11944D01*
X9555Y11944D02*
X4427Y11944D01*
X11033Y11877D02*
X9877Y11877D01*
X9877Y11877D02*
X9750Y11750D01*
X18571Y5533D02*
X18538Y5500D01*
X16750Y5500D02*
X18538Y5500D01*
X25644Y54394D02*
X23452Y54394D01*
X25750Y54500D02*
X25644Y54394D01*
X27654Y30004D02*
X29745Y30004D01*
G54D23*
X29745Y30004D02*
X29750Y30000D01*
G54D22*
X36500Y10250D02*
X37251Y11001D01*
X36500Y10250D02*
X36000Y10250D01*
G54D23*
X34500Y36500D02*
X34432Y36432D01*
G54D22*
X34432Y36432D02*
X33029Y36432D01*
X8383Y36250D02*
X8307Y36326D01*
X10250Y36250D02*
X8383Y36250D01*
G54D23*
X4495Y11877D02*
X4427Y11944D01*
G54D10*
G36*
X19807Y25746D02*
X19800Y25746D01*
X19800Y25738D01*
X19700Y25738D01*
X19700Y25746D01*
X19365Y25746D01*
X19303Y25683D01*
X19302Y25569D01*
X19331Y25499D01*
X19303Y25430D01*
X19302Y25331D01*
X19302Y24977D01*
X19340Y24885D01*
X19375Y24851D01*
X19375Y24134D01*
X19300Y24135D01*
X19100Y24135D01*
X19008Y24097D01*
X18938Y24026D01*
X18900Y23934D01*
X18899Y23835D01*
X18899Y23625D01*
X18875Y23500D01*
X18875Y23415D01*
X18875Y23171D01*
X18602Y23171D01*
X18588Y23184D01*
X18496Y23222D01*
X18397Y23223D01*
X18003Y23223D01*
X17911Y23185D01*
X17897Y23171D01*
X16859Y23171D01*
X13830Y26200D01*
X19447Y26200D01*
X19411Y26184D01*
X19340Y26114D01*
X19302Y26022D01*
X19303Y25908D01*
X19365Y25846D01*
X19700Y25846D01*
X19700Y25853D01*
X19800Y25853D01*
X19800Y25846D01*
X19807Y25846D01*
X19807Y25746D01*
X19807Y25746D01*
G37*
X19807Y25746D02*
X19800Y25746D01*
X19800Y25738D01*
X19700Y25738D01*
X19700Y25746D01*
X19365Y25746D01*
X19303Y25683D01*
X19302Y25569D01*
X19331Y25499D01*
X19303Y25430D01*
X19302Y25331D01*
X19302Y24977D01*
X19340Y24885D01*
X19375Y24851D01*
X19375Y24134D01*
X19300Y24135D01*
X19100Y24135D01*
X19008Y24097D01*
X18938Y24026D01*
X18900Y23934D01*
X18899Y23835D01*
X18899Y23625D01*
X18875Y23500D01*
X18875Y23415D01*
X18875Y23171D01*
X18602Y23171D01*
X18588Y23184D01*
X18496Y23222D01*
X18397Y23223D01*
X18003Y23223D01*
X17911Y23185D01*
X17897Y23171D01*
X16859Y23171D01*
X13830Y26200D01*
X19447Y26200D01*
X19411Y26184D01*
X19340Y26114D01*
X19302Y26022D01*
X19303Y25908D01*
X19365Y25846D01*
X19700Y25846D01*
X19700Y25853D01*
X19800Y25853D01*
X19800Y25846D01*
X19807Y25846D01*
X19807Y25746D01*
G36*
X41730Y8788D02*
X41650Y8842D01*
X41650Y9250D01*
X41650Y9749D01*
X41650Y50250D01*
X41650Y50749D01*
X41612Y50841D01*
X41541Y50911D01*
X41449Y50949D01*
X41350Y50950D01*
X41137Y50950D01*
X41075Y50887D01*
X41075Y50550D01*
X41587Y50550D01*
X41650Y50612D01*
X41650Y50749D01*
X41650Y50250D01*
X41650Y50387D01*
X41587Y50450D01*
X41075Y50450D01*
X41075Y50112D01*
X41137Y50050D01*
X41350Y50049D01*
X41449Y50050D01*
X41541Y50088D01*
X41612Y50158D01*
X41650Y50250D01*
X41650Y9749D01*
X41612Y9841D01*
X41541Y9911D01*
X41449Y9949D01*
X41350Y9950D01*
X41137Y9950D01*
X41075Y9887D01*
X41075Y9550D01*
X41587Y9550D01*
X41650Y9612D01*
X41650Y9749D01*
X41650Y9250D01*
X41650Y9387D01*
X41587Y9450D01*
X41075Y9450D01*
X41075Y9112D01*
X41137Y9050D01*
X41350Y9049D01*
X41449Y9050D01*
X41541Y9088D01*
X41612Y9158D01*
X41650Y9250D01*
X41650Y8842D01*
X41643Y8846D01*
X41598Y8855D01*
X41541Y8911D01*
X41449Y8949D01*
X41350Y8950D01*
X40975Y8950D01*
X40975Y9112D01*
X40975Y9450D01*
X40975Y9550D01*
X40975Y9887D01*
X40975Y50112D01*
X40975Y50450D01*
X40975Y50550D01*
X40975Y50887D01*
X40912Y50950D01*
X40699Y50950D01*
X40600Y50949D01*
X40508Y50911D01*
X40437Y50841D01*
X40399Y50749D01*
X40400Y50612D01*
X40462Y50550D01*
X40975Y50550D01*
X40975Y50450D01*
X40462Y50450D01*
X40400Y50387D01*
X40399Y50250D01*
X40437Y50158D01*
X40508Y50088D01*
X40600Y50050D01*
X40699Y50049D01*
X40912Y50050D01*
X40975Y50112D01*
X40975Y9887D01*
X40912Y9950D01*
X40699Y9950D01*
X40690Y9950D01*
X40690Y15318D01*
X40690Y45318D01*
X40439Y45940D01*
X40420Y45970D01*
X40206Y46136D01*
X40136Y46065D01*
X40136Y46206D01*
X39970Y46420D01*
X39352Y46683D01*
X38681Y46690D01*
X38059Y46439D01*
X38029Y46420D01*
X37863Y46206D01*
X39000Y45070D01*
X40136Y46206D01*
X40136Y46065D01*
X39070Y45000D01*
X40206Y43863D01*
X40420Y44029D01*
X40683Y44647D01*
X40690Y45318D01*
X40690Y15318D01*
X40439Y15940D01*
X40420Y15970D01*
X40206Y16136D01*
X40136Y16065D01*
X40136Y16206D01*
X40136Y43793D01*
X39000Y44929D01*
X38929Y44858D01*
X38929Y45000D01*
X37793Y46136D01*
X37600Y45986D01*
X37600Y50250D01*
X37600Y50749D01*
X37562Y50841D01*
X37491Y50911D01*
X37399Y50949D01*
X37300Y50950D01*
X37087Y50950D01*
X37025Y50887D01*
X37025Y50550D01*
X37537Y50550D01*
X37600Y50612D01*
X37600Y50749D01*
X37600Y50250D01*
X37600Y50387D01*
X37537Y50450D01*
X37025Y50450D01*
X37025Y50112D01*
X37087Y50050D01*
X37300Y50049D01*
X37399Y50050D01*
X37491Y50088D01*
X37562Y50158D01*
X37600Y50250D01*
X37600Y45986D01*
X37579Y45970D01*
X37316Y45352D01*
X37309Y44681D01*
X37560Y44059D01*
X37579Y44029D01*
X37793Y43863D01*
X38929Y45000D01*
X38929Y44858D01*
X37863Y43793D01*
X38029Y43579D01*
X38647Y43316D01*
X39318Y43309D01*
X39940Y43560D01*
X39970Y43579D01*
X40136Y43793D01*
X40136Y16206D01*
X39970Y16420D01*
X39352Y16683D01*
X38681Y16690D01*
X38059Y16439D01*
X38029Y16420D01*
X37863Y16206D01*
X39000Y15070D01*
X40136Y16206D01*
X40136Y16065D01*
X39070Y15000D01*
X40206Y13863D01*
X40420Y14029D01*
X40683Y14647D01*
X40690Y15318D01*
X40690Y9950D01*
X40600Y9949D01*
X40508Y9911D01*
X40437Y9841D01*
X40399Y9749D01*
X40400Y9612D01*
X40462Y9550D01*
X40975Y9550D01*
X40975Y9450D01*
X40462Y9450D01*
X40400Y9387D01*
X40399Y9250D01*
X40437Y9158D01*
X40508Y9088D01*
X40600Y9050D01*
X40699Y9049D01*
X40912Y9050D01*
X40975Y9112D01*
X40975Y8950D01*
X40600Y8950D01*
X40508Y8912D01*
X40471Y8875D01*
X40136Y8875D01*
X40136Y13793D01*
X39000Y14929D01*
X38929Y14858D01*
X38929Y15000D01*
X37793Y16136D01*
X37579Y15970D01*
X37371Y15481D01*
X37374Y15500D01*
X37375Y15500D01*
X37375Y17500D01*
X37374Y17500D01*
X37346Y17643D01*
X37297Y17716D01*
X37265Y17765D01*
X37265Y17765D01*
X36943Y18086D01*
X36925Y18099D01*
X36925Y50112D01*
X36925Y50450D01*
X36925Y50550D01*
X36925Y50887D01*
X36862Y50950D01*
X36649Y50950D01*
X36550Y50949D01*
X36458Y50911D01*
X36387Y50841D01*
X36349Y50749D01*
X36350Y50612D01*
X36412Y50550D01*
X36925Y50550D01*
X36925Y50450D01*
X36412Y50450D01*
X36350Y50387D01*
X36349Y50250D01*
X36387Y50158D01*
X36458Y50088D01*
X36550Y50050D01*
X36649Y50049D01*
X36862Y50050D01*
X36925Y50112D01*
X36925Y18099D01*
X36821Y18168D01*
X36727Y18186D01*
X36690Y18278D01*
X36619Y18348D01*
X36527Y18386D01*
X36428Y18386D01*
X36034Y18386D01*
X35950Y18512D01*
X35731Y18658D01*
X35474Y18709D01*
X35216Y18658D01*
X34997Y18512D01*
X34914Y18386D01*
X34420Y18386D01*
X34328Y18348D01*
X34258Y18278D01*
X34256Y18273D01*
X34125Y18405D01*
X34125Y18844D01*
X35457Y20177D01*
X36515Y21234D01*
X36515Y21234D01*
X36596Y21356D01*
X36624Y21499D01*
X36625Y21500D01*
X36625Y23250D01*
X36624Y23250D01*
X36596Y23393D01*
X36547Y23466D01*
X36515Y23515D01*
X36515Y23515D01*
X36475Y23555D01*
X36475Y33094D01*
X36402Y33268D01*
X36269Y33402D01*
X36094Y33474D01*
X35905Y33475D01*
X35731Y33402D01*
X35628Y33300D01*
X35554Y33300D01*
X35554Y50418D01*
X35543Y50636D01*
X35481Y50787D01*
X35385Y50815D01*
X35070Y50500D01*
X35385Y50184D01*
X35481Y50212D01*
X35554Y50418D01*
X35554Y33300D01*
X35315Y33300D01*
X35315Y50114D01*
X35000Y50429D01*
X34929Y50358D01*
X34929Y50500D01*
X34614Y50815D01*
X34518Y50787D01*
X34445Y50581D01*
X34456Y50363D01*
X34518Y50212D01*
X34614Y50184D01*
X34929Y50500D01*
X34929Y50358D01*
X34684Y50114D01*
X34712Y50018D01*
X34918Y49945D01*
X35136Y49956D01*
X35287Y50018D01*
X35315Y50114D01*
X35315Y33300D01*
X35000Y33300D01*
X35000Y36500D01*
X34961Y36691D01*
X34853Y36853D01*
X34691Y36961D01*
X34500Y37000D01*
X34308Y36961D01*
X34146Y36853D01*
X34100Y36807D01*
X33531Y36807D01*
X33497Y36888D01*
X33427Y36959D01*
X33335Y36997D01*
X33236Y36997D01*
X32841Y36997D01*
X32758Y37122D01*
X32539Y37268D01*
X32281Y37319D01*
X32023Y37268D01*
X31805Y37122D01*
X31721Y36997D01*
X31228Y36997D01*
X31136Y36959D01*
X31125Y36947D01*
X31125Y38094D01*
X31798Y38768D01*
X31798Y38768D01*
X31798Y38768D01*
X32269Y39239D01*
X33015Y39984D01*
X33096Y40106D01*
X33125Y40250D01*
X33125Y42000D01*
X33124Y42000D01*
X33096Y42143D01*
X33047Y42216D01*
X33015Y42265D01*
X33015Y42265D01*
X32767Y42513D01*
X32645Y42594D01*
X32506Y42622D01*
X32472Y42704D01*
X32402Y42774D01*
X32310Y42812D01*
X32210Y42812D01*
X31816Y42812D01*
X31732Y42938D01*
X31514Y43084D01*
X31256Y43135D01*
X30998Y43084D01*
X30779Y42938D01*
X30696Y42812D01*
X30202Y42812D01*
X30125Y42780D01*
X30125Y43844D01*
X31244Y44963D01*
X31244Y44963D01*
X31244Y44963D01*
X32015Y45734D01*
X32015Y45734D01*
X32047Y45783D01*
X32096Y45856D01*
X32096Y45856D01*
X32124Y45999D01*
X32125Y46000D01*
X32125Y47750D01*
X32096Y47893D01*
X32015Y48015D01*
X31701Y48328D01*
X31580Y48409D01*
X31484Y48428D01*
X31446Y48519D01*
X31376Y48590D01*
X31284Y48628D01*
X31185Y48628D01*
X30790Y48628D01*
X30707Y48753D01*
X30488Y48899D01*
X30230Y48951D01*
X29973Y48899D01*
X29754Y48753D01*
X29670Y48628D01*
X29177Y48628D01*
X29085Y48590D01*
X29015Y48520D01*
X28976Y48428D01*
X28976Y48375D01*
X26046Y48375D01*
X26019Y48402D01*
X25844Y48474D01*
X25655Y48475D01*
X25481Y48402D01*
X25347Y48269D01*
X25275Y48094D01*
X25274Y47905D01*
X25347Y47731D01*
X25480Y47597D01*
X25655Y47525D01*
X25844Y47524D01*
X26018Y47597D01*
X26046Y47625D01*
X29007Y47625D01*
X29014Y47607D01*
X29085Y47536D01*
X29177Y47498D01*
X29276Y47498D01*
X29670Y47498D01*
X29754Y47373D01*
X29973Y47227D01*
X30230Y47175D01*
X30488Y47227D01*
X30707Y47373D01*
X30790Y47498D01*
X31284Y47498D01*
X31375Y47535D01*
X31375Y46155D01*
X30713Y45494D01*
X30713Y45494D01*
X29484Y44265D01*
X29403Y44143D01*
X29375Y44000D01*
X29375Y42500D01*
X29403Y42356D01*
X29484Y42234D01*
X29736Y41982D01*
X29858Y41901D01*
X30002Y41872D01*
X30006Y41872D01*
X30040Y41791D01*
X30110Y41721D01*
X30202Y41682D01*
X30301Y41682D01*
X30696Y41682D01*
X30779Y41557D01*
X30998Y41411D01*
X31256Y41360D01*
X31514Y41411D01*
X31732Y41557D01*
X31816Y41682D01*
X32309Y41682D01*
X32375Y41709D01*
X32375Y40405D01*
X31739Y39769D01*
X31268Y39298D01*
X31268Y39298D01*
X30484Y38515D01*
X30403Y38393D01*
X30375Y38250D01*
X30375Y36750D01*
X30403Y36606D01*
X30484Y36484D01*
X30802Y36167D01*
X30802Y36167D01*
X30924Y36085D01*
X31028Y36064D01*
X31028Y36064D01*
X31065Y35975D01*
X31136Y35905D01*
X31227Y35867D01*
X31327Y35867D01*
X31721Y35867D01*
X31805Y35741D01*
X32023Y35595D01*
X32281Y35544D01*
X32539Y35595D01*
X32758Y35741D01*
X32841Y35867D01*
X33335Y35867D01*
X33427Y35905D01*
X33497Y35975D01*
X33531Y36057D01*
X34110Y36057D01*
X34240Y35970D01*
X34432Y35932D01*
X34623Y35970D01*
X34785Y36078D01*
X34853Y36146D01*
X34961Y36308D01*
X35000Y36500D01*
X35000Y33300D01*
X13225Y33300D01*
X13225Y49094D01*
X13152Y49268D01*
X13019Y49402D01*
X12844Y49474D01*
X12655Y49475D01*
X12481Y49402D01*
X12453Y49375D01*
X7550Y49375D01*
X7550Y50150D01*
X7550Y50387D01*
X7487Y50450D01*
X7050Y50450D01*
X7050Y50012D01*
X7112Y49950D01*
X7250Y49949D01*
X7349Y49950D01*
X7441Y49988D01*
X7512Y50058D01*
X7550Y50150D01*
X7550Y49375D01*
X6950Y49375D01*
X6950Y50012D01*
X6950Y50450D01*
X6512Y50450D01*
X6450Y50387D01*
X6449Y50150D01*
X6487Y50058D01*
X6558Y49988D01*
X6650Y49950D01*
X6749Y49949D01*
X6887Y49950D01*
X6950Y50012D01*
X6950Y49375D01*
X5650Y49375D01*
X5650Y50250D01*
X5650Y50749D01*
X5612Y50841D01*
X5541Y50911D01*
X5449Y50949D01*
X5350Y50950D01*
X5137Y50950D01*
X5075Y50887D01*
X5075Y50550D01*
X5587Y50550D01*
X5650Y50612D01*
X5650Y50749D01*
X5650Y50250D01*
X5650Y50387D01*
X5587Y50450D01*
X5075Y50450D01*
X5075Y50112D01*
X5137Y50050D01*
X5350Y50049D01*
X5449Y50050D01*
X5541Y50088D01*
X5612Y50158D01*
X5650Y50250D01*
X5650Y49375D01*
X5250Y49375D01*
X4975Y49375D01*
X4975Y50112D01*
X4975Y50450D01*
X4975Y50550D01*
X4975Y50887D01*
X4912Y50950D01*
X4699Y50950D01*
X4600Y50949D01*
X4508Y50911D01*
X4437Y50841D01*
X4399Y50749D01*
X4400Y50612D01*
X4462Y50550D01*
X4975Y50550D01*
X4975Y50450D01*
X4462Y50450D01*
X4400Y50387D01*
X4399Y50250D01*
X4437Y50158D01*
X4508Y50088D01*
X4600Y50050D01*
X4699Y50049D01*
X4912Y50050D01*
X4975Y50112D01*
X4975Y49375D01*
X4500Y49375D01*
X4356Y49346D01*
X4234Y49265D01*
X3734Y48765D01*
X3653Y48643D01*
X3625Y48500D01*
X3625Y48250D01*
X3653Y48106D01*
X3734Y47984D01*
X4027Y47692D01*
X4027Y47692D01*
X4149Y47610D01*
X4255Y47589D01*
X4255Y47589D01*
X4292Y47500D01*
X4362Y47430D01*
X4454Y47392D01*
X4554Y47392D01*
X4948Y47392D01*
X5032Y47266D01*
X5250Y47120D01*
X5508Y47069D01*
X5766Y47120D01*
X5984Y47266D01*
X6068Y47392D01*
X6562Y47392D01*
X6653Y47430D01*
X6721Y47497D01*
X6875Y47344D01*
X6875Y46155D01*
X5991Y45271D01*
X4734Y44015D01*
X4690Y43948D01*
X4690Y45318D01*
X4439Y45940D01*
X4420Y45970D01*
X4206Y46136D01*
X4136Y46065D01*
X4136Y46206D01*
X3970Y46420D01*
X3352Y46683D01*
X2681Y46690D01*
X2059Y46439D01*
X2029Y46420D01*
X1863Y46206D01*
X3000Y45070D01*
X4136Y46206D01*
X4136Y46065D01*
X3070Y45000D01*
X4206Y43863D01*
X4420Y44029D01*
X4683Y44647D01*
X4690Y45318D01*
X4690Y43948D01*
X4653Y43893D01*
X4625Y43750D01*
X4625Y42500D01*
X4653Y42356D01*
X4734Y42234D01*
X5093Y41876D01*
X5093Y41876D01*
X5214Y41795D01*
X5280Y41782D01*
X5280Y41777D01*
X5318Y41685D01*
X5388Y41614D01*
X5480Y41576D01*
X5579Y41576D01*
X5973Y41576D01*
X6057Y41451D01*
X6276Y41305D01*
X6534Y41254D01*
X6791Y41305D01*
X7010Y41451D01*
X7094Y41576D01*
X7587Y41576D01*
X7679Y41614D01*
X7749Y41684D01*
X7760Y41709D01*
X7875Y41594D01*
X7875Y40405D01*
X7734Y40265D01*
X7734Y40265D01*
X7016Y39547D01*
X7016Y39547D01*
X5984Y38515D01*
X5903Y38393D01*
X5875Y38250D01*
X5875Y36500D01*
X5903Y36356D01*
X5984Y36234D01*
X6158Y36060D01*
X6158Y36060D01*
X6280Y35979D01*
X6305Y35974D01*
X6305Y35961D01*
X6343Y35869D01*
X6413Y35799D01*
X6505Y35761D01*
X6605Y35761D01*
X6999Y35761D01*
X7083Y35635D01*
X7301Y35489D01*
X7559Y35438D01*
X7817Y35489D01*
X8035Y35635D01*
X8119Y35761D01*
X8612Y35761D01*
X8704Y35799D01*
X8775Y35869D01*
X8777Y35875D01*
X9953Y35875D01*
X9980Y35847D01*
X10155Y35775D01*
X10344Y35774D01*
X10518Y35847D01*
X10652Y35980D01*
X10724Y36155D01*
X10725Y36344D01*
X10652Y36518D01*
X10519Y36652D01*
X10344Y36724D01*
X10155Y36725D01*
X9981Y36652D01*
X9953Y36625D01*
X8813Y36625D01*
X8813Y36690D01*
X8775Y36782D01*
X8705Y36852D01*
X8613Y36891D01*
X8513Y36891D01*
X8119Y36891D01*
X8035Y37016D01*
X7817Y37162D01*
X7559Y37213D01*
X7301Y37162D01*
X7083Y37016D01*
X6999Y36891D01*
X6625Y36891D01*
X6625Y38094D01*
X7547Y39016D01*
X7547Y39016D01*
X7547Y39016D01*
X8265Y39734D01*
X8265Y39734D01*
X8265Y39734D01*
X8515Y39984D01*
X8515Y39984D01*
X8596Y40106D01*
X8624Y40250D01*
X8625Y40250D01*
X8625Y41750D01*
X8596Y41893D01*
X8515Y42015D01*
X8123Y42406D01*
X8001Y42488D01*
X7858Y42516D01*
X7783Y42516D01*
X7750Y42598D01*
X7679Y42668D01*
X7587Y42706D01*
X7488Y42706D01*
X7094Y42706D01*
X7010Y42831D01*
X6791Y42978D01*
X6534Y43029D01*
X6276Y42978D01*
X6057Y42831D01*
X5973Y42706D01*
X5480Y42706D01*
X5388Y42668D01*
X5375Y42655D01*
X5375Y42655D01*
X5375Y43594D01*
X6521Y44741D01*
X7515Y45734D01*
X7596Y45856D01*
X7624Y46000D01*
X7625Y46000D01*
X7625Y47500D01*
X7596Y47643D01*
X7515Y47765D01*
X7057Y48222D01*
X6936Y48303D01*
X6792Y48332D01*
X6758Y48332D01*
X6724Y48413D01*
X6654Y48484D01*
X6562Y48522D01*
X6462Y48522D01*
X6068Y48522D01*
X6000Y48625D01*
X12453Y48625D01*
X12480Y48597D01*
X12655Y48525D01*
X12844Y48524D01*
X13018Y48597D01*
X13152Y48730D01*
X13224Y48905D01*
X13225Y49094D01*
X13225Y33300D01*
X6371Y33300D01*
X6269Y33402D01*
X6094Y33474D01*
X5905Y33475D01*
X5731Y33402D01*
X5597Y33269D01*
X5525Y33094D01*
X5524Y32905D01*
X5597Y32731D01*
X5730Y32597D01*
X5905Y32525D01*
X6094Y32524D01*
X6268Y32597D01*
X6371Y32700D01*
X35628Y32700D01*
X35730Y32597D01*
X35905Y32525D01*
X36094Y32524D01*
X36268Y32597D01*
X36402Y32730D01*
X36474Y32905D01*
X36475Y33094D01*
X36475Y23555D01*
X36105Y23925D01*
X35983Y24006D01*
X35839Y24035D01*
X35694Y24035D01*
X35660Y24116D01*
X35590Y24186D01*
X35498Y24224D01*
X35399Y24225D01*
X35004Y24225D01*
X34921Y24350D01*
X34702Y24496D01*
X34444Y24547D01*
X34186Y24496D01*
X33968Y24350D01*
X33884Y24225D01*
X33391Y24225D01*
X33299Y24187D01*
X33228Y24116D01*
X33209Y24070D01*
X32015Y25265D01*
X31893Y25346D01*
X31750Y25375D01*
X23250Y25375D01*
X23106Y25346D01*
X22984Y25265D01*
X22625Y24905D01*
X22625Y27203D01*
X22652Y27230D01*
X22724Y27405D01*
X22725Y27594D01*
X22652Y27768D01*
X22519Y27902D01*
X22344Y27974D01*
X22155Y27975D01*
X21981Y27902D01*
X21847Y27769D01*
X21775Y27594D01*
X21774Y27405D01*
X21847Y27231D01*
X21875Y27203D01*
X21875Y26905D01*
X21015Y27765D01*
X20893Y27846D01*
X20750Y27875D01*
X15655Y27875D01*
X14090Y29439D01*
X14139Y29439D01*
X14534Y29439D01*
X14617Y29314D01*
X14836Y29168D01*
X15094Y29116D01*
X15351Y29168D01*
X15570Y29314D01*
X15654Y29439D01*
X16147Y29439D01*
X16239Y29477D01*
X16309Y29547D01*
X16343Y29629D01*
X19750Y29629D01*
X19784Y29548D01*
X19854Y29477D01*
X19946Y29439D01*
X20045Y29439D01*
X20439Y29439D01*
X20523Y29314D01*
X20742Y29168D01*
X21000Y29116D01*
X21257Y29168D01*
X21476Y29314D01*
X21560Y29439D01*
X22053Y29439D01*
X22145Y29477D01*
X22215Y29547D01*
X22249Y29629D01*
X25656Y29629D01*
X25690Y29548D01*
X25760Y29477D01*
X25852Y29439D01*
X25951Y29439D01*
X26345Y29439D01*
X26429Y29314D01*
X26648Y29168D01*
X26906Y29116D01*
X27163Y29168D01*
X27382Y29314D01*
X27466Y29439D01*
X27959Y29439D01*
X28051Y29477D01*
X28121Y29547D01*
X28155Y29629D01*
X29421Y29629D01*
X29558Y29538D01*
X29750Y29500D01*
X29941Y29538D01*
X30103Y29646D01*
X30211Y29808D01*
X30250Y30000D01*
X30211Y30191D01*
X30103Y30353D01*
X30099Y30357D01*
X29936Y30466D01*
X29745Y30504D01*
X29554Y30466D01*
X29424Y30379D01*
X28155Y30379D01*
X28122Y30460D01*
X28051Y30531D01*
X27959Y30569D01*
X27860Y30569D01*
X27466Y30569D01*
X27382Y30694D01*
X27163Y30840D01*
X26906Y30892D01*
X26648Y30840D01*
X26429Y30694D01*
X26345Y30569D01*
X25852Y30569D01*
X25760Y30531D01*
X25690Y30461D01*
X25656Y30379D01*
X22249Y30379D01*
X22216Y30460D01*
X22145Y30531D01*
X22053Y30569D01*
X21954Y30569D01*
X21560Y30569D01*
X21476Y30694D01*
X21257Y30840D01*
X21000Y30892D01*
X20742Y30840D01*
X20523Y30694D01*
X20439Y30569D01*
X19946Y30569D01*
X19854Y30531D01*
X19784Y30461D01*
X19750Y30379D01*
X16343Y30379D01*
X16310Y30460D01*
X16239Y30531D01*
X16147Y30569D01*
X16048Y30569D01*
X15654Y30569D01*
X15570Y30694D01*
X15351Y30840D01*
X15094Y30892D01*
X14836Y30840D01*
X14617Y30694D01*
X14534Y30569D01*
X14040Y30569D01*
X13948Y30531D01*
X13878Y30461D01*
X13844Y30379D01*
X13754Y30379D01*
X13610Y30350D01*
X13489Y30269D01*
X13234Y30015D01*
X13153Y29893D01*
X13125Y29750D01*
X13125Y29500D01*
X13153Y29356D01*
X13234Y29234D01*
X15094Y27375D01*
X10381Y27375D01*
X10381Y29754D01*
X10381Y30245D01*
X10380Y30344D01*
X10342Y30436D01*
X10272Y30507D01*
X10180Y30545D01*
X9987Y30545D01*
X9925Y30482D01*
X9925Y30050D01*
X10318Y30050D01*
X10381Y30112D01*
X10381Y30245D01*
X10381Y29754D01*
X10381Y29887D01*
X10318Y29950D01*
X9925Y29950D01*
X9925Y29517D01*
X9987Y29455D01*
X10180Y29454D01*
X10272Y29492D01*
X10342Y29563D01*
X10380Y29655D01*
X10381Y29754D01*
X10381Y27375D01*
X9825Y27375D01*
X9825Y29517D01*
X9825Y29950D01*
X9817Y29950D01*
X9817Y30050D01*
X9825Y30050D01*
X9825Y30482D01*
X9762Y30545D01*
X9569Y30545D01*
X9499Y30516D01*
X9430Y30544D01*
X9331Y30545D01*
X8819Y30545D01*
X8727Y30507D01*
X8720Y30500D01*
X8127Y30500D01*
X7936Y30461D01*
X7773Y30353D01*
X7665Y30191D01*
X7627Y30000D01*
X7665Y29808D01*
X7773Y29646D01*
X7936Y29538D01*
X8127Y29500D01*
X8720Y29500D01*
X8727Y29493D01*
X8819Y29455D01*
X8918Y29454D01*
X9430Y29454D01*
X9500Y29483D01*
X9569Y29454D01*
X9762Y29455D01*
X9825Y29517D01*
X9825Y27375D01*
X6250Y27375D01*
X5296Y27375D01*
X5269Y27402D01*
X5094Y27474D01*
X4905Y27475D01*
X4731Y27402D01*
X4597Y27269D01*
X4525Y27094D01*
X4524Y26905D01*
X4597Y26731D01*
X4730Y26597D01*
X4905Y26525D01*
X5094Y26524D01*
X5268Y26597D01*
X5296Y26625D01*
X6250Y26625D01*
X11287Y26625D01*
X11275Y26594D01*
X11274Y26405D01*
X11287Y26375D01*
X7796Y26375D01*
X7769Y26402D01*
X7594Y26474D01*
X7405Y26475D01*
X7231Y26402D01*
X7097Y26269D01*
X7025Y26094D01*
X7024Y25905D01*
X7097Y25731D01*
X7230Y25597D01*
X7405Y25525D01*
X7594Y25524D01*
X7768Y25597D01*
X7796Y25625D01*
X11953Y25625D01*
X11980Y25597D01*
X12155Y25525D01*
X12344Y25524D01*
X12518Y25597D01*
X12546Y25625D01*
X13344Y25625D01*
X16438Y22530D01*
X16560Y22449D01*
X16704Y22421D01*
X17802Y22421D01*
X17803Y22316D01*
X17865Y22254D01*
X18200Y22254D01*
X18200Y22261D01*
X18300Y22261D01*
X18300Y22254D01*
X18634Y22254D01*
X18697Y22316D01*
X18697Y22421D01*
X19046Y22421D01*
X19189Y22449D01*
X19311Y22530D01*
X19511Y22731D01*
X19600Y22695D01*
X19699Y22694D01*
X19899Y22694D01*
X19991Y22732D01*
X19999Y22741D01*
X20008Y22733D01*
X20100Y22695D01*
X20199Y22694D01*
X20399Y22694D01*
X20491Y22732D01*
X20499Y22741D01*
X20508Y22733D01*
X20600Y22695D01*
X20699Y22694D01*
X20899Y22694D01*
X20991Y22732D01*
X20999Y22741D01*
X21008Y22733D01*
X21100Y22695D01*
X21199Y22694D01*
X21399Y22694D01*
X21491Y22732D01*
X21499Y22741D01*
X21508Y22733D01*
X21600Y22695D01*
X21699Y22694D01*
X21899Y22694D01*
X21991Y22732D01*
X21999Y22741D01*
X22008Y22733D01*
X22100Y22695D01*
X22199Y22694D01*
X22399Y22694D01*
X22491Y22732D01*
X22499Y22741D01*
X22508Y22733D01*
X22600Y22695D01*
X22699Y22694D01*
X22899Y22694D01*
X22991Y22732D01*
X23061Y22803D01*
X23099Y22895D01*
X23100Y22994D01*
X23100Y23289D01*
X23125Y23415D01*
X23125Y24344D01*
X23405Y24625D01*
X31594Y24625D01*
X32824Y23394D01*
X32824Y23394D01*
X32946Y23313D01*
X33089Y23285D01*
X33195Y23285D01*
X33228Y23203D01*
X33298Y23133D01*
X33390Y23095D01*
X33490Y23095D01*
X33884Y23095D01*
X33968Y22969D01*
X34186Y22823D01*
X34444Y22772D01*
X34702Y22823D01*
X34921Y22969D01*
X35004Y23095D01*
X35498Y23095D01*
X35590Y23133D01*
X35660Y23203D01*
X35691Y23278D01*
X35875Y23094D01*
X35875Y21655D01*
X34927Y20707D01*
X33484Y19265D01*
X33403Y19143D01*
X33375Y19000D01*
X33375Y18250D01*
X33403Y18106D01*
X33484Y17984D01*
X33913Y17556D01*
X33913Y17556D01*
X33961Y17524D01*
X34034Y17475D01*
X34178Y17446D01*
X34178Y17446D01*
X34224Y17446D01*
X34258Y17365D01*
X34328Y17295D01*
X34420Y17256D01*
X34519Y17256D01*
X34914Y17256D01*
X34997Y17131D01*
X35216Y16985D01*
X35474Y16934D01*
X35731Y16985D01*
X35950Y17131D01*
X36034Y17256D01*
X36527Y17256D01*
X36619Y17294D01*
X36625Y17300D01*
X36625Y15655D01*
X35956Y14987D01*
X35956Y14987D01*
X34734Y13765D01*
X34653Y13643D01*
X34625Y13500D01*
X34625Y12250D01*
X34653Y12106D01*
X34734Y11984D01*
X35001Y11718D01*
X35122Y11637D01*
X35252Y11611D01*
X35287Y11527D01*
X35357Y11456D01*
X35449Y11418D01*
X35549Y11418D01*
X35943Y11418D01*
X36027Y11293D01*
X36245Y11147D01*
X36503Y11096D01*
X36761Y11147D01*
X36979Y11293D01*
X37063Y11418D01*
X37138Y11418D01*
X36986Y11266D01*
X36344Y10625D01*
X36296Y10625D01*
X36269Y10652D01*
X36094Y10724D01*
X35905Y10725D01*
X35731Y10652D01*
X35597Y10519D01*
X35525Y10344D01*
X35524Y10155D01*
X35597Y9981D01*
X35730Y9847D01*
X35905Y9775D01*
X36094Y9774D01*
X36268Y9847D01*
X36296Y9875D01*
X36421Y9875D01*
X36387Y9841D01*
X36349Y9749D01*
X36350Y9612D01*
X36412Y9550D01*
X36925Y9550D01*
X36925Y9887D01*
X36862Y9950D01*
X36713Y9950D01*
X36765Y9984D01*
X37516Y10736D01*
X38265Y11484D01*
X38265Y11484D01*
X38346Y11606D01*
X38374Y11750D01*
X38375Y11750D01*
X38346Y11893D01*
X38346Y11893D01*
X38265Y12015D01*
X38031Y12248D01*
X37909Y12330D01*
X37766Y12358D01*
X37753Y12358D01*
X37719Y12440D01*
X37649Y12510D01*
X37557Y12548D01*
X37457Y12548D01*
X37063Y12548D01*
X36979Y12673D01*
X36761Y12819D01*
X36503Y12871D01*
X36245Y12819D01*
X36027Y12673D01*
X35943Y12548D01*
X35450Y12548D01*
X35375Y12517D01*
X35375Y13344D01*
X36487Y14456D01*
X36487Y14456D01*
X36487Y14456D01*
X37265Y15234D01*
X37265Y15234D01*
X37316Y15311D01*
X37309Y14681D01*
X37560Y14059D01*
X37579Y14029D01*
X37793Y13863D01*
X38929Y15000D01*
X38929Y14858D01*
X37863Y13793D01*
X38029Y13579D01*
X38647Y13316D01*
X39318Y13309D01*
X39940Y13560D01*
X39970Y13579D01*
X40136Y13793D01*
X40136Y8875D01*
X37600Y8875D01*
X37600Y9250D01*
X37600Y9749D01*
X37562Y9841D01*
X37491Y9911D01*
X37399Y9949D01*
X37300Y9950D01*
X37087Y9950D01*
X37025Y9887D01*
X37025Y9550D01*
X37537Y9550D01*
X37600Y9612D01*
X37600Y9749D01*
X37600Y9250D01*
X37600Y9387D01*
X37537Y9450D01*
X37025Y9450D01*
X37025Y9112D01*
X37087Y9050D01*
X37300Y9049D01*
X37399Y9050D01*
X37491Y9088D01*
X37562Y9158D01*
X37600Y9250D01*
X37600Y8875D01*
X37528Y8875D01*
X37491Y8911D01*
X37399Y8949D01*
X37300Y8950D01*
X36925Y8950D01*
X36925Y9112D01*
X36925Y9450D01*
X36412Y9450D01*
X36350Y9387D01*
X36349Y9250D01*
X36387Y9158D01*
X36458Y9088D01*
X36550Y9050D01*
X36649Y9049D01*
X36862Y9050D01*
X36925Y9112D01*
X36925Y8950D01*
X36550Y8950D01*
X36458Y8912D01*
X36421Y8875D01*
X35402Y8875D01*
X35327Y8950D01*
X35349Y8950D01*
X35441Y8988D01*
X35512Y9058D01*
X35550Y9150D01*
X35550Y9849D01*
X35512Y9941D01*
X35441Y10011D01*
X35349Y10049D01*
X35250Y10050D01*
X35112Y10050D01*
X35050Y9987D01*
X35050Y9550D01*
X35487Y9550D01*
X35550Y9612D01*
X35550Y9849D01*
X35550Y9150D01*
X35550Y9387D01*
X35487Y9450D01*
X35050Y9450D01*
X35050Y9442D01*
X34950Y9442D01*
X34950Y9450D01*
X34950Y9550D01*
X34950Y9987D01*
X34887Y10050D01*
X34749Y10050D01*
X34650Y10049D01*
X34558Y10011D01*
X34487Y9941D01*
X34449Y9849D01*
X34450Y9612D01*
X34512Y9550D01*
X34950Y9550D01*
X34950Y9450D01*
X34512Y9450D01*
X34450Y9387D01*
X34449Y9150D01*
X34487Y9058D01*
X34558Y8988D01*
X34650Y8950D01*
X34672Y8950D01*
X34534Y8811D01*
X34529Y8800D01*
X23225Y8800D01*
X23225Y16094D01*
X23152Y16268D01*
X23125Y16296D01*
X23125Y21585D01*
X23100Y21710D01*
X23100Y22104D01*
X23062Y22196D01*
X22991Y22266D01*
X22899Y22304D01*
X22800Y22305D01*
X22600Y22305D01*
X22508Y22267D01*
X22500Y22258D01*
X22491Y22266D01*
X22399Y22304D01*
X22300Y22305D01*
X22100Y22305D01*
X22008Y22267D01*
X22000Y22258D01*
X21991Y22266D01*
X21899Y22304D01*
X21800Y22305D01*
X21600Y22305D01*
X21508Y22267D01*
X21500Y22258D01*
X21491Y22266D01*
X21399Y22304D01*
X21300Y22305D01*
X21100Y22305D01*
X21008Y22267D01*
X21000Y22258D01*
X20991Y22266D01*
X20899Y22304D01*
X20800Y22305D01*
X20600Y22305D01*
X20508Y22267D01*
X20500Y22258D01*
X20491Y22266D01*
X20399Y22304D01*
X20300Y22305D01*
X20100Y22305D01*
X20008Y22267D01*
X20000Y22258D01*
X19991Y22266D01*
X19899Y22304D01*
X19800Y22305D01*
X19600Y22305D01*
X19508Y22267D01*
X19500Y22258D01*
X19491Y22266D01*
X19399Y22304D01*
X19362Y22304D01*
X19300Y22242D01*
X19300Y21635D01*
X19307Y21635D01*
X19307Y21535D01*
X19300Y21535D01*
X19300Y20927D01*
X19362Y20865D01*
X19375Y20865D01*
X19375Y20750D01*
X19403Y20606D01*
X19450Y20536D01*
X19450Y18874D01*
X19200Y18624D01*
X19200Y20927D01*
X19200Y21535D01*
X19200Y21635D01*
X19200Y22242D01*
X19137Y22304D01*
X19100Y22304D01*
X19008Y22266D01*
X18937Y22196D01*
X18899Y22104D01*
X18900Y21697D01*
X18962Y21635D01*
X19200Y21635D01*
X19200Y21535D01*
X18962Y21535D01*
X18900Y21472D01*
X18899Y21065D01*
X18937Y20973D01*
X19008Y20903D01*
X19100Y20865D01*
X19137Y20865D01*
X19200Y20927D01*
X19200Y18624D01*
X18875Y18300D01*
X18697Y18300D01*
X18697Y21977D01*
X18697Y22091D01*
X18634Y22154D01*
X18300Y22154D01*
X18300Y21839D01*
X18362Y21777D01*
X18397Y21776D01*
X18496Y21777D01*
X18588Y21815D01*
X18659Y21885D01*
X18697Y21977D01*
X18697Y18300D01*
X18200Y18300D01*
X18200Y21839D01*
X18200Y22154D01*
X17865Y22154D01*
X17803Y22091D01*
X17802Y21977D01*
X17840Y21885D01*
X17911Y21815D01*
X18003Y21777D01*
X18102Y21776D01*
X18137Y21777D01*
X18200Y21839D01*
X18200Y18300D01*
X16874Y18300D01*
X15050Y20124D01*
X15050Y22250D01*
X15027Y22364D01*
X14962Y22462D01*
X12462Y24962D01*
X12364Y25027D01*
X12250Y25050D01*
X6371Y25050D01*
X6269Y25152D01*
X6094Y25224D01*
X5905Y25225D01*
X5731Y25152D01*
X5597Y25019D01*
X5525Y24844D01*
X5524Y24655D01*
X5597Y24481D01*
X5730Y24347D01*
X5905Y24275D01*
X6094Y24274D01*
X6268Y24347D01*
X6371Y24450D01*
X12125Y24450D01*
X12646Y23928D01*
X10971Y23928D01*
X10938Y24010D01*
X10868Y24080D01*
X10776Y24118D01*
X10676Y24118D01*
X10282Y24118D01*
X10198Y24244D01*
X9980Y24390D01*
X9722Y24441D01*
X9464Y24390D01*
X9245Y24244D01*
X9162Y24118D01*
X8668Y24118D01*
X8576Y24081D01*
X8506Y24010D01*
X8468Y23918D01*
X8468Y23911D01*
X8410Y23900D01*
X8288Y23819D01*
X7984Y23515D01*
X7903Y23393D01*
X7875Y23250D01*
X7875Y21500D01*
X7903Y21356D01*
X7984Y21234D01*
X8709Y20510D01*
X8709Y20510D01*
X8709Y20510D01*
X8875Y20344D01*
X8875Y18000D01*
X8903Y17856D01*
X8984Y17734D01*
X9269Y17450D01*
X9269Y17450D01*
X9390Y17369D01*
X9499Y17347D01*
X9535Y17259D01*
X9606Y17188D01*
X9697Y17150D01*
X9797Y17150D01*
X10191Y17150D01*
X10275Y17025D01*
X10493Y16879D01*
X10751Y16828D01*
X11009Y16879D01*
X11228Y17025D01*
X11311Y17150D01*
X11805Y17150D01*
X11875Y17179D01*
X11875Y14250D01*
X11903Y14106D01*
X11984Y13984D01*
X12264Y13705D01*
X12862Y13107D01*
X12862Y13107D01*
X13125Y12844D01*
X13125Y12405D01*
X13013Y12294D01*
X12997Y12333D01*
X12926Y12404D01*
X12835Y12442D01*
X12735Y12442D01*
X12341Y12442D01*
X12257Y12567D01*
X12039Y12713D01*
X11781Y12765D01*
X11523Y12713D01*
X11304Y12567D01*
X11221Y12442D01*
X10727Y12442D01*
X10635Y12404D01*
X10565Y12334D01*
X10531Y12252D01*
X9877Y12252D01*
X9784Y12234D01*
X9698Y12291D01*
X9555Y12319D01*
X4929Y12319D01*
X4895Y12401D01*
X4825Y12471D01*
X4733Y12509D01*
X4690Y12509D01*
X4690Y15318D01*
X4439Y15940D01*
X4420Y15970D01*
X4206Y16136D01*
X4136Y16065D01*
X4136Y16206D01*
X4136Y43793D01*
X3000Y44929D01*
X2929Y44858D01*
X2929Y45000D01*
X1793Y46136D01*
X1600Y45986D01*
X1600Y50250D01*
X1600Y50749D01*
X1562Y50841D01*
X1491Y50911D01*
X1399Y50949D01*
X1300Y50950D01*
X1087Y50950D01*
X1025Y50887D01*
X1025Y50550D01*
X1537Y50550D01*
X1600Y50612D01*
X1600Y50749D01*
X1600Y50250D01*
X1600Y50387D01*
X1537Y50450D01*
X1025Y50450D01*
X1025Y50112D01*
X1087Y50050D01*
X1300Y50049D01*
X1399Y50050D01*
X1491Y50088D01*
X1562Y50158D01*
X1600Y50250D01*
X1600Y45986D01*
X1579Y45970D01*
X1316Y45352D01*
X1309Y44681D01*
X1560Y44059D01*
X1579Y44029D01*
X1793Y43863D01*
X2929Y45000D01*
X2929Y44858D01*
X1863Y43793D01*
X2029Y43579D01*
X2647Y43316D01*
X3318Y43309D01*
X3940Y43560D01*
X3970Y43579D01*
X4136Y43793D01*
X4136Y16206D01*
X3970Y16420D01*
X3352Y16683D01*
X2681Y16690D01*
X2059Y16439D01*
X2029Y16420D01*
X1863Y16206D01*
X3000Y15070D01*
X4136Y16206D01*
X4136Y16065D01*
X3070Y15000D01*
X4206Y13863D01*
X4420Y14029D01*
X4683Y14647D01*
X4690Y15318D01*
X4690Y12509D01*
X4634Y12509D01*
X4239Y12509D01*
X4156Y12635D01*
X4096Y12674D01*
X4152Y12730D01*
X4224Y12905D01*
X4225Y13094D01*
X4152Y13268D01*
X4019Y13402D01*
X3844Y13474D01*
X3729Y13475D01*
X3940Y13560D01*
X3970Y13579D01*
X4136Y13793D01*
X3000Y14929D01*
X2929Y14858D01*
X2929Y15000D01*
X1793Y16136D01*
X1579Y15970D01*
X1316Y15352D01*
X1309Y14681D01*
X1560Y14059D01*
X1579Y14029D01*
X1793Y13863D01*
X2929Y15000D01*
X2929Y14858D01*
X1863Y13793D01*
X2029Y13579D01*
X2594Y13338D01*
X2484Y13265D01*
X1984Y12765D01*
X1903Y12643D01*
X1875Y12500D01*
X1875Y12250D01*
X1903Y12106D01*
X1984Y11984D01*
X2234Y11734D01*
X2234Y11734D01*
X2234Y11734D01*
X2289Y11679D01*
X2411Y11598D01*
X2425Y11595D01*
X2425Y11580D01*
X2463Y11488D01*
X2534Y11418D01*
X2625Y11379D01*
X2725Y11379D01*
X3119Y11379D01*
X3203Y11254D01*
X3421Y11108D01*
X3679Y11057D01*
X3937Y11108D01*
X4156Y11254D01*
X4239Y11379D01*
X4483Y11379D01*
X4495Y11377D01*
X4506Y11379D01*
X4733Y11379D01*
X4825Y11417D01*
X4895Y11488D01*
X4929Y11569D01*
X9310Y11569D01*
X9347Y11481D01*
X9480Y11347D01*
X9655Y11275D01*
X9844Y11274D01*
X10018Y11347D01*
X10152Y11480D01*
X10161Y11502D01*
X10531Y11502D01*
X10565Y11421D01*
X10635Y11350D01*
X10727Y11312D01*
X10826Y11312D01*
X11221Y11312D01*
X11304Y11187D01*
X11523Y11041D01*
X11781Y10989D01*
X12039Y11041D01*
X12257Y11187D01*
X12341Y11312D01*
X12834Y11312D01*
X12926Y11350D01*
X12996Y11420D01*
X13030Y11502D01*
X13127Y11502D01*
X13271Y11531D01*
X13392Y11612D01*
X13765Y11984D01*
X13846Y12106D01*
X13874Y12250D01*
X13875Y12250D01*
X13875Y13000D01*
X13846Y13143D01*
X13765Y13265D01*
X13392Y13637D01*
X13392Y13637D01*
X12794Y14235D01*
X12794Y14235D01*
X12625Y14405D01*
X12625Y17500D01*
X12596Y17643D01*
X12515Y17765D01*
X12515Y17765D01*
X12265Y18015D01*
X12143Y18096D01*
X12000Y18125D01*
X11987Y18125D01*
X11967Y18172D01*
X11897Y18242D01*
X11805Y18280D01*
X11706Y18280D01*
X11311Y18280D01*
X11228Y18406D01*
X11009Y18552D01*
X10751Y18603D01*
X10493Y18552D01*
X10275Y18406D01*
X10191Y18280D01*
X9698Y18280D01*
X9625Y18250D01*
X9625Y20500D01*
X9596Y20643D01*
X9515Y20765D01*
X9515Y20765D01*
X9239Y21040D01*
X9239Y21040D01*
X9239Y21040D01*
X8625Y21655D01*
X8625Y23007D01*
X8668Y22989D01*
X8767Y22988D01*
X9162Y22988D01*
X9245Y22863D01*
X9464Y22717D01*
X9722Y22666D01*
X9980Y22717D01*
X10198Y22863D01*
X10282Y22988D01*
X10775Y22988D01*
X10867Y23026D01*
X10938Y23097D01*
X10972Y23178D01*
X12540Y23178D01*
X13875Y21844D01*
X13875Y18000D01*
X13903Y17856D01*
X13984Y17734D01*
X15484Y16234D01*
X15484Y16234D01*
X15606Y16153D01*
X15750Y16125D01*
X21250Y16125D01*
X21393Y16153D01*
X21515Y16234D01*
X22375Y17094D01*
X22375Y16296D01*
X22347Y16269D01*
X22275Y16094D01*
X22274Y15905D01*
X22347Y15731D01*
X22480Y15597D01*
X22655Y15525D01*
X22844Y15524D01*
X23018Y15597D01*
X23152Y15730D01*
X23224Y15905D01*
X23225Y16094D01*
X23225Y8800D01*
X7554Y8800D01*
X7554Y9418D01*
X7543Y9636D01*
X7481Y9787D01*
X7385Y9815D01*
X7315Y9744D01*
X7315Y9885D01*
X7287Y9981D01*
X7081Y10054D01*
X6863Y10043D01*
X6712Y9981D01*
X6684Y9885D01*
X7000Y9570D01*
X7315Y9885D01*
X7315Y9744D01*
X7070Y9500D01*
X7385Y9184D01*
X7481Y9212D01*
X7554Y9418D01*
X7554Y8800D01*
X7471Y8800D01*
X7466Y8811D01*
X7311Y8965D01*
X7236Y8997D01*
X7287Y9018D01*
X7315Y9114D01*
X7000Y9429D01*
X6929Y9358D01*
X6929Y9500D01*
X6614Y9815D01*
X6518Y9787D01*
X6445Y9581D01*
X6456Y9363D01*
X6518Y9212D01*
X6614Y9184D01*
X6929Y9500D01*
X6929Y9358D01*
X6684Y9114D01*
X6712Y9018D01*
X6767Y8999D01*
X6688Y8966D01*
X6597Y8875D01*
X5650Y8875D01*
X5650Y9250D01*
X5650Y9749D01*
X5612Y9841D01*
X5541Y9911D01*
X5449Y9949D01*
X5350Y9950D01*
X5137Y9950D01*
X5075Y9887D01*
X5075Y9550D01*
X5587Y9550D01*
X5650Y9612D01*
X5650Y9749D01*
X5650Y9250D01*
X5650Y9387D01*
X5587Y9450D01*
X5075Y9450D01*
X5075Y9112D01*
X5137Y9050D01*
X5350Y9049D01*
X5449Y9050D01*
X5541Y9088D01*
X5612Y9158D01*
X5650Y9250D01*
X5650Y8875D01*
X5578Y8875D01*
X5541Y8911D01*
X5449Y8949D01*
X5350Y8950D01*
X4975Y8950D01*
X4975Y9112D01*
X4975Y9450D01*
X4975Y9550D01*
X4975Y9887D01*
X4912Y9950D01*
X4699Y9950D01*
X4600Y9949D01*
X4508Y9911D01*
X4437Y9841D01*
X4399Y9749D01*
X4400Y9612D01*
X4462Y9550D01*
X4975Y9550D01*
X4975Y9450D01*
X4462Y9450D01*
X4400Y9387D01*
X4399Y9250D01*
X4437Y9158D01*
X4508Y9088D01*
X4600Y9050D01*
X4699Y9049D01*
X4912Y9050D01*
X4975Y9112D01*
X4975Y8950D01*
X4600Y8950D01*
X4508Y8912D01*
X4471Y8875D01*
X1600Y8875D01*
X1600Y9250D01*
X1600Y9749D01*
X1562Y9841D01*
X1491Y9911D01*
X1399Y9949D01*
X1300Y9950D01*
X1087Y9950D01*
X1025Y9887D01*
X1025Y9550D01*
X1537Y9550D01*
X1600Y9612D01*
X1600Y9749D01*
X1600Y9250D01*
X1600Y9387D01*
X1537Y9450D01*
X1025Y9450D01*
X1025Y9112D01*
X1087Y9050D01*
X1300Y9049D01*
X1399Y9050D01*
X1491Y9088D01*
X1562Y9158D01*
X1600Y9250D01*
X1600Y8875D01*
X1528Y8875D01*
X1491Y8911D01*
X1399Y8949D01*
X1300Y8950D01*
X925Y8950D01*
X925Y9112D01*
X925Y9450D01*
X925Y9550D01*
X925Y9887D01*
X925Y50112D01*
X925Y50450D01*
X925Y50550D01*
X925Y50887D01*
X862Y50950D01*
X649Y50950D01*
X550Y50949D01*
X458Y50911D01*
X387Y50841D01*
X349Y50749D01*
X350Y50612D01*
X412Y50550D01*
X925Y50550D01*
X925Y50450D01*
X412Y50450D01*
X350Y50387D01*
X349Y50250D01*
X387Y50158D01*
X458Y50088D01*
X550Y50050D01*
X649Y50049D01*
X862Y50050D01*
X925Y50112D01*
X925Y9887D01*
X862Y9950D01*
X649Y9950D01*
X550Y9949D01*
X458Y9911D01*
X387Y9841D01*
X349Y9749D01*
X350Y9612D01*
X412Y9550D01*
X925Y9550D01*
X925Y9450D01*
X412Y9450D01*
X350Y9387D01*
X349Y9250D01*
X387Y9158D01*
X458Y9088D01*
X550Y9050D01*
X649Y9049D01*
X862Y9050D01*
X925Y9112D01*
X925Y8950D01*
X550Y8950D01*
X458Y8912D01*
X401Y8855D01*
X356Y8846D01*
X269Y8788D01*
X269Y51211D01*
X356Y51153D01*
X401Y51144D01*
X458Y51088D01*
X550Y51050D01*
X649Y51049D01*
X1399Y51049D01*
X1491Y51087D01*
X1528Y51125D01*
X4471Y51125D01*
X4508Y51088D01*
X4600Y51050D01*
X4699Y51049D01*
X5449Y51049D01*
X5541Y51087D01*
X5578Y51125D01*
X6597Y51125D01*
X6672Y51049D01*
X6650Y51049D01*
X6558Y51011D01*
X6487Y50941D01*
X6449Y50849D01*
X6450Y50612D01*
X6512Y50550D01*
X6950Y50550D01*
X6950Y50557D01*
X7050Y50557D01*
X7050Y50550D01*
X7487Y50550D01*
X7550Y50612D01*
X7550Y50849D01*
X7512Y50941D01*
X7441Y51011D01*
X7349Y51049D01*
X7327Y51049D01*
X7465Y51188D01*
X7470Y51200D01*
X19878Y51200D01*
X19980Y51097D01*
X20155Y51025D01*
X20344Y51024D01*
X20518Y51097D01*
X20621Y51200D01*
X34528Y51200D01*
X34533Y51188D01*
X34688Y51034D01*
X34763Y51002D01*
X34712Y50981D01*
X34684Y50885D01*
X35000Y50570D01*
X35315Y50885D01*
X35287Y50981D01*
X35232Y51000D01*
X35311Y51033D01*
X35402Y51125D01*
X36421Y51125D01*
X36458Y51088D01*
X36550Y51050D01*
X36649Y51049D01*
X37399Y51049D01*
X37491Y51087D01*
X37528Y51125D01*
X40471Y51125D01*
X40508Y51088D01*
X40600Y51050D01*
X40699Y51049D01*
X41449Y51049D01*
X41541Y51087D01*
X41598Y51144D01*
X41643Y51153D01*
X41730Y51211D01*
X41730Y8788D01*
X41730Y8788D01*
G37*
X41730Y8788D02*
X41650Y8842D01*
X41650Y9250D01*
X41650Y9749D01*
X41650Y50250D01*
X41650Y50749D01*
X41612Y50841D01*
X41541Y50911D01*
X41449Y50949D01*
X41350Y50950D01*
X41137Y50950D01*
X41075Y50887D01*
X41075Y50550D01*
X41587Y50550D01*
X41650Y50612D01*
X41650Y50749D01*
X41650Y50250D01*
X41650Y50387D01*
X41587Y50450D01*
X41075Y50450D01*
X41075Y50112D01*
X41137Y50050D01*
X41350Y50049D01*
X41449Y50050D01*
X41541Y50088D01*
X41612Y50158D01*
X41650Y50250D01*
X41650Y9749D01*
X41612Y9841D01*
X41541Y9911D01*
X41449Y9949D01*
X41350Y9950D01*
X41137Y9950D01*
X41075Y9887D01*
X41075Y9550D01*
X41587Y9550D01*
X41650Y9612D01*
X41650Y9749D01*
X41650Y9250D01*
X41650Y9387D01*
X41587Y9450D01*
X41075Y9450D01*
X41075Y9112D01*
X41137Y9050D01*
X41350Y9049D01*
X41449Y9050D01*
X41541Y9088D01*
X41612Y9158D01*
X41650Y9250D01*
X41650Y8842D01*
X41643Y8846D01*
X41598Y8855D01*
X41541Y8911D01*
X41449Y8949D01*
X41350Y8950D01*
X40975Y8950D01*
X40975Y9112D01*
X40975Y9450D01*
X40975Y9550D01*
X40975Y9887D01*
X40975Y50112D01*
X40975Y50450D01*
X40975Y50550D01*
X40975Y50887D01*
X40912Y50950D01*
X40699Y50950D01*
X40600Y50949D01*
X40508Y50911D01*
X40437Y50841D01*
X40399Y50749D01*
X40400Y50612D01*
X40462Y50550D01*
X40975Y50550D01*
X40975Y50450D01*
X40462Y50450D01*
X40400Y50387D01*
X40399Y50250D01*
X40437Y50158D01*
X40508Y50088D01*
X40600Y50050D01*
X40699Y50049D01*
X40912Y50050D01*
X40975Y50112D01*
X40975Y9887D01*
X40912Y9950D01*
X40699Y9950D01*
X40690Y9950D01*
X40690Y15318D01*
X40690Y45318D01*
X40439Y45940D01*
X40420Y45970D01*
X40206Y46136D01*
X40136Y46065D01*
X40136Y46206D01*
X39970Y46420D01*
X39352Y46683D01*
X38681Y46690D01*
X38059Y46439D01*
X38029Y46420D01*
X37863Y46206D01*
X39000Y45070D01*
X40136Y46206D01*
X40136Y46065D01*
X39070Y45000D01*
X40206Y43863D01*
X40420Y44029D01*
X40683Y44647D01*
X40690Y45318D01*
X40690Y15318D01*
X40439Y15940D01*
X40420Y15970D01*
X40206Y16136D01*
X40136Y16065D01*
X40136Y16206D01*
X40136Y43793D01*
X39000Y44929D01*
X38929Y44858D01*
X38929Y45000D01*
X37793Y46136D01*
X37600Y45986D01*
X37600Y50250D01*
X37600Y50749D01*
X37562Y50841D01*
X37491Y50911D01*
X37399Y50949D01*
X37300Y50950D01*
X37087Y50950D01*
X37025Y50887D01*
X37025Y50550D01*
X37537Y50550D01*
X37600Y50612D01*
X37600Y50749D01*
X37600Y50250D01*
X37600Y50387D01*
X37537Y50450D01*
X37025Y50450D01*
X37025Y50112D01*
X37087Y50050D01*
X37300Y50049D01*
X37399Y50050D01*
X37491Y50088D01*
X37562Y50158D01*
X37600Y50250D01*
X37600Y45986D01*
X37579Y45970D01*
X37316Y45352D01*
X37309Y44681D01*
X37560Y44059D01*
X37579Y44029D01*
X37793Y43863D01*
X38929Y45000D01*
X38929Y44858D01*
X37863Y43793D01*
X38029Y43579D01*
X38647Y43316D01*
X39318Y43309D01*
X39940Y43560D01*
X39970Y43579D01*
X40136Y43793D01*
X40136Y16206D01*
X39970Y16420D01*
X39352Y16683D01*
X38681Y16690D01*
X38059Y16439D01*
X38029Y16420D01*
X37863Y16206D01*
X39000Y15070D01*
X40136Y16206D01*
X40136Y16065D01*
X39070Y15000D01*
X40206Y13863D01*
X40420Y14029D01*
X40683Y14647D01*
X40690Y15318D01*
X40690Y9950D01*
X40600Y9949D01*
X40508Y9911D01*
X40437Y9841D01*
X40399Y9749D01*
X40400Y9612D01*
X40462Y9550D01*
X40975Y9550D01*
X40975Y9450D01*
X40462Y9450D01*
X40400Y9387D01*
X40399Y9250D01*
X40437Y9158D01*
X40508Y9088D01*
X40600Y9050D01*
X40699Y9049D01*
X40912Y9050D01*
X40975Y9112D01*
X40975Y8950D01*
X40600Y8950D01*
X40508Y8912D01*
X40471Y8875D01*
X40136Y8875D01*
X40136Y13793D01*
X39000Y14929D01*
X38929Y14858D01*
X38929Y15000D01*
X37793Y16136D01*
X37579Y15970D01*
X37371Y15481D01*
X37374Y15500D01*
X37375Y15500D01*
X37375Y17500D01*
X37374Y17500D01*
X37346Y17643D01*
X37297Y17716D01*
X37265Y17765D01*
X37265Y17765D01*
X36943Y18086D01*
X36925Y18099D01*
X36925Y50112D01*
X36925Y50450D01*
X36925Y50550D01*
X36925Y50887D01*
X36862Y50950D01*
X36649Y50950D01*
X36550Y50949D01*
X36458Y50911D01*
X36387Y50841D01*
X36349Y50749D01*
X36350Y50612D01*
X36412Y50550D01*
X36925Y50550D01*
X36925Y50450D01*
X36412Y50450D01*
X36350Y50387D01*
X36349Y50250D01*
X36387Y50158D01*
X36458Y50088D01*
X36550Y50050D01*
X36649Y50049D01*
X36862Y50050D01*
X36925Y50112D01*
X36925Y18099D01*
X36821Y18168D01*
X36727Y18186D01*
X36690Y18278D01*
X36619Y18348D01*
X36527Y18386D01*
X36428Y18386D01*
X36034Y18386D01*
X35950Y18512D01*
X35731Y18658D01*
X35474Y18709D01*
X35216Y18658D01*
X34997Y18512D01*
X34914Y18386D01*
X34420Y18386D01*
X34328Y18348D01*
X34258Y18278D01*
X34256Y18273D01*
X34125Y18405D01*
X34125Y18844D01*
X35457Y20177D01*
X36515Y21234D01*
X36515Y21234D01*
X36596Y21356D01*
X36624Y21499D01*
X36625Y21500D01*
X36625Y23250D01*
X36624Y23250D01*
X36596Y23393D01*
X36547Y23466D01*
X36515Y23515D01*
X36515Y23515D01*
X36475Y23555D01*
X36475Y33094D01*
X36402Y33268D01*
X36269Y33402D01*
X36094Y33474D01*
X35905Y33475D01*
X35731Y33402D01*
X35628Y33300D01*
X35554Y33300D01*
X35554Y50418D01*
X35543Y50636D01*
X35481Y50787D01*
X35385Y50815D01*
X35070Y50500D01*
X35385Y50184D01*
X35481Y50212D01*
X35554Y50418D01*
X35554Y33300D01*
X35315Y33300D01*
X35315Y50114D01*
X35000Y50429D01*
X34929Y50358D01*
X34929Y50500D01*
X34614Y50815D01*
X34518Y50787D01*
X34445Y50581D01*
X34456Y50363D01*
X34518Y50212D01*
X34614Y50184D01*
X34929Y50500D01*
X34929Y50358D01*
X34684Y50114D01*
X34712Y50018D01*
X34918Y49945D01*
X35136Y49956D01*
X35287Y50018D01*
X35315Y50114D01*
X35315Y33300D01*
X35000Y33300D01*
X35000Y36500D01*
X34961Y36691D01*
X34853Y36853D01*
X34691Y36961D01*
X34500Y37000D01*
X34308Y36961D01*
X34146Y36853D01*
X34100Y36807D01*
X33531Y36807D01*
X33497Y36888D01*
X33427Y36959D01*
X33335Y36997D01*
X33236Y36997D01*
X32841Y36997D01*
X32758Y37122D01*
X32539Y37268D01*
X32281Y37319D01*
X32023Y37268D01*
X31805Y37122D01*
X31721Y36997D01*
X31228Y36997D01*
X31136Y36959D01*
X31125Y36947D01*
X31125Y38094D01*
X31798Y38768D01*
X31798Y38768D01*
X31798Y38768D01*
X32269Y39239D01*
X33015Y39984D01*
X33096Y40106D01*
X33125Y40250D01*
X33125Y42000D01*
X33124Y42000D01*
X33096Y42143D01*
X33047Y42216D01*
X33015Y42265D01*
X33015Y42265D01*
X32767Y42513D01*
X32645Y42594D01*
X32506Y42622D01*
X32472Y42704D01*
X32402Y42774D01*
X32310Y42812D01*
X32210Y42812D01*
X31816Y42812D01*
X31732Y42938D01*
X31514Y43084D01*
X31256Y43135D01*
X30998Y43084D01*
X30779Y42938D01*
X30696Y42812D01*
X30202Y42812D01*
X30125Y42780D01*
X30125Y43844D01*
X31244Y44963D01*
X31244Y44963D01*
X31244Y44963D01*
X32015Y45734D01*
X32015Y45734D01*
X32047Y45783D01*
X32096Y45856D01*
X32096Y45856D01*
X32124Y45999D01*
X32125Y46000D01*
X32125Y47750D01*
X32096Y47893D01*
X32015Y48015D01*
X31701Y48328D01*
X31580Y48409D01*
X31484Y48428D01*
X31446Y48519D01*
X31376Y48590D01*
X31284Y48628D01*
X31185Y48628D01*
X30790Y48628D01*
X30707Y48753D01*
X30488Y48899D01*
X30230Y48951D01*
X29973Y48899D01*
X29754Y48753D01*
X29670Y48628D01*
X29177Y48628D01*
X29085Y48590D01*
X29015Y48520D01*
X28976Y48428D01*
X28976Y48375D01*
X26046Y48375D01*
X26019Y48402D01*
X25844Y48474D01*
X25655Y48475D01*
X25481Y48402D01*
X25347Y48269D01*
X25275Y48094D01*
X25274Y47905D01*
X25347Y47731D01*
X25480Y47597D01*
X25655Y47525D01*
X25844Y47524D01*
X26018Y47597D01*
X26046Y47625D01*
X29007Y47625D01*
X29014Y47607D01*
X29085Y47536D01*
X29177Y47498D01*
X29276Y47498D01*
X29670Y47498D01*
X29754Y47373D01*
X29973Y47227D01*
X30230Y47175D01*
X30488Y47227D01*
X30707Y47373D01*
X30790Y47498D01*
X31284Y47498D01*
X31375Y47535D01*
X31375Y46155D01*
X30713Y45494D01*
X30713Y45494D01*
X29484Y44265D01*
X29403Y44143D01*
X29375Y44000D01*
X29375Y42500D01*
X29403Y42356D01*
X29484Y42234D01*
X29736Y41982D01*
X29858Y41901D01*
X30002Y41872D01*
X30006Y41872D01*
X30040Y41791D01*
X30110Y41721D01*
X30202Y41682D01*
X30301Y41682D01*
X30696Y41682D01*
X30779Y41557D01*
X30998Y41411D01*
X31256Y41360D01*
X31514Y41411D01*
X31732Y41557D01*
X31816Y41682D01*
X32309Y41682D01*
X32375Y41709D01*
X32375Y40405D01*
X31739Y39769D01*
X31268Y39298D01*
X31268Y39298D01*
X30484Y38515D01*
X30403Y38393D01*
X30375Y38250D01*
X30375Y36750D01*
X30403Y36606D01*
X30484Y36484D01*
X30802Y36167D01*
X30802Y36167D01*
X30924Y36085D01*
X31028Y36064D01*
X31028Y36064D01*
X31065Y35975D01*
X31136Y35905D01*
X31227Y35867D01*
X31327Y35867D01*
X31721Y35867D01*
X31805Y35741D01*
X32023Y35595D01*
X32281Y35544D01*
X32539Y35595D01*
X32758Y35741D01*
X32841Y35867D01*
X33335Y35867D01*
X33427Y35905D01*
X33497Y35975D01*
X33531Y36057D01*
X34110Y36057D01*
X34240Y35970D01*
X34432Y35932D01*
X34623Y35970D01*
X34785Y36078D01*
X34853Y36146D01*
X34961Y36308D01*
X35000Y36500D01*
X35000Y33300D01*
X13225Y33300D01*
X13225Y49094D01*
X13152Y49268D01*
X13019Y49402D01*
X12844Y49474D01*
X12655Y49475D01*
X12481Y49402D01*
X12453Y49375D01*
X7550Y49375D01*
X7550Y50150D01*
X7550Y50387D01*
X7487Y50450D01*
X7050Y50450D01*
X7050Y50012D01*
X7112Y49950D01*
X7250Y49949D01*
X7349Y49950D01*
X7441Y49988D01*
X7512Y50058D01*
X7550Y50150D01*
X7550Y49375D01*
X6950Y49375D01*
X6950Y50012D01*
X6950Y50450D01*
X6512Y50450D01*
X6450Y50387D01*
X6449Y50150D01*
X6487Y50058D01*
X6558Y49988D01*
X6650Y49950D01*
X6749Y49949D01*
X6887Y49950D01*
X6950Y50012D01*
X6950Y49375D01*
X5650Y49375D01*
X5650Y50250D01*
X5650Y50749D01*
X5612Y50841D01*
X5541Y50911D01*
X5449Y50949D01*
X5350Y50950D01*
X5137Y50950D01*
X5075Y50887D01*
X5075Y50550D01*
X5587Y50550D01*
X5650Y50612D01*
X5650Y50749D01*
X5650Y50250D01*
X5650Y50387D01*
X5587Y50450D01*
X5075Y50450D01*
X5075Y50112D01*
X5137Y50050D01*
X5350Y50049D01*
X5449Y50050D01*
X5541Y50088D01*
X5612Y50158D01*
X5650Y50250D01*
X5650Y49375D01*
X5250Y49375D01*
X4975Y49375D01*
X4975Y50112D01*
X4975Y50450D01*
X4975Y50550D01*
X4975Y50887D01*
X4912Y50950D01*
X4699Y50950D01*
X4600Y50949D01*
X4508Y50911D01*
X4437Y50841D01*
X4399Y50749D01*
X4400Y50612D01*
X4462Y50550D01*
X4975Y50550D01*
X4975Y50450D01*
X4462Y50450D01*
X4400Y50387D01*
X4399Y50250D01*
X4437Y50158D01*
X4508Y50088D01*
X4600Y50050D01*
X4699Y50049D01*
X4912Y50050D01*
X4975Y50112D01*
X4975Y49375D01*
X4500Y49375D01*
X4356Y49346D01*
X4234Y49265D01*
X3734Y48765D01*
X3653Y48643D01*
X3625Y48500D01*
X3625Y48250D01*
X3653Y48106D01*
X3734Y47984D01*
X4027Y47692D01*
X4027Y47692D01*
X4149Y47610D01*
X4255Y47589D01*
X4255Y47589D01*
X4292Y47500D01*
X4362Y47430D01*
X4454Y47392D01*
X4554Y47392D01*
X4948Y47392D01*
X5032Y47266D01*
X5250Y47120D01*
X5508Y47069D01*
X5766Y47120D01*
X5984Y47266D01*
X6068Y47392D01*
X6562Y47392D01*
X6653Y47430D01*
X6721Y47497D01*
X6875Y47344D01*
X6875Y46155D01*
X5991Y45271D01*
X4734Y44015D01*
X4690Y43948D01*
X4690Y45318D01*
X4439Y45940D01*
X4420Y45970D01*
X4206Y46136D01*
X4136Y46065D01*
X4136Y46206D01*
X3970Y46420D01*
X3352Y46683D01*
X2681Y46690D01*
X2059Y46439D01*
X2029Y46420D01*
X1863Y46206D01*
X3000Y45070D01*
X4136Y46206D01*
X4136Y46065D01*
X3070Y45000D01*
X4206Y43863D01*
X4420Y44029D01*
X4683Y44647D01*
X4690Y45318D01*
X4690Y43948D01*
X4653Y43893D01*
X4625Y43750D01*
X4625Y42500D01*
X4653Y42356D01*
X4734Y42234D01*
X5093Y41876D01*
X5093Y41876D01*
X5214Y41795D01*
X5280Y41782D01*
X5280Y41777D01*
X5318Y41685D01*
X5388Y41614D01*
X5480Y41576D01*
X5579Y41576D01*
X5973Y41576D01*
X6057Y41451D01*
X6276Y41305D01*
X6534Y41254D01*
X6791Y41305D01*
X7010Y41451D01*
X7094Y41576D01*
X7587Y41576D01*
X7679Y41614D01*
X7749Y41684D01*
X7760Y41709D01*
X7875Y41594D01*
X7875Y40405D01*
X7734Y40265D01*
X7734Y40265D01*
X7016Y39547D01*
X7016Y39547D01*
X5984Y38515D01*
X5903Y38393D01*
X5875Y38250D01*
X5875Y36500D01*
X5903Y36356D01*
X5984Y36234D01*
X6158Y36060D01*
X6158Y36060D01*
X6280Y35979D01*
X6305Y35974D01*
X6305Y35961D01*
X6343Y35869D01*
X6413Y35799D01*
X6505Y35761D01*
X6605Y35761D01*
X6999Y35761D01*
X7083Y35635D01*
X7301Y35489D01*
X7559Y35438D01*
X7817Y35489D01*
X8035Y35635D01*
X8119Y35761D01*
X8612Y35761D01*
X8704Y35799D01*
X8775Y35869D01*
X8777Y35875D01*
X9953Y35875D01*
X9980Y35847D01*
X10155Y35775D01*
X10344Y35774D01*
X10518Y35847D01*
X10652Y35980D01*
X10724Y36155D01*
X10725Y36344D01*
X10652Y36518D01*
X10519Y36652D01*
X10344Y36724D01*
X10155Y36725D01*
X9981Y36652D01*
X9953Y36625D01*
X8813Y36625D01*
X8813Y36690D01*
X8775Y36782D01*
X8705Y36852D01*
X8613Y36891D01*
X8513Y36891D01*
X8119Y36891D01*
X8035Y37016D01*
X7817Y37162D01*
X7559Y37213D01*
X7301Y37162D01*
X7083Y37016D01*
X6999Y36891D01*
X6625Y36891D01*
X6625Y38094D01*
X7547Y39016D01*
X7547Y39016D01*
X7547Y39016D01*
X8265Y39734D01*
X8265Y39734D01*
X8265Y39734D01*
X8515Y39984D01*
X8515Y39984D01*
X8596Y40106D01*
X8624Y40250D01*
X8625Y40250D01*
X8625Y41750D01*
X8596Y41893D01*
X8515Y42015D01*
X8123Y42406D01*
X8001Y42488D01*
X7858Y42516D01*
X7783Y42516D01*
X7750Y42598D01*
X7679Y42668D01*
X7587Y42706D01*
X7488Y42706D01*
X7094Y42706D01*
X7010Y42831D01*
X6791Y42978D01*
X6534Y43029D01*
X6276Y42978D01*
X6057Y42831D01*
X5973Y42706D01*
X5480Y42706D01*
X5388Y42668D01*
X5375Y42655D01*
X5375Y42655D01*
X5375Y43594D01*
X6521Y44741D01*
X7515Y45734D01*
X7596Y45856D01*
X7624Y46000D01*
X7625Y46000D01*
X7625Y47500D01*
X7596Y47643D01*
X7515Y47765D01*
X7057Y48222D01*
X6936Y48303D01*
X6792Y48332D01*
X6758Y48332D01*
X6724Y48413D01*
X6654Y48484D01*
X6562Y48522D01*
X6462Y48522D01*
X6068Y48522D01*
X6000Y48625D01*
X12453Y48625D01*
X12480Y48597D01*
X12655Y48525D01*
X12844Y48524D01*
X13018Y48597D01*
X13152Y48730D01*
X13224Y48905D01*
X13225Y49094D01*
X13225Y33300D01*
X6371Y33300D01*
X6269Y33402D01*
X6094Y33474D01*
X5905Y33475D01*
X5731Y33402D01*
X5597Y33269D01*
X5525Y33094D01*
X5524Y32905D01*
X5597Y32731D01*
X5730Y32597D01*
X5905Y32525D01*
X6094Y32524D01*
X6268Y32597D01*
X6371Y32700D01*
X35628Y32700D01*
X35730Y32597D01*
X35905Y32525D01*
X36094Y32524D01*
X36268Y32597D01*
X36402Y32730D01*
X36474Y32905D01*
X36475Y33094D01*
X36475Y23555D01*
X36105Y23925D01*
X35983Y24006D01*
X35839Y24035D01*
X35694Y24035D01*
X35660Y24116D01*
X35590Y24186D01*
X35498Y24224D01*
X35399Y24225D01*
X35004Y24225D01*
X34921Y24350D01*
X34702Y24496D01*
X34444Y24547D01*
X34186Y24496D01*
X33968Y24350D01*
X33884Y24225D01*
X33391Y24225D01*
X33299Y24187D01*
X33228Y24116D01*
X33209Y24070D01*
X32015Y25265D01*
X31893Y25346D01*
X31750Y25375D01*
X23250Y25375D01*
X23106Y25346D01*
X22984Y25265D01*
X22625Y24905D01*
X22625Y27203D01*
X22652Y27230D01*
X22724Y27405D01*
X22725Y27594D01*
X22652Y27768D01*
X22519Y27902D01*
X22344Y27974D01*
X22155Y27975D01*
X21981Y27902D01*
X21847Y27769D01*
X21775Y27594D01*
X21774Y27405D01*
X21847Y27231D01*
X21875Y27203D01*
X21875Y26905D01*
X21015Y27765D01*
X20893Y27846D01*
X20750Y27875D01*
X15655Y27875D01*
X14090Y29439D01*
X14139Y29439D01*
X14534Y29439D01*
X14617Y29314D01*
X14836Y29168D01*
X15094Y29116D01*
X15351Y29168D01*
X15570Y29314D01*
X15654Y29439D01*
X16147Y29439D01*
X16239Y29477D01*
X16309Y29547D01*
X16343Y29629D01*
X19750Y29629D01*
X19784Y29548D01*
X19854Y29477D01*
X19946Y29439D01*
X20045Y29439D01*
X20439Y29439D01*
X20523Y29314D01*
X20742Y29168D01*
X21000Y29116D01*
X21257Y29168D01*
X21476Y29314D01*
X21560Y29439D01*
X22053Y29439D01*
X22145Y29477D01*
X22215Y29547D01*
X22249Y29629D01*
X25656Y29629D01*
X25690Y29548D01*
X25760Y29477D01*
X25852Y29439D01*
X25951Y29439D01*
X26345Y29439D01*
X26429Y29314D01*
X26648Y29168D01*
X26906Y29116D01*
X27163Y29168D01*
X27382Y29314D01*
X27466Y29439D01*
X27959Y29439D01*
X28051Y29477D01*
X28121Y29547D01*
X28155Y29629D01*
X29421Y29629D01*
X29558Y29538D01*
X29750Y29500D01*
X29941Y29538D01*
X30103Y29646D01*
X30211Y29808D01*
X30250Y30000D01*
X30211Y30191D01*
X30103Y30353D01*
X30099Y30357D01*
X29936Y30466D01*
X29745Y30504D01*
X29554Y30466D01*
X29424Y30379D01*
X28155Y30379D01*
X28122Y30460D01*
X28051Y30531D01*
X27959Y30569D01*
X27860Y30569D01*
X27466Y30569D01*
X27382Y30694D01*
X27163Y30840D01*
X26906Y30892D01*
X26648Y30840D01*
X26429Y30694D01*
X26345Y30569D01*
X25852Y30569D01*
X25760Y30531D01*
X25690Y30461D01*
X25656Y30379D01*
X22249Y30379D01*
X22216Y30460D01*
X22145Y30531D01*
X22053Y30569D01*
X21954Y30569D01*
X21560Y30569D01*
X21476Y30694D01*
X21257Y30840D01*
X21000Y30892D01*
X20742Y30840D01*
X20523Y30694D01*
X20439Y30569D01*
X19946Y30569D01*
X19854Y30531D01*
X19784Y30461D01*
X19750Y30379D01*
X16343Y30379D01*
X16310Y30460D01*
X16239Y30531D01*
X16147Y30569D01*
X16048Y30569D01*
X15654Y30569D01*
X15570Y30694D01*
X15351Y30840D01*
X15094Y30892D01*
X14836Y30840D01*
X14617Y30694D01*
X14534Y30569D01*
X14040Y30569D01*
X13948Y30531D01*
X13878Y30461D01*
X13844Y30379D01*
X13754Y30379D01*
X13610Y30350D01*
X13489Y30269D01*
X13234Y30015D01*
X13153Y29893D01*
X13125Y29750D01*
X13125Y29500D01*
X13153Y29356D01*
X13234Y29234D01*
X15094Y27375D01*
X10381Y27375D01*
X10381Y29754D01*
X10381Y30245D01*
X10380Y30344D01*
X10342Y30436D01*
X10272Y30507D01*
X10180Y30545D01*
X9987Y30545D01*
X9925Y30482D01*
X9925Y30050D01*
X10318Y30050D01*
X10381Y30112D01*
X10381Y30245D01*
X10381Y29754D01*
X10381Y29887D01*
X10318Y29950D01*
X9925Y29950D01*
X9925Y29517D01*
X9987Y29455D01*
X10180Y29454D01*
X10272Y29492D01*
X10342Y29563D01*
X10380Y29655D01*
X10381Y29754D01*
X10381Y27375D01*
X9825Y27375D01*
X9825Y29517D01*
X9825Y29950D01*
X9817Y29950D01*
X9817Y30050D01*
X9825Y30050D01*
X9825Y30482D01*
X9762Y30545D01*
X9569Y30545D01*
X9499Y30516D01*
X9430Y30544D01*
X9331Y30545D01*
X8819Y30545D01*
X8727Y30507D01*
X8720Y30500D01*
X8127Y30500D01*
X7936Y30461D01*
X7773Y30353D01*
X7665Y30191D01*
X7627Y30000D01*
X7665Y29808D01*
X7773Y29646D01*
X7936Y29538D01*
X8127Y29500D01*
X8720Y29500D01*
X8727Y29493D01*
X8819Y29455D01*
X8918Y29454D01*
X9430Y29454D01*
X9500Y29483D01*
X9569Y29454D01*
X9762Y29455D01*
X9825Y29517D01*
X9825Y27375D01*
X6250Y27375D01*
X5296Y27375D01*
X5269Y27402D01*
X5094Y27474D01*
X4905Y27475D01*
X4731Y27402D01*
X4597Y27269D01*
X4525Y27094D01*
X4524Y26905D01*
X4597Y26731D01*
X4730Y26597D01*
X4905Y26525D01*
X5094Y26524D01*
X5268Y26597D01*
X5296Y26625D01*
X6250Y26625D01*
X11287Y26625D01*
X11275Y26594D01*
X11274Y26405D01*
X11287Y26375D01*
X7796Y26375D01*
X7769Y26402D01*
X7594Y26474D01*
X7405Y26475D01*
X7231Y26402D01*
X7097Y26269D01*
X7025Y26094D01*
X7024Y25905D01*
X7097Y25731D01*
X7230Y25597D01*
X7405Y25525D01*
X7594Y25524D01*
X7768Y25597D01*
X7796Y25625D01*
X11953Y25625D01*
X11980Y25597D01*
X12155Y25525D01*
X12344Y25524D01*
X12518Y25597D01*
X12546Y25625D01*
X13344Y25625D01*
X16438Y22530D01*
X16560Y22449D01*
X16704Y22421D01*
X17802Y22421D01*
X17803Y22316D01*
X17865Y22254D01*
X18200Y22254D01*
X18200Y22261D01*
X18300Y22261D01*
X18300Y22254D01*
X18634Y22254D01*
X18697Y22316D01*
X18697Y22421D01*
X19046Y22421D01*
X19189Y22449D01*
X19311Y22530D01*
X19511Y22731D01*
X19600Y22695D01*
X19699Y22694D01*
X19899Y22694D01*
X19991Y22732D01*
X19999Y22741D01*
X20008Y22733D01*
X20100Y22695D01*
X20199Y22694D01*
X20399Y22694D01*
X20491Y22732D01*
X20499Y22741D01*
X20508Y22733D01*
X20600Y22695D01*
X20699Y22694D01*
X20899Y22694D01*
X20991Y22732D01*
X20999Y22741D01*
X21008Y22733D01*
X21100Y22695D01*
X21199Y22694D01*
X21399Y22694D01*
X21491Y22732D01*
X21499Y22741D01*
X21508Y22733D01*
X21600Y22695D01*
X21699Y22694D01*
X21899Y22694D01*
X21991Y22732D01*
X21999Y22741D01*
X22008Y22733D01*
X22100Y22695D01*
X22199Y22694D01*
X22399Y22694D01*
X22491Y22732D01*
X22499Y22741D01*
X22508Y22733D01*
X22600Y22695D01*
X22699Y22694D01*
X22899Y22694D01*
X22991Y22732D01*
X23061Y22803D01*
X23099Y22895D01*
X23100Y22994D01*
X23100Y23289D01*
X23125Y23415D01*
X23125Y24344D01*
X23405Y24625D01*
X31594Y24625D01*
X32824Y23394D01*
X32824Y23394D01*
X32946Y23313D01*
X33089Y23285D01*
X33195Y23285D01*
X33228Y23203D01*
X33298Y23133D01*
X33390Y23095D01*
X33490Y23095D01*
X33884Y23095D01*
X33968Y22969D01*
X34186Y22823D01*
X34444Y22772D01*
X34702Y22823D01*
X34921Y22969D01*
X35004Y23095D01*
X35498Y23095D01*
X35590Y23133D01*
X35660Y23203D01*
X35691Y23278D01*
X35875Y23094D01*
X35875Y21655D01*
X34927Y20707D01*
X33484Y19265D01*
X33403Y19143D01*
X33375Y19000D01*
X33375Y18250D01*
X33403Y18106D01*
X33484Y17984D01*
X33913Y17556D01*
X33913Y17556D01*
X33961Y17524D01*
X34034Y17475D01*
X34178Y17446D01*
X34178Y17446D01*
X34224Y17446D01*
X34258Y17365D01*
X34328Y17295D01*
X34420Y17256D01*
X34519Y17256D01*
X34914Y17256D01*
X34997Y17131D01*
X35216Y16985D01*
X35474Y16934D01*
X35731Y16985D01*
X35950Y17131D01*
X36034Y17256D01*
X36527Y17256D01*
X36619Y17294D01*
X36625Y17300D01*
X36625Y15655D01*
X35956Y14987D01*
X35956Y14987D01*
X34734Y13765D01*
X34653Y13643D01*
X34625Y13500D01*
X34625Y12250D01*
X34653Y12106D01*
X34734Y11984D01*
X35001Y11718D01*
X35122Y11637D01*
X35252Y11611D01*
X35287Y11527D01*
X35357Y11456D01*
X35449Y11418D01*
X35549Y11418D01*
X35943Y11418D01*
X36027Y11293D01*
X36245Y11147D01*
X36503Y11096D01*
X36761Y11147D01*
X36979Y11293D01*
X37063Y11418D01*
X37138Y11418D01*
X36986Y11266D01*
X36344Y10625D01*
X36296Y10625D01*
X36269Y10652D01*
X36094Y10724D01*
X35905Y10725D01*
X35731Y10652D01*
X35597Y10519D01*
X35525Y10344D01*
X35524Y10155D01*
X35597Y9981D01*
X35730Y9847D01*
X35905Y9775D01*
X36094Y9774D01*
X36268Y9847D01*
X36296Y9875D01*
X36421Y9875D01*
X36387Y9841D01*
X36349Y9749D01*
X36350Y9612D01*
X36412Y9550D01*
X36925Y9550D01*
X36925Y9887D01*
X36862Y9950D01*
X36713Y9950D01*
X36765Y9984D01*
X37516Y10736D01*
X38265Y11484D01*
X38265Y11484D01*
X38346Y11606D01*
X38374Y11750D01*
X38375Y11750D01*
X38346Y11893D01*
X38346Y11893D01*
X38265Y12015D01*
X38031Y12248D01*
X37909Y12330D01*
X37766Y12358D01*
X37753Y12358D01*
X37719Y12440D01*
X37649Y12510D01*
X37557Y12548D01*
X37457Y12548D01*
X37063Y12548D01*
X36979Y12673D01*
X36761Y12819D01*
X36503Y12871D01*
X36245Y12819D01*
X36027Y12673D01*
X35943Y12548D01*
X35450Y12548D01*
X35375Y12517D01*
X35375Y13344D01*
X36487Y14456D01*
X36487Y14456D01*
X36487Y14456D01*
X37265Y15234D01*
X37265Y15234D01*
X37316Y15311D01*
X37309Y14681D01*
X37560Y14059D01*
X37579Y14029D01*
X37793Y13863D01*
X38929Y15000D01*
X38929Y14858D01*
X37863Y13793D01*
X38029Y13579D01*
X38647Y13316D01*
X39318Y13309D01*
X39940Y13560D01*
X39970Y13579D01*
X40136Y13793D01*
X40136Y8875D01*
X37600Y8875D01*
X37600Y9250D01*
X37600Y9749D01*
X37562Y9841D01*
X37491Y9911D01*
X37399Y9949D01*
X37300Y9950D01*
X37087Y9950D01*
X37025Y9887D01*
X37025Y9550D01*
X37537Y9550D01*
X37600Y9612D01*
X37600Y9749D01*
X37600Y9250D01*
X37600Y9387D01*
X37537Y9450D01*
X37025Y9450D01*
X37025Y9112D01*
X37087Y9050D01*
X37300Y9049D01*
X37399Y9050D01*
X37491Y9088D01*
X37562Y9158D01*
X37600Y9250D01*
X37600Y8875D01*
X37528Y8875D01*
X37491Y8911D01*
X37399Y8949D01*
X37300Y8950D01*
X36925Y8950D01*
X36925Y9112D01*
X36925Y9450D01*
X36412Y9450D01*
X36350Y9387D01*
X36349Y9250D01*
X36387Y9158D01*
X36458Y9088D01*
X36550Y9050D01*
X36649Y9049D01*
X36862Y9050D01*
X36925Y9112D01*
X36925Y8950D01*
X36550Y8950D01*
X36458Y8912D01*
X36421Y8875D01*
X35402Y8875D01*
X35327Y8950D01*
X35349Y8950D01*
X35441Y8988D01*
X35512Y9058D01*
X35550Y9150D01*
X35550Y9849D01*
X35512Y9941D01*
X35441Y10011D01*
X35349Y10049D01*
X35250Y10050D01*
X35112Y10050D01*
X35050Y9987D01*
X35050Y9550D01*
X35487Y9550D01*
X35550Y9612D01*
X35550Y9849D01*
X35550Y9150D01*
X35550Y9387D01*
X35487Y9450D01*
X35050Y9450D01*
X35050Y9442D01*
X34950Y9442D01*
X34950Y9450D01*
X34950Y9550D01*
X34950Y9987D01*
X34887Y10050D01*
X34749Y10050D01*
X34650Y10049D01*
X34558Y10011D01*
X34487Y9941D01*
X34449Y9849D01*
X34450Y9612D01*
X34512Y9550D01*
X34950Y9550D01*
X34950Y9450D01*
X34512Y9450D01*
X34450Y9387D01*
X34449Y9150D01*
X34487Y9058D01*
X34558Y8988D01*
X34650Y8950D01*
X34672Y8950D01*
X34534Y8811D01*
X34529Y8800D01*
X23225Y8800D01*
X23225Y16094D01*
X23152Y16268D01*
X23125Y16296D01*
X23125Y21585D01*
X23100Y21710D01*
X23100Y22104D01*
X23062Y22196D01*
X22991Y22266D01*
X22899Y22304D01*
X22800Y22305D01*
X22600Y22305D01*
X22508Y22267D01*
X22500Y22258D01*
X22491Y22266D01*
X22399Y22304D01*
X22300Y22305D01*
X22100Y22305D01*
X22008Y22267D01*
X22000Y22258D01*
X21991Y22266D01*
X21899Y22304D01*
X21800Y22305D01*
X21600Y22305D01*
X21508Y22267D01*
X21500Y22258D01*
X21491Y22266D01*
X21399Y22304D01*
X21300Y22305D01*
X21100Y22305D01*
X21008Y22267D01*
X21000Y22258D01*
X20991Y22266D01*
X20899Y22304D01*
X20800Y22305D01*
X20600Y22305D01*
X20508Y22267D01*
X20500Y22258D01*
X20491Y22266D01*
X20399Y22304D01*
X20300Y22305D01*
X20100Y22305D01*
X20008Y22267D01*
X20000Y22258D01*
X19991Y22266D01*
X19899Y22304D01*
X19800Y22305D01*
X19600Y22305D01*
X19508Y22267D01*
X19500Y22258D01*
X19491Y22266D01*
X19399Y22304D01*
X19362Y22304D01*
X19300Y22242D01*
X19300Y21635D01*
X19307Y21635D01*
X19307Y21535D01*
X19300Y21535D01*
X19300Y20927D01*
X19362Y20865D01*
X19375Y20865D01*
X19375Y20750D01*
X19403Y20606D01*
X19450Y20536D01*
X19450Y18874D01*
X19200Y18624D01*
X19200Y20927D01*
X19200Y21535D01*
X19200Y21635D01*
X19200Y22242D01*
X19137Y22304D01*
X19100Y22304D01*
X19008Y22266D01*
X18937Y22196D01*
X18899Y22104D01*
X18900Y21697D01*
X18962Y21635D01*
X19200Y21635D01*
X19200Y21535D01*
X18962Y21535D01*
X18900Y21472D01*
X18899Y21065D01*
X18937Y20973D01*
X19008Y20903D01*
X19100Y20865D01*
X19137Y20865D01*
X19200Y20927D01*
X19200Y18624D01*
X18875Y18300D01*
X18697Y18300D01*
X18697Y21977D01*
X18697Y22091D01*
X18634Y22154D01*
X18300Y22154D01*
X18300Y21839D01*
X18362Y21777D01*
X18397Y21776D01*
X18496Y21777D01*
X18588Y21815D01*
X18659Y21885D01*
X18697Y21977D01*
X18697Y18300D01*
X18200Y18300D01*
X18200Y21839D01*
X18200Y22154D01*
X17865Y22154D01*
X17803Y22091D01*
X17802Y21977D01*
X17840Y21885D01*
X17911Y21815D01*
X18003Y21777D01*
X18102Y21776D01*
X18137Y21777D01*
X18200Y21839D01*
X18200Y18300D01*
X16874Y18300D01*
X15050Y20124D01*
X15050Y22250D01*
X15027Y22364D01*
X14962Y22462D01*
X12462Y24962D01*
X12364Y25027D01*
X12250Y25050D01*
X6371Y25050D01*
X6269Y25152D01*
X6094Y25224D01*
X5905Y25225D01*
X5731Y25152D01*
X5597Y25019D01*
X5525Y24844D01*
X5524Y24655D01*
X5597Y24481D01*
X5730Y24347D01*
X5905Y24275D01*
X6094Y24274D01*
X6268Y24347D01*
X6371Y24450D01*
X12125Y24450D01*
X12646Y23928D01*
X10971Y23928D01*
X10938Y24010D01*
X10868Y24080D01*
X10776Y24118D01*
X10676Y24118D01*
X10282Y24118D01*
X10198Y24244D01*
X9980Y24390D01*
X9722Y24441D01*
X9464Y24390D01*
X9245Y24244D01*
X9162Y24118D01*
X8668Y24118D01*
X8576Y24081D01*
X8506Y24010D01*
X8468Y23918D01*
X8468Y23911D01*
X8410Y23900D01*
X8288Y23819D01*
X7984Y23515D01*
X7903Y23393D01*
X7875Y23250D01*
X7875Y21500D01*
X7903Y21356D01*
X7984Y21234D01*
X8709Y20510D01*
X8709Y20510D01*
X8709Y20510D01*
X8875Y20344D01*
X8875Y18000D01*
X8903Y17856D01*
X8984Y17734D01*
X9269Y17450D01*
X9269Y17450D01*
X9390Y17369D01*
X9499Y17347D01*
X9535Y17259D01*
X9606Y17188D01*
X9697Y17150D01*
X9797Y17150D01*
X10191Y17150D01*
X10275Y17025D01*
X10493Y16879D01*
X10751Y16828D01*
X11009Y16879D01*
X11228Y17025D01*
X11311Y17150D01*
X11805Y17150D01*
X11875Y17179D01*
X11875Y14250D01*
X11903Y14106D01*
X11984Y13984D01*
X12264Y13705D01*
X12862Y13107D01*
X12862Y13107D01*
X13125Y12844D01*
X13125Y12405D01*
X13013Y12294D01*
X12997Y12333D01*
X12926Y12404D01*
X12835Y12442D01*
X12735Y12442D01*
X12341Y12442D01*
X12257Y12567D01*
X12039Y12713D01*
X11781Y12765D01*
X11523Y12713D01*
X11304Y12567D01*
X11221Y12442D01*
X10727Y12442D01*
X10635Y12404D01*
X10565Y12334D01*
X10531Y12252D01*
X9877Y12252D01*
X9784Y12234D01*
X9698Y12291D01*
X9555Y12319D01*
X4929Y12319D01*
X4895Y12401D01*
X4825Y12471D01*
X4733Y12509D01*
X4690Y12509D01*
X4690Y15318D01*
X4439Y15940D01*
X4420Y15970D01*
X4206Y16136D01*
X4136Y16065D01*
X4136Y16206D01*
X4136Y43793D01*
X3000Y44929D01*
X2929Y44858D01*
X2929Y45000D01*
X1793Y46136D01*
X1600Y45986D01*
X1600Y50250D01*
X1600Y50749D01*
X1562Y50841D01*
X1491Y50911D01*
X1399Y50949D01*
X1300Y50950D01*
X1087Y50950D01*
X1025Y50887D01*
X1025Y50550D01*
X1537Y50550D01*
X1600Y50612D01*
X1600Y50749D01*
X1600Y50250D01*
X1600Y50387D01*
X1537Y50450D01*
X1025Y50450D01*
X1025Y50112D01*
X1087Y50050D01*
X1300Y50049D01*
X1399Y50050D01*
X1491Y50088D01*
X1562Y50158D01*
X1600Y50250D01*
X1600Y45986D01*
X1579Y45970D01*
X1316Y45352D01*
X1309Y44681D01*
X1560Y44059D01*
X1579Y44029D01*
X1793Y43863D01*
X2929Y45000D01*
X2929Y44858D01*
X1863Y43793D01*
X2029Y43579D01*
X2647Y43316D01*
X3318Y43309D01*
X3940Y43560D01*
X3970Y43579D01*
X4136Y43793D01*
X4136Y16206D01*
X3970Y16420D01*
X3352Y16683D01*
X2681Y16690D01*
X2059Y16439D01*
X2029Y16420D01*
X1863Y16206D01*
X3000Y15070D01*
X4136Y16206D01*
X4136Y16065D01*
X3070Y15000D01*
X4206Y13863D01*
X4420Y14029D01*
X4683Y14647D01*
X4690Y15318D01*
X4690Y12509D01*
X4634Y12509D01*
X4239Y12509D01*
X4156Y12635D01*
X4096Y12674D01*
X4152Y12730D01*
X4224Y12905D01*
X4225Y13094D01*
X4152Y13268D01*
X4019Y13402D01*
X3844Y13474D01*
X3729Y13475D01*
X3940Y13560D01*
X3970Y13579D01*
X4136Y13793D01*
X3000Y14929D01*
X2929Y14858D01*
X2929Y15000D01*
X1793Y16136D01*
X1579Y15970D01*
X1316Y15352D01*
X1309Y14681D01*
X1560Y14059D01*
X1579Y14029D01*
X1793Y13863D01*
X2929Y15000D01*
X2929Y14858D01*
X1863Y13793D01*
X2029Y13579D01*
X2594Y13338D01*
X2484Y13265D01*
X1984Y12765D01*
X1903Y12643D01*
X1875Y12500D01*
X1875Y12250D01*
X1903Y12106D01*
X1984Y11984D01*
X2234Y11734D01*
X2234Y11734D01*
X2234Y11734D01*
X2289Y11679D01*
X2411Y11598D01*
X2425Y11595D01*
X2425Y11580D01*
X2463Y11488D01*
X2534Y11418D01*
X2625Y11379D01*
X2725Y11379D01*
X3119Y11379D01*
X3203Y11254D01*
X3421Y11108D01*
X3679Y11057D01*
X3937Y11108D01*
X4156Y11254D01*
X4239Y11379D01*
X4483Y11379D01*
X4495Y11377D01*
X4506Y11379D01*
X4733Y11379D01*
X4825Y11417D01*
X4895Y11488D01*
X4929Y11569D01*
X9310Y11569D01*
X9347Y11481D01*
X9480Y11347D01*
X9655Y11275D01*
X9844Y11274D01*
X10018Y11347D01*
X10152Y11480D01*
X10161Y11502D01*
X10531Y11502D01*
X10565Y11421D01*
X10635Y11350D01*
X10727Y11312D01*
X10826Y11312D01*
X11221Y11312D01*
X11304Y11187D01*
X11523Y11041D01*
X11781Y10989D01*
X12039Y11041D01*
X12257Y11187D01*
X12341Y11312D01*
X12834Y11312D01*
X12926Y11350D01*
X12996Y11420D01*
X13030Y11502D01*
X13127Y11502D01*
X13271Y11531D01*
X13392Y11612D01*
X13765Y11984D01*
X13846Y12106D01*
X13874Y12250D01*
X13875Y12250D01*
X13875Y13000D01*
X13846Y13143D01*
X13765Y13265D01*
X13392Y13637D01*
X13392Y13637D01*
X12794Y14235D01*
X12794Y14235D01*
X12625Y14405D01*
X12625Y17500D01*
X12596Y17643D01*
X12515Y17765D01*
X12515Y17765D01*
X12265Y18015D01*
X12143Y18096D01*
X12000Y18125D01*
X11987Y18125D01*
X11967Y18172D01*
X11897Y18242D01*
X11805Y18280D01*
X11706Y18280D01*
X11311Y18280D01*
X11228Y18406D01*
X11009Y18552D01*
X10751Y18603D01*
X10493Y18552D01*
X10275Y18406D01*
X10191Y18280D01*
X9698Y18280D01*
X9625Y18250D01*
X9625Y20500D01*
X9596Y20643D01*
X9515Y20765D01*
X9515Y20765D01*
X9239Y21040D01*
X9239Y21040D01*
X9239Y21040D01*
X8625Y21655D01*
X8625Y23007D01*
X8668Y22989D01*
X8767Y22988D01*
X9162Y22988D01*
X9245Y22863D01*
X9464Y22717D01*
X9722Y22666D01*
X9980Y22717D01*
X10198Y22863D01*
X10282Y22988D01*
X10775Y22988D01*
X10867Y23026D01*
X10938Y23097D01*
X10972Y23178D01*
X12540Y23178D01*
X13875Y21844D01*
X13875Y18000D01*
X13903Y17856D01*
X13984Y17734D01*
X15484Y16234D01*
X15484Y16234D01*
X15606Y16153D01*
X15750Y16125D01*
X21250Y16125D01*
X21393Y16153D01*
X21515Y16234D01*
X22375Y17094D01*
X22375Y16296D01*
X22347Y16269D01*
X22275Y16094D01*
X22274Y15905D01*
X22347Y15731D01*
X22480Y15597D01*
X22655Y15525D01*
X22844Y15524D01*
X23018Y15597D01*
X23152Y15730D01*
X23224Y15905D01*
X23225Y16094D01*
X23225Y8800D01*
X7554Y8800D01*
X7554Y9418D01*
X7543Y9636D01*
X7481Y9787D01*
X7385Y9815D01*
X7315Y9744D01*
X7315Y9885D01*
X7287Y9981D01*
X7081Y10054D01*
X6863Y10043D01*
X6712Y9981D01*
X6684Y9885D01*
X7000Y9570D01*
X7315Y9885D01*
X7315Y9744D01*
X7070Y9500D01*
X7385Y9184D01*
X7481Y9212D01*
X7554Y9418D01*
X7554Y8800D01*
X7471Y8800D01*
X7466Y8811D01*
X7311Y8965D01*
X7236Y8997D01*
X7287Y9018D01*
X7315Y9114D01*
X7000Y9429D01*
X6929Y9358D01*
X6929Y9500D01*
X6614Y9815D01*
X6518Y9787D01*
X6445Y9581D01*
X6456Y9363D01*
X6518Y9212D01*
X6614Y9184D01*
X6929Y9500D01*
X6929Y9358D01*
X6684Y9114D01*
X6712Y9018D01*
X6767Y8999D01*
X6688Y8966D01*
X6597Y8875D01*
X5650Y8875D01*
X5650Y9250D01*
X5650Y9749D01*
X5612Y9841D01*
X5541Y9911D01*
X5449Y9949D01*
X5350Y9950D01*
X5137Y9950D01*
X5075Y9887D01*
X5075Y9550D01*
X5587Y9550D01*
X5650Y9612D01*
X5650Y9749D01*
X5650Y9250D01*
X5650Y9387D01*
X5587Y9450D01*
X5075Y9450D01*
X5075Y9112D01*
X5137Y9050D01*
X5350Y9049D01*
X5449Y9050D01*
X5541Y9088D01*
X5612Y9158D01*
X5650Y9250D01*
X5650Y8875D01*
X5578Y8875D01*
X5541Y8911D01*
X5449Y8949D01*
X5350Y8950D01*
X4975Y8950D01*
X4975Y9112D01*
X4975Y9450D01*
X4975Y9550D01*
X4975Y9887D01*
X4912Y9950D01*
X4699Y9950D01*
X4600Y9949D01*
X4508Y9911D01*
X4437Y9841D01*
X4399Y9749D01*
X4400Y9612D01*
X4462Y9550D01*
X4975Y9550D01*
X4975Y9450D01*
X4462Y9450D01*
X4400Y9387D01*
X4399Y9250D01*
X4437Y9158D01*
X4508Y9088D01*
X4600Y9050D01*
X4699Y9049D01*
X4912Y9050D01*
X4975Y9112D01*
X4975Y8950D01*
X4600Y8950D01*
X4508Y8912D01*
X4471Y8875D01*
X1600Y8875D01*
X1600Y9250D01*
X1600Y9749D01*
X1562Y9841D01*
X1491Y9911D01*
X1399Y9949D01*
X1300Y9950D01*
X1087Y9950D01*
X1025Y9887D01*
X1025Y9550D01*
X1537Y9550D01*
X1600Y9612D01*
X1600Y9749D01*
X1600Y9250D01*
X1600Y9387D01*
X1537Y9450D01*
X1025Y9450D01*
X1025Y9112D01*
X1087Y9050D01*
X1300Y9049D01*
X1399Y9050D01*
X1491Y9088D01*
X1562Y9158D01*
X1600Y9250D01*
X1600Y8875D01*
X1528Y8875D01*
X1491Y8911D01*
X1399Y8949D01*
X1300Y8950D01*
X925Y8950D01*
X925Y9112D01*
X925Y9450D01*
X925Y9550D01*
X925Y9887D01*
X925Y50112D01*
X925Y50450D01*
X925Y50550D01*
X925Y50887D01*
X862Y50950D01*
X649Y50950D01*
X550Y50949D01*
X458Y50911D01*
X387Y50841D01*
X349Y50749D01*
X350Y50612D01*
X412Y50550D01*
X925Y50550D01*
X925Y50450D01*
X412Y50450D01*
X350Y50387D01*
X349Y50250D01*
X387Y50158D01*
X458Y50088D01*
X550Y50050D01*
X649Y50049D01*
X862Y50050D01*
X925Y50112D01*
X925Y9887D01*
X862Y9950D01*
X649Y9950D01*
X550Y9949D01*
X458Y9911D01*
X387Y9841D01*
X349Y9749D01*
X350Y9612D01*
X412Y9550D01*
X925Y9550D01*
X925Y9450D01*
X412Y9450D01*
X350Y9387D01*
X349Y9250D01*
X387Y9158D01*
X458Y9088D01*
X550Y9050D01*
X649Y9049D01*
X862Y9050D01*
X925Y9112D01*
X925Y8950D01*
X550Y8950D01*
X458Y8912D01*
X401Y8855D01*
X356Y8846D01*
X269Y8788D01*
X269Y51211D01*
X356Y51153D01*
X401Y51144D01*
X458Y51088D01*
X550Y51050D01*
X649Y51049D01*
X1399Y51049D01*
X1491Y51087D01*
X1528Y51125D01*
X4471Y51125D01*
X4508Y51088D01*
X4600Y51050D01*
X4699Y51049D01*
X5449Y51049D01*
X5541Y51087D01*
X5578Y51125D01*
X6597Y51125D01*
X6672Y51049D01*
X6650Y51049D01*
X6558Y51011D01*
X6487Y50941D01*
X6449Y50849D01*
X6450Y50612D01*
X6512Y50550D01*
X6950Y50550D01*
X6950Y50557D01*
X7050Y50557D01*
X7050Y50550D01*
X7487Y50550D01*
X7550Y50612D01*
X7550Y50849D01*
X7512Y50941D01*
X7441Y51011D01*
X7349Y51049D01*
X7327Y51049D01*
X7465Y51188D01*
X7470Y51200D01*
X19878Y51200D01*
X19980Y51097D01*
X20155Y51025D01*
X20344Y51024D01*
X20518Y51097D01*
X20621Y51200D01*
X34528Y51200D01*
X34533Y51188D01*
X34688Y51034D01*
X34763Y51002D01*
X34712Y50981D01*
X34684Y50885D01*
X35000Y50570D01*
X35315Y50885D01*
X35287Y50981D01*
X35232Y51000D01*
X35311Y51033D01*
X35402Y51125D01*
X36421Y51125D01*
X36458Y51088D01*
X36550Y51050D01*
X36649Y51049D01*
X37399Y51049D01*
X37491Y51087D01*
X37528Y51125D01*
X40471Y51125D01*
X40508Y51088D01*
X40600Y51050D01*
X40699Y51049D01*
X41449Y51049D01*
X41541Y51087D01*
X41598Y51144D01*
X41643Y51153D01*
X41730Y51211D01*
X41730Y8788D01*
M02*
