G04 (created by PCBNEW (2013-07-07 BZR 4022)-stable) date 10/26/2014 6:34:32 PM*
%MOIN*%
G04 Gerber Fmt 3.4, Leading zero omitted, Abs format*
%FSLAX34Y34*%
G01*
G70*
G90*
G04 APERTURE LIST*
%ADD10C,0.01*%
%ADD11C,0.015*%
%ADD12C,0.005*%
%ADD13R,0.0652X0.073*%
%ADD14R,0.0534X0.0494*%
%ADD15C,0.301402*%
%ADD16R,0.074X0.074*%
%ADD17C,0.074*%
%ADD18R,0.104551X0.234472*%
%ADD19R,0.089X0.054*%
%ADD20R,0.034X0.108*%
%ADD21R,0.0651811X0.0769921*%
%ADD22O,0.0987402X0.13811*%
G04 APERTURE END LIST*
G54D10*
G54D11*
X16076Y13476D02*
X16342Y12676D01*
X16609Y13476D01*
X17257Y12676D02*
X16876Y12676D01*
X16876Y13476D01*
X17523Y13095D02*
X17790Y13095D01*
X17904Y12676D02*
X17523Y12676D01*
X17523Y13476D01*
X17904Y13476D01*
X18247Y12676D02*
X18247Y13476D01*
X18438Y13476D01*
X18552Y13438D01*
X18628Y13361D01*
X18666Y13285D01*
X18704Y13133D01*
X18704Y13019D01*
X18666Y12866D01*
X18628Y12790D01*
X18552Y12714D01*
X18438Y12676D01*
X18247Y12676D01*
X19657Y13095D02*
X20266Y13095D01*
X20266Y12866D02*
X19657Y12866D01*
X21676Y12676D02*
X21219Y12676D01*
X21447Y12676D02*
X21447Y13476D01*
X21371Y13361D01*
X21295Y13285D01*
X21219Y13247D01*
X21980Y13400D02*
X22019Y13438D01*
X22095Y13476D01*
X22285Y13476D01*
X22361Y13438D01*
X22399Y13400D01*
X22438Y13323D01*
X22438Y13247D01*
X22399Y13133D01*
X21942Y12676D01*
X22438Y12676D01*
X23276Y13476D02*
X23542Y12676D01*
X23809Y13476D01*
X24685Y12980D02*
X25295Y12980D01*
X26247Y13400D02*
X26285Y13438D01*
X26361Y13476D01*
X26552Y13476D01*
X26628Y13438D01*
X26666Y13400D01*
X26704Y13323D01*
X26704Y13247D01*
X26666Y13133D01*
X26209Y12676D01*
X26704Y12676D01*
X27199Y13476D02*
X27276Y13476D01*
X27352Y13438D01*
X27390Y13400D01*
X27428Y13323D01*
X27466Y13171D01*
X27466Y12980D01*
X27428Y12828D01*
X27390Y12752D01*
X27352Y12714D01*
X27276Y12676D01*
X27199Y12676D01*
X27123Y12714D01*
X27085Y12752D01*
X27047Y12828D01*
X27009Y12980D01*
X27009Y13171D01*
X27047Y13323D01*
X27085Y13400D01*
X27123Y13438D01*
X27199Y13476D01*
X27695Y13476D02*
X27961Y12676D01*
X28228Y13476D01*
X16076Y12206D02*
X16342Y11406D01*
X16609Y12206D01*
X17333Y11482D02*
X17295Y11444D01*
X17180Y11406D01*
X17104Y11406D01*
X16990Y11444D01*
X16914Y11520D01*
X16876Y11596D01*
X16838Y11749D01*
X16838Y11863D01*
X16876Y12015D01*
X16914Y12091D01*
X16990Y12168D01*
X17104Y12206D01*
X17180Y12206D01*
X17295Y12168D01*
X17333Y12130D01*
X18133Y11482D02*
X18095Y11444D01*
X17980Y11406D01*
X17904Y11406D01*
X17790Y11444D01*
X17714Y11520D01*
X17676Y11596D01*
X17638Y11749D01*
X17638Y11863D01*
X17676Y12015D01*
X17714Y12091D01*
X17790Y12168D01*
X17904Y12206D01*
X17980Y12206D01*
X18095Y12168D01*
X18133Y12130D01*
X19695Y11825D02*
X20304Y11825D01*
X20304Y11596D02*
X19695Y11596D01*
X21219Y12206D02*
X21714Y12206D01*
X21447Y11901D01*
X21561Y11901D01*
X21638Y11863D01*
X21676Y11825D01*
X21714Y11749D01*
X21714Y11558D01*
X21676Y11482D01*
X21638Y11444D01*
X21561Y11406D01*
X21333Y11406D01*
X21257Y11444D01*
X21219Y11482D01*
X22057Y11482D02*
X22095Y11444D01*
X22057Y11406D01*
X22019Y11444D01*
X22057Y11482D01*
X22057Y11406D01*
X22590Y12206D02*
X22666Y12206D01*
X22742Y12168D01*
X22780Y12130D01*
X22819Y12053D01*
X22857Y11901D01*
X22857Y11710D01*
X22819Y11558D01*
X22780Y11482D01*
X22742Y11444D01*
X22666Y11406D01*
X22590Y11406D01*
X22514Y11444D01*
X22476Y11482D01*
X22438Y11558D01*
X22399Y11710D01*
X22399Y11901D01*
X22438Y12053D01*
X22476Y12130D01*
X22514Y12168D01*
X22590Y12206D01*
X23695Y12206D02*
X23961Y11406D01*
X24228Y12206D01*
X25104Y11710D02*
X25714Y11710D01*
X27085Y12206D02*
X26704Y12206D01*
X26666Y11825D01*
X26704Y11863D01*
X26780Y11901D01*
X26971Y11901D01*
X27047Y11863D01*
X27085Y11825D01*
X27123Y11749D01*
X27123Y11558D01*
X27085Y11482D01*
X27047Y11444D01*
X26971Y11406D01*
X26780Y11406D01*
X26704Y11444D01*
X26666Y11482D01*
X27466Y11482D02*
X27504Y11444D01*
X27466Y11406D01*
X27428Y11444D01*
X27466Y11482D01*
X27466Y11406D01*
X28228Y12206D02*
X27847Y12206D01*
X27809Y11825D01*
X27847Y11863D01*
X27923Y11901D01*
X28114Y11901D01*
X28190Y11863D01*
X28228Y11825D01*
X28266Y11749D01*
X28266Y11558D01*
X28228Y11482D01*
X28190Y11444D01*
X28114Y11406D01*
X27923Y11406D01*
X27847Y11444D01*
X27809Y11482D01*
X28495Y12206D02*
X28761Y11406D01*
X29028Y12206D01*
G54D10*
X13000Y17000D02*
X14000Y12500D01*
X11500Y23500D02*
X11000Y24000D01*
X12500Y19000D02*
X11500Y23500D01*
X31000Y7000D02*
X31500Y6500D01*
X26000Y7000D02*
X31000Y7000D01*
X19000Y7000D02*
X24500Y7000D01*
X18500Y6500D02*
X19000Y7000D01*
X31914Y57857D02*
X32114Y57257D01*
X32314Y57857D01*
X32800Y57257D02*
X32514Y57257D01*
X32514Y57857D01*
X33000Y57571D02*
X33200Y57571D01*
X33285Y57257D02*
X33000Y57257D01*
X33000Y57857D01*
X33285Y57857D01*
X33542Y57257D02*
X33542Y57857D01*
X33685Y57857D01*
X33771Y57828D01*
X33828Y57771D01*
X33857Y57714D01*
X33885Y57600D01*
X33885Y57514D01*
X33857Y57400D01*
X33828Y57342D01*
X33771Y57285D01*
X33685Y57257D01*
X33542Y57257D01*
X32342Y56857D02*
X32542Y56257D01*
X32742Y56857D01*
X33285Y56314D02*
X33257Y56285D01*
X33171Y56257D01*
X33114Y56257D01*
X33028Y56285D01*
X32971Y56342D01*
X32942Y56400D01*
X32914Y56514D01*
X32914Y56600D01*
X32942Y56714D01*
X32971Y56771D01*
X33028Y56828D01*
X33114Y56857D01*
X33171Y56857D01*
X33257Y56828D01*
X33285Y56800D01*
X33885Y56314D02*
X33857Y56285D01*
X33771Y56257D01*
X33714Y56257D01*
X33628Y56285D01*
X33571Y56342D01*
X33542Y56400D01*
X33514Y56514D01*
X33514Y56600D01*
X33542Y56714D01*
X33571Y56771D01*
X33628Y56828D01*
X33714Y56857D01*
X33771Y56857D01*
X33857Y56828D01*
X33885Y56800D01*
X31285Y55285D02*
X31371Y55257D01*
X31514Y55257D01*
X31571Y55285D01*
X31599Y55314D01*
X31628Y55371D01*
X31628Y55428D01*
X31599Y55485D01*
X31571Y55514D01*
X31514Y55542D01*
X31399Y55571D01*
X31342Y55600D01*
X31314Y55628D01*
X31285Y55685D01*
X31285Y55742D01*
X31314Y55800D01*
X31342Y55828D01*
X31399Y55857D01*
X31542Y55857D01*
X31628Y55828D01*
X31885Y55257D02*
X31885Y55857D01*
X32114Y55857D01*
X32171Y55828D01*
X32200Y55800D01*
X32228Y55742D01*
X32228Y55657D01*
X32200Y55600D01*
X32171Y55571D01*
X32114Y55542D01*
X31885Y55542D01*
X32457Y55428D02*
X32742Y55428D01*
X32400Y55257D02*
X32600Y55857D01*
X32800Y55257D01*
X33342Y55257D02*
X33142Y55542D01*
X33000Y55257D02*
X33000Y55857D01*
X33228Y55857D01*
X33285Y55828D01*
X33314Y55800D01*
X33342Y55742D01*
X33342Y55657D01*
X33314Y55600D01*
X33285Y55571D01*
X33228Y55542D01*
X33000Y55542D01*
X33600Y55571D02*
X33800Y55571D01*
X33885Y55257D02*
X33600Y55257D01*
X33600Y55857D01*
X33885Y55857D01*
X32657Y54285D02*
X32742Y54257D01*
X32885Y54257D01*
X32942Y54285D01*
X32971Y54314D01*
X33000Y54371D01*
X33000Y54428D01*
X32971Y54485D01*
X32942Y54514D01*
X32885Y54542D01*
X32771Y54571D01*
X32714Y54600D01*
X32685Y54628D01*
X32657Y54685D01*
X32657Y54742D01*
X32685Y54800D01*
X32714Y54828D01*
X32771Y54857D01*
X32914Y54857D01*
X33000Y54828D01*
X33257Y54257D02*
X33257Y54857D01*
X33400Y54857D01*
X33485Y54828D01*
X33542Y54771D01*
X33571Y54714D01*
X33600Y54600D01*
X33600Y54514D01*
X33571Y54400D01*
X33542Y54342D01*
X33485Y54285D01*
X33400Y54257D01*
X33257Y54257D01*
X33857Y54257D02*
X33857Y54857D01*
X32800Y53314D02*
X32771Y53285D01*
X32685Y53257D01*
X32628Y53257D01*
X32542Y53285D01*
X32485Y53342D01*
X32457Y53400D01*
X32428Y53514D01*
X32428Y53600D01*
X32457Y53714D01*
X32485Y53771D01*
X32542Y53828D01*
X32628Y53857D01*
X32685Y53857D01*
X32771Y53828D01*
X32800Y53800D01*
X33342Y53257D02*
X33057Y53257D01*
X33057Y53857D01*
X33542Y53257D02*
X33542Y53857D01*
X33885Y53257D02*
X33628Y53600D01*
X33885Y53857D02*
X33542Y53514D01*
X33400Y52257D02*
X33114Y52257D01*
X33114Y52857D01*
X33600Y52571D02*
X33800Y52571D01*
X33885Y52257D02*
X33600Y52257D01*
X33600Y52857D01*
X33885Y52857D01*
X33085Y51857D02*
X33200Y51857D01*
X33257Y51828D01*
X33314Y51771D01*
X33342Y51657D01*
X33342Y51457D01*
X33314Y51342D01*
X33257Y51285D01*
X33200Y51257D01*
X33085Y51257D01*
X33028Y51285D01*
X32971Y51342D01*
X32942Y51457D01*
X32942Y51657D01*
X32971Y51771D01*
X33028Y51828D01*
X33085Y51857D01*
X33600Y51571D02*
X33800Y51571D01*
X33885Y51257D02*
X33600Y51257D01*
X33600Y51857D01*
X33885Y51857D01*
X32828Y52010D02*
X34000Y52010D01*
X32628Y50828D02*
X32571Y50857D01*
X32485Y50857D01*
X32400Y50828D01*
X32342Y50771D01*
X32314Y50714D01*
X32285Y50600D01*
X32285Y50514D01*
X32314Y50400D01*
X32342Y50342D01*
X32400Y50285D01*
X32485Y50257D01*
X32542Y50257D01*
X32628Y50285D01*
X32657Y50314D01*
X32657Y50514D01*
X32542Y50514D01*
X32914Y50257D02*
X32914Y50857D01*
X33257Y50257D01*
X33257Y50857D01*
X33542Y50257D02*
X33542Y50857D01*
X33685Y50857D01*
X33771Y50828D01*
X33828Y50771D01*
X33857Y50714D01*
X33885Y50600D01*
X33885Y50514D01*
X33857Y50400D01*
X33828Y50342D01*
X33771Y50285D01*
X33685Y50257D01*
X33542Y50257D01*
X32628Y9828D02*
X32571Y9857D01*
X32485Y9857D01*
X32400Y9828D01*
X32342Y9771D01*
X32314Y9714D01*
X32285Y9600D01*
X32285Y9514D01*
X32314Y9400D01*
X32342Y9342D01*
X32400Y9285D01*
X32485Y9257D01*
X32542Y9257D01*
X32628Y9285D01*
X32657Y9314D01*
X32657Y9514D01*
X32542Y9514D01*
X32914Y9257D02*
X32914Y9857D01*
X33257Y9257D01*
X33257Y9857D01*
X33542Y9257D02*
X33542Y9857D01*
X33685Y9857D01*
X33771Y9828D01*
X33828Y9771D01*
X33857Y9714D01*
X33885Y9600D01*
X33885Y9514D01*
X33857Y9400D01*
X33828Y9342D01*
X33771Y9285D01*
X33685Y9257D01*
X33542Y9257D01*
X33085Y8857D02*
X33200Y8857D01*
X33257Y8828D01*
X33314Y8771D01*
X33342Y8657D01*
X33342Y8457D01*
X33314Y8342D01*
X33257Y8285D01*
X33200Y8257D01*
X33085Y8257D01*
X33028Y8285D01*
X32971Y8342D01*
X32942Y8457D01*
X32942Y8657D01*
X32971Y8771D01*
X33028Y8828D01*
X33085Y8857D01*
X33600Y8571D02*
X33800Y8571D01*
X33885Y8257D02*
X33600Y8257D01*
X33600Y8857D01*
X33885Y8857D01*
X32828Y9010D02*
X34000Y9010D01*
X33400Y7257D02*
X33114Y7257D01*
X33114Y7857D01*
X33600Y7571D02*
X33800Y7571D01*
X33885Y7257D02*
X33600Y7257D01*
X33600Y7857D01*
X33885Y7857D01*
X32800Y6314D02*
X32771Y6285D01*
X32685Y6257D01*
X32628Y6257D01*
X32542Y6285D01*
X32485Y6342D01*
X32457Y6400D01*
X32428Y6514D01*
X32428Y6600D01*
X32457Y6714D01*
X32485Y6771D01*
X32542Y6828D01*
X32628Y6857D01*
X32685Y6857D01*
X32771Y6828D01*
X32800Y6800D01*
X33342Y6257D02*
X33057Y6257D01*
X33057Y6857D01*
X33542Y6257D02*
X33542Y6857D01*
X33885Y6257D02*
X33628Y6600D01*
X33885Y6857D02*
X33542Y6514D01*
X32314Y5285D02*
X32400Y5257D01*
X32542Y5257D01*
X32600Y5285D01*
X32628Y5314D01*
X32657Y5371D01*
X32657Y5428D01*
X32628Y5485D01*
X32600Y5514D01*
X32542Y5542D01*
X32428Y5571D01*
X32371Y5600D01*
X32342Y5628D01*
X32314Y5685D01*
X32314Y5742D01*
X32342Y5800D01*
X32371Y5828D01*
X32428Y5857D01*
X32571Y5857D01*
X32657Y5828D01*
X32914Y5257D02*
X32914Y5857D01*
X33057Y5857D01*
X33142Y5828D01*
X33200Y5771D01*
X33228Y5714D01*
X33257Y5600D01*
X33257Y5514D01*
X33228Y5400D01*
X33200Y5342D01*
X33142Y5285D01*
X33057Y5257D01*
X32914Y5257D01*
X33628Y5857D02*
X33742Y5857D01*
X33800Y5828D01*
X33857Y5771D01*
X33885Y5657D01*
X33885Y5457D01*
X33857Y5342D01*
X33800Y5285D01*
X33742Y5257D01*
X33628Y5257D01*
X33571Y5285D01*
X33514Y5342D01*
X33485Y5457D01*
X33485Y5657D01*
X33514Y5771D01*
X33571Y5828D01*
X33628Y5857D01*
X31285Y4285D02*
X31371Y4257D01*
X31514Y4257D01*
X31571Y4285D01*
X31599Y4314D01*
X31628Y4371D01*
X31628Y4428D01*
X31599Y4485D01*
X31571Y4514D01*
X31514Y4542D01*
X31399Y4571D01*
X31342Y4600D01*
X31314Y4628D01*
X31285Y4685D01*
X31285Y4742D01*
X31314Y4800D01*
X31342Y4828D01*
X31399Y4857D01*
X31542Y4857D01*
X31628Y4828D01*
X31885Y4257D02*
X31885Y4857D01*
X32114Y4857D01*
X32171Y4828D01*
X32200Y4800D01*
X32228Y4742D01*
X32228Y4657D01*
X32200Y4600D01*
X32171Y4571D01*
X32114Y4542D01*
X31885Y4542D01*
X32457Y4428D02*
X32742Y4428D01*
X32400Y4257D02*
X32600Y4857D01*
X32800Y4257D01*
X33342Y4257D02*
X33142Y4542D01*
X33000Y4257D02*
X33000Y4857D01*
X33228Y4857D01*
X33285Y4828D01*
X33314Y4800D01*
X33342Y4742D01*
X33342Y4657D01*
X33314Y4600D01*
X33285Y4571D01*
X33228Y4542D01*
X33000Y4542D01*
X33600Y4571D02*
X33800Y4571D01*
X33885Y4257D02*
X33600Y4257D01*
X33600Y4857D01*
X33885Y4857D01*
X32342Y3857D02*
X32542Y3257D01*
X32742Y3857D01*
X33285Y3314D02*
X33257Y3285D01*
X33171Y3257D01*
X33114Y3257D01*
X33028Y3285D01*
X32971Y3342D01*
X32942Y3400D01*
X32914Y3514D01*
X32914Y3600D01*
X32942Y3714D01*
X32971Y3771D01*
X33028Y3828D01*
X33114Y3857D01*
X33171Y3857D01*
X33257Y3828D01*
X33285Y3800D01*
X33885Y3314D02*
X33857Y3285D01*
X33771Y3257D01*
X33714Y3257D01*
X33628Y3285D01*
X33571Y3342D01*
X33542Y3400D01*
X33514Y3514D01*
X33514Y3600D01*
X33542Y3714D01*
X33571Y3771D01*
X33628Y3828D01*
X33714Y3857D01*
X33771Y3857D01*
X33857Y3828D01*
X33885Y3800D01*
X31914Y2857D02*
X32114Y2257D01*
X32314Y2857D01*
X32800Y2257D02*
X32514Y2257D01*
X32514Y2857D01*
X33000Y2571D02*
X33200Y2571D01*
X33285Y2257D02*
X33000Y2257D01*
X33000Y2857D01*
X33285Y2857D01*
X33542Y2257D02*
X33542Y2857D01*
X33685Y2857D01*
X33771Y2828D01*
X33828Y2771D01*
X33857Y2714D01*
X33885Y2600D01*
X33885Y2514D01*
X33857Y2400D01*
X33828Y2342D01*
X33771Y2285D01*
X33685Y2257D01*
X33542Y2257D01*
X10500Y52500D02*
X10000Y53000D01*
X23500Y52500D02*
X24000Y53000D01*
X8457Y50828D02*
X8400Y50857D01*
X8314Y50857D01*
X8228Y50828D01*
X8171Y50771D01*
X8142Y50714D01*
X8114Y50600D01*
X8114Y50514D01*
X8142Y50400D01*
X8171Y50342D01*
X8228Y50285D01*
X8314Y50257D01*
X8371Y50257D01*
X8457Y50285D01*
X8485Y50314D01*
X8485Y50514D01*
X8371Y50514D01*
X8742Y50257D02*
X8742Y50857D01*
X9085Y50257D01*
X9085Y50857D01*
X9371Y50257D02*
X9371Y50857D01*
X9514Y50857D01*
X9600Y50828D01*
X9657Y50771D01*
X9685Y50714D01*
X9714Y50600D01*
X9714Y50514D01*
X9685Y50400D01*
X9657Y50342D01*
X9600Y50285D01*
X9514Y50257D01*
X9371Y50257D01*
X8257Y51857D02*
X8371Y51857D01*
X8428Y51828D01*
X8485Y51771D01*
X8514Y51657D01*
X8514Y51457D01*
X8485Y51342D01*
X8428Y51285D01*
X8371Y51257D01*
X8257Y51257D01*
X8200Y51285D01*
X8142Y51342D01*
X8114Y51457D01*
X8114Y51657D01*
X8142Y51771D01*
X8200Y51828D01*
X8257Y51857D01*
X8771Y51571D02*
X8971Y51571D01*
X9057Y51257D02*
X8771Y51257D01*
X8771Y51857D01*
X9057Y51857D01*
X8000Y52010D02*
X9171Y52010D01*
X8428Y52257D02*
X8142Y52257D01*
X8142Y52857D01*
X8628Y52571D02*
X8828Y52571D01*
X8914Y52257D02*
X8628Y52257D01*
X8628Y52857D01*
X8914Y52857D01*
X8485Y53314D02*
X8457Y53285D01*
X8371Y53257D01*
X8314Y53257D01*
X8228Y53285D01*
X8171Y53342D01*
X8142Y53400D01*
X8114Y53514D01*
X8114Y53600D01*
X8142Y53714D01*
X8171Y53771D01*
X8228Y53828D01*
X8314Y53857D01*
X8371Y53857D01*
X8457Y53828D01*
X8485Y53800D01*
X9028Y53257D02*
X8742Y53257D01*
X8742Y53857D01*
X9228Y53257D02*
X9228Y53857D01*
X9571Y53257D02*
X9314Y53600D01*
X9571Y53857D02*
X9228Y53514D01*
X8114Y54285D02*
X8200Y54257D01*
X8342Y54257D01*
X8400Y54285D01*
X8428Y54314D01*
X8457Y54371D01*
X8457Y54428D01*
X8428Y54485D01*
X8400Y54514D01*
X8342Y54542D01*
X8228Y54571D01*
X8171Y54600D01*
X8142Y54628D01*
X8114Y54685D01*
X8114Y54742D01*
X8142Y54800D01*
X8171Y54828D01*
X8228Y54857D01*
X8371Y54857D01*
X8457Y54828D01*
X8714Y54257D02*
X8714Y54857D01*
X8857Y54857D01*
X8942Y54828D01*
X9000Y54771D01*
X9028Y54714D01*
X9057Y54600D01*
X9057Y54514D01*
X9028Y54400D01*
X9000Y54342D01*
X8942Y54285D01*
X8857Y54257D01*
X8714Y54257D01*
X9428Y54857D02*
X9542Y54857D01*
X9600Y54828D01*
X9657Y54771D01*
X9685Y54657D01*
X9685Y54457D01*
X9657Y54342D01*
X9600Y54285D01*
X9542Y54257D01*
X9428Y54257D01*
X9371Y54285D01*
X9314Y54342D01*
X9285Y54457D01*
X9285Y54657D01*
X9314Y54771D01*
X9371Y54828D01*
X9428Y54857D01*
X8114Y55285D02*
X8200Y55257D01*
X8342Y55257D01*
X8400Y55285D01*
X8428Y55314D01*
X8457Y55371D01*
X8457Y55428D01*
X8428Y55485D01*
X8400Y55514D01*
X8342Y55542D01*
X8228Y55571D01*
X8171Y55600D01*
X8142Y55628D01*
X8114Y55685D01*
X8114Y55742D01*
X8142Y55800D01*
X8171Y55828D01*
X8228Y55857D01*
X8371Y55857D01*
X8457Y55828D01*
X8714Y55257D02*
X8714Y55857D01*
X8942Y55857D01*
X9000Y55828D01*
X9028Y55800D01*
X9057Y55742D01*
X9057Y55657D01*
X9028Y55600D01*
X9000Y55571D01*
X8942Y55542D01*
X8714Y55542D01*
X9285Y55428D02*
X9571Y55428D01*
X9228Y55257D02*
X9428Y55857D01*
X9628Y55257D01*
X10171Y55257D02*
X9971Y55542D01*
X9828Y55257D02*
X9828Y55857D01*
X10057Y55857D01*
X10114Y55828D01*
X10142Y55800D01*
X10171Y55742D01*
X10171Y55657D01*
X10142Y55600D01*
X10114Y55571D01*
X10057Y55542D01*
X9828Y55542D01*
X10428Y55571D02*
X10628Y55571D01*
X10714Y55257D02*
X10428Y55257D01*
X10428Y55857D01*
X10714Y55857D01*
X8057Y56857D02*
X8257Y56257D01*
X8457Y56857D01*
X9000Y56314D02*
X8971Y56285D01*
X8885Y56257D01*
X8828Y56257D01*
X8742Y56285D01*
X8685Y56342D01*
X8657Y56400D01*
X8628Y56514D01*
X8628Y56600D01*
X8657Y56714D01*
X8685Y56771D01*
X8742Y56828D01*
X8828Y56857D01*
X8885Y56857D01*
X8971Y56828D01*
X9000Y56800D01*
X9600Y56314D02*
X9571Y56285D01*
X9485Y56257D01*
X9428Y56257D01*
X9342Y56285D01*
X9285Y56342D01*
X9257Y56400D01*
X9228Y56514D01*
X9228Y56600D01*
X9257Y56714D01*
X9285Y56771D01*
X9342Y56828D01*
X9428Y56857D01*
X9485Y56857D01*
X9571Y56828D01*
X9600Y56800D01*
X8057Y57857D02*
X8257Y57257D01*
X8457Y57857D01*
X8942Y57257D02*
X8657Y57257D01*
X8657Y57857D01*
X9142Y57571D02*
X9342Y57571D01*
X9428Y57257D02*
X9142Y57257D01*
X9142Y57857D01*
X9428Y57857D01*
X9685Y57257D02*
X9685Y57857D01*
X9828Y57857D01*
X9914Y57828D01*
X9971Y57771D01*
X10000Y57714D01*
X10028Y57600D01*
X10028Y57514D01*
X10000Y57400D01*
X9971Y57342D01*
X9914Y57285D01*
X9828Y57257D01*
X9685Y57257D01*
X8057Y2857D02*
X8257Y2257D01*
X8457Y2857D01*
X8942Y2257D02*
X8657Y2257D01*
X8657Y2857D01*
X9142Y2571D02*
X9342Y2571D01*
X9428Y2257D02*
X9142Y2257D01*
X9142Y2857D01*
X9428Y2857D01*
X9685Y2257D02*
X9685Y2857D01*
X9828Y2857D01*
X9914Y2828D01*
X9971Y2771D01*
X10000Y2714D01*
X10028Y2600D01*
X10028Y2514D01*
X10000Y2400D01*
X9971Y2342D01*
X9914Y2285D01*
X9828Y2257D01*
X9685Y2257D01*
X8057Y3857D02*
X8257Y3257D01*
X8457Y3857D01*
X9000Y3314D02*
X8971Y3285D01*
X8885Y3257D01*
X8828Y3257D01*
X8742Y3285D01*
X8685Y3342D01*
X8657Y3400D01*
X8628Y3514D01*
X8628Y3600D01*
X8657Y3714D01*
X8685Y3771D01*
X8742Y3828D01*
X8828Y3857D01*
X8885Y3857D01*
X8971Y3828D01*
X9000Y3800D01*
X9600Y3314D02*
X9571Y3285D01*
X9485Y3257D01*
X9428Y3257D01*
X9342Y3285D01*
X9285Y3342D01*
X9257Y3400D01*
X9228Y3514D01*
X9228Y3600D01*
X9257Y3714D01*
X9285Y3771D01*
X9342Y3828D01*
X9428Y3857D01*
X9485Y3857D01*
X9571Y3828D01*
X9600Y3800D01*
X8114Y4285D02*
X8200Y4257D01*
X8342Y4257D01*
X8400Y4285D01*
X8428Y4314D01*
X8457Y4371D01*
X8457Y4428D01*
X8428Y4485D01*
X8400Y4514D01*
X8342Y4542D01*
X8228Y4571D01*
X8171Y4600D01*
X8142Y4628D01*
X8114Y4685D01*
X8114Y4742D01*
X8142Y4800D01*
X8171Y4828D01*
X8228Y4857D01*
X8371Y4857D01*
X8457Y4828D01*
X8714Y4257D02*
X8714Y4857D01*
X8942Y4857D01*
X9000Y4828D01*
X9028Y4800D01*
X9057Y4742D01*
X9057Y4657D01*
X9028Y4600D01*
X9000Y4571D01*
X8942Y4542D01*
X8714Y4542D01*
X9285Y4428D02*
X9571Y4428D01*
X9228Y4257D02*
X9428Y4857D01*
X9628Y4257D01*
X10171Y4257D02*
X9971Y4542D01*
X9828Y4257D02*
X9828Y4857D01*
X10057Y4857D01*
X10114Y4828D01*
X10142Y4800D01*
X10171Y4742D01*
X10171Y4657D01*
X10142Y4600D01*
X10114Y4571D01*
X10057Y4542D01*
X9828Y4542D01*
X10428Y4571D02*
X10628Y4571D01*
X10714Y4257D02*
X10428Y4257D01*
X10428Y4857D01*
X10714Y4857D01*
X8114Y5285D02*
X8200Y5257D01*
X8342Y5257D01*
X8400Y5285D01*
X8428Y5314D01*
X8457Y5371D01*
X8457Y5428D01*
X8428Y5485D01*
X8400Y5514D01*
X8342Y5542D01*
X8228Y5571D01*
X8171Y5600D01*
X8142Y5628D01*
X8114Y5685D01*
X8114Y5742D01*
X8142Y5800D01*
X8171Y5828D01*
X8228Y5857D01*
X8371Y5857D01*
X8457Y5828D01*
X8714Y5257D02*
X8714Y5857D01*
X8857Y5857D01*
X8942Y5828D01*
X9000Y5771D01*
X9028Y5714D01*
X9057Y5600D01*
X9057Y5514D01*
X9028Y5400D01*
X9000Y5342D01*
X8942Y5285D01*
X8857Y5257D01*
X8714Y5257D01*
X9314Y5257D02*
X9314Y5857D01*
X8485Y6314D02*
X8457Y6285D01*
X8371Y6257D01*
X8314Y6257D01*
X8228Y6285D01*
X8171Y6342D01*
X8142Y6400D01*
X8114Y6514D01*
X8114Y6600D01*
X8142Y6714D01*
X8171Y6771D01*
X8228Y6828D01*
X8314Y6857D01*
X8371Y6857D01*
X8457Y6828D01*
X8485Y6800D01*
X9028Y6257D02*
X8742Y6257D01*
X8742Y6857D01*
X9228Y6257D02*
X9228Y6857D01*
X9571Y6257D02*
X9314Y6600D01*
X9571Y6857D02*
X9228Y6514D01*
X8428Y7257D02*
X8142Y7257D01*
X8142Y7857D01*
X8628Y7571D02*
X8828Y7571D01*
X8914Y7257D02*
X8628Y7257D01*
X8628Y7857D01*
X8914Y7857D01*
X8257Y8857D02*
X8371Y8857D01*
X8428Y8828D01*
X8485Y8771D01*
X8514Y8657D01*
X8514Y8457D01*
X8485Y8342D01*
X8428Y8285D01*
X8371Y8257D01*
X8257Y8257D01*
X8200Y8285D01*
X8142Y8342D01*
X8114Y8457D01*
X8114Y8657D01*
X8142Y8771D01*
X8200Y8828D01*
X8257Y8857D01*
X8771Y8571D02*
X8971Y8571D01*
X9057Y8257D02*
X8771Y8257D01*
X8771Y8857D01*
X9057Y8857D01*
X8000Y9010D02*
X9171Y9010D01*
X8457Y9828D02*
X8400Y9857D01*
X8314Y9857D01*
X8228Y9828D01*
X8171Y9771D01*
X8142Y9714D01*
X8114Y9600D01*
X8114Y9514D01*
X8142Y9400D01*
X8171Y9342D01*
X8228Y9285D01*
X8314Y9257D01*
X8371Y9257D01*
X8457Y9285D01*
X8485Y9314D01*
X8485Y9514D01*
X8371Y9514D01*
X8742Y9257D02*
X8742Y9857D01*
X9085Y9257D01*
X9085Y9857D01*
X9371Y9257D02*
X9371Y9857D01*
X9514Y9857D01*
X9600Y9828D01*
X9657Y9771D01*
X9685Y9714D01*
X9714Y9600D01*
X9714Y9514D01*
X9685Y9400D01*
X9657Y9342D01*
X9600Y9285D01*
X9514Y9257D01*
X9371Y9257D01*
X11000Y37000D02*
X10000Y41500D01*
X8500Y48000D02*
X9500Y43500D01*
X11000Y37000D02*
X10500Y36500D01*
X8000Y48500D02*
X8500Y48000D01*
X14000Y12500D02*
X13500Y12000D01*
X33500Y16000D02*
X34500Y11500D01*
X33000Y18500D02*
X32000Y23000D01*
X34500Y11500D02*
X35000Y11000D01*
X27500Y31500D02*
X28000Y31000D01*
X22000Y31500D02*
X27500Y31500D01*
X15000Y31500D02*
X20000Y31500D01*
X14500Y31000D02*
X15000Y31500D01*
X32000Y23000D02*
X32500Y23500D01*
X34500Y41000D02*
X35500Y36500D01*
X35500Y36500D02*
X35000Y36000D01*
X33000Y48000D02*
X34000Y43000D01*
X32500Y48500D02*
X33000Y48000D01*
X17500Y52500D02*
X23500Y52500D01*
X10500Y52500D02*
X16000Y52500D01*
G54D11*
X4738Y13095D02*
X4738Y14095D01*
X4976Y14095D01*
X5119Y14047D01*
X5214Y13952D01*
X5261Y13857D01*
X5309Y13666D01*
X5309Y13523D01*
X5261Y13333D01*
X5214Y13238D01*
X5119Y13142D01*
X4976Y13095D01*
X4738Y13095D01*
X5738Y13095D02*
X5738Y14095D01*
X6119Y14095D01*
X6214Y14047D01*
X6261Y14000D01*
X6309Y13904D01*
X6309Y13761D01*
X6261Y13666D01*
X6214Y13619D01*
X6119Y13571D01*
X5738Y13571D01*
X21261Y32047D02*
X21166Y32095D01*
X21023Y32095D01*
X20880Y32047D01*
X20785Y31952D01*
X20738Y31857D01*
X20690Y31666D01*
X20690Y31523D01*
X20738Y31333D01*
X20785Y31238D01*
X20880Y31142D01*
X21023Y31095D01*
X21119Y31095D01*
X21261Y31142D01*
X21309Y31190D01*
X21309Y31523D01*
X21119Y31523D01*
X34392Y41869D02*
X34059Y41869D01*
X34059Y41345D02*
X34059Y42345D01*
X34535Y42345D01*
X33035Y17369D02*
X33369Y17369D01*
X33511Y16845D02*
X33035Y16845D01*
X33035Y17845D01*
X33511Y17845D01*
X24988Y6845D02*
X24988Y7845D01*
X25226Y7845D01*
X25369Y7797D01*
X25464Y7702D01*
X25511Y7607D01*
X25559Y7416D01*
X25559Y7273D01*
X25511Y7083D01*
X25464Y6988D01*
X25369Y6892D01*
X25226Y6845D01*
X24988Y6845D01*
X13309Y17690D02*
X13261Y17642D01*
X13119Y17595D01*
X13023Y17595D01*
X12880Y17642D01*
X12785Y17738D01*
X12738Y17833D01*
X12690Y18023D01*
X12690Y18166D01*
X12738Y18357D01*
X12785Y18452D01*
X12880Y18547D01*
X13023Y18595D01*
X13119Y18595D01*
X13261Y18547D01*
X13309Y18500D01*
X9571Y42619D02*
X9714Y42571D01*
X9761Y42523D01*
X9809Y42428D01*
X9809Y42285D01*
X9761Y42190D01*
X9714Y42142D01*
X9619Y42095D01*
X9238Y42095D01*
X9238Y43095D01*
X9571Y43095D01*
X9666Y43047D01*
X9714Y43000D01*
X9761Y42904D01*
X9761Y42809D01*
X9714Y42714D01*
X9666Y42666D01*
X9571Y42619D01*
X9238Y42619D01*
X16511Y51880D02*
X16988Y51880D01*
X16416Y51595D02*
X16750Y52595D01*
X17083Y51595D01*
X14152Y45714D02*
X14266Y45676D01*
X14457Y45676D01*
X14533Y45714D01*
X14571Y45752D01*
X14609Y45828D01*
X14609Y45904D01*
X14571Y45980D01*
X14533Y46019D01*
X14457Y46057D01*
X14304Y46095D01*
X14228Y46133D01*
X14190Y46171D01*
X14152Y46247D01*
X14152Y46323D01*
X14190Y46400D01*
X14228Y46438D01*
X14304Y46476D01*
X14495Y46476D01*
X14609Y46438D01*
X15257Y45714D02*
X15180Y45676D01*
X15028Y45676D01*
X14952Y45714D01*
X14914Y45790D01*
X14914Y46095D01*
X14952Y46171D01*
X15028Y46209D01*
X15180Y46209D01*
X15257Y46171D01*
X15295Y46095D01*
X15295Y46019D01*
X14914Y45942D01*
X15561Y46209D02*
X15752Y45676D01*
X15942Y46209D01*
X16552Y45714D02*
X16476Y45676D01*
X16323Y45676D01*
X16247Y45714D01*
X16209Y45790D01*
X16209Y46095D01*
X16247Y46171D01*
X16323Y46209D01*
X16476Y46209D01*
X16552Y46171D01*
X16590Y46095D01*
X16590Y46019D01*
X16209Y45942D01*
X16933Y46209D02*
X16933Y45676D01*
X16933Y46133D02*
X16971Y46171D01*
X17047Y46209D01*
X17161Y46209D01*
X17238Y46171D01*
X17276Y46095D01*
X17276Y45676D01*
X18228Y45714D02*
X18342Y45676D01*
X18533Y45676D01*
X18609Y45714D01*
X18647Y45752D01*
X18685Y45828D01*
X18685Y45904D01*
X18647Y45980D01*
X18609Y46019D01*
X18533Y46057D01*
X18380Y46095D01*
X18304Y46133D01*
X18266Y46171D01*
X18228Y46247D01*
X18228Y46323D01*
X18266Y46400D01*
X18304Y46438D01*
X18380Y46476D01*
X18571Y46476D01*
X18685Y46438D01*
X19333Y45714D02*
X19257Y45676D01*
X19104Y45676D01*
X19028Y45714D01*
X18990Y45790D01*
X18990Y46095D01*
X19028Y46171D01*
X19104Y46209D01*
X19257Y46209D01*
X19333Y46171D01*
X19371Y46095D01*
X19371Y46019D01*
X18990Y45942D01*
X20057Y46209D02*
X20057Y45561D01*
X20019Y45485D01*
X19980Y45447D01*
X19904Y45409D01*
X19790Y45409D01*
X19714Y45447D01*
X20057Y45714D02*
X19980Y45676D01*
X19828Y45676D01*
X19752Y45714D01*
X19714Y45752D01*
X19676Y45828D01*
X19676Y46057D01*
X19714Y46133D01*
X19752Y46171D01*
X19828Y46209D01*
X19980Y46209D01*
X20057Y46171D01*
X20438Y45676D02*
X20438Y46209D01*
X20438Y46133D02*
X20476Y46171D01*
X20552Y46209D01*
X20666Y46209D01*
X20742Y46171D01*
X20780Y46095D01*
X20780Y45676D01*
X20780Y46095D02*
X20819Y46171D01*
X20895Y46209D01*
X21009Y46209D01*
X21085Y46171D01*
X21123Y46095D01*
X21123Y45676D01*
X21809Y45714D02*
X21733Y45676D01*
X21580Y45676D01*
X21504Y45714D01*
X21466Y45790D01*
X21466Y46095D01*
X21504Y46171D01*
X21580Y46209D01*
X21733Y46209D01*
X21809Y46171D01*
X21847Y46095D01*
X21847Y46019D01*
X21466Y45942D01*
X22190Y46209D02*
X22190Y45676D01*
X22190Y46133D02*
X22228Y46171D01*
X22304Y46209D01*
X22419Y46209D01*
X22495Y46171D01*
X22533Y46095D01*
X22533Y45676D01*
X22799Y46209D02*
X23104Y46209D01*
X22914Y46476D02*
X22914Y45790D01*
X22952Y45714D01*
X23028Y45676D01*
X23104Y45676D01*
X23980Y45676D02*
X23980Y46476D01*
X24171Y46476D01*
X24285Y46438D01*
X24361Y46361D01*
X24399Y46285D01*
X24438Y46133D01*
X24438Y46019D01*
X24399Y45866D01*
X24361Y45790D01*
X24285Y45714D01*
X24171Y45676D01*
X23980Y45676D01*
X24780Y45676D02*
X24780Y46209D01*
X24780Y46476D02*
X24742Y46438D01*
X24780Y46400D01*
X24819Y46438D01*
X24780Y46476D01*
X24780Y46400D01*
X25123Y45714D02*
X25199Y45676D01*
X25352Y45676D01*
X25428Y45714D01*
X25466Y45790D01*
X25466Y45828D01*
X25428Y45904D01*
X25352Y45942D01*
X25238Y45942D01*
X25161Y45980D01*
X25123Y46057D01*
X25123Y46095D01*
X25161Y46171D01*
X25238Y46209D01*
X25352Y46209D01*
X25428Y46171D01*
X25809Y46209D02*
X25809Y45409D01*
X25809Y46171D02*
X25885Y46209D01*
X26038Y46209D01*
X26114Y46171D01*
X26152Y46133D01*
X26190Y46057D01*
X26190Y45828D01*
X26152Y45752D01*
X26114Y45714D01*
X26038Y45676D01*
X25885Y45676D01*
X25809Y45714D01*
X26647Y45676D02*
X26571Y45714D01*
X26533Y45790D01*
X26533Y46476D01*
X27295Y45676D02*
X27295Y46095D01*
X27257Y46171D01*
X27180Y46209D01*
X27028Y46209D01*
X26952Y46171D01*
X27295Y45714D02*
X27219Y45676D01*
X27028Y45676D01*
X26952Y45714D01*
X26914Y45790D01*
X26914Y45866D01*
X26952Y45942D01*
X27028Y45980D01*
X27219Y45980D01*
X27295Y46019D01*
X27599Y46209D02*
X27790Y45676D01*
X27980Y46209D02*
X27790Y45676D01*
X27714Y45485D01*
X27676Y45447D01*
X27599Y45409D01*
X14647Y44406D02*
X14380Y44787D01*
X14190Y44406D02*
X14190Y45206D01*
X14495Y45206D01*
X14571Y45168D01*
X14609Y45130D01*
X14647Y45053D01*
X14647Y44939D01*
X14609Y44863D01*
X14571Y44825D01*
X14495Y44787D01*
X14190Y44787D01*
X15295Y44444D02*
X15219Y44406D01*
X15066Y44406D01*
X14990Y44444D01*
X14952Y44520D01*
X14952Y44825D01*
X14990Y44901D01*
X15066Y44939D01*
X15219Y44939D01*
X15295Y44901D01*
X15333Y44825D01*
X15333Y44749D01*
X14952Y44672D01*
X15600Y44939D02*
X15790Y44406D01*
X15980Y44939D01*
X16857Y45130D02*
X16895Y45168D01*
X16971Y45206D01*
X17161Y45206D01*
X17238Y45168D01*
X17276Y45130D01*
X17314Y45053D01*
X17314Y44977D01*
X17276Y44863D01*
X16819Y44406D01*
X17314Y44406D01*
X14647Y43136D02*
X14380Y43517D01*
X14190Y43136D02*
X14190Y43936D01*
X14495Y43936D01*
X14571Y43898D01*
X14609Y43860D01*
X14647Y43783D01*
X14647Y43669D01*
X14609Y43593D01*
X14571Y43555D01*
X14495Y43517D01*
X14190Y43517D01*
X15295Y43174D02*
X15219Y43136D01*
X15066Y43136D01*
X14990Y43174D01*
X14952Y43250D01*
X14952Y43555D01*
X14990Y43631D01*
X15066Y43669D01*
X15219Y43669D01*
X15295Y43631D01*
X15333Y43555D01*
X15333Y43479D01*
X14952Y43402D01*
X16019Y43174D02*
X15942Y43136D01*
X15790Y43136D01*
X15714Y43174D01*
X15676Y43212D01*
X15638Y43288D01*
X15638Y43517D01*
X15676Y43593D01*
X15714Y43631D01*
X15790Y43669D01*
X15942Y43669D01*
X16019Y43631D01*
X16476Y43136D02*
X16399Y43174D01*
X16361Y43250D01*
X16361Y43936D01*
X17123Y43136D02*
X17123Y43555D01*
X17085Y43631D01*
X17009Y43669D01*
X16857Y43669D01*
X16780Y43631D01*
X17123Y43174D02*
X17047Y43136D01*
X16857Y43136D01*
X16780Y43174D01*
X16742Y43250D01*
X16742Y43326D01*
X16780Y43402D01*
X16857Y43440D01*
X17047Y43440D01*
X17123Y43479D01*
X17504Y43136D02*
X17504Y43669D01*
X17504Y43936D02*
X17466Y43898D01*
X17504Y43860D01*
X17542Y43898D01*
X17504Y43936D01*
X17504Y43860D01*
X17885Y43136D02*
X17885Y43669D01*
X17885Y43593D02*
X17923Y43631D01*
X17999Y43669D01*
X18114Y43669D01*
X18190Y43631D01*
X18228Y43555D01*
X18228Y43136D01*
X18228Y43555D02*
X18266Y43631D01*
X18342Y43669D01*
X18457Y43669D01*
X18533Y43631D01*
X18571Y43555D01*
X18571Y43136D01*
X19257Y43174D02*
X19180Y43136D01*
X19028Y43136D01*
X18952Y43174D01*
X18914Y43250D01*
X18914Y43555D01*
X18952Y43631D01*
X19028Y43669D01*
X19180Y43669D01*
X19257Y43631D01*
X19295Y43555D01*
X19295Y43479D01*
X18914Y43402D01*
X19638Y43136D02*
X19638Y43669D01*
X19638Y43517D02*
X19676Y43593D01*
X19714Y43631D01*
X19790Y43669D01*
X19866Y43669D01*
X21123Y43136D02*
X20742Y43136D01*
X20742Y43936D01*
X21733Y43136D02*
X21733Y43555D01*
X21695Y43631D01*
X21619Y43669D01*
X21466Y43669D01*
X21390Y43631D01*
X21733Y43174D02*
X21657Y43136D01*
X21466Y43136D01*
X21390Y43174D01*
X21352Y43250D01*
X21352Y43326D01*
X21390Y43402D01*
X21466Y43440D01*
X21657Y43440D01*
X21733Y43479D01*
X22114Y43136D02*
X22114Y43936D01*
X22114Y43631D02*
X22190Y43669D01*
X22342Y43669D01*
X22419Y43631D01*
X22457Y43593D01*
X22495Y43517D01*
X22495Y43288D01*
X22457Y43212D01*
X22419Y43174D01*
X22342Y43136D01*
X22190Y43136D01*
X22114Y43174D01*
X22799Y43174D02*
X22876Y43136D01*
X23028Y43136D01*
X23104Y43174D01*
X23142Y43250D01*
X23142Y43288D01*
X23104Y43364D01*
X23028Y43402D01*
X22914Y43402D01*
X22838Y43440D01*
X22799Y43517D01*
X22799Y43555D01*
X22838Y43631D01*
X22914Y43669D01*
X23028Y43669D01*
X23104Y43631D01*
X14152Y42590D02*
X14190Y42628D01*
X14266Y42666D01*
X14457Y42666D01*
X14533Y42628D01*
X14571Y42590D01*
X14609Y42513D01*
X14609Y42437D01*
X14571Y42323D01*
X14114Y41866D01*
X14609Y41866D01*
X15295Y42666D02*
X15142Y42666D01*
X15066Y42628D01*
X15028Y42590D01*
X14952Y42475D01*
X14914Y42323D01*
X14914Y42018D01*
X14952Y41942D01*
X14990Y41904D01*
X15066Y41866D01*
X15219Y41866D01*
X15295Y41904D01*
X15333Y41942D01*
X15371Y42018D01*
X15371Y42209D01*
X15333Y42285D01*
X15295Y42323D01*
X15219Y42361D01*
X15066Y42361D01*
X14990Y42323D01*
X14952Y42285D01*
X14914Y42209D01*
X16476Y42666D02*
X16628Y42666D01*
X16704Y42628D01*
X16780Y42551D01*
X16819Y42399D01*
X16819Y42132D01*
X16780Y41980D01*
X16704Y41904D01*
X16628Y41866D01*
X16476Y41866D01*
X16399Y41904D01*
X16323Y41980D01*
X16285Y42132D01*
X16285Y42399D01*
X16323Y42551D01*
X16399Y42628D01*
X16476Y42666D01*
X17504Y41904D02*
X17428Y41866D01*
X17276Y41866D01*
X17199Y41904D01*
X17161Y41942D01*
X17123Y42018D01*
X17123Y42247D01*
X17161Y42323D01*
X17199Y42361D01*
X17276Y42399D01*
X17428Y42399D01*
X17504Y42361D01*
X17733Y42399D02*
X18038Y42399D01*
X17847Y42666D02*
X17847Y41980D01*
X17885Y41904D01*
X17961Y41866D01*
X18038Y41866D01*
X18419Y41866D02*
X18342Y41904D01*
X18304Y41942D01*
X18266Y42018D01*
X18266Y42247D01*
X18304Y42323D01*
X18342Y42361D01*
X18419Y42399D01*
X18533Y42399D01*
X18609Y42361D01*
X18647Y42323D01*
X18685Y42247D01*
X18685Y42018D01*
X18647Y41942D01*
X18609Y41904D01*
X18533Y41866D01*
X18419Y41866D01*
X19028Y41866D02*
X19028Y42666D01*
X19028Y42361D02*
X19104Y42399D01*
X19257Y42399D01*
X19333Y42361D01*
X19371Y42323D01*
X19409Y42247D01*
X19409Y42018D01*
X19371Y41942D01*
X19333Y41904D01*
X19257Y41866D01*
X19104Y41866D01*
X19028Y41904D01*
X20057Y41904D02*
X19980Y41866D01*
X19828Y41866D01*
X19752Y41904D01*
X19714Y41980D01*
X19714Y42285D01*
X19752Y42361D01*
X19828Y42399D01*
X19980Y42399D01*
X20057Y42361D01*
X20095Y42285D01*
X20095Y42209D01*
X19714Y42132D01*
X20438Y41866D02*
X20438Y42399D01*
X20438Y42247D02*
X20476Y42323D01*
X20514Y42361D01*
X20590Y42399D01*
X20666Y42399D01*
X21504Y42590D02*
X21542Y42628D01*
X21619Y42666D01*
X21809Y42666D01*
X21885Y42628D01*
X21923Y42590D01*
X21961Y42513D01*
X21961Y42437D01*
X21923Y42323D01*
X21466Y41866D01*
X21961Y41866D01*
X22457Y42666D02*
X22533Y42666D01*
X22609Y42628D01*
X22647Y42590D01*
X22685Y42513D01*
X22723Y42361D01*
X22723Y42170D01*
X22685Y42018D01*
X22647Y41942D01*
X22609Y41904D01*
X22533Y41866D01*
X22457Y41866D01*
X22380Y41904D01*
X22342Y41942D01*
X22304Y42018D01*
X22266Y42170D01*
X22266Y42361D01*
X22304Y42513D01*
X22342Y42590D01*
X22380Y42628D01*
X22457Y42666D01*
X23485Y41866D02*
X23028Y41866D01*
X23257Y41866D02*
X23257Y42666D01*
X23180Y42551D01*
X23104Y42475D01*
X23028Y42437D01*
X24171Y42399D02*
X24171Y41866D01*
X23980Y42704D02*
X23790Y42132D01*
X24285Y42132D01*
G54D12*
X9250Y29750D02*
X9250Y30250D01*
X9750Y29750D02*
X9750Y30240D01*
X9900Y29750D02*
X9100Y29750D01*
X9100Y29750D02*
X9100Y30250D01*
X9100Y30250D02*
X9900Y30250D01*
X9900Y30250D02*
X9900Y29750D01*
X18410Y22720D02*
X18090Y22720D01*
X18100Y22280D02*
X18410Y22280D01*
X18090Y22180D02*
X18090Y22820D01*
X18090Y22820D02*
X18410Y22820D01*
X18410Y22820D02*
X18410Y22180D01*
X18410Y22180D02*
X18090Y22180D01*
X19590Y25280D02*
X19910Y25280D01*
X19900Y25720D02*
X19590Y25720D01*
X19910Y25820D02*
X19910Y25180D01*
X19910Y25180D02*
X19590Y25180D01*
X19590Y25180D02*
X19590Y25820D01*
X19590Y25820D02*
X19910Y25820D01*
G54D10*
X34500Y58000D02*
X34500Y50000D01*
X34500Y50000D02*
X35500Y50000D01*
X35500Y50000D02*
X35500Y58000D01*
X35500Y58000D02*
X34500Y58000D01*
X7500Y50000D02*
X7500Y58000D01*
X7500Y58000D02*
X6500Y58000D01*
X6500Y58000D02*
X6500Y50000D01*
X6500Y50000D02*
X7500Y50000D01*
X34500Y10000D02*
X34500Y2000D01*
X34500Y2000D02*
X35500Y2000D01*
X35500Y2000D02*
X35500Y10000D01*
X35500Y10000D02*
X34500Y10000D01*
X7500Y2000D02*
X7500Y10000D01*
X7500Y10000D02*
X6500Y10000D01*
X6500Y10000D02*
X6500Y2000D01*
X6500Y2000D02*
X7500Y2000D01*
X29750Y58000D02*
X28250Y58000D01*
X29750Y56000D02*
X28250Y56000D01*
X13750Y4000D02*
X12250Y4000D01*
X13750Y2000D02*
X12250Y2000D01*
X37750Y49750D02*
X40250Y49750D01*
X40250Y58250D02*
X37750Y58250D01*
X40250Y58250D02*
X40250Y49750D01*
X37750Y57750D02*
X37750Y58250D01*
X37750Y50250D02*
X37750Y49750D01*
X38000Y50250D02*
X37750Y50250D01*
X38000Y57750D02*
X37750Y57750D01*
X38000Y57250D02*
X38000Y57750D01*
X38000Y57250D02*
X37750Y57250D01*
X37750Y57250D02*
X37750Y56750D01*
X37750Y56750D02*
X38000Y56750D01*
X38000Y56750D02*
X38000Y56250D01*
X38000Y56250D02*
X37750Y56250D01*
X37750Y56250D02*
X37750Y55750D01*
X37750Y55750D02*
X38000Y55750D01*
X38000Y55750D02*
X38000Y55250D01*
X38000Y55250D02*
X37750Y55250D01*
X37750Y55250D02*
X37750Y54750D01*
X37750Y54750D02*
X38000Y54750D01*
X38000Y54750D02*
X38000Y54250D01*
X38000Y54250D02*
X37750Y54250D01*
X37750Y54250D02*
X37750Y53750D01*
X37750Y53750D02*
X38000Y53750D01*
X38000Y53750D02*
X38000Y53250D01*
X38000Y53250D02*
X37750Y53250D01*
X37750Y53250D02*
X37750Y52750D01*
X37750Y52750D02*
X38000Y52750D01*
X38000Y52750D02*
X38000Y52250D01*
X38000Y52250D02*
X37750Y52250D01*
X37750Y52250D02*
X37750Y51750D01*
X37750Y51750D02*
X38000Y51750D01*
X38000Y51750D02*
X38000Y51250D01*
X38000Y51250D02*
X37750Y51250D01*
X37750Y51250D02*
X37750Y50750D01*
X37750Y50750D02*
X38000Y50750D01*
X38000Y50750D02*
X38000Y50250D01*
X39500Y56500D02*
X40000Y57000D01*
X40000Y57000D02*
X39500Y57500D01*
X39500Y57500D02*
X39500Y56500D01*
X39500Y51500D02*
X40000Y51000D01*
X40000Y51000D02*
X39500Y50500D01*
X39500Y50500D02*
X39500Y51500D01*
X41500Y58250D02*
G75*
G03X41500Y58250I-250J0D01*
G74*
G01*
X4250Y58250D02*
X1750Y58250D01*
X1750Y49750D02*
X4250Y49750D01*
X1750Y49750D02*
X1750Y58250D01*
X4250Y50250D02*
X4250Y49750D01*
X4250Y57750D02*
X4250Y58250D01*
X4000Y57750D02*
X4250Y57750D01*
X4000Y50250D02*
X4250Y50250D01*
X4000Y50750D02*
X4000Y50250D01*
X4000Y50750D02*
X4250Y50750D01*
X4250Y50750D02*
X4250Y51250D01*
X4250Y51250D02*
X4000Y51250D01*
X4000Y51250D02*
X4000Y51750D01*
X4000Y51750D02*
X4250Y51750D01*
X4250Y51750D02*
X4250Y52250D01*
X4250Y52250D02*
X4000Y52250D01*
X4000Y52250D02*
X4000Y52750D01*
X4000Y52750D02*
X4250Y52750D01*
X4250Y52750D02*
X4250Y53250D01*
X4250Y53250D02*
X4000Y53250D01*
X4000Y53250D02*
X4000Y53750D01*
X4000Y53750D02*
X4250Y53750D01*
X4250Y53750D02*
X4250Y54250D01*
X4250Y54250D02*
X4000Y54250D01*
X4000Y54250D02*
X4000Y54750D01*
X4000Y54750D02*
X4250Y54750D01*
X4250Y54750D02*
X4250Y55250D01*
X4250Y55250D02*
X4000Y55250D01*
X4000Y55250D02*
X4000Y55750D01*
X4000Y55750D02*
X4250Y55750D01*
X4250Y55750D02*
X4250Y56250D01*
X4250Y56250D02*
X4000Y56250D01*
X4000Y56250D02*
X4000Y56750D01*
X4000Y56750D02*
X4250Y56750D01*
X4250Y56750D02*
X4250Y57250D01*
X4250Y57250D02*
X4000Y57250D01*
X4000Y57250D02*
X4000Y57750D01*
X2500Y51500D02*
X2000Y51000D01*
X2000Y51000D02*
X2500Y50500D01*
X2500Y50500D02*
X2500Y51500D01*
X2500Y56500D02*
X2000Y57000D01*
X2000Y57000D02*
X2500Y57500D01*
X2500Y57500D02*
X2500Y56500D01*
X1000Y49750D02*
G75*
G03X1000Y49750I-250J0D01*
G74*
G01*
X37750Y1750D02*
X40250Y1750D01*
X40250Y10250D02*
X37750Y10250D01*
X40250Y10250D02*
X40250Y1750D01*
X37750Y9750D02*
X37750Y10250D01*
X37750Y2250D02*
X37750Y1750D01*
X38000Y2250D02*
X37750Y2250D01*
X38000Y9750D02*
X37750Y9750D01*
X38000Y9250D02*
X38000Y9750D01*
X38000Y9250D02*
X37750Y9250D01*
X37750Y9250D02*
X37750Y8750D01*
X37750Y8750D02*
X38000Y8750D01*
X38000Y8750D02*
X38000Y8250D01*
X38000Y8250D02*
X37750Y8250D01*
X37750Y8250D02*
X37750Y7750D01*
X37750Y7750D02*
X38000Y7750D01*
X38000Y7750D02*
X38000Y7250D01*
X38000Y7250D02*
X37750Y7250D01*
X37750Y7250D02*
X37750Y6750D01*
X37750Y6750D02*
X38000Y6750D01*
X38000Y6750D02*
X38000Y6250D01*
X38000Y6250D02*
X37750Y6250D01*
X37750Y6250D02*
X37750Y5750D01*
X37750Y5750D02*
X38000Y5750D01*
X38000Y5750D02*
X38000Y5250D01*
X38000Y5250D02*
X37750Y5250D01*
X37750Y5250D02*
X37750Y4750D01*
X37750Y4750D02*
X38000Y4750D01*
X38000Y4750D02*
X38000Y4250D01*
X38000Y4250D02*
X37750Y4250D01*
X37750Y4250D02*
X37750Y3750D01*
X37750Y3750D02*
X38000Y3750D01*
X38000Y3750D02*
X38000Y3250D01*
X38000Y3250D02*
X37750Y3250D01*
X37750Y3250D02*
X37750Y2750D01*
X37750Y2750D02*
X38000Y2750D01*
X38000Y2750D02*
X38000Y2250D01*
X39500Y8500D02*
X40000Y9000D01*
X40000Y9000D02*
X39500Y9500D01*
X39500Y9500D02*
X39500Y8500D01*
X39500Y3500D02*
X40000Y3000D01*
X40000Y3000D02*
X39500Y2500D01*
X39500Y2500D02*
X39500Y3500D01*
X41500Y10250D02*
G75*
G03X41500Y10250I-250J0D01*
G74*
G01*
X4250Y10250D02*
X1750Y10250D01*
X1750Y1750D02*
X4250Y1750D01*
X1750Y1750D02*
X1750Y10250D01*
X4250Y2250D02*
X4250Y1750D01*
X4250Y9750D02*
X4250Y10250D01*
X4000Y9750D02*
X4250Y9750D01*
X4000Y2250D02*
X4250Y2250D01*
X4000Y2750D02*
X4000Y2250D01*
X4000Y2750D02*
X4250Y2750D01*
X4250Y2750D02*
X4250Y3250D01*
X4250Y3250D02*
X4000Y3250D01*
X4000Y3250D02*
X4000Y3750D01*
X4000Y3750D02*
X4250Y3750D01*
X4250Y3750D02*
X4250Y4250D01*
X4250Y4250D02*
X4000Y4250D01*
X4000Y4250D02*
X4000Y4750D01*
X4000Y4750D02*
X4250Y4750D01*
X4250Y4750D02*
X4250Y5250D01*
X4250Y5250D02*
X4000Y5250D01*
X4000Y5250D02*
X4000Y5750D01*
X4000Y5750D02*
X4250Y5750D01*
X4250Y5750D02*
X4250Y6250D01*
X4250Y6250D02*
X4000Y6250D01*
X4000Y6250D02*
X4000Y6750D01*
X4000Y6750D02*
X4250Y6750D01*
X4250Y6750D02*
X4250Y7250D01*
X4250Y7250D02*
X4000Y7250D01*
X4000Y7250D02*
X4000Y7750D01*
X4000Y7750D02*
X4250Y7750D01*
X4250Y7750D02*
X4250Y8250D01*
X4250Y8250D02*
X4000Y8250D01*
X4000Y8250D02*
X4000Y8750D01*
X4000Y8750D02*
X4250Y8750D01*
X4250Y8750D02*
X4250Y9250D01*
X4250Y9250D02*
X4000Y9250D01*
X4000Y9250D02*
X4000Y9750D01*
X2500Y3500D02*
X2000Y3000D01*
X2000Y3000D02*
X2500Y2500D01*
X2500Y2500D02*
X2500Y3500D01*
X2500Y8500D02*
X2000Y9000D01*
X2000Y9000D02*
X2500Y9500D01*
X2500Y9500D02*
X2500Y8500D01*
X1000Y1750D02*
G75*
G03X1000Y1750I-250J0D01*
G74*
G01*
X19000Y20750D02*
G75*
G03X19000Y20750I-250J0D01*
G74*
G01*
X19250Y22250D02*
G75*
G03X19250Y22750I-250J250D01*
G74*
G01*
X23000Y22250D02*
X23000Y22750D01*
X23000Y22750D02*
X19000Y22750D01*
X19000Y22750D02*
X19000Y22250D01*
X19000Y22250D02*
X23000Y22250D01*
X31805Y47472D02*
X31707Y47472D01*
X31707Y47965D02*
X31805Y47965D01*
X31707Y47472D02*
X31707Y47965D01*
X31411Y47669D02*
X31411Y47768D01*
X31805Y47768D02*
X31411Y47768D01*
X31805Y47669D02*
X31411Y47669D01*
X31805Y47571D02*
X31805Y47472D01*
X31805Y47965D02*
X31805Y47571D01*
X31411Y48358D02*
X31805Y48358D01*
X31608Y48161D02*
X31608Y48555D01*
X24279Y53803D02*
X24180Y53803D01*
X24180Y54295D02*
X24279Y54295D01*
X24180Y53803D02*
X24180Y54295D01*
X23885Y54000D02*
X23885Y54098D01*
X24279Y54098D02*
X23885Y54098D01*
X24279Y54000D02*
X23885Y54000D01*
X24279Y53901D02*
X24279Y53803D01*
X24279Y54295D02*
X24279Y53901D01*
X23885Y54689D02*
X24279Y54689D01*
X24082Y54492D02*
X24082Y54886D01*
X18373Y53803D02*
X18275Y53803D01*
X18275Y54295D02*
X18373Y54295D01*
X18275Y53803D02*
X18275Y54295D01*
X17980Y54000D02*
X17980Y54098D01*
X18373Y54098D02*
X17980Y54098D01*
X18373Y54000D02*
X17980Y54000D01*
X18373Y53901D02*
X18373Y53803D01*
X18373Y54295D02*
X18373Y53901D01*
X17980Y54689D02*
X18373Y54689D01*
X18177Y54492D02*
X18177Y54886D01*
X12468Y53803D02*
X12370Y53803D01*
X12370Y54295D02*
X12468Y54295D01*
X12370Y53803D02*
X12370Y54295D01*
X12074Y54000D02*
X12074Y54098D01*
X12468Y54098D02*
X12074Y54098D01*
X12468Y54000D02*
X12074Y54000D01*
X12468Y53901D02*
X12468Y53803D01*
X12468Y54295D02*
X12468Y53901D01*
X12074Y54689D02*
X12468Y54689D01*
X12271Y54492D02*
X12271Y54886D01*
X9134Y35735D02*
X9035Y35735D01*
X9035Y36227D02*
X9134Y36227D01*
X9035Y35735D02*
X9035Y36227D01*
X8740Y35932D02*
X8740Y36030D01*
X9134Y36030D02*
X8740Y36030D01*
X9134Y35932D02*
X8740Y35932D01*
X9134Y35833D02*
X9134Y35735D01*
X9134Y36227D02*
X9134Y35833D01*
X8740Y36621D02*
X9134Y36621D01*
X8937Y36424D02*
X8937Y36818D01*
X8108Y41551D02*
X8010Y41551D01*
X8010Y42043D02*
X8108Y42043D01*
X8010Y41551D02*
X8010Y42043D01*
X7715Y41747D02*
X7715Y41846D01*
X8108Y41846D02*
X7715Y41846D01*
X8108Y41747D02*
X7715Y41747D01*
X8108Y41649D02*
X8108Y41551D01*
X8108Y42043D02*
X8108Y41649D01*
X7715Y42436D02*
X8108Y42436D01*
X7911Y42240D02*
X7911Y42633D01*
X5254Y11354D02*
X5156Y11354D01*
X5156Y11846D02*
X5254Y11846D01*
X5156Y11354D02*
X5156Y11846D01*
X4860Y11551D02*
X4860Y11649D01*
X5254Y11649D02*
X4860Y11649D01*
X5254Y11551D02*
X4860Y11551D01*
X5254Y11452D02*
X5254Y11354D01*
X5254Y11846D02*
X5254Y11452D01*
X4860Y12240D02*
X5254Y12240D01*
X5057Y12043D02*
X5057Y12436D01*
X16668Y29413D02*
X16570Y29413D01*
X16570Y29905D02*
X16668Y29905D01*
X16570Y29413D02*
X16570Y29905D01*
X16275Y29610D02*
X16275Y29709D01*
X16668Y29709D02*
X16275Y29709D01*
X16668Y29610D02*
X16275Y29610D01*
X16668Y29512D02*
X16668Y29413D01*
X16668Y29905D02*
X16668Y29512D01*
X16275Y30299D02*
X16668Y30299D01*
X16472Y30102D02*
X16472Y30496D01*
X22574Y29413D02*
X22476Y29413D01*
X22476Y29905D02*
X22574Y29905D01*
X22476Y29413D02*
X22476Y29905D01*
X22181Y29610D02*
X22181Y29709D01*
X22574Y29709D02*
X22181Y29709D01*
X22574Y29610D02*
X22181Y29610D01*
X22574Y29512D02*
X22574Y29413D01*
X22574Y29905D02*
X22574Y29512D01*
X22181Y30299D02*
X22574Y30299D01*
X22378Y30102D02*
X22378Y30496D01*
X28480Y29413D02*
X28382Y29413D01*
X28382Y29905D02*
X28480Y29905D01*
X28382Y29413D02*
X28382Y29905D01*
X28087Y29610D02*
X28087Y29709D01*
X28480Y29709D02*
X28087Y29709D01*
X28480Y29610D02*
X28087Y29610D01*
X28480Y29512D02*
X28480Y29413D01*
X28480Y29905D02*
X28480Y29512D01*
X28087Y30299D02*
X28480Y30299D01*
X28284Y30102D02*
X28284Y30496D01*
X7083Y47366D02*
X6984Y47366D01*
X6984Y47858D02*
X7083Y47858D01*
X6984Y47366D02*
X6984Y47858D01*
X6689Y47563D02*
X6689Y47661D01*
X7083Y47661D02*
X6689Y47661D01*
X7083Y47563D02*
X6689Y47563D01*
X7083Y47465D02*
X7083Y47366D01*
X7083Y47858D02*
X7083Y47465D01*
X6689Y48252D02*
X7083Y48252D01*
X6886Y48055D02*
X6886Y48449D01*
X32831Y41657D02*
X32732Y41657D01*
X32732Y42149D02*
X32831Y42149D01*
X32732Y41657D02*
X32732Y42149D01*
X32437Y41854D02*
X32437Y41952D01*
X32831Y41952D02*
X32437Y41952D01*
X32831Y41854D02*
X32437Y41854D01*
X32831Y41755D02*
X32831Y41657D01*
X32831Y42149D02*
X32831Y41755D01*
X32437Y42543D02*
X32831Y42543D01*
X32634Y42346D02*
X32634Y42740D01*
X33856Y35841D02*
X33758Y35841D01*
X33758Y36333D02*
X33856Y36333D01*
X33758Y35841D02*
X33758Y36333D01*
X33462Y36038D02*
X33462Y36136D01*
X33856Y36136D02*
X33462Y36136D01*
X33856Y36038D02*
X33462Y36038D01*
X33856Y35940D02*
X33856Y35841D01*
X33856Y36333D02*
X33856Y35940D01*
X33462Y36727D02*
X33856Y36727D01*
X33659Y36530D02*
X33659Y36924D01*
X36019Y23069D02*
X35921Y23069D01*
X35921Y23561D02*
X36019Y23561D01*
X35921Y23069D02*
X35921Y23561D01*
X35625Y23266D02*
X35625Y23364D01*
X36019Y23364D02*
X35625Y23364D01*
X36019Y23266D02*
X35625Y23266D01*
X36019Y23167D02*
X36019Y23069D01*
X36019Y23561D02*
X36019Y23167D01*
X35625Y23955D02*
X36019Y23955D01*
X35822Y23758D02*
X35822Y24152D01*
X37048Y17231D02*
X36950Y17231D01*
X36950Y17723D02*
X37048Y17723D01*
X36950Y17231D02*
X36950Y17723D01*
X36655Y17428D02*
X36655Y17526D01*
X37048Y17526D02*
X36655Y17526D01*
X37048Y17428D02*
X36655Y17428D01*
X37048Y17329D02*
X37048Y17231D01*
X37048Y17723D02*
X37048Y17329D01*
X36655Y18117D02*
X37048Y18117D01*
X36852Y17920D02*
X36852Y18313D01*
X38078Y11393D02*
X37979Y11393D01*
X37979Y11885D02*
X38078Y11885D01*
X37979Y11393D02*
X37979Y11885D01*
X37684Y11589D02*
X37684Y11688D01*
X38078Y11688D02*
X37684Y11688D01*
X38078Y11589D02*
X37684Y11589D01*
X38078Y11491D02*
X38078Y11393D01*
X38078Y11885D02*
X38078Y11491D01*
X37684Y12278D02*
X38078Y12278D01*
X37881Y12082D02*
X37881Y12475D01*
X29557Y6123D02*
X29655Y6123D01*
X29655Y5631D02*
X29557Y5631D01*
X29655Y6123D02*
X29655Y5631D01*
X29950Y5926D02*
X29950Y5828D01*
X29557Y5828D02*
X29950Y5828D01*
X29557Y5926D02*
X29950Y5926D01*
X29557Y6025D02*
X29557Y6123D01*
X29557Y5631D02*
X29557Y6025D01*
X29950Y5237D02*
X29557Y5237D01*
X29753Y5434D02*
X29753Y5041D01*
X23651Y6123D02*
X23749Y6123D01*
X23749Y5631D02*
X23651Y5631D01*
X23749Y6123D02*
X23749Y5631D01*
X24044Y5926D02*
X24044Y5828D01*
X23651Y5828D02*
X24044Y5828D01*
X23651Y5926D02*
X24044Y5926D01*
X23651Y6025D02*
X23651Y6123D01*
X23651Y5631D02*
X23651Y6025D01*
X24044Y5237D02*
X23651Y5237D01*
X23847Y5434D02*
X23847Y5041D01*
X17745Y6123D02*
X17843Y6123D01*
X17843Y5631D02*
X17745Y5631D01*
X17843Y6123D02*
X17843Y5631D01*
X18138Y5926D02*
X18138Y5828D01*
X17745Y5828D02*
X18138Y5828D01*
X17745Y5926D02*
X18138Y5926D01*
X17745Y6025D02*
X17745Y6123D01*
X17745Y5631D02*
X17745Y6025D01*
X18138Y5237D02*
X17745Y5237D01*
X17941Y5434D02*
X17941Y5041D01*
X8147Y24144D02*
X8245Y24144D01*
X8245Y23652D02*
X8147Y23652D01*
X8245Y24144D02*
X8245Y23652D01*
X8541Y23947D02*
X8541Y23849D01*
X8147Y23849D02*
X8541Y23849D01*
X8147Y23947D02*
X8541Y23947D01*
X8147Y24046D02*
X8147Y24144D01*
X8147Y23652D02*
X8147Y24046D01*
X8541Y23258D02*
X8147Y23258D01*
X8344Y23455D02*
X8344Y23061D01*
X12326Y17125D02*
X12228Y17125D01*
X12228Y17617D02*
X12326Y17617D01*
X12228Y17125D02*
X12228Y17617D01*
X11932Y17322D02*
X11932Y17420D01*
X12326Y17420D02*
X11932Y17420D01*
X12326Y17322D02*
X11932Y17322D01*
X12326Y17223D02*
X12326Y17125D01*
X12326Y17617D02*
X12326Y17223D01*
X11932Y18011D02*
X12326Y18011D01*
X12129Y17814D02*
X12129Y18207D01*
X10206Y12468D02*
X10304Y12468D01*
X10304Y11975D02*
X10206Y11975D01*
X10304Y12468D02*
X10304Y11975D01*
X10600Y12271D02*
X10600Y12172D01*
X10206Y12172D02*
X10600Y12172D01*
X10206Y12271D02*
X10600Y12271D01*
X10206Y12369D02*
X10206Y12468D01*
X10206Y11975D02*
X10206Y12369D01*
X10600Y11582D02*
X10206Y11582D01*
X10403Y11779D02*
X10403Y11385D01*
X9416Y30845D02*
X9392Y30821D01*
X9321Y30797D01*
X9273Y30797D01*
X9202Y30821D01*
X9154Y30869D01*
X9130Y30916D01*
X9107Y31011D01*
X9107Y31083D01*
X9130Y31178D01*
X9154Y31226D01*
X9202Y31273D01*
X9273Y31297D01*
X9321Y31297D01*
X9392Y31273D01*
X9416Y31250D01*
X9607Y31250D02*
X9630Y31273D01*
X9678Y31297D01*
X9797Y31297D01*
X9845Y31273D01*
X9869Y31250D01*
X9892Y31202D01*
X9892Y31154D01*
X9869Y31083D01*
X9583Y30797D01*
X9892Y30797D01*
X17654Y22416D02*
X17678Y22392D01*
X17702Y22321D01*
X17702Y22273D01*
X17678Y22202D01*
X17630Y22154D01*
X17583Y22130D01*
X17488Y22107D01*
X17416Y22107D01*
X17321Y22130D01*
X17273Y22154D01*
X17226Y22202D01*
X17202Y22273D01*
X17202Y22321D01*
X17226Y22392D01*
X17250Y22416D01*
X17702Y22892D02*
X17702Y22607D01*
X17702Y22750D02*
X17202Y22750D01*
X17273Y22702D01*
X17321Y22654D01*
X17345Y22607D01*
X19202Y25416D02*
X18964Y25250D01*
X19202Y25130D02*
X18702Y25130D01*
X18702Y25321D01*
X18726Y25369D01*
X18750Y25392D01*
X18797Y25416D01*
X18869Y25416D01*
X18916Y25392D01*
X18940Y25369D01*
X18964Y25321D01*
X18964Y25130D01*
X19202Y25892D02*
X19202Y25607D01*
X19202Y25750D02*
X18702Y25750D01*
X18773Y25702D01*
X18821Y25654D01*
X18845Y25607D01*
X34833Y59297D02*
X34833Y58940D01*
X34809Y58869D01*
X34761Y58821D01*
X34690Y58797D01*
X34642Y58797D01*
X35309Y59297D02*
X35071Y59297D01*
X35047Y59059D01*
X35071Y59083D01*
X35119Y59107D01*
X35238Y59107D01*
X35285Y59083D01*
X35309Y59059D01*
X35333Y59011D01*
X35333Y58892D01*
X35309Y58845D01*
X35285Y58821D01*
X35238Y58797D01*
X35119Y58797D01*
X35071Y58821D01*
X35047Y58845D01*
X6833Y59297D02*
X6833Y58940D01*
X6809Y58869D01*
X6761Y58821D01*
X6690Y58797D01*
X6642Y58797D01*
X7142Y59083D02*
X7095Y59107D01*
X7071Y59130D01*
X7047Y59178D01*
X7047Y59202D01*
X7071Y59250D01*
X7095Y59273D01*
X7142Y59297D01*
X7238Y59297D01*
X7285Y59273D01*
X7309Y59250D01*
X7333Y59202D01*
X7333Y59178D01*
X7309Y59130D01*
X7285Y59107D01*
X7238Y59083D01*
X7142Y59083D01*
X7095Y59059D01*
X7071Y59035D01*
X7047Y58988D01*
X7047Y58892D01*
X7071Y58845D01*
X7095Y58821D01*
X7142Y58797D01*
X7238Y58797D01*
X7285Y58821D01*
X7309Y58845D01*
X7333Y58892D01*
X7333Y58988D01*
X7309Y59035D01*
X7285Y59059D01*
X7238Y59083D01*
X34833Y1297D02*
X34833Y940D01*
X34809Y869D01*
X34761Y821D01*
X34690Y797D01*
X34642Y797D01*
X35285Y1297D02*
X35190Y1297D01*
X35142Y1273D01*
X35119Y1250D01*
X35071Y1178D01*
X35047Y1083D01*
X35047Y892D01*
X35071Y845D01*
X35095Y821D01*
X35142Y797D01*
X35238Y797D01*
X35285Y821D01*
X35309Y845D01*
X35333Y892D01*
X35333Y1011D01*
X35309Y1059D01*
X35285Y1083D01*
X35238Y1107D01*
X35142Y1107D01*
X35095Y1083D01*
X35071Y1059D01*
X35047Y1011D01*
X6833Y1297D02*
X6833Y940D01*
X6809Y869D01*
X6761Y821D01*
X6690Y797D01*
X6642Y797D01*
X7023Y1297D02*
X7357Y1297D01*
X7142Y797D01*
X28190Y58797D02*
X28190Y59297D01*
X28380Y59297D01*
X28428Y59273D01*
X28452Y59250D01*
X28476Y59202D01*
X28476Y59130D01*
X28452Y59083D01*
X28428Y59059D01*
X28380Y59035D01*
X28190Y59035D01*
X28619Y59297D02*
X28904Y59297D01*
X28761Y58797D02*
X28761Y59297D01*
X29357Y58845D02*
X29333Y58821D01*
X29261Y58797D01*
X29214Y58797D01*
X29142Y58821D01*
X29095Y58869D01*
X29071Y58916D01*
X29047Y59011D01*
X29047Y59083D01*
X29071Y59178D01*
X29095Y59226D01*
X29142Y59273D01*
X29214Y59297D01*
X29261Y59297D01*
X29333Y59273D01*
X29357Y59250D01*
X29833Y58797D02*
X29547Y58797D01*
X29690Y58797D02*
X29690Y59297D01*
X29642Y59226D01*
X29595Y59178D01*
X29547Y59154D01*
X12190Y797D02*
X12190Y1297D01*
X12380Y1297D01*
X12428Y1273D01*
X12452Y1250D01*
X12476Y1202D01*
X12476Y1130D01*
X12452Y1083D01*
X12428Y1059D01*
X12380Y1035D01*
X12190Y1035D01*
X12619Y1297D02*
X12904Y1297D01*
X12761Y797D02*
X12761Y1297D01*
X13357Y845D02*
X13333Y821D01*
X13261Y797D01*
X13214Y797D01*
X13142Y821D01*
X13095Y869D01*
X13071Y916D01*
X13047Y1011D01*
X13047Y1083D01*
X13071Y1178D01*
X13095Y1226D01*
X13142Y1273D01*
X13214Y1297D01*
X13261Y1297D01*
X13333Y1273D01*
X13357Y1250D01*
X13547Y1250D02*
X13571Y1273D01*
X13619Y1297D01*
X13738Y1297D01*
X13785Y1273D01*
X13809Y1250D01*
X13833Y1202D01*
X13833Y1154D01*
X13809Y1083D01*
X13523Y797D01*
X13833Y797D01*
X38833Y59297D02*
X38833Y58940D01*
X38809Y58869D01*
X38761Y58821D01*
X38690Y58797D01*
X38642Y58797D01*
X39333Y58797D02*
X39047Y58797D01*
X39190Y58797D02*
X39190Y59297D01*
X39142Y59226D01*
X39095Y59178D01*
X39047Y59154D01*
X39952Y51904D02*
X39452Y51904D01*
X39809Y52071D01*
X39452Y52238D01*
X39952Y52238D01*
X39952Y52690D02*
X39690Y52690D01*
X39642Y52666D01*
X39619Y52619D01*
X39619Y52523D01*
X39642Y52476D01*
X39928Y52690D02*
X39952Y52642D01*
X39952Y52523D01*
X39928Y52476D01*
X39880Y52452D01*
X39833Y52452D01*
X39785Y52476D01*
X39761Y52523D01*
X39761Y52642D01*
X39738Y52690D01*
X39619Y52857D02*
X39619Y53047D01*
X39452Y52928D02*
X39880Y52928D01*
X39928Y52952D01*
X39952Y53000D01*
X39952Y53047D01*
X39952Y53214D02*
X39619Y53214D01*
X39452Y53214D02*
X39476Y53190D01*
X39500Y53214D01*
X39476Y53238D01*
X39452Y53214D01*
X39500Y53214D01*
X39619Y53452D02*
X39952Y53452D01*
X39666Y53452D02*
X39642Y53476D01*
X39619Y53523D01*
X39619Y53595D01*
X39642Y53642D01*
X39690Y53666D01*
X39952Y53666D01*
X39619Y54119D02*
X40023Y54119D01*
X40071Y54095D01*
X40095Y54071D01*
X40119Y54023D01*
X40119Y53952D01*
X40095Y53904D01*
X39928Y54119D02*
X39952Y54071D01*
X39952Y53976D01*
X39928Y53928D01*
X39904Y53904D01*
X39857Y53880D01*
X39714Y53880D01*
X39666Y53904D01*
X39642Y53928D01*
X39619Y53976D01*
X39619Y54071D01*
X39642Y54119D01*
X39928Y54714D02*
X39952Y54785D01*
X39952Y54904D01*
X39928Y54952D01*
X39904Y54976D01*
X39857Y55000D01*
X39809Y55000D01*
X39761Y54976D01*
X39738Y54952D01*
X39714Y54904D01*
X39690Y54809D01*
X39666Y54761D01*
X39642Y54738D01*
X39595Y54714D01*
X39547Y54714D01*
X39500Y54738D01*
X39476Y54761D01*
X39452Y54809D01*
X39452Y54928D01*
X39476Y55000D01*
X39952Y55214D02*
X39619Y55214D01*
X39452Y55214D02*
X39476Y55190D01*
X39500Y55214D01*
X39476Y55238D01*
X39452Y55214D01*
X39500Y55214D01*
X39952Y55666D02*
X39452Y55666D01*
X39928Y55666D02*
X39952Y55619D01*
X39952Y55523D01*
X39928Y55476D01*
X39904Y55452D01*
X39857Y55428D01*
X39714Y55428D01*
X39666Y55452D01*
X39642Y55476D01*
X39619Y55523D01*
X39619Y55619D01*
X39642Y55666D01*
X39928Y56095D02*
X39952Y56047D01*
X39952Y55952D01*
X39928Y55904D01*
X39880Y55880D01*
X39690Y55880D01*
X39642Y55904D01*
X39619Y55952D01*
X39619Y56047D01*
X39642Y56095D01*
X39690Y56119D01*
X39738Y56119D01*
X39785Y55880D01*
X2833Y59297D02*
X2833Y58940D01*
X2809Y58869D01*
X2761Y58821D01*
X2690Y58797D01*
X2642Y58797D01*
X3285Y59130D02*
X3285Y58797D01*
X3166Y59321D02*
X3047Y58964D01*
X3357Y58964D01*
X2452Y51904D02*
X1952Y51904D01*
X2309Y52071D01*
X1952Y52238D01*
X2452Y52238D01*
X2452Y52690D02*
X2190Y52690D01*
X2142Y52666D01*
X2119Y52619D01*
X2119Y52523D01*
X2142Y52476D01*
X2428Y52690D02*
X2452Y52642D01*
X2452Y52523D01*
X2428Y52476D01*
X2380Y52452D01*
X2333Y52452D01*
X2285Y52476D01*
X2261Y52523D01*
X2261Y52642D01*
X2238Y52690D01*
X2119Y52857D02*
X2119Y53047D01*
X1952Y52928D02*
X2380Y52928D01*
X2428Y52952D01*
X2452Y53000D01*
X2452Y53047D01*
X2452Y53214D02*
X2119Y53214D01*
X1952Y53214D02*
X1976Y53190D01*
X2000Y53214D01*
X1976Y53238D01*
X1952Y53214D01*
X2000Y53214D01*
X2119Y53452D02*
X2452Y53452D01*
X2166Y53452D02*
X2142Y53476D01*
X2119Y53523D01*
X2119Y53595D01*
X2142Y53642D01*
X2190Y53666D01*
X2452Y53666D01*
X2119Y54119D02*
X2523Y54119D01*
X2571Y54095D01*
X2595Y54071D01*
X2619Y54023D01*
X2619Y53952D01*
X2595Y53904D01*
X2428Y54119D02*
X2452Y54071D01*
X2452Y53976D01*
X2428Y53928D01*
X2404Y53904D01*
X2357Y53880D01*
X2214Y53880D01*
X2166Y53904D01*
X2142Y53928D01*
X2119Y53976D01*
X2119Y54071D01*
X2142Y54119D01*
X2428Y54714D02*
X2452Y54785D01*
X2452Y54904D01*
X2428Y54952D01*
X2404Y54976D01*
X2357Y55000D01*
X2309Y55000D01*
X2261Y54976D01*
X2238Y54952D01*
X2214Y54904D01*
X2190Y54809D01*
X2166Y54761D01*
X2142Y54738D01*
X2095Y54714D01*
X2047Y54714D01*
X2000Y54738D01*
X1976Y54761D01*
X1952Y54809D01*
X1952Y54928D01*
X1976Y55000D01*
X2452Y55214D02*
X2119Y55214D01*
X1952Y55214D02*
X1976Y55190D01*
X2000Y55214D01*
X1976Y55238D01*
X1952Y55214D01*
X2000Y55214D01*
X2452Y55666D02*
X1952Y55666D01*
X2428Y55666D02*
X2452Y55619D01*
X2452Y55523D01*
X2428Y55476D01*
X2404Y55452D01*
X2357Y55428D01*
X2214Y55428D01*
X2166Y55452D01*
X2142Y55476D01*
X2119Y55523D01*
X2119Y55619D01*
X2142Y55666D01*
X2428Y56095D02*
X2452Y56047D01*
X2452Y55952D01*
X2428Y55904D01*
X2380Y55880D01*
X2190Y55880D01*
X2142Y55904D01*
X2119Y55952D01*
X2119Y56047D01*
X2142Y56095D01*
X2190Y56119D01*
X2238Y56119D01*
X2285Y55880D01*
X38833Y1297D02*
X38833Y940D01*
X38809Y869D01*
X38761Y821D01*
X38690Y797D01*
X38642Y797D01*
X39047Y1250D02*
X39071Y1273D01*
X39119Y1297D01*
X39238Y1297D01*
X39285Y1273D01*
X39309Y1250D01*
X39333Y1202D01*
X39333Y1154D01*
X39309Y1083D01*
X39023Y797D01*
X39333Y797D01*
X39952Y3904D02*
X39452Y3904D01*
X39809Y4071D01*
X39452Y4238D01*
X39952Y4238D01*
X39952Y4690D02*
X39690Y4690D01*
X39642Y4666D01*
X39619Y4619D01*
X39619Y4523D01*
X39642Y4476D01*
X39928Y4690D02*
X39952Y4642D01*
X39952Y4523D01*
X39928Y4476D01*
X39880Y4452D01*
X39833Y4452D01*
X39785Y4476D01*
X39761Y4523D01*
X39761Y4642D01*
X39738Y4690D01*
X39619Y4857D02*
X39619Y5047D01*
X39452Y4928D02*
X39880Y4928D01*
X39928Y4952D01*
X39952Y5000D01*
X39952Y5047D01*
X39952Y5214D02*
X39619Y5214D01*
X39452Y5214D02*
X39476Y5190D01*
X39500Y5214D01*
X39476Y5238D01*
X39452Y5214D01*
X39500Y5214D01*
X39619Y5452D02*
X39952Y5452D01*
X39666Y5452D02*
X39642Y5476D01*
X39619Y5523D01*
X39619Y5595D01*
X39642Y5642D01*
X39690Y5666D01*
X39952Y5666D01*
X39619Y6119D02*
X40023Y6119D01*
X40071Y6095D01*
X40095Y6071D01*
X40119Y6023D01*
X40119Y5952D01*
X40095Y5904D01*
X39928Y6119D02*
X39952Y6071D01*
X39952Y5976D01*
X39928Y5928D01*
X39904Y5904D01*
X39857Y5880D01*
X39714Y5880D01*
X39666Y5904D01*
X39642Y5928D01*
X39619Y5976D01*
X39619Y6071D01*
X39642Y6119D01*
X39928Y6714D02*
X39952Y6785D01*
X39952Y6904D01*
X39928Y6952D01*
X39904Y6976D01*
X39857Y7000D01*
X39809Y7000D01*
X39761Y6976D01*
X39738Y6952D01*
X39714Y6904D01*
X39690Y6809D01*
X39666Y6761D01*
X39642Y6738D01*
X39595Y6714D01*
X39547Y6714D01*
X39500Y6738D01*
X39476Y6761D01*
X39452Y6809D01*
X39452Y6928D01*
X39476Y7000D01*
X39952Y7214D02*
X39619Y7214D01*
X39452Y7214D02*
X39476Y7190D01*
X39500Y7214D01*
X39476Y7238D01*
X39452Y7214D01*
X39500Y7214D01*
X39952Y7666D02*
X39452Y7666D01*
X39928Y7666D02*
X39952Y7619D01*
X39952Y7523D01*
X39928Y7476D01*
X39904Y7452D01*
X39857Y7428D01*
X39714Y7428D01*
X39666Y7452D01*
X39642Y7476D01*
X39619Y7523D01*
X39619Y7619D01*
X39642Y7666D01*
X39928Y8095D02*
X39952Y8047D01*
X39952Y7952D01*
X39928Y7904D01*
X39880Y7880D01*
X39690Y7880D01*
X39642Y7904D01*
X39619Y7952D01*
X39619Y8047D01*
X39642Y8095D01*
X39690Y8119D01*
X39738Y8119D01*
X39785Y7880D01*
X2833Y1297D02*
X2833Y940D01*
X2809Y869D01*
X2761Y821D01*
X2690Y797D01*
X2642Y797D01*
X3023Y1297D02*
X3333Y1297D01*
X3166Y1107D01*
X3238Y1107D01*
X3285Y1083D01*
X3309Y1059D01*
X3333Y1011D01*
X3333Y892D01*
X3309Y845D01*
X3285Y821D01*
X3238Y797D01*
X3095Y797D01*
X3047Y821D01*
X3023Y845D01*
X2452Y3904D02*
X1952Y3904D01*
X2309Y4071D01*
X1952Y4238D01*
X2452Y4238D01*
X2452Y4690D02*
X2190Y4690D01*
X2142Y4666D01*
X2119Y4619D01*
X2119Y4523D01*
X2142Y4476D01*
X2428Y4690D02*
X2452Y4642D01*
X2452Y4523D01*
X2428Y4476D01*
X2380Y4452D01*
X2333Y4452D01*
X2285Y4476D01*
X2261Y4523D01*
X2261Y4642D01*
X2238Y4690D01*
X2119Y4857D02*
X2119Y5047D01*
X1952Y4928D02*
X2380Y4928D01*
X2428Y4952D01*
X2452Y5000D01*
X2452Y5047D01*
X2452Y5214D02*
X2119Y5214D01*
X1952Y5214D02*
X1976Y5190D01*
X2000Y5214D01*
X1976Y5238D01*
X1952Y5214D01*
X2000Y5214D01*
X2119Y5452D02*
X2452Y5452D01*
X2166Y5452D02*
X2142Y5476D01*
X2119Y5523D01*
X2119Y5595D01*
X2142Y5642D01*
X2190Y5666D01*
X2452Y5666D01*
X2119Y6119D02*
X2523Y6119D01*
X2571Y6095D01*
X2595Y6071D01*
X2619Y6023D01*
X2619Y5952D01*
X2595Y5904D01*
X2428Y6119D02*
X2452Y6071D01*
X2452Y5976D01*
X2428Y5928D01*
X2404Y5904D01*
X2357Y5880D01*
X2214Y5880D01*
X2166Y5904D01*
X2142Y5928D01*
X2119Y5976D01*
X2119Y6071D01*
X2142Y6119D01*
X2428Y6714D02*
X2452Y6785D01*
X2452Y6904D01*
X2428Y6952D01*
X2404Y6976D01*
X2357Y7000D01*
X2309Y7000D01*
X2261Y6976D01*
X2238Y6952D01*
X2214Y6904D01*
X2190Y6809D01*
X2166Y6761D01*
X2142Y6738D01*
X2095Y6714D01*
X2047Y6714D01*
X2000Y6738D01*
X1976Y6761D01*
X1952Y6809D01*
X1952Y6928D01*
X1976Y7000D01*
X2452Y7214D02*
X2119Y7214D01*
X1952Y7214D02*
X1976Y7190D01*
X2000Y7214D01*
X1976Y7238D01*
X1952Y7214D01*
X2000Y7214D01*
X2452Y7666D02*
X1952Y7666D01*
X2428Y7666D02*
X2452Y7619D01*
X2452Y7523D01*
X2428Y7476D01*
X2404Y7452D01*
X2357Y7428D01*
X2214Y7428D01*
X2166Y7452D01*
X2142Y7476D01*
X2119Y7523D01*
X2119Y7619D01*
X2142Y7666D01*
X2428Y8095D02*
X2452Y8047D01*
X2452Y7952D01*
X2428Y7904D01*
X2380Y7880D01*
X2190Y7880D01*
X2142Y7904D01*
X2119Y7952D01*
X2119Y8047D01*
X2142Y8095D01*
X2190Y8119D01*
X2238Y8119D01*
X2285Y7880D01*
X23452Y22119D02*
X23857Y22119D01*
X23904Y22142D01*
X23928Y22166D01*
X23952Y22214D01*
X23952Y22309D01*
X23928Y22357D01*
X23904Y22380D01*
X23857Y22404D01*
X23452Y22404D01*
X23952Y22904D02*
X23952Y22619D01*
X23952Y22761D02*
X23452Y22761D01*
X23523Y22714D01*
X23571Y22666D01*
X23595Y22619D01*
X29642Y46547D02*
X29642Y47047D01*
X29761Y47047D01*
X29833Y47023D01*
X29880Y46976D01*
X29904Y46928D01*
X29928Y46833D01*
X29928Y46761D01*
X29904Y46666D01*
X29880Y46619D01*
X29833Y46571D01*
X29761Y46547D01*
X29642Y46547D01*
X30404Y46547D02*
X30119Y46547D01*
X30261Y46547D02*
X30261Y47047D01*
X30214Y46976D01*
X30166Y46928D01*
X30119Y46904D01*
X30690Y46833D02*
X30642Y46857D01*
X30619Y46880D01*
X30595Y46928D01*
X30595Y46952D01*
X30619Y47000D01*
X30642Y47023D01*
X30690Y47047D01*
X30785Y47047D01*
X30833Y47023D01*
X30857Y47000D01*
X30880Y46952D01*
X30880Y46928D01*
X30857Y46880D01*
X30833Y46857D01*
X30785Y46833D01*
X30690Y46833D01*
X30642Y46809D01*
X30619Y46785D01*
X30595Y46738D01*
X30595Y46642D01*
X30619Y46595D01*
X30642Y46571D01*
X30690Y46547D01*
X30785Y46547D01*
X30833Y46571D01*
X30857Y46595D01*
X30880Y46642D01*
X30880Y46738D01*
X30857Y46785D01*
X30833Y46809D01*
X30785Y46833D01*
X22380Y53047D02*
X22380Y53547D01*
X22500Y53547D01*
X22571Y53523D01*
X22619Y53476D01*
X22642Y53428D01*
X22666Y53333D01*
X22666Y53261D01*
X22642Y53166D01*
X22619Y53119D01*
X22571Y53071D01*
X22500Y53047D01*
X22380Y53047D01*
X23142Y53047D02*
X22857Y53047D01*
X23000Y53047D02*
X23000Y53547D01*
X22952Y53476D01*
X22904Y53428D01*
X22857Y53404D01*
X16380Y53047D02*
X16380Y53547D01*
X16500Y53547D01*
X16571Y53523D01*
X16619Y53476D01*
X16642Y53428D01*
X16666Y53333D01*
X16666Y53261D01*
X16642Y53166D01*
X16619Y53119D01*
X16571Y53071D01*
X16500Y53047D01*
X16380Y53047D01*
X16857Y53500D02*
X16880Y53523D01*
X16928Y53547D01*
X17047Y53547D01*
X17095Y53523D01*
X17119Y53500D01*
X17142Y53452D01*
X17142Y53404D01*
X17119Y53333D01*
X16833Y53047D01*
X17142Y53047D01*
X10630Y53047D02*
X10630Y53547D01*
X10750Y53547D01*
X10821Y53523D01*
X10869Y53476D01*
X10892Y53428D01*
X10916Y53333D01*
X10916Y53261D01*
X10892Y53166D01*
X10869Y53119D01*
X10821Y53071D01*
X10750Y53047D01*
X10630Y53047D01*
X11083Y53547D02*
X11392Y53547D01*
X11226Y53357D01*
X11297Y53357D01*
X11345Y53333D01*
X11369Y53309D01*
X11392Y53261D01*
X11392Y53142D01*
X11369Y53095D01*
X11345Y53071D01*
X11297Y53047D01*
X11154Y53047D01*
X11107Y53071D01*
X11083Y53095D01*
X7130Y35047D02*
X7130Y35547D01*
X7250Y35547D01*
X7321Y35523D01*
X7369Y35476D01*
X7392Y35428D01*
X7416Y35333D01*
X7416Y35261D01*
X7392Y35166D01*
X7369Y35119D01*
X7321Y35071D01*
X7250Y35047D01*
X7130Y35047D01*
X7845Y35380D02*
X7845Y35047D01*
X7726Y35571D02*
X7607Y35214D01*
X7916Y35214D01*
X6130Y40797D02*
X6130Y41297D01*
X6250Y41297D01*
X6321Y41273D01*
X6369Y41226D01*
X6392Y41178D01*
X6416Y41083D01*
X6416Y41011D01*
X6392Y40916D01*
X6369Y40869D01*
X6321Y40821D01*
X6250Y40797D01*
X6130Y40797D01*
X6869Y41297D02*
X6630Y41297D01*
X6607Y41059D01*
X6630Y41083D01*
X6678Y41107D01*
X6797Y41107D01*
X6845Y41083D01*
X6869Y41059D01*
X6892Y41011D01*
X6892Y40892D01*
X6869Y40845D01*
X6845Y40821D01*
X6797Y40797D01*
X6678Y40797D01*
X6630Y40821D01*
X6607Y40845D01*
X2202Y11392D02*
X1702Y11392D01*
X1702Y11511D01*
X1726Y11583D01*
X1773Y11630D01*
X1821Y11654D01*
X1916Y11678D01*
X1988Y11678D01*
X2083Y11654D01*
X2130Y11630D01*
X2178Y11583D01*
X2202Y11511D01*
X2202Y11392D01*
X1750Y11869D02*
X1726Y11892D01*
X1702Y11940D01*
X1702Y12059D01*
X1726Y12107D01*
X1750Y12130D01*
X1797Y12154D01*
X1845Y12154D01*
X1916Y12130D01*
X2202Y11845D01*
X2202Y12154D01*
X1750Y12345D02*
X1726Y12369D01*
X1702Y12416D01*
X1702Y12535D01*
X1726Y12583D01*
X1750Y12607D01*
X1797Y12630D01*
X1845Y12630D01*
X1916Y12607D01*
X2202Y12321D01*
X2202Y12630D01*
X14392Y28547D02*
X14392Y29047D01*
X14511Y29047D01*
X14583Y29023D01*
X14630Y28976D01*
X14654Y28928D01*
X14678Y28833D01*
X14678Y28761D01*
X14654Y28666D01*
X14630Y28619D01*
X14583Y28571D01*
X14511Y28547D01*
X14392Y28547D01*
X14869Y29000D02*
X14892Y29023D01*
X14940Y29047D01*
X15059Y29047D01*
X15107Y29023D01*
X15130Y29000D01*
X15154Y28952D01*
X15154Y28904D01*
X15130Y28833D01*
X14845Y28547D01*
X15154Y28547D01*
X15630Y28547D02*
X15345Y28547D01*
X15488Y28547D02*
X15488Y29047D01*
X15440Y28976D01*
X15392Y28928D01*
X15345Y28904D01*
X20392Y28547D02*
X20392Y29047D01*
X20511Y29047D01*
X20583Y29023D01*
X20630Y28976D01*
X20654Y28928D01*
X20678Y28833D01*
X20678Y28761D01*
X20654Y28666D01*
X20630Y28619D01*
X20583Y28571D01*
X20511Y28547D01*
X20392Y28547D01*
X20869Y29000D02*
X20892Y29023D01*
X20940Y29047D01*
X21059Y29047D01*
X21107Y29023D01*
X21130Y29000D01*
X21154Y28952D01*
X21154Y28904D01*
X21130Y28833D01*
X20845Y28547D01*
X21154Y28547D01*
X21464Y29047D02*
X21511Y29047D01*
X21559Y29023D01*
X21583Y29000D01*
X21607Y28952D01*
X21630Y28857D01*
X21630Y28738D01*
X21607Y28642D01*
X21583Y28595D01*
X21559Y28571D01*
X21511Y28547D01*
X21464Y28547D01*
X21416Y28571D01*
X21392Y28595D01*
X21369Y28642D01*
X21345Y28738D01*
X21345Y28857D01*
X21369Y28952D01*
X21392Y29000D01*
X21416Y29023D01*
X21464Y29047D01*
X26392Y28547D02*
X26392Y29047D01*
X26511Y29047D01*
X26583Y29023D01*
X26630Y28976D01*
X26654Y28928D01*
X26678Y28833D01*
X26678Y28761D01*
X26654Y28666D01*
X26630Y28619D01*
X26583Y28571D01*
X26511Y28547D01*
X26392Y28547D01*
X27154Y28547D02*
X26869Y28547D01*
X27011Y28547D02*
X27011Y29047D01*
X26964Y28976D01*
X26916Y28928D01*
X26869Y28904D01*
X27392Y28547D02*
X27488Y28547D01*
X27535Y28571D01*
X27559Y28595D01*
X27607Y28666D01*
X27630Y28761D01*
X27630Y28952D01*
X27607Y29000D01*
X27583Y29023D01*
X27535Y29047D01*
X27440Y29047D01*
X27392Y29023D01*
X27369Y29000D01*
X27345Y28952D01*
X27345Y28833D01*
X27369Y28785D01*
X27392Y28761D01*
X27440Y28738D01*
X27535Y28738D01*
X27583Y28761D01*
X27607Y28785D01*
X27630Y28833D01*
X5130Y46547D02*
X5130Y47047D01*
X5250Y47047D01*
X5321Y47023D01*
X5369Y46976D01*
X5392Y46928D01*
X5416Y46833D01*
X5416Y46761D01*
X5392Y46666D01*
X5369Y46619D01*
X5321Y46571D01*
X5250Y46547D01*
X5130Y46547D01*
X5845Y47047D02*
X5750Y47047D01*
X5702Y47023D01*
X5678Y47000D01*
X5630Y46928D01*
X5607Y46833D01*
X5607Y46642D01*
X5630Y46595D01*
X5654Y46571D01*
X5702Y46547D01*
X5797Y46547D01*
X5845Y46571D01*
X5869Y46595D01*
X5892Y46642D01*
X5892Y46761D01*
X5869Y46809D01*
X5845Y46833D01*
X5797Y46857D01*
X5702Y46857D01*
X5654Y46833D01*
X5630Y46809D01*
X5607Y46761D01*
X30642Y40797D02*
X30642Y41297D01*
X30761Y41297D01*
X30833Y41273D01*
X30880Y41226D01*
X30904Y41178D01*
X30928Y41083D01*
X30928Y41011D01*
X30904Y40916D01*
X30880Y40869D01*
X30833Y40821D01*
X30761Y40797D01*
X30642Y40797D01*
X31404Y40797D02*
X31119Y40797D01*
X31261Y40797D02*
X31261Y41297D01*
X31214Y41226D01*
X31166Y41178D01*
X31119Y41154D01*
X31571Y41297D02*
X31904Y41297D01*
X31690Y40797D01*
X31642Y35047D02*
X31642Y35547D01*
X31761Y35547D01*
X31833Y35523D01*
X31880Y35476D01*
X31904Y35428D01*
X31928Y35333D01*
X31928Y35261D01*
X31904Y35166D01*
X31880Y35119D01*
X31833Y35071D01*
X31761Y35047D01*
X31642Y35047D01*
X32404Y35047D02*
X32119Y35047D01*
X32261Y35047D02*
X32261Y35547D01*
X32214Y35476D01*
X32166Y35428D01*
X32119Y35404D01*
X32833Y35547D02*
X32738Y35547D01*
X32690Y35523D01*
X32666Y35500D01*
X32619Y35428D01*
X32595Y35333D01*
X32595Y35142D01*
X32619Y35095D01*
X32642Y35071D01*
X32690Y35047D01*
X32785Y35047D01*
X32833Y35071D01*
X32857Y35095D01*
X32880Y35142D01*
X32880Y35261D01*
X32857Y35309D01*
X32833Y35333D01*
X32785Y35357D01*
X32690Y35357D01*
X32642Y35333D01*
X32619Y35309D01*
X32595Y35261D01*
X33642Y22297D02*
X33642Y22797D01*
X33761Y22797D01*
X33833Y22773D01*
X33880Y22726D01*
X33904Y22678D01*
X33928Y22583D01*
X33928Y22511D01*
X33904Y22416D01*
X33880Y22369D01*
X33833Y22321D01*
X33761Y22297D01*
X33642Y22297D01*
X34404Y22297D02*
X34119Y22297D01*
X34261Y22297D02*
X34261Y22797D01*
X34214Y22726D01*
X34166Y22678D01*
X34119Y22654D01*
X34857Y22797D02*
X34619Y22797D01*
X34595Y22559D01*
X34619Y22583D01*
X34666Y22607D01*
X34785Y22607D01*
X34833Y22583D01*
X34857Y22559D01*
X34880Y22511D01*
X34880Y22392D01*
X34857Y22345D01*
X34833Y22321D01*
X34785Y22297D01*
X34666Y22297D01*
X34619Y22321D01*
X34595Y22345D01*
X34642Y16297D02*
X34642Y16797D01*
X34761Y16797D01*
X34833Y16773D01*
X34880Y16726D01*
X34904Y16678D01*
X34928Y16583D01*
X34928Y16511D01*
X34904Y16416D01*
X34880Y16369D01*
X34833Y16321D01*
X34761Y16297D01*
X34642Y16297D01*
X35404Y16297D02*
X35119Y16297D01*
X35261Y16297D02*
X35261Y16797D01*
X35214Y16726D01*
X35166Y16678D01*
X35119Y16654D01*
X35833Y16630D02*
X35833Y16297D01*
X35714Y16821D02*
X35595Y16464D01*
X35904Y16464D01*
X36392Y13047D02*
X36392Y13547D01*
X36511Y13547D01*
X36583Y13523D01*
X36630Y13476D01*
X36654Y13428D01*
X36678Y13333D01*
X36678Y13261D01*
X36654Y13166D01*
X36630Y13119D01*
X36583Y13071D01*
X36511Y13047D01*
X36392Y13047D01*
X37154Y13047D02*
X36869Y13047D01*
X37011Y13047D02*
X37011Y13547D01*
X36964Y13476D01*
X36916Y13428D01*
X36869Y13404D01*
X37321Y13547D02*
X37630Y13547D01*
X37464Y13357D01*
X37535Y13357D01*
X37583Y13333D01*
X37607Y13309D01*
X37630Y13261D01*
X37630Y13142D01*
X37607Y13095D01*
X37583Y13071D01*
X37535Y13047D01*
X37392Y13047D01*
X37345Y13071D01*
X37321Y13095D01*
X29642Y4047D02*
X29642Y4547D01*
X29761Y4547D01*
X29833Y4523D01*
X29880Y4476D01*
X29904Y4428D01*
X29928Y4333D01*
X29928Y4261D01*
X29904Y4166D01*
X29880Y4119D01*
X29833Y4071D01*
X29761Y4047D01*
X29642Y4047D01*
X30404Y4047D02*
X30119Y4047D01*
X30261Y4047D02*
X30261Y4547D01*
X30214Y4476D01*
X30166Y4428D01*
X30119Y4404D01*
X30595Y4500D02*
X30619Y4523D01*
X30666Y4547D01*
X30785Y4547D01*
X30833Y4523D01*
X30857Y4500D01*
X30880Y4452D01*
X30880Y4404D01*
X30857Y4333D01*
X30571Y4047D01*
X30880Y4047D01*
X24642Y4047D02*
X24642Y4547D01*
X24761Y4547D01*
X24833Y4523D01*
X24880Y4476D01*
X24904Y4428D01*
X24928Y4333D01*
X24928Y4261D01*
X24904Y4166D01*
X24880Y4119D01*
X24833Y4071D01*
X24761Y4047D01*
X24642Y4047D01*
X25404Y4047D02*
X25119Y4047D01*
X25261Y4047D02*
X25261Y4547D01*
X25214Y4476D01*
X25166Y4428D01*
X25119Y4404D01*
X25880Y4047D02*
X25595Y4047D01*
X25738Y4047D02*
X25738Y4547D01*
X25690Y4476D01*
X25642Y4428D01*
X25595Y4404D01*
X18642Y4047D02*
X18642Y4547D01*
X18761Y4547D01*
X18833Y4523D01*
X18880Y4476D01*
X18904Y4428D01*
X18928Y4333D01*
X18928Y4261D01*
X18904Y4166D01*
X18880Y4119D01*
X18833Y4071D01*
X18761Y4047D01*
X18642Y4047D01*
X19404Y4047D02*
X19119Y4047D01*
X19261Y4047D02*
X19261Y4547D01*
X19214Y4476D01*
X19166Y4428D01*
X19119Y4404D01*
X19714Y4547D02*
X19761Y4547D01*
X19809Y4523D01*
X19833Y4500D01*
X19857Y4452D01*
X19880Y4357D01*
X19880Y4238D01*
X19857Y4142D01*
X19833Y4095D01*
X19809Y4071D01*
X19761Y4047D01*
X19714Y4047D01*
X19666Y4071D01*
X19642Y4095D01*
X19619Y4142D01*
X19595Y4238D01*
X19595Y4357D01*
X19619Y4452D01*
X19642Y4500D01*
X19666Y4523D01*
X19714Y4547D01*
X9380Y22047D02*
X9380Y22547D01*
X9500Y22547D01*
X9571Y22523D01*
X9619Y22476D01*
X9642Y22428D01*
X9666Y22333D01*
X9666Y22261D01*
X9642Y22166D01*
X9619Y22119D01*
X9571Y22071D01*
X9500Y22047D01*
X9380Y22047D01*
X9904Y22047D02*
X10000Y22047D01*
X10047Y22071D01*
X10071Y22095D01*
X10119Y22166D01*
X10142Y22261D01*
X10142Y22452D01*
X10119Y22500D01*
X10095Y22523D01*
X10047Y22547D01*
X9952Y22547D01*
X9904Y22523D01*
X9880Y22500D01*
X9857Y22452D01*
X9857Y22333D01*
X9880Y22285D01*
X9904Y22261D01*
X9952Y22238D01*
X10047Y22238D01*
X10095Y22261D01*
X10119Y22285D01*
X10142Y22333D01*
X10380Y16297D02*
X10380Y16797D01*
X10500Y16797D01*
X10571Y16773D01*
X10619Y16726D01*
X10642Y16678D01*
X10666Y16583D01*
X10666Y16511D01*
X10642Y16416D01*
X10619Y16369D01*
X10571Y16321D01*
X10500Y16297D01*
X10380Y16297D01*
X10952Y16583D02*
X10904Y16607D01*
X10880Y16630D01*
X10857Y16678D01*
X10857Y16702D01*
X10880Y16750D01*
X10904Y16773D01*
X10952Y16797D01*
X11047Y16797D01*
X11095Y16773D01*
X11119Y16750D01*
X11142Y16702D01*
X11142Y16678D01*
X11119Y16630D01*
X11095Y16607D01*
X11047Y16583D01*
X10952Y16583D01*
X10904Y16559D01*
X10880Y16535D01*
X10857Y16488D01*
X10857Y16392D01*
X10880Y16345D01*
X10904Y16321D01*
X10952Y16297D01*
X11047Y16297D01*
X11095Y16321D01*
X11119Y16345D01*
X11142Y16392D01*
X11142Y16488D01*
X11119Y16535D01*
X11095Y16559D01*
X11047Y16583D01*
X11380Y10547D02*
X11380Y11047D01*
X11500Y11047D01*
X11571Y11023D01*
X11619Y10976D01*
X11642Y10928D01*
X11666Y10833D01*
X11666Y10761D01*
X11642Y10666D01*
X11619Y10619D01*
X11571Y10571D01*
X11500Y10547D01*
X11380Y10547D01*
X11833Y11047D02*
X12166Y11047D01*
X11952Y10547D01*
%LPC*%
G54D13*
X9125Y30000D03*
X9875Y30000D03*
G54D14*
X18250Y22796D03*
X18250Y22204D03*
X19750Y25204D03*
X19750Y25796D03*
G54D15*
X39000Y15000D03*
X3000Y45000D03*
X3000Y15000D03*
X39000Y45000D03*
G54D16*
X35000Y57500D03*
G54D17*
X35000Y56500D03*
X35000Y55500D03*
X35000Y54500D03*
X35000Y53500D03*
X35000Y52500D03*
X35000Y51500D03*
X35000Y50500D03*
G54D16*
X7000Y50500D03*
G54D17*
X7000Y51500D03*
X7000Y52500D03*
X7000Y53500D03*
X7000Y54500D03*
X7000Y55500D03*
X7000Y56500D03*
X7000Y57500D03*
G54D16*
X35000Y9500D03*
G54D17*
X35000Y8500D03*
X35000Y7500D03*
X35000Y6500D03*
X35000Y5500D03*
X35000Y4500D03*
X35000Y3500D03*
X35000Y2500D03*
G54D16*
X7000Y2500D03*
G54D17*
X7000Y3500D03*
X7000Y4500D03*
X7000Y5500D03*
X7000Y6500D03*
X7000Y7500D03*
X7000Y8500D03*
X7000Y9500D03*
G54D18*
X30456Y57000D03*
X27543Y57000D03*
X14456Y3000D03*
X11543Y3000D03*
G54D19*
X41025Y57500D03*
X41025Y56500D03*
X41025Y55500D03*
X41025Y54500D03*
X41025Y53500D03*
X41025Y52500D03*
X41025Y51500D03*
X41025Y50500D03*
X36975Y57500D03*
X36975Y56500D03*
X36975Y55500D03*
X36975Y54500D03*
X36975Y53500D03*
X36975Y52500D03*
X36975Y51500D03*
X36975Y50500D03*
X975Y50500D03*
X975Y51500D03*
X975Y52500D03*
X975Y53500D03*
X975Y54500D03*
X975Y55500D03*
X975Y56500D03*
X975Y57500D03*
X5025Y50500D03*
X5025Y51500D03*
X5025Y52500D03*
X5025Y53500D03*
X5025Y54500D03*
X5025Y55500D03*
X5025Y56500D03*
X5025Y57500D03*
X41025Y9500D03*
X41025Y8500D03*
X41025Y7500D03*
X41025Y6500D03*
X41025Y5500D03*
X41025Y4500D03*
X41025Y3500D03*
X41025Y2500D03*
X36975Y9500D03*
X36975Y8500D03*
X36975Y7500D03*
X36975Y6500D03*
X36975Y5500D03*
X36975Y4500D03*
X36975Y3500D03*
X36975Y2500D03*
X975Y2500D03*
X975Y3500D03*
X975Y4500D03*
X975Y5500D03*
X975Y6500D03*
X975Y7500D03*
X975Y8500D03*
X975Y9500D03*
X5025Y2500D03*
X5025Y3500D03*
X5025Y4500D03*
X5025Y5500D03*
X5025Y6500D03*
X5025Y7500D03*
X5025Y8500D03*
X5025Y9500D03*
G54D20*
X19250Y21585D03*
X19750Y21585D03*
X20250Y21585D03*
X20750Y21585D03*
X21250Y21585D03*
X21750Y21585D03*
X22250Y21585D03*
X22750Y21585D03*
X22750Y23415D03*
X22250Y23415D03*
X21750Y23415D03*
X21250Y23415D03*
X20750Y23415D03*
X20250Y23415D03*
X19750Y23415D03*
X19250Y23415D03*
G54D21*
X30978Y48063D03*
X29482Y48063D03*
G54D22*
X30230Y48063D03*
G54D21*
X23452Y54394D03*
X21956Y54394D03*
G54D22*
X22704Y54394D03*
G54D21*
X17547Y54394D03*
X16051Y54394D03*
G54D22*
X16799Y54394D03*
G54D21*
X11641Y54394D03*
X10145Y54394D03*
G54D22*
X10893Y54394D03*
G54D21*
X8307Y36326D03*
X6811Y36326D03*
G54D22*
X7559Y36326D03*
G54D21*
X7282Y42141D03*
X5785Y42141D03*
G54D22*
X6534Y42141D03*
G54D21*
X4427Y11944D03*
X2931Y11944D03*
G54D22*
X3679Y11944D03*
G54D21*
X15842Y30004D03*
X14346Y30004D03*
G54D22*
X15094Y30004D03*
G54D21*
X21748Y30004D03*
X20252Y30004D03*
G54D22*
X21000Y30004D03*
G54D21*
X27654Y30004D03*
X26158Y30004D03*
G54D22*
X26906Y30004D03*
G54D21*
X6256Y47957D03*
X4760Y47957D03*
G54D22*
X5508Y47957D03*
G54D21*
X32004Y42247D03*
X30508Y42247D03*
G54D22*
X31256Y42247D03*
G54D21*
X33029Y36432D03*
X31533Y36432D03*
G54D22*
X32281Y36432D03*
G54D21*
X35192Y23660D03*
X33696Y23660D03*
G54D22*
X34444Y23660D03*
G54D21*
X36222Y17821D03*
X34726Y17821D03*
G54D22*
X35474Y17821D03*
G54D21*
X37251Y11983D03*
X35755Y11983D03*
G54D22*
X36503Y11983D03*
G54D21*
X30383Y5533D03*
X31879Y5533D03*
G54D22*
X31131Y5533D03*
G54D21*
X24477Y5533D03*
X25973Y5533D03*
G54D22*
X25225Y5533D03*
G54D21*
X18571Y5533D03*
X20067Y5533D03*
G54D22*
X19319Y5533D03*
G54D21*
X8974Y23553D03*
X10470Y23553D03*
G54D22*
X9722Y23553D03*
G54D21*
X11499Y17715D03*
X10003Y17715D03*
G54D22*
X10751Y17715D03*
G54D21*
X11033Y11877D03*
X12529Y11877D03*
G54D22*
X11781Y11877D03*
M02*
