G04 (created by PCBNEW (2013-07-07 BZR 4022)-stable) date 11/4/2014 1:01:41 AM*
%MOIN*%
G04 Gerber Fmt 3.4, Leading zero omitted, Abs format*
%FSLAX34Y34*%
G01*
G70*
G90*
G04 APERTURE LIST*
%ADD10C,0.01*%
%ADD11R,0.06X0.06*%
%ADD12C,0.06*%
%ADD13C,0.287402*%
%ADD14O,0.0847402X0.12411*%
%ADD15C,0.0984252*%
%ADD16C,0.035*%
%ADD17C,0.05*%
%ADD18C,0.025*%
%ADD19C,0.1*%
G04 APERTURE END LIST*
G54D10*
G54D11*
X7000Y2500D03*
G54D12*
X7000Y3500D03*
X7000Y4500D03*
X7000Y5500D03*
X7000Y6500D03*
X7000Y7500D03*
X7000Y8500D03*
X7000Y9500D03*
G54D11*
X7000Y50500D03*
G54D12*
X7000Y51500D03*
X7000Y52500D03*
X7000Y53500D03*
X7000Y54500D03*
X7000Y55500D03*
X7000Y56500D03*
X7000Y57500D03*
G54D13*
X39000Y45000D03*
X39000Y15000D03*
X3000Y45000D03*
X3000Y15000D03*
G54D11*
X31750Y57750D03*
G54D12*
X30750Y57750D03*
X29750Y57750D03*
X28750Y57750D03*
X27750Y57750D03*
X26750Y57750D03*
X25750Y57750D03*
X24750Y57750D03*
X23750Y57750D03*
X22750Y57750D03*
X21750Y57750D03*
X20750Y57750D03*
G54D11*
X20750Y45750D03*
G54D12*
X21750Y45750D03*
X22750Y45750D03*
X23750Y45750D03*
X24750Y45750D03*
X25750Y45750D03*
X26750Y45750D03*
X27750Y45750D03*
X28750Y45750D03*
X29750Y45750D03*
X30750Y45750D03*
X31750Y45750D03*
G54D14*
X9722Y23553D03*
X10751Y17715D03*
X11781Y11877D03*
X26367Y38362D03*
X27051Y34484D03*
X32193Y30004D03*
X29199Y21743D03*
X36130Y30004D03*
X5508Y47957D03*
X28515Y25621D03*
X6534Y42141D03*
X7559Y36326D03*
X19355Y30004D03*
X23292Y30004D03*
X3679Y11944D03*
G54D15*
X40246Y6000D03*
G54D16*
X19650Y10650D03*
X20750Y45750D03*
X17750Y44000D03*
X17750Y53500D03*
X17750Y41500D03*
X17250Y43500D03*
X17250Y52500D03*
X17250Y41000D03*
X18250Y44500D03*
X18250Y41000D03*
X6000Y32750D03*
X9250Y45000D03*
X16750Y43000D03*
X17250Y36500D03*
X7000Y33250D03*
X3000Y46000D03*
X4000Y45000D03*
X3750Y45750D03*
X3000Y44000D03*
X3750Y44250D03*
X2250Y44250D03*
X2000Y45000D03*
X2250Y45750D03*
X2250Y15750D03*
X2000Y15000D03*
X2250Y14250D03*
X3750Y14250D03*
X3000Y14000D03*
X3750Y15750D03*
X4000Y15000D03*
X3000Y16000D03*
X39000Y16000D03*
X40000Y15000D03*
X39750Y15750D03*
X39000Y14000D03*
X39750Y14250D03*
X38250Y14250D03*
X38000Y15000D03*
X38250Y15750D03*
X38250Y45750D03*
X38000Y45000D03*
X38250Y44250D03*
X39750Y44250D03*
X39000Y44000D03*
X39750Y45750D03*
X40000Y45000D03*
X39000Y46000D03*
X18000Y6750D03*
X18000Y6250D03*
X18000Y5750D03*
X18000Y5250D03*
X18000Y4750D03*
X18500Y4750D03*
X19000Y4750D03*
X19500Y4750D03*
X20000Y4750D03*
X20500Y4750D03*
X21000Y4750D03*
X21500Y4750D03*
X22000Y4750D03*
X22500Y4750D03*
X23000Y4750D03*
X23500Y4750D03*
X24000Y4750D03*
X24500Y12750D03*
X24000Y12750D03*
X23500Y12750D03*
X23000Y12750D03*
X22500Y12750D03*
X22000Y12750D03*
X21500Y12750D03*
X21000Y12750D03*
X20500Y12750D03*
X19000Y12750D03*
X18500Y12750D03*
X18000Y12750D03*
X18000Y12250D03*
X18000Y11750D03*
X18000Y11250D03*
X18000Y10750D03*
X18000Y10250D03*
X18000Y9750D03*
X18000Y9250D03*
X18000Y8750D03*
X18000Y8250D03*
X18000Y7750D03*
X18000Y7250D03*
X25500Y7250D03*
X25500Y7750D03*
X25500Y8250D03*
X25500Y8750D03*
X25500Y9250D03*
X25500Y9750D03*
X25500Y10250D03*
X25500Y10750D03*
X25500Y11250D03*
X25500Y11750D03*
X25500Y12250D03*
X25500Y12750D03*
X25000Y12750D03*
X36750Y3250D03*
X36250Y3250D03*
X35750Y3250D03*
X20550Y7500D03*
X20550Y8050D03*
X24000Y8950D03*
X24300Y7250D03*
X24300Y8250D03*
X4750Y13000D03*
X5500Y33750D03*
X16250Y41000D03*
X16250Y49000D03*
X16250Y36500D03*
X18250Y31000D03*
X19000Y21750D03*
X15750Y35250D03*
X17750Y30000D03*
X15250Y36500D03*
X15750Y41500D03*
X18500Y24000D03*
X20000Y37000D03*
X20750Y53250D03*
X27750Y30000D03*
X29000Y34500D03*
X16250Y28250D03*
X10750Y36250D03*
X16250Y10500D03*
X16250Y2500D03*
X10750Y57500D03*
G54D17*
X21500Y45000D02*
X20750Y45750D01*
X21500Y27000D02*
X21500Y45000D01*
X19650Y25150D02*
X21500Y27000D01*
X19650Y10650D02*
X19650Y25150D01*
G54D18*
X17750Y53500D02*
X17750Y44250D01*
X17750Y41500D02*
X17750Y44000D01*
X17750Y44000D02*
X17750Y44250D01*
X7000Y53500D02*
X7500Y53500D01*
X12250Y6500D02*
X7000Y6500D01*
X14250Y8500D02*
X12250Y6500D01*
X14250Y27500D02*
X14250Y8500D01*
X8750Y33000D02*
X14250Y27500D01*
X8750Y52250D02*
X8750Y33000D01*
X7500Y53500D02*
X8750Y52250D01*
X17250Y43500D02*
X17250Y41000D01*
X17250Y52500D02*
X17250Y43750D01*
X17250Y43750D02*
X17250Y43500D01*
X7000Y7500D02*
X12250Y7500D01*
X7500Y52500D02*
X7000Y52500D01*
X8250Y51750D02*
X7500Y52500D01*
X8250Y39000D02*
X8250Y48500D01*
X8250Y48500D02*
X8250Y51750D01*
X6500Y37250D02*
X8250Y39000D01*
X6500Y34500D02*
X6500Y37250D01*
X13750Y27250D02*
X6500Y34500D01*
X13750Y9000D02*
X13750Y27250D01*
X12250Y7500D02*
X13750Y9000D01*
X18250Y44500D02*
X18250Y41000D01*
X7000Y5500D02*
X6000Y6500D01*
X6000Y6500D02*
X6000Y32750D01*
X7000Y4500D02*
X12250Y4500D01*
X7500Y55500D02*
X7000Y55500D01*
X9250Y53750D02*
X7500Y55500D01*
X9250Y33250D02*
X9250Y45000D01*
X9250Y45000D02*
X9250Y45250D01*
X9250Y45250D02*
X9250Y53750D01*
X14750Y27750D02*
X9250Y33250D01*
X14750Y7000D02*
X14750Y27750D01*
X12250Y4500D02*
X14750Y7000D01*
X16750Y43000D02*
X16750Y37000D01*
X17250Y36500D02*
X16750Y37000D01*
X7000Y51500D02*
X7500Y51500D01*
X12250Y8500D02*
X7000Y8500D01*
X13250Y9500D02*
X12250Y8500D01*
X13250Y27000D02*
X13250Y9500D01*
X6000Y34250D02*
X7000Y33250D01*
X7000Y33250D02*
X13250Y27000D01*
X6000Y37500D02*
X6000Y34250D01*
X7750Y39250D02*
X6000Y37500D01*
X7750Y51250D02*
X7750Y39250D01*
X7500Y51500D02*
X7750Y51250D01*
G54D17*
X3000Y45000D02*
X3000Y46000D01*
X4000Y45000D02*
X3000Y45000D01*
X3000Y45000D02*
X3750Y45750D01*
X3000Y44000D02*
X3000Y45000D01*
X3000Y45000D02*
X3750Y44250D01*
X3000Y45000D02*
X2250Y44250D01*
X2000Y45000D02*
X3000Y45000D01*
X3000Y45000D02*
X2250Y45750D01*
X3000Y15000D02*
X2250Y15750D01*
X2000Y15000D02*
X3000Y15000D01*
X3000Y15000D02*
X2250Y14250D01*
X3000Y15000D02*
X3750Y14250D01*
X3000Y14000D02*
X3000Y15000D01*
X3000Y15000D02*
X3750Y15750D01*
X4000Y15000D02*
X3000Y15000D01*
X3000Y15000D02*
X3000Y16000D01*
X39000Y15000D02*
X39000Y16000D01*
X40000Y15000D02*
X39000Y15000D01*
X39000Y15000D02*
X39750Y15750D01*
X39000Y14000D02*
X39000Y15000D01*
X39000Y15000D02*
X39750Y14250D01*
X39000Y15000D02*
X38250Y14250D01*
X38000Y15000D02*
X39000Y15000D01*
X39000Y15000D02*
X38250Y15750D01*
X39000Y45000D02*
X38250Y45750D01*
X38000Y45000D02*
X39000Y45000D01*
X39000Y45000D02*
X38250Y44250D01*
X39000Y45000D02*
X39750Y44250D01*
X39000Y44000D02*
X39000Y45000D01*
X39000Y45000D02*
X39750Y45750D01*
X40000Y45000D02*
X39000Y45000D01*
X39000Y45000D02*
X39000Y46000D01*
G54D18*
X19000Y12750D02*
X18000Y12750D01*
X18000Y12750D02*
X18000Y4750D01*
X18000Y4750D02*
X24000Y4750D01*
X25500Y7250D02*
X25500Y12750D01*
X25500Y12750D02*
X20500Y12750D01*
X23500Y4750D02*
X24000Y4750D01*
X18000Y7250D02*
X18000Y6750D01*
X18000Y6250D02*
X18000Y5750D01*
X18000Y5250D02*
X18000Y4750D01*
X18500Y4750D02*
X19000Y4750D01*
X19500Y4750D02*
X20000Y4750D01*
X20500Y4750D02*
X21000Y4750D01*
X21500Y4750D02*
X22000Y4750D01*
X22500Y4750D02*
X23000Y4750D01*
X18000Y8750D02*
X18000Y9250D01*
X25000Y12750D02*
X24500Y12750D01*
X24000Y12750D02*
X23500Y12750D01*
X23000Y12750D02*
X22500Y12750D01*
X22000Y12750D02*
X21500Y12750D01*
X21000Y12750D02*
X20500Y12750D01*
X19000Y12750D02*
X18500Y12750D01*
X18000Y12750D02*
X18000Y12250D01*
X18000Y11750D02*
X18000Y11250D01*
X18000Y10750D02*
X18000Y10250D01*
X18000Y9750D02*
X18000Y9250D01*
X18000Y8250D02*
X18000Y7750D01*
X25500Y7250D02*
X25500Y7750D01*
X25500Y8250D02*
X25500Y8750D01*
X25500Y9250D02*
X25500Y9750D01*
X25500Y10250D02*
X25500Y10750D01*
X25500Y11250D02*
X25500Y11750D01*
X25500Y12250D02*
X25500Y12750D01*
X36250Y3250D02*
X35750Y3250D01*
X36750Y3250D02*
X36250Y3250D01*
X20550Y7500D02*
X24050Y7500D01*
X24050Y7500D02*
X24300Y7250D01*
X20550Y8050D02*
X24100Y8050D01*
X20550Y7500D02*
X20550Y8050D01*
X24100Y8050D02*
X24300Y8250D01*
X24300Y8650D02*
X24300Y8250D01*
X24000Y8950D02*
X24300Y8650D01*
X24300Y8250D02*
X24300Y7250D01*
X5500Y13750D02*
X4750Y13000D01*
X5500Y33750D02*
X5500Y13750D01*
X16250Y49000D02*
X16250Y41000D01*
X18250Y34500D02*
X16250Y36500D01*
X18250Y31000D02*
X18250Y34500D01*
X19000Y21750D02*
X19000Y28000D01*
X19000Y28000D02*
X17250Y29750D01*
X17250Y29750D02*
X18500Y28500D01*
X17250Y33750D02*
X17250Y29750D01*
X15750Y35250D02*
X17250Y33750D01*
X17750Y34000D02*
X17750Y30000D01*
X15250Y36500D02*
X17750Y34000D01*
X15750Y41500D02*
X13750Y39500D01*
X13750Y39500D02*
X13750Y32000D01*
X18500Y24000D02*
X18500Y27250D01*
X18500Y27250D02*
X13750Y32000D01*
X20000Y52500D02*
X20750Y53250D01*
X20000Y52500D02*
X20000Y37000D01*
X7000Y56500D02*
X7500Y56500D01*
X12250Y3500D02*
X7000Y3500D01*
X15250Y6500D02*
X12250Y3500D01*
X15250Y28000D02*
X15250Y6500D01*
X9750Y33500D02*
X15250Y28000D01*
X9750Y54250D02*
X9750Y33500D01*
X7500Y56500D02*
X9750Y54250D01*
X27750Y33250D02*
X27750Y30000D01*
X29000Y34500D02*
X27750Y33250D01*
G54D19*
X16250Y10500D02*
X16250Y2500D01*
X16250Y28250D02*
X16250Y10500D01*
X16250Y28250D02*
X10750Y33750D01*
X10750Y33750D02*
X10750Y36250D01*
X10750Y36250D02*
X10750Y57500D01*
G54D10*
G36*
X41830Y169D02*
X40888Y169D01*
X40888Y6127D01*
X40790Y6363D01*
X40610Y6544D01*
X40589Y6552D01*
X40589Y14695D01*
X40589Y44695D01*
X40584Y45326D01*
X40351Y45889D01*
X40169Y46063D01*
X40063Y45957D01*
X40063Y46169D01*
X39889Y46351D01*
X39304Y46589D01*
X38673Y46584D01*
X38110Y46351D01*
X37936Y46169D01*
X39000Y45106D01*
X40063Y46169D01*
X40063Y45957D01*
X39106Y45000D01*
X40169Y43936D01*
X40351Y44110D01*
X40589Y44695D01*
X40589Y14695D01*
X40584Y15326D01*
X40351Y15889D01*
X40169Y16063D01*
X40063Y15957D01*
X40063Y16169D01*
X40063Y43830D01*
X39000Y44893D01*
X38893Y44787D01*
X38893Y45000D01*
X37830Y46063D01*
X37648Y45889D01*
X37410Y45304D01*
X37415Y44673D01*
X37648Y44110D01*
X37830Y43936D01*
X38893Y45000D01*
X38893Y44787D01*
X37936Y43830D01*
X38110Y43648D01*
X38695Y43410D01*
X39326Y43415D01*
X39889Y43648D01*
X40063Y43830D01*
X40063Y16169D01*
X39889Y16351D01*
X39304Y16589D01*
X38673Y16584D01*
X38110Y16351D01*
X37936Y16169D01*
X39000Y15106D01*
X40063Y16169D01*
X40063Y15957D01*
X39106Y15000D01*
X40169Y13936D01*
X40351Y14110D01*
X40589Y14695D01*
X40589Y6552D01*
X40374Y6642D01*
X40118Y6642D01*
X40063Y6619D01*
X40063Y13830D01*
X39000Y14893D01*
X38893Y14787D01*
X38893Y15000D01*
X37830Y16063D01*
X37648Y15889D01*
X37410Y15304D01*
X37415Y14673D01*
X37648Y14110D01*
X37830Y13936D01*
X38893Y15000D01*
X38893Y14787D01*
X37936Y13830D01*
X38110Y13648D01*
X38695Y13410D01*
X39326Y13415D01*
X39889Y13648D01*
X40063Y13830D01*
X40063Y6619D01*
X39882Y6544D01*
X39702Y6364D01*
X39604Y6128D01*
X39603Y5872D01*
X39701Y5636D01*
X39881Y5455D01*
X40117Y5357D01*
X40373Y5357D01*
X40609Y5455D01*
X40790Y5635D01*
X40888Y5871D01*
X40888Y6127D01*
X40888Y169D01*
X36704Y169D01*
X36704Y29792D01*
X36704Y30216D01*
X36660Y30435D01*
X36536Y30622D01*
X36350Y30746D01*
X36130Y30790D01*
X35911Y30746D01*
X35725Y30622D01*
X35600Y30435D01*
X35557Y30216D01*
X35557Y29792D01*
X35600Y29572D01*
X35725Y29386D01*
X35911Y29262D01*
X36130Y29218D01*
X36350Y29262D01*
X36536Y29386D01*
X36660Y29572D01*
X36704Y29792D01*
X36704Y169D01*
X32767Y169D01*
X32767Y29792D01*
X32767Y30216D01*
X32723Y30435D01*
X32599Y30622D01*
X32413Y30746D01*
X32200Y30788D01*
X32200Y45839D01*
X32200Y45839D01*
X32200Y57479D01*
X32200Y58079D01*
X32177Y58134D01*
X32135Y58177D01*
X32079Y58199D01*
X32020Y58200D01*
X31420Y58200D01*
X31365Y58177D01*
X31322Y58135D01*
X31300Y58079D01*
X31299Y58020D01*
X31299Y57420D01*
X31322Y57365D01*
X31364Y57322D01*
X31420Y57300D01*
X31479Y57299D01*
X32079Y57299D01*
X32134Y57322D01*
X32177Y57364D01*
X32199Y57420D01*
X32200Y57479D01*
X32200Y45839D01*
X32131Y46004D01*
X32005Y46131D01*
X31839Y46199D01*
X31660Y46200D01*
X31495Y46131D01*
X31368Y46005D01*
X31300Y45839D01*
X31299Y45660D01*
X31368Y45495D01*
X31494Y45368D01*
X31660Y45300D01*
X31839Y45299D01*
X32004Y45368D01*
X32131Y45494D01*
X32199Y45660D01*
X32200Y45839D01*
X32200Y30788D01*
X32193Y30790D01*
X31974Y30746D01*
X31788Y30622D01*
X31663Y30435D01*
X31620Y30216D01*
X31620Y29792D01*
X31663Y29572D01*
X31788Y29386D01*
X31974Y29262D01*
X32193Y29218D01*
X32413Y29262D01*
X32599Y29386D01*
X32723Y29572D01*
X32767Y29792D01*
X32767Y169D01*
X31200Y169D01*
X31200Y45839D01*
X31200Y57839D01*
X31131Y58004D01*
X31005Y58131D01*
X30839Y58199D01*
X30660Y58200D01*
X30495Y58131D01*
X30368Y58005D01*
X30300Y57839D01*
X30299Y57660D01*
X30368Y57495D01*
X30494Y57368D01*
X30660Y57300D01*
X30839Y57299D01*
X31004Y57368D01*
X31131Y57494D01*
X31199Y57660D01*
X31200Y57839D01*
X31200Y45839D01*
X31131Y46004D01*
X31005Y46131D01*
X30839Y46199D01*
X30660Y46200D01*
X30495Y46131D01*
X30368Y46005D01*
X30300Y45839D01*
X30299Y45660D01*
X30368Y45495D01*
X30494Y45368D01*
X30660Y45300D01*
X30839Y45299D01*
X31004Y45368D01*
X31131Y45494D01*
X31199Y45660D01*
X31200Y45839D01*
X31200Y169D01*
X30200Y169D01*
X30200Y45839D01*
X30200Y57839D01*
X30131Y58004D01*
X30005Y58131D01*
X29839Y58199D01*
X29660Y58200D01*
X29495Y58131D01*
X29368Y58005D01*
X29300Y57839D01*
X29299Y57660D01*
X29368Y57495D01*
X29494Y57368D01*
X29660Y57300D01*
X29839Y57299D01*
X30004Y57368D01*
X30131Y57494D01*
X30199Y57660D01*
X30200Y57839D01*
X30200Y45839D01*
X30131Y46004D01*
X30005Y46131D01*
X29839Y46199D01*
X29660Y46200D01*
X29495Y46131D01*
X29368Y46005D01*
X29300Y45839D01*
X29299Y45660D01*
X29368Y45495D01*
X29494Y45368D01*
X29660Y45300D01*
X29839Y45299D01*
X30004Y45368D01*
X30131Y45494D01*
X30199Y45660D01*
X30200Y45839D01*
X30200Y169D01*
X29773Y169D01*
X29773Y21531D01*
X29773Y21955D01*
X29729Y22175D01*
X29605Y22361D01*
X29419Y22485D01*
X29325Y22504D01*
X29325Y34564D01*
X29275Y34683D01*
X29200Y34759D01*
X29200Y45839D01*
X29200Y57839D01*
X29131Y58004D01*
X29005Y58131D01*
X28839Y58199D01*
X28660Y58200D01*
X28495Y58131D01*
X28368Y58005D01*
X28300Y57839D01*
X28299Y57660D01*
X28368Y57495D01*
X28494Y57368D01*
X28660Y57300D01*
X28839Y57299D01*
X29004Y57368D01*
X29131Y57494D01*
X29199Y57660D01*
X29200Y57839D01*
X29200Y45839D01*
X29131Y46004D01*
X29005Y46131D01*
X28839Y46199D01*
X28660Y46200D01*
X28495Y46131D01*
X28368Y46005D01*
X28300Y45839D01*
X28299Y45660D01*
X28368Y45495D01*
X28494Y45368D01*
X28660Y45300D01*
X28839Y45299D01*
X29004Y45368D01*
X29131Y45494D01*
X29199Y45660D01*
X29200Y45839D01*
X29200Y34759D01*
X29184Y34775D01*
X29064Y34824D01*
X28935Y34825D01*
X28816Y34775D01*
X28724Y34684D01*
X28675Y34564D01*
X28675Y34563D01*
X28200Y34088D01*
X28200Y45839D01*
X28200Y57839D01*
X28131Y58004D01*
X28005Y58131D01*
X27839Y58199D01*
X27660Y58200D01*
X27495Y58131D01*
X27368Y58005D01*
X27300Y57839D01*
X27299Y57660D01*
X27368Y57495D01*
X27494Y57368D01*
X27660Y57300D01*
X27839Y57299D01*
X28004Y57368D01*
X28131Y57494D01*
X28199Y57660D01*
X28200Y57839D01*
X28200Y45839D01*
X28131Y46004D01*
X28005Y46131D01*
X27839Y46199D01*
X27660Y46200D01*
X27495Y46131D01*
X27368Y46005D01*
X27300Y45839D01*
X27299Y45660D01*
X27368Y45495D01*
X27494Y45368D01*
X27660Y45300D01*
X27839Y45299D01*
X28004Y45368D01*
X28131Y45494D01*
X28199Y45660D01*
X28200Y45839D01*
X28200Y34088D01*
X27625Y33514D01*
X27625Y34272D01*
X27625Y34696D01*
X27581Y34916D01*
X27457Y35102D01*
X27271Y35226D01*
X27200Y35240D01*
X27200Y45839D01*
X27200Y57839D01*
X27131Y58004D01*
X27005Y58131D01*
X26839Y58199D01*
X26660Y58200D01*
X26495Y58131D01*
X26368Y58005D01*
X26300Y57839D01*
X26299Y57660D01*
X26368Y57495D01*
X26494Y57368D01*
X26660Y57300D01*
X26839Y57299D01*
X27004Y57368D01*
X27131Y57494D01*
X27199Y57660D01*
X27200Y57839D01*
X27200Y45839D01*
X27131Y46004D01*
X27005Y46131D01*
X26839Y46199D01*
X26660Y46200D01*
X26495Y46131D01*
X26368Y46005D01*
X26300Y45839D01*
X26299Y45660D01*
X26368Y45495D01*
X26494Y45368D01*
X26660Y45300D01*
X26839Y45299D01*
X27004Y45368D01*
X27131Y45494D01*
X27199Y45660D01*
X27200Y45839D01*
X27200Y35240D01*
X27051Y35270D01*
X26941Y35248D01*
X26941Y38150D01*
X26941Y38574D01*
X26897Y38793D01*
X26773Y38979D01*
X26587Y39104D01*
X26367Y39147D01*
X26200Y39114D01*
X26200Y45839D01*
X26200Y57839D01*
X26131Y58004D01*
X26005Y58131D01*
X25839Y58199D01*
X25660Y58200D01*
X25495Y58131D01*
X25368Y58005D01*
X25300Y57839D01*
X25299Y57660D01*
X25368Y57495D01*
X25494Y57368D01*
X25660Y57300D01*
X25839Y57299D01*
X26004Y57368D01*
X26131Y57494D01*
X26199Y57660D01*
X26200Y57839D01*
X26200Y45839D01*
X26131Y46004D01*
X26005Y46131D01*
X25839Y46199D01*
X25660Y46200D01*
X25495Y46131D01*
X25368Y46005D01*
X25300Y45839D01*
X25299Y45660D01*
X25368Y45495D01*
X25494Y45368D01*
X25660Y45300D01*
X25839Y45299D01*
X26004Y45368D01*
X26131Y45494D01*
X26199Y45660D01*
X26200Y45839D01*
X26200Y39114D01*
X26148Y39104D01*
X25962Y38979D01*
X25837Y38793D01*
X25794Y38574D01*
X25794Y38150D01*
X25837Y37930D01*
X25962Y37744D01*
X26148Y37620D01*
X26367Y37576D01*
X26587Y37620D01*
X26773Y37744D01*
X26897Y37930D01*
X26941Y38150D01*
X26941Y35248D01*
X26831Y35226D01*
X26645Y35102D01*
X26521Y34916D01*
X26477Y34696D01*
X26477Y34272D01*
X26521Y34053D01*
X26645Y33867D01*
X26831Y33742D01*
X27051Y33699D01*
X27271Y33742D01*
X27457Y33867D01*
X27581Y34053D01*
X27625Y34272D01*
X27625Y33514D01*
X27555Y33444D01*
X27495Y33355D01*
X27475Y33250D01*
X27475Y30184D01*
X27474Y30184D01*
X27425Y30064D01*
X27424Y29935D01*
X27474Y29816D01*
X27565Y29724D01*
X27685Y29675D01*
X27814Y29674D01*
X27933Y29724D01*
X28025Y29815D01*
X28074Y29935D01*
X28075Y30064D01*
X28025Y30183D01*
X28025Y30184D01*
X28025Y33136D01*
X29063Y34174D01*
X29064Y34174D01*
X29183Y34224D01*
X29275Y34315D01*
X29324Y34435D01*
X29325Y34564D01*
X29325Y22504D01*
X29199Y22529D01*
X29089Y22507D01*
X29089Y25409D01*
X29089Y25833D01*
X29045Y26052D01*
X28921Y26238D01*
X28735Y26363D01*
X28515Y26406D01*
X28296Y26363D01*
X28110Y26238D01*
X27985Y26052D01*
X27942Y25833D01*
X27942Y25409D01*
X27985Y25189D01*
X28110Y25003D01*
X28296Y24879D01*
X28515Y24835D01*
X28735Y24879D01*
X28921Y25003D01*
X29045Y25189D01*
X29089Y25409D01*
X29089Y22507D01*
X28979Y22485D01*
X28793Y22361D01*
X28669Y22175D01*
X28625Y21955D01*
X28625Y21531D01*
X28669Y21312D01*
X28793Y21126D01*
X28979Y21001D01*
X29199Y20958D01*
X29419Y21001D01*
X29605Y21126D01*
X29729Y21312D01*
X29773Y21531D01*
X29773Y169D01*
X25200Y169D01*
X25200Y45839D01*
X25200Y57839D01*
X25131Y58004D01*
X25005Y58131D01*
X24839Y58199D01*
X24660Y58200D01*
X24495Y58131D01*
X24368Y58005D01*
X24300Y57839D01*
X24299Y57660D01*
X24368Y57495D01*
X24494Y57368D01*
X24660Y57300D01*
X24839Y57299D01*
X25004Y57368D01*
X25131Y57494D01*
X25199Y57660D01*
X25200Y57839D01*
X25200Y45839D01*
X25131Y46004D01*
X25005Y46131D01*
X24839Y46199D01*
X24660Y46200D01*
X24495Y46131D01*
X24368Y46005D01*
X24300Y45839D01*
X24299Y45660D01*
X24368Y45495D01*
X24494Y45368D01*
X24660Y45300D01*
X24839Y45299D01*
X25004Y45368D01*
X25131Y45494D01*
X25199Y45660D01*
X25200Y45839D01*
X25200Y169D01*
X24207Y169D01*
X24207Y57717D01*
X24185Y57894D01*
X24160Y57955D01*
X24096Y57990D01*
X23990Y57884D01*
X23990Y58096D01*
X23955Y58160D01*
X23782Y58207D01*
X23605Y58185D01*
X23544Y58160D01*
X23509Y58096D01*
X23750Y57856D01*
X23990Y58096D01*
X23990Y57884D01*
X23856Y57750D01*
X24096Y57509D01*
X24160Y57544D01*
X24207Y57717D01*
X24207Y169D01*
X24200Y169D01*
X24200Y45839D01*
X24131Y46004D01*
X24005Y46131D01*
X23990Y46137D01*
X23990Y57403D01*
X23750Y57643D01*
X23643Y57537D01*
X23643Y57750D01*
X23403Y57990D01*
X23339Y57955D01*
X23292Y57782D01*
X23314Y57605D01*
X23339Y57544D01*
X23403Y57509D01*
X23643Y57750D01*
X23643Y57537D01*
X23509Y57403D01*
X23544Y57339D01*
X23717Y57292D01*
X23894Y57314D01*
X23955Y57339D01*
X23990Y57403D01*
X23990Y46137D01*
X23839Y46199D01*
X23660Y46200D01*
X23495Y46131D01*
X23368Y46005D01*
X23300Y45839D01*
X23299Y45660D01*
X23368Y45495D01*
X23494Y45368D01*
X23660Y45300D01*
X23839Y45299D01*
X24004Y45368D01*
X24131Y45494D01*
X24199Y45660D01*
X24200Y45839D01*
X24200Y169D01*
X23865Y169D01*
X23865Y29792D01*
X23865Y30216D01*
X23822Y30435D01*
X23697Y30622D01*
X23511Y30746D01*
X23292Y30790D01*
X23200Y30771D01*
X23200Y45839D01*
X23200Y57839D01*
X23131Y58004D01*
X23005Y58131D01*
X22839Y58199D01*
X22660Y58200D01*
X22495Y58131D01*
X22368Y58005D01*
X22300Y57839D01*
X22299Y57660D01*
X22368Y57495D01*
X22494Y57368D01*
X22660Y57300D01*
X22839Y57299D01*
X23004Y57368D01*
X23131Y57494D01*
X23199Y57660D01*
X23200Y57839D01*
X23200Y45839D01*
X23131Y46004D01*
X23005Y46131D01*
X22839Y46199D01*
X22660Y46200D01*
X22495Y46131D01*
X22368Y46005D01*
X22300Y45839D01*
X22299Y45660D01*
X22368Y45495D01*
X22494Y45368D01*
X22660Y45300D01*
X22839Y45299D01*
X23004Y45368D01*
X23131Y45494D01*
X23199Y45660D01*
X23200Y45839D01*
X23200Y30771D01*
X23072Y30746D01*
X22886Y30622D01*
X22761Y30435D01*
X22718Y30216D01*
X22718Y29792D01*
X22761Y29572D01*
X22886Y29386D01*
X23072Y29262D01*
X23292Y29218D01*
X23511Y29262D01*
X23697Y29386D01*
X23822Y29572D01*
X23865Y29792D01*
X23865Y169D01*
X22207Y169D01*
X22207Y45717D01*
X22200Y45777D01*
X22200Y57839D01*
X22131Y58004D01*
X22005Y58131D01*
X21839Y58199D01*
X21660Y58200D01*
X21495Y58131D01*
X21368Y58005D01*
X21300Y57839D01*
X21299Y57660D01*
X21368Y57495D01*
X21494Y57368D01*
X21660Y57300D01*
X21839Y57299D01*
X22004Y57368D01*
X22131Y57494D01*
X22199Y57660D01*
X22200Y57839D01*
X22200Y45777D01*
X22185Y45894D01*
X22160Y45955D01*
X22096Y45990D01*
X21990Y45884D01*
X21990Y46096D01*
X21955Y46160D01*
X21782Y46207D01*
X21605Y46185D01*
X21544Y46160D01*
X21509Y46096D01*
X21750Y45856D01*
X21990Y46096D01*
X21990Y45884D01*
X21856Y45750D01*
X22096Y45509D01*
X22160Y45544D01*
X22207Y45717D01*
X22207Y169D01*
X21990Y169D01*
X21990Y45403D01*
X21750Y45643D01*
X21744Y45638D01*
X21638Y45744D01*
X21643Y45750D01*
X21403Y45990D01*
X21339Y45955D01*
X21292Y45782D01*
X21293Y45771D01*
X21200Y45865D01*
X21200Y57839D01*
X21131Y58004D01*
X21005Y58131D01*
X20839Y58199D01*
X20660Y58200D01*
X20495Y58131D01*
X20368Y58005D01*
X20300Y57839D01*
X20299Y57660D01*
X20368Y57495D01*
X20494Y57368D01*
X20660Y57300D01*
X20839Y57299D01*
X21004Y57368D01*
X21131Y57494D01*
X21199Y57660D01*
X21200Y57839D01*
X21200Y45865D01*
X21200Y45865D01*
X21200Y46079D01*
X21177Y46134D01*
X21135Y46177D01*
X21079Y46199D01*
X21075Y46199D01*
X21075Y53314D01*
X21025Y53433D01*
X20934Y53525D01*
X20814Y53574D01*
X20685Y53575D01*
X20566Y53525D01*
X20474Y53434D01*
X20425Y53314D01*
X20425Y53313D01*
X19805Y52694D01*
X19745Y52605D01*
X19725Y52500D01*
X19725Y37184D01*
X19724Y37184D01*
X19675Y37064D01*
X19674Y36935D01*
X19724Y36816D01*
X19815Y36724D01*
X19935Y36675D01*
X20064Y36674D01*
X20183Y36724D01*
X20275Y36815D01*
X20324Y36935D01*
X20325Y37064D01*
X20275Y37183D01*
X20275Y37184D01*
X20275Y52386D01*
X20813Y52924D01*
X20814Y52924D01*
X20933Y52974D01*
X21025Y53065D01*
X21074Y53185D01*
X21075Y53314D01*
X21075Y46199D01*
X21020Y46200D01*
X20420Y46200D01*
X20365Y46177D01*
X20322Y46135D01*
X20300Y46079D01*
X20299Y46020D01*
X20299Y45420D01*
X20322Y45365D01*
X20364Y45322D01*
X20420Y45300D01*
X20479Y45299D01*
X20634Y45299D01*
X21100Y44834D01*
X21100Y27165D01*
X19928Y25994D01*
X19928Y29792D01*
X19928Y30216D01*
X19885Y30435D01*
X19760Y30622D01*
X19574Y30746D01*
X19355Y30790D01*
X19135Y30746D01*
X18949Y30622D01*
X18824Y30435D01*
X18781Y30216D01*
X18781Y29792D01*
X18824Y29572D01*
X18949Y29386D01*
X19135Y29262D01*
X19355Y29218D01*
X19574Y29262D01*
X19760Y29386D01*
X19885Y29572D01*
X19928Y29792D01*
X19928Y25994D01*
X19367Y25432D01*
X19280Y25303D01*
X19275Y25277D01*
X19275Y25275D01*
X19275Y28000D01*
X19254Y28105D01*
X19254Y28105D01*
X19194Y28194D01*
X18694Y28694D01*
X17713Y29675D01*
X17814Y29674D01*
X17933Y29724D01*
X18025Y29815D01*
X18074Y29935D01*
X18075Y30064D01*
X18025Y30183D01*
X18025Y30184D01*
X18025Y30765D01*
X18065Y30724D01*
X18185Y30675D01*
X18314Y30674D01*
X18433Y30724D01*
X18525Y30815D01*
X18574Y30935D01*
X18575Y31064D01*
X18525Y31183D01*
X18525Y31184D01*
X18525Y34500D01*
X18524Y34500D01*
X18504Y34605D01*
X18504Y34605D01*
X18444Y34694D01*
X18444Y34694D01*
X16575Y36563D01*
X16575Y36564D01*
X16525Y36683D01*
X16434Y36775D01*
X16314Y36824D01*
X16185Y36825D01*
X16066Y36775D01*
X15974Y36684D01*
X15925Y36564D01*
X15924Y36435D01*
X15974Y36316D01*
X16065Y36224D01*
X16185Y36175D01*
X16186Y36175D01*
X17975Y34386D01*
X17975Y34148D01*
X17944Y34194D01*
X15575Y36563D01*
X15575Y36564D01*
X15525Y36683D01*
X15434Y36775D01*
X15314Y36824D01*
X15185Y36825D01*
X15066Y36775D01*
X14974Y36684D01*
X14925Y36564D01*
X14924Y36435D01*
X14974Y36316D01*
X15065Y36224D01*
X15185Y36175D01*
X15186Y36175D01*
X15786Y35574D01*
X15685Y35575D01*
X15566Y35525D01*
X15474Y35434D01*
X15425Y35314D01*
X15424Y35185D01*
X15474Y35066D01*
X15565Y34974D01*
X15685Y34925D01*
X15686Y34925D01*
X16975Y33636D01*
X16975Y29750D01*
X16995Y29644D01*
X17055Y29555D01*
X18305Y28305D01*
X18725Y27886D01*
X18725Y27398D01*
X18694Y27444D01*
X18694Y27444D01*
X14025Y32113D01*
X14025Y39386D01*
X15813Y41174D01*
X15814Y41174D01*
X15933Y41224D01*
X15975Y41265D01*
X15975Y41184D01*
X15974Y41184D01*
X15925Y41064D01*
X15924Y40935D01*
X15974Y40816D01*
X16065Y40724D01*
X16185Y40675D01*
X16314Y40674D01*
X16433Y40724D01*
X16475Y40765D01*
X16475Y37000D01*
X16495Y36894D01*
X16555Y36805D01*
X16924Y36436D01*
X16924Y36435D01*
X16974Y36316D01*
X17065Y36224D01*
X17185Y36175D01*
X17314Y36174D01*
X17433Y36224D01*
X17525Y36315D01*
X17574Y36435D01*
X17575Y36564D01*
X17525Y36683D01*
X17434Y36775D01*
X17314Y36824D01*
X17313Y36824D01*
X17025Y37113D01*
X17025Y40765D01*
X17065Y40724D01*
X17185Y40675D01*
X17314Y40674D01*
X17433Y40724D01*
X17525Y40815D01*
X17574Y40935D01*
X17575Y41064D01*
X17525Y41183D01*
X17525Y41184D01*
X17525Y41265D01*
X17565Y41224D01*
X17685Y41175D01*
X17814Y41174D01*
X17933Y41224D01*
X17975Y41265D01*
X17975Y41184D01*
X17974Y41184D01*
X17925Y41064D01*
X17924Y40935D01*
X17974Y40816D01*
X18065Y40724D01*
X18185Y40675D01*
X18314Y40674D01*
X18433Y40724D01*
X18525Y40815D01*
X18574Y40935D01*
X18575Y41064D01*
X18525Y41183D01*
X18525Y41184D01*
X18525Y44315D01*
X18525Y44315D01*
X18574Y44435D01*
X18575Y44564D01*
X18525Y44683D01*
X18434Y44775D01*
X18314Y44824D01*
X18185Y44825D01*
X18066Y44775D01*
X18025Y44734D01*
X18025Y53315D01*
X18025Y53315D01*
X18074Y53435D01*
X18075Y53564D01*
X18025Y53683D01*
X17934Y53775D01*
X17814Y53824D01*
X17685Y53825D01*
X17566Y53775D01*
X17474Y53684D01*
X17425Y53564D01*
X17424Y53435D01*
X17474Y53316D01*
X17475Y53315D01*
X17475Y52734D01*
X17434Y52775D01*
X17314Y52824D01*
X17185Y52825D01*
X17066Y52775D01*
X16974Y52684D01*
X16925Y52564D01*
X16924Y52435D01*
X16974Y52316D01*
X16975Y52315D01*
X16975Y43750D01*
X16975Y43684D01*
X16974Y43684D01*
X16925Y43564D01*
X16924Y43435D01*
X16974Y43316D01*
X16975Y43315D01*
X16975Y43234D01*
X16934Y43275D01*
X16814Y43324D01*
X16685Y43325D01*
X16566Y43275D01*
X16525Y43234D01*
X16525Y48815D01*
X16525Y48815D01*
X16574Y48935D01*
X16575Y49064D01*
X16525Y49183D01*
X16434Y49275D01*
X16314Y49324D01*
X16185Y49325D01*
X16066Y49275D01*
X15974Y49184D01*
X15925Y49064D01*
X15924Y48935D01*
X15974Y48816D01*
X15975Y48815D01*
X15975Y41734D01*
X15934Y41775D01*
X15814Y41824D01*
X15685Y41825D01*
X15566Y41775D01*
X15474Y41684D01*
X15425Y41564D01*
X15425Y41563D01*
X13555Y39694D01*
X13495Y39605D01*
X13475Y39500D01*
X13475Y32000D01*
X13488Y31930D01*
X11400Y34019D01*
X11400Y36250D01*
X11400Y57500D01*
X11350Y57748D01*
X11209Y57959D01*
X10998Y58100D01*
X10750Y58150D01*
X10501Y58100D01*
X10290Y57959D01*
X10149Y57748D01*
X10100Y57500D01*
X10100Y36250D01*
X10100Y33750D01*
X10149Y33501D01*
X10173Y33465D01*
X10025Y33613D01*
X10025Y54250D01*
X10004Y54355D01*
X10004Y54355D01*
X9944Y54444D01*
X7694Y56694D01*
X7605Y56754D01*
X7500Y56775D01*
X7450Y56775D01*
X7450Y57589D01*
X7381Y57754D01*
X7255Y57881D01*
X7089Y57949D01*
X6910Y57950D01*
X6745Y57881D01*
X6618Y57755D01*
X6550Y57589D01*
X6549Y57410D01*
X6618Y57245D01*
X6744Y57118D01*
X6910Y57050D01*
X7089Y57049D01*
X7254Y57118D01*
X7381Y57244D01*
X7449Y57410D01*
X7450Y57589D01*
X7450Y56775D01*
X7361Y56775D01*
X7255Y56881D01*
X7089Y56949D01*
X6910Y56950D01*
X6745Y56881D01*
X6618Y56755D01*
X6550Y56589D01*
X6549Y56410D01*
X6618Y56245D01*
X6744Y56118D01*
X6910Y56050D01*
X7089Y56049D01*
X7254Y56118D01*
X7361Y56225D01*
X7386Y56225D01*
X9475Y54136D01*
X9475Y53898D01*
X9444Y53944D01*
X7694Y55694D01*
X7605Y55754D01*
X7500Y55775D01*
X7361Y55775D01*
X7255Y55881D01*
X7089Y55949D01*
X6910Y55950D01*
X6745Y55881D01*
X6618Y55755D01*
X6550Y55589D01*
X6549Y55410D01*
X6618Y55245D01*
X6744Y55118D01*
X6910Y55050D01*
X7089Y55049D01*
X7254Y55118D01*
X7361Y55225D01*
X7386Y55225D01*
X8975Y53636D01*
X8975Y52398D01*
X8944Y52444D01*
X7694Y53694D01*
X7605Y53754D01*
X7500Y53775D01*
X7450Y53775D01*
X7450Y54589D01*
X7381Y54754D01*
X7255Y54881D01*
X7089Y54949D01*
X6910Y54950D01*
X6745Y54881D01*
X6618Y54755D01*
X6550Y54589D01*
X6549Y54410D01*
X6618Y54245D01*
X6744Y54118D01*
X6910Y54050D01*
X7089Y54049D01*
X7254Y54118D01*
X7381Y54244D01*
X7449Y54410D01*
X7450Y54589D01*
X7450Y53775D01*
X7361Y53775D01*
X7255Y53881D01*
X7089Y53949D01*
X6910Y53950D01*
X6745Y53881D01*
X6618Y53755D01*
X6550Y53589D01*
X6549Y53410D01*
X6618Y53245D01*
X6744Y53118D01*
X6910Y53050D01*
X7089Y53049D01*
X7254Y53118D01*
X7361Y53225D01*
X7386Y53225D01*
X8475Y52136D01*
X8475Y51898D01*
X8444Y51944D01*
X8444Y51944D01*
X7694Y52694D01*
X7605Y52754D01*
X7500Y52775D01*
X7361Y52775D01*
X7255Y52881D01*
X7089Y52949D01*
X6910Y52950D01*
X6745Y52881D01*
X6618Y52755D01*
X6550Y52589D01*
X6549Y52410D01*
X6618Y52245D01*
X6744Y52118D01*
X6910Y52050D01*
X7089Y52049D01*
X7254Y52118D01*
X7361Y52225D01*
X7386Y52225D01*
X7975Y51636D01*
X7975Y51398D01*
X7944Y51444D01*
X7944Y51444D01*
X7694Y51694D01*
X7605Y51754D01*
X7500Y51775D01*
X7361Y51775D01*
X7255Y51881D01*
X7089Y51949D01*
X6910Y51950D01*
X6745Y51881D01*
X6618Y51755D01*
X6550Y51589D01*
X6549Y51410D01*
X6618Y51245D01*
X6744Y51118D01*
X6910Y51050D01*
X7089Y51049D01*
X7254Y51118D01*
X7361Y51225D01*
X7386Y51225D01*
X7475Y51136D01*
X7475Y39363D01*
X7450Y39338D01*
X7450Y50170D01*
X7450Y50829D01*
X7427Y50884D01*
X7385Y50927D01*
X7329Y50949D01*
X7270Y50950D01*
X7112Y50950D01*
X7075Y50912D01*
X7075Y50575D01*
X7412Y50575D01*
X7450Y50612D01*
X7450Y50829D01*
X7450Y50170D01*
X7450Y50387D01*
X7412Y50425D01*
X7075Y50425D01*
X7075Y50087D01*
X7112Y50050D01*
X7270Y50049D01*
X7329Y50050D01*
X7385Y50072D01*
X7427Y50115D01*
X7450Y50170D01*
X7450Y39338D01*
X7107Y38996D01*
X7107Y41929D01*
X7107Y42353D01*
X7064Y42573D01*
X6939Y42759D01*
X6925Y42769D01*
X6925Y50087D01*
X6925Y50425D01*
X6925Y50575D01*
X6925Y50912D01*
X6887Y50950D01*
X6729Y50950D01*
X6670Y50949D01*
X6614Y50927D01*
X6572Y50884D01*
X6549Y50829D01*
X6550Y50612D01*
X6587Y50575D01*
X6925Y50575D01*
X6925Y50425D01*
X6587Y50425D01*
X6550Y50387D01*
X6549Y50170D01*
X6572Y50115D01*
X6614Y50072D01*
X6670Y50050D01*
X6729Y50049D01*
X6887Y50050D01*
X6925Y50087D01*
X6925Y42769D01*
X6753Y42883D01*
X6534Y42927D01*
X6314Y42883D01*
X6128Y42759D01*
X6082Y42690D01*
X6082Y47745D01*
X6082Y48169D01*
X6038Y48388D01*
X5914Y48574D01*
X5728Y48699D01*
X5508Y48742D01*
X5289Y48699D01*
X5102Y48574D01*
X4978Y48388D01*
X4934Y48169D01*
X4934Y47745D01*
X4978Y47525D01*
X5102Y47339D01*
X5289Y47215D01*
X5508Y47171D01*
X5728Y47215D01*
X5914Y47339D01*
X6038Y47525D01*
X6082Y47745D01*
X6082Y42690D01*
X6003Y42573D01*
X5960Y42353D01*
X5960Y41929D01*
X6003Y41710D01*
X6128Y41524D01*
X6314Y41399D01*
X6534Y41356D01*
X6753Y41399D01*
X6939Y41524D01*
X7064Y41710D01*
X7107Y41929D01*
X7107Y38996D01*
X5805Y37694D01*
X5745Y37605D01*
X5725Y37500D01*
X5725Y34250D01*
X5745Y34144D01*
X5805Y34055D01*
X6674Y33186D01*
X6674Y33185D01*
X6724Y33066D01*
X6815Y32974D01*
X6935Y32925D01*
X6936Y32925D01*
X12975Y26886D01*
X12975Y9613D01*
X12354Y8993D01*
X12354Y11665D01*
X12354Y12089D01*
X12311Y12309D01*
X12186Y12495D01*
X12000Y12619D01*
X11781Y12663D01*
X11561Y12619D01*
X11375Y12495D01*
X11325Y12420D01*
X11325Y17503D01*
X11325Y17927D01*
X11281Y18147D01*
X11157Y18333D01*
X10971Y18457D01*
X10751Y18501D01*
X10532Y18457D01*
X10346Y18333D01*
X10296Y18258D01*
X10296Y23342D01*
X10296Y23765D01*
X10252Y23985D01*
X10128Y24171D01*
X9941Y24295D01*
X9722Y24339D01*
X9502Y24295D01*
X9316Y24171D01*
X9192Y23985D01*
X9148Y23765D01*
X9148Y23342D01*
X9192Y23122D01*
X9316Y22936D01*
X9502Y22812D01*
X9722Y22768D01*
X9941Y22812D01*
X10128Y22936D01*
X10252Y23122D01*
X10296Y23342D01*
X10296Y18258D01*
X10221Y18147D01*
X10178Y17927D01*
X10178Y17503D01*
X10221Y17284D01*
X10346Y17098D01*
X10532Y16973D01*
X10751Y16930D01*
X10971Y16973D01*
X11157Y17098D01*
X11281Y17284D01*
X11325Y17503D01*
X11325Y12420D01*
X11251Y12309D01*
X11207Y12089D01*
X11207Y11665D01*
X11251Y11446D01*
X11375Y11259D01*
X11561Y11135D01*
X11781Y11091D01*
X12000Y11135D01*
X12186Y11259D01*
X12311Y11446D01*
X12354Y11665D01*
X12354Y8993D01*
X12136Y8775D01*
X7457Y8775D01*
X7457Y9467D01*
X7435Y9644D01*
X7410Y9705D01*
X7346Y9740D01*
X7240Y9634D01*
X7240Y9846D01*
X7205Y9910D01*
X7032Y9957D01*
X6855Y9935D01*
X6794Y9910D01*
X6759Y9846D01*
X7000Y9606D01*
X7240Y9846D01*
X7240Y9634D01*
X7106Y9500D01*
X7346Y9259D01*
X7410Y9294D01*
X7457Y9467D01*
X7457Y8775D01*
X7361Y8775D01*
X7255Y8881D01*
X7240Y8887D01*
X7240Y9153D01*
X7000Y9393D01*
X6893Y9287D01*
X6893Y9500D01*
X6653Y9740D01*
X6589Y9705D01*
X6542Y9532D01*
X6564Y9355D01*
X6589Y9294D01*
X6653Y9259D01*
X6893Y9500D01*
X6893Y9287D01*
X6759Y9153D01*
X6794Y9089D01*
X6967Y9042D01*
X7144Y9064D01*
X7205Y9089D01*
X7240Y9153D01*
X7240Y8887D01*
X7089Y8949D01*
X6910Y8950D01*
X6745Y8881D01*
X6618Y8755D01*
X6550Y8589D01*
X6549Y8410D01*
X6618Y8245D01*
X6744Y8118D01*
X6910Y8050D01*
X7089Y8049D01*
X7254Y8118D01*
X7361Y8225D01*
X12250Y8225D01*
X12355Y8245D01*
X12355Y8245D01*
X12444Y8305D01*
X13444Y9305D01*
X13475Y9351D01*
X13475Y9113D01*
X12136Y7775D01*
X7361Y7775D01*
X7255Y7881D01*
X7089Y7949D01*
X6910Y7950D01*
X6745Y7881D01*
X6618Y7755D01*
X6550Y7589D01*
X6549Y7410D01*
X6618Y7245D01*
X6744Y7118D01*
X6910Y7050D01*
X7089Y7049D01*
X7254Y7118D01*
X7361Y7225D01*
X12250Y7225D01*
X12355Y7245D01*
X12355Y7245D01*
X12444Y7305D01*
X13944Y8805D01*
X13944Y8805D01*
X13975Y8851D01*
X13975Y8613D01*
X12136Y6775D01*
X7361Y6775D01*
X7255Y6881D01*
X7089Y6949D01*
X6910Y6950D01*
X6745Y6881D01*
X6618Y6755D01*
X6550Y6589D01*
X6549Y6410D01*
X6600Y6288D01*
X6275Y6613D01*
X6275Y32565D01*
X6275Y32565D01*
X6324Y32685D01*
X6325Y32814D01*
X6275Y32933D01*
X6184Y33025D01*
X6064Y33074D01*
X5935Y33075D01*
X5816Y33025D01*
X5775Y32984D01*
X5775Y33565D01*
X5775Y33565D01*
X5824Y33685D01*
X5825Y33814D01*
X5775Y33933D01*
X5684Y34025D01*
X5564Y34074D01*
X5435Y34075D01*
X5316Y34025D01*
X5224Y33934D01*
X5175Y33814D01*
X5174Y33685D01*
X5224Y33566D01*
X5225Y33565D01*
X5225Y13863D01*
X4686Y13325D01*
X4685Y13325D01*
X4589Y13285D01*
X4589Y14695D01*
X4589Y44695D01*
X4584Y45326D01*
X4351Y45889D01*
X4169Y46063D01*
X4063Y45957D01*
X4063Y46169D01*
X3889Y46351D01*
X3304Y46589D01*
X2673Y46584D01*
X2110Y46351D01*
X1936Y46169D01*
X3000Y45106D01*
X4063Y46169D01*
X4063Y45957D01*
X3106Y45000D01*
X4169Y43936D01*
X4351Y44110D01*
X4589Y44695D01*
X4589Y14695D01*
X4584Y15326D01*
X4351Y15889D01*
X4169Y16063D01*
X4063Y15957D01*
X4063Y16169D01*
X4063Y43830D01*
X3000Y44893D01*
X2893Y44787D01*
X2893Y45000D01*
X1830Y46063D01*
X1648Y45889D01*
X1410Y45304D01*
X1415Y44673D01*
X1648Y44110D01*
X1830Y43936D01*
X2893Y45000D01*
X2893Y44787D01*
X1936Y43830D01*
X2110Y43648D01*
X2695Y43410D01*
X3326Y43415D01*
X3889Y43648D01*
X4063Y43830D01*
X4063Y16169D01*
X3889Y16351D01*
X3304Y16589D01*
X2673Y16584D01*
X2110Y16351D01*
X1936Y16169D01*
X3000Y15106D01*
X4063Y16169D01*
X4063Y15957D01*
X3106Y15000D01*
X4169Y13936D01*
X4351Y14110D01*
X4589Y14695D01*
X4589Y13285D01*
X4566Y13275D01*
X4474Y13184D01*
X4425Y13064D01*
X4424Y12935D01*
X4474Y12816D01*
X4565Y12724D01*
X4685Y12675D01*
X4814Y12674D01*
X4933Y12724D01*
X5025Y12815D01*
X5074Y12935D01*
X5074Y12936D01*
X5694Y13555D01*
X5694Y13555D01*
X5694Y13555D01*
X5725Y13601D01*
X5725Y6500D01*
X5745Y6394D01*
X5805Y6305D01*
X6550Y5561D01*
X6549Y5410D01*
X6618Y5245D01*
X6744Y5118D01*
X6910Y5050D01*
X7089Y5049D01*
X7254Y5118D01*
X7381Y5244D01*
X7449Y5410D01*
X7450Y5589D01*
X7381Y5754D01*
X7255Y5881D01*
X7089Y5949D01*
X6938Y5950D01*
X6788Y6100D01*
X6910Y6050D01*
X7089Y6049D01*
X7254Y6118D01*
X7361Y6225D01*
X12250Y6225D01*
X12355Y6245D01*
X12355Y6245D01*
X12444Y6305D01*
X14444Y8305D01*
X14444Y8305D01*
X14444Y8305D01*
X14475Y8351D01*
X14475Y7113D01*
X12136Y4775D01*
X7361Y4775D01*
X7255Y4881D01*
X7089Y4949D01*
X6910Y4950D01*
X6745Y4881D01*
X6618Y4755D01*
X6550Y4589D01*
X6549Y4410D01*
X6618Y4245D01*
X6744Y4118D01*
X6910Y4050D01*
X7089Y4049D01*
X7254Y4118D01*
X7361Y4225D01*
X12250Y4225D01*
X12355Y4245D01*
X12355Y4245D01*
X12444Y4305D01*
X14944Y6805D01*
X14975Y6851D01*
X14975Y6613D01*
X12136Y3775D01*
X7361Y3775D01*
X7255Y3881D01*
X7089Y3949D01*
X6910Y3950D01*
X6745Y3881D01*
X6618Y3755D01*
X6550Y3589D01*
X6549Y3410D01*
X6618Y3245D01*
X6744Y3118D01*
X6910Y3050D01*
X7089Y3049D01*
X7254Y3118D01*
X7361Y3225D01*
X12250Y3225D01*
X12355Y3245D01*
X12355Y3245D01*
X12444Y3305D01*
X15444Y6305D01*
X15504Y6394D01*
X15504Y6394D01*
X15525Y6500D01*
X15525Y28000D01*
X15511Y28069D01*
X15600Y27980D01*
X15600Y10500D01*
X15600Y2500D01*
X15649Y2251D01*
X15790Y2040D01*
X16001Y1899D01*
X16250Y1850D01*
X16498Y1899D01*
X16709Y2040D01*
X16850Y2251D01*
X16900Y2500D01*
X16900Y10500D01*
X16900Y28250D01*
X16850Y28498D01*
X16850Y28498D01*
X16826Y28534D01*
X18225Y27136D01*
X18225Y24184D01*
X18224Y24184D01*
X18175Y24064D01*
X18174Y23935D01*
X18224Y23816D01*
X18315Y23724D01*
X18435Y23675D01*
X18564Y23674D01*
X18683Y23724D01*
X18725Y23765D01*
X18725Y21934D01*
X18724Y21934D01*
X18675Y21814D01*
X18674Y21685D01*
X18724Y21566D01*
X18815Y21474D01*
X18935Y21425D01*
X19064Y21424D01*
X19183Y21474D01*
X19250Y21540D01*
X19250Y10650D01*
X19280Y10496D01*
X19367Y10367D01*
X19496Y10280D01*
X19650Y10250D01*
X19803Y10280D01*
X19932Y10367D01*
X20019Y10496D01*
X20050Y10650D01*
X20050Y24984D01*
X21782Y26717D01*
X21782Y26717D01*
X21840Y26803D01*
X21869Y26846D01*
X21869Y26846D01*
X21899Y27000D01*
X21900Y27000D01*
X21900Y45000D01*
X21899Y45000D01*
X21869Y45153D01*
X21869Y45153D01*
X21840Y45196D01*
X21782Y45282D01*
X21782Y45282D01*
X21767Y45298D01*
X21894Y45314D01*
X21955Y45339D01*
X21990Y45403D01*
X21990Y169D01*
X7450Y169D01*
X7450Y2229D01*
X7450Y2829D01*
X7427Y2884D01*
X7385Y2927D01*
X7329Y2949D01*
X7270Y2950D01*
X6670Y2950D01*
X6615Y2927D01*
X6572Y2885D01*
X6550Y2829D01*
X6549Y2770D01*
X6549Y2170D01*
X6572Y2115D01*
X6614Y2072D01*
X6670Y2050D01*
X6729Y2049D01*
X7329Y2049D01*
X7384Y2072D01*
X7427Y2114D01*
X7449Y2170D01*
X7450Y2229D01*
X7450Y169D01*
X4253Y169D01*
X4253Y11732D01*
X4253Y12156D01*
X4209Y12376D01*
X4085Y12562D01*
X4063Y12577D01*
X4063Y13830D01*
X3000Y14893D01*
X2893Y14787D01*
X2893Y15000D01*
X1830Y16063D01*
X1648Y15889D01*
X1410Y15304D01*
X1415Y14673D01*
X1648Y14110D01*
X1830Y13936D01*
X2893Y15000D01*
X2893Y14787D01*
X1936Y13830D01*
X2110Y13648D01*
X2695Y13410D01*
X3326Y13415D01*
X3889Y13648D01*
X4063Y13830D01*
X4063Y12577D01*
X3899Y12686D01*
X3679Y12730D01*
X3460Y12686D01*
X3274Y12562D01*
X3149Y12376D01*
X3106Y12156D01*
X3106Y11732D01*
X3149Y11513D01*
X3274Y11327D01*
X3460Y11202D01*
X3679Y11159D01*
X3899Y11202D01*
X4085Y11327D01*
X4209Y11513D01*
X4253Y11732D01*
X4253Y169D01*
X169Y169D01*
X169Y59830D01*
X41830Y59830D01*
X41830Y169D01*
X41830Y169D01*
G37*
X41830Y169D02*
X40888Y169D01*
X40888Y6127D01*
X40790Y6363D01*
X40610Y6544D01*
X40589Y6552D01*
X40589Y14695D01*
X40589Y44695D01*
X40584Y45326D01*
X40351Y45889D01*
X40169Y46063D01*
X40063Y45957D01*
X40063Y46169D01*
X39889Y46351D01*
X39304Y46589D01*
X38673Y46584D01*
X38110Y46351D01*
X37936Y46169D01*
X39000Y45106D01*
X40063Y46169D01*
X40063Y45957D01*
X39106Y45000D01*
X40169Y43936D01*
X40351Y44110D01*
X40589Y44695D01*
X40589Y14695D01*
X40584Y15326D01*
X40351Y15889D01*
X40169Y16063D01*
X40063Y15957D01*
X40063Y16169D01*
X40063Y43830D01*
X39000Y44893D01*
X38893Y44787D01*
X38893Y45000D01*
X37830Y46063D01*
X37648Y45889D01*
X37410Y45304D01*
X37415Y44673D01*
X37648Y44110D01*
X37830Y43936D01*
X38893Y45000D01*
X38893Y44787D01*
X37936Y43830D01*
X38110Y43648D01*
X38695Y43410D01*
X39326Y43415D01*
X39889Y43648D01*
X40063Y43830D01*
X40063Y16169D01*
X39889Y16351D01*
X39304Y16589D01*
X38673Y16584D01*
X38110Y16351D01*
X37936Y16169D01*
X39000Y15106D01*
X40063Y16169D01*
X40063Y15957D01*
X39106Y15000D01*
X40169Y13936D01*
X40351Y14110D01*
X40589Y14695D01*
X40589Y6552D01*
X40374Y6642D01*
X40118Y6642D01*
X40063Y6619D01*
X40063Y13830D01*
X39000Y14893D01*
X38893Y14787D01*
X38893Y15000D01*
X37830Y16063D01*
X37648Y15889D01*
X37410Y15304D01*
X37415Y14673D01*
X37648Y14110D01*
X37830Y13936D01*
X38893Y15000D01*
X38893Y14787D01*
X37936Y13830D01*
X38110Y13648D01*
X38695Y13410D01*
X39326Y13415D01*
X39889Y13648D01*
X40063Y13830D01*
X40063Y6619D01*
X39882Y6544D01*
X39702Y6364D01*
X39604Y6128D01*
X39603Y5872D01*
X39701Y5636D01*
X39881Y5455D01*
X40117Y5357D01*
X40373Y5357D01*
X40609Y5455D01*
X40790Y5635D01*
X40888Y5871D01*
X40888Y6127D01*
X40888Y169D01*
X36704Y169D01*
X36704Y29792D01*
X36704Y30216D01*
X36660Y30435D01*
X36536Y30622D01*
X36350Y30746D01*
X36130Y30790D01*
X35911Y30746D01*
X35725Y30622D01*
X35600Y30435D01*
X35557Y30216D01*
X35557Y29792D01*
X35600Y29572D01*
X35725Y29386D01*
X35911Y29262D01*
X36130Y29218D01*
X36350Y29262D01*
X36536Y29386D01*
X36660Y29572D01*
X36704Y29792D01*
X36704Y169D01*
X32767Y169D01*
X32767Y29792D01*
X32767Y30216D01*
X32723Y30435D01*
X32599Y30622D01*
X32413Y30746D01*
X32200Y30788D01*
X32200Y45839D01*
X32200Y45839D01*
X32200Y57479D01*
X32200Y58079D01*
X32177Y58134D01*
X32135Y58177D01*
X32079Y58199D01*
X32020Y58200D01*
X31420Y58200D01*
X31365Y58177D01*
X31322Y58135D01*
X31300Y58079D01*
X31299Y58020D01*
X31299Y57420D01*
X31322Y57365D01*
X31364Y57322D01*
X31420Y57300D01*
X31479Y57299D01*
X32079Y57299D01*
X32134Y57322D01*
X32177Y57364D01*
X32199Y57420D01*
X32200Y57479D01*
X32200Y45839D01*
X32131Y46004D01*
X32005Y46131D01*
X31839Y46199D01*
X31660Y46200D01*
X31495Y46131D01*
X31368Y46005D01*
X31300Y45839D01*
X31299Y45660D01*
X31368Y45495D01*
X31494Y45368D01*
X31660Y45300D01*
X31839Y45299D01*
X32004Y45368D01*
X32131Y45494D01*
X32199Y45660D01*
X32200Y45839D01*
X32200Y30788D01*
X32193Y30790D01*
X31974Y30746D01*
X31788Y30622D01*
X31663Y30435D01*
X31620Y30216D01*
X31620Y29792D01*
X31663Y29572D01*
X31788Y29386D01*
X31974Y29262D01*
X32193Y29218D01*
X32413Y29262D01*
X32599Y29386D01*
X32723Y29572D01*
X32767Y29792D01*
X32767Y169D01*
X31200Y169D01*
X31200Y45839D01*
X31200Y57839D01*
X31131Y58004D01*
X31005Y58131D01*
X30839Y58199D01*
X30660Y58200D01*
X30495Y58131D01*
X30368Y58005D01*
X30300Y57839D01*
X30299Y57660D01*
X30368Y57495D01*
X30494Y57368D01*
X30660Y57300D01*
X30839Y57299D01*
X31004Y57368D01*
X31131Y57494D01*
X31199Y57660D01*
X31200Y57839D01*
X31200Y45839D01*
X31131Y46004D01*
X31005Y46131D01*
X30839Y46199D01*
X30660Y46200D01*
X30495Y46131D01*
X30368Y46005D01*
X30300Y45839D01*
X30299Y45660D01*
X30368Y45495D01*
X30494Y45368D01*
X30660Y45300D01*
X30839Y45299D01*
X31004Y45368D01*
X31131Y45494D01*
X31199Y45660D01*
X31200Y45839D01*
X31200Y169D01*
X30200Y169D01*
X30200Y45839D01*
X30200Y57839D01*
X30131Y58004D01*
X30005Y58131D01*
X29839Y58199D01*
X29660Y58200D01*
X29495Y58131D01*
X29368Y58005D01*
X29300Y57839D01*
X29299Y57660D01*
X29368Y57495D01*
X29494Y57368D01*
X29660Y57300D01*
X29839Y57299D01*
X30004Y57368D01*
X30131Y57494D01*
X30199Y57660D01*
X30200Y57839D01*
X30200Y45839D01*
X30131Y46004D01*
X30005Y46131D01*
X29839Y46199D01*
X29660Y46200D01*
X29495Y46131D01*
X29368Y46005D01*
X29300Y45839D01*
X29299Y45660D01*
X29368Y45495D01*
X29494Y45368D01*
X29660Y45300D01*
X29839Y45299D01*
X30004Y45368D01*
X30131Y45494D01*
X30199Y45660D01*
X30200Y45839D01*
X30200Y169D01*
X29773Y169D01*
X29773Y21531D01*
X29773Y21955D01*
X29729Y22175D01*
X29605Y22361D01*
X29419Y22485D01*
X29325Y22504D01*
X29325Y34564D01*
X29275Y34683D01*
X29200Y34759D01*
X29200Y45839D01*
X29200Y57839D01*
X29131Y58004D01*
X29005Y58131D01*
X28839Y58199D01*
X28660Y58200D01*
X28495Y58131D01*
X28368Y58005D01*
X28300Y57839D01*
X28299Y57660D01*
X28368Y57495D01*
X28494Y57368D01*
X28660Y57300D01*
X28839Y57299D01*
X29004Y57368D01*
X29131Y57494D01*
X29199Y57660D01*
X29200Y57839D01*
X29200Y45839D01*
X29131Y46004D01*
X29005Y46131D01*
X28839Y46199D01*
X28660Y46200D01*
X28495Y46131D01*
X28368Y46005D01*
X28300Y45839D01*
X28299Y45660D01*
X28368Y45495D01*
X28494Y45368D01*
X28660Y45300D01*
X28839Y45299D01*
X29004Y45368D01*
X29131Y45494D01*
X29199Y45660D01*
X29200Y45839D01*
X29200Y34759D01*
X29184Y34775D01*
X29064Y34824D01*
X28935Y34825D01*
X28816Y34775D01*
X28724Y34684D01*
X28675Y34564D01*
X28675Y34563D01*
X28200Y34088D01*
X28200Y45839D01*
X28200Y57839D01*
X28131Y58004D01*
X28005Y58131D01*
X27839Y58199D01*
X27660Y58200D01*
X27495Y58131D01*
X27368Y58005D01*
X27300Y57839D01*
X27299Y57660D01*
X27368Y57495D01*
X27494Y57368D01*
X27660Y57300D01*
X27839Y57299D01*
X28004Y57368D01*
X28131Y57494D01*
X28199Y57660D01*
X28200Y57839D01*
X28200Y45839D01*
X28131Y46004D01*
X28005Y46131D01*
X27839Y46199D01*
X27660Y46200D01*
X27495Y46131D01*
X27368Y46005D01*
X27300Y45839D01*
X27299Y45660D01*
X27368Y45495D01*
X27494Y45368D01*
X27660Y45300D01*
X27839Y45299D01*
X28004Y45368D01*
X28131Y45494D01*
X28199Y45660D01*
X28200Y45839D01*
X28200Y34088D01*
X27625Y33514D01*
X27625Y34272D01*
X27625Y34696D01*
X27581Y34916D01*
X27457Y35102D01*
X27271Y35226D01*
X27200Y35240D01*
X27200Y45839D01*
X27200Y57839D01*
X27131Y58004D01*
X27005Y58131D01*
X26839Y58199D01*
X26660Y58200D01*
X26495Y58131D01*
X26368Y58005D01*
X26300Y57839D01*
X26299Y57660D01*
X26368Y57495D01*
X26494Y57368D01*
X26660Y57300D01*
X26839Y57299D01*
X27004Y57368D01*
X27131Y57494D01*
X27199Y57660D01*
X27200Y57839D01*
X27200Y45839D01*
X27131Y46004D01*
X27005Y46131D01*
X26839Y46199D01*
X26660Y46200D01*
X26495Y46131D01*
X26368Y46005D01*
X26300Y45839D01*
X26299Y45660D01*
X26368Y45495D01*
X26494Y45368D01*
X26660Y45300D01*
X26839Y45299D01*
X27004Y45368D01*
X27131Y45494D01*
X27199Y45660D01*
X27200Y45839D01*
X27200Y35240D01*
X27051Y35270D01*
X26941Y35248D01*
X26941Y38150D01*
X26941Y38574D01*
X26897Y38793D01*
X26773Y38979D01*
X26587Y39104D01*
X26367Y39147D01*
X26200Y39114D01*
X26200Y45839D01*
X26200Y57839D01*
X26131Y58004D01*
X26005Y58131D01*
X25839Y58199D01*
X25660Y58200D01*
X25495Y58131D01*
X25368Y58005D01*
X25300Y57839D01*
X25299Y57660D01*
X25368Y57495D01*
X25494Y57368D01*
X25660Y57300D01*
X25839Y57299D01*
X26004Y57368D01*
X26131Y57494D01*
X26199Y57660D01*
X26200Y57839D01*
X26200Y45839D01*
X26131Y46004D01*
X26005Y46131D01*
X25839Y46199D01*
X25660Y46200D01*
X25495Y46131D01*
X25368Y46005D01*
X25300Y45839D01*
X25299Y45660D01*
X25368Y45495D01*
X25494Y45368D01*
X25660Y45300D01*
X25839Y45299D01*
X26004Y45368D01*
X26131Y45494D01*
X26199Y45660D01*
X26200Y45839D01*
X26200Y39114D01*
X26148Y39104D01*
X25962Y38979D01*
X25837Y38793D01*
X25794Y38574D01*
X25794Y38150D01*
X25837Y37930D01*
X25962Y37744D01*
X26148Y37620D01*
X26367Y37576D01*
X26587Y37620D01*
X26773Y37744D01*
X26897Y37930D01*
X26941Y38150D01*
X26941Y35248D01*
X26831Y35226D01*
X26645Y35102D01*
X26521Y34916D01*
X26477Y34696D01*
X26477Y34272D01*
X26521Y34053D01*
X26645Y33867D01*
X26831Y33742D01*
X27051Y33699D01*
X27271Y33742D01*
X27457Y33867D01*
X27581Y34053D01*
X27625Y34272D01*
X27625Y33514D01*
X27555Y33444D01*
X27495Y33355D01*
X27475Y33250D01*
X27475Y30184D01*
X27474Y30184D01*
X27425Y30064D01*
X27424Y29935D01*
X27474Y29816D01*
X27565Y29724D01*
X27685Y29675D01*
X27814Y29674D01*
X27933Y29724D01*
X28025Y29815D01*
X28074Y29935D01*
X28075Y30064D01*
X28025Y30183D01*
X28025Y30184D01*
X28025Y33136D01*
X29063Y34174D01*
X29064Y34174D01*
X29183Y34224D01*
X29275Y34315D01*
X29324Y34435D01*
X29325Y34564D01*
X29325Y22504D01*
X29199Y22529D01*
X29089Y22507D01*
X29089Y25409D01*
X29089Y25833D01*
X29045Y26052D01*
X28921Y26238D01*
X28735Y26363D01*
X28515Y26406D01*
X28296Y26363D01*
X28110Y26238D01*
X27985Y26052D01*
X27942Y25833D01*
X27942Y25409D01*
X27985Y25189D01*
X28110Y25003D01*
X28296Y24879D01*
X28515Y24835D01*
X28735Y24879D01*
X28921Y25003D01*
X29045Y25189D01*
X29089Y25409D01*
X29089Y22507D01*
X28979Y22485D01*
X28793Y22361D01*
X28669Y22175D01*
X28625Y21955D01*
X28625Y21531D01*
X28669Y21312D01*
X28793Y21126D01*
X28979Y21001D01*
X29199Y20958D01*
X29419Y21001D01*
X29605Y21126D01*
X29729Y21312D01*
X29773Y21531D01*
X29773Y169D01*
X25200Y169D01*
X25200Y45839D01*
X25200Y57839D01*
X25131Y58004D01*
X25005Y58131D01*
X24839Y58199D01*
X24660Y58200D01*
X24495Y58131D01*
X24368Y58005D01*
X24300Y57839D01*
X24299Y57660D01*
X24368Y57495D01*
X24494Y57368D01*
X24660Y57300D01*
X24839Y57299D01*
X25004Y57368D01*
X25131Y57494D01*
X25199Y57660D01*
X25200Y57839D01*
X25200Y45839D01*
X25131Y46004D01*
X25005Y46131D01*
X24839Y46199D01*
X24660Y46200D01*
X24495Y46131D01*
X24368Y46005D01*
X24300Y45839D01*
X24299Y45660D01*
X24368Y45495D01*
X24494Y45368D01*
X24660Y45300D01*
X24839Y45299D01*
X25004Y45368D01*
X25131Y45494D01*
X25199Y45660D01*
X25200Y45839D01*
X25200Y169D01*
X24207Y169D01*
X24207Y57717D01*
X24185Y57894D01*
X24160Y57955D01*
X24096Y57990D01*
X23990Y57884D01*
X23990Y58096D01*
X23955Y58160D01*
X23782Y58207D01*
X23605Y58185D01*
X23544Y58160D01*
X23509Y58096D01*
X23750Y57856D01*
X23990Y58096D01*
X23990Y57884D01*
X23856Y57750D01*
X24096Y57509D01*
X24160Y57544D01*
X24207Y57717D01*
X24207Y169D01*
X24200Y169D01*
X24200Y45839D01*
X24131Y46004D01*
X24005Y46131D01*
X23990Y46137D01*
X23990Y57403D01*
X23750Y57643D01*
X23643Y57537D01*
X23643Y57750D01*
X23403Y57990D01*
X23339Y57955D01*
X23292Y57782D01*
X23314Y57605D01*
X23339Y57544D01*
X23403Y57509D01*
X23643Y57750D01*
X23643Y57537D01*
X23509Y57403D01*
X23544Y57339D01*
X23717Y57292D01*
X23894Y57314D01*
X23955Y57339D01*
X23990Y57403D01*
X23990Y46137D01*
X23839Y46199D01*
X23660Y46200D01*
X23495Y46131D01*
X23368Y46005D01*
X23300Y45839D01*
X23299Y45660D01*
X23368Y45495D01*
X23494Y45368D01*
X23660Y45300D01*
X23839Y45299D01*
X24004Y45368D01*
X24131Y45494D01*
X24199Y45660D01*
X24200Y45839D01*
X24200Y169D01*
X23865Y169D01*
X23865Y29792D01*
X23865Y30216D01*
X23822Y30435D01*
X23697Y30622D01*
X23511Y30746D01*
X23292Y30790D01*
X23200Y30771D01*
X23200Y45839D01*
X23200Y57839D01*
X23131Y58004D01*
X23005Y58131D01*
X22839Y58199D01*
X22660Y58200D01*
X22495Y58131D01*
X22368Y58005D01*
X22300Y57839D01*
X22299Y57660D01*
X22368Y57495D01*
X22494Y57368D01*
X22660Y57300D01*
X22839Y57299D01*
X23004Y57368D01*
X23131Y57494D01*
X23199Y57660D01*
X23200Y57839D01*
X23200Y45839D01*
X23131Y46004D01*
X23005Y46131D01*
X22839Y46199D01*
X22660Y46200D01*
X22495Y46131D01*
X22368Y46005D01*
X22300Y45839D01*
X22299Y45660D01*
X22368Y45495D01*
X22494Y45368D01*
X22660Y45300D01*
X22839Y45299D01*
X23004Y45368D01*
X23131Y45494D01*
X23199Y45660D01*
X23200Y45839D01*
X23200Y30771D01*
X23072Y30746D01*
X22886Y30622D01*
X22761Y30435D01*
X22718Y30216D01*
X22718Y29792D01*
X22761Y29572D01*
X22886Y29386D01*
X23072Y29262D01*
X23292Y29218D01*
X23511Y29262D01*
X23697Y29386D01*
X23822Y29572D01*
X23865Y29792D01*
X23865Y169D01*
X22207Y169D01*
X22207Y45717D01*
X22200Y45777D01*
X22200Y57839D01*
X22131Y58004D01*
X22005Y58131D01*
X21839Y58199D01*
X21660Y58200D01*
X21495Y58131D01*
X21368Y58005D01*
X21300Y57839D01*
X21299Y57660D01*
X21368Y57495D01*
X21494Y57368D01*
X21660Y57300D01*
X21839Y57299D01*
X22004Y57368D01*
X22131Y57494D01*
X22199Y57660D01*
X22200Y57839D01*
X22200Y45777D01*
X22185Y45894D01*
X22160Y45955D01*
X22096Y45990D01*
X21990Y45884D01*
X21990Y46096D01*
X21955Y46160D01*
X21782Y46207D01*
X21605Y46185D01*
X21544Y46160D01*
X21509Y46096D01*
X21750Y45856D01*
X21990Y46096D01*
X21990Y45884D01*
X21856Y45750D01*
X22096Y45509D01*
X22160Y45544D01*
X22207Y45717D01*
X22207Y169D01*
X21990Y169D01*
X21990Y45403D01*
X21750Y45643D01*
X21744Y45638D01*
X21638Y45744D01*
X21643Y45750D01*
X21403Y45990D01*
X21339Y45955D01*
X21292Y45782D01*
X21293Y45771D01*
X21200Y45865D01*
X21200Y57839D01*
X21131Y58004D01*
X21005Y58131D01*
X20839Y58199D01*
X20660Y58200D01*
X20495Y58131D01*
X20368Y58005D01*
X20300Y57839D01*
X20299Y57660D01*
X20368Y57495D01*
X20494Y57368D01*
X20660Y57300D01*
X20839Y57299D01*
X21004Y57368D01*
X21131Y57494D01*
X21199Y57660D01*
X21200Y57839D01*
X21200Y45865D01*
X21200Y45865D01*
X21200Y46079D01*
X21177Y46134D01*
X21135Y46177D01*
X21079Y46199D01*
X21075Y46199D01*
X21075Y53314D01*
X21025Y53433D01*
X20934Y53525D01*
X20814Y53574D01*
X20685Y53575D01*
X20566Y53525D01*
X20474Y53434D01*
X20425Y53314D01*
X20425Y53313D01*
X19805Y52694D01*
X19745Y52605D01*
X19725Y52500D01*
X19725Y37184D01*
X19724Y37184D01*
X19675Y37064D01*
X19674Y36935D01*
X19724Y36816D01*
X19815Y36724D01*
X19935Y36675D01*
X20064Y36674D01*
X20183Y36724D01*
X20275Y36815D01*
X20324Y36935D01*
X20325Y37064D01*
X20275Y37183D01*
X20275Y37184D01*
X20275Y52386D01*
X20813Y52924D01*
X20814Y52924D01*
X20933Y52974D01*
X21025Y53065D01*
X21074Y53185D01*
X21075Y53314D01*
X21075Y46199D01*
X21020Y46200D01*
X20420Y46200D01*
X20365Y46177D01*
X20322Y46135D01*
X20300Y46079D01*
X20299Y46020D01*
X20299Y45420D01*
X20322Y45365D01*
X20364Y45322D01*
X20420Y45300D01*
X20479Y45299D01*
X20634Y45299D01*
X21100Y44834D01*
X21100Y27165D01*
X19928Y25994D01*
X19928Y29792D01*
X19928Y30216D01*
X19885Y30435D01*
X19760Y30622D01*
X19574Y30746D01*
X19355Y30790D01*
X19135Y30746D01*
X18949Y30622D01*
X18824Y30435D01*
X18781Y30216D01*
X18781Y29792D01*
X18824Y29572D01*
X18949Y29386D01*
X19135Y29262D01*
X19355Y29218D01*
X19574Y29262D01*
X19760Y29386D01*
X19885Y29572D01*
X19928Y29792D01*
X19928Y25994D01*
X19367Y25432D01*
X19280Y25303D01*
X19275Y25277D01*
X19275Y25275D01*
X19275Y28000D01*
X19254Y28105D01*
X19254Y28105D01*
X19194Y28194D01*
X18694Y28694D01*
X17713Y29675D01*
X17814Y29674D01*
X17933Y29724D01*
X18025Y29815D01*
X18074Y29935D01*
X18075Y30064D01*
X18025Y30183D01*
X18025Y30184D01*
X18025Y30765D01*
X18065Y30724D01*
X18185Y30675D01*
X18314Y30674D01*
X18433Y30724D01*
X18525Y30815D01*
X18574Y30935D01*
X18575Y31064D01*
X18525Y31183D01*
X18525Y31184D01*
X18525Y34500D01*
X18524Y34500D01*
X18504Y34605D01*
X18504Y34605D01*
X18444Y34694D01*
X18444Y34694D01*
X16575Y36563D01*
X16575Y36564D01*
X16525Y36683D01*
X16434Y36775D01*
X16314Y36824D01*
X16185Y36825D01*
X16066Y36775D01*
X15974Y36684D01*
X15925Y36564D01*
X15924Y36435D01*
X15974Y36316D01*
X16065Y36224D01*
X16185Y36175D01*
X16186Y36175D01*
X17975Y34386D01*
X17975Y34148D01*
X17944Y34194D01*
X15575Y36563D01*
X15575Y36564D01*
X15525Y36683D01*
X15434Y36775D01*
X15314Y36824D01*
X15185Y36825D01*
X15066Y36775D01*
X14974Y36684D01*
X14925Y36564D01*
X14924Y36435D01*
X14974Y36316D01*
X15065Y36224D01*
X15185Y36175D01*
X15186Y36175D01*
X15786Y35574D01*
X15685Y35575D01*
X15566Y35525D01*
X15474Y35434D01*
X15425Y35314D01*
X15424Y35185D01*
X15474Y35066D01*
X15565Y34974D01*
X15685Y34925D01*
X15686Y34925D01*
X16975Y33636D01*
X16975Y29750D01*
X16995Y29644D01*
X17055Y29555D01*
X18305Y28305D01*
X18725Y27886D01*
X18725Y27398D01*
X18694Y27444D01*
X18694Y27444D01*
X14025Y32113D01*
X14025Y39386D01*
X15813Y41174D01*
X15814Y41174D01*
X15933Y41224D01*
X15975Y41265D01*
X15975Y41184D01*
X15974Y41184D01*
X15925Y41064D01*
X15924Y40935D01*
X15974Y40816D01*
X16065Y40724D01*
X16185Y40675D01*
X16314Y40674D01*
X16433Y40724D01*
X16475Y40765D01*
X16475Y37000D01*
X16495Y36894D01*
X16555Y36805D01*
X16924Y36436D01*
X16924Y36435D01*
X16974Y36316D01*
X17065Y36224D01*
X17185Y36175D01*
X17314Y36174D01*
X17433Y36224D01*
X17525Y36315D01*
X17574Y36435D01*
X17575Y36564D01*
X17525Y36683D01*
X17434Y36775D01*
X17314Y36824D01*
X17313Y36824D01*
X17025Y37113D01*
X17025Y40765D01*
X17065Y40724D01*
X17185Y40675D01*
X17314Y40674D01*
X17433Y40724D01*
X17525Y40815D01*
X17574Y40935D01*
X17575Y41064D01*
X17525Y41183D01*
X17525Y41184D01*
X17525Y41265D01*
X17565Y41224D01*
X17685Y41175D01*
X17814Y41174D01*
X17933Y41224D01*
X17975Y41265D01*
X17975Y41184D01*
X17974Y41184D01*
X17925Y41064D01*
X17924Y40935D01*
X17974Y40816D01*
X18065Y40724D01*
X18185Y40675D01*
X18314Y40674D01*
X18433Y40724D01*
X18525Y40815D01*
X18574Y40935D01*
X18575Y41064D01*
X18525Y41183D01*
X18525Y41184D01*
X18525Y44315D01*
X18525Y44315D01*
X18574Y44435D01*
X18575Y44564D01*
X18525Y44683D01*
X18434Y44775D01*
X18314Y44824D01*
X18185Y44825D01*
X18066Y44775D01*
X18025Y44734D01*
X18025Y53315D01*
X18025Y53315D01*
X18074Y53435D01*
X18075Y53564D01*
X18025Y53683D01*
X17934Y53775D01*
X17814Y53824D01*
X17685Y53825D01*
X17566Y53775D01*
X17474Y53684D01*
X17425Y53564D01*
X17424Y53435D01*
X17474Y53316D01*
X17475Y53315D01*
X17475Y52734D01*
X17434Y52775D01*
X17314Y52824D01*
X17185Y52825D01*
X17066Y52775D01*
X16974Y52684D01*
X16925Y52564D01*
X16924Y52435D01*
X16974Y52316D01*
X16975Y52315D01*
X16975Y43750D01*
X16975Y43684D01*
X16974Y43684D01*
X16925Y43564D01*
X16924Y43435D01*
X16974Y43316D01*
X16975Y43315D01*
X16975Y43234D01*
X16934Y43275D01*
X16814Y43324D01*
X16685Y43325D01*
X16566Y43275D01*
X16525Y43234D01*
X16525Y48815D01*
X16525Y48815D01*
X16574Y48935D01*
X16575Y49064D01*
X16525Y49183D01*
X16434Y49275D01*
X16314Y49324D01*
X16185Y49325D01*
X16066Y49275D01*
X15974Y49184D01*
X15925Y49064D01*
X15924Y48935D01*
X15974Y48816D01*
X15975Y48815D01*
X15975Y41734D01*
X15934Y41775D01*
X15814Y41824D01*
X15685Y41825D01*
X15566Y41775D01*
X15474Y41684D01*
X15425Y41564D01*
X15425Y41563D01*
X13555Y39694D01*
X13495Y39605D01*
X13475Y39500D01*
X13475Y32000D01*
X13488Y31930D01*
X11400Y34019D01*
X11400Y36250D01*
X11400Y57500D01*
X11350Y57748D01*
X11209Y57959D01*
X10998Y58100D01*
X10750Y58150D01*
X10501Y58100D01*
X10290Y57959D01*
X10149Y57748D01*
X10100Y57500D01*
X10100Y36250D01*
X10100Y33750D01*
X10149Y33501D01*
X10173Y33465D01*
X10025Y33613D01*
X10025Y54250D01*
X10004Y54355D01*
X10004Y54355D01*
X9944Y54444D01*
X7694Y56694D01*
X7605Y56754D01*
X7500Y56775D01*
X7450Y56775D01*
X7450Y57589D01*
X7381Y57754D01*
X7255Y57881D01*
X7089Y57949D01*
X6910Y57950D01*
X6745Y57881D01*
X6618Y57755D01*
X6550Y57589D01*
X6549Y57410D01*
X6618Y57245D01*
X6744Y57118D01*
X6910Y57050D01*
X7089Y57049D01*
X7254Y57118D01*
X7381Y57244D01*
X7449Y57410D01*
X7450Y57589D01*
X7450Y56775D01*
X7361Y56775D01*
X7255Y56881D01*
X7089Y56949D01*
X6910Y56950D01*
X6745Y56881D01*
X6618Y56755D01*
X6550Y56589D01*
X6549Y56410D01*
X6618Y56245D01*
X6744Y56118D01*
X6910Y56050D01*
X7089Y56049D01*
X7254Y56118D01*
X7361Y56225D01*
X7386Y56225D01*
X9475Y54136D01*
X9475Y53898D01*
X9444Y53944D01*
X7694Y55694D01*
X7605Y55754D01*
X7500Y55775D01*
X7361Y55775D01*
X7255Y55881D01*
X7089Y55949D01*
X6910Y55950D01*
X6745Y55881D01*
X6618Y55755D01*
X6550Y55589D01*
X6549Y55410D01*
X6618Y55245D01*
X6744Y55118D01*
X6910Y55050D01*
X7089Y55049D01*
X7254Y55118D01*
X7361Y55225D01*
X7386Y55225D01*
X8975Y53636D01*
X8975Y52398D01*
X8944Y52444D01*
X7694Y53694D01*
X7605Y53754D01*
X7500Y53775D01*
X7450Y53775D01*
X7450Y54589D01*
X7381Y54754D01*
X7255Y54881D01*
X7089Y54949D01*
X6910Y54950D01*
X6745Y54881D01*
X6618Y54755D01*
X6550Y54589D01*
X6549Y54410D01*
X6618Y54245D01*
X6744Y54118D01*
X6910Y54050D01*
X7089Y54049D01*
X7254Y54118D01*
X7381Y54244D01*
X7449Y54410D01*
X7450Y54589D01*
X7450Y53775D01*
X7361Y53775D01*
X7255Y53881D01*
X7089Y53949D01*
X6910Y53950D01*
X6745Y53881D01*
X6618Y53755D01*
X6550Y53589D01*
X6549Y53410D01*
X6618Y53245D01*
X6744Y53118D01*
X6910Y53050D01*
X7089Y53049D01*
X7254Y53118D01*
X7361Y53225D01*
X7386Y53225D01*
X8475Y52136D01*
X8475Y51898D01*
X8444Y51944D01*
X8444Y51944D01*
X7694Y52694D01*
X7605Y52754D01*
X7500Y52775D01*
X7361Y52775D01*
X7255Y52881D01*
X7089Y52949D01*
X6910Y52950D01*
X6745Y52881D01*
X6618Y52755D01*
X6550Y52589D01*
X6549Y52410D01*
X6618Y52245D01*
X6744Y52118D01*
X6910Y52050D01*
X7089Y52049D01*
X7254Y52118D01*
X7361Y52225D01*
X7386Y52225D01*
X7975Y51636D01*
X7975Y51398D01*
X7944Y51444D01*
X7944Y51444D01*
X7694Y51694D01*
X7605Y51754D01*
X7500Y51775D01*
X7361Y51775D01*
X7255Y51881D01*
X7089Y51949D01*
X6910Y51950D01*
X6745Y51881D01*
X6618Y51755D01*
X6550Y51589D01*
X6549Y51410D01*
X6618Y51245D01*
X6744Y51118D01*
X6910Y51050D01*
X7089Y51049D01*
X7254Y51118D01*
X7361Y51225D01*
X7386Y51225D01*
X7475Y51136D01*
X7475Y39363D01*
X7450Y39338D01*
X7450Y50170D01*
X7450Y50829D01*
X7427Y50884D01*
X7385Y50927D01*
X7329Y50949D01*
X7270Y50950D01*
X7112Y50950D01*
X7075Y50912D01*
X7075Y50575D01*
X7412Y50575D01*
X7450Y50612D01*
X7450Y50829D01*
X7450Y50170D01*
X7450Y50387D01*
X7412Y50425D01*
X7075Y50425D01*
X7075Y50087D01*
X7112Y50050D01*
X7270Y50049D01*
X7329Y50050D01*
X7385Y50072D01*
X7427Y50115D01*
X7450Y50170D01*
X7450Y39338D01*
X7107Y38996D01*
X7107Y41929D01*
X7107Y42353D01*
X7064Y42573D01*
X6939Y42759D01*
X6925Y42769D01*
X6925Y50087D01*
X6925Y50425D01*
X6925Y50575D01*
X6925Y50912D01*
X6887Y50950D01*
X6729Y50950D01*
X6670Y50949D01*
X6614Y50927D01*
X6572Y50884D01*
X6549Y50829D01*
X6550Y50612D01*
X6587Y50575D01*
X6925Y50575D01*
X6925Y50425D01*
X6587Y50425D01*
X6550Y50387D01*
X6549Y50170D01*
X6572Y50115D01*
X6614Y50072D01*
X6670Y50050D01*
X6729Y50049D01*
X6887Y50050D01*
X6925Y50087D01*
X6925Y42769D01*
X6753Y42883D01*
X6534Y42927D01*
X6314Y42883D01*
X6128Y42759D01*
X6082Y42690D01*
X6082Y47745D01*
X6082Y48169D01*
X6038Y48388D01*
X5914Y48574D01*
X5728Y48699D01*
X5508Y48742D01*
X5289Y48699D01*
X5102Y48574D01*
X4978Y48388D01*
X4934Y48169D01*
X4934Y47745D01*
X4978Y47525D01*
X5102Y47339D01*
X5289Y47215D01*
X5508Y47171D01*
X5728Y47215D01*
X5914Y47339D01*
X6038Y47525D01*
X6082Y47745D01*
X6082Y42690D01*
X6003Y42573D01*
X5960Y42353D01*
X5960Y41929D01*
X6003Y41710D01*
X6128Y41524D01*
X6314Y41399D01*
X6534Y41356D01*
X6753Y41399D01*
X6939Y41524D01*
X7064Y41710D01*
X7107Y41929D01*
X7107Y38996D01*
X5805Y37694D01*
X5745Y37605D01*
X5725Y37500D01*
X5725Y34250D01*
X5745Y34144D01*
X5805Y34055D01*
X6674Y33186D01*
X6674Y33185D01*
X6724Y33066D01*
X6815Y32974D01*
X6935Y32925D01*
X6936Y32925D01*
X12975Y26886D01*
X12975Y9613D01*
X12354Y8993D01*
X12354Y11665D01*
X12354Y12089D01*
X12311Y12309D01*
X12186Y12495D01*
X12000Y12619D01*
X11781Y12663D01*
X11561Y12619D01*
X11375Y12495D01*
X11325Y12420D01*
X11325Y17503D01*
X11325Y17927D01*
X11281Y18147D01*
X11157Y18333D01*
X10971Y18457D01*
X10751Y18501D01*
X10532Y18457D01*
X10346Y18333D01*
X10296Y18258D01*
X10296Y23342D01*
X10296Y23765D01*
X10252Y23985D01*
X10128Y24171D01*
X9941Y24295D01*
X9722Y24339D01*
X9502Y24295D01*
X9316Y24171D01*
X9192Y23985D01*
X9148Y23765D01*
X9148Y23342D01*
X9192Y23122D01*
X9316Y22936D01*
X9502Y22812D01*
X9722Y22768D01*
X9941Y22812D01*
X10128Y22936D01*
X10252Y23122D01*
X10296Y23342D01*
X10296Y18258D01*
X10221Y18147D01*
X10178Y17927D01*
X10178Y17503D01*
X10221Y17284D01*
X10346Y17098D01*
X10532Y16973D01*
X10751Y16930D01*
X10971Y16973D01*
X11157Y17098D01*
X11281Y17284D01*
X11325Y17503D01*
X11325Y12420D01*
X11251Y12309D01*
X11207Y12089D01*
X11207Y11665D01*
X11251Y11446D01*
X11375Y11259D01*
X11561Y11135D01*
X11781Y11091D01*
X12000Y11135D01*
X12186Y11259D01*
X12311Y11446D01*
X12354Y11665D01*
X12354Y8993D01*
X12136Y8775D01*
X7457Y8775D01*
X7457Y9467D01*
X7435Y9644D01*
X7410Y9705D01*
X7346Y9740D01*
X7240Y9634D01*
X7240Y9846D01*
X7205Y9910D01*
X7032Y9957D01*
X6855Y9935D01*
X6794Y9910D01*
X6759Y9846D01*
X7000Y9606D01*
X7240Y9846D01*
X7240Y9634D01*
X7106Y9500D01*
X7346Y9259D01*
X7410Y9294D01*
X7457Y9467D01*
X7457Y8775D01*
X7361Y8775D01*
X7255Y8881D01*
X7240Y8887D01*
X7240Y9153D01*
X7000Y9393D01*
X6893Y9287D01*
X6893Y9500D01*
X6653Y9740D01*
X6589Y9705D01*
X6542Y9532D01*
X6564Y9355D01*
X6589Y9294D01*
X6653Y9259D01*
X6893Y9500D01*
X6893Y9287D01*
X6759Y9153D01*
X6794Y9089D01*
X6967Y9042D01*
X7144Y9064D01*
X7205Y9089D01*
X7240Y9153D01*
X7240Y8887D01*
X7089Y8949D01*
X6910Y8950D01*
X6745Y8881D01*
X6618Y8755D01*
X6550Y8589D01*
X6549Y8410D01*
X6618Y8245D01*
X6744Y8118D01*
X6910Y8050D01*
X7089Y8049D01*
X7254Y8118D01*
X7361Y8225D01*
X12250Y8225D01*
X12355Y8245D01*
X12355Y8245D01*
X12444Y8305D01*
X13444Y9305D01*
X13475Y9351D01*
X13475Y9113D01*
X12136Y7775D01*
X7361Y7775D01*
X7255Y7881D01*
X7089Y7949D01*
X6910Y7950D01*
X6745Y7881D01*
X6618Y7755D01*
X6550Y7589D01*
X6549Y7410D01*
X6618Y7245D01*
X6744Y7118D01*
X6910Y7050D01*
X7089Y7049D01*
X7254Y7118D01*
X7361Y7225D01*
X12250Y7225D01*
X12355Y7245D01*
X12355Y7245D01*
X12444Y7305D01*
X13944Y8805D01*
X13944Y8805D01*
X13975Y8851D01*
X13975Y8613D01*
X12136Y6775D01*
X7361Y6775D01*
X7255Y6881D01*
X7089Y6949D01*
X6910Y6950D01*
X6745Y6881D01*
X6618Y6755D01*
X6550Y6589D01*
X6549Y6410D01*
X6600Y6288D01*
X6275Y6613D01*
X6275Y32565D01*
X6275Y32565D01*
X6324Y32685D01*
X6325Y32814D01*
X6275Y32933D01*
X6184Y33025D01*
X6064Y33074D01*
X5935Y33075D01*
X5816Y33025D01*
X5775Y32984D01*
X5775Y33565D01*
X5775Y33565D01*
X5824Y33685D01*
X5825Y33814D01*
X5775Y33933D01*
X5684Y34025D01*
X5564Y34074D01*
X5435Y34075D01*
X5316Y34025D01*
X5224Y33934D01*
X5175Y33814D01*
X5174Y33685D01*
X5224Y33566D01*
X5225Y33565D01*
X5225Y13863D01*
X4686Y13325D01*
X4685Y13325D01*
X4589Y13285D01*
X4589Y14695D01*
X4589Y44695D01*
X4584Y45326D01*
X4351Y45889D01*
X4169Y46063D01*
X4063Y45957D01*
X4063Y46169D01*
X3889Y46351D01*
X3304Y46589D01*
X2673Y46584D01*
X2110Y46351D01*
X1936Y46169D01*
X3000Y45106D01*
X4063Y46169D01*
X4063Y45957D01*
X3106Y45000D01*
X4169Y43936D01*
X4351Y44110D01*
X4589Y44695D01*
X4589Y14695D01*
X4584Y15326D01*
X4351Y15889D01*
X4169Y16063D01*
X4063Y15957D01*
X4063Y16169D01*
X4063Y43830D01*
X3000Y44893D01*
X2893Y44787D01*
X2893Y45000D01*
X1830Y46063D01*
X1648Y45889D01*
X1410Y45304D01*
X1415Y44673D01*
X1648Y44110D01*
X1830Y43936D01*
X2893Y45000D01*
X2893Y44787D01*
X1936Y43830D01*
X2110Y43648D01*
X2695Y43410D01*
X3326Y43415D01*
X3889Y43648D01*
X4063Y43830D01*
X4063Y16169D01*
X3889Y16351D01*
X3304Y16589D01*
X2673Y16584D01*
X2110Y16351D01*
X1936Y16169D01*
X3000Y15106D01*
X4063Y16169D01*
X4063Y15957D01*
X3106Y15000D01*
X4169Y13936D01*
X4351Y14110D01*
X4589Y14695D01*
X4589Y13285D01*
X4566Y13275D01*
X4474Y13184D01*
X4425Y13064D01*
X4424Y12935D01*
X4474Y12816D01*
X4565Y12724D01*
X4685Y12675D01*
X4814Y12674D01*
X4933Y12724D01*
X5025Y12815D01*
X5074Y12935D01*
X5074Y12936D01*
X5694Y13555D01*
X5694Y13555D01*
X5694Y13555D01*
X5725Y13601D01*
X5725Y6500D01*
X5745Y6394D01*
X5805Y6305D01*
X6550Y5561D01*
X6549Y5410D01*
X6618Y5245D01*
X6744Y5118D01*
X6910Y5050D01*
X7089Y5049D01*
X7254Y5118D01*
X7381Y5244D01*
X7449Y5410D01*
X7450Y5589D01*
X7381Y5754D01*
X7255Y5881D01*
X7089Y5949D01*
X6938Y5950D01*
X6788Y6100D01*
X6910Y6050D01*
X7089Y6049D01*
X7254Y6118D01*
X7361Y6225D01*
X12250Y6225D01*
X12355Y6245D01*
X12355Y6245D01*
X12444Y6305D01*
X14444Y8305D01*
X14444Y8305D01*
X14444Y8305D01*
X14475Y8351D01*
X14475Y7113D01*
X12136Y4775D01*
X7361Y4775D01*
X7255Y4881D01*
X7089Y4949D01*
X6910Y4950D01*
X6745Y4881D01*
X6618Y4755D01*
X6550Y4589D01*
X6549Y4410D01*
X6618Y4245D01*
X6744Y4118D01*
X6910Y4050D01*
X7089Y4049D01*
X7254Y4118D01*
X7361Y4225D01*
X12250Y4225D01*
X12355Y4245D01*
X12355Y4245D01*
X12444Y4305D01*
X14944Y6805D01*
X14975Y6851D01*
X14975Y6613D01*
X12136Y3775D01*
X7361Y3775D01*
X7255Y3881D01*
X7089Y3949D01*
X6910Y3950D01*
X6745Y3881D01*
X6618Y3755D01*
X6550Y3589D01*
X6549Y3410D01*
X6618Y3245D01*
X6744Y3118D01*
X6910Y3050D01*
X7089Y3049D01*
X7254Y3118D01*
X7361Y3225D01*
X12250Y3225D01*
X12355Y3245D01*
X12355Y3245D01*
X12444Y3305D01*
X15444Y6305D01*
X15504Y6394D01*
X15504Y6394D01*
X15525Y6500D01*
X15525Y28000D01*
X15511Y28069D01*
X15600Y27980D01*
X15600Y10500D01*
X15600Y2500D01*
X15649Y2251D01*
X15790Y2040D01*
X16001Y1899D01*
X16250Y1850D01*
X16498Y1899D01*
X16709Y2040D01*
X16850Y2251D01*
X16900Y2500D01*
X16900Y10500D01*
X16900Y28250D01*
X16850Y28498D01*
X16850Y28498D01*
X16826Y28534D01*
X18225Y27136D01*
X18225Y24184D01*
X18224Y24184D01*
X18175Y24064D01*
X18174Y23935D01*
X18224Y23816D01*
X18315Y23724D01*
X18435Y23675D01*
X18564Y23674D01*
X18683Y23724D01*
X18725Y23765D01*
X18725Y21934D01*
X18724Y21934D01*
X18675Y21814D01*
X18674Y21685D01*
X18724Y21566D01*
X18815Y21474D01*
X18935Y21425D01*
X19064Y21424D01*
X19183Y21474D01*
X19250Y21540D01*
X19250Y10650D01*
X19280Y10496D01*
X19367Y10367D01*
X19496Y10280D01*
X19650Y10250D01*
X19803Y10280D01*
X19932Y10367D01*
X20019Y10496D01*
X20050Y10650D01*
X20050Y24984D01*
X21782Y26717D01*
X21782Y26717D01*
X21840Y26803D01*
X21869Y26846D01*
X21869Y26846D01*
X21899Y27000D01*
X21900Y27000D01*
X21900Y45000D01*
X21899Y45000D01*
X21869Y45153D01*
X21869Y45153D01*
X21840Y45196D01*
X21782Y45282D01*
X21782Y45282D01*
X21767Y45298D01*
X21894Y45314D01*
X21955Y45339D01*
X21990Y45403D01*
X21990Y169D01*
X7450Y169D01*
X7450Y2229D01*
X7450Y2829D01*
X7427Y2884D01*
X7385Y2927D01*
X7329Y2949D01*
X7270Y2950D01*
X6670Y2950D01*
X6615Y2927D01*
X6572Y2885D01*
X6550Y2829D01*
X6549Y2770D01*
X6549Y2170D01*
X6572Y2115D01*
X6614Y2072D01*
X6670Y2050D01*
X6729Y2049D01*
X7329Y2049D01*
X7384Y2072D01*
X7427Y2114D01*
X7449Y2170D01*
X7450Y2229D01*
X7450Y169D01*
X4253Y169D01*
X4253Y11732D01*
X4253Y12156D01*
X4209Y12376D01*
X4085Y12562D01*
X4063Y12577D01*
X4063Y13830D01*
X3000Y14893D01*
X2893Y14787D01*
X2893Y15000D01*
X1830Y16063D01*
X1648Y15889D01*
X1410Y15304D01*
X1415Y14673D01*
X1648Y14110D01*
X1830Y13936D01*
X2893Y15000D01*
X2893Y14787D01*
X1936Y13830D01*
X2110Y13648D01*
X2695Y13410D01*
X3326Y13415D01*
X3889Y13648D01*
X4063Y13830D01*
X4063Y12577D01*
X3899Y12686D01*
X3679Y12730D01*
X3460Y12686D01*
X3274Y12562D01*
X3149Y12376D01*
X3106Y12156D01*
X3106Y11732D01*
X3149Y11513D01*
X3274Y11327D01*
X3460Y11202D01*
X3679Y11159D01*
X3899Y11202D01*
X4085Y11327D01*
X4209Y11513D01*
X4253Y11732D01*
X4253Y169D01*
X169Y169D01*
X169Y59830D01*
X41830Y59830D01*
X41830Y169D01*
M02*
