G04 (created by PCBNEW (2013-07-07 BZR 4022)-stable) date 11/4/2014 1:01:41 AM*
%MOIN*%
G04 Gerber Fmt 3.4, Leading zero omitted, Abs format*
%FSLAX34Y34*%
G01*
G70*
G90*
G04 APERTURE LIST*
%ADD10C,0.01*%
%ADD11R,0.04X0.075*%
%ADD12R,0.075X0.04*%
%ADD13R,0.0314961X0.0248031*%
%ADD14R,0.02X0.094*%
%ADD15R,0.06X0.06*%
%ADD16C,0.06*%
%ADD17R,0.0512X0.059*%
%ADD18R,0.059X0.0512*%
%ADD19R,0.0394X0.0354*%
%ADD20R,0.0354X0.0394*%
%ADD21R,0.0905512X0.220472*%
%ADD22R,0.165X0.07*%
%ADD23C,0.287402*%
%ADD24R,0.0787402X0.0433071*%
%ADD25R,0.0314961X0.0314961*%
%ADD26R,0.0511811X0.0629921*%
%ADD27O,0.0847402X0.12411*%
%ADD28R,0.173228X0.129921*%
%ADD29R,0.244094X0.153543*%
%ADD30C,0.0984252*%
%ADD31C,0.035*%
%ADD32C,0.025*%
%ADD33C,0.05*%
%ADD34C,0.1*%
G04 APERTURE END LIST*
G54D10*
G54D11*
X31750Y56000D03*
X30750Y54500D03*
X29750Y56000D03*
X28750Y54500D03*
X27750Y56000D03*
X26750Y54500D03*
X25750Y56000D03*
X24750Y54500D03*
X23750Y56000D03*
X22750Y54500D03*
X21750Y56000D03*
X20750Y54500D03*
X20750Y47500D03*
X21750Y49000D03*
X22750Y47500D03*
X23750Y49000D03*
X24750Y47500D03*
X25750Y49000D03*
X26750Y47500D03*
X27750Y49000D03*
X28750Y47500D03*
X29750Y49000D03*
X30750Y47500D03*
X31750Y49000D03*
G54D12*
X975Y2500D03*
X975Y3500D03*
X975Y4500D03*
X975Y5500D03*
X975Y6500D03*
X975Y7500D03*
X975Y8500D03*
X975Y9500D03*
X5025Y2500D03*
X5025Y3500D03*
X5025Y4500D03*
X5025Y5500D03*
X5025Y6500D03*
X5025Y7500D03*
X5025Y8500D03*
X5025Y9500D03*
X975Y50500D03*
X975Y51500D03*
X975Y52500D03*
X975Y53500D03*
X975Y54500D03*
X975Y55500D03*
X975Y56500D03*
X975Y57500D03*
X5025Y50500D03*
X5025Y51500D03*
X5025Y52500D03*
X5025Y53500D03*
X5025Y54500D03*
X5025Y55500D03*
X5025Y56500D03*
X5025Y57500D03*
G54D13*
X21027Y7874D03*
X21027Y7500D03*
X21027Y7125D03*
X21972Y7125D03*
X21972Y7500D03*
X21972Y7874D03*
G54D14*
X18750Y39415D03*
X18250Y39415D03*
X17750Y39415D03*
X17250Y39415D03*
X16750Y39415D03*
X16250Y39415D03*
X15750Y39415D03*
X15250Y39415D03*
X15250Y37585D03*
X15750Y37585D03*
X16250Y37585D03*
X16750Y37585D03*
X17250Y37585D03*
X17750Y37585D03*
X18250Y37585D03*
X18750Y37585D03*
G54D15*
X7000Y2500D03*
G54D16*
X7000Y3500D03*
X7000Y4500D03*
X7000Y5500D03*
X7000Y6500D03*
X7000Y7500D03*
X7000Y8500D03*
X7000Y9500D03*
G54D15*
X7000Y50500D03*
G54D16*
X7000Y51500D03*
X7000Y52500D03*
X7000Y53500D03*
X7000Y54500D03*
X7000Y55500D03*
X7000Y56500D03*
X7000Y57500D03*
G54D17*
X22875Y7250D03*
X23625Y7250D03*
G54D18*
X24000Y10375D03*
X24000Y9625D03*
G54D19*
X20000Y6204D03*
X20000Y6796D03*
X18250Y36046D03*
X18250Y35454D03*
G54D20*
X21204Y8500D03*
X21796Y8500D03*
X22546Y6250D03*
X21954Y6250D03*
G54D19*
X20000Y7454D03*
X20000Y8046D03*
X20000Y38204D03*
X20000Y38796D03*
G54D21*
X30956Y6000D03*
X28043Y6000D03*
G54D22*
X22500Y9350D03*
X22500Y10650D03*
G54D23*
X39000Y45000D03*
X39000Y15000D03*
X3000Y45000D03*
X3000Y15000D03*
G54D24*
X22994Y8250D03*
G54D25*
X23742Y8250D03*
G54D15*
X31750Y57750D03*
G54D16*
X30750Y57750D03*
X29750Y57750D03*
X28750Y57750D03*
X27750Y57750D03*
X26750Y57750D03*
X25750Y57750D03*
X24750Y57750D03*
X23750Y57750D03*
X22750Y57750D03*
X21750Y57750D03*
X20750Y57750D03*
G54D15*
X20750Y45750D03*
G54D16*
X21750Y45750D03*
X22750Y45750D03*
X23750Y45750D03*
X24750Y45750D03*
X25750Y45750D03*
X26750Y45750D03*
X27750Y45750D03*
X28750Y45750D03*
X29750Y45750D03*
X30750Y45750D03*
X31750Y45750D03*
G54D26*
X8974Y23553D03*
X10470Y23553D03*
G54D27*
X9722Y23553D03*
G54D26*
X11499Y17715D03*
X10003Y17715D03*
G54D27*
X10751Y17715D03*
G54D26*
X11033Y11877D03*
X12529Y11877D03*
G54D27*
X11781Y11877D03*
G54D26*
X25619Y38362D03*
X27115Y38362D03*
G54D27*
X26367Y38362D03*
G54D26*
X27799Y34484D03*
X26303Y34484D03*
G54D27*
X27051Y34484D03*
G54D26*
X31445Y30004D03*
X32941Y30004D03*
G54D27*
X32193Y30004D03*
G54D26*
X29947Y21743D03*
X28451Y21743D03*
G54D27*
X29199Y21743D03*
G54D26*
X35382Y30004D03*
X36878Y30004D03*
G54D27*
X36130Y30004D03*
G54D26*
X6256Y47957D03*
X4760Y47957D03*
G54D27*
X5508Y47957D03*
G54D26*
X27767Y25621D03*
X29263Y25621D03*
G54D27*
X28515Y25621D03*
G54D26*
X5785Y42141D03*
X7282Y42141D03*
G54D27*
X6534Y42141D03*
G54D26*
X8307Y36326D03*
X6811Y36326D03*
G54D27*
X7559Y36326D03*
G54D26*
X20103Y30004D03*
X18606Y30004D03*
G54D27*
X19355Y30004D03*
G54D26*
X24040Y30004D03*
X22543Y30004D03*
G54D27*
X23292Y30004D03*
G54D26*
X4427Y11944D03*
X2931Y11944D03*
G54D27*
X3679Y11944D03*
G54D28*
X35206Y6000D03*
G54D29*
X38750Y3460D03*
X38750Y8539D03*
G54D30*
X40246Y6000D03*
G54D31*
X19650Y10650D03*
X20750Y45750D03*
X17750Y44000D03*
X17750Y53500D03*
X17750Y41500D03*
X17250Y43500D03*
X17250Y52500D03*
X17250Y41000D03*
X18250Y44500D03*
X18250Y41000D03*
X6000Y32750D03*
X9250Y45000D03*
X16750Y43000D03*
X17250Y36500D03*
X7000Y33250D03*
X3000Y46000D03*
X4000Y45000D03*
X3750Y45750D03*
X3000Y44000D03*
X3750Y44250D03*
X2250Y44250D03*
X2000Y45000D03*
X2250Y45750D03*
X2250Y15750D03*
X2000Y15000D03*
X2250Y14250D03*
X3750Y14250D03*
X3000Y14000D03*
X3750Y15750D03*
X4000Y15000D03*
X3000Y16000D03*
X39000Y16000D03*
X40000Y15000D03*
X39750Y15750D03*
X39000Y14000D03*
X39750Y14250D03*
X38250Y14250D03*
X38000Y15000D03*
X38250Y15750D03*
X38250Y45750D03*
X38000Y45000D03*
X38250Y44250D03*
X39750Y44250D03*
X39000Y44000D03*
X39750Y45750D03*
X40000Y45000D03*
X39000Y46000D03*
X18000Y6750D03*
X18000Y6250D03*
X18000Y5750D03*
X18000Y5250D03*
X18000Y4750D03*
X18500Y4750D03*
X19000Y4750D03*
X19500Y4750D03*
X20000Y4750D03*
X20500Y4750D03*
X21000Y4750D03*
X21500Y4750D03*
X22000Y4750D03*
X22500Y4750D03*
X23000Y4750D03*
X23500Y4750D03*
X24000Y4750D03*
X24500Y12750D03*
X24000Y12750D03*
X23500Y12750D03*
X23000Y12750D03*
X22500Y12750D03*
X22000Y12750D03*
X21500Y12750D03*
X21000Y12750D03*
X20500Y12750D03*
X19000Y12750D03*
X18500Y12750D03*
X18000Y12750D03*
X18000Y12250D03*
X18000Y11750D03*
X18000Y11250D03*
X18000Y10750D03*
X18000Y10250D03*
X18000Y9750D03*
X18000Y9250D03*
X18000Y8750D03*
X18000Y8250D03*
X18000Y7750D03*
X18000Y7250D03*
X25500Y7250D03*
X25500Y7750D03*
X25500Y8250D03*
X25500Y8750D03*
X25500Y9250D03*
X25500Y9750D03*
X25500Y10250D03*
X25500Y10750D03*
X25500Y11250D03*
X25500Y11750D03*
X25500Y12250D03*
X25500Y12750D03*
X25000Y12750D03*
X36750Y3250D03*
X36250Y3250D03*
X35750Y3250D03*
X20550Y7500D03*
X20550Y8050D03*
X24000Y8950D03*
X24300Y7250D03*
X24300Y8250D03*
X4750Y13000D03*
X5500Y33750D03*
X16250Y41000D03*
X16250Y49000D03*
X16250Y36500D03*
X18250Y31000D03*
X19000Y21750D03*
X15750Y35250D03*
X17750Y30000D03*
X15250Y36500D03*
X15750Y41500D03*
X18500Y24000D03*
X20000Y37000D03*
X20750Y53250D03*
X27750Y30000D03*
X29000Y34500D03*
X16250Y28250D03*
X10750Y36250D03*
X16250Y10500D03*
X16250Y2500D03*
X10750Y57500D03*
G54D32*
X20750Y47500D02*
X20750Y48000D01*
X20750Y45750D02*
X20750Y47500D01*
G54D33*
X22500Y10650D02*
X19650Y10650D01*
G54D32*
X20000Y6204D02*
X20000Y5750D01*
X19000Y10000D02*
X19650Y10650D01*
X19000Y5750D02*
X19000Y10000D01*
X19250Y5500D02*
X19000Y5750D01*
X19750Y5500D02*
X19250Y5500D01*
X20000Y5750D02*
X19750Y5500D01*
X28750Y45750D02*
X27000Y44000D01*
X27000Y44000D02*
X17750Y44000D01*
X28750Y47500D02*
X28750Y48000D01*
X28750Y47500D02*
X28750Y45750D01*
X7000Y53500D02*
X17750Y53500D01*
X17750Y39415D02*
X17750Y41500D01*
X975Y6500D02*
X500Y6500D01*
X975Y53500D02*
X500Y53500D01*
X5025Y6500D02*
X7000Y6500D01*
X975Y6500D02*
X5025Y6500D01*
X7000Y53500D02*
X5025Y53500D01*
X975Y53500D02*
X5025Y53500D01*
X27500Y43500D02*
X17250Y43500D01*
X29750Y45750D02*
X27500Y43500D01*
X29750Y49000D02*
X29750Y49500D01*
X29750Y49000D02*
X29750Y45750D01*
X7000Y52500D02*
X17250Y52500D01*
X17250Y41000D02*
X17250Y39415D01*
X975Y7500D02*
X500Y7500D01*
X975Y52500D02*
X500Y52500D01*
X5025Y7500D02*
X7000Y7500D01*
X975Y7500D02*
X5025Y7500D01*
X5025Y52500D02*
X975Y52500D01*
X7000Y52500D02*
X5025Y52500D01*
X27750Y45750D02*
X26500Y44500D01*
X26500Y44500D02*
X18250Y44500D01*
X18250Y41000D02*
X18250Y39415D01*
X27750Y49000D02*
X27750Y49500D01*
X27750Y49000D02*
X27750Y45750D01*
X17750Y34250D02*
X17750Y37585D01*
X16250Y32750D02*
X17750Y34250D01*
X6000Y32750D02*
X16250Y32750D01*
X975Y5500D02*
X500Y5500D01*
X5025Y5500D02*
X7000Y5500D01*
X975Y5500D02*
X5025Y5500D01*
X26750Y45750D02*
X26000Y45000D01*
X26000Y45000D02*
X9250Y45000D01*
X26750Y47500D02*
X26750Y48000D01*
X26750Y47500D02*
X26750Y45750D01*
X975Y4500D02*
X500Y4500D01*
X975Y55500D02*
X500Y55500D01*
X975Y55500D02*
X5025Y55500D01*
X5025Y55500D02*
X7000Y55500D01*
X5025Y4500D02*
X7000Y4500D01*
X975Y4500D02*
X5025Y4500D01*
X30750Y45750D02*
X28000Y43000D01*
X28000Y43000D02*
X16750Y43000D01*
X17250Y37585D02*
X17250Y36500D01*
X30750Y47500D02*
X30750Y48000D01*
X30750Y47500D02*
X30750Y45750D01*
X17250Y37585D02*
X17250Y34750D01*
X15750Y33250D02*
X7000Y33250D01*
X17250Y34750D02*
X15750Y33250D01*
X975Y8500D02*
X500Y8500D01*
X975Y51500D02*
X500Y51500D01*
X5025Y8500D02*
X7000Y8500D01*
X975Y8500D02*
X5025Y8500D01*
X975Y51500D02*
X5025Y51500D01*
X5025Y51500D02*
X7000Y51500D01*
G54D33*
X3000Y46000D02*
X3000Y45000D01*
X3000Y45000D02*
X4000Y45000D01*
X3750Y45750D02*
X3000Y45000D01*
X3000Y45000D02*
X3000Y44000D01*
X3750Y44250D02*
X3000Y45000D01*
X2250Y44250D02*
X3000Y45000D01*
X3000Y45000D02*
X2000Y45000D01*
X2250Y45750D02*
X3000Y45000D01*
X2250Y15750D02*
X3000Y15000D01*
X3000Y15000D02*
X2000Y15000D01*
X2250Y14250D02*
X3000Y15000D01*
X3750Y14250D02*
X3000Y15000D01*
X3000Y15000D02*
X3000Y14000D01*
X3750Y15750D02*
X3000Y15000D01*
X3000Y15000D02*
X4000Y15000D01*
X3000Y16000D02*
X3000Y15000D01*
X39000Y16000D02*
X39000Y15000D01*
X39000Y15000D02*
X40000Y15000D01*
X39750Y15750D02*
X39000Y15000D01*
X39000Y15000D02*
X39000Y14000D01*
X39750Y14250D02*
X39000Y15000D01*
X38250Y14250D02*
X39000Y15000D01*
X39000Y15000D02*
X38000Y15000D01*
X38250Y15750D02*
X39000Y15000D01*
X38250Y45750D02*
X39000Y45000D01*
X39000Y45000D02*
X38000Y45000D01*
X38250Y44250D02*
X39000Y45000D01*
X39750Y44250D02*
X39000Y45000D01*
X39000Y45000D02*
X39000Y44000D01*
X39750Y45750D02*
X39000Y45000D01*
X39000Y45000D02*
X40000Y45000D01*
X39000Y46000D02*
X39000Y45000D01*
G54D32*
X25500Y7250D02*
X25500Y12750D01*
X25500Y12750D02*
X18000Y12750D01*
X18000Y12750D02*
X18000Y4750D01*
X18000Y4750D02*
X24000Y4750D01*
X18000Y6750D02*
X18000Y6250D01*
X18000Y5750D02*
X18000Y5250D01*
X18000Y4750D02*
X18500Y4750D01*
X19000Y4750D02*
X19500Y4750D01*
X20000Y4750D02*
X20500Y4750D01*
X21000Y4750D02*
X21500Y4750D01*
X22000Y4750D02*
X22500Y4750D01*
X23000Y4750D02*
X23500Y4750D01*
X24500Y12750D02*
X24000Y12750D01*
X23500Y12750D02*
X23000Y12750D01*
X22500Y12750D02*
X22000Y12750D01*
X21500Y12750D02*
X21000Y12750D01*
X20500Y12750D02*
X19000Y12750D01*
X18500Y12750D02*
X18000Y12750D01*
X18000Y12250D02*
X18000Y11750D01*
X18000Y11250D02*
X18000Y10750D01*
X18000Y10250D02*
X18000Y9750D01*
X18000Y8750D02*
X18000Y8250D01*
X18000Y7750D02*
X18000Y7250D01*
X24300Y7250D02*
X25500Y7250D01*
X25500Y7750D02*
X25500Y8250D01*
X25500Y8750D02*
X25500Y9250D01*
X25500Y9750D02*
X25500Y10250D01*
X25500Y10750D02*
X25500Y11250D01*
X25500Y11750D02*
X25500Y12250D01*
X25500Y12750D02*
X25000Y12750D01*
X36250Y3250D02*
X36750Y3250D01*
X38750Y3460D02*
X36960Y3460D01*
X36960Y3460D02*
X36750Y3250D01*
X36250Y3250D02*
X35750Y3250D01*
X21750Y49000D02*
X21750Y49500D01*
X23750Y56000D02*
X23750Y55500D01*
X23750Y56000D02*
X23750Y57750D01*
X21750Y49000D02*
X21750Y45750D01*
X20000Y38796D02*
X20000Y40250D01*
X18750Y40250D02*
X18750Y39415D01*
X19000Y40500D02*
X18750Y40250D01*
X19750Y40500D02*
X19000Y40500D01*
X20000Y40250D02*
X19750Y40500D01*
X5025Y50500D02*
X7000Y50500D01*
X975Y50500D02*
X5025Y50500D01*
X975Y50500D02*
X500Y50500D01*
X975Y9500D02*
X500Y9500D01*
X21027Y7500D02*
X20550Y7500D01*
X24000Y9625D02*
X24000Y8950D01*
X23742Y8250D02*
X24300Y8250D01*
X24300Y7250D02*
X23625Y7250D01*
X5025Y9500D02*
X7000Y9500D01*
X975Y9500D02*
X5025Y9500D01*
X16750Y37585D02*
X16750Y35250D01*
X2055Y11944D02*
X2931Y11944D01*
X1875Y12125D02*
X2055Y11944D01*
X1875Y12625D02*
X1875Y12125D01*
X2250Y13000D02*
X1875Y12625D01*
X4750Y13000D02*
X2250Y13000D01*
X15250Y33750D02*
X5500Y33750D01*
X16750Y35250D02*
X15250Y33750D01*
X4760Y47957D02*
X4042Y47957D01*
X16250Y41000D02*
X16250Y39415D01*
X4000Y49000D02*
X16250Y49000D01*
X3750Y48750D02*
X4000Y49000D01*
X3750Y48250D02*
X3750Y48750D01*
X4042Y47957D02*
X3750Y48250D01*
G54D10*
X18250Y36046D02*
X18250Y37585D01*
G54D32*
X24750Y47500D02*
X24750Y48000D01*
X24750Y47500D02*
X24750Y45750D01*
X23750Y49000D02*
X23750Y49500D01*
X23750Y49000D02*
X23750Y45750D01*
X22750Y47500D02*
X22750Y48000D01*
X22750Y47500D02*
X22750Y45750D01*
X25750Y49000D02*
X25750Y49500D01*
X25750Y49000D02*
X25750Y45750D01*
X27750Y56000D02*
X27750Y55500D01*
X27750Y56000D02*
X27750Y57750D01*
G54D34*
X35206Y6000D02*
X30956Y6000D01*
G54D32*
X21750Y56000D02*
X21750Y55500D01*
X21750Y56000D02*
X21750Y57750D01*
X22750Y54500D02*
X22750Y54000D01*
X22750Y54500D02*
X22750Y57750D01*
X24750Y54500D02*
X24750Y54000D01*
X24750Y54500D02*
X24750Y57750D01*
X25750Y56000D02*
X25750Y55500D01*
X25750Y56000D02*
X25750Y57750D01*
X26750Y54500D02*
X26750Y54000D01*
X26750Y54500D02*
X26750Y57750D01*
X28750Y54500D02*
X28750Y54000D01*
X28750Y54500D02*
X28750Y57750D01*
X29750Y56000D02*
X29750Y55500D01*
X29750Y56000D02*
X29750Y57750D01*
X30750Y54500D02*
X30750Y54000D01*
X30750Y54500D02*
X30750Y57750D01*
X31750Y56000D02*
X31750Y55500D01*
X31750Y56000D02*
X31750Y57750D01*
X31750Y49000D02*
X31750Y49500D01*
X31750Y49000D02*
X31750Y45750D01*
G54D10*
X21027Y7125D02*
X20174Y7125D01*
X20000Y7300D02*
X20000Y7454D01*
X20174Y7125D02*
X20000Y7300D01*
X20000Y6796D02*
X20000Y7454D01*
G54D32*
X975Y54500D02*
X500Y54500D01*
X7000Y54500D02*
X5025Y54500D01*
X5025Y54500D02*
X975Y54500D01*
G54D10*
X21972Y7874D02*
X21972Y8323D01*
X21972Y8323D02*
X21796Y8500D01*
X22994Y8250D02*
X22348Y8250D01*
X22348Y8250D02*
X21972Y7874D01*
X22500Y9350D02*
X22500Y8744D01*
X22500Y8744D02*
X22994Y8250D01*
X21796Y8500D02*
X21796Y8646D01*
X21796Y8646D02*
X22500Y9350D01*
G54D32*
X21027Y7874D02*
X21027Y8323D01*
X21027Y8323D02*
X21204Y8500D01*
G54D10*
X21972Y7125D02*
X21972Y6268D01*
X21972Y6268D02*
X21954Y6250D01*
G54D32*
X36878Y30004D02*
X37754Y30004D01*
X16250Y36500D02*
X16250Y37585D01*
X37750Y31000D02*
X18250Y31000D01*
X38000Y30750D02*
X37750Y31000D01*
X38000Y30250D02*
X38000Y30750D01*
X37754Y30004D02*
X38000Y30250D01*
X10003Y17715D02*
X9284Y17715D01*
X8303Y23553D02*
X8974Y23553D01*
X7750Y23000D02*
X8303Y23553D01*
X7750Y19250D02*
X7750Y23000D01*
X9284Y17715D02*
X7750Y19250D01*
X12529Y11877D02*
X13127Y11877D01*
X12534Y17715D02*
X11499Y17715D01*
X13500Y16750D02*
X12534Y17715D01*
X13500Y12250D02*
X13500Y16750D01*
X13127Y11877D02*
X13500Y12250D01*
X20103Y30004D02*
X22543Y30004D01*
X32941Y30004D02*
X35382Y30004D01*
X26303Y34484D02*
X25515Y34484D01*
X24862Y38362D02*
X25619Y38362D01*
X24750Y38250D02*
X24862Y38362D01*
X24750Y35250D02*
X24750Y38250D01*
X25000Y35000D02*
X24750Y35250D01*
X25515Y34484D02*
X25000Y35000D01*
X29947Y21743D02*
X30743Y21743D01*
X30628Y25621D02*
X29263Y25621D01*
X31000Y25250D02*
X30628Y25621D01*
X31000Y22000D02*
X31000Y25250D01*
X30743Y21743D02*
X31000Y22000D01*
X7282Y42141D02*
X8141Y42141D01*
X7792Y47957D02*
X6256Y47957D01*
X8500Y47250D02*
X7792Y47957D01*
X8500Y42500D02*
X8500Y47250D01*
X8141Y42141D02*
X8500Y42500D01*
X5785Y42141D02*
X5141Y42141D01*
X5173Y36326D02*
X6811Y36326D01*
X4750Y36750D02*
X5173Y36326D01*
X4750Y41750D02*
X4750Y36750D01*
X5141Y42141D02*
X4750Y41750D01*
X19000Y21750D02*
X19006Y21743D01*
X28451Y21743D02*
X19006Y21743D01*
X15750Y37585D02*
X15750Y35250D01*
X15250Y37585D02*
X15250Y36500D01*
X17754Y30004D02*
X18606Y30004D01*
X17750Y30000D02*
X17754Y30004D01*
X15250Y39415D02*
X15250Y41750D01*
X15250Y41750D02*
X15500Y42000D01*
X15500Y42000D02*
X27000Y42000D01*
X27000Y42000D02*
X28000Y41000D01*
X28000Y41000D02*
X28000Y38750D01*
X28000Y38750D02*
X27612Y38362D01*
X27612Y38362D02*
X27115Y38362D01*
X15750Y41500D02*
X15750Y39415D01*
X18053Y23553D02*
X10470Y23553D01*
X18500Y24000D02*
X18053Y23553D01*
X20750Y54500D02*
X20750Y57750D01*
X20750Y54500D02*
X20750Y53250D01*
X7000Y56500D02*
X20000Y56500D01*
X20750Y55750D02*
X20750Y54500D01*
X20000Y56500D02*
X20750Y55750D01*
X20000Y38204D02*
X20000Y37000D01*
X18750Y37000D02*
X18750Y37585D01*
X20000Y37000D02*
X19750Y36750D01*
X19750Y36750D02*
X19000Y36750D01*
X19000Y36750D02*
X18750Y37000D01*
X975Y3500D02*
X500Y3500D01*
X975Y56500D02*
X500Y56500D01*
X7000Y56500D02*
X5025Y56500D01*
X5025Y56500D02*
X975Y56500D01*
X7000Y3500D02*
X5025Y3500D01*
X5025Y3500D02*
X975Y3500D01*
X27799Y34484D02*
X28984Y34484D01*
X28984Y34484D02*
X29000Y34500D01*
G54D34*
X17000Y28250D02*
X17250Y28250D01*
X16250Y28250D02*
X17250Y28250D01*
X26000Y28250D02*
X17250Y28250D01*
X27750Y30000D02*
X26000Y28250D01*
G54D32*
X27767Y25621D02*
X26878Y25621D01*
X27750Y28000D02*
X27750Y30000D01*
X26500Y26750D02*
X27750Y28000D01*
X26500Y26000D02*
X26500Y26750D01*
X26878Y25621D02*
X26500Y26000D01*
X27750Y30000D02*
X27745Y30004D01*
X27745Y30004D02*
X24040Y30004D01*
X27799Y30049D02*
X27844Y30004D01*
X27844Y30004D02*
X31445Y30004D01*
X27750Y30000D02*
X27799Y30049D01*
X8307Y36326D02*
X10673Y36326D01*
X10673Y36326D02*
X10750Y36250D01*
X7500Y11944D02*
X8944Y10500D01*
X8944Y10500D02*
X16250Y10500D01*
X4427Y11944D02*
X7500Y11944D01*
X7500Y11944D02*
X7555Y11944D01*
X7622Y11877D02*
X11033Y11877D01*
X7555Y11944D02*
X7622Y11877D01*
G54D34*
X7000Y57500D02*
X10750Y57500D01*
X7000Y2500D02*
X16250Y2500D01*
X16250Y2500D02*
X23250Y2500D01*
X23250Y2500D02*
X26750Y6000D01*
G54D33*
X22546Y6250D02*
X23250Y6250D01*
G54D34*
X26500Y6250D02*
X26750Y6000D01*
X26500Y6250D02*
X23250Y6250D01*
X28043Y6000D02*
X26750Y6000D01*
G54D32*
X21972Y7500D02*
X22625Y7500D01*
X22625Y7500D02*
X22875Y7250D01*
X975Y57500D02*
X5025Y57500D01*
X5025Y57500D02*
X7000Y57500D01*
X5025Y2500D02*
X7000Y2500D01*
X975Y2500D02*
X5025Y2500D01*
G54D10*
G36*
X8700Y1870D02*
X8229Y1400D01*
X7550Y1400D01*
X7550Y2150D01*
X7550Y2362D01*
X7487Y2425D01*
X7075Y2425D01*
X7075Y2012D01*
X7137Y1950D01*
X7250Y1949D01*
X7349Y1950D01*
X7441Y1988D01*
X7512Y2058D01*
X7550Y2150D01*
X7550Y1400D01*
X6925Y1400D01*
X6925Y2012D01*
X6925Y2425D01*
X6512Y2425D01*
X6450Y2362D01*
X6449Y2150D01*
X6487Y2058D01*
X6558Y1988D01*
X6650Y1950D01*
X6749Y1949D01*
X6862Y1950D01*
X6925Y2012D01*
X6925Y1400D01*
X5650Y1400D01*
X5650Y2250D01*
X5650Y2749D01*
X5612Y2841D01*
X5541Y2911D01*
X5449Y2949D01*
X5350Y2950D01*
X5162Y2950D01*
X5100Y2887D01*
X5100Y2575D01*
X5587Y2575D01*
X5650Y2637D01*
X5650Y2749D01*
X5650Y2250D01*
X5650Y2362D01*
X5587Y2425D01*
X5100Y2425D01*
X5100Y2112D01*
X5162Y2050D01*
X5350Y2049D01*
X5449Y2050D01*
X5541Y2088D01*
X5612Y2158D01*
X5650Y2250D01*
X5650Y1400D01*
X4950Y1400D01*
X4950Y2112D01*
X4950Y2425D01*
X4950Y2575D01*
X4950Y2887D01*
X4887Y2950D01*
X4699Y2950D01*
X4600Y2949D01*
X4508Y2911D01*
X4437Y2841D01*
X4399Y2749D01*
X4400Y2637D01*
X4462Y2575D01*
X4950Y2575D01*
X4950Y2425D01*
X4462Y2425D01*
X4400Y2362D01*
X4399Y2250D01*
X4437Y2158D01*
X4508Y2088D01*
X4600Y2050D01*
X4699Y2049D01*
X4887Y2050D01*
X4950Y2112D01*
X4950Y1400D01*
X1600Y1400D01*
X1600Y2250D01*
X1600Y2749D01*
X1562Y2841D01*
X1491Y2911D01*
X1399Y2949D01*
X1300Y2950D01*
X1112Y2950D01*
X1050Y2887D01*
X1050Y2575D01*
X1537Y2575D01*
X1600Y2637D01*
X1600Y2749D01*
X1600Y2250D01*
X1600Y2362D01*
X1537Y2425D01*
X1050Y2425D01*
X1050Y2112D01*
X1112Y2050D01*
X1300Y2049D01*
X1399Y2050D01*
X1491Y2088D01*
X1562Y2158D01*
X1600Y2250D01*
X1600Y1400D01*
X900Y1400D01*
X900Y2112D01*
X900Y2425D01*
X900Y2575D01*
X900Y2887D01*
X837Y2950D01*
X649Y2950D01*
X550Y2949D01*
X458Y2911D01*
X387Y2841D01*
X349Y2749D01*
X350Y2637D01*
X412Y2575D01*
X900Y2575D01*
X900Y2425D01*
X412Y2425D01*
X350Y2362D01*
X349Y2250D01*
X387Y2158D01*
X458Y2088D01*
X550Y2050D01*
X649Y2049D01*
X837Y2050D01*
X900Y2112D01*
X900Y1400D01*
X770Y1400D01*
X300Y1870D01*
X300Y2829D01*
X520Y3050D01*
X600Y3050D01*
X649Y3049D01*
X1399Y3049D01*
X1399Y3050D01*
X4650Y3050D01*
X4699Y3049D01*
X5449Y3049D01*
X5449Y3050D01*
X6672Y3050D01*
X6672Y3049D01*
X6650Y3049D01*
X6558Y3011D01*
X6487Y2941D01*
X6449Y2849D01*
X6450Y2637D01*
X6512Y2575D01*
X6925Y2575D01*
X6925Y2582D01*
X7075Y2582D01*
X7075Y2575D01*
X7487Y2575D01*
X7550Y2637D01*
X7550Y2849D01*
X7512Y2941D01*
X7441Y3011D01*
X7349Y3049D01*
X7327Y3049D01*
X7327Y3050D01*
X8479Y3050D01*
X8700Y2829D01*
X8700Y1870D01*
X8700Y1870D01*
G37*
X8700Y1870D02*
X8229Y1400D01*
X7550Y1400D01*
X7550Y2150D01*
X7550Y2362D01*
X7487Y2425D01*
X7075Y2425D01*
X7075Y2012D01*
X7137Y1950D01*
X7250Y1949D01*
X7349Y1950D01*
X7441Y1988D01*
X7512Y2058D01*
X7550Y2150D01*
X7550Y1400D01*
X6925Y1400D01*
X6925Y2012D01*
X6925Y2425D01*
X6512Y2425D01*
X6450Y2362D01*
X6449Y2150D01*
X6487Y2058D01*
X6558Y1988D01*
X6650Y1950D01*
X6749Y1949D01*
X6862Y1950D01*
X6925Y2012D01*
X6925Y1400D01*
X5650Y1400D01*
X5650Y2250D01*
X5650Y2749D01*
X5612Y2841D01*
X5541Y2911D01*
X5449Y2949D01*
X5350Y2950D01*
X5162Y2950D01*
X5100Y2887D01*
X5100Y2575D01*
X5587Y2575D01*
X5650Y2637D01*
X5650Y2749D01*
X5650Y2250D01*
X5650Y2362D01*
X5587Y2425D01*
X5100Y2425D01*
X5100Y2112D01*
X5162Y2050D01*
X5350Y2049D01*
X5449Y2050D01*
X5541Y2088D01*
X5612Y2158D01*
X5650Y2250D01*
X5650Y1400D01*
X4950Y1400D01*
X4950Y2112D01*
X4950Y2425D01*
X4950Y2575D01*
X4950Y2887D01*
X4887Y2950D01*
X4699Y2950D01*
X4600Y2949D01*
X4508Y2911D01*
X4437Y2841D01*
X4399Y2749D01*
X4400Y2637D01*
X4462Y2575D01*
X4950Y2575D01*
X4950Y2425D01*
X4462Y2425D01*
X4400Y2362D01*
X4399Y2250D01*
X4437Y2158D01*
X4508Y2088D01*
X4600Y2050D01*
X4699Y2049D01*
X4887Y2050D01*
X4950Y2112D01*
X4950Y1400D01*
X1600Y1400D01*
X1600Y2250D01*
X1600Y2749D01*
X1562Y2841D01*
X1491Y2911D01*
X1399Y2949D01*
X1300Y2950D01*
X1112Y2950D01*
X1050Y2887D01*
X1050Y2575D01*
X1537Y2575D01*
X1600Y2637D01*
X1600Y2749D01*
X1600Y2250D01*
X1600Y2362D01*
X1537Y2425D01*
X1050Y2425D01*
X1050Y2112D01*
X1112Y2050D01*
X1300Y2049D01*
X1399Y2050D01*
X1491Y2088D01*
X1562Y2158D01*
X1600Y2250D01*
X1600Y1400D01*
X900Y1400D01*
X900Y2112D01*
X900Y2425D01*
X900Y2575D01*
X900Y2887D01*
X837Y2950D01*
X649Y2950D01*
X550Y2949D01*
X458Y2911D01*
X387Y2841D01*
X349Y2749D01*
X350Y2637D01*
X412Y2575D01*
X900Y2575D01*
X900Y2425D01*
X412Y2425D01*
X350Y2362D01*
X349Y2250D01*
X387Y2158D01*
X458Y2088D01*
X550Y2050D01*
X649Y2049D01*
X837Y2050D01*
X900Y2112D01*
X900Y1400D01*
X770Y1400D01*
X300Y1870D01*
X300Y2829D01*
X520Y3050D01*
X600Y3050D01*
X649Y3049D01*
X1399Y3049D01*
X1399Y3050D01*
X4650Y3050D01*
X4699Y3049D01*
X5449Y3049D01*
X5449Y3050D01*
X6672Y3050D01*
X6672Y3049D01*
X6650Y3049D01*
X6558Y3011D01*
X6487Y2941D01*
X6449Y2849D01*
X6450Y2637D01*
X6512Y2575D01*
X6925Y2575D01*
X6925Y2582D01*
X7075Y2582D01*
X7075Y2575D01*
X7487Y2575D01*
X7550Y2637D01*
X7550Y2849D01*
X7512Y2941D01*
X7441Y3011D01*
X7349Y3049D01*
X7327Y3049D01*
X7327Y3050D01*
X8479Y3050D01*
X8700Y2829D01*
X8700Y1870D01*
G36*
X8700Y57170D02*
X8479Y56950D01*
X7557Y56950D01*
X7557Y57443D01*
X7537Y57661D01*
X7493Y57765D01*
X7401Y57795D01*
X7295Y57689D01*
X7295Y57901D01*
X7265Y57993D01*
X7056Y58057D01*
X6838Y58037D01*
X6734Y57993D01*
X6704Y57901D01*
X7000Y57606D01*
X7295Y57901D01*
X7295Y57689D01*
X7106Y57500D01*
X7401Y57204D01*
X7493Y57234D01*
X7557Y57443D01*
X7557Y56950D01*
X7327Y56950D01*
X7311Y56965D01*
X7240Y56995D01*
X7265Y57006D01*
X7295Y57098D01*
X7000Y57393D01*
X6893Y57287D01*
X6893Y57500D01*
X6598Y57795D01*
X6506Y57765D01*
X6442Y57556D01*
X6462Y57338D01*
X6506Y57234D01*
X6598Y57204D01*
X6893Y57500D01*
X6893Y57287D01*
X6704Y57098D01*
X6734Y57006D01*
X6763Y56997D01*
X6688Y56966D01*
X6672Y56950D01*
X5650Y56950D01*
X5650Y57250D01*
X5650Y57749D01*
X5612Y57841D01*
X5541Y57911D01*
X5449Y57949D01*
X5350Y57950D01*
X5162Y57950D01*
X5100Y57887D01*
X5100Y57575D01*
X5587Y57575D01*
X5650Y57637D01*
X5650Y57749D01*
X5650Y57250D01*
X5650Y57362D01*
X5587Y57425D01*
X5100Y57425D01*
X5100Y57112D01*
X5162Y57050D01*
X5350Y57049D01*
X5449Y57050D01*
X5541Y57088D01*
X5612Y57158D01*
X5650Y57250D01*
X5650Y56950D01*
X5399Y56950D01*
X5350Y56950D01*
X4950Y56950D01*
X4950Y57112D01*
X4950Y57425D01*
X4950Y57575D01*
X4950Y57887D01*
X4887Y57950D01*
X4699Y57950D01*
X4600Y57949D01*
X4508Y57911D01*
X4437Y57841D01*
X4399Y57749D01*
X4400Y57637D01*
X4462Y57575D01*
X4950Y57575D01*
X4950Y57425D01*
X4462Y57425D01*
X4400Y57362D01*
X4399Y57250D01*
X4437Y57158D01*
X4508Y57088D01*
X4600Y57050D01*
X4699Y57049D01*
X4887Y57050D01*
X4950Y57112D01*
X4950Y56950D01*
X4600Y56950D01*
X4600Y56950D01*
X1600Y56950D01*
X1600Y57250D01*
X1600Y57749D01*
X1562Y57841D01*
X1491Y57911D01*
X1399Y57949D01*
X1300Y57950D01*
X1112Y57950D01*
X1050Y57887D01*
X1050Y57575D01*
X1537Y57575D01*
X1600Y57637D01*
X1600Y57749D01*
X1600Y57250D01*
X1600Y57362D01*
X1537Y57425D01*
X1050Y57425D01*
X1050Y57112D01*
X1112Y57050D01*
X1300Y57049D01*
X1399Y57050D01*
X1491Y57088D01*
X1562Y57158D01*
X1600Y57250D01*
X1600Y56950D01*
X1349Y56950D01*
X1300Y56950D01*
X900Y56950D01*
X900Y57112D01*
X900Y57425D01*
X900Y57575D01*
X900Y57887D01*
X837Y57950D01*
X649Y57950D01*
X550Y57949D01*
X458Y57911D01*
X387Y57841D01*
X349Y57749D01*
X350Y57637D01*
X412Y57575D01*
X900Y57575D01*
X900Y57425D01*
X412Y57425D01*
X350Y57362D01*
X349Y57250D01*
X387Y57158D01*
X458Y57088D01*
X550Y57050D01*
X649Y57049D01*
X837Y57050D01*
X900Y57112D01*
X900Y56950D01*
X550Y56950D01*
X550Y56950D01*
X520Y56950D01*
X300Y57170D01*
X300Y58129D01*
X770Y58600D01*
X8229Y58600D01*
X8700Y58129D01*
X8700Y57170D01*
X8700Y57170D01*
G37*
X8700Y57170D02*
X8479Y56950D01*
X7557Y56950D01*
X7557Y57443D01*
X7537Y57661D01*
X7493Y57765D01*
X7401Y57795D01*
X7295Y57689D01*
X7295Y57901D01*
X7265Y57993D01*
X7056Y58057D01*
X6838Y58037D01*
X6734Y57993D01*
X6704Y57901D01*
X7000Y57606D01*
X7295Y57901D01*
X7295Y57689D01*
X7106Y57500D01*
X7401Y57204D01*
X7493Y57234D01*
X7557Y57443D01*
X7557Y56950D01*
X7327Y56950D01*
X7311Y56965D01*
X7240Y56995D01*
X7265Y57006D01*
X7295Y57098D01*
X7000Y57393D01*
X6893Y57287D01*
X6893Y57500D01*
X6598Y57795D01*
X6506Y57765D01*
X6442Y57556D01*
X6462Y57338D01*
X6506Y57234D01*
X6598Y57204D01*
X6893Y57500D01*
X6893Y57287D01*
X6704Y57098D01*
X6734Y57006D01*
X6763Y56997D01*
X6688Y56966D01*
X6672Y56950D01*
X5650Y56950D01*
X5650Y57250D01*
X5650Y57749D01*
X5612Y57841D01*
X5541Y57911D01*
X5449Y57949D01*
X5350Y57950D01*
X5162Y57950D01*
X5100Y57887D01*
X5100Y57575D01*
X5587Y57575D01*
X5650Y57637D01*
X5650Y57749D01*
X5650Y57250D01*
X5650Y57362D01*
X5587Y57425D01*
X5100Y57425D01*
X5100Y57112D01*
X5162Y57050D01*
X5350Y57049D01*
X5449Y57050D01*
X5541Y57088D01*
X5612Y57158D01*
X5650Y57250D01*
X5650Y56950D01*
X5399Y56950D01*
X5350Y56950D01*
X4950Y56950D01*
X4950Y57112D01*
X4950Y57425D01*
X4950Y57575D01*
X4950Y57887D01*
X4887Y57950D01*
X4699Y57950D01*
X4600Y57949D01*
X4508Y57911D01*
X4437Y57841D01*
X4399Y57749D01*
X4400Y57637D01*
X4462Y57575D01*
X4950Y57575D01*
X4950Y57425D01*
X4462Y57425D01*
X4400Y57362D01*
X4399Y57250D01*
X4437Y57158D01*
X4508Y57088D01*
X4600Y57050D01*
X4699Y57049D01*
X4887Y57050D01*
X4950Y57112D01*
X4950Y56950D01*
X4600Y56950D01*
X4600Y56950D01*
X1600Y56950D01*
X1600Y57250D01*
X1600Y57749D01*
X1562Y57841D01*
X1491Y57911D01*
X1399Y57949D01*
X1300Y57950D01*
X1112Y57950D01*
X1050Y57887D01*
X1050Y57575D01*
X1537Y57575D01*
X1600Y57637D01*
X1600Y57749D01*
X1600Y57250D01*
X1600Y57362D01*
X1537Y57425D01*
X1050Y57425D01*
X1050Y57112D01*
X1112Y57050D01*
X1300Y57049D01*
X1399Y57050D01*
X1491Y57088D01*
X1562Y57158D01*
X1600Y57250D01*
X1600Y56950D01*
X1349Y56950D01*
X1300Y56950D01*
X900Y56950D01*
X900Y57112D01*
X900Y57425D01*
X900Y57575D01*
X900Y57887D01*
X837Y57950D01*
X649Y57950D01*
X550Y57949D01*
X458Y57911D01*
X387Y57841D01*
X349Y57749D01*
X350Y57637D01*
X412Y57575D01*
X900Y57575D01*
X900Y57425D01*
X412Y57425D01*
X350Y57362D01*
X349Y57250D01*
X387Y57158D01*
X458Y57088D01*
X550Y57050D01*
X649Y57049D01*
X837Y57050D01*
X900Y57112D01*
X900Y56950D01*
X550Y56950D01*
X550Y56950D01*
X520Y56950D01*
X300Y57170D01*
X300Y58129D01*
X770Y58600D01*
X8229Y58600D01*
X8700Y58129D01*
X8700Y57170D01*
G36*
X23200Y6070D02*
X23129Y6000D01*
X22320Y6000D01*
X22300Y6020D01*
X22300Y6529D01*
X22550Y6779D01*
X22550Y7170D01*
X22320Y7400D01*
X22130Y7400D01*
X22100Y7400D01*
X21785Y7400D01*
X21785Y7400D01*
X21770Y7400D01*
X21750Y7420D01*
X21750Y7579D01*
X21770Y7600D01*
X21814Y7600D01*
X21844Y7599D01*
X22159Y7599D01*
X22159Y7600D01*
X23129Y7600D01*
X23200Y7529D01*
X23200Y7438D01*
X23200Y6950D01*
X23200Y6895D01*
X23200Y6070D01*
X23200Y6070D01*
G37*
X23200Y6070D02*
X23129Y6000D01*
X22320Y6000D01*
X22300Y6020D01*
X22300Y6529D01*
X22550Y6779D01*
X22550Y7170D01*
X22320Y7400D01*
X22130Y7400D01*
X22100Y7400D01*
X21785Y7400D01*
X21785Y7400D01*
X21770Y7400D01*
X21750Y7420D01*
X21750Y7579D01*
X21770Y7600D01*
X21814Y7600D01*
X21844Y7599D01*
X22159Y7599D01*
X22159Y7600D01*
X23129Y7600D01*
X23200Y7529D01*
X23200Y7438D01*
X23200Y6950D01*
X23200Y6895D01*
X23200Y6070D01*
G36*
X21400Y8270D02*
X21250Y8120D01*
X21250Y7820D01*
X21229Y7800D01*
X20920Y7800D01*
X20900Y7820D01*
X20900Y8312D01*
X20900Y8729D01*
X20920Y8750D01*
X21379Y8750D01*
X21400Y8729D01*
X21400Y8270D01*
X21400Y8270D01*
G37*
X21400Y8270D02*
X21250Y8120D01*
X21250Y7820D01*
X21229Y7800D01*
X20920Y7800D01*
X20900Y7820D01*
X20900Y8312D01*
X20900Y8729D01*
X20920Y8750D01*
X21379Y8750D01*
X21400Y8729D01*
X21400Y8270D01*
G36*
X24400Y10120D02*
X24379Y10100D01*
X23605Y10100D01*
X21670Y10100D01*
X21650Y10120D01*
X21650Y10979D01*
X21670Y11000D01*
X24379Y11000D01*
X24400Y10979D01*
X24400Y10120D01*
X24400Y10120D01*
G37*
X24400Y10120D02*
X24379Y10100D01*
X23605Y10100D01*
X21670Y10100D01*
X21650Y10120D01*
X21650Y10979D01*
X21670Y11000D01*
X24379Y11000D01*
X24400Y10979D01*
X24400Y10120D01*
G36*
X24400Y6945D02*
X24386Y6913D01*
X24354Y6900D01*
X23445Y6900D01*
X23408Y6915D01*
X23400Y6934D01*
X23400Y6950D01*
X23400Y7398D01*
X23492Y7621D01*
X23492Y7621D01*
X23600Y7881D01*
X23600Y9854D01*
X23613Y9886D01*
X23645Y9900D01*
X24354Y9900D01*
X24386Y9886D01*
X24400Y9854D01*
X24400Y6945D01*
X24400Y6945D01*
G37*
X24400Y6945D02*
X24386Y6913D01*
X24354Y6900D01*
X23445Y6900D01*
X23408Y6915D01*
X23400Y6934D01*
X23400Y6950D01*
X23400Y7398D01*
X23492Y7621D01*
X23492Y7621D01*
X23600Y7881D01*
X23600Y9854D01*
X23613Y9886D01*
X23645Y9900D01*
X24354Y9900D01*
X24386Y9886D01*
X24400Y9854D01*
X24400Y6945D01*
G36*
X21250Y7420D02*
X21229Y7400D01*
X21185Y7400D01*
X21155Y7400D01*
X20840Y7400D01*
X20840Y7400D01*
X20779Y7400D01*
X20705Y7325D01*
X20394Y7325D01*
X20350Y7370D01*
X20350Y7720D01*
X20220Y7850D01*
X19770Y7850D01*
X19750Y7870D01*
X19750Y8229D01*
X19770Y8250D01*
X20679Y8250D01*
X20700Y8229D01*
X20700Y7679D01*
X20779Y7600D01*
X20869Y7600D01*
X20899Y7599D01*
X21022Y7599D01*
X21027Y7599D01*
X21032Y7599D01*
X21214Y7599D01*
X21214Y7600D01*
X21229Y7600D01*
X21250Y7579D01*
X21250Y7420D01*
X21250Y7420D01*
G37*
X21250Y7420D02*
X21229Y7400D01*
X21185Y7400D01*
X21155Y7400D01*
X20840Y7400D01*
X20840Y7400D01*
X20779Y7400D01*
X20705Y7325D01*
X20394Y7325D01*
X20350Y7370D01*
X20350Y7720D01*
X20220Y7850D01*
X19770Y7850D01*
X19750Y7870D01*
X19750Y8229D01*
X19770Y8250D01*
X20679Y8250D01*
X20700Y8229D01*
X20700Y7679D01*
X20779Y7600D01*
X20869Y7600D01*
X20899Y7599D01*
X21022Y7599D01*
X21027Y7599D01*
X21032Y7599D01*
X21214Y7599D01*
X21214Y7600D01*
X21229Y7600D01*
X21250Y7579D01*
X21250Y7420D01*
G36*
X41730Y269D02*
X40988Y269D01*
X40988Y6146D01*
X40875Y6419D01*
X40666Y6628D01*
X40589Y6661D01*
X40589Y14695D01*
X40589Y44695D01*
X40584Y45326D01*
X40351Y45889D01*
X40169Y46063D01*
X40063Y45957D01*
X40063Y46169D01*
X39889Y46351D01*
X39304Y46589D01*
X38673Y46584D01*
X38110Y46351D01*
X37936Y46169D01*
X39000Y45106D01*
X40063Y46169D01*
X40063Y45957D01*
X39106Y45000D01*
X40169Y43936D01*
X40351Y44110D01*
X40589Y44695D01*
X40589Y14695D01*
X40584Y15326D01*
X40351Y15889D01*
X40169Y16063D01*
X40063Y15957D01*
X40063Y16169D01*
X40063Y43830D01*
X39000Y44893D01*
X38893Y44787D01*
X38893Y45000D01*
X37830Y46063D01*
X37648Y45889D01*
X37410Y45304D01*
X37415Y44673D01*
X37648Y44110D01*
X37830Y43936D01*
X38893Y45000D01*
X38893Y44787D01*
X37936Y43830D01*
X38110Y43648D01*
X38695Y43410D01*
X39326Y43415D01*
X39889Y43648D01*
X40063Y43830D01*
X40063Y16169D01*
X39889Y16351D01*
X39304Y16589D01*
X38673Y16584D01*
X38375Y16461D01*
X38375Y30250D01*
X38375Y30750D01*
X38346Y30893D01*
X38265Y31015D01*
X38265Y31015D01*
X38015Y31265D01*
X37893Y31346D01*
X37750Y31375D01*
X32300Y31375D01*
X32300Y45858D01*
X32300Y45859D01*
X32300Y57499D01*
X32300Y58099D01*
X32262Y58191D01*
X32191Y58261D01*
X32099Y58299D01*
X32000Y58300D01*
X31400Y58300D01*
X31308Y58262D01*
X31238Y58191D01*
X31200Y58099D01*
X31200Y58077D01*
X31061Y58215D01*
X30859Y58299D01*
X30641Y58300D01*
X30438Y58216D01*
X30284Y58061D01*
X30250Y57980D01*
X30216Y58061D01*
X30061Y58215D01*
X29859Y58299D01*
X29641Y58300D01*
X29438Y58216D01*
X29284Y58061D01*
X29250Y57980D01*
X29216Y58061D01*
X29061Y58215D01*
X28859Y58299D01*
X28641Y58300D01*
X28438Y58216D01*
X28284Y58061D01*
X28250Y57980D01*
X28216Y58061D01*
X28061Y58215D01*
X27859Y58299D01*
X27641Y58300D01*
X27438Y58216D01*
X27284Y58061D01*
X27250Y57980D01*
X27216Y58061D01*
X27061Y58215D01*
X26859Y58299D01*
X26641Y58300D01*
X26438Y58216D01*
X26284Y58061D01*
X26250Y57980D01*
X26216Y58061D01*
X26061Y58215D01*
X25859Y58299D01*
X25641Y58300D01*
X25438Y58216D01*
X25284Y58061D01*
X25250Y57980D01*
X25216Y58061D01*
X25061Y58215D01*
X24859Y58299D01*
X24641Y58300D01*
X24438Y58216D01*
X24284Y58061D01*
X24200Y57859D01*
X24200Y57777D01*
X24185Y57894D01*
X24160Y57955D01*
X24096Y57990D01*
X23990Y57884D01*
X23990Y58096D01*
X23955Y58160D01*
X23782Y58207D01*
X23605Y58185D01*
X23544Y58160D01*
X23509Y58096D01*
X23750Y57856D01*
X23990Y58096D01*
X23990Y57884D01*
X23856Y57750D01*
X24096Y57509D01*
X24160Y57544D01*
X24199Y57689D01*
X24199Y57641D01*
X24283Y57438D01*
X24375Y57347D01*
X24375Y55053D01*
X24338Y55016D01*
X24300Y54924D01*
X24299Y54825D01*
X24299Y54075D01*
X24337Y53983D01*
X24388Y53933D01*
X24403Y53856D01*
X24484Y53734D01*
X24606Y53653D01*
X24750Y53625D01*
X24893Y53653D01*
X25015Y53734D01*
X25096Y53856D01*
X25111Y53933D01*
X25161Y53983D01*
X25199Y54075D01*
X25200Y54174D01*
X25200Y54924D01*
X25162Y55016D01*
X25125Y55053D01*
X25125Y57347D01*
X25215Y57438D01*
X25249Y57519D01*
X25283Y57438D01*
X25375Y57347D01*
X25375Y56553D01*
X25338Y56516D01*
X25300Y56424D01*
X25299Y56325D01*
X25299Y55575D01*
X25337Y55483D01*
X25388Y55433D01*
X25403Y55356D01*
X25484Y55234D01*
X25606Y55153D01*
X25750Y55125D01*
X25893Y55153D01*
X26015Y55234D01*
X26096Y55356D01*
X26111Y55433D01*
X26161Y55483D01*
X26199Y55575D01*
X26200Y55674D01*
X26200Y56424D01*
X26162Y56516D01*
X26125Y56553D01*
X26125Y57347D01*
X26215Y57438D01*
X26249Y57519D01*
X26283Y57438D01*
X26375Y57347D01*
X26375Y55053D01*
X26338Y55016D01*
X26300Y54924D01*
X26299Y54825D01*
X26299Y54075D01*
X26337Y53983D01*
X26388Y53933D01*
X26403Y53856D01*
X26484Y53734D01*
X26606Y53653D01*
X26750Y53625D01*
X26893Y53653D01*
X27015Y53734D01*
X27096Y53856D01*
X27111Y53933D01*
X27161Y53983D01*
X27199Y54075D01*
X27200Y54174D01*
X27200Y54924D01*
X27162Y55016D01*
X27125Y55053D01*
X27125Y57347D01*
X27215Y57438D01*
X27249Y57519D01*
X27283Y57438D01*
X27375Y57347D01*
X27375Y56553D01*
X27338Y56516D01*
X27300Y56424D01*
X27299Y56325D01*
X27299Y55575D01*
X27337Y55483D01*
X27388Y55433D01*
X27403Y55356D01*
X27484Y55234D01*
X27606Y55153D01*
X27750Y55125D01*
X27893Y55153D01*
X28015Y55234D01*
X28096Y55356D01*
X28111Y55433D01*
X28161Y55483D01*
X28199Y55575D01*
X28200Y55674D01*
X28200Y56424D01*
X28162Y56516D01*
X28125Y56553D01*
X28125Y57347D01*
X28215Y57438D01*
X28249Y57519D01*
X28283Y57438D01*
X28375Y57347D01*
X28375Y55053D01*
X28338Y55016D01*
X28300Y54924D01*
X28299Y54825D01*
X28299Y54075D01*
X28337Y53983D01*
X28388Y53933D01*
X28403Y53856D01*
X28484Y53734D01*
X28606Y53653D01*
X28750Y53625D01*
X28893Y53653D01*
X29015Y53734D01*
X29096Y53856D01*
X29111Y53933D01*
X29161Y53983D01*
X29199Y54075D01*
X29200Y54174D01*
X29200Y54924D01*
X29162Y55016D01*
X29125Y55053D01*
X29125Y57347D01*
X29215Y57438D01*
X29249Y57519D01*
X29283Y57438D01*
X29375Y57347D01*
X29375Y56553D01*
X29338Y56516D01*
X29300Y56424D01*
X29299Y56325D01*
X29299Y55575D01*
X29337Y55483D01*
X29388Y55433D01*
X29403Y55356D01*
X29484Y55234D01*
X29606Y55153D01*
X29750Y55125D01*
X29893Y55153D01*
X30015Y55234D01*
X30096Y55356D01*
X30111Y55433D01*
X30161Y55483D01*
X30199Y55575D01*
X30200Y55674D01*
X30200Y56424D01*
X30162Y56516D01*
X30125Y56553D01*
X30125Y57347D01*
X30215Y57438D01*
X30249Y57519D01*
X30283Y57438D01*
X30375Y57347D01*
X30375Y55053D01*
X30338Y55016D01*
X30300Y54924D01*
X30299Y54825D01*
X30299Y54075D01*
X30337Y53983D01*
X30388Y53933D01*
X30403Y53856D01*
X30484Y53734D01*
X30606Y53653D01*
X30750Y53625D01*
X30893Y53653D01*
X31015Y53734D01*
X31096Y53856D01*
X31111Y53933D01*
X31161Y53983D01*
X31199Y54075D01*
X31200Y54174D01*
X31200Y54924D01*
X31162Y55016D01*
X31125Y55053D01*
X31125Y57347D01*
X31199Y57422D01*
X31199Y57400D01*
X31237Y57308D01*
X31308Y57238D01*
X31375Y57210D01*
X31375Y56553D01*
X31338Y56516D01*
X31300Y56424D01*
X31299Y56325D01*
X31299Y55575D01*
X31337Y55483D01*
X31388Y55433D01*
X31403Y55356D01*
X31484Y55234D01*
X31606Y55153D01*
X31750Y55125D01*
X31893Y55153D01*
X32015Y55234D01*
X32096Y55356D01*
X32111Y55433D01*
X32161Y55483D01*
X32199Y55575D01*
X32200Y55674D01*
X32200Y56424D01*
X32162Y56516D01*
X32125Y56553D01*
X32125Y57210D01*
X32191Y57237D01*
X32261Y57308D01*
X32299Y57400D01*
X32300Y57499D01*
X32300Y45859D01*
X32216Y46061D01*
X32125Y46152D01*
X32125Y48446D01*
X32161Y48483D01*
X32199Y48575D01*
X32200Y48674D01*
X32200Y49424D01*
X32162Y49516D01*
X32111Y49566D01*
X32096Y49643D01*
X32015Y49765D01*
X31893Y49846D01*
X31750Y49875D01*
X31606Y49846D01*
X31484Y49765D01*
X31403Y49643D01*
X31388Y49566D01*
X31338Y49516D01*
X31300Y49424D01*
X31299Y49325D01*
X31299Y48575D01*
X31337Y48483D01*
X31375Y48446D01*
X31375Y46152D01*
X31284Y46061D01*
X31250Y45980D01*
X31216Y46061D01*
X31125Y46152D01*
X31125Y46946D01*
X31161Y46983D01*
X31199Y47075D01*
X31200Y47174D01*
X31200Y47924D01*
X31162Y48016D01*
X31111Y48066D01*
X31096Y48143D01*
X31015Y48265D01*
X30893Y48346D01*
X30750Y48375D01*
X30606Y48346D01*
X30484Y48265D01*
X30403Y48143D01*
X30388Y48066D01*
X30338Y48016D01*
X30300Y47924D01*
X30299Y47825D01*
X30299Y47075D01*
X30337Y46983D01*
X30375Y46946D01*
X30375Y46152D01*
X30284Y46061D01*
X30250Y45980D01*
X30216Y46061D01*
X30125Y46152D01*
X30125Y48446D01*
X30161Y48483D01*
X30199Y48575D01*
X30200Y48674D01*
X30200Y49424D01*
X30162Y49516D01*
X30111Y49566D01*
X30096Y49643D01*
X30015Y49765D01*
X29893Y49846D01*
X29750Y49875D01*
X29606Y49846D01*
X29484Y49765D01*
X29403Y49643D01*
X29388Y49566D01*
X29338Y49516D01*
X29300Y49424D01*
X29299Y49325D01*
X29299Y48575D01*
X29337Y48483D01*
X29375Y48446D01*
X29375Y46152D01*
X29284Y46061D01*
X29250Y45980D01*
X29216Y46061D01*
X29125Y46152D01*
X29125Y46946D01*
X29161Y46983D01*
X29199Y47075D01*
X29200Y47174D01*
X29200Y47924D01*
X29162Y48016D01*
X29111Y48066D01*
X29096Y48143D01*
X29015Y48265D01*
X28893Y48346D01*
X28750Y48375D01*
X28606Y48346D01*
X28484Y48265D01*
X28403Y48143D01*
X28388Y48066D01*
X28338Y48016D01*
X28300Y47924D01*
X28299Y47825D01*
X28299Y47075D01*
X28337Y46983D01*
X28375Y46946D01*
X28375Y46152D01*
X28284Y46061D01*
X28250Y45980D01*
X28216Y46061D01*
X28125Y46152D01*
X28125Y48446D01*
X28161Y48483D01*
X28199Y48575D01*
X28200Y48674D01*
X28200Y49424D01*
X28162Y49516D01*
X28111Y49566D01*
X28096Y49643D01*
X28015Y49765D01*
X27893Y49846D01*
X27750Y49875D01*
X27606Y49846D01*
X27484Y49765D01*
X27403Y49643D01*
X27388Y49566D01*
X27338Y49516D01*
X27300Y49424D01*
X27299Y49325D01*
X27299Y48575D01*
X27337Y48483D01*
X27375Y48446D01*
X27375Y46152D01*
X27284Y46061D01*
X27250Y45980D01*
X27216Y46061D01*
X27125Y46152D01*
X27125Y46946D01*
X27161Y46983D01*
X27199Y47075D01*
X27200Y47174D01*
X27200Y47924D01*
X27162Y48016D01*
X27111Y48066D01*
X27096Y48143D01*
X27015Y48265D01*
X26893Y48346D01*
X26750Y48375D01*
X26606Y48346D01*
X26484Y48265D01*
X26403Y48143D01*
X26388Y48066D01*
X26338Y48016D01*
X26300Y47924D01*
X26299Y47825D01*
X26299Y47075D01*
X26337Y46983D01*
X26375Y46946D01*
X26375Y46152D01*
X26284Y46061D01*
X26250Y45980D01*
X26216Y46061D01*
X26125Y46152D01*
X26125Y48446D01*
X26161Y48483D01*
X26199Y48575D01*
X26200Y48674D01*
X26200Y49424D01*
X26162Y49516D01*
X26111Y49566D01*
X26096Y49643D01*
X26015Y49765D01*
X25893Y49846D01*
X25750Y49875D01*
X25606Y49846D01*
X25484Y49765D01*
X25403Y49643D01*
X25388Y49566D01*
X25338Y49516D01*
X25300Y49424D01*
X25299Y49325D01*
X25299Y48575D01*
X25337Y48483D01*
X25375Y48446D01*
X25375Y46152D01*
X25284Y46061D01*
X25250Y45980D01*
X25216Y46061D01*
X25125Y46152D01*
X25125Y46946D01*
X25161Y46983D01*
X25199Y47075D01*
X25200Y47174D01*
X25200Y47924D01*
X25162Y48016D01*
X25111Y48066D01*
X25096Y48143D01*
X25015Y48265D01*
X24893Y48346D01*
X24750Y48375D01*
X24606Y48346D01*
X24484Y48265D01*
X24403Y48143D01*
X24388Y48066D01*
X24338Y48016D01*
X24300Y47924D01*
X24299Y47825D01*
X24299Y47075D01*
X24337Y46983D01*
X24375Y46946D01*
X24375Y46152D01*
X24284Y46061D01*
X24250Y45980D01*
X24216Y46061D01*
X24125Y46152D01*
X24125Y48446D01*
X24161Y48483D01*
X24199Y48575D01*
X24200Y48674D01*
X24200Y49424D01*
X24162Y49516D01*
X24111Y49566D01*
X24100Y49625D01*
X24100Y55654D01*
X24100Y56345D01*
X24099Y56404D01*
X24077Y56460D01*
X24034Y56502D01*
X23990Y56520D01*
X23990Y57403D01*
X23750Y57643D01*
X23509Y57403D01*
X23544Y57339D01*
X23717Y57292D01*
X23894Y57314D01*
X23955Y57339D01*
X23990Y57403D01*
X23990Y56520D01*
X23979Y56525D01*
X23862Y56525D01*
X23825Y56487D01*
X23825Y56075D01*
X24062Y56075D01*
X24100Y56112D01*
X24100Y56345D01*
X24100Y55654D01*
X24100Y55887D01*
X24062Y55925D01*
X23825Y55925D01*
X23825Y55512D01*
X23862Y55475D01*
X23979Y55474D01*
X24034Y55497D01*
X24077Y55539D01*
X24099Y55595D01*
X24100Y55654D01*
X24100Y49625D01*
X24096Y49643D01*
X24015Y49765D01*
X23893Y49846D01*
X23750Y49875D01*
X23675Y49860D01*
X23675Y55512D01*
X23675Y55925D01*
X23675Y56075D01*
X23675Y56487D01*
X23637Y56525D01*
X23520Y56525D01*
X23465Y56502D01*
X23422Y56460D01*
X23400Y56404D01*
X23399Y56345D01*
X23400Y56112D01*
X23437Y56075D01*
X23675Y56075D01*
X23675Y55925D01*
X23437Y55925D01*
X23400Y55887D01*
X23399Y55654D01*
X23400Y55595D01*
X23422Y55539D01*
X23465Y55497D01*
X23520Y55474D01*
X23637Y55475D01*
X23675Y55512D01*
X23675Y49860D01*
X23606Y49846D01*
X23484Y49765D01*
X23403Y49643D01*
X23388Y49566D01*
X23338Y49516D01*
X23300Y49424D01*
X23299Y49325D01*
X23299Y48575D01*
X23337Y48483D01*
X23375Y48446D01*
X23375Y46152D01*
X23284Y46061D01*
X23250Y45980D01*
X23216Y46061D01*
X23125Y46152D01*
X23125Y46946D01*
X23161Y46983D01*
X23199Y47075D01*
X23200Y47174D01*
X23200Y47924D01*
X23162Y48016D01*
X23111Y48066D01*
X23096Y48143D01*
X23015Y48265D01*
X22893Y48346D01*
X22750Y48375D01*
X22606Y48346D01*
X22484Y48265D01*
X22403Y48143D01*
X22388Y48066D01*
X22338Y48016D01*
X22300Y47924D01*
X22299Y47825D01*
X22299Y47075D01*
X22337Y46983D01*
X22375Y46946D01*
X22375Y46152D01*
X22284Y46061D01*
X22200Y45859D01*
X22200Y45777D01*
X22185Y45894D01*
X22160Y45955D01*
X22100Y45988D01*
X22100Y48654D01*
X22100Y49345D01*
X22099Y49404D01*
X22077Y49460D01*
X22034Y49502D01*
X21979Y49525D01*
X21862Y49525D01*
X21825Y49487D01*
X21825Y49075D01*
X22062Y49075D01*
X22100Y49112D01*
X22100Y49345D01*
X22100Y48654D01*
X22100Y48887D01*
X22062Y48925D01*
X21825Y48925D01*
X21825Y48512D01*
X21862Y48475D01*
X21979Y48474D01*
X22034Y48497D01*
X22077Y48539D01*
X22099Y48595D01*
X22100Y48654D01*
X22100Y45988D01*
X22096Y45990D01*
X21990Y45884D01*
X21990Y46096D01*
X21955Y46160D01*
X21782Y46207D01*
X21675Y46194D01*
X21675Y48512D01*
X21675Y48925D01*
X21675Y49075D01*
X21675Y49487D01*
X21637Y49525D01*
X21520Y49525D01*
X21465Y49502D01*
X21422Y49460D01*
X21400Y49404D01*
X21399Y49345D01*
X21400Y49112D01*
X21437Y49075D01*
X21675Y49075D01*
X21675Y48925D01*
X21437Y48925D01*
X21400Y48887D01*
X21399Y48654D01*
X21400Y48595D01*
X21422Y48539D01*
X21465Y48497D01*
X21520Y48474D01*
X21637Y48475D01*
X21675Y48512D01*
X21675Y46194D01*
X21605Y46185D01*
X21544Y46160D01*
X21509Y46096D01*
X21750Y45856D01*
X21990Y46096D01*
X21990Y45884D01*
X21856Y45750D01*
X22096Y45509D01*
X22160Y45544D01*
X22199Y45689D01*
X22199Y45641D01*
X22283Y45438D01*
X22347Y45375D01*
X21974Y45375D01*
X21990Y45403D01*
X21750Y45643D01*
X21509Y45403D01*
X21525Y45375D01*
X21289Y45375D01*
X21299Y45400D01*
X21300Y45499D01*
X21300Y45721D01*
X21314Y45605D01*
X21339Y45544D01*
X21403Y45509D01*
X21643Y45750D01*
X21403Y45990D01*
X21339Y45955D01*
X21300Y45810D01*
X21300Y46099D01*
X21262Y46191D01*
X21191Y46261D01*
X21125Y46289D01*
X21125Y46946D01*
X21161Y46983D01*
X21199Y47075D01*
X21200Y47174D01*
X21200Y47924D01*
X21162Y48016D01*
X21111Y48066D01*
X21096Y48143D01*
X21015Y48265D01*
X20893Y48346D01*
X20750Y48375D01*
X20606Y48346D01*
X20484Y48265D01*
X20403Y48143D01*
X20388Y48066D01*
X20338Y48016D01*
X20300Y47924D01*
X20299Y47825D01*
X20299Y47075D01*
X20337Y46983D01*
X20375Y46946D01*
X20375Y46289D01*
X20308Y46262D01*
X20238Y46191D01*
X20200Y46099D01*
X20199Y46000D01*
X20199Y45400D01*
X20210Y45375D01*
X9455Y45375D01*
X9334Y45424D01*
X9165Y45425D01*
X9009Y45360D01*
X8889Y45241D01*
X8875Y45205D01*
X8875Y47250D01*
X8874Y47250D01*
X8846Y47393D01*
X8797Y47466D01*
X8765Y47515D01*
X8765Y47515D01*
X8057Y48222D01*
X7936Y48303D01*
X7792Y48332D01*
X6758Y48332D01*
X6724Y48413D01*
X6654Y48484D01*
X6562Y48522D01*
X6462Y48522D01*
X6068Y48522D01*
X6000Y48625D01*
X16044Y48625D01*
X16165Y48575D01*
X16334Y48574D01*
X16490Y48639D01*
X16610Y48758D01*
X16674Y48915D01*
X16675Y49084D01*
X16610Y49240D01*
X16491Y49360D01*
X16334Y49424D01*
X16165Y49425D01*
X16044Y49375D01*
X7450Y49375D01*
X7450Y50170D01*
X7450Y50829D01*
X7427Y50884D01*
X7385Y50927D01*
X7329Y50949D01*
X7270Y50950D01*
X7112Y50950D01*
X7075Y50912D01*
X7075Y50575D01*
X7412Y50575D01*
X7450Y50612D01*
X7450Y50829D01*
X7450Y50170D01*
X7450Y50387D01*
X7412Y50425D01*
X7075Y50425D01*
X7075Y50087D01*
X7112Y50050D01*
X7270Y50049D01*
X7329Y50050D01*
X7385Y50072D01*
X7427Y50115D01*
X7450Y50170D01*
X7450Y49375D01*
X6925Y49375D01*
X6925Y50087D01*
X6925Y50425D01*
X6925Y50575D01*
X6925Y50912D01*
X6887Y50950D01*
X6729Y50950D01*
X6670Y50949D01*
X6614Y50927D01*
X6572Y50884D01*
X6549Y50829D01*
X6550Y50612D01*
X6587Y50575D01*
X6925Y50575D01*
X6925Y50425D01*
X6587Y50425D01*
X6550Y50387D01*
X6549Y50170D01*
X6572Y50115D01*
X6614Y50072D01*
X6670Y50050D01*
X6729Y50049D01*
X6887Y50050D01*
X6925Y50087D01*
X6925Y49375D01*
X5550Y49375D01*
X5550Y50270D01*
X5550Y50729D01*
X5527Y50784D01*
X5485Y50827D01*
X5429Y50849D01*
X5370Y50850D01*
X5137Y50850D01*
X5100Y50812D01*
X5100Y50575D01*
X5512Y50575D01*
X5550Y50612D01*
X5550Y50729D01*
X5550Y50270D01*
X5550Y50387D01*
X5512Y50425D01*
X5100Y50425D01*
X5100Y50187D01*
X5137Y50150D01*
X5370Y50149D01*
X5429Y50150D01*
X5485Y50172D01*
X5527Y50215D01*
X5550Y50270D01*
X5550Y49375D01*
X4950Y49375D01*
X4950Y50187D01*
X4950Y50425D01*
X4950Y50575D01*
X4950Y50812D01*
X4912Y50850D01*
X4679Y50850D01*
X4620Y50849D01*
X4564Y50827D01*
X4522Y50784D01*
X4499Y50729D01*
X4500Y50612D01*
X4537Y50575D01*
X4950Y50575D01*
X4950Y50425D01*
X4537Y50425D01*
X4500Y50387D01*
X4499Y50270D01*
X4522Y50215D01*
X4564Y50172D01*
X4620Y50150D01*
X4679Y50149D01*
X4912Y50150D01*
X4950Y50187D01*
X4950Y49375D01*
X4000Y49375D01*
X3856Y49346D01*
X3734Y49265D01*
X3484Y49015D01*
X3403Y48893D01*
X3375Y48750D01*
X3375Y48250D01*
X3403Y48106D01*
X3484Y47984D01*
X3777Y47692D01*
X3777Y47692D01*
X3899Y47610D01*
X4042Y47582D01*
X4258Y47582D01*
X4292Y47500D01*
X4362Y47430D01*
X4454Y47392D01*
X4554Y47392D01*
X4948Y47392D01*
X5032Y47266D01*
X5250Y47120D01*
X5508Y47069D01*
X5766Y47120D01*
X5984Y47266D01*
X6068Y47392D01*
X6562Y47392D01*
X6653Y47430D01*
X6724Y47500D01*
X6758Y47582D01*
X7637Y47582D01*
X8125Y47094D01*
X8125Y42655D01*
X7986Y42516D01*
X7783Y42516D01*
X7750Y42598D01*
X7679Y42668D01*
X7587Y42706D01*
X7488Y42706D01*
X7094Y42706D01*
X7010Y42831D01*
X6791Y42978D01*
X6534Y43029D01*
X6276Y42978D01*
X6057Y42831D01*
X5973Y42706D01*
X5480Y42706D01*
X5388Y42668D01*
X5318Y42598D01*
X5284Y42516D01*
X5141Y42516D01*
X4998Y42488D01*
X4876Y42406D01*
X4589Y42119D01*
X4589Y44695D01*
X4584Y45326D01*
X4351Y45889D01*
X4169Y46063D01*
X4063Y45957D01*
X4063Y46169D01*
X3889Y46351D01*
X3304Y46589D01*
X2673Y46584D01*
X2110Y46351D01*
X1936Y46169D01*
X3000Y45106D01*
X4063Y46169D01*
X4063Y45957D01*
X3106Y45000D01*
X4169Y43936D01*
X4351Y44110D01*
X4589Y44695D01*
X4589Y42119D01*
X4484Y42015D01*
X4403Y41893D01*
X4375Y41750D01*
X4375Y36750D01*
X4403Y36606D01*
X4484Y36484D01*
X4908Y36060D01*
X5030Y35979D01*
X5173Y35951D01*
X6309Y35951D01*
X6343Y35869D01*
X6413Y35799D01*
X6505Y35761D01*
X6605Y35761D01*
X6999Y35761D01*
X7083Y35635D01*
X7301Y35489D01*
X7559Y35438D01*
X7817Y35489D01*
X8035Y35635D01*
X8119Y35761D01*
X8612Y35761D01*
X8704Y35799D01*
X8775Y35869D01*
X8809Y35951D01*
X10447Y35951D01*
X10508Y35889D01*
X10665Y35825D01*
X10834Y35824D01*
X10990Y35889D01*
X11110Y36008D01*
X11174Y36165D01*
X11175Y36334D01*
X11110Y36490D01*
X10991Y36610D01*
X10834Y36674D01*
X10805Y36674D01*
X10673Y36701D01*
X8809Y36701D01*
X8775Y36782D01*
X8705Y36852D01*
X8613Y36891D01*
X8513Y36891D01*
X8119Y36891D01*
X8035Y37016D01*
X7817Y37162D01*
X7559Y37213D01*
X7301Y37162D01*
X7083Y37016D01*
X6999Y36891D01*
X6506Y36891D01*
X6414Y36853D01*
X6343Y36782D01*
X6309Y36701D01*
X5329Y36701D01*
X5125Y36905D01*
X5125Y41594D01*
X5288Y41757D01*
X5318Y41685D01*
X5388Y41614D01*
X5480Y41576D01*
X5579Y41576D01*
X5973Y41576D01*
X6057Y41451D01*
X6276Y41305D01*
X6534Y41254D01*
X6791Y41305D01*
X7010Y41451D01*
X7094Y41576D01*
X7587Y41576D01*
X7679Y41614D01*
X7749Y41684D01*
X7783Y41766D01*
X8141Y41766D01*
X8285Y41795D01*
X8406Y41876D01*
X8765Y42234D01*
X8765Y42234D01*
X8846Y42356D01*
X8874Y42499D01*
X8875Y42500D01*
X8875Y44794D01*
X8889Y44759D01*
X9008Y44639D01*
X9165Y44575D01*
X9334Y44574D01*
X9455Y44625D01*
X17841Y44625D01*
X17825Y44584D01*
X17824Y44424D01*
X17665Y44425D01*
X17509Y44360D01*
X17389Y44241D01*
X17325Y44084D01*
X17324Y43924D01*
X17165Y43925D01*
X17009Y43860D01*
X16889Y43741D01*
X16825Y43584D01*
X16824Y43424D01*
X16665Y43425D01*
X16509Y43360D01*
X16389Y43241D01*
X16325Y43084D01*
X16324Y42915D01*
X16389Y42759D01*
X16508Y42639D01*
X16665Y42575D01*
X16834Y42574D01*
X16955Y42625D01*
X28000Y42625D01*
X28143Y42653D01*
X28265Y42734D01*
X30730Y45200D01*
X30858Y45199D01*
X31061Y45283D01*
X31215Y45438D01*
X31249Y45519D01*
X31283Y45438D01*
X31438Y45284D01*
X31640Y45200D01*
X31858Y45199D01*
X32061Y45283D01*
X32215Y45438D01*
X32299Y45640D01*
X32300Y45858D01*
X32300Y31375D01*
X29425Y31375D01*
X29425Y34584D01*
X29360Y34740D01*
X29241Y34860D01*
X29084Y34924D01*
X28915Y34925D01*
X28759Y34860D01*
X28758Y34859D01*
X28301Y34859D01*
X28267Y34941D01*
X28197Y35011D01*
X28105Y35049D01*
X28005Y35049D01*
X27611Y35049D01*
X27527Y35175D01*
X27309Y35321D01*
X27051Y35372D01*
X26793Y35321D01*
X26575Y35175D01*
X26491Y35049D01*
X25998Y35049D01*
X25906Y35011D01*
X25835Y34941D01*
X25801Y34859D01*
X25670Y34859D01*
X25265Y35265D01*
X25265Y35265D01*
X25265Y35265D01*
X25125Y35405D01*
X25125Y37970D01*
X25151Y37905D01*
X25222Y37835D01*
X25313Y37797D01*
X25413Y37797D01*
X25807Y37797D01*
X25891Y37671D01*
X26110Y37525D01*
X26367Y37474D01*
X26625Y37525D01*
X26844Y37671D01*
X26927Y37797D01*
X27421Y37797D01*
X27513Y37835D01*
X27583Y37905D01*
X27618Y37988D01*
X27755Y38015D01*
X27877Y38096D01*
X28265Y38484D01*
X28265Y38484D01*
X28346Y38606D01*
X28374Y38750D01*
X28375Y38750D01*
X28375Y41000D01*
X28346Y41143D01*
X28265Y41265D01*
X28265Y41265D01*
X27265Y42265D01*
X27143Y42346D01*
X27000Y42375D01*
X15500Y42375D01*
X15356Y42346D01*
X15234Y42265D01*
X14984Y42015D01*
X14903Y41893D01*
X14875Y41750D01*
X14875Y39415D01*
X14899Y39289D01*
X14899Y38895D01*
X14937Y38803D01*
X15008Y38733D01*
X15100Y38695D01*
X15199Y38694D01*
X15399Y38694D01*
X15491Y38732D01*
X15499Y38741D01*
X15508Y38733D01*
X15600Y38695D01*
X15699Y38694D01*
X15899Y38694D01*
X15991Y38732D01*
X15999Y38741D01*
X16008Y38733D01*
X16100Y38695D01*
X16199Y38694D01*
X16399Y38694D01*
X16491Y38732D01*
X16499Y38741D01*
X16508Y38733D01*
X16600Y38695D01*
X16699Y38694D01*
X16899Y38694D01*
X16991Y38732D01*
X16999Y38741D01*
X17008Y38733D01*
X17100Y38695D01*
X17199Y38694D01*
X17399Y38694D01*
X17491Y38732D01*
X17499Y38741D01*
X17508Y38733D01*
X17600Y38695D01*
X17699Y38694D01*
X17899Y38694D01*
X17991Y38732D01*
X17999Y38741D01*
X18008Y38733D01*
X18100Y38695D01*
X18199Y38694D01*
X18399Y38694D01*
X18491Y38732D01*
X18561Y38803D01*
X18567Y38816D01*
X18620Y38795D01*
X18679Y38794D01*
X18662Y38795D01*
X18700Y38832D01*
X18700Y39340D01*
X18667Y39340D01*
X18667Y39490D01*
X18700Y39490D01*
X18700Y39997D01*
X18662Y40035D01*
X18679Y40035D01*
X18625Y40034D01*
X18625Y40794D01*
X18674Y40915D01*
X18675Y41084D01*
X18610Y41240D01*
X18491Y41360D01*
X18334Y41424D01*
X18174Y41425D01*
X18175Y41584D01*
X18158Y41625D01*
X26844Y41625D01*
X27625Y40844D01*
X27625Y38905D01*
X27561Y38841D01*
X27513Y38888D01*
X27421Y38927D01*
X27322Y38927D01*
X26927Y38927D01*
X26844Y39052D01*
X26625Y39198D01*
X26367Y39249D01*
X26110Y39198D01*
X25891Y39052D01*
X25807Y38927D01*
X25314Y38927D01*
X25222Y38889D01*
X25152Y38818D01*
X25118Y38737D01*
X24862Y38737D01*
X24718Y38708D01*
X24596Y38627D01*
X24484Y38515D01*
X24403Y38393D01*
X24375Y38250D01*
X24375Y35250D01*
X24403Y35106D01*
X24484Y34984D01*
X24734Y34734D01*
X24734Y34734D01*
X24734Y34734D01*
X25249Y34219D01*
X25371Y34138D01*
X25515Y34109D01*
X25801Y34109D01*
X25835Y34028D01*
X25905Y33958D01*
X25997Y33919D01*
X26097Y33919D01*
X26491Y33919D01*
X26575Y33794D01*
X26793Y33648D01*
X27051Y33597D01*
X27309Y33648D01*
X27527Y33794D01*
X27611Y33919D01*
X28104Y33919D01*
X28196Y33957D01*
X28267Y34028D01*
X28301Y34109D01*
X28831Y34109D01*
X28915Y34075D01*
X29084Y34074D01*
X29240Y34139D01*
X29360Y34258D01*
X29424Y34415D01*
X29425Y34584D01*
X29425Y31375D01*
X20447Y31375D01*
X20447Y38076D01*
X20447Y38430D01*
X20409Y38522D01*
X20345Y38585D01*
X20347Y38589D01*
X20347Y39002D01*
X20324Y39057D01*
X20282Y39100D01*
X20226Y39122D01*
X20167Y39123D01*
X20112Y39123D01*
X20075Y39085D01*
X20075Y38871D01*
X20309Y38871D01*
X20347Y38908D01*
X20347Y39002D01*
X20347Y38589D01*
X20347Y38683D01*
X20309Y38721D01*
X20075Y38721D01*
X20075Y38713D01*
X19925Y38713D01*
X19925Y38721D01*
X19925Y38871D01*
X19925Y39085D01*
X19887Y39123D01*
X19832Y39123D01*
X19773Y39122D01*
X19717Y39100D01*
X19675Y39057D01*
X19652Y39002D01*
X19653Y38908D01*
X19690Y38871D01*
X19925Y38871D01*
X19925Y38721D01*
X19690Y38721D01*
X19653Y38683D01*
X19652Y38589D01*
X19654Y38585D01*
X19591Y38522D01*
X19553Y38430D01*
X19552Y38331D01*
X19552Y37977D01*
X19590Y37885D01*
X19625Y37851D01*
X19625Y37205D01*
X19591Y37125D01*
X19155Y37125D01*
X19125Y37155D01*
X19125Y37585D01*
X19100Y37710D01*
X19100Y38104D01*
X19062Y38196D01*
X19000Y38258D01*
X19000Y38915D01*
X19000Y39914D01*
X18977Y39969D01*
X18935Y40012D01*
X18879Y40034D01*
X18820Y40035D01*
X18837Y40035D01*
X18800Y39997D01*
X18800Y39490D01*
X18962Y39490D01*
X19000Y39527D01*
X19000Y39914D01*
X19000Y38915D01*
X19000Y39302D01*
X18962Y39340D01*
X18800Y39340D01*
X18800Y38832D01*
X18837Y38795D01*
X18820Y38794D01*
X18879Y38795D01*
X18935Y38817D01*
X18977Y38860D01*
X19000Y38915D01*
X19000Y38258D01*
X18991Y38266D01*
X18899Y38304D01*
X18800Y38305D01*
X18600Y38305D01*
X18508Y38267D01*
X18500Y38258D01*
X18491Y38266D01*
X18399Y38304D01*
X18300Y38305D01*
X18100Y38305D01*
X18008Y38267D01*
X18000Y38258D01*
X17991Y38266D01*
X17899Y38304D01*
X17800Y38305D01*
X17600Y38305D01*
X17508Y38267D01*
X17500Y38258D01*
X17491Y38266D01*
X17399Y38304D01*
X17300Y38305D01*
X17100Y38305D01*
X17008Y38267D01*
X17000Y38258D01*
X16991Y38266D01*
X16899Y38304D01*
X16800Y38305D01*
X16600Y38305D01*
X16508Y38267D01*
X16500Y38258D01*
X16491Y38266D01*
X16399Y38304D01*
X16300Y38305D01*
X16100Y38305D01*
X16008Y38267D01*
X16000Y38258D01*
X15991Y38266D01*
X15899Y38304D01*
X15800Y38305D01*
X15600Y38305D01*
X15508Y38267D01*
X15500Y38258D01*
X15491Y38266D01*
X15399Y38304D01*
X15300Y38305D01*
X15100Y38305D01*
X15008Y38267D01*
X14938Y38196D01*
X14900Y38104D01*
X14899Y38005D01*
X14899Y37710D01*
X14875Y37585D01*
X14875Y36705D01*
X14825Y36584D01*
X14824Y36415D01*
X14889Y36259D01*
X15008Y36139D01*
X15165Y36075D01*
X15334Y36074D01*
X15375Y36091D01*
X15375Y35455D01*
X15325Y35334D01*
X15324Y35165D01*
X15389Y35009D01*
X15508Y34889D01*
X15665Y34825D01*
X15794Y34824D01*
X15094Y34125D01*
X5705Y34125D01*
X5584Y34174D01*
X5415Y34175D01*
X5259Y34110D01*
X5139Y33991D01*
X5075Y33834D01*
X5074Y33665D01*
X5139Y33509D01*
X5258Y33389D01*
X5415Y33325D01*
X5584Y33324D01*
X5705Y33375D01*
X6591Y33375D01*
X6575Y33334D01*
X6574Y33165D01*
X6591Y33125D01*
X6205Y33125D01*
X6084Y33174D01*
X5915Y33175D01*
X5759Y33110D01*
X5639Y32991D01*
X5575Y32834D01*
X5574Y32665D01*
X5639Y32509D01*
X5758Y32389D01*
X5915Y32325D01*
X6084Y32324D01*
X6205Y32375D01*
X16250Y32375D01*
X16393Y32403D01*
X16515Y32484D01*
X18015Y33984D01*
X18015Y33984D01*
X18096Y34106D01*
X18124Y34250D01*
X18125Y34250D01*
X18125Y35126D01*
X18137Y35127D01*
X18175Y35164D01*
X18175Y35379D01*
X18167Y35379D01*
X18167Y35529D01*
X18175Y35529D01*
X18175Y35536D01*
X18325Y35536D01*
X18325Y35529D01*
X18559Y35529D01*
X18597Y35566D01*
X18597Y35660D01*
X18595Y35664D01*
X18658Y35727D01*
X18696Y35819D01*
X18697Y35918D01*
X18697Y36272D01*
X18659Y36364D01*
X18588Y36434D01*
X18550Y36450D01*
X18550Y36669D01*
X18734Y36484D01*
X18734Y36484D01*
X18856Y36403D01*
X19000Y36375D01*
X19750Y36375D01*
X19893Y36403D01*
X20015Y36484D01*
X20120Y36589D01*
X20240Y36639D01*
X20360Y36758D01*
X20424Y36915D01*
X20425Y37084D01*
X20375Y37205D01*
X20375Y37851D01*
X20408Y37885D01*
X20446Y37977D01*
X20447Y38076D01*
X20447Y31375D01*
X18597Y31375D01*
X18597Y35247D01*
X18597Y35341D01*
X18559Y35379D01*
X18325Y35379D01*
X18325Y35164D01*
X18362Y35127D01*
X18417Y35126D01*
X18476Y35127D01*
X18532Y35149D01*
X18574Y35192D01*
X18597Y35247D01*
X18597Y31375D01*
X18455Y31375D01*
X18334Y31424D01*
X18165Y31425D01*
X18009Y31360D01*
X17889Y31241D01*
X17825Y31084D01*
X17824Y30915D01*
X17889Y30759D01*
X18008Y30639D01*
X18165Y30575D01*
X18334Y30574D01*
X18455Y30625D01*
X18832Y30625D01*
X18794Y30569D01*
X18301Y30569D01*
X18209Y30531D01*
X18139Y30461D01*
X18105Y30379D01*
X17944Y30379D01*
X17834Y30424D01*
X17665Y30425D01*
X17509Y30360D01*
X17389Y30241D01*
X17325Y30084D01*
X17324Y29915D01*
X17389Y29759D01*
X17508Y29639D01*
X17665Y29575D01*
X17834Y29574D01*
X17966Y29629D01*
X18105Y29629D01*
X18138Y29548D01*
X18209Y29477D01*
X18301Y29439D01*
X18400Y29439D01*
X18794Y29439D01*
X18878Y29314D01*
X19097Y29168D01*
X19355Y29116D01*
X19612Y29168D01*
X19831Y29314D01*
X19915Y29439D01*
X20408Y29439D01*
X20500Y29477D01*
X20570Y29547D01*
X20604Y29629D01*
X22042Y29629D01*
X22076Y29548D01*
X22146Y29477D01*
X22238Y29439D01*
X22337Y29439D01*
X22731Y29439D01*
X22815Y29314D01*
X23034Y29168D01*
X23292Y29116D01*
X23549Y29168D01*
X23768Y29314D01*
X23852Y29439D01*
X24345Y29439D01*
X24437Y29477D01*
X24507Y29547D01*
X24541Y29629D01*
X26318Y29629D01*
X25689Y29000D01*
X17250Y29000D01*
X17000Y29000D01*
X16250Y29000D01*
X15962Y28942D01*
X15719Y28780D01*
X15557Y28537D01*
X15500Y28250D01*
X15557Y27962D01*
X15719Y27719D01*
X15962Y27557D01*
X16250Y27500D01*
X17000Y27500D01*
X17250Y27500D01*
X26000Y27500D01*
X26000Y27500D01*
X26287Y27557D01*
X26530Y27719D01*
X27375Y28564D01*
X27375Y28155D01*
X26234Y27015D01*
X26153Y26893D01*
X26125Y26750D01*
X26125Y26000D01*
X26153Y25856D01*
X26234Y25734D01*
X26613Y25355D01*
X26735Y25274D01*
X26878Y25246D01*
X27266Y25246D01*
X27299Y25164D01*
X27370Y25094D01*
X27461Y25056D01*
X27561Y25056D01*
X27955Y25056D01*
X28039Y24930D01*
X28258Y24784D01*
X28515Y24733D01*
X28773Y24784D01*
X28992Y24930D01*
X29075Y25056D01*
X29569Y25056D01*
X29661Y25094D01*
X29731Y25164D01*
X29765Y25246D01*
X30473Y25246D01*
X30625Y25094D01*
X30625Y22155D01*
X30588Y22118D01*
X30449Y22118D01*
X30415Y22200D01*
X30345Y22270D01*
X30253Y22308D01*
X30153Y22308D01*
X29759Y22308D01*
X29675Y22434D01*
X29457Y22580D01*
X29199Y22631D01*
X28941Y22580D01*
X28723Y22434D01*
X28639Y22308D01*
X28146Y22308D01*
X28054Y22270D01*
X27983Y22200D01*
X27949Y22118D01*
X19219Y22118D01*
X19084Y22174D01*
X18925Y22175D01*
X18925Y24084D01*
X18860Y24240D01*
X18741Y24360D01*
X18584Y24424D01*
X18415Y24425D01*
X18259Y24360D01*
X18139Y24241D01*
X18089Y24119D01*
X17898Y23928D01*
X10971Y23928D01*
X10938Y24010D01*
X10868Y24080D01*
X10776Y24118D01*
X10676Y24118D01*
X10282Y24118D01*
X10198Y24244D01*
X9980Y24390D01*
X9722Y24441D01*
X9464Y24390D01*
X9245Y24244D01*
X9162Y24118D01*
X8668Y24118D01*
X8576Y24081D01*
X8506Y24010D01*
X8472Y23928D01*
X8303Y23928D01*
X8160Y23900D01*
X8038Y23819D01*
X7484Y23265D01*
X7403Y23143D01*
X7375Y23000D01*
X7375Y19250D01*
X7403Y19106D01*
X7484Y18984D01*
X9019Y17450D01*
X9019Y17450D01*
X9140Y17369D01*
X9284Y17340D01*
X9502Y17340D01*
X9535Y17259D01*
X9606Y17188D01*
X9697Y17150D01*
X9797Y17150D01*
X10191Y17150D01*
X10275Y17025D01*
X10493Y16879D01*
X10751Y16828D01*
X11009Y16879D01*
X11228Y17025D01*
X11311Y17150D01*
X11805Y17150D01*
X11897Y17188D01*
X11967Y17259D01*
X12001Y17340D01*
X12378Y17340D01*
X13125Y16594D01*
X13125Y12405D01*
X13013Y12294D01*
X12997Y12333D01*
X12926Y12404D01*
X12835Y12442D01*
X12735Y12442D01*
X12341Y12442D01*
X12257Y12567D01*
X12039Y12713D01*
X11781Y12765D01*
X11523Y12713D01*
X11304Y12567D01*
X11221Y12442D01*
X10727Y12442D01*
X10635Y12404D01*
X10565Y12334D01*
X10531Y12252D01*
X7756Y12252D01*
X7698Y12291D01*
X7555Y12319D01*
X7500Y12319D01*
X4929Y12319D01*
X4895Y12401D01*
X4825Y12471D01*
X4733Y12509D01*
X4634Y12509D01*
X4239Y12509D01*
X4162Y12625D01*
X4544Y12625D01*
X4665Y12575D01*
X4834Y12574D01*
X4990Y12639D01*
X5110Y12758D01*
X5174Y12915D01*
X5175Y13084D01*
X5110Y13240D01*
X4991Y13360D01*
X4834Y13424D01*
X4665Y13425D01*
X4589Y13393D01*
X4589Y14695D01*
X4584Y15326D01*
X4351Y15889D01*
X4169Y16063D01*
X4063Y15957D01*
X4063Y16169D01*
X4063Y43830D01*
X3000Y44893D01*
X2893Y44787D01*
X2893Y45000D01*
X1830Y46063D01*
X1648Y45889D01*
X1500Y45524D01*
X1500Y50270D01*
X1500Y50729D01*
X1477Y50784D01*
X1435Y50827D01*
X1379Y50849D01*
X1320Y50850D01*
X1087Y50850D01*
X1050Y50812D01*
X1050Y50575D01*
X1462Y50575D01*
X1500Y50612D01*
X1500Y50729D01*
X1500Y50270D01*
X1500Y50387D01*
X1462Y50425D01*
X1050Y50425D01*
X1050Y50187D01*
X1087Y50150D01*
X1320Y50149D01*
X1379Y50150D01*
X1435Y50172D01*
X1477Y50215D01*
X1500Y50270D01*
X1500Y45524D01*
X1410Y45304D01*
X1415Y44673D01*
X1648Y44110D01*
X1830Y43936D01*
X2893Y45000D01*
X2893Y44787D01*
X1936Y43830D01*
X2110Y43648D01*
X2695Y43410D01*
X3326Y43415D01*
X3889Y43648D01*
X4063Y43830D01*
X4063Y16169D01*
X3889Y16351D01*
X3304Y16589D01*
X2673Y16584D01*
X2110Y16351D01*
X1936Y16169D01*
X3000Y15106D01*
X4063Y16169D01*
X4063Y15957D01*
X3106Y15000D01*
X4169Y13936D01*
X4351Y14110D01*
X4589Y14695D01*
X4589Y13393D01*
X4544Y13375D01*
X4063Y13375D01*
X4063Y13830D01*
X3000Y14893D01*
X2893Y14787D01*
X2893Y15000D01*
X1830Y16063D01*
X1648Y15889D01*
X1410Y15304D01*
X1415Y14673D01*
X1648Y14110D01*
X1830Y13936D01*
X2893Y15000D01*
X2893Y14787D01*
X1936Y13830D01*
X2110Y13648D01*
X2695Y13410D01*
X3326Y13415D01*
X3889Y13648D01*
X4063Y13830D01*
X4063Y13375D01*
X2250Y13375D01*
X2106Y13346D01*
X1984Y13265D01*
X1609Y12890D01*
X1528Y12768D01*
X1500Y12625D01*
X1500Y12125D01*
X1528Y11981D01*
X1609Y11859D01*
X1789Y11679D01*
X1911Y11598D01*
X2055Y11569D01*
X2430Y11569D01*
X2463Y11488D01*
X2534Y11418D01*
X2625Y11379D01*
X2725Y11379D01*
X3119Y11379D01*
X3203Y11254D01*
X3421Y11108D01*
X3679Y11057D01*
X3937Y11108D01*
X4156Y11254D01*
X4239Y11379D01*
X4733Y11379D01*
X4825Y11417D01*
X4895Y11488D01*
X4929Y11569D01*
X7344Y11569D01*
X8679Y10234D01*
X8801Y10153D01*
X8944Y10125D01*
X16044Y10125D01*
X16165Y10075D01*
X16334Y10074D01*
X16490Y10139D01*
X16610Y10258D01*
X16674Y10415D01*
X16675Y10584D01*
X16610Y10740D01*
X16491Y10860D01*
X16334Y10924D01*
X16165Y10925D01*
X16044Y10875D01*
X9100Y10875D01*
X8472Y11502D01*
X10531Y11502D01*
X10565Y11421D01*
X10635Y11350D01*
X10727Y11312D01*
X10826Y11312D01*
X11221Y11312D01*
X11304Y11187D01*
X11523Y11041D01*
X11781Y10989D01*
X12039Y11041D01*
X12257Y11187D01*
X12341Y11312D01*
X12834Y11312D01*
X12926Y11350D01*
X12996Y11420D01*
X13030Y11502D01*
X13127Y11502D01*
X13271Y11531D01*
X13392Y11612D01*
X13765Y11984D01*
X13846Y12106D01*
X13874Y12250D01*
X13875Y12250D01*
X13875Y16750D01*
X13846Y16893D01*
X13765Y17015D01*
X13765Y17015D01*
X12799Y17980D01*
X12677Y18062D01*
X12534Y18090D01*
X12001Y18090D01*
X11967Y18172D01*
X11897Y18242D01*
X11805Y18280D01*
X11706Y18280D01*
X11311Y18280D01*
X11228Y18406D01*
X11009Y18552D01*
X10751Y18603D01*
X10493Y18552D01*
X10275Y18406D01*
X10191Y18280D01*
X9698Y18280D01*
X9606Y18242D01*
X9536Y18172D01*
X9502Y18090D01*
X9439Y18090D01*
X8125Y19405D01*
X8125Y22844D01*
X8459Y23178D01*
X8472Y23178D01*
X8506Y23097D01*
X8576Y23027D01*
X8668Y22989D01*
X8767Y22988D01*
X9162Y22988D01*
X9245Y22863D01*
X9464Y22717D01*
X9722Y22666D01*
X9980Y22717D01*
X10198Y22863D01*
X10282Y22988D01*
X10775Y22988D01*
X10867Y23026D01*
X10938Y23097D01*
X10972Y23178D01*
X18053Y23178D01*
X18197Y23207D01*
X18319Y23288D01*
X18620Y23589D01*
X18740Y23639D01*
X18860Y23758D01*
X18924Y23915D01*
X18925Y24084D01*
X18925Y22175D01*
X18915Y22175D01*
X18759Y22110D01*
X18639Y21991D01*
X18575Y21834D01*
X18574Y21665D01*
X18639Y21509D01*
X18758Y21389D01*
X18915Y21325D01*
X19084Y21324D01*
X19190Y21368D01*
X27949Y21368D01*
X27983Y21287D01*
X28053Y21217D01*
X28145Y21178D01*
X28245Y21178D01*
X28639Y21178D01*
X28723Y21053D01*
X28941Y20907D01*
X29199Y20856D01*
X29457Y20907D01*
X29675Y21053D01*
X29759Y21178D01*
X30252Y21178D01*
X30344Y21216D01*
X30415Y21287D01*
X30449Y21368D01*
X30743Y21368D01*
X30887Y21397D01*
X31009Y21478D01*
X31265Y21734D01*
X31346Y21856D01*
X31374Y22000D01*
X31375Y22000D01*
X31375Y25250D01*
X31374Y25250D01*
X31346Y25393D01*
X31265Y25515D01*
X31265Y25515D01*
X30894Y25886D01*
X30772Y25967D01*
X30628Y25996D01*
X29765Y25996D01*
X29731Y26077D01*
X29661Y26147D01*
X29569Y26185D01*
X29470Y26186D01*
X29075Y26186D01*
X28992Y26311D01*
X28773Y26457D01*
X28515Y26508D01*
X28258Y26457D01*
X28039Y26311D01*
X27955Y26186D01*
X27462Y26186D01*
X27370Y26148D01*
X27300Y26077D01*
X27266Y25996D01*
X27034Y25996D01*
X26875Y26155D01*
X26875Y26594D01*
X28015Y27734D01*
X28096Y27856D01*
X28125Y28000D01*
X28125Y29314D01*
X28280Y29469D01*
X28387Y29629D01*
X30944Y29629D01*
X30977Y29548D01*
X31048Y29477D01*
X31140Y29439D01*
X31239Y29439D01*
X31633Y29439D01*
X31717Y29314D01*
X31936Y29168D01*
X32193Y29116D01*
X32451Y29168D01*
X32670Y29314D01*
X32753Y29439D01*
X33247Y29439D01*
X33339Y29477D01*
X33409Y29547D01*
X33443Y29629D01*
X34881Y29629D01*
X34914Y29548D01*
X34985Y29477D01*
X35077Y29439D01*
X35176Y29439D01*
X35570Y29439D01*
X35654Y29314D01*
X35873Y29168D01*
X36130Y29116D01*
X36388Y29168D01*
X36607Y29314D01*
X36690Y29439D01*
X37184Y29439D01*
X37276Y29477D01*
X37346Y29547D01*
X37380Y29629D01*
X37754Y29629D01*
X37897Y29657D01*
X38019Y29739D01*
X38265Y29984D01*
X38265Y29984D01*
X38346Y30106D01*
X38374Y30250D01*
X38375Y30250D01*
X38375Y16461D01*
X38110Y16351D01*
X37936Y16169D01*
X39000Y15106D01*
X40063Y16169D01*
X40063Y15957D01*
X39106Y15000D01*
X40169Y13936D01*
X40351Y14110D01*
X40589Y14695D01*
X40589Y6661D01*
X40394Y6741D01*
X40220Y6742D01*
X40220Y7821D01*
X40220Y9356D01*
X40182Y9448D01*
X40112Y9518D01*
X40063Y9539D01*
X40063Y13830D01*
X39000Y14893D01*
X38893Y14787D01*
X38893Y15000D01*
X37830Y16063D01*
X37648Y15889D01*
X37410Y15304D01*
X37415Y14673D01*
X37648Y14110D01*
X37830Y13936D01*
X38893Y15000D01*
X38893Y14787D01*
X37936Y13830D01*
X38110Y13648D01*
X38695Y13410D01*
X39326Y13415D01*
X39889Y13648D01*
X40063Y13830D01*
X40063Y9539D01*
X40020Y9557D01*
X39920Y9557D01*
X37480Y9557D01*
X37388Y9519D01*
X37317Y9448D01*
X37279Y9357D01*
X37279Y9257D01*
X37279Y7722D01*
X37317Y7630D01*
X37387Y7559D01*
X37479Y7521D01*
X37579Y7521D01*
X40019Y7521D01*
X40111Y7559D01*
X40182Y7629D01*
X40220Y7721D01*
X40220Y7821D01*
X40220Y6742D01*
X40099Y6742D01*
X39826Y6629D01*
X39617Y6420D01*
X39504Y6148D01*
X39503Y5853D01*
X39616Y5580D01*
X39825Y5371D01*
X40097Y5258D01*
X40393Y5257D01*
X40665Y5370D01*
X40874Y5579D01*
X40988Y5851D01*
X40988Y6146D01*
X40988Y269D01*
X40120Y269D01*
X40120Y2722D01*
X40120Y4198D01*
X40120Y4258D01*
X40097Y4313D01*
X40055Y4355D01*
X40000Y4378D01*
X38862Y4378D01*
X38825Y4340D01*
X38825Y3535D01*
X40082Y3535D01*
X40120Y3573D01*
X40120Y4198D01*
X40120Y2722D01*
X40120Y3348D01*
X40082Y3385D01*
X38825Y3385D01*
X38825Y2580D01*
X38862Y2542D01*
X40000Y2542D01*
X40055Y2565D01*
X40097Y2607D01*
X40120Y2662D01*
X40120Y2722D01*
X40120Y269D01*
X38675Y269D01*
X38675Y2580D01*
X38675Y3385D01*
X38675Y3535D01*
X38675Y4340D01*
X38637Y4378D01*
X37499Y4378D01*
X37444Y4355D01*
X37402Y4313D01*
X37379Y4258D01*
X37379Y4198D01*
X37379Y3573D01*
X37417Y3535D01*
X38675Y3535D01*
X38675Y3385D01*
X37417Y3385D01*
X37379Y3348D01*
X37379Y2722D01*
X37379Y2662D01*
X37402Y2607D01*
X37444Y2565D01*
X37499Y2542D01*
X38637Y2542D01*
X38675Y2580D01*
X38675Y269D01*
X36322Y269D01*
X36322Y5399D01*
X36322Y6699D01*
X36284Y6791D01*
X36214Y6861D01*
X36122Y6899D01*
X36023Y6899D01*
X34291Y6899D01*
X34199Y6861D01*
X34128Y6791D01*
X34111Y6750D01*
X31659Y6750D01*
X31659Y7151D01*
X31621Y7243D01*
X31551Y7314D01*
X31459Y7352D01*
X31359Y7352D01*
X30454Y7352D01*
X30362Y7314D01*
X30292Y7244D01*
X30253Y7152D01*
X30253Y7052D01*
X30253Y6237D01*
X30206Y6000D01*
X30253Y5762D01*
X30253Y4848D01*
X30291Y4756D01*
X30362Y4685D01*
X30453Y4647D01*
X30553Y4647D01*
X31458Y4647D01*
X31550Y4685D01*
X31621Y4755D01*
X31659Y4847D01*
X31659Y4947D01*
X31659Y5250D01*
X34111Y5250D01*
X34128Y5208D01*
X34198Y5138D01*
X34290Y5100D01*
X34390Y5100D01*
X36122Y5100D01*
X36214Y5138D01*
X36284Y5208D01*
X36322Y5300D01*
X36322Y5399D01*
X36322Y269D01*
X269Y269D01*
X269Y1476D01*
X646Y1100D01*
X8353Y1100D01*
X9000Y1746D01*
X9000Y1750D01*
X16250Y1750D01*
X23250Y1750D01*
X23250Y1750D01*
X23537Y1807D01*
X23780Y1969D01*
X27060Y5250D01*
X27340Y5250D01*
X27340Y4848D01*
X27378Y4756D01*
X27448Y4685D01*
X27540Y4647D01*
X27640Y4647D01*
X28545Y4647D01*
X28637Y4685D01*
X28707Y4755D01*
X28746Y4847D01*
X28746Y4947D01*
X28746Y5762D01*
X28793Y6000D01*
X28746Y6237D01*
X28746Y7151D01*
X28708Y7243D01*
X28637Y7314D01*
X28546Y7352D01*
X28446Y7352D01*
X27541Y7352D01*
X27449Y7314D01*
X27378Y7244D01*
X27340Y7152D01*
X27340Y7052D01*
X27340Y6750D01*
X27060Y6750D01*
X27030Y6780D01*
X26787Y6942D01*
X26500Y7000D01*
X24450Y7000D01*
X24450Y9800D01*
X24503Y9800D01*
X24700Y9996D01*
X24700Y11103D01*
X24503Y11300D01*
X21546Y11300D01*
X21396Y11150D01*
X19650Y11150D01*
X19458Y11111D01*
X19296Y11003D01*
X19188Y10841D01*
X19157Y10687D01*
X18734Y10265D01*
X18653Y10143D01*
X18625Y10000D01*
X18625Y5750D01*
X18653Y5606D01*
X18734Y5484D01*
X18984Y5234D01*
X18984Y5234D01*
X19106Y5153D01*
X19250Y5125D01*
X19750Y5125D01*
X19893Y5153D01*
X20015Y5234D01*
X20265Y5484D01*
X20265Y5484D01*
X20346Y5606D01*
X20374Y5750D01*
X20375Y5750D01*
X20375Y5851D01*
X20408Y5885D01*
X20446Y5977D01*
X20447Y6076D01*
X20447Y6430D01*
X20418Y6500D01*
X20446Y6569D01*
X20447Y6668D01*
X20447Y6825D01*
X20692Y6825D01*
X20728Y6790D01*
X20820Y6752D01*
X20919Y6751D01*
X21234Y6751D01*
X21326Y6789D01*
X21396Y6860D01*
X21434Y6952D01*
X21435Y7051D01*
X21435Y7299D01*
X21397Y7391D01*
X21326Y7461D01*
X21300Y7472D01*
X21300Y7500D01*
X21353Y7500D01*
X21450Y7596D01*
X21450Y7296D01*
X21564Y7181D01*
X21564Y6952D01*
X21602Y6860D01*
X21672Y6790D01*
X21672Y6674D01*
X21635Y6659D01*
X21565Y6588D01*
X21527Y6496D01*
X21526Y6397D01*
X21526Y6003D01*
X21564Y5911D01*
X21635Y5841D01*
X21727Y5803D01*
X21826Y5802D01*
X22093Y5802D01*
X22196Y5700D01*
X22749Y5700D01*
X22962Y5557D01*
X23250Y5500D01*
X25189Y5500D01*
X22939Y3250D01*
X16250Y3250D01*
X8703Y3250D01*
X8603Y3350D01*
X7533Y3350D01*
X7549Y3390D01*
X7550Y3608D01*
X7466Y3811D01*
X7311Y3965D01*
X7230Y3999D01*
X7311Y4033D01*
X7465Y4188D01*
X7549Y4390D01*
X7550Y4608D01*
X7466Y4811D01*
X7311Y4965D01*
X7230Y4999D01*
X7311Y5033D01*
X7465Y5188D01*
X7549Y5390D01*
X7550Y5608D01*
X7466Y5811D01*
X7311Y5965D01*
X7230Y5999D01*
X7311Y6033D01*
X7465Y6188D01*
X7549Y6390D01*
X7550Y6608D01*
X7466Y6811D01*
X7311Y6965D01*
X7230Y6999D01*
X7311Y7033D01*
X7465Y7188D01*
X7549Y7390D01*
X7550Y7608D01*
X7466Y7811D01*
X7311Y7965D01*
X7230Y7999D01*
X7311Y8033D01*
X7465Y8188D01*
X7549Y8390D01*
X7550Y8608D01*
X7466Y8811D01*
X7457Y8820D01*
X7457Y9467D01*
X7435Y9644D01*
X7410Y9705D01*
X7346Y9740D01*
X7240Y9634D01*
X7240Y9846D01*
X7205Y9910D01*
X7032Y9957D01*
X6855Y9935D01*
X6794Y9910D01*
X6759Y9846D01*
X7000Y9606D01*
X7240Y9846D01*
X7240Y9634D01*
X7106Y9500D01*
X7346Y9259D01*
X7410Y9294D01*
X7457Y9467D01*
X7457Y8820D01*
X7311Y8965D01*
X7109Y9049D01*
X7027Y9049D01*
X7144Y9064D01*
X7205Y9089D01*
X7240Y9153D01*
X7000Y9393D01*
X6893Y9287D01*
X6893Y9500D01*
X6653Y9740D01*
X6589Y9705D01*
X6542Y9532D01*
X6564Y9355D01*
X6589Y9294D01*
X6653Y9259D01*
X6893Y9500D01*
X6893Y9287D01*
X6759Y9153D01*
X6794Y9089D01*
X6939Y9050D01*
X6891Y9050D01*
X6688Y8966D01*
X6597Y8875D01*
X5578Y8875D01*
X5550Y8903D01*
X5550Y9270D01*
X5550Y9729D01*
X5527Y9784D01*
X5485Y9827D01*
X5429Y9849D01*
X5370Y9850D01*
X5137Y9850D01*
X5100Y9812D01*
X5100Y9575D01*
X5512Y9575D01*
X5550Y9612D01*
X5550Y9729D01*
X5550Y9270D01*
X5550Y9387D01*
X5512Y9425D01*
X5100Y9425D01*
X5100Y9187D01*
X5137Y9150D01*
X5370Y9149D01*
X5429Y9150D01*
X5485Y9172D01*
X5527Y9215D01*
X5550Y9270D01*
X5550Y8903D01*
X5541Y8911D01*
X5449Y8949D01*
X5350Y8950D01*
X4950Y8950D01*
X4950Y9187D01*
X4950Y9425D01*
X4950Y9575D01*
X4950Y9812D01*
X4912Y9850D01*
X4679Y9850D01*
X4620Y9849D01*
X4564Y9827D01*
X4522Y9784D01*
X4499Y9729D01*
X4500Y9612D01*
X4537Y9575D01*
X4950Y9575D01*
X4950Y9425D01*
X4537Y9425D01*
X4500Y9387D01*
X4499Y9270D01*
X4522Y9215D01*
X4564Y9172D01*
X4620Y9150D01*
X4679Y9149D01*
X4912Y9150D01*
X4950Y9187D01*
X4950Y8950D01*
X4600Y8950D01*
X4508Y8912D01*
X4471Y8875D01*
X1528Y8875D01*
X1500Y8903D01*
X1500Y9270D01*
X1500Y9729D01*
X1477Y9784D01*
X1435Y9827D01*
X1379Y9849D01*
X1320Y9850D01*
X1087Y9850D01*
X1050Y9812D01*
X1050Y9575D01*
X1462Y9575D01*
X1500Y9612D01*
X1500Y9729D01*
X1500Y9270D01*
X1500Y9387D01*
X1462Y9425D01*
X1050Y9425D01*
X1050Y9187D01*
X1087Y9150D01*
X1320Y9149D01*
X1379Y9150D01*
X1435Y9172D01*
X1477Y9215D01*
X1500Y9270D01*
X1500Y8903D01*
X1491Y8911D01*
X1399Y8949D01*
X1300Y8950D01*
X900Y8950D01*
X900Y9187D01*
X900Y9425D01*
X900Y9575D01*
X900Y9812D01*
X900Y50187D01*
X900Y50425D01*
X900Y50575D01*
X900Y50812D01*
X862Y50850D01*
X629Y50850D01*
X570Y50849D01*
X514Y50827D01*
X472Y50784D01*
X449Y50729D01*
X450Y50612D01*
X487Y50575D01*
X900Y50575D01*
X900Y50425D01*
X487Y50425D01*
X450Y50387D01*
X449Y50270D01*
X472Y50215D01*
X514Y50172D01*
X570Y50150D01*
X629Y50149D01*
X862Y50150D01*
X900Y50187D01*
X900Y9812D01*
X862Y9850D01*
X629Y9850D01*
X570Y9849D01*
X514Y9827D01*
X472Y9784D01*
X449Y9729D01*
X450Y9612D01*
X487Y9575D01*
X900Y9575D01*
X900Y9425D01*
X487Y9425D01*
X450Y9387D01*
X449Y9270D01*
X472Y9215D01*
X514Y9172D01*
X570Y9150D01*
X629Y9149D01*
X862Y9150D01*
X900Y9187D01*
X900Y8950D01*
X550Y8950D01*
X458Y8912D01*
X401Y8855D01*
X356Y8846D01*
X269Y8788D01*
X269Y51211D01*
X356Y51153D01*
X401Y51144D01*
X458Y51088D01*
X550Y51050D01*
X649Y51049D01*
X1399Y51049D01*
X1491Y51087D01*
X1528Y51125D01*
X4471Y51125D01*
X4508Y51088D01*
X4600Y51050D01*
X4699Y51049D01*
X5449Y51049D01*
X5541Y51087D01*
X5578Y51125D01*
X6597Y51125D01*
X6688Y51034D01*
X6890Y50950D01*
X7108Y50949D01*
X7311Y51033D01*
X7465Y51188D01*
X7549Y51390D01*
X7550Y51608D01*
X7466Y51811D01*
X7311Y51965D01*
X7230Y51999D01*
X7311Y52033D01*
X7402Y52125D01*
X17044Y52125D01*
X17165Y52075D01*
X17334Y52074D01*
X17490Y52139D01*
X17610Y52258D01*
X17674Y52415D01*
X17675Y52584D01*
X17610Y52740D01*
X17491Y52860D01*
X17334Y52924D01*
X17165Y52925D01*
X17044Y52875D01*
X7402Y52875D01*
X7311Y52965D01*
X7230Y52999D01*
X7311Y53033D01*
X7402Y53125D01*
X17544Y53125D01*
X17665Y53075D01*
X17834Y53074D01*
X17990Y53139D01*
X18110Y53258D01*
X18174Y53415D01*
X18175Y53584D01*
X18110Y53740D01*
X17991Y53860D01*
X17834Y53924D01*
X17665Y53925D01*
X17544Y53875D01*
X7402Y53875D01*
X7311Y53965D01*
X7230Y53999D01*
X7311Y54033D01*
X7465Y54188D01*
X7549Y54390D01*
X7550Y54608D01*
X7466Y54811D01*
X7311Y54965D01*
X7230Y54999D01*
X7311Y55033D01*
X7465Y55188D01*
X7549Y55390D01*
X7550Y55608D01*
X7466Y55811D01*
X7311Y55965D01*
X7230Y55999D01*
X7311Y56033D01*
X7402Y56125D01*
X19844Y56125D01*
X20375Y55594D01*
X20375Y55053D01*
X20338Y55016D01*
X20300Y54924D01*
X20299Y54825D01*
X20299Y54075D01*
X20337Y53983D01*
X20375Y53946D01*
X20375Y53455D01*
X20325Y53334D01*
X20324Y53165D01*
X20389Y53009D01*
X20508Y52889D01*
X20665Y52825D01*
X20834Y52824D01*
X20990Y52889D01*
X21110Y53008D01*
X21174Y53165D01*
X21175Y53334D01*
X21125Y53455D01*
X21125Y53946D01*
X21161Y53983D01*
X21199Y54075D01*
X21200Y54174D01*
X21200Y54924D01*
X21162Y55016D01*
X21125Y55053D01*
X21125Y55750D01*
X21125Y57347D01*
X21215Y57438D01*
X21249Y57519D01*
X21283Y57438D01*
X21375Y57347D01*
X21375Y56553D01*
X21338Y56516D01*
X21300Y56424D01*
X21299Y56325D01*
X21299Y55575D01*
X21337Y55483D01*
X21388Y55433D01*
X21403Y55356D01*
X21484Y55234D01*
X21606Y55153D01*
X21750Y55125D01*
X21893Y55153D01*
X22015Y55234D01*
X22096Y55356D01*
X22111Y55433D01*
X22161Y55483D01*
X22199Y55575D01*
X22200Y55674D01*
X22200Y56424D01*
X22162Y56516D01*
X22125Y56553D01*
X22125Y57347D01*
X22215Y57438D01*
X22249Y57519D01*
X22283Y57438D01*
X22375Y57347D01*
X22375Y55053D01*
X22338Y55016D01*
X22300Y54924D01*
X22299Y54825D01*
X22299Y54075D01*
X22337Y53983D01*
X22388Y53933D01*
X22403Y53856D01*
X22484Y53734D01*
X22606Y53653D01*
X22750Y53625D01*
X22893Y53653D01*
X23015Y53734D01*
X23096Y53856D01*
X23111Y53933D01*
X23161Y53983D01*
X23199Y54075D01*
X23200Y54174D01*
X23200Y54924D01*
X23162Y55016D01*
X23125Y55053D01*
X23125Y57347D01*
X23215Y57438D01*
X23299Y57640D01*
X23299Y57722D01*
X23314Y57605D01*
X23339Y57544D01*
X23403Y57509D01*
X23643Y57750D01*
X23403Y57990D01*
X23339Y57955D01*
X23300Y57810D01*
X23300Y57858D01*
X23216Y58061D01*
X23061Y58215D01*
X22859Y58299D01*
X22641Y58300D01*
X22438Y58216D01*
X22284Y58061D01*
X22250Y57980D01*
X22216Y58061D01*
X22061Y58215D01*
X21859Y58299D01*
X21641Y58300D01*
X21438Y58216D01*
X21284Y58061D01*
X21250Y57980D01*
X21216Y58061D01*
X21061Y58215D01*
X20859Y58299D01*
X20641Y58300D01*
X20438Y58216D01*
X20284Y58061D01*
X20200Y57859D01*
X20199Y57641D01*
X20283Y57438D01*
X20375Y57347D01*
X20375Y56655D01*
X20265Y56765D01*
X20143Y56846D01*
X20000Y56875D01*
X11138Y56875D01*
X11280Y56969D01*
X11442Y57212D01*
X11500Y57500D01*
X11442Y57787D01*
X11280Y58030D01*
X11037Y58192D01*
X10750Y58250D01*
X9000Y58250D01*
X9000Y58253D01*
X8353Y58900D01*
X646Y58900D01*
X269Y58523D01*
X269Y59730D01*
X41730Y59730D01*
X41730Y269D01*
X41730Y269D01*
G37*
X41730Y269D02*
X40988Y269D01*
X40988Y6146D01*
X40875Y6419D01*
X40666Y6628D01*
X40589Y6661D01*
X40589Y14695D01*
X40589Y44695D01*
X40584Y45326D01*
X40351Y45889D01*
X40169Y46063D01*
X40063Y45957D01*
X40063Y46169D01*
X39889Y46351D01*
X39304Y46589D01*
X38673Y46584D01*
X38110Y46351D01*
X37936Y46169D01*
X39000Y45106D01*
X40063Y46169D01*
X40063Y45957D01*
X39106Y45000D01*
X40169Y43936D01*
X40351Y44110D01*
X40589Y44695D01*
X40589Y14695D01*
X40584Y15326D01*
X40351Y15889D01*
X40169Y16063D01*
X40063Y15957D01*
X40063Y16169D01*
X40063Y43830D01*
X39000Y44893D01*
X38893Y44787D01*
X38893Y45000D01*
X37830Y46063D01*
X37648Y45889D01*
X37410Y45304D01*
X37415Y44673D01*
X37648Y44110D01*
X37830Y43936D01*
X38893Y45000D01*
X38893Y44787D01*
X37936Y43830D01*
X38110Y43648D01*
X38695Y43410D01*
X39326Y43415D01*
X39889Y43648D01*
X40063Y43830D01*
X40063Y16169D01*
X39889Y16351D01*
X39304Y16589D01*
X38673Y16584D01*
X38375Y16461D01*
X38375Y30250D01*
X38375Y30750D01*
X38346Y30893D01*
X38265Y31015D01*
X38265Y31015D01*
X38015Y31265D01*
X37893Y31346D01*
X37750Y31375D01*
X32300Y31375D01*
X32300Y45858D01*
X32300Y45859D01*
X32300Y57499D01*
X32300Y58099D01*
X32262Y58191D01*
X32191Y58261D01*
X32099Y58299D01*
X32000Y58300D01*
X31400Y58300D01*
X31308Y58262D01*
X31238Y58191D01*
X31200Y58099D01*
X31200Y58077D01*
X31061Y58215D01*
X30859Y58299D01*
X30641Y58300D01*
X30438Y58216D01*
X30284Y58061D01*
X30250Y57980D01*
X30216Y58061D01*
X30061Y58215D01*
X29859Y58299D01*
X29641Y58300D01*
X29438Y58216D01*
X29284Y58061D01*
X29250Y57980D01*
X29216Y58061D01*
X29061Y58215D01*
X28859Y58299D01*
X28641Y58300D01*
X28438Y58216D01*
X28284Y58061D01*
X28250Y57980D01*
X28216Y58061D01*
X28061Y58215D01*
X27859Y58299D01*
X27641Y58300D01*
X27438Y58216D01*
X27284Y58061D01*
X27250Y57980D01*
X27216Y58061D01*
X27061Y58215D01*
X26859Y58299D01*
X26641Y58300D01*
X26438Y58216D01*
X26284Y58061D01*
X26250Y57980D01*
X26216Y58061D01*
X26061Y58215D01*
X25859Y58299D01*
X25641Y58300D01*
X25438Y58216D01*
X25284Y58061D01*
X25250Y57980D01*
X25216Y58061D01*
X25061Y58215D01*
X24859Y58299D01*
X24641Y58300D01*
X24438Y58216D01*
X24284Y58061D01*
X24200Y57859D01*
X24200Y57777D01*
X24185Y57894D01*
X24160Y57955D01*
X24096Y57990D01*
X23990Y57884D01*
X23990Y58096D01*
X23955Y58160D01*
X23782Y58207D01*
X23605Y58185D01*
X23544Y58160D01*
X23509Y58096D01*
X23750Y57856D01*
X23990Y58096D01*
X23990Y57884D01*
X23856Y57750D01*
X24096Y57509D01*
X24160Y57544D01*
X24199Y57689D01*
X24199Y57641D01*
X24283Y57438D01*
X24375Y57347D01*
X24375Y55053D01*
X24338Y55016D01*
X24300Y54924D01*
X24299Y54825D01*
X24299Y54075D01*
X24337Y53983D01*
X24388Y53933D01*
X24403Y53856D01*
X24484Y53734D01*
X24606Y53653D01*
X24750Y53625D01*
X24893Y53653D01*
X25015Y53734D01*
X25096Y53856D01*
X25111Y53933D01*
X25161Y53983D01*
X25199Y54075D01*
X25200Y54174D01*
X25200Y54924D01*
X25162Y55016D01*
X25125Y55053D01*
X25125Y57347D01*
X25215Y57438D01*
X25249Y57519D01*
X25283Y57438D01*
X25375Y57347D01*
X25375Y56553D01*
X25338Y56516D01*
X25300Y56424D01*
X25299Y56325D01*
X25299Y55575D01*
X25337Y55483D01*
X25388Y55433D01*
X25403Y55356D01*
X25484Y55234D01*
X25606Y55153D01*
X25750Y55125D01*
X25893Y55153D01*
X26015Y55234D01*
X26096Y55356D01*
X26111Y55433D01*
X26161Y55483D01*
X26199Y55575D01*
X26200Y55674D01*
X26200Y56424D01*
X26162Y56516D01*
X26125Y56553D01*
X26125Y57347D01*
X26215Y57438D01*
X26249Y57519D01*
X26283Y57438D01*
X26375Y57347D01*
X26375Y55053D01*
X26338Y55016D01*
X26300Y54924D01*
X26299Y54825D01*
X26299Y54075D01*
X26337Y53983D01*
X26388Y53933D01*
X26403Y53856D01*
X26484Y53734D01*
X26606Y53653D01*
X26750Y53625D01*
X26893Y53653D01*
X27015Y53734D01*
X27096Y53856D01*
X27111Y53933D01*
X27161Y53983D01*
X27199Y54075D01*
X27200Y54174D01*
X27200Y54924D01*
X27162Y55016D01*
X27125Y55053D01*
X27125Y57347D01*
X27215Y57438D01*
X27249Y57519D01*
X27283Y57438D01*
X27375Y57347D01*
X27375Y56553D01*
X27338Y56516D01*
X27300Y56424D01*
X27299Y56325D01*
X27299Y55575D01*
X27337Y55483D01*
X27388Y55433D01*
X27403Y55356D01*
X27484Y55234D01*
X27606Y55153D01*
X27750Y55125D01*
X27893Y55153D01*
X28015Y55234D01*
X28096Y55356D01*
X28111Y55433D01*
X28161Y55483D01*
X28199Y55575D01*
X28200Y55674D01*
X28200Y56424D01*
X28162Y56516D01*
X28125Y56553D01*
X28125Y57347D01*
X28215Y57438D01*
X28249Y57519D01*
X28283Y57438D01*
X28375Y57347D01*
X28375Y55053D01*
X28338Y55016D01*
X28300Y54924D01*
X28299Y54825D01*
X28299Y54075D01*
X28337Y53983D01*
X28388Y53933D01*
X28403Y53856D01*
X28484Y53734D01*
X28606Y53653D01*
X28750Y53625D01*
X28893Y53653D01*
X29015Y53734D01*
X29096Y53856D01*
X29111Y53933D01*
X29161Y53983D01*
X29199Y54075D01*
X29200Y54174D01*
X29200Y54924D01*
X29162Y55016D01*
X29125Y55053D01*
X29125Y57347D01*
X29215Y57438D01*
X29249Y57519D01*
X29283Y57438D01*
X29375Y57347D01*
X29375Y56553D01*
X29338Y56516D01*
X29300Y56424D01*
X29299Y56325D01*
X29299Y55575D01*
X29337Y55483D01*
X29388Y55433D01*
X29403Y55356D01*
X29484Y55234D01*
X29606Y55153D01*
X29750Y55125D01*
X29893Y55153D01*
X30015Y55234D01*
X30096Y55356D01*
X30111Y55433D01*
X30161Y55483D01*
X30199Y55575D01*
X30200Y55674D01*
X30200Y56424D01*
X30162Y56516D01*
X30125Y56553D01*
X30125Y57347D01*
X30215Y57438D01*
X30249Y57519D01*
X30283Y57438D01*
X30375Y57347D01*
X30375Y55053D01*
X30338Y55016D01*
X30300Y54924D01*
X30299Y54825D01*
X30299Y54075D01*
X30337Y53983D01*
X30388Y53933D01*
X30403Y53856D01*
X30484Y53734D01*
X30606Y53653D01*
X30750Y53625D01*
X30893Y53653D01*
X31015Y53734D01*
X31096Y53856D01*
X31111Y53933D01*
X31161Y53983D01*
X31199Y54075D01*
X31200Y54174D01*
X31200Y54924D01*
X31162Y55016D01*
X31125Y55053D01*
X31125Y57347D01*
X31199Y57422D01*
X31199Y57400D01*
X31237Y57308D01*
X31308Y57238D01*
X31375Y57210D01*
X31375Y56553D01*
X31338Y56516D01*
X31300Y56424D01*
X31299Y56325D01*
X31299Y55575D01*
X31337Y55483D01*
X31388Y55433D01*
X31403Y55356D01*
X31484Y55234D01*
X31606Y55153D01*
X31750Y55125D01*
X31893Y55153D01*
X32015Y55234D01*
X32096Y55356D01*
X32111Y55433D01*
X32161Y55483D01*
X32199Y55575D01*
X32200Y55674D01*
X32200Y56424D01*
X32162Y56516D01*
X32125Y56553D01*
X32125Y57210D01*
X32191Y57237D01*
X32261Y57308D01*
X32299Y57400D01*
X32300Y57499D01*
X32300Y45859D01*
X32216Y46061D01*
X32125Y46152D01*
X32125Y48446D01*
X32161Y48483D01*
X32199Y48575D01*
X32200Y48674D01*
X32200Y49424D01*
X32162Y49516D01*
X32111Y49566D01*
X32096Y49643D01*
X32015Y49765D01*
X31893Y49846D01*
X31750Y49875D01*
X31606Y49846D01*
X31484Y49765D01*
X31403Y49643D01*
X31388Y49566D01*
X31338Y49516D01*
X31300Y49424D01*
X31299Y49325D01*
X31299Y48575D01*
X31337Y48483D01*
X31375Y48446D01*
X31375Y46152D01*
X31284Y46061D01*
X31250Y45980D01*
X31216Y46061D01*
X31125Y46152D01*
X31125Y46946D01*
X31161Y46983D01*
X31199Y47075D01*
X31200Y47174D01*
X31200Y47924D01*
X31162Y48016D01*
X31111Y48066D01*
X31096Y48143D01*
X31015Y48265D01*
X30893Y48346D01*
X30750Y48375D01*
X30606Y48346D01*
X30484Y48265D01*
X30403Y48143D01*
X30388Y48066D01*
X30338Y48016D01*
X30300Y47924D01*
X30299Y47825D01*
X30299Y47075D01*
X30337Y46983D01*
X30375Y46946D01*
X30375Y46152D01*
X30284Y46061D01*
X30250Y45980D01*
X30216Y46061D01*
X30125Y46152D01*
X30125Y48446D01*
X30161Y48483D01*
X30199Y48575D01*
X30200Y48674D01*
X30200Y49424D01*
X30162Y49516D01*
X30111Y49566D01*
X30096Y49643D01*
X30015Y49765D01*
X29893Y49846D01*
X29750Y49875D01*
X29606Y49846D01*
X29484Y49765D01*
X29403Y49643D01*
X29388Y49566D01*
X29338Y49516D01*
X29300Y49424D01*
X29299Y49325D01*
X29299Y48575D01*
X29337Y48483D01*
X29375Y48446D01*
X29375Y46152D01*
X29284Y46061D01*
X29250Y45980D01*
X29216Y46061D01*
X29125Y46152D01*
X29125Y46946D01*
X29161Y46983D01*
X29199Y47075D01*
X29200Y47174D01*
X29200Y47924D01*
X29162Y48016D01*
X29111Y48066D01*
X29096Y48143D01*
X29015Y48265D01*
X28893Y48346D01*
X28750Y48375D01*
X28606Y48346D01*
X28484Y48265D01*
X28403Y48143D01*
X28388Y48066D01*
X28338Y48016D01*
X28300Y47924D01*
X28299Y47825D01*
X28299Y47075D01*
X28337Y46983D01*
X28375Y46946D01*
X28375Y46152D01*
X28284Y46061D01*
X28250Y45980D01*
X28216Y46061D01*
X28125Y46152D01*
X28125Y48446D01*
X28161Y48483D01*
X28199Y48575D01*
X28200Y48674D01*
X28200Y49424D01*
X28162Y49516D01*
X28111Y49566D01*
X28096Y49643D01*
X28015Y49765D01*
X27893Y49846D01*
X27750Y49875D01*
X27606Y49846D01*
X27484Y49765D01*
X27403Y49643D01*
X27388Y49566D01*
X27338Y49516D01*
X27300Y49424D01*
X27299Y49325D01*
X27299Y48575D01*
X27337Y48483D01*
X27375Y48446D01*
X27375Y46152D01*
X27284Y46061D01*
X27250Y45980D01*
X27216Y46061D01*
X27125Y46152D01*
X27125Y46946D01*
X27161Y46983D01*
X27199Y47075D01*
X27200Y47174D01*
X27200Y47924D01*
X27162Y48016D01*
X27111Y48066D01*
X27096Y48143D01*
X27015Y48265D01*
X26893Y48346D01*
X26750Y48375D01*
X26606Y48346D01*
X26484Y48265D01*
X26403Y48143D01*
X26388Y48066D01*
X26338Y48016D01*
X26300Y47924D01*
X26299Y47825D01*
X26299Y47075D01*
X26337Y46983D01*
X26375Y46946D01*
X26375Y46152D01*
X26284Y46061D01*
X26250Y45980D01*
X26216Y46061D01*
X26125Y46152D01*
X26125Y48446D01*
X26161Y48483D01*
X26199Y48575D01*
X26200Y48674D01*
X26200Y49424D01*
X26162Y49516D01*
X26111Y49566D01*
X26096Y49643D01*
X26015Y49765D01*
X25893Y49846D01*
X25750Y49875D01*
X25606Y49846D01*
X25484Y49765D01*
X25403Y49643D01*
X25388Y49566D01*
X25338Y49516D01*
X25300Y49424D01*
X25299Y49325D01*
X25299Y48575D01*
X25337Y48483D01*
X25375Y48446D01*
X25375Y46152D01*
X25284Y46061D01*
X25250Y45980D01*
X25216Y46061D01*
X25125Y46152D01*
X25125Y46946D01*
X25161Y46983D01*
X25199Y47075D01*
X25200Y47174D01*
X25200Y47924D01*
X25162Y48016D01*
X25111Y48066D01*
X25096Y48143D01*
X25015Y48265D01*
X24893Y48346D01*
X24750Y48375D01*
X24606Y48346D01*
X24484Y48265D01*
X24403Y48143D01*
X24388Y48066D01*
X24338Y48016D01*
X24300Y47924D01*
X24299Y47825D01*
X24299Y47075D01*
X24337Y46983D01*
X24375Y46946D01*
X24375Y46152D01*
X24284Y46061D01*
X24250Y45980D01*
X24216Y46061D01*
X24125Y46152D01*
X24125Y48446D01*
X24161Y48483D01*
X24199Y48575D01*
X24200Y48674D01*
X24200Y49424D01*
X24162Y49516D01*
X24111Y49566D01*
X24100Y49625D01*
X24100Y55654D01*
X24100Y56345D01*
X24099Y56404D01*
X24077Y56460D01*
X24034Y56502D01*
X23990Y56520D01*
X23990Y57403D01*
X23750Y57643D01*
X23509Y57403D01*
X23544Y57339D01*
X23717Y57292D01*
X23894Y57314D01*
X23955Y57339D01*
X23990Y57403D01*
X23990Y56520D01*
X23979Y56525D01*
X23862Y56525D01*
X23825Y56487D01*
X23825Y56075D01*
X24062Y56075D01*
X24100Y56112D01*
X24100Y56345D01*
X24100Y55654D01*
X24100Y55887D01*
X24062Y55925D01*
X23825Y55925D01*
X23825Y55512D01*
X23862Y55475D01*
X23979Y55474D01*
X24034Y55497D01*
X24077Y55539D01*
X24099Y55595D01*
X24100Y55654D01*
X24100Y49625D01*
X24096Y49643D01*
X24015Y49765D01*
X23893Y49846D01*
X23750Y49875D01*
X23675Y49860D01*
X23675Y55512D01*
X23675Y55925D01*
X23675Y56075D01*
X23675Y56487D01*
X23637Y56525D01*
X23520Y56525D01*
X23465Y56502D01*
X23422Y56460D01*
X23400Y56404D01*
X23399Y56345D01*
X23400Y56112D01*
X23437Y56075D01*
X23675Y56075D01*
X23675Y55925D01*
X23437Y55925D01*
X23400Y55887D01*
X23399Y55654D01*
X23400Y55595D01*
X23422Y55539D01*
X23465Y55497D01*
X23520Y55474D01*
X23637Y55475D01*
X23675Y55512D01*
X23675Y49860D01*
X23606Y49846D01*
X23484Y49765D01*
X23403Y49643D01*
X23388Y49566D01*
X23338Y49516D01*
X23300Y49424D01*
X23299Y49325D01*
X23299Y48575D01*
X23337Y48483D01*
X23375Y48446D01*
X23375Y46152D01*
X23284Y46061D01*
X23250Y45980D01*
X23216Y46061D01*
X23125Y46152D01*
X23125Y46946D01*
X23161Y46983D01*
X23199Y47075D01*
X23200Y47174D01*
X23200Y47924D01*
X23162Y48016D01*
X23111Y48066D01*
X23096Y48143D01*
X23015Y48265D01*
X22893Y48346D01*
X22750Y48375D01*
X22606Y48346D01*
X22484Y48265D01*
X22403Y48143D01*
X22388Y48066D01*
X22338Y48016D01*
X22300Y47924D01*
X22299Y47825D01*
X22299Y47075D01*
X22337Y46983D01*
X22375Y46946D01*
X22375Y46152D01*
X22284Y46061D01*
X22200Y45859D01*
X22200Y45777D01*
X22185Y45894D01*
X22160Y45955D01*
X22100Y45988D01*
X22100Y48654D01*
X22100Y49345D01*
X22099Y49404D01*
X22077Y49460D01*
X22034Y49502D01*
X21979Y49525D01*
X21862Y49525D01*
X21825Y49487D01*
X21825Y49075D01*
X22062Y49075D01*
X22100Y49112D01*
X22100Y49345D01*
X22100Y48654D01*
X22100Y48887D01*
X22062Y48925D01*
X21825Y48925D01*
X21825Y48512D01*
X21862Y48475D01*
X21979Y48474D01*
X22034Y48497D01*
X22077Y48539D01*
X22099Y48595D01*
X22100Y48654D01*
X22100Y45988D01*
X22096Y45990D01*
X21990Y45884D01*
X21990Y46096D01*
X21955Y46160D01*
X21782Y46207D01*
X21675Y46194D01*
X21675Y48512D01*
X21675Y48925D01*
X21675Y49075D01*
X21675Y49487D01*
X21637Y49525D01*
X21520Y49525D01*
X21465Y49502D01*
X21422Y49460D01*
X21400Y49404D01*
X21399Y49345D01*
X21400Y49112D01*
X21437Y49075D01*
X21675Y49075D01*
X21675Y48925D01*
X21437Y48925D01*
X21400Y48887D01*
X21399Y48654D01*
X21400Y48595D01*
X21422Y48539D01*
X21465Y48497D01*
X21520Y48474D01*
X21637Y48475D01*
X21675Y48512D01*
X21675Y46194D01*
X21605Y46185D01*
X21544Y46160D01*
X21509Y46096D01*
X21750Y45856D01*
X21990Y46096D01*
X21990Y45884D01*
X21856Y45750D01*
X22096Y45509D01*
X22160Y45544D01*
X22199Y45689D01*
X22199Y45641D01*
X22283Y45438D01*
X22347Y45375D01*
X21974Y45375D01*
X21990Y45403D01*
X21750Y45643D01*
X21509Y45403D01*
X21525Y45375D01*
X21289Y45375D01*
X21299Y45400D01*
X21300Y45499D01*
X21300Y45721D01*
X21314Y45605D01*
X21339Y45544D01*
X21403Y45509D01*
X21643Y45750D01*
X21403Y45990D01*
X21339Y45955D01*
X21300Y45810D01*
X21300Y46099D01*
X21262Y46191D01*
X21191Y46261D01*
X21125Y46289D01*
X21125Y46946D01*
X21161Y46983D01*
X21199Y47075D01*
X21200Y47174D01*
X21200Y47924D01*
X21162Y48016D01*
X21111Y48066D01*
X21096Y48143D01*
X21015Y48265D01*
X20893Y48346D01*
X20750Y48375D01*
X20606Y48346D01*
X20484Y48265D01*
X20403Y48143D01*
X20388Y48066D01*
X20338Y48016D01*
X20300Y47924D01*
X20299Y47825D01*
X20299Y47075D01*
X20337Y46983D01*
X20375Y46946D01*
X20375Y46289D01*
X20308Y46262D01*
X20238Y46191D01*
X20200Y46099D01*
X20199Y46000D01*
X20199Y45400D01*
X20210Y45375D01*
X9455Y45375D01*
X9334Y45424D01*
X9165Y45425D01*
X9009Y45360D01*
X8889Y45241D01*
X8875Y45205D01*
X8875Y47250D01*
X8874Y47250D01*
X8846Y47393D01*
X8797Y47466D01*
X8765Y47515D01*
X8765Y47515D01*
X8057Y48222D01*
X7936Y48303D01*
X7792Y48332D01*
X6758Y48332D01*
X6724Y48413D01*
X6654Y48484D01*
X6562Y48522D01*
X6462Y48522D01*
X6068Y48522D01*
X6000Y48625D01*
X16044Y48625D01*
X16165Y48575D01*
X16334Y48574D01*
X16490Y48639D01*
X16610Y48758D01*
X16674Y48915D01*
X16675Y49084D01*
X16610Y49240D01*
X16491Y49360D01*
X16334Y49424D01*
X16165Y49425D01*
X16044Y49375D01*
X7450Y49375D01*
X7450Y50170D01*
X7450Y50829D01*
X7427Y50884D01*
X7385Y50927D01*
X7329Y50949D01*
X7270Y50950D01*
X7112Y50950D01*
X7075Y50912D01*
X7075Y50575D01*
X7412Y50575D01*
X7450Y50612D01*
X7450Y50829D01*
X7450Y50170D01*
X7450Y50387D01*
X7412Y50425D01*
X7075Y50425D01*
X7075Y50087D01*
X7112Y50050D01*
X7270Y50049D01*
X7329Y50050D01*
X7385Y50072D01*
X7427Y50115D01*
X7450Y50170D01*
X7450Y49375D01*
X6925Y49375D01*
X6925Y50087D01*
X6925Y50425D01*
X6925Y50575D01*
X6925Y50912D01*
X6887Y50950D01*
X6729Y50950D01*
X6670Y50949D01*
X6614Y50927D01*
X6572Y50884D01*
X6549Y50829D01*
X6550Y50612D01*
X6587Y50575D01*
X6925Y50575D01*
X6925Y50425D01*
X6587Y50425D01*
X6550Y50387D01*
X6549Y50170D01*
X6572Y50115D01*
X6614Y50072D01*
X6670Y50050D01*
X6729Y50049D01*
X6887Y50050D01*
X6925Y50087D01*
X6925Y49375D01*
X5550Y49375D01*
X5550Y50270D01*
X5550Y50729D01*
X5527Y50784D01*
X5485Y50827D01*
X5429Y50849D01*
X5370Y50850D01*
X5137Y50850D01*
X5100Y50812D01*
X5100Y50575D01*
X5512Y50575D01*
X5550Y50612D01*
X5550Y50729D01*
X5550Y50270D01*
X5550Y50387D01*
X5512Y50425D01*
X5100Y50425D01*
X5100Y50187D01*
X5137Y50150D01*
X5370Y50149D01*
X5429Y50150D01*
X5485Y50172D01*
X5527Y50215D01*
X5550Y50270D01*
X5550Y49375D01*
X4950Y49375D01*
X4950Y50187D01*
X4950Y50425D01*
X4950Y50575D01*
X4950Y50812D01*
X4912Y50850D01*
X4679Y50850D01*
X4620Y50849D01*
X4564Y50827D01*
X4522Y50784D01*
X4499Y50729D01*
X4500Y50612D01*
X4537Y50575D01*
X4950Y50575D01*
X4950Y50425D01*
X4537Y50425D01*
X4500Y50387D01*
X4499Y50270D01*
X4522Y50215D01*
X4564Y50172D01*
X4620Y50150D01*
X4679Y50149D01*
X4912Y50150D01*
X4950Y50187D01*
X4950Y49375D01*
X4000Y49375D01*
X3856Y49346D01*
X3734Y49265D01*
X3484Y49015D01*
X3403Y48893D01*
X3375Y48750D01*
X3375Y48250D01*
X3403Y48106D01*
X3484Y47984D01*
X3777Y47692D01*
X3777Y47692D01*
X3899Y47610D01*
X4042Y47582D01*
X4258Y47582D01*
X4292Y47500D01*
X4362Y47430D01*
X4454Y47392D01*
X4554Y47392D01*
X4948Y47392D01*
X5032Y47266D01*
X5250Y47120D01*
X5508Y47069D01*
X5766Y47120D01*
X5984Y47266D01*
X6068Y47392D01*
X6562Y47392D01*
X6653Y47430D01*
X6724Y47500D01*
X6758Y47582D01*
X7637Y47582D01*
X8125Y47094D01*
X8125Y42655D01*
X7986Y42516D01*
X7783Y42516D01*
X7750Y42598D01*
X7679Y42668D01*
X7587Y42706D01*
X7488Y42706D01*
X7094Y42706D01*
X7010Y42831D01*
X6791Y42978D01*
X6534Y43029D01*
X6276Y42978D01*
X6057Y42831D01*
X5973Y42706D01*
X5480Y42706D01*
X5388Y42668D01*
X5318Y42598D01*
X5284Y42516D01*
X5141Y42516D01*
X4998Y42488D01*
X4876Y42406D01*
X4589Y42119D01*
X4589Y44695D01*
X4584Y45326D01*
X4351Y45889D01*
X4169Y46063D01*
X4063Y45957D01*
X4063Y46169D01*
X3889Y46351D01*
X3304Y46589D01*
X2673Y46584D01*
X2110Y46351D01*
X1936Y46169D01*
X3000Y45106D01*
X4063Y46169D01*
X4063Y45957D01*
X3106Y45000D01*
X4169Y43936D01*
X4351Y44110D01*
X4589Y44695D01*
X4589Y42119D01*
X4484Y42015D01*
X4403Y41893D01*
X4375Y41750D01*
X4375Y36750D01*
X4403Y36606D01*
X4484Y36484D01*
X4908Y36060D01*
X5030Y35979D01*
X5173Y35951D01*
X6309Y35951D01*
X6343Y35869D01*
X6413Y35799D01*
X6505Y35761D01*
X6605Y35761D01*
X6999Y35761D01*
X7083Y35635D01*
X7301Y35489D01*
X7559Y35438D01*
X7817Y35489D01*
X8035Y35635D01*
X8119Y35761D01*
X8612Y35761D01*
X8704Y35799D01*
X8775Y35869D01*
X8809Y35951D01*
X10447Y35951D01*
X10508Y35889D01*
X10665Y35825D01*
X10834Y35824D01*
X10990Y35889D01*
X11110Y36008D01*
X11174Y36165D01*
X11175Y36334D01*
X11110Y36490D01*
X10991Y36610D01*
X10834Y36674D01*
X10805Y36674D01*
X10673Y36701D01*
X8809Y36701D01*
X8775Y36782D01*
X8705Y36852D01*
X8613Y36891D01*
X8513Y36891D01*
X8119Y36891D01*
X8035Y37016D01*
X7817Y37162D01*
X7559Y37213D01*
X7301Y37162D01*
X7083Y37016D01*
X6999Y36891D01*
X6506Y36891D01*
X6414Y36853D01*
X6343Y36782D01*
X6309Y36701D01*
X5329Y36701D01*
X5125Y36905D01*
X5125Y41594D01*
X5288Y41757D01*
X5318Y41685D01*
X5388Y41614D01*
X5480Y41576D01*
X5579Y41576D01*
X5973Y41576D01*
X6057Y41451D01*
X6276Y41305D01*
X6534Y41254D01*
X6791Y41305D01*
X7010Y41451D01*
X7094Y41576D01*
X7587Y41576D01*
X7679Y41614D01*
X7749Y41684D01*
X7783Y41766D01*
X8141Y41766D01*
X8285Y41795D01*
X8406Y41876D01*
X8765Y42234D01*
X8765Y42234D01*
X8846Y42356D01*
X8874Y42499D01*
X8875Y42500D01*
X8875Y44794D01*
X8889Y44759D01*
X9008Y44639D01*
X9165Y44575D01*
X9334Y44574D01*
X9455Y44625D01*
X17841Y44625D01*
X17825Y44584D01*
X17824Y44424D01*
X17665Y44425D01*
X17509Y44360D01*
X17389Y44241D01*
X17325Y44084D01*
X17324Y43924D01*
X17165Y43925D01*
X17009Y43860D01*
X16889Y43741D01*
X16825Y43584D01*
X16824Y43424D01*
X16665Y43425D01*
X16509Y43360D01*
X16389Y43241D01*
X16325Y43084D01*
X16324Y42915D01*
X16389Y42759D01*
X16508Y42639D01*
X16665Y42575D01*
X16834Y42574D01*
X16955Y42625D01*
X28000Y42625D01*
X28143Y42653D01*
X28265Y42734D01*
X30730Y45200D01*
X30858Y45199D01*
X31061Y45283D01*
X31215Y45438D01*
X31249Y45519D01*
X31283Y45438D01*
X31438Y45284D01*
X31640Y45200D01*
X31858Y45199D01*
X32061Y45283D01*
X32215Y45438D01*
X32299Y45640D01*
X32300Y45858D01*
X32300Y31375D01*
X29425Y31375D01*
X29425Y34584D01*
X29360Y34740D01*
X29241Y34860D01*
X29084Y34924D01*
X28915Y34925D01*
X28759Y34860D01*
X28758Y34859D01*
X28301Y34859D01*
X28267Y34941D01*
X28197Y35011D01*
X28105Y35049D01*
X28005Y35049D01*
X27611Y35049D01*
X27527Y35175D01*
X27309Y35321D01*
X27051Y35372D01*
X26793Y35321D01*
X26575Y35175D01*
X26491Y35049D01*
X25998Y35049D01*
X25906Y35011D01*
X25835Y34941D01*
X25801Y34859D01*
X25670Y34859D01*
X25265Y35265D01*
X25265Y35265D01*
X25265Y35265D01*
X25125Y35405D01*
X25125Y37970D01*
X25151Y37905D01*
X25222Y37835D01*
X25313Y37797D01*
X25413Y37797D01*
X25807Y37797D01*
X25891Y37671D01*
X26110Y37525D01*
X26367Y37474D01*
X26625Y37525D01*
X26844Y37671D01*
X26927Y37797D01*
X27421Y37797D01*
X27513Y37835D01*
X27583Y37905D01*
X27618Y37988D01*
X27755Y38015D01*
X27877Y38096D01*
X28265Y38484D01*
X28265Y38484D01*
X28346Y38606D01*
X28374Y38750D01*
X28375Y38750D01*
X28375Y41000D01*
X28346Y41143D01*
X28265Y41265D01*
X28265Y41265D01*
X27265Y42265D01*
X27143Y42346D01*
X27000Y42375D01*
X15500Y42375D01*
X15356Y42346D01*
X15234Y42265D01*
X14984Y42015D01*
X14903Y41893D01*
X14875Y41750D01*
X14875Y39415D01*
X14899Y39289D01*
X14899Y38895D01*
X14937Y38803D01*
X15008Y38733D01*
X15100Y38695D01*
X15199Y38694D01*
X15399Y38694D01*
X15491Y38732D01*
X15499Y38741D01*
X15508Y38733D01*
X15600Y38695D01*
X15699Y38694D01*
X15899Y38694D01*
X15991Y38732D01*
X15999Y38741D01*
X16008Y38733D01*
X16100Y38695D01*
X16199Y38694D01*
X16399Y38694D01*
X16491Y38732D01*
X16499Y38741D01*
X16508Y38733D01*
X16600Y38695D01*
X16699Y38694D01*
X16899Y38694D01*
X16991Y38732D01*
X16999Y38741D01*
X17008Y38733D01*
X17100Y38695D01*
X17199Y38694D01*
X17399Y38694D01*
X17491Y38732D01*
X17499Y38741D01*
X17508Y38733D01*
X17600Y38695D01*
X17699Y38694D01*
X17899Y38694D01*
X17991Y38732D01*
X17999Y38741D01*
X18008Y38733D01*
X18100Y38695D01*
X18199Y38694D01*
X18399Y38694D01*
X18491Y38732D01*
X18561Y38803D01*
X18567Y38816D01*
X18620Y38795D01*
X18679Y38794D01*
X18662Y38795D01*
X18700Y38832D01*
X18700Y39340D01*
X18667Y39340D01*
X18667Y39490D01*
X18700Y39490D01*
X18700Y39997D01*
X18662Y40035D01*
X18679Y40035D01*
X18625Y40034D01*
X18625Y40794D01*
X18674Y40915D01*
X18675Y41084D01*
X18610Y41240D01*
X18491Y41360D01*
X18334Y41424D01*
X18174Y41425D01*
X18175Y41584D01*
X18158Y41625D01*
X26844Y41625D01*
X27625Y40844D01*
X27625Y38905D01*
X27561Y38841D01*
X27513Y38888D01*
X27421Y38927D01*
X27322Y38927D01*
X26927Y38927D01*
X26844Y39052D01*
X26625Y39198D01*
X26367Y39249D01*
X26110Y39198D01*
X25891Y39052D01*
X25807Y38927D01*
X25314Y38927D01*
X25222Y38889D01*
X25152Y38818D01*
X25118Y38737D01*
X24862Y38737D01*
X24718Y38708D01*
X24596Y38627D01*
X24484Y38515D01*
X24403Y38393D01*
X24375Y38250D01*
X24375Y35250D01*
X24403Y35106D01*
X24484Y34984D01*
X24734Y34734D01*
X24734Y34734D01*
X24734Y34734D01*
X25249Y34219D01*
X25371Y34138D01*
X25515Y34109D01*
X25801Y34109D01*
X25835Y34028D01*
X25905Y33958D01*
X25997Y33919D01*
X26097Y33919D01*
X26491Y33919D01*
X26575Y33794D01*
X26793Y33648D01*
X27051Y33597D01*
X27309Y33648D01*
X27527Y33794D01*
X27611Y33919D01*
X28104Y33919D01*
X28196Y33957D01*
X28267Y34028D01*
X28301Y34109D01*
X28831Y34109D01*
X28915Y34075D01*
X29084Y34074D01*
X29240Y34139D01*
X29360Y34258D01*
X29424Y34415D01*
X29425Y34584D01*
X29425Y31375D01*
X20447Y31375D01*
X20447Y38076D01*
X20447Y38430D01*
X20409Y38522D01*
X20345Y38585D01*
X20347Y38589D01*
X20347Y39002D01*
X20324Y39057D01*
X20282Y39100D01*
X20226Y39122D01*
X20167Y39123D01*
X20112Y39123D01*
X20075Y39085D01*
X20075Y38871D01*
X20309Y38871D01*
X20347Y38908D01*
X20347Y39002D01*
X20347Y38589D01*
X20347Y38683D01*
X20309Y38721D01*
X20075Y38721D01*
X20075Y38713D01*
X19925Y38713D01*
X19925Y38721D01*
X19925Y38871D01*
X19925Y39085D01*
X19887Y39123D01*
X19832Y39123D01*
X19773Y39122D01*
X19717Y39100D01*
X19675Y39057D01*
X19652Y39002D01*
X19653Y38908D01*
X19690Y38871D01*
X19925Y38871D01*
X19925Y38721D01*
X19690Y38721D01*
X19653Y38683D01*
X19652Y38589D01*
X19654Y38585D01*
X19591Y38522D01*
X19553Y38430D01*
X19552Y38331D01*
X19552Y37977D01*
X19590Y37885D01*
X19625Y37851D01*
X19625Y37205D01*
X19591Y37125D01*
X19155Y37125D01*
X19125Y37155D01*
X19125Y37585D01*
X19100Y37710D01*
X19100Y38104D01*
X19062Y38196D01*
X19000Y38258D01*
X19000Y38915D01*
X19000Y39914D01*
X18977Y39969D01*
X18935Y40012D01*
X18879Y40034D01*
X18820Y40035D01*
X18837Y40035D01*
X18800Y39997D01*
X18800Y39490D01*
X18962Y39490D01*
X19000Y39527D01*
X19000Y39914D01*
X19000Y38915D01*
X19000Y39302D01*
X18962Y39340D01*
X18800Y39340D01*
X18800Y38832D01*
X18837Y38795D01*
X18820Y38794D01*
X18879Y38795D01*
X18935Y38817D01*
X18977Y38860D01*
X19000Y38915D01*
X19000Y38258D01*
X18991Y38266D01*
X18899Y38304D01*
X18800Y38305D01*
X18600Y38305D01*
X18508Y38267D01*
X18500Y38258D01*
X18491Y38266D01*
X18399Y38304D01*
X18300Y38305D01*
X18100Y38305D01*
X18008Y38267D01*
X18000Y38258D01*
X17991Y38266D01*
X17899Y38304D01*
X17800Y38305D01*
X17600Y38305D01*
X17508Y38267D01*
X17500Y38258D01*
X17491Y38266D01*
X17399Y38304D01*
X17300Y38305D01*
X17100Y38305D01*
X17008Y38267D01*
X17000Y38258D01*
X16991Y38266D01*
X16899Y38304D01*
X16800Y38305D01*
X16600Y38305D01*
X16508Y38267D01*
X16500Y38258D01*
X16491Y38266D01*
X16399Y38304D01*
X16300Y38305D01*
X16100Y38305D01*
X16008Y38267D01*
X16000Y38258D01*
X15991Y38266D01*
X15899Y38304D01*
X15800Y38305D01*
X15600Y38305D01*
X15508Y38267D01*
X15500Y38258D01*
X15491Y38266D01*
X15399Y38304D01*
X15300Y38305D01*
X15100Y38305D01*
X15008Y38267D01*
X14938Y38196D01*
X14900Y38104D01*
X14899Y38005D01*
X14899Y37710D01*
X14875Y37585D01*
X14875Y36705D01*
X14825Y36584D01*
X14824Y36415D01*
X14889Y36259D01*
X15008Y36139D01*
X15165Y36075D01*
X15334Y36074D01*
X15375Y36091D01*
X15375Y35455D01*
X15325Y35334D01*
X15324Y35165D01*
X15389Y35009D01*
X15508Y34889D01*
X15665Y34825D01*
X15794Y34824D01*
X15094Y34125D01*
X5705Y34125D01*
X5584Y34174D01*
X5415Y34175D01*
X5259Y34110D01*
X5139Y33991D01*
X5075Y33834D01*
X5074Y33665D01*
X5139Y33509D01*
X5258Y33389D01*
X5415Y33325D01*
X5584Y33324D01*
X5705Y33375D01*
X6591Y33375D01*
X6575Y33334D01*
X6574Y33165D01*
X6591Y33125D01*
X6205Y33125D01*
X6084Y33174D01*
X5915Y33175D01*
X5759Y33110D01*
X5639Y32991D01*
X5575Y32834D01*
X5574Y32665D01*
X5639Y32509D01*
X5758Y32389D01*
X5915Y32325D01*
X6084Y32324D01*
X6205Y32375D01*
X16250Y32375D01*
X16393Y32403D01*
X16515Y32484D01*
X18015Y33984D01*
X18015Y33984D01*
X18096Y34106D01*
X18124Y34250D01*
X18125Y34250D01*
X18125Y35126D01*
X18137Y35127D01*
X18175Y35164D01*
X18175Y35379D01*
X18167Y35379D01*
X18167Y35529D01*
X18175Y35529D01*
X18175Y35536D01*
X18325Y35536D01*
X18325Y35529D01*
X18559Y35529D01*
X18597Y35566D01*
X18597Y35660D01*
X18595Y35664D01*
X18658Y35727D01*
X18696Y35819D01*
X18697Y35918D01*
X18697Y36272D01*
X18659Y36364D01*
X18588Y36434D01*
X18550Y36450D01*
X18550Y36669D01*
X18734Y36484D01*
X18734Y36484D01*
X18856Y36403D01*
X19000Y36375D01*
X19750Y36375D01*
X19893Y36403D01*
X20015Y36484D01*
X20120Y36589D01*
X20240Y36639D01*
X20360Y36758D01*
X20424Y36915D01*
X20425Y37084D01*
X20375Y37205D01*
X20375Y37851D01*
X20408Y37885D01*
X20446Y37977D01*
X20447Y38076D01*
X20447Y31375D01*
X18597Y31375D01*
X18597Y35247D01*
X18597Y35341D01*
X18559Y35379D01*
X18325Y35379D01*
X18325Y35164D01*
X18362Y35127D01*
X18417Y35126D01*
X18476Y35127D01*
X18532Y35149D01*
X18574Y35192D01*
X18597Y35247D01*
X18597Y31375D01*
X18455Y31375D01*
X18334Y31424D01*
X18165Y31425D01*
X18009Y31360D01*
X17889Y31241D01*
X17825Y31084D01*
X17824Y30915D01*
X17889Y30759D01*
X18008Y30639D01*
X18165Y30575D01*
X18334Y30574D01*
X18455Y30625D01*
X18832Y30625D01*
X18794Y30569D01*
X18301Y30569D01*
X18209Y30531D01*
X18139Y30461D01*
X18105Y30379D01*
X17944Y30379D01*
X17834Y30424D01*
X17665Y30425D01*
X17509Y30360D01*
X17389Y30241D01*
X17325Y30084D01*
X17324Y29915D01*
X17389Y29759D01*
X17508Y29639D01*
X17665Y29575D01*
X17834Y29574D01*
X17966Y29629D01*
X18105Y29629D01*
X18138Y29548D01*
X18209Y29477D01*
X18301Y29439D01*
X18400Y29439D01*
X18794Y29439D01*
X18878Y29314D01*
X19097Y29168D01*
X19355Y29116D01*
X19612Y29168D01*
X19831Y29314D01*
X19915Y29439D01*
X20408Y29439D01*
X20500Y29477D01*
X20570Y29547D01*
X20604Y29629D01*
X22042Y29629D01*
X22076Y29548D01*
X22146Y29477D01*
X22238Y29439D01*
X22337Y29439D01*
X22731Y29439D01*
X22815Y29314D01*
X23034Y29168D01*
X23292Y29116D01*
X23549Y29168D01*
X23768Y29314D01*
X23852Y29439D01*
X24345Y29439D01*
X24437Y29477D01*
X24507Y29547D01*
X24541Y29629D01*
X26318Y29629D01*
X25689Y29000D01*
X17250Y29000D01*
X17000Y29000D01*
X16250Y29000D01*
X15962Y28942D01*
X15719Y28780D01*
X15557Y28537D01*
X15500Y28250D01*
X15557Y27962D01*
X15719Y27719D01*
X15962Y27557D01*
X16250Y27500D01*
X17000Y27500D01*
X17250Y27500D01*
X26000Y27500D01*
X26000Y27500D01*
X26287Y27557D01*
X26530Y27719D01*
X27375Y28564D01*
X27375Y28155D01*
X26234Y27015D01*
X26153Y26893D01*
X26125Y26750D01*
X26125Y26000D01*
X26153Y25856D01*
X26234Y25734D01*
X26613Y25355D01*
X26735Y25274D01*
X26878Y25246D01*
X27266Y25246D01*
X27299Y25164D01*
X27370Y25094D01*
X27461Y25056D01*
X27561Y25056D01*
X27955Y25056D01*
X28039Y24930D01*
X28258Y24784D01*
X28515Y24733D01*
X28773Y24784D01*
X28992Y24930D01*
X29075Y25056D01*
X29569Y25056D01*
X29661Y25094D01*
X29731Y25164D01*
X29765Y25246D01*
X30473Y25246D01*
X30625Y25094D01*
X30625Y22155D01*
X30588Y22118D01*
X30449Y22118D01*
X30415Y22200D01*
X30345Y22270D01*
X30253Y22308D01*
X30153Y22308D01*
X29759Y22308D01*
X29675Y22434D01*
X29457Y22580D01*
X29199Y22631D01*
X28941Y22580D01*
X28723Y22434D01*
X28639Y22308D01*
X28146Y22308D01*
X28054Y22270D01*
X27983Y22200D01*
X27949Y22118D01*
X19219Y22118D01*
X19084Y22174D01*
X18925Y22175D01*
X18925Y24084D01*
X18860Y24240D01*
X18741Y24360D01*
X18584Y24424D01*
X18415Y24425D01*
X18259Y24360D01*
X18139Y24241D01*
X18089Y24119D01*
X17898Y23928D01*
X10971Y23928D01*
X10938Y24010D01*
X10868Y24080D01*
X10776Y24118D01*
X10676Y24118D01*
X10282Y24118D01*
X10198Y24244D01*
X9980Y24390D01*
X9722Y24441D01*
X9464Y24390D01*
X9245Y24244D01*
X9162Y24118D01*
X8668Y24118D01*
X8576Y24081D01*
X8506Y24010D01*
X8472Y23928D01*
X8303Y23928D01*
X8160Y23900D01*
X8038Y23819D01*
X7484Y23265D01*
X7403Y23143D01*
X7375Y23000D01*
X7375Y19250D01*
X7403Y19106D01*
X7484Y18984D01*
X9019Y17450D01*
X9019Y17450D01*
X9140Y17369D01*
X9284Y17340D01*
X9502Y17340D01*
X9535Y17259D01*
X9606Y17188D01*
X9697Y17150D01*
X9797Y17150D01*
X10191Y17150D01*
X10275Y17025D01*
X10493Y16879D01*
X10751Y16828D01*
X11009Y16879D01*
X11228Y17025D01*
X11311Y17150D01*
X11805Y17150D01*
X11897Y17188D01*
X11967Y17259D01*
X12001Y17340D01*
X12378Y17340D01*
X13125Y16594D01*
X13125Y12405D01*
X13013Y12294D01*
X12997Y12333D01*
X12926Y12404D01*
X12835Y12442D01*
X12735Y12442D01*
X12341Y12442D01*
X12257Y12567D01*
X12039Y12713D01*
X11781Y12765D01*
X11523Y12713D01*
X11304Y12567D01*
X11221Y12442D01*
X10727Y12442D01*
X10635Y12404D01*
X10565Y12334D01*
X10531Y12252D01*
X7756Y12252D01*
X7698Y12291D01*
X7555Y12319D01*
X7500Y12319D01*
X4929Y12319D01*
X4895Y12401D01*
X4825Y12471D01*
X4733Y12509D01*
X4634Y12509D01*
X4239Y12509D01*
X4162Y12625D01*
X4544Y12625D01*
X4665Y12575D01*
X4834Y12574D01*
X4990Y12639D01*
X5110Y12758D01*
X5174Y12915D01*
X5175Y13084D01*
X5110Y13240D01*
X4991Y13360D01*
X4834Y13424D01*
X4665Y13425D01*
X4589Y13393D01*
X4589Y14695D01*
X4584Y15326D01*
X4351Y15889D01*
X4169Y16063D01*
X4063Y15957D01*
X4063Y16169D01*
X4063Y43830D01*
X3000Y44893D01*
X2893Y44787D01*
X2893Y45000D01*
X1830Y46063D01*
X1648Y45889D01*
X1500Y45524D01*
X1500Y50270D01*
X1500Y50729D01*
X1477Y50784D01*
X1435Y50827D01*
X1379Y50849D01*
X1320Y50850D01*
X1087Y50850D01*
X1050Y50812D01*
X1050Y50575D01*
X1462Y50575D01*
X1500Y50612D01*
X1500Y50729D01*
X1500Y50270D01*
X1500Y50387D01*
X1462Y50425D01*
X1050Y50425D01*
X1050Y50187D01*
X1087Y50150D01*
X1320Y50149D01*
X1379Y50150D01*
X1435Y50172D01*
X1477Y50215D01*
X1500Y50270D01*
X1500Y45524D01*
X1410Y45304D01*
X1415Y44673D01*
X1648Y44110D01*
X1830Y43936D01*
X2893Y45000D01*
X2893Y44787D01*
X1936Y43830D01*
X2110Y43648D01*
X2695Y43410D01*
X3326Y43415D01*
X3889Y43648D01*
X4063Y43830D01*
X4063Y16169D01*
X3889Y16351D01*
X3304Y16589D01*
X2673Y16584D01*
X2110Y16351D01*
X1936Y16169D01*
X3000Y15106D01*
X4063Y16169D01*
X4063Y15957D01*
X3106Y15000D01*
X4169Y13936D01*
X4351Y14110D01*
X4589Y14695D01*
X4589Y13393D01*
X4544Y13375D01*
X4063Y13375D01*
X4063Y13830D01*
X3000Y14893D01*
X2893Y14787D01*
X2893Y15000D01*
X1830Y16063D01*
X1648Y15889D01*
X1410Y15304D01*
X1415Y14673D01*
X1648Y14110D01*
X1830Y13936D01*
X2893Y15000D01*
X2893Y14787D01*
X1936Y13830D01*
X2110Y13648D01*
X2695Y13410D01*
X3326Y13415D01*
X3889Y13648D01*
X4063Y13830D01*
X4063Y13375D01*
X2250Y13375D01*
X2106Y13346D01*
X1984Y13265D01*
X1609Y12890D01*
X1528Y12768D01*
X1500Y12625D01*
X1500Y12125D01*
X1528Y11981D01*
X1609Y11859D01*
X1789Y11679D01*
X1911Y11598D01*
X2055Y11569D01*
X2430Y11569D01*
X2463Y11488D01*
X2534Y11418D01*
X2625Y11379D01*
X2725Y11379D01*
X3119Y11379D01*
X3203Y11254D01*
X3421Y11108D01*
X3679Y11057D01*
X3937Y11108D01*
X4156Y11254D01*
X4239Y11379D01*
X4733Y11379D01*
X4825Y11417D01*
X4895Y11488D01*
X4929Y11569D01*
X7344Y11569D01*
X8679Y10234D01*
X8801Y10153D01*
X8944Y10125D01*
X16044Y10125D01*
X16165Y10075D01*
X16334Y10074D01*
X16490Y10139D01*
X16610Y10258D01*
X16674Y10415D01*
X16675Y10584D01*
X16610Y10740D01*
X16491Y10860D01*
X16334Y10924D01*
X16165Y10925D01*
X16044Y10875D01*
X9100Y10875D01*
X8472Y11502D01*
X10531Y11502D01*
X10565Y11421D01*
X10635Y11350D01*
X10727Y11312D01*
X10826Y11312D01*
X11221Y11312D01*
X11304Y11187D01*
X11523Y11041D01*
X11781Y10989D01*
X12039Y11041D01*
X12257Y11187D01*
X12341Y11312D01*
X12834Y11312D01*
X12926Y11350D01*
X12996Y11420D01*
X13030Y11502D01*
X13127Y11502D01*
X13271Y11531D01*
X13392Y11612D01*
X13765Y11984D01*
X13846Y12106D01*
X13874Y12250D01*
X13875Y12250D01*
X13875Y16750D01*
X13846Y16893D01*
X13765Y17015D01*
X13765Y17015D01*
X12799Y17980D01*
X12677Y18062D01*
X12534Y18090D01*
X12001Y18090D01*
X11967Y18172D01*
X11897Y18242D01*
X11805Y18280D01*
X11706Y18280D01*
X11311Y18280D01*
X11228Y18406D01*
X11009Y18552D01*
X10751Y18603D01*
X10493Y18552D01*
X10275Y18406D01*
X10191Y18280D01*
X9698Y18280D01*
X9606Y18242D01*
X9536Y18172D01*
X9502Y18090D01*
X9439Y18090D01*
X8125Y19405D01*
X8125Y22844D01*
X8459Y23178D01*
X8472Y23178D01*
X8506Y23097D01*
X8576Y23027D01*
X8668Y22989D01*
X8767Y22988D01*
X9162Y22988D01*
X9245Y22863D01*
X9464Y22717D01*
X9722Y22666D01*
X9980Y22717D01*
X10198Y22863D01*
X10282Y22988D01*
X10775Y22988D01*
X10867Y23026D01*
X10938Y23097D01*
X10972Y23178D01*
X18053Y23178D01*
X18197Y23207D01*
X18319Y23288D01*
X18620Y23589D01*
X18740Y23639D01*
X18860Y23758D01*
X18924Y23915D01*
X18925Y24084D01*
X18925Y22175D01*
X18915Y22175D01*
X18759Y22110D01*
X18639Y21991D01*
X18575Y21834D01*
X18574Y21665D01*
X18639Y21509D01*
X18758Y21389D01*
X18915Y21325D01*
X19084Y21324D01*
X19190Y21368D01*
X27949Y21368D01*
X27983Y21287D01*
X28053Y21217D01*
X28145Y21178D01*
X28245Y21178D01*
X28639Y21178D01*
X28723Y21053D01*
X28941Y20907D01*
X29199Y20856D01*
X29457Y20907D01*
X29675Y21053D01*
X29759Y21178D01*
X30252Y21178D01*
X30344Y21216D01*
X30415Y21287D01*
X30449Y21368D01*
X30743Y21368D01*
X30887Y21397D01*
X31009Y21478D01*
X31265Y21734D01*
X31346Y21856D01*
X31374Y22000D01*
X31375Y22000D01*
X31375Y25250D01*
X31374Y25250D01*
X31346Y25393D01*
X31265Y25515D01*
X31265Y25515D01*
X30894Y25886D01*
X30772Y25967D01*
X30628Y25996D01*
X29765Y25996D01*
X29731Y26077D01*
X29661Y26147D01*
X29569Y26185D01*
X29470Y26186D01*
X29075Y26186D01*
X28992Y26311D01*
X28773Y26457D01*
X28515Y26508D01*
X28258Y26457D01*
X28039Y26311D01*
X27955Y26186D01*
X27462Y26186D01*
X27370Y26148D01*
X27300Y26077D01*
X27266Y25996D01*
X27034Y25996D01*
X26875Y26155D01*
X26875Y26594D01*
X28015Y27734D01*
X28096Y27856D01*
X28125Y28000D01*
X28125Y29314D01*
X28280Y29469D01*
X28387Y29629D01*
X30944Y29629D01*
X30977Y29548D01*
X31048Y29477D01*
X31140Y29439D01*
X31239Y29439D01*
X31633Y29439D01*
X31717Y29314D01*
X31936Y29168D01*
X32193Y29116D01*
X32451Y29168D01*
X32670Y29314D01*
X32753Y29439D01*
X33247Y29439D01*
X33339Y29477D01*
X33409Y29547D01*
X33443Y29629D01*
X34881Y29629D01*
X34914Y29548D01*
X34985Y29477D01*
X35077Y29439D01*
X35176Y29439D01*
X35570Y29439D01*
X35654Y29314D01*
X35873Y29168D01*
X36130Y29116D01*
X36388Y29168D01*
X36607Y29314D01*
X36690Y29439D01*
X37184Y29439D01*
X37276Y29477D01*
X37346Y29547D01*
X37380Y29629D01*
X37754Y29629D01*
X37897Y29657D01*
X38019Y29739D01*
X38265Y29984D01*
X38265Y29984D01*
X38346Y30106D01*
X38374Y30250D01*
X38375Y30250D01*
X38375Y16461D01*
X38110Y16351D01*
X37936Y16169D01*
X39000Y15106D01*
X40063Y16169D01*
X40063Y15957D01*
X39106Y15000D01*
X40169Y13936D01*
X40351Y14110D01*
X40589Y14695D01*
X40589Y6661D01*
X40394Y6741D01*
X40220Y6742D01*
X40220Y7821D01*
X40220Y9356D01*
X40182Y9448D01*
X40112Y9518D01*
X40063Y9539D01*
X40063Y13830D01*
X39000Y14893D01*
X38893Y14787D01*
X38893Y15000D01*
X37830Y16063D01*
X37648Y15889D01*
X37410Y15304D01*
X37415Y14673D01*
X37648Y14110D01*
X37830Y13936D01*
X38893Y15000D01*
X38893Y14787D01*
X37936Y13830D01*
X38110Y13648D01*
X38695Y13410D01*
X39326Y13415D01*
X39889Y13648D01*
X40063Y13830D01*
X40063Y9539D01*
X40020Y9557D01*
X39920Y9557D01*
X37480Y9557D01*
X37388Y9519D01*
X37317Y9448D01*
X37279Y9357D01*
X37279Y9257D01*
X37279Y7722D01*
X37317Y7630D01*
X37387Y7559D01*
X37479Y7521D01*
X37579Y7521D01*
X40019Y7521D01*
X40111Y7559D01*
X40182Y7629D01*
X40220Y7721D01*
X40220Y7821D01*
X40220Y6742D01*
X40099Y6742D01*
X39826Y6629D01*
X39617Y6420D01*
X39504Y6148D01*
X39503Y5853D01*
X39616Y5580D01*
X39825Y5371D01*
X40097Y5258D01*
X40393Y5257D01*
X40665Y5370D01*
X40874Y5579D01*
X40988Y5851D01*
X40988Y6146D01*
X40988Y269D01*
X40120Y269D01*
X40120Y2722D01*
X40120Y4198D01*
X40120Y4258D01*
X40097Y4313D01*
X40055Y4355D01*
X40000Y4378D01*
X38862Y4378D01*
X38825Y4340D01*
X38825Y3535D01*
X40082Y3535D01*
X40120Y3573D01*
X40120Y4198D01*
X40120Y2722D01*
X40120Y3348D01*
X40082Y3385D01*
X38825Y3385D01*
X38825Y2580D01*
X38862Y2542D01*
X40000Y2542D01*
X40055Y2565D01*
X40097Y2607D01*
X40120Y2662D01*
X40120Y2722D01*
X40120Y269D01*
X38675Y269D01*
X38675Y2580D01*
X38675Y3385D01*
X38675Y3535D01*
X38675Y4340D01*
X38637Y4378D01*
X37499Y4378D01*
X37444Y4355D01*
X37402Y4313D01*
X37379Y4258D01*
X37379Y4198D01*
X37379Y3573D01*
X37417Y3535D01*
X38675Y3535D01*
X38675Y3385D01*
X37417Y3385D01*
X37379Y3348D01*
X37379Y2722D01*
X37379Y2662D01*
X37402Y2607D01*
X37444Y2565D01*
X37499Y2542D01*
X38637Y2542D01*
X38675Y2580D01*
X38675Y269D01*
X36322Y269D01*
X36322Y5399D01*
X36322Y6699D01*
X36284Y6791D01*
X36214Y6861D01*
X36122Y6899D01*
X36023Y6899D01*
X34291Y6899D01*
X34199Y6861D01*
X34128Y6791D01*
X34111Y6750D01*
X31659Y6750D01*
X31659Y7151D01*
X31621Y7243D01*
X31551Y7314D01*
X31459Y7352D01*
X31359Y7352D01*
X30454Y7352D01*
X30362Y7314D01*
X30292Y7244D01*
X30253Y7152D01*
X30253Y7052D01*
X30253Y6237D01*
X30206Y6000D01*
X30253Y5762D01*
X30253Y4848D01*
X30291Y4756D01*
X30362Y4685D01*
X30453Y4647D01*
X30553Y4647D01*
X31458Y4647D01*
X31550Y4685D01*
X31621Y4755D01*
X31659Y4847D01*
X31659Y4947D01*
X31659Y5250D01*
X34111Y5250D01*
X34128Y5208D01*
X34198Y5138D01*
X34290Y5100D01*
X34390Y5100D01*
X36122Y5100D01*
X36214Y5138D01*
X36284Y5208D01*
X36322Y5300D01*
X36322Y5399D01*
X36322Y269D01*
X269Y269D01*
X269Y1476D01*
X646Y1100D01*
X8353Y1100D01*
X9000Y1746D01*
X9000Y1750D01*
X16250Y1750D01*
X23250Y1750D01*
X23250Y1750D01*
X23537Y1807D01*
X23780Y1969D01*
X27060Y5250D01*
X27340Y5250D01*
X27340Y4848D01*
X27378Y4756D01*
X27448Y4685D01*
X27540Y4647D01*
X27640Y4647D01*
X28545Y4647D01*
X28637Y4685D01*
X28707Y4755D01*
X28746Y4847D01*
X28746Y4947D01*
X28746Y5762D01*
X28793Y6000D01*
X28746Y6237D01*
X28746Y7151D01*
X28708Y7243D01*
X28637Y7314D01*
X28546Y7352D01*
X28446Y7352D01*
X27541Y7352D01*
X27449Y7314D01*
X27378Y7244D01*
X27340Y7152D01*
X27340Y7052D01*
X27340Y6750D01*
X27060Y6750D01*
X27030Y6780D01*
X26787Y6942D01*
X26500Y7000D01*
X24450Y7000D01*
X24450Y9800D01*
X24503Y9800D01*
X24700Y9996D01*
X24700Y11103D01*
X24503Y11300D01*
X21546Y11300D01*
X21396Y11150D01*
X19650Y11150D01*
X19458Y11111D01*
X19296Y11003D01*
X19188Y10841D01*
X19157Y10687D01*
X18734Y10265D01*
X18653Y10143D01*
X18625Y10000D01*
X18625Y5750D01*
X18653Y5606D01*
X18734Y5484D01*
X18984Y5234D01*
X18984Y5234D01*
X19106Y5153D01*
X19250Y5125D01*
X19750Y5125D01*
X19893Y5153D01*
X20015Y5234D01*
X20265Y5484D01*
X20265Y5484D01*
X20346Y5606D01*
X20374Y5750D01*
X20375Y5750D01*
X20375Y5851D01*
X20408Y5885D01*
X20446Y5977D01*
X20447Y6076D01*
X20447Y6430D01*
X20418Y6500D01*
X20446Y6569D01*
X20447Y6668D01*
X20447Y6825D01*
X20692Y6825D01*
X20728Y6790D01*
X20820Y6752D01*
X20919Y6751D01*
X21234Y6751D01*
X21326Y6789D01*
X21396Y6860D01*
X21434Y6952D01*
X21435Y7051D01*
X21435Y7299D01*
X21397Y7391D01*
X21326Y7461D01*
X21300Y7472D01*
X21300Y7500D01*
X21353Y7500D01*
X21450Y7596D01*
X21450Y7296D01*
X21564Y7181D01*
X21564Y6952D01*
X21602Y6860D01*
X21672Y6790D01*
X21672Y6674D01*
X21635Y6659D01*
X21565Y6588D01*
X21527Y6496D01*
X21526Y6397D01*
X21526Y6003D01*
X21564Y5911D01*
X21635Y5841D01*
X21727Y5803D01*
X21826Y5802D01*
X22093Y5802D01*
X22196Y5700D01*
X22749Y5700D01*
X22962Y5557D01*
X23250Y5500D01*
X25189Y5500D01*
X22939Y3250D01*
X16250Y3250D01*
X8703Y3250D01*
X8603Y3350D01*
X7533Y3350D01*
X7549Y3390D01*
X7550Y3608D01*
X7466Y3811D01*
X7311Y3965D01*
X7230Y3999D01*
X7311Y4033D01*
X7465Y4188D01*
X7549Y4390D01*
X7550Y4608D01*
X7466Y4811D01*
X7311Y4965D01*
X7230Y4999D01*
X7311Y5033D01*
X7465Y5188D01*
X7549Y5390D01*
X7550Y5608D01*
X7466Y5811D01*
X7311Y5965D01*
X7230Y5999D01*
X7311Y6033D01*
X7465Y6188D01*
X7549Y6390D01*
X7550Y6608D01*
X7466Y6811D01*
X7311Y6965D01*
X7230Y6999D01*
X7311Y7033D01*
X7465Y7188D01*
X7549Y7390D01*
X7550Y7608D01*
X7466Y7811D01*
X7311Y7965D01*
X7230Y7999D01*
X7311Y8033D01*
X7465Y8188D01*
X7549Y8390D01*
X7550Y8608D01*
X7466Y8811D01*
X7457Y8820D01*
X7457Y9467D01*
X7435Y9644D01*
X7410Y9705D01*
X7346Y9740D01*
X7240Y9634D01*
X7240Y9846D01*
X7205Y9910D01*
X7032Y9957D01*
X6855Y9935D01*
X6794Y9910D01*
X6759Y9846D01*
X7000Y9606D01*
X7240Y9846D01*
X7240Y9634D01*
X7106Y9500D01*
X7346Y9259D01*
X7410Y9294D01*
X7457Y9467D01*
X7457Y8820D01*
X7311Y8965D01*
X7109Y9049D01*
X7027Y9049D01*
X7144Y9064D01*
X7205Y9089D01*
X7240Y9153D01*
X7000Y9393D01*
X6893Y9287D01*
X6893Y9500D01*
X6653Y9740D01*
X6589Y9705D01*
X6542Y9532D01*
X6564Y9355D01*
X6589Y9294D01*
X6653Y9259D01*
X6893Y9500D01*
X6893Y9287D01*
X6759Y9153D01*
X6794Y9089D01*
X6939Y9050D01*
X6891Y9050D01*
X6688Y8966D01*
X6597Y8875D01*
X5578Y8875D01*
X5550Y8903D01*
X5550Y9270D01*
X5550Y9729D01*
X5527Y9784D01*
X5485Y9827D01*
X5429Y9849D01*
X5370Y9850D01*
X5137Y9850D01*
X5100Y9812D01*
X5100Y9575D01*
X5512Y9575D01*
X5550Y9612D01*
X5550Y9729D01*
X5550Y9270D01*
X5550Y9387D01*
X5512Y9425D01*
X5100Y9425D01*
X5100Y9187D01*
X5137Y9150D01*
X5370Y9149D01*
X5429Y9150D01*
X5485Y9172D01*
X5527Y9215D01*
X5550Y9270D01*
X5550Y8903D01*
X5541Y8911D01*
X5449Y8949D01*
X5350Y8950D01*
X4950Y8950D01*
X4950Y9187D01*
X4950Y9425D01*
X4950Y9575D01*
X4950Y9812D01*
X4912Y9850D01*
X4679Y9850D01*
X4620Y9849D01*
X4564Y9827D01*
X4522Y9784D01*
X4499Y9729D01*
X4500Y9612D01*
X4537Y9575D01*
X4950Y9575D01*
X4950Y9425D01*
X4537Y9425D01*
X4500Y9387D01*
X4499Y9270D01*
X4522Y9215D01*
X4564Y9172D01*
X4620Y9150D01*
X4679Y9149D01*
X4912Y9150D01*
X4950Y9187D01*
X4950Y8950D01*
X4600Y8950D01*
X4508Y8912D01*
X4471Y8875D01*
X1528Y8875D01*
X1500Y8903D01*
X1500Y9270D01*
X1500Y9729D01*
X1477Y9784D01*
X1435Y9827D01*
X1379Y9849D01*
X1320Y9850D01*
X1087Y9850D01*
X1050Y9812D01*
X1050Y9575D01*
X1462Y9575D01*
X1500Y9612D01*
X1500Y9729D01*
X1500Y9270D01*
X1500Y9387D01*
X1462Y9425D01*
X1050Y9425D01*
X1050Y9187D01*
X1087Y9150D01*
X1320Y9149D01*
X1379Y9150D01*
X1435Y9172D01*
X1477Y9215D01*
X1500Y9270D01*
X1500Y8903D01*
X1491Y8911D01*
X1399Y8949D01*
X1300Y8950D01*
X900Y8950D01*
X900Y9187D01*
X900Y9425D01*
X900Y9575D01*
X900Y9812D01*
X900Y50187D01*
X900Y50425D01*
X900Y50575D01*
X900Y50812D01*
X862Y50850D01*
X629Y50850D01*
X570Y50849D01*
X514Y50827D01*
X472Y50784D01*
X449Y50729D01*
X450Y50612D01*
X487Y50575D01*
X900Y50575D01*
X900Y50425D01*
X487Y50425D01*
X450Y50387D01*
X449Y50270D01*
X472Y50215D01*
X514Y50172D01*
X570Y50150D01*
X629Y50149D01*
X862Y50150D01*
X900Y50187D01*
X900Y9812D01*
X862Y9850D01*
X629Y9850D01*
X570Y9849D01*
X514Y9827D01*
X472Y9784D01*
X449Y9729D01*
X450Y9612D01*
X487Y9575D01*
X900Y9575D01*
X900Y9425D01*
X487Y9425D01*
X450Y9387D01*
X449Y9270D01*
X472Y9215D01*
X514Y9172D01*
X570Y9150D01*
X629Y9149D01*
X862Y9150D01*
X900Y9187D01*
X900Y8950D01*
X550Y8950D01*
X458Y8912D01*
X401Y8855D01*
X356Y8846D01*
X269Y8788D01*
X269Y51211D01*
X356Y51153D01*
X401Y51144D01*
X458Y51088D01*
X550Y51050D01*
X649Y51049D01*
X1399Y51049D01*
X1491Y51087D01*
X1528Y51125D01*
X4471Y51125D01*
X4508Y51088D01*
X4600Y51050D01*
X4699Y51049D01*
X5449Y51049D01*
X5541Y51087D01*
X5578Y51125D01*
X6597Y51125D01*
X6688Y51034D01*
X6890Y50950D01*
X7108Y50949D01*
X7311Y51033D01*
X7465Y51188D01*
X7549Y51390D01*
X7550Y51608D01*
X7466Y51811D01*
X7311Y51965D01*
X7230Y51999D01*
X7311Y52033D01*
X7402Y52125D01*
X17044Y52125D01*
X17165Y52075D01*
X17334Y52074D01*
X17490Y52139D01*
X17610Y52258D01*
X17674Y52415D01*
X17675Y52584D01*
X17610Y52740D01*
X17491Y52860D01*
X17334Y52924D01*
X17165Y52925D01*
X17044Y52875D01*
X7402Y52875D01*
X7311Y52965D01*
X7230Y52999D01*
X7311Y53033D01*
X7402Y53125D01*
X17544Y53125D01*
X17665Y53075D01*
X17834Y53074D01*
X17990Y53139D01*
X18110Y53258D01*
X18174Y53415D01*
X18175Y53584D01*
X18110Y53740D01*
X17991Y53860D01*
X17834Y53924D01*
X17665Y53925D01*
X17544Y53875D01*
X7402Y53875D01*
X7311Y53965D01*
X7230Y53999D01*
X7311Y54033D01*
X7465Y54188D01*
X7549Y54390D01*
X7550Y54608D01*
X7466Y54811D01*
X7311Y54965D01*
X7230Y54999D01*
X7311Y55033D01*
X7465Y55188D01*
X7549Y55390D01*
X7550Y55608D01*
X7466Y55811D01*
X7311Y55965D01*
X7230Y55999D01*
X7311Y56033D01*
X7402Y56125D01*
X19844Y56125D01*
X20375Y55594D01*
X20375Y55053D01*
X20338Y55016D01*
X20300Y54924D01*
X20299Y54825D01*
X20299Y54075D01*
X20337Y53983D01*
X20375Y53946D01*
X20375Y53455D01*
X20325Y53334D01*
X20324Y53165D01*
X20389Y53009D01*
X20508Y52889D01*
X20665Y52825D01*
X20834Y52824D01*
X20990Y52889D01*
X21110Y53008D01*
X21174Y53165D01*
X21175Y53334D01*
X21125Y53455D01*
X21125Y53946D01*
X21161Y53983D01*
X21199Y54075D01*
X21200Y54174D01*
X21200Y54924D01*
X21162Y55016D01*
X21125Y55053D01*
X21125Y55750D01*
X21125Y57347D01*
X21215Y57438D01*
X21249Y57519D01*
X21283Y57438D01*
X21375Y57347D01*
X21375Y56553D01*
X21338Y56516D01*
X21300Y56424D01*
X21299Y56325D01*
X21299Y55575D01*
X21337Y55483D01*
X21388Y55433D01*
X21403Y55356D01*
X21484Y55234D01*
X21606Y55153D01*
X21750Y55125D01*
X21893Y55153D01*
X22015Y55234D01*
X22096Y55356D01*
X22111Y55433D01*
X22161Y55483D01*
X22199Y55575D01*
X22200Y55674D01*
X22200Y56424D01*
X22162Y56516D01*
X22125Y56553D01*
X22125Y57347D01*
X22215Y57438D01*
X22249Y57519D01*
X22283Y57438D01*
X22375Y57347D01*
X22375Y55053D01*
X22338Y55016D01*
X22300Y54924D01*
X22299Y54825D01*
X22299Y54075D01*
X22337Y53983D01*
X22388Y53933D01*
X22403Y53856D01*
X22484Y53734D01*
X22606Y53653D01*
X22750Y53625D01*
X22893Y53653D01*
X23015Y53734D01*
X23096Y53856D01*
X23111Y53933D01*
X23161Y53983D01*
X23199Y54075D01*
X23200Y54174D01*
X23200Y54924D01*
X23162Y55016D01*
X23125Y55053D01*
X23125Y57347D01*
X23215Y57438D01*
X23299Y57640D01*
X23299Y57722D01*
X23314Y57605D01*
X23339Y57544D01*
X23403Y57509D01*
X23643Y57750D01*
X23403Y57990D01*
X23339Y57955D01*
X23300Y57810D01*
X23300Y57858D01*
X23216Y58061D01*
X23061Y58215D01*
X22859Y58299D01*
X22641Y58300D01*
X22438Y58216D01*
X22284Y58061D01*
X22250Y57980D01*
X22216Y58061D01*
X22061Y58215D01*
X21859Y58299D01*
X21641Y58300D01*
X21438Y58216D01*
X21284Y58061D01*
X21250Y57980D01*
X21216Y58061D01*
X21061Y58215D01*
X20859Y58299D01*
X20641Y58300D01*
X20438Y58216D01*
X20284Y58061D01*
X20200Y57859D01*
X20199Y57641D01*
X20283Y57438D01*
X20375Y57347D01*
X20375Y56655D01*
X20265Y56765D01*
X20143Y56846D01*
X20000Y56875D01*
X11138Y56875D01*
X11280Y56969D01*
X11442Y57212D01*
X11500Y57500D01*
X11442Y57787D01*
X11280Y58030D01*
X11037Y58192D01*
X10750Y58250D01*
X9000Y58250D01*
X9000Y58253D01*
X8353Y58900D01*
X646Y58900D01*
X269Y58523D01*
X269Y59730D01*
X41730Y59730D01*
X41730Y269D01*
M02*
