M48
;DRILL file {Pcbnew (2013-07-07 BZR 4022)-stable} date 11/4/2014 12:35:30 AM
;FORMAT={-:-/ absolute / inch / decimal}
FMAT,2
INCH,TZ
T1C0.025
T2C0.040
T3C0.079
T4C0.122
%
G90
G05
M72
T1
X0.2Y4.5
X0.2Y1.5
X0.225Y4.575
X0.225Y4.425
X0.225Y1.575
X0.225Y1.425
X0.3Y4.6
X0.3Y4.4
X0.3Y1.6
X0.3Y1.4
X0.375Y4.575
X0.375Y4.425
X0.375Y1.575
X0.375Y1.425
X0.4Y4.5
X0.4Y1.5
X0.475Y1.3
X0.55Y3.375
X0.6Y3.275
X0.7Y3.325
X0.925Y4.5
X1.075Y5.75
X1.075Y3.625
X1.525Y3.65
X1.575Y4.15
X1.575Y3.525
X1.625Y4.9
X1.625Y4.1
X1.625Y3.65
X1.625Y2.825
X1.625Y1.05
X1.625Y0.25
X1.675Y4.3
X1.725Y5.25
X1.725Y4.35
X1.725Y4.1
X1.725Y3.65
X1.775Y5.35
X1.775Y4.4
X1.775Y4.15
X1.775Y3.
X1.8Y1.275
X1.8Y1.225
X1.8Y1.175
X1.8Y1.125
X1.8Y1.075
X1.8Y1.025
X1.8Y0.975
X1.8Y0.925
X1.8Y0.875
X1.8Y0.825
X1.8Y0.775
X1.8Y0.725
X1.8Y0.675
X1.8Y0.625
X1.8Y0.575
X1.8Y0.525
X1.8Y0.475
X1.825Y4.45
X1.825Y4.1
X1.825Y3.1
X1.85Y2.4
X1.85Y1.275
X1.85Y0.475
X1.9Y2.175
X1.9Y1.275
X1.9Y0.475
X1.95Y0.475
X1.965Y1.065
X2.Y3.7
X2.Y0.475
X2.05Y1.275
X2.05Y0.475
X2.055Y0.805
X2.055Y0.75
X2.075Y5.325
X2.075Y4.575
X2.1Y1.275
X2.1Y0.475
X2.15Y1.275
X2.15Y0.475
X2.2Y1.275
X2.2Y0.475
X2.25Y1.275
X2.25Y0.475
X2.3Y1.275
X2.3Y0.475
X2.35Y1.275
X2.35Y0.475
X2.4Y1.275
X2.4Y0.895
X2.4Y0.475
X2.43Y0.825
X2.43Y0.725
X2.45Y1.275
X2.5Y1.275
X2.55Y1.275
X2.55Y1.225
X2.55Y1.175
X2.55Y1.125
X2.55Y1.075
X2.55Y1.025
X2.55Y0.975
X2.55Y0.925
X2.55Y0.875
X2.55Y0.825
X2.55Y0.775
X2.55Y0.725
X2.775Y3.
X2.9Y3.45
X3.575Y0.325
X3.625Y0.325
X3.675Y0.325
X3.8Y4.5
X3.8Y1.5
X3.825Y4.575
X3.825Y4.425
X3.825Y1.575
X3.825Y1.425
X3.9Y4.6
X3.9Y4.4
X3.9Y1.6
X3.9Y1.4
X3.975Y4.575
X3.975Y4.425
X3.975Y1.575
X3.975Y1.425
X4.Y4.5
X4.Y1.5
T2
X0.7Y5.75
X0.7Y5.65
X0.7Y5.55
X0.7Y5.45
X0.7Y5.35
X0.7Y5.25
X0.7Y5.15
X0.7Y5.05
X0.7Y0.95
X0.7Y0.85
X0.7Y0.75
X0.7Y0.65
X0.7Y0.55
X0.7Y0.45
X0.7Y0.35
X0.7Y0.25
X2.075Y5.775
X2.075Y4.575
X2.175Y5.775
X2.175Y4.575
X2.275Y5.775
X2.275Y4.575
X2.375Y5.775
X2.375Y4.575
X2.475Y5.775
X2.475Y4.575
X2.575Y5.775
X2.575Y4.575
X2.675Y5.775
X2.675Y4.575
X2.775Y5.775
X2.775Y4.575
X2.875Y5.775
X2.875Y4.575
X2.975Y5.775
X2.975Y4.575
X3.075Y5.775
X3.075Y4.575
X3.175Y5.775
X3.175Y4.575
T3
X4.0246Y0.6
T4
X0.3Y4.5
X0.3Y1.5
X3.9Y4.5
X3.9Y1.5
T3
X0.368Y1.1748G85X0.368Y1.2142
G05
X0.5509Y4.776G85X0.5509Y4.8154
G05
X0.6534Y4.2339G85X0.6534Y4.1945
G05
X0.7559Y3.6129G85X0.7559Y3.6523
G05
X0.9722Y2.3751G85X0.9722Y2.3357
G05
X1.0752Y1.7519G85X1.0752Y1.7913
G05
X1.1781Y1.2074G85X1.1781Y1.1681
G05
X1.9355Y2.9808G85X1.9355Y3.0201
G05
X2.3292Y2.9808G85X2.3292Y3.0201
G05
X2.6368Y3.8559G85X2.6368Y3.8165
G05
X2.7051Y3.4288G85X2.7051Y3.4682
G05
X2.8516Y2.5818G85X2.8516Y2.5424
G05
X2.92Y2.1547G85X2.92Y2.1941
G05
X3.2194Y3.0201G85X3.2194Y2.9808
G05
X3.6131Y3.0201G85X3.6131Y2.9808
G05
T0
M30
