G04 (created by PCBNEW (2013-07-07 BZR 4022)-stable) date 11/4/2014 1:01:41 AM*
%MOIN*%
G04 Gerber Fmt 3.4, Leading zero omitted, Abs format*
%FSLAX34Y34*%
G01*
G70*
G90*
G04 APERTURE LIST*
%ADD10C,0.01*%
%ADD11R,0.074X0.074*%
%ADD12C,0.074*%
%ADD13C,0.301402*%
%ADD14O,0.0987402X0.13811*%
%ADD15C,0.112425*%
G04 APERTURE END LIST*
G54D10*
G54D11*
X7000Y2500D03*
G54D12*
X7000Y3500D03*
X7000Y4500D03*
X7000Y5500D03*
X7000Y6500D03*
X7000Y7500D03*
X7000Y8500D03*
X7000Y9500D03*
G54D11*
X7000Y50500D03*
G54D12*
X7000Y51500D03*
X7000Y52500D03*
X7000Y53500D03*
X7000Y54500D03*
X7000Y55500D03*
X7000Y56500D03*
X7000Y57500D03*
G54D13*
X39000Y45000D03*
X39000Y15000D03*
X3000Y45000D03*
X3000Y15000D03*
G54D11*
X31750Y57750D03*
G54D12*
X30750Y57750D03*
X29750Y57750D03*
X28750Y57750D03*
X27750Y57750D03*
X26750Y57750D03*
X25750Y57750D03*
X24750Y57750D03*
X23750Y57750D03*
X22750Y57750D03*
X21750Y57750D03*
X20750Y57750D03*
G54D11*
X20750Y45750D03*
G54D12*
X21750Y45750D03*
X22750Y45750D03*
X23750Y45750D03*
X24750Y45750D03*
X25750Y45750D03*
X26750Y45750D03*
X27750Y45750D03*
X28750Y45750D03*
X29750Y45750D03*
X30750Y45750D03*
X31750Y45750D03*
G54D14*
X9722Y23553D03*
X10751Y17715D03*
X11781Y11877D03*
X26367Y38362D03*
X27051Y34484D03*
X32193Y30004D03*
X29199Y21743D03*
X36130Y30004D03*
X5508Y47957D03*
X28515Y25621D03*
X6534Y42141D03*
X7559Y36326D03*
X19355Y30004D03*
X23292Y30004D03*
X3679Y11944D03*
G54D15*
X40246Y6000D03*
M02*
