G04 (created by PCBNEW (2013-07-07 BZR 4022)-stable) date 11/4/2014 1:01:41 AM*
%MOIN*%
G04 Gerber Fmt 3.4, Leading zero omitted, Abs format*
%FSLAX34Y34*%
G01*
G70*
G90*
G04 APERTURE LIST*
%ADD10C,0.01*%
%ADD11C,0.015*%
%ADD12C,0.00590551*%
%ADD13C,0.005*%
%ADD14R,0.054X0.089*%
%ADD15R,0.089X0.054*%
%ADD16R,0.0454961X0.0388031*%
%ADD17R,0.034X0.108*%
%ADD18R,0.074X0.074*%
%ADD19C,0.074*%
%ADD20R,0.0652X0.073*%
%ADD21R,0.073X0.0652*%
%ADD22R,0.0534X0.0494*%
%ADD23R,0.0494X0.0534*%
%ADD24R,0.104551X0.234472*%
%ADD25R,0.179X0.084*%
%ADD26C,0.301402*%
%ADD27R,0.0927402X0.0573071*%
%ADD28R,0.0454961X0.0454961*%
%ADD29R,0.0651811X0.0769921*%
%ADD30O,0.0987402X0.13811*%
%ADD31R,0.187228X0.143921*%
%ADD32R,0.258094X0.167543*%
%ADD33C,0.112425*%
G04 APERTURE END LIST*
G54D10*
G54D11*
X30609Y11676D02*
X30152Y11676D01*
X30380Y11676D02*
X30380Y12476D01*
X30304Y12361D01*
X30228Y12285D01*
X30152Y12247D01*
X30914Y12400D02*
X30952Y12438D01*
X31028Y12476D01*
X31219Y12476D01*
X31295Y12438D01*
X31333Y12400D01*
X31371Y12323D01*
X31371Y12247D01*
X31333Y12133D01*
X30876Y11676D01*
X31371Y11676D01*
X31600Y12476D02*
X31866Y11676D01*
X32133Y12476D01*
X33009Y11980D02*
X33619Y11980D01*
X34571Y12400D02*
X34609Y12438D01*
X34685Y12476D01*
X34876Y12476D01*
X34952Y12438D01*
X34990Y12400D01*
X35028Y12323D01*
X35028Y12247D01*
X34990Y12133D01*
X34533Y11676D01*
X35028Y11676D01*
X35523Y12476D02*
X35599Y12476D01*
X35676Y12438D01*
X35714Y12400D01*
X35752Y12323D01*
X35790Y12171D01*
X35790Y11980D01*
X35752Y11828D01*
X35714Y11752D01*
X35676Y11714D01*
X35599Y11676D01*
X35523Y11676D01*
X35447Y11714D01*
X35409Y11752D01*
X35371Y11828D01*
X35333Y11980D01*
X35333Y12171D01*
X35371Y12323D01*
X35409Y12400D01*
X35447Y12438D01*
X35523Y12476D01*
X36019Y12476D02*
X36285Y11676D01*
X36552Y12476D01*
X37428Y11676D02*
X37428Y12476D01*
X37619Y12476D01*
X37733Y12438D01*
X37809Y12361D01*
X37847Y12285D01*
X37885Y12133D01*
X37885Y12019D01*
X37847Y11866D01*
X37809Y11790D01*
X37733Y11714D01*
X37619Y11676D01*
X37428Y11676D01*
X38685Y11752D02*
X38647Y11714D01*
X38533Y11676D01*
X38457Y11676D01*
X38342Y11714D01*
X38266Y11790D01*
X38228Y11866D01*
X38190Y12019D01*
X38190Y12133D01*
X38228Y12285D01*
X38266Y12361D01*
X38342Y12438D01*
X38457Y12476D01*
X38533Y12476D01*
X38647Y12438D01*
X38685Y12400D01*
X30571Y11206D02*
X30190Y11206D01*
X30152Y10825D01*
X30190Y10863D01*
X30266Y10901D01*
X30457Y10901D01*
X30533Y10863D01*
X30571Y10825D01*
X30609Y10749D01*
X30609Y10558D01*
X30571Y10482D01*
X30533Y10444D01*
X30457Y10406D01*
X30266Y10406D01*
X30190Y10444D01*
X30152Y10482D01*
X30952Y10482D02*
X30990Y10444D01*
X30952Y10406D01*
X30914Y10444D01*
X30952Y10482D01*
X30952Y10406D01*
X31714Y11206D02*
X31333Y11206D01*
X31295Y10825D01*
X31333Y10863D01*
X31409Y10901D01*
X31600Y10901D01*
X31676Y10863D01*
X31714Y10825D01*
X31752Y10749D01*
X31752Y10558D01*
X31714Y10482D01*
X31676Y10444D01*
X31600Y10406D01*
X31409Y10406D01*
X31333Y10444D01*
X31295Y10482D01*
X32704Y10406D02*
X32704Y10939D01*
X32704Y10863D02*
X32742Y10901D01*
X32819Y10939D01*
X32933Y10939D01*
X33009Y10901D01*
X33047Y10825D01*
X33047Y10406D01*
X33047Y10825D02*
X33085Y10901D01*
X33161Y10939D01*
X33276Y10939D01*
X33352Y10901D01*
X33390Y10825D01*
X33390Y10406D01*
X33771Y10406D02*
X33771Y10939D01*
X33771Y10863D02*
X33809Y10901D01*
X33885Y10939D01*
X33999Y10939D01*
X34076Y10901D01*
X34114Y10825D01*
X34114Y10406D01*
X34114Y10825D02*
X34152Y10901D01*
X34228Y10939D01*
X34342Y10939D01*
X34419Y10901D01*
X34457Y10825D01*
X34457Y10406D01*
X35599Y11206D02*
X35752Y11206D01*
X35828Y11168D01*
X35904Y11091D01*
X35942Y10939D01*
X35942Y10672D01*
X35904Y10520D01*
X35828Y10444D01*
X35752Y10406D01*
X35599Y10406D01*
X35523Y10444D01*
X35447Y10520D01*
X35409Y10672D01*
X35409Y10939D01*
X35447Y11091D01*
X35523Y11168D01*
X35599Y11206D01*
X36285Y10406D02*
X36285Y11206D01*
X36476Y11206D01*
X36590Y11168D01*
X36666Y11091D01*
X36704Y11015D01*
X36742Y10863D01*
X36742Y10749D01*
X36704Y10596D01*
X36666Y10520D01*
X36590Y10444D01*
X36476Y10406D01*
X36285Y10406D01*
X30152Y9860D02*
X30190Y9898D01*
X30266Y9936D01*
X30457Y9936D01*
X30533Y9898D01*
X30571Y9860D01*
X30609Y9783D01*
X30609Y9707D01*
X30571Y9593D01*
X30114Y9136D01*
X30609Y9136D01*
X30952Y9212D02*
X30990Y9174D01*
X30952Y9136D01*
X30914Y9174D01*
X30952Y9212D01*
X30952Y9136D01*
X31752Y9136D02*
X31295Y9136D01*
X31523Y9136D02*
X31523Y9936D01*
X31447Y9821D01*
X31371Y9745D01*
X31295Y9707D01*
X32704Y9136D02*
X32704Y9669D01*
X32704Y9593D02*
X32742Y9631D01*
X32819Y9669D01*
X32933Y9669D01*
X33009Y9631D01*
X33047Y9555D01*
X33047Y9136D01*
X33047Y9555D02*
X33085Y9631D01*
X33161Y9669D01*
X33276Y9669D01*
X33352Y9631D01*
X33390Y9555D01*
X33390Y9136D01*
X33771Y9136D02*
X33771Y9669D01*
X33771Y9593D02*
X33809Y9631D01*
X33885Y9669D01*
X33999Y9669D01*
X34076Y9631D01*
X34114Y9555D01*
X34114Y9136D01*
X34114Y9555D02*
X34152Y9631D01*
X34228Y9669D01*
X34342Y9669D01*
X34419Y9631D01*
X34457Y9555D01*
X34457Y9136D01*
X35447Y9136D02*
X35447Y9936D01*
X35828Y9136D02*
X35828Y9936D01*
X36019Y9936D01*
X36133Y9898D01*
X36209Y9821D01*
X36247Y9745D01*
X36285Y9593D01*
X36285Y9479D01*
X36247Y9326D01*
X36209Y9250D01*
X36133Y9174D01*
X36019Y9136D01*
X35828Y9136D01*
X30647Y7942D02*
X30609Y7904D01*
X30495Y7866D01*
X30419Y7866D01*
X30304Y7904D01*
X30228Y7980D01*
X30190Y8056D01*
X30152Y8209D01*
X30152Y8323D01*
X30190Y8475D01*
X30228Y8551D01*
X30304Y8628D01*
X30419Y8666D01*
X30495Y8666D01*
X30609Y8628D01*
X30647Y8590D01*
X30876Y8666D02*
X31333Y8666D01*
X31104Y7866D02*
X31104Y8666D01*
X32057Y7866D02*
X31790Y8247D01*
X31600Y7866D02*
X31600Y8666D01*
X31904Y8666D01*
X31980Y8628D01*
X32019Y8590D01*
X32057Y8513D01*
X32057Y8399D01*
X32019Y8323D01*
X31980Y8285D01*
X31904Y8247D01*
X31600Y8247D01*
X33009Y7866D02*
X33009Y8666D01*
X33314Y8666D01*
X33390Y8628D01*
X33428Y8590D01*
X33466Y8513D01*
X33466Y8399D01*
X33428Y8323D01*
X33390Y8285D01*
X33314Y8247D01*
X33009Y8247D01*
X33961Y8666D02*
X34114Y8666D01*
X34190Y8628D01*
X34266Y8551D01*
X34304Y8399D01*
X34304Y8132D01*
X34266Y7980D01*
X34190Y7904D01*
X34114Y7866D01*
X33961Y7866D01*
X33885Y7904D01*
X33809Y7980D01*
X33771Y8132D01*
X33771Y8399D01*
X33809Y8551D01*
X33885Y8628D01*
X33961Y8666D01*
X34609Y7904D02*
X34723Y7866D01*
X34914Y7866D01*
X34990Y7904D01*
X35028Y7942D01*
X35066Y8018D01*
X35066Y8094D01*
X35028Y8170D01*
X34990Y8209D01*
X34914Y8247D01*
X34761Y8285D01*
X34685Y8323D01*
X34647Y8361D01*
X34609Y8437D01*
X34609Y8513D01*
X34647Y8590D01*
X34685Y8628D01*
X34761Y8666D01*
X34952Y8666D01*
X35066Y8628D01*
G54D10*
X32000Y21500D02*
X31500Y21000D01*
X30500Y26000D02*
X30000Y26000D01*
X31000Y24500D02*
X30500Y26000D01*
X32000Y21500D02*
X31500Y23000D01*
G54D11*
X31071Y23619D02*
X31214Y23571D01*
X31261Y23523D01*
X31309Y23428D01*
X31309Y23285D01*
X31261Y23190D01*
X31214Y23142D01*
X31119Y23095D01*
X30738Y23095D01*
X30738Y24095D01*
X31071Y24095D01*
X31166Y24047D01*
X31214Y24000D01*
X31261Y23904D01*
X31261Y23809D01*
X31214Y23714D01*
X31166Y23666D01*
X31071Y23619D01*
X30738Y23619D01*
G54D10*
X28500Y39000D02*
X28000Y39000D01*
X28500Y39000D02*
X29000Y37500D01*
X30000Y34500D02*
X29500Y34000D01*
X30000Y34500D02*
X29500Y36000D01*
G54D11*
X28714Y37095D02*
X29285Y37095D01*
X29000Y36095D02*
X29000Y37095D01*
G54D10*
X18500Y31500D02*
X18000Y31000D01*
X20500Y31500D02*
X18500Y31500D01*
X24000Y31500D02*
X24500Y31000D01*
X22500Y31500D02*
X24000Y31500D01*
X36500Y32000D02*
X37000Y31500D01*
X35000Y32000D02*
X36500Y32000D01*
X31500Y32000D02*
X33000Y32000D01*
X31000Y31500D02*
X31500Y32000D01*
G54D11*
X21809Y31095D02*
X21476Y31571D01*
X21238Y31095D02*
X21238Y32095D01*
X21619Y32095D01*
X21714Y32047D01*
X21761Y32000D01*
X21809Y31904D01*
X21809Y31761D01*
X21761Y31666D01*
X21714Y31619D01*
X21619Y31571D01*
X21238Y31571D01*
X34309Y31595D02*
X33833Y31595D01*
X33833Y32595D01*
G54D10*
X10500Y37000D02*
X10000Y36500D01*
X10500Y37000D02*
X9500Y41500D01*
X8000Y48000D02*
X7500Y48500D01*
X9000Y43500D02*
X8000Y48000D01*
G54D11*
X8761Y42380D02*
X9238Y42380D01*
X8666Y42095D02*
X9000Y43095D01*
X9333Y42095D01*
G54D10*
X14000Y11500D02*
X14500Y12000D01*
X14500Y12000D02*
X13500Y17000D01*
X13000Y19000D02*
X12000Y23500D01*
X11500Y24000D02*
X12000Y23500D01*
G54D11*
X13559Y17690D02*
X13511Y17642D01*
X13369Y17595D01*
X13273Y17595D01*
X13130Y17642D01*
X13035Y17738D01*
X12988Y17833D01*
X12940Y18023D01*
X12940Y18166D01*
X12988Y18357D01*
X13035Y18452D01*
X13130Y18547D01*
X13273Y18595D01*
X13369Y18595D01*
X13511Y18547D01*
X13559Y18500D01*
X5238Y13095D02*
X5238Y14095D01*
X5476Y14095D01*
X5619Y14047D01*
X5714Y13952D01*
X5761Y13857D01*
X5809Y13666D01*
X5809Y13523D01*
X5761Y13333D01*
X5714Y13238D01*
X5619Y13142D01*
X5476Y13095D01*
X5238Y13095D01*
X6238Y13095D02*
X6238Y14095D01*
X6619Y14095D01*
X6714Y14047D01*
X6761Y14000D01*
X6809Y13904D01*
X6809Y13761D01*
X6761Y13666D01*
X6714Y13619D01*
X6619Y13571D01*
X6238Y13571D01*
G54D10*
X8057Y57857D02*
X8257Y57257D01*
X8457Y57857D01*
X8942Y57257D02*
X8657Y57257D01*
X8657Y57857D01*
X9142Y57571D02*
X9342Y57571D01*
X9428Y57257D02*
X9142Y57257D01*
X9142Y57857D01*
X9428Y57857D01*
X9685Y57257D02*
X9685Y57857D01*
X9828Y57857D01*
X9914Y57828D01*
X9971Y57771D01*
X10000Y57714D01*
X10028Y57600D01*
X10028Y57514D01*
X10000Y57400D01*
X9971Y57342D01*
X9914Y57285D01*
X9828Y57257D01*
X9685Y57257D01*
X8057Y56857D02*
X8257Y56257D01*
X8457Y56857D01*
X9000Y56314D02*
X8971Y56285D01*
X8885Y56257D01*
X8828Y56257D01*
X8742Y56285D01*
X8685Y56342D01*
X8657Y56400D01*
X8628Y56514D01*
X8628Y56600D01*
X8657Y56714D01*
X8685Y56771D01*
X8742Y56828D01*
X8828Y56857D01*
X8885Y56857D01*
X8971Y56828D01*
X9000Y56800D01*
X9600Y56314D02*
X9571Y56285D01*
X9485Y56257D01*
X9428Y56257D01*
X9342Y56285D01*
X9285Y56342D01*
X9257Y56400D01*
X9228Y56514D01*
X9228Y56600D01*
X9257Y56714D01*
X9285Y56771D01*
X9342Y56828D01*
X9428Y56857D01*
X9485Y56857D01*
X9571Y56828D01*
X9600Y56800D01*
X8114Y55285D02*
X8200Y55257D01*
X8342Y55257D01*
X8400Y55285D01*
X8428Y55314D01*
X8457Y55371D01*
X8457Y55428D01*
X8428Y55485D01*
X8400Y55514D01*
X8342Y55542D01*
X8228Y55571D01*
X8171Y55600D01*
X8142Y55628D01*
X8114Y55685D01*
X8114Y55742D01*
X8142Y55800D01*
X8171Y55828D01*
X8228Y55857D01*
X8371Y55857D01*
X8457Y55828D01*
X8714Y55257D02*
X8714Y55857D01*
X8942Y55857D01*
X9000Y55828D01*
X9028Y55800D01*
X9057Y55742D01*
X9057Y55657D01*
X9028Y55600D01*
X9000Y55571D01*
X8942Y55542D01*
X8714Y55542D01*
X9285Y55428D02*
X9571Y55428D01*
X9228Y55257D02*
X9428Y55857D01*
X9628Y55257D01*
X10171Y55257D02*
X9971Y55542D01*
X9828Y55257D02*
X9828Y55857D01*
X10057Y55857D01*
X10114Y55828D01*
X10142Y55800D01*
X10171Y55742D01*
X10171Y55657D01*
X10142Y55600D01*
X10114Y55571D01*
X10057Y55542D01*
X9828Y55542D01*
X10428Y55571D02*
X10628Y55571D01*
X10714Y55257D02*
X10428Y55257D01*
X10428Y55857D01*
X10714Y55857D01*
X8485Y53314D02*
X8457Y53285D01*
X8371Y53257D01*
X8314Y53257D01*
X8228Y53285D01*
X8171Y53342D01*
X8142Y53400D01*
X8114Y53514D01*
X8114Y53600D01*
X8142Y53714D01*
X8171Y53771D01*
X8228Y53828D01*
X8314Y53857D01*
X8371Y53857D01*
X8457Y53828D01*
X8485Y53800D01*
X9028Y53257D02*
X8742Y53257D01*
X8742Y53857D01*
X9228Y53257D02*
X9228Y53857D01*
X9571Y53257D02*
X9314Y53600D01*
X9571Y53857D02*
X9228Y53514D01*
X8428Y52257D02*
X8142Y52257D01*
X8142Y52857D01*
X8628Y52571D02*
X8828Y52571D01*
X8914Y52257D02*
X8628Y52257D01*
X8628Y52857D01*
X8914Y52857D01*
X8257Y51857D02*
X8371Y51857D01*
X8428Y51828D01*
X8485Y51771D01*
X8514Y51657D01*
X8514Y51457D01*
X8485Y51342D01*
X8428Y51285D01*
X8371Y51257D01*
X8257Y51257D01*
X8200Y51285D01*
X8142Y51342D01*
X8114Y51457D01*
X8114Y51657D01*
X8142Y51771D01*
X8200Y51828D01*
X8257Y51857D01*
X8771Y51571D02*
X8971Y51571D01*
X9057Y51257D02*
X8771Y51257D01*
X8771Y51857D01*
X9057Y51857D01*
X8000Y52010D02*
X9171Y52010D01*
X8457Y50828D02*
X8400Y50857D01*
X8314Y50857D01*
X8228Y50828D01*
X8171Y50771D01*
X8142Y50714D01*
X8114Y50600D01*
X8114Y50514D01*
X8142Y50400D01*
X8171Y50342D01*
X8228Y50285D01*
X8314Y50257D01*
X8371Y50257D01*
X8457Y50285D01*
X8485Y50314D01*
X8485Y50514D01*
X8371Y50514D01*
X8742Y50257D02*
X8742Y50857D01*
X9085Y50257D01*
X9085Y50857D01*
X9371Y50257D02*
X9371Y50857D01*
X9514Y50857D01*
X9600Y50828D01*
X9657Y50771D01*
X9685Y50714D01*
X9714Y50600D01*
X9714Y50514D01*
X9685Y50400D01*
X9657Y50342D01*
X9600Y50285D01*
X9514Y50257D01*
X9371Y50257D01*
G54D11*
X23147Y18502D02*
X23109Y18464D01*
X22995Y18426D01*
X22919Y18426D01*
X22804Y18464D01*
X22728Y18540D01*
X22690Y18616D01*
X22652Y18769D01*
X22652Y18883D01*
X22690Y19035D01*
X22728Y19111D01*
X22804Y19188D01*
X22919Y19226D01*
X22995Y19226D01*
X23109Y19188D01*
X23147Y19150D01*
X23604Y18426D02*
X23528Y18464D01*
X23490Y18540D01*
X23490Y19226D01*
X24023Y18426D02*
X23947Y18464D01*
X23909Y18502D01*
X23871Y18578D01*
X23871Y18807D01*
X23909Y18883D01*
X23947Y18921D01*
X24023Y18959D01*
X24138Y18959D01*
X24214Y18921D01*
X24252Y18883D01*
X24290Y18807D01*
X24290Y18578D01*
X24252Y18502D01*
X24214Y18464D01*
X24138Y18426D01*
X24023Y18426D01*
X24976Y18464D02*
X24900Y18426D01*
X24747Y18426D01*
X24671Y18464D01*
X24633Y18502D01*
X24595Y18578D01*
X24595Y18807D01*
X24633Y18883D01*
X24671Y18921D01*
X24747Y18959D01*
X24900Y18959D01*
X24976Y18921D01*
X25319Y18426D02*
X25319Y19226D01*
X25395Y18730D02*
X25623Y18426D01*
X25623Y18959D02*
X25319Y18654D01*
X26576Y18730D02*
X27185Y18730D01*
X28176Y18426D02*
X28176Y19226D01*
X28176Y18845D02*
X28633Y18845D01*
X28633Y18426D02*
X28633Y19226D01*
X29357Y18426D02*
X29357Y18845D01*
X29319Y18921D01*
X29242Y18959D01*
X29090Y18959D01*
X29014Y18921D01*
X29357Y18464D02*
X29280Y18426D01*
X29090Y18426D01*
X29014Y18464D01*
X28976Y18540D01*
X28976Y18616D01*
X29014Y18692D01*
X29090Y18730D01*
X29280Y18730D01*
X29357Y18769D01*
X29852Y18426D02*
X29776Y18464D01*
X29738Y18540D01*
X29738Y19226D01*
X30042Y18959D02*
X30347Y18959D01*
X30157Y18426D02*
X30157Y19111D01*
X30195Y19188D01*
X30271Y19226D01*
X30347Y19226D01*
X31223Y18426D02*
X31223Y19226D01*
X31414Y19226D01*
X31528Y19188D01*
X31604Y19111D01*
X31642Y19035D01*
X31680Y18883D01*
X31680Y18769D01*
X31642Y18616D01*
X31604Y18540D01*
X31528Y18464D01*
X31414Y18426D01*
X31223Y18426D01*
X32023Y18426D02*
X32023Y18959D01*
X32023Y19226D02*
X31985Y19188D01*
X32023Y19150D01*
X32061Y19188D01*
X32023Y19226D01*
X32023Y19150D01*
X32747Y18959D02*
X32747Y18311D01*
X32709Y18235D01*
X32671Y18197D01*
X32595Y18159D01*
X32480Y18159D01*
X32404Y18197D01*
X32747Y18464D02*
X32671Y18426D01*
X32519Y18426D01*
X32442Y18464D01*
X32404Y18502D01*
X32366Y18578D01*
X32366Y18807D01*
X32404Y18883D01*
X32442Y18921D01*
X32519Y18959D01*
X32671Y18959D01*
X32747Y18921D01*
X33128Y18426D02*
X33128Y18959D01*
X33128Y19226D02*
X33090Y19188D01*
X33128Y19150D01*
X33166Y19188D01*
X33128Y19226D01*
X33128Y19150D01*
X33395Y18959D02*
X33699Y18959D01*
X33509Y19226D02*
X33509Y18540D01*
X33547Y18464D01*
X33623Y18426D01*
X33699Y18426D01*
X23147Y17156D02*
X22880Y17537D01*
X22690Y17156D02*
X22690Y17956D01*
X22995Y17956D01*
X23071Y17918D01*
X23109Y17880D01*
X23147Y17803D01*
X23147Y17689D01*
X23109Y17613D01*
X23071Y17575D01*
X22995Y17537D01*
X22690Y17537D01*
X23795Y17194D02*
X23719Y17156D01*
X23566Y17156D01*
X23490Y17194D01*
X23452Y17270D01*
X23452Y17575D01*
X23490Y17651D01*
X23566Y17689D01*
X23719Y17689D01*
X23795Y17651D01*
X23833Y17575D01*
X23833Y17499D01*
X23452Y17422D01*
X24100Y17689D02*
X24290Y17156D01*
X24480Y17689D01*
X25814Y17156D02*
X25357Y17156D01*
X25585Y17156D02*
X25585Y17956D01*
X25509Y17841D01*
X25433Y17765D01*
X25357Y17727D01*
X23147Y15886D02*
X22880Y16267D01*
X22690Y15886D02*
X22690Y16686D01*
X22995Y16686D01*
X23071Y16648D01*
X23109Y16610D01*
X23147Y16533D01*
X23147Y16419D01*
X23109Y16343D01*
X23071Y16305D01*
X22995Y16267D01*
X22690Y16267D01*
X23795Y15924D02*
X23719Y15886D01*
X23566Y15886D01*
X23490Y15924D01*
X23452Y16000D01*
X23452Y16305D01*
X23490Y16381D01*
X23566Y16419D01*
X23719Y16419D01*
X23795Y16381D01*
X23833Y16305D01*
X23833Y16229D01*
X23452Y16152D01*
X24519Y15924D02*
X24442Y15886D01*
X24290Y15886D01*
X24214Y15924D01*
X24176Y15962D01*
X24138Y16038D01*
X24138Y16267D01*
X24176Y16343D01*
X24214Y16381D01*
X24290Y16419D01*
X24442Y16419D01*
X24519Y16381D01*
X24976Y15886D02*
X24899Y15924D01*
X24861Y16000D01*
X24861Y16686D01*
X25623Y15886D02*
X25623Y16305D01*
X25585Y16381D01*
X25509Y16419D01*
X25357Y16419D01*
X25280Y16381D01*
X25623Y15924D02*
X25547Y15886D01*
X25357Y15886D01*
X25280Y15924D01*
X25242Y16000D01*
X25242Y16076D01*
X25280Y16152D01*
X25357Y16190D01*
X25547Y16190D01*
X25623Y16229D01*
X26004Y15886D02*
X26004Y16419D01*
X26004Y16686D02*
X25966Y16648D01*
X26004Y16610D01*
X26042Y16648D01*
X26004Y16686D01*
X26004Y16610D01*
X26385Y15886D02*
X26385Y16419D01*
X26385Y16343D02*
X26423Y16381D01*
X26499Y16419D01*
X26614Y16419D01*
X26690Y16381D01*
X26728Y16305D01*
X26728Y15886D01*
X26728Y16305D02*
X26766Y16381D01*
X26842Y16419D01*
X26957Y16419D01*
X27033Y16381D01*
X27071Y16305D01*
X27071Y15886D01*
X27757Y15924D02*
X27680Y15886D01*
X27528Y15886D01*
X27452Y15924D01*
X27414Y16000D01*
X27414Y16305D01*
X27452Y16381D01*
X27528Y16419D01*
X27680Y16419D01*
X27757Y16381D01*
X27795Y16305D01*
X27795Y16229D01*
X27414Y16152D01*
X28138Y15886D02*
X28138Y16419D01*
X28138Y16267D02*
X28176Y16343D01*
X28214Y16381D01*
X28290Y16419D01*
X28366Y16419D01*
X29623Y15886D02*
X29242Y15886D01*
X29242Y16686D01*
X30233Y15886D02*
X30233Y16305D01*
X30195Y16381D01*
X30119Y16419D01*
X29966Y16419D01*
X29890Y16381D01*
X30233Y15924D02*
X30157Y15886D01*
X29966Y15886D01*
X29890Y15924D01*
X29852Y16000D01*
X29852Y16076D01*
X29890Y16152D01*
X29966Y16190D01*
X30157Y16190D01*
X30233Y16229D01*
X30614Y15886D02*
X30614Y16686D01*
X30614Y16381D02*
X30690Y16419D01*
X30842Y16419D01*
X30919Y16381D01*
X30957Y16343D01*
X30995Y16267D01*
X30995Y16038D01*
X30957Y15962D01*
X30919Y15924D01*
X30842Y15886D01*
X30690Y15886D01*
X30614Y15924D01*
X31299Y15924D02*
X31376Y15886D01*
X31528Y15886D01*
X31604Y15924D01*
X31642Y16000D01*
X31642Y16038D01*
X31604Y16114D01*
X31528Y16152D01*
X31414Y16152D01*
X31338Y16190D01*
X31299Y16267D01*
X31299Y16305D01*
X31338Y16381D01*
X31414Y16419D01*
X31528Y16419D01*
X31604Y16381D01*
X22614Y15416D02*
X23109Y15416D01*
X22842Y15111D01*
X22957Y15111D01*
X23033Y15073D01*
X23071Y15035D01*
X23109Y14959D01*
X23109Y14768D01*
X23071Y14692D01*
X23033Y14654D01*
X22957Y14616D01*
X22728Y14616D01*
X22652Y14654D01*
X22614Y14692D01*
X24061Y14616D02*
X24061Y15416D01*
X24519Y14616D01*
X24519Y15416D01*
X25014Y14616D02*
X24938Y14654D01*
X24900Y14692D01*
X24861Y14768D01*
X24861Y14997D01*
X24900Y15073D01*
X24938Y15111D01*
X25014Y15149D01*
X25128Y15149D01*
X25204Y15111D01*
X25242Y15073D01*
X25280Y14997D01*
X25280Y14768D01*
X25242Y14692D01*
X25204Y14654D01*
X25128Y14616D01*
X25014Y14616D01*
X25547Y15149D02*
X25738Y14616D01*
X25928Y15149D01*
X26538Y14654D02*
X26461Y14616D01*
X26309Y14616D01*
X26233Y14654D01*
X26195Y14730D01*
X26195Y15035D01*
X26233Y15111D01*
X26309Y15149D01*
X26461Y15149D01*
X26538Y15111D01*
X26576Y15035D01*
X26576Y14959D01*
X26195Y14882D01*
X26919Y14616D02*
X26919Y15149D01*
X26919Y15073D02*
X26957Y15111D01*
X27033Y15149D01*
X27147Y15149D01*
X27223Y15111D01*
X27261Y15035D01*
X27261Y14616D01*
X27261Y15035D02*
X27299Y15111D01*
X27376Y15149D01*
X27490Y15149D01*
X27566Y15111D01*
X27604Y15035D01*
X27604Y14616D01*
X27985Y14616D02*
X27985Y15416D01*
X27985Y15111D02*
X28061Y15149D01*
X28214Y15149D01*
X28290Y15111D01*
X28328Y15073D01*
X28366Y14997D01*
X28366Y14768D01*
X28328Y14692D01*
X28290Y14654D01*
X28214Y14616D01*
X28061Y14616D01*
X27985Y14654D01*
X29014Y14654D02*
X28938Y14616D01*
X28785Y14616D01*
X28709Y14654D01*
X28671Y14730D01*
X28671Y15035D01*
X28709Y15111D01*
X28785Y15149D01*
X28938Y15149D01*
X29014Y15111D01*
X29052Y15035D01*
X29052Y14959D01*
X28671Y14882D01*
X29395Y14616D02*
X29395Y15149D01*
X29395Y14997D02*
X29433Y15073D01*
X29471Y15111D01*
X29547Y15149D01*
X29623Y15149D01*
X30461Y15340D02*
X30499Y15378D01*
X30576Y15416D01*
X30766Y15416D01*
X30842Y15378D01*
X30880Y15340D01*
X30919Y15263D01*
X30919Y15187D01*
X30880Y15073D01*
X30423Y14616D01*
X30919Y14616D01*
X31414Y15416D02*
X31490Y15416D01*
X31566Y15378D01*
X31604Y15340D01*
X31642Y15263D01*
X31680Y15111D01*
X31680Y14920D01*
X31642Y14768D01*
X31604Y14692D01*
X31566Y14654D01*
X31490Y14616D01*
X31414Y14616D01*
X31338Y14654D01*
X31299Y14692D01*
X31261Y14768D01*
X31223Y14920D01*
X31223Y15111D01*
X31261Y15263D01*
X31299Y15340D01*
X31338Y15378D01*
X31414Y15416D01*
X32442Y14616D02*
X31985Y14616D01*
X32214Y14616D02*
X32214Y15416D01*
X32138Y15301D01*
X32061Y15225D01*
X31985Y15187D01*
X33128Y15149D02*
X33128Y14616D01*
X32938Y15454D02*
X32747Y14882D01*
X33242Y14882D01*
G54D12*
X31373Y55850D02*
G75*
G03X31373Y55850I-223J0D01*
G74*
G01*
X32050Y55450D02*
X20450Y55450D01*
X20450Y55450D02*
X20450Y55050D01*
X20450Y55050D02*
X32050Y55050D01*
X32050Y55050D02*
X32050Y55450D01*
X21573Y47650D02*
G75*
G03X21573Y47650I-223J0D01*
G74*
G01*
X20450Y48050D02*
X32050Y48050D01*
X32050Y48050D02*
X32050Y48450D01*
X32050Y48450D02*
X20450Y48450D01*
X20450Y48450D02*
X20450Y48050D01*
G54D10*
X4250Y10250D02*
X1750Y10250D01*
X1750Y1750D02*
X4250Y1750D01*
X1750Y1750D02*
X1750Y10250D01*
X4250Y2250D02*
X4250Y1750D01*
X4250Y9750D02*
X4250Y10250D01*
X4000Y9750D02*
X4250Y9750D01*
X4000Y2250D02*
X4250Y2250D01*
X4000Y2750D02*
X4000Y2250D01*
X4000Y2750D02*
X4250Y2750D01*
X4250Y2750D02*
X4250Y3250D01*
X4250Y3250D02*
X4000Y3250D01*
X4000Y3250D02*
X4000Y3750D01*
X4000Y3750D02*
X4250Y3750D01*
X4250Y3750D02*
X4250Y4250D01*
X4250Y4250D02*
X4000Y4250D01*
X4000Y4250D02*
X4000Y4750D01*
X4000Y4750D02*
X4250Y4750D01*
X4250Y4750D02*
X4250Y5250D01*
X4250Y5250D02*
X4000Y5250D01*
X4000Y5250D02*
X4000Y5750D01*
X4000Y5750D02*
X4250Y5750D01*
X4250Y5750D02*
X4250Y6250D01*
X4250Y6250D02*
X4000Y6250D01*
X4000Y6250D02*
X4000Y6750D01*
X4000Y6750D02*
X4250Y6750D01*
X4250Y6750D02*
X4250Y7250D01*
X4250Y7250D02*
X4000Y7250D01*
X4000Y7250D02*
X4000Y7750D01*
X4000Y7750D02*
X4250Y7750D01*
X4250Y7750D02*
X4250Y8250D01*
X4250Y8250D02*
X4000Y8250D01*
X4000Y8250D02*
X4000Y8750D01*
X4000Y8750D02*
X4250Y8750D01*
X4250Y8750D02*
X4250Y9250D01*
X4250Y9250D02*
X4000Y9250D01*
X4000Y9250D02*
X4000Y9750D01*
X2500Y3500D02*
X2000Y3000D01*
X2000Y3000D02*
X2500Y2500D01*
X2500Y2500D02*
X2500Y3500D01*
X2500Y8500D02*
X2000Y9000D01*
X2000Y9000D02*
X2500Y9500D01*
X2500Y9500D02*
X2500Y8500D01*
X1000Y1750D02*
G75*
G03X1000Y1750I-250J0D01*
G74*
G01*
X4250Y58250D02*
X1750Y58250D01*
X1750Y49750D02*
X4250Y49750D01*
X1750Y49750D02*
X1750Y58250D01*
X4250Y50250D02*
X4250Y49750D01*
X4250Y57750D02*
X4250Y58250D01*
X4000Y57750D02*
X4250Y57750D01*
X4000Y50250D02*
X4250Y50250D01*
X4000Y50750D02*
X4000Y50250D01*
X4000Y50750D02*
X4250Y50750D01*
X4250Y50750D02*
X4250Y51250D01*
X4250Y51250D02*
X4000Y51250D01*
X4000Y51250D02*
X4000Y51750D01*
X4000Y51750D02*
X4250Y51750D01*
X4250Y51750D02*
X4250Y52250D01*
X4250Y52250D02*
X4000Y52250D01*
X4000Y52250D02*
X4000Y52750D01*
X4000Y52750D02*
X4250Y52750D01*
X4250Y52750D02*
X4250Y53250D01*
X4250Y53250D02*
X4000Y53250D01*
X4000Y53250D02*
X4000Y53750D01*
X4000Y53750D02*
X4250Y53750D01*
X4250Y53750D02*
X4250Y54250D01*
X4250Y54250D02*
X4000Y54250D01*
X4000Y54250D02*
X4000Y54750D01*
X4000Y54750D02*
X4250Y54750D01*
X4250Y54750D02*
X4250Y55250D01*
X4250Y55250D02*
X4000Y55250D01*
X4000Y55250D02*
X4000Y55750D01*
X4000Y55750D02*
X4250Y55750D01*
X4250Y55750D02*
X4250Y56250D01*
X4250Y56250D02*
X4000Y56250D01*
X4000Y56250D02*
X4000Y56750D01*
X4000Y56750D02*
X4250Y56750D01*
X4250Y56750D02*
X4250Y57250D01*
X4250Y57250D02*
X4000Y57250D01*
X4000Y57250D02*
X4000Y57750D01*
X2500Y51500D02*
X2000Y51000D01*
X2000Y51000D02*
X2500Y50500D01*
X2500Y50500D02*
X2500Y51500D01*
X2500Y56500D02*
X2000Y57000D01*
X2000Y57000D02*
X2500Y57500D01*
X2500Y57500D02*
X2500Y56500D01*
X1000Y49750D02*
G75*
G03X1000Y49750I-250J0D01*
G74*
G01*
G54D12*
X21650Y8100D02*
X21400Y7850D01*
X21400Y8100D02*
X21400Y6950D01*
X21400Y6950D02*
X21650Y6950D01*
X21650Y6950D02*
X21650Y8100D01*
X21650Y8100D02*
X21400Y8100D01*
G54D10*
X19500Y40250D02*
G75*
G03X19500Y40250I-250J0D01*
G74*
G01*
X18750Y38750D02*
G75*
G03X18750Y38250I250J-250D01*
G74*
G01*
X15000Y38750D02*
X15000Y38250D01*
X15000Y38250D02*
X19000Y38250D01*
X19000Y38250D02*
X19000Y38750D01*
X19000Y38750D02*
X15000Y38750D01*
X7500Y2000D02*
X7500Y10000D01*
X7500Y10000D02*
X6500Y10000D01*
X6500Y10000D02*
X6500Y2000D01*
X6500Y2000D02*
X7500Y2000D01*
X7500Y50000D02*
X7500Y58000D01*
X7500Y58000D02*
X6500Y58000D01*
X6500Y58000D02*
X6500Y50000D01*
X6500Y50000D02*
X7500Y50000D01*
G54D13*
X23000Y7000D02*
X23000Y7500D01*
X23500Y7000D02*
X23500Y7490D01*
X23650Y7000D02*
X22850Y7000D01*
X22850Y7000D02*
X22850Y7500D01*
X22850Y7500D02*
X23650Y7500D01*
X23650Y7500D02*
X23650Y7000D01*
X23750Y10250D02*
X24250Y10250D01*
X23750Y9750D02*
X24240Y9750D01*
X23750Y9600D02*
X23750Y10400D01*
X23750Y10400D02*
X24250Y10400D01*
X24250Y10400D02*
X24250Y9600D01*
X24250Y9600D02*
X23750Y9600D01*
X19840Y6280D02*
X20160Y6280D01*
X20150Y6720D02*
X19840Y6720D01*
X20160Y6820D02*
X20160Y6180D01*
X20160Y6180D02*
X19840Y6180D01*
X19840Y6180D02*
X19840Y6820D01*
X19840Y6820D02*
X20160Y6820D01*
X18410Y35970D02*
X18090Y35970D01*
X18100Y35530D02*
X18410Y35530D01*
X18090Y35430D02*
X18090Y36070D01*
X18090Y36070D02*
X18410Y36070D01*
X18410Y36070D02*
X18410Y35430D01*
X18410Y35430D02*
X18090Y35430D01*
X21280Y8660D02*
X21280Y8340D01*
X21720Y8350D02*
X21720Y8660D01*
X21820Y8340D02*
X21180Y8340D01*
X21180Y8340D02*
X21180Y8660D01*
X21180Y8660D02*
X21820Y8660D01*
X21820Y8660D02*
X21820Y8340D01*
X22470Y6090D02*
X22470Y6410D01*
X22030Y6400D02*
X22030Y6090D01*
X21930Y6410D02*
X22570Y6410D01*
X22570Y6410D02*
X22570Y6090D01*
X22570Y6090D02*
X21930Y6090D01*
X21930Y6090D02*
X21930Y6410D01*
X19840Y7530D02*
X20160Y7530D01*
X20150Y7970D02*
X19840Y7970D01*
X20160Y8070D02*
X20160Y7430D01*
X20160Y7430D02*
X19840Y7430D01*
X19840Y7430D02*
X19840Y8070D01*
X19840Y8070D02*
X20160Y8070D01*
X19840Y38280D02*
X20160Y38280D01*
X20150Y38720D02*
X19840Y38720D01*
X20160Y38820D02*
X20160Y38180D01*
X20160Y38180D02*
X19840Y38180D01*
X19840Y38180D02*
X19840Y38820D01*
X19840Y38820D02*
X20160Y38820D01*
G54D10*
X30250Y7000D02*
X28750Y7000D01*
X30250Y5000D02*
X28750Y5000D01*
G54D12*
X23300Y9900D02*
X23300Y10100D01*
X21700Y9900D02*
X21700Y10100D01*
X22700Y7900D02*
X22700Y7800D01*
X22700Y8700D02*
X22700Y8600D01*
X23600Y7950D02*
X23600Y7750D01*
X23750Y7950D02*
X23650Y7850D01*
X23650Y7850D02*
X23750Y7750D01*
X23750Y7750D02*
X23750Y7950D01*
X23800Y8750D02*
X23800Y8550D01*
X23900Y8650D02*
X23700Y8650D01*
G54D10*
X32250Y58250D02*
X20250Y58250D01*
X20250Y57250D02*
X32250Y57250D01*
X20250Y58250D02*
X20250Y57250D01*
X32250Y57250D02*
X32250Y58250D01*
X20250Y45250D02*
X32250Y45250D01*
X32250Y46250D02*
X20250Y46250D01*
X32250Y45250D02*
X32250Y46250D01*
X20250Y46250D02*
X20250Y45250D01*
X8147Y24144D02*
X8245Y24144D01*
X8245Y23652D02*
X8147Y23652D01*
X8245Y24144D02*
X8245Y23652D01*
X8541Y23947D02*
X8541Y23849D01*
X8147Y23849D02*
X8541Y23849D01*
X8147Y23947D02*
X8541Y23947D01*
X8147Y24046D02*
X8147Y24144D01*
X8147Y23652D02*
X8147Y24046D01*
X8541Y23258D02*
X8147Y23258D01*
X8344Y23455D02*
X8344Y23061D01*
X12326Y17125D02*
X12228Y17125D01*
X12228Y17617D02*
X12326Y17617D01*
X12228Y17125D02*
X12228Y17617D01*
X11932Y17322D02*
X11932Y17420D01*
X12326Y17420D02*
X11932Y17420D01*
X12326Y17322D02*
X11932Y17322D01*
X12326Y17223D02*
X12326Y17125D01*
X12326Y17617D02*
X12326Y17223D01*
X11932Y18011D02*
X12326Y18011D01*
X12129Y17814D02*
X12129Y18207D01*
X10206Y12468D02*
X10304Y12468D01*
X10304Y11975D02*
X10206Y11975D01*
X10304Y12468D02*
X10304Y11975D01*
X10600Y12271D02*
X10600Y12172D01*
X10206Y12172D02*
X10600Y12172D01*
X10206Y12271D02*
X10600Y12271D01*
X10206Y12369D02*
X10206Y12468D01*
X10206Y11975D02*
X10206Y12369D01*
X10600Y11582D02*
X10206Y11582D01*
X10403Y11779D02*
X10403Y11385D01*
X24793Y38952D02*
X24891Y38952D01*
X24891Y38460D02*
X24793Y38460D01*
X24891Y38952D02*
X24891Y38460D01*
X25186Y38755D02*
X25186Y38657D01*
X24793Y38657D02*
X25186Y38657D01*
X24793Y38755D02*
X25186Y38755D01*
X24793Y38854D02*
X24793Y38952D01*
X24793Y38460D02*
X24793Y38854D01*
X25186Y38066D02*
X24793Y38066D01*
X24989Y38263D02*
X24989Y37869D01*
X28626Y33894D02*
X28527Y33894D01*
X28527Y34386D02*
X28626Y34386D01*
X28527Y33894D02*
X28527Y34386D01*
X28232Y34091D02*
X28232Y34189D01*
X28626Y34189D02*
X28232Y34189D01*
X28626Y34091D02*
X28232Y34091D01*
X28626Y33992D02*
X28626Y33894D01*
X28626Y34386D02*
X28626Y33992D01*
X28232Y34780D02*
X28626Y34780D01*
X28429Y34583D02*
X28429Y34976D01*
X30619Y30594D02*
X30717Y30594D01*
X30717Y30102D02*
X30619Y30102D01*
X30717Y30594D02*
X30717Y30102D01*
X31012Y30398D02*
X31012Y30299D01*
X30619Y30299D02*
X31012Y30299D01*
X30619Y30398D02*
X31012Y30398D01*
X30619Y30496D02*
X30619Y30594D01*
X30619Y30102D02*
X30619Y30496D01*
X31012Y29709D02*
X30619Y29709D01*
X30815Y29905D02*
X30815Y29512D01*
X30774Y21153D02*
X30675Y21153D01*
X30675Y21645D02*
X30774Y21645D01*
X30675Y21153D02*
X30675Y21645D01*
X30380Y21350D02*
X30380Y21448D01*
X30774Y21448D02*
X30380Y21448D01*
X30774Y21350D02*
X30380Y21350D01*
X30774Y21251D02*
X30774Y21153D01*
X30774Y21645D02*
X30774Y21251D01*
X30380Y22039D02*
X30774Y22039D01*
X30577Y21842D02*
X30577Y22236D01*
X34556Y30594D02*
X34654Y30594D01*
X34654Y30102D02*
X34556Y30102D01*
X34654Y30594D02*
X34654Y30102D01*
X34949Y30398D02*
X34949Y30299D01*
X34556Y30299D02*
X34949Y30299D01*
X34556Y30398D02*
X34949Y30398D01*
X34556Y30496D02*
X34556Y30594D01*
X34556Y30102D02*
X34556Y30496D01*
X34949Y29709D02*
X34556Y29709D01*
X34752Y29905D02*
X34752Y29512D01*
X7083Y47366D02*
X6984Y47366D01*
X6984Y47858D02*
X7083Y47858D01*
X6984Y47366D02*
X6984Y47858D01*
X6689Y47563D02*
X6689Y47661D01*
X7083Y47661D02*
X6689Y47661D01*
X7083Y47563D02*
X6689Y47563D01*
X7083Y47465D02*
X7083Y47366D01*
X7083Y47858D02*
X7083Y47465D01*
X6689Y48252D02*
X7083Y48252D01*
X6886Y48055D02*
X6886Y48449D01*
X26941Y26211D02*
X27039Y26211D01*
X27039Y25719D02*
X26941Y25719D01*
X27039Y26211D02*
X27039Y25719D01*
X27334Y26014D02*
X27334Y25916D01*
X26941Y25916D02*
X27334Y25916D01*
X26941Y26014D02*
X27334Y26014D01*
X26941Y26113D02*
X26941Y26211D01*
X26941Y25719D02*
X26941Y26113D01*
X27334Y25325D02*
X26941Y25325D01*
X27137Y25522D02*
X27137Y25128D01*
X4959Y42732D02*
X5057Y42732D01*
X5057Y42240D02*
X4959Y42240D01*
X5057Y42732D02*
X5057Y42240D01*
X5352Y42535D02*
X5352Y42436D01*
X4959Y42436D02*
X5352Y42436D01*
X4959Y42535D02*
X5352Y42535D01*
X4959Y42633D02*
X4959Y42732D01*
X4959Y42240D02*
X4959Y42633D01*
X5352Y41846D02*
X4959Y41846D01*
X5156Y42043D02*
X5156Y41649D01*
X9134Y35735D02*
X9035Y35735D01*
X9035Y36227D02*
X9134Y36227D01*
X9035Y35735D02*
X9035Y36227D01*
X8740Y35932D02*
X8740Y36030D01*
X9134Y36030D02*
X8740Y36030D01*
X9134Y35932D02*
X8740Y35932D01*
X9134Y35833D02*
X9134Y35735D01*
X9134Y36227D02*
X9134Y35833D01*
X8740Y36621D02*
X9134Y36621D01*
X8937Y36424D02*
X8937Y36818D01*
X20929Y29413D02*
X20831Y29413D01*
X20831Y29905D02*
X20929Y29905D01*
X20831Y29413D02*
X20831Y29905D01*
X20536Y29610D02*
X20536Y29709D01*
X20929Y29709D02*
X20536Y29709D01*
X20929Y29610D02*
X20536Y29610D01*
X20929Y29512D02*
X20929Y29413D01*
X20929Y29905D02*
X20929Y29512D01*
X20536Y30299D02*
X20929Y30299D01*
X20732Y30102D02*
X20732Y30496D01*
X24866Y29413D02*
X24768Y29413D01*
X24768Y29905D02*
X24866Y29905D01*
X24768Y29413D02*
X24768Y29905D01*
X24473Y29610D02*
X24473Y29709D01*
X24866Y29709D02*
X24473Y29709D01*
X24866Y29610D02*
X24473Y29610D01*
X24866Y29512D02*
X24866Y29413D01*
X24866Y29905D02*
X24866Y29512D01*
X24473Y30299D02*
X24866Y30299D01*
X24669Y30102D02*
X24669Y30496D01*
X5254Y11354D02*
X5156Y11354D01*
X5156Y11846D02*
X5254Y11846D01*
X5156Y11354D02*
X5156Y11846D01*
X4860Y11551D02*
X4860Y11649D01*
X5254Y11649D02*
X4860Y11649D01*
X5254Y11551D02*
X4860Y11551D01*
X5254Y11452D02*
X5254Y11354D01*
X5254Y11846D02*
X5254Y11452D01*
X4860Y12240D02*
X5254Y12240D01*
X5057Y12043D02*
X5057Y12436D01*
G54D12*
X35994Y5015D02*
X35994Y4228D01*
X35994Y4228D02*
X37175Y4228D01*
X37175Y7771D02*
X35994Y7771D01*
X35994Y7771D02*
X35994Y6984D01*
X41505Y7771D02*
X41505Y4228D01*
X41505Y4228D02*
X40324Y4228D01*
X41505Y7771D02*
X40324Y7771D01*
G54D10*
X32702Y55083D02*
X33059Y55083D01*
X33130Y55059D01*
X33178Y55011D01*
X33202Y54940D01*
X33202Y54892D01*
X32702Y55535D02*
X32702Y55440D01*
X32726Y55392D01*
X32750Y55369D01*
X32821Y55321D01*
X32916Y55297D01*
X33107Y55297D01*
X33154Y55321D01*
X33178Y55345D01*
X33202Y55392D01*
X33202Y55488D01*
X33178Y55535D01*
X33154Y55559D01*
X33107Y55583D01*
X32988Y55583D01*
X32940Y55559D01*
X32916Y55535D01*
X32892Y55488D01*
X32892Y55392D01*
X32916Y55345D01*
X32940Y55321D01*
X32988Y55297D01*
X32702Y48083D02*
X33059Y48083D01*
X33130Y48059D01*
X33178Y48011D01*
X33202Y47940D01*
X33202Y47892D01*
X32702Y48559D02*
X32702Y48321D01*
X32940Y48297D01*
X32916Y48321D01*
X32892Y48369D01*
X32892Y48488D01*
X32916Y48535D01*
X32940Y48559D01*
X32988Y48583D01*
X33107Y48583D01*
X33154Y48559D01*
X33178Y48535D01*
X33202Y48488D01*
X33202Y48369D01*
X33178Y48321D01*
X33154Y48297D01*
X2833Y1297D02*
X2833Y940D01*
X2809Y869D01*
X2761Y821D01*
X2690Y797D01*
X2642Y797D01*
X3333Y797D02*
X3047Y797D01*
X3190Y797D02*
X3190Y1297D01*
X3142Y1226D01*
X3095Y1178D01*
X3047Y1154D01*
X2452Y3904D02*
X1952Y3904D01*
X2309Y4071D01*
X1952Y4238D01*
X2452Y4238D01*
X2452Y4690D02*
X2190Y4690D01*
X2142Y4666D01*
X2119Y4619D01*
X2119Y4523D01*
X2142Y4476D01*
X2428Y4690D02*
X2452Y4642D01*
X2452Y4523D01*
X2428Y4476D01*
X2380Y4452D01*
X2333Y4452D01*
X2285Y4476D01*
X2261Y4523D01*
X2261Y4642D01*
X2238Y4690D01*
X2119Y4857D02*
X2119Y5047D01*
X1952Y4928D02*
X2380Y4928D01*
X2428Y4952D01*
X2452Y5000D01*
X2452Y5047D01*
X2452Y5214D02*
X2119Y5214D01*
X1952Y5214D02*
X1976Y5190D01*
X2000Y5214D01*
X1976Y5238D01*
X1952Y5214D01*
X2000Y5214D01*
X2119Y5452D02*
X2452Y5452D01*
X2166Y5452D02*
X2142Y5476D01*
X2119Y5523D01*
X2119Y5595D01*
X2142Y5642D01*
X2190Y5666D01*
X2452Y5666D01*
X2119Y6119D02*
X2523Y6119D01*
X2571Y6095D01*
X2595Y6071D01*
X2619Y6023D01*
X2619Y5952D01*
X2595Y5904D01*
X2428Y6119D02*
X2452Y6071D01*
X2452Y5976D01*
X2428Y5928D01*
X2404Y5904D01*
X2357Y5880D01*
X2214Y5880D01*
X2166Y5904D01*
X2142Y5928D01*
X2119Y5976D01*
X2119Y6071D01*
X2142Y6119D01*
X2428Y6714D02*
X2452Y6785D01*
X2452Y6904D01*
X2428Y6952D01*
X2404Y6976D01*
X2357Y7000D01*
X2309Y7000D01*
X2261Y6976D01*
X2238Y6952D01*
X2214Y6904D01*
X2190Y6809D01*
X2166Y6761D01*
X2142Y6738D01*
X2095Y6714D01*
X2047Y6714D01*
X2000Y6738D01*
X1976Y6761D01*
X1952Y6809D01*
X1952Y6928D01*
X1976Y7000D01*
X2452Y7214D02*
X2119Y7214D01*
X1952Y7214D02*
X1976Y7190D01*
X2000Y7214D01*
X1976Y7238D01*
X1952Y7214D01*
X2000Y7214D01*
X2452Y7666D02*
X1952Y7666D01*
X2428Y7666D02*
X2452Y7619D01*
X2452Y7523D01*
X2428Y7476D01*
X2404Y7452D01*
X2357Y7428D01*
X2214Y7428D01*
X2166Y7452D01*
X2142Y7476D01*
X2119Y7523D01*
X2119Y7619D01*
X2142Y7666D01*
X2428Y8095D02*
X2452Y8047D01*
X2452Y7952D01*
X2428Y7904D01*
X2380Y7880D01*
X2190Y7880D01*
X2142Y7904D01*
X2119Y7952D01*
X2119Y8047D01*
X2142Y8095D01*
X2190Y8119D01*
X2238Y8119D01*
X2285Y7880D01*
X2833Y59297D02*
X2833Y58940D01*
X2809Y58869D01*
X2761Y58821D01*
X2690Y58797D01*
X2642Y58797D01*
X3047Y59250D02*
X3071Y59273D01*
X3119Y59297D01*
X3238Y59297D01*
X3285Y59273D01*
X3309Y59250D01*
X3333Y59202D01*
X3333Y59154D01*
X3309Y59083D01*
X3023Y58797D01*
X3333Y58797D01*
X2452Y51904D02*
X1952Y51904D01*
X2309Y52071D01*
X1952Y52238D01*
X2452Y52238D01*
X2452Y52690D02*
X2190Y52690D01*
X2142Y52666D01*
X2119Y52619D01*
X2119Y52523D01*
X2142Y52476D01*
X2428Y52690D02*
X2452Y52642D01*
X2452Y52523D01*
X2428Y52476D01*
X2380Y52452D01*
X2333Y52452D01*
X2285Y52476D01*
X2261Y52523D01*
X2261Y52642D01*
X2238Y52690D01*
X2119Y52857D02*
X2119Y53047D01*
X1952Y52928D02*
X2380Y52928D01*
X2428Y52952D01*
X2452Y53000D01*
X2452Y53047D01*
X2452Y53214D02*
X2119Y53214D01*
X1952Y53214D02*
X1976Y53190D01*
X2000Y53214D01*
X1976Y53238D01*
X1952Y53214D01*
X2000Y53214D01*
X2119Y53452D02*
X2452Y53452D01*
X2166Y53452D02*
X2142Y53476D01*
X2119Y53523D01*
X2119Y53595D01*
X2142Y53642D01*
X2190Y53666D01*
X2452Y53666D01*
X2119Y54119D02*
X2523Y54119D01*
X2571Y54095D01*
X2595Y54071D01*
X2619Y54023D01*
X2619Y53952D01*
X2595Y53904D01*
X2428Y54119D02*
X2452Y54071D01*
X2452Y53976D01*
X2428Y53928D01*
X2404Y53904D01*
X2357Y53880D01*
X2214Y53880D01*
X2166Y53904D01*
X2142Y53928D01*
X2119Y53976D01*
X2119Y54071D01*
X2142Y54119D01*
X2428Y54714D02*
X2452Y54785D01*
X2452Y54904D01*
X2428Y54952D01*
X2404Y54976D01*
X2357Y55000D01*
X2309Y55000D01*
X2261Y54976D01*
X2238Y54952D01*
X2214Y54904D01*
X2190Y54809D01*
X2166Y54761D01*
X2142Y54738D01*
X2095Y54714D01*
X2047Y54714D01*
X2000Y54738D01*
X1976Y54761D01*
X1952Y54809D01*
X1952Y54928D01*
X1976Y55000D01*
X2452Y55214D02*
X2119Y55214D01*
X1952Y55214D02*
X1976Y55190D01*
X2000Y55214D01*
X1976Y55238D01*
X1952Y55214D01*
X2000Y55214D01*
X2452Y55666D02*
X1952Y55666D01*
X2428Y55666D02*
X2452Y55619D01*
X2452Y55523D01*
X2428Y55476D01*
X2404Y55452D01*
X2357Y55428D01*
X2214Y55428D01*
X2166Y55452D01*
X2142Y55476D01*
X2119Y55523D01*
X2119Y55619D01*
X2142Y55666D01*
X2428Y56095D02*
X2452Y56047D01*
X2452Y55952D01*
X2428Y55904D01*
X2380Y55880D01*
X2190Y55880D01*
X2142Y55904D01*
X2119Y55952D01*
X2119Y56047D01*
X2142Y56095D01*
X2190Y56119D01*
X2238Y56119D01*
X2285Y55880D01*
X20619Y6797D02*
X20619Y6392D01*
X20642Y6345D01*
X20666Y6321D01*
X20714Y6297D01*
X20809Y6297D01*
X20857Y6321D01*
X20880Y6345D01*
X20904Y6392D01*
X20904Y6797D01*
X21119Y6750D02*
X21142Y6773D01*
X21190Y6797D01*
X21309Y6797D01*
X21357Y6773D01*
X21380Y6750D01*
X21404Y6702D01*
X21404Y6654D01*
X21380Y6583D01*
X21095Y6297D01*
X21404Y6297D01*
X13952Y38119D02*
X14357Y38119D01*
X14404Y38142D01*
X14428Y38166D01*
X14452Y38214D01*
X14452Y38309D01*
X14428Y38357D01*
X14404Y38380D01*
X14357Y38404D01*
X13952Y38404D01*
X14452Y38904D02*
X14452Y38619D01*
X14452Y38761D02*
X13952Y38761D01*
X14023Y38714D01*
X14071Y38666D01*
X14095Y38619D01*
X6833Y1297D02*
X6833Y940D01*
X6809Y869D01*
X6761Y821D01*
X6690Y797D01*
X6642Y797D01*
X7023Y1297D02*
X7333Y1297D01*
X7166Y1107D01*
X7238Y1107D01*
X7285Y1083D01*
X7309Y1059D01*
X7333Y1011D01*
X7333Y892D01*
X7309Y845D01*
X7285Y821D01*
X7238Y797D01*
X7095Y797D01*
X7047Y821D01*
X7023Y845D01*
X6833Y59297D02*
X6833Y58940D01*
X6809Y58869D01*
X6761Y58821D01*
X6690Y58797D01*
X6642Y58797D01*
X7285Y59130D02*
X7285Y58797D01*
X7166Y59321D02*
X7047Y58964D01*
X7357Y58964D01*
X25154Y7166D02*
X25178Y7142D01*
X25202Y7071D01*
X25202Y7023D01*
X25178Y6952D01*
X25130Y6904D01*
X25083Y6880D01*
X24988Y6857D01*
X24916Y6857D01*
X24821Y6880D01*
X24773Y6904D01*
X24726Y6952D01*
X24702Y7023D01*
X24702Y7071D01*
X24726Y7142D01*
X24750Y7166D01*
X25202Y7642D02*
X25202Y7357D01*
X25202Y7500D02*
X24702Y7500D01*
X24773Y7452D01*
X24821Y7404D01*
X24845Y7357D01*
X23916Y11595D02*
X23892Y11571D01*
X23821Y11547D01*
X23773Y11547D01*
X23702Y11571D01*
X23654Y11619D01*
X23630Y11666D01*
X23607Y11761D01*
X23607Y11833D01*
X23630Y11928D01*
X23654Y11976D01*
X23702Y12023D01*
X23773Y12047D01*
X23821Y12047D01*
X23892Y12023D01*
X23916Y12000D01*
X24083Y12047D02*
X24392Y12047D01*
X24226Y11857D01*
X24297Y11857D01*
X24345Y11833D01*
X24369Y11809D01*
X24392Y11761D01*
X24392Y11642D01*
X24369Y11595D01*
X24345Y11571D01*
X24297Y11547D01*
X24154Y11547D01*
X24107Y11571D01*
X24083Y11595D01*
X19452Y6416D02*
X19214Y6250D01*
X19452Y6130D02*
X18952Y6130D01*
X18952Y6321D01*
X18976Y6369D01*
X19000Y6392D01*
X19047Y6416D01*
X19119Y6416D01*
X19166Y6392D01*
X19190Y6369D01*
X19214Y6321D01*
X19214Y6130D01*
X18952Y6583D02*
X18952Y6892D01*
X19142Y6726D01*
X19142Y6797D01*
X19166Y6845D01*
X19190Y6869D01*
X19238Y6892D01*
X19357Y6892D01*
X19404Y6869D01*
X19428Y6845D01*
X19452Y6797D01*
X19452Y6654D01*
X19428Y6607D01*
X19404Y6583D01*
X19452Y35666D02*
X19214Y35500D01*
X19452Y35380D02*
X18952Y35380D01*
X18952Y35571D01*
X18976Y35619D01*
X19000Y35642D01*
X19047Y35666D01*
X19119Y35666D01*
X19166Y35642D01*
X19190Y35619D01*
X19214Y35571D01*
X19214Y35380D01*
X19452Y36142D02*
X19452Y35857D01*
X19452Y36000D02*
X18952Y36000D01*
X19023Y35952D01*
X19071Y35904D01*
X19095Y35857D01*
X20666Y9095D02*
X20642Y9071D01*
X20571Y9047D01*
X20523Y9047D01*
X20452Y9071D01*
X20404Y9119D01*
X20380Y9166D01*
X20357Y9261D01*
X20357Y9333D01*
X20380Y9428D01*
X20404Y9476D01*
X20452Y9523D01*
X20523Y9547D01*
X20571Y9547D01*
X20642Y9523D01*
X20666Y9500D01*
X20857Y9500D02*
X20880Y9523D01*
X20928Y9547D01*
X21047Y9547D01*
X21095Y9523D01*
X21119Y9500D01*
X21142Y9452D01*
X21142Y9404D01*
X21119Y9333D01*
X20833Y9047D01*
X21142Y9047D01*
X22166Y5297D02*
X22000Y5535D01*
X21880Y5297D02*
X21880Y5797D01*
X22071Y5797D01*
X22119Y5773D01*
X22142Y5750D01*
X22166Y5702D01*
X22166Y5630D01*
X22142Y5583D01*
X22119Y5559D01*
X22071Y5535D01*
X21880Y5535D01*
X22357Y5750D02*
X22380Y5773D01*
X22428Y5797D01*
X22547Y5797D01*
X22595Y5773D01*
X22619Y5750D01*
X22642Y5702D01*
X22642Y5654D01*
X22619Y5583D01*
X22333Y5297D01*
X22642Y5297D01*
X19452Y7666D02*
X19214Y7500D01*
X19452Y7380D02*
X18952Y7380D01*
X18952Y7571D01*
X18976Y7619D01*
X19000Y7642D01*
X19047Y7666D01*
X19119Y7666D01*
X19166Y7642D01*
X19190Y7619D01*
X19214Y7571D01*
X19214Y7380D01*
X19119Y8095D02*
X19452Y8095D01*
X18928Y7976D02*
X19285Y7857D01*
X19285Y8166D01*
X21154Y38416D02*
X21178Y38392D01*
X21202Y38321D01*
X21202Y38273D01*
X21178Y38202D01*
X21130Y38154D01*
X21083Y38130D01*
X20988Y38107D01*
X20916Y38107D01*
X20821Y38130D01*
X20773Y38154D01*
X20726Y38202D01*
X20702Y38273D01*
X20702Y38321D01*
X20726Y38392D01*
X20750Y38416D01*
X20869Y38845D02*
X21202Y38845D01*
X20678Y38726D02*
X21035Y38607D01*
X21035Y38916D01*
X28690Y3797D02*
X28690Y4297D01*
X28880Y4297D01*
X28928Y4273D01*
X28952Y4250D01*
X28976Y4202D01*
X28976Y4130D01*
X28952Y4083D01*
X28928Y4059D01*
X28880Y4035D01*
X28690Y4035D01*
X29119Y4297D02*
X29404Y4297D01*
X29261Y3797D02*
X29261Y4297D01*
X29857Y3845D02*
X29833Y3821D01*
X29761Y3797D01*
X29714Y3797D01*
X29642Y3821D01*
X29595Y3869D01*
X29571Y3916D01*
X29547Y4011D01*
X29547Y4083D01*
X29571Y4178D01*
X29595Y4226D01*
X29642Y4273D01*
X29714Y4297D01*
X29761Y4297D01*
X29833Y4273D01*
X29857Y4250D01*
X30333Y3797D02*
X30047Y3797D01*
X30190Y3797D02*
X30190Y4297D01*
X30142Y4226D01*
X30095Y4178D01*
X30047Y4154D01*
X22416Y11547D02*
X22178Y11547D01*
X22178Y12047D01*
X22845Y11547D02*
X22559Y11547D01*
X22702Y11547D02*
X22702Y12047D01*
X22654Y11976D01*
X22607Y11928D01*
X22559Y11904D01*
X25202Y8392D02*
X24702Y8392D01*
X24702Y8511D01*
X24726Y8583D01*
X24773Y8630D01*
X24821Y8654D01*
X24916Y8678D01*
X24988Y8678D01*
X25083Y8654D01*
X25130Y8630D01*
X25178Y8583D01*
X25202Y8511D01*
X25202Y8392D01*
X25202Y9154D02*
X25202Y8869D01*
X25202Y9011D02*
X24702Y9011D01*
X24773Y8964D01*
X24821Y8916D01*
X24845Y8869D01*
X24702Y9583D02*
X24702Y9488D01*
X24726Y9440D01*
X24750Y9416D01*
X24821Y9369D01*
X24916Y9345D01*
X25107Y9345D01*
X25154Y9369D01*
X25178Y9392D01*
X25202Y9440D01*
X25202Y9535D01*
X25178Y9583D01*
X25154Y9607D01*
X25107Y9630D01*
X24988Y9630D01*
X24940Y9607D01*
X24916Y9583D01*
X24892Y9535D01*
X24892Y9440D01*
X24916Y9392D01*
X24940Y9369D01*
X24988Y9345D01*
X32702Y57583D02*
X33059Y57583D01*
X33130Y57559D01*
X33178Y57511D01*
X33202Y57440D01*
X33202Y57392D01*
X32916Y57892D02*
X32892Y57845D01*
X32869Y57821D01*
X32821Y57797D01*
X32797Y57797D01*
X32750Y57821D01*
X32726Y57845D01*
X32702Y57892D01*
X32702Y57988D01*
X32726Y58035D01*
X32750Y58059D01*
X32797Y58083D01*
X32821Y58083D01*
X32869Y58059D01*
X32892Y58035D01*
X32916Y57988D01*
X32916Y57892D01*
X32940Y57845D01*
X32964Y57821D01*
X33011Y57797D01*
X33107Y57797D01*
X33154Y57821D01*
X33178Y57845D01*
X33202Y57892D01*
X33202Y57988D01*
X33178Y58035D01*
X33154Y58059D01*
X33107Y58083D01*
X33011Y58083D01*
X32964Y58059D01*
X32940Y58035D01*
X32916Y57988D01*
X32702Y45583D02*
X33059Y45583D01*
X33130Y45559D01*
X33178Y45511D01*
X33202Y45440D01*
X33202Y45392D01*
X32702Y45773D02*
X32702Y46107D01*
X33202Y45892D01*
X9353Y24601D02*
X9353Y25101D01*
X9472Y25101D01*
X9543Y25077D01*
X9591Y25030D01*
X9615Y24982D01*
X9639Y24887D01*
X9639Y24815D01*
X9615Y24720D01*
X9591Y24673D01*
X9543Y24625D01*
X9472Y24601D01*
X9353Y24601D01*
X10067Y25101D02*
X9972Y25101D01*
X9924Y25077D01*
X9900Y25053D01*
X9853Y24982D01*
X9829Y24887D01*
X9829Y24696D01*
X9853Y24649D01*
X9877Y24625D01*
X9924Y24601D01*
X10019Y24601D01*
X10067Y24625D01*
X10091Y24649D01*
X10115Y24696D01*
X10115Y24815D01*
X10091Y24863D01*
X10067Y24887D01*
X10019Y24911D01*
X9924Y24911D01*
X9877Y24887D01*
X9853Y24863D01*
X9829Y24815D01*
X10382Y16263D02*
X10382Y16763D01*
X10501Y16763D01*
X10573Y16739D01*
X10620Y16691D01*
X10644Y16644D01*
X10668Y16549D01*
X10668Y16477D01*
X10644Y16382D01*
X10620Y16334D01*
X10573Y16287D01*
X10501Y16263D01*
X10382Y16263D01*
X11120Y16763D02*
X10882Y16763D01*
X10858Y16525D01*
X10882Y16549D01*
X10930Y16572D01*
X11049Y16572D01*
X11097Y16549D01*
X11120Y16525D01*
X11144Y16477D01*
X11144Y16358D01*
X11120Y16311D01*
X11097Y16287D01*
X11049Y16263D01*
X10930Y16263D01*
X10882Y16287D01*
X10858Y16311D01*
X11412Y12925D02*
X11412Y13425D01*
X11531Y13425D01*
X11602Y13401D01*
X11650Y13353D01*
X11674Y13306D01*
X11697Y13210D01*
X11697Y13139D01*
X11674Y13044D01*
X11650Y12996D01*
X11602Y12948D01*
X11531Y12925D01*
X11412Y12925D01*
X12126Y13258D02*
X12126Y12925D01*
X12007Y13448D02*
X11888Y13091D01*
X12197Y13091D01*
X25998Y39409D02*
X25998Y39909D01*
X26117Y39909D01*
X26189Y39885D01*
X26236Y39838D01*
X26260Y39790D01*
X26284Y39695D01*
X26284Y39624D01*
X26260Y39528D01*
X26236Y39481D01*
X26189Y39433D01*
X26117Y39409D01*
X25998Y39409D01*
X26570Y39695D02*
X26522Y39719D01*
X26498Y39743D01*
X26474Y39790D01*
X26474Y39814D01*
X26498Y39862D01*
X26522Y39885D01*
X26570Y39909D01*
X26665Y39909D01*
X26713Y39885D01*
X26736Y39862D01*
X26760Y39814D01*
X26760Y39790D01*
X26736Y39743D01*
X26713Y39719D01*
X26665Y39695D01*
X26570Y39695D01*
X26522Y39671D01*
X26498Y39647D01*
X26474Y39600D01*
X26474Y39504D01*
X26498Y39457D01*
X26522Y39433D01*
X26570Y39409D01*
X26665Y39409D01*
X26713Y39433D01*
X26736Y39457D01*
X26760Y39504D01*
X26760Y39600D01*
X26736Y39647D01*
X26713Y39671D01*
X26665Y39695D01*
X26682Y33032D02*
X26682Y33532D01*
X26801Y33532D01*
X26872Y33508D01*
X26920Y33461D01*
X26944Y33413D01*
X26968Y33318D01*
X26968Y33246D01*
X26944Y33151D01*
X26920Y33103D01*
X26872Y33056D01*
X26801Y33032D01*
X26682Y33032D01*
X27134Y33532D02*
X27468Y33532D01*
X27253Y33032D01*
X31642Y28547D02*
X31642Y29047D01*
X31761Y29047D01*
X31833Y29023D01*
X31880Y28976D01*
X31904Y28928D01*
X31928Y28833D01*
X31928Y28761D01*
X31904Y28666D01*
X31880Y28619D01*
X31833Y28571D01*
X31761Y28547D01*
X31642Y28547D01*
X32404Y28547D02*
X32119Y28547D01*
X32261Y28547D02*
X32261Y29047D01*
X32214Y28976D01*
X32166Y28928D01*
X32119Y28904D01*
X32571Y29047D02*
X32880Y29047D01*
X32714Y28857D01*
X32785Y28857D01*
X32833Y28833D01*
X32857Y28809D01*
X32880Y28761D01*
X32880Y28642D01*
X32857Y28595D01*
X32833Y28571D01*
X32785Y28547D01*
X32642Y28547D01*
X32595Y28571D01*
X32571Y28595D01*
X28592Y20291D02*
X28592Y20791D01*
X28711Y20791D01*
X28782Y20767D01*
X28830Y20720D01*
X28854Y20672D01*
X28878Y20577D01*
X28878Y20505D01*
X28854Y20410D01*
X28830Y20362D01*
X28782Y20315D01*
X28711Y20291D01*
X28592Y20291D01*
X29354Y20291D02*
X29068Y20291D01*
X29211Y20291D02*
X29211Y20791D01*
X29163Y20720D01*
X29116Y20672D01*
X29068Y20648D01*
X29544Y20743D02*
X29568Y20767D01*
X29616Y20791D01*
X29735Y20791D01*
X29782Y20767D01*
X29806Y20743D01*
X29830Y20696D01*
X29830Y20648D01*
X29806Y20577D01*
X29520Y20291D01*
X29830Y20291D01*
X35642Y28547D02*
X35642Y29047D01*
X35761Y29047D01*
X35833Y29023D01*
X35880Y28976D01*
X35904Y28928D01*
X35928Y28833D01*
X35928Y28761D01*
X35904Y28666D01*
X35880Y28619D01*
X35833Y28571D01*
X35761Y28547D01*
X35642Y28547D01*
X36404Y28547D02*
X36119Y28547D01*
X36261Y28547D02*
X36261Y29047D01*
X36214Y28976D01*
X36166Y28928D01*
X36119Y28904D01*
X36833Y28880D02*
X36833Y28547D01*
X36714Y29071D02*
X36595Y28714D01*
X36904Y28714D01*
X5139Y46504D02*
X5139Y47004D01*
X5258Y47004D01*
X5329Y46981D01*
X5377Y46933D01*
X5401Y46885D01*
X5425Y46790D01*
X5425Y46719D01*
X5401Y46623D01*
X5377Y46576D01*
X5329Y46528D01*
X5258Y46504D01*
X5139Y46504D01*
X5591Y47004D02*
X5901Y47004D01*
X5734Y46814D01*
X5806Y46814D01*
X5853Y46790D01*
X5877Y46766D01*
X5901Y46719D01*
X5901Y46600D01*
X5877Y46552D01*
X5853Y46528D01*
X5806Y46504D01*
X5663Y46504D01*
X5615Y46528D01*
X5591Y46552D01*
X27908Y26668D02*
X27908Y27168D01*
X28027Y27168D01*
X28099Y27144D01*
X28146Y27097D01*
X28170Y27049D01*
X28194Y26954D01*
X28194Y26882D01*
X28170Y26787D01*
X28146Y26740D01*
X28099Y26692D01*
X28027Y26668D01*
X27908Y26668D01*
X28670Y26668D02*
X28384Y26668D01*
X28527Y26668D02*
X28527Y27168D01*
X28480Y27097D01*
X28432Y27049D01*
X28384Y27025D01*
X29146Y26668D02*
X28861Y26668D01*
X29003Y26668D02*
X29003Y27168D01*
X28956Y27097D01*
X28908Y27049D01*
X28861Y27025D01*
X6164Y43189D02*
X6164Y43689D01*
X6284Y43689D01*
X6355Y43665D01*
X6403Y43617D01*
X6426Y43570D01*
X6450Y43475D01*
X6450Y43403D01*
X6426Y43308D01*
X6403Y43260D01*
X6355Y43213D01*
X6284Y43189D01*
X6164Y43189D01*
X6641Y43641D02*
X6664Y43665D01*
X6712Y43689D01*
X6831Y43689D01*
X6879Y43665D01*
X6903Y43641D01*
X6926Y43594D01*
X6926Y43546D01*
X6903Y43475D01*
X6617Y43189D01*
X6926Y43189D01*
X7190Y34873D02*
X7190Y35373D01*
X7309Y35373D01*
X7380Y35349D01*
X7428Y35302D01*
X7452Y35254D01*
X7476Y35159D01*
X7476Y35088D01*
X7452Y34992D01*
X7428Y34945D01*
X7380Y34897D01*
X7309Y34873D01*
X7190Y34873D01*
X7952Y34873D02*
X7666Y34873D01*
X7809Y34873D02*
X7809Y35373D01*
X7761Y35302D01*
X7714Y35254D01*
X7666Y35230D01*
X18747Y28552D02*
X18747Y29052D01*
X18866Y29052D01*
X18938Y29028D01*
X18985Y28980D01*
X19009Y28932D01*
X19033Y28837D01*
X19033Y28766D01*
X19009Y28671D01*
X18985Y28623D01*
X18938Y28575D01*
X18866Y28552D01*
X18747Y28552D01*
X19509Y28552D02*
X19224Y28552D01*
X19366Y28552D02*
X19366Y29052D01*
X19319Y28980D01*
X19271Y28932D01*
X19224Y28909D01*
X19819Y29052D02*
X19866Y29052D01*
X19914Y29028D01*
X19938Y29004D01*
X19962Y28956D01*
X19985Y28861D01*
X19985Y28742D01*
X19962Y28647D01*
X19938Y28599D01*
X19914Y28575D01*
X19866Y28552D01*
X19819Y28552D01*
X19771Y28575D01*
X19747Y28599D01*
X19724Y28647D01*
X19700Y28742D01*
X19700Y28861D01*
X19724Y28956D01*
X19747Y29004D01*
X19771Y29028D01*
X19819Y29052D01*
X22922Y28552D02*
X22922Y29052D01*
X23042Y29052D01*
X23113Y29028D01*
X23161Y28980D01*
X23184Y28932D01*
X23208Y28837D01*
X23208Y28766D01*
X23184Y28671D01*
X23161Y28623D01*
X23113Y28575D01*
X23042Y28552D01*
X22922Y28552D01*
X23446Y28552D02*
X23542Y28552D01*
X23589Y28575D01*
X23613Y28599D01*
X23661Y28671D01*
X23684Y28766D01*
X23684Y28956D01*
X23661Y29004D01*
X23637Y29028D01*
X23589Y29052D01*
X23494Y29052D01*
X23446Y29028D01*
X23422Y29004D01*
X23399Y28956D01*
X23399Y28837D01*
X23422Y28790D01*
X23446Y28766D01*
X23494Y28742D01*
X23589Y28742D01*
X23637Y28766D01*
X23661Y28790D01*
X23684Y28837D01*
X2202Y11392D02*
X1702Y11392D01*
X1702Y11511D01*
X1726Y11583D01*
X1773Y11630D01*
X1821Y11654D01*
X1916Y11678D01*
X1988Y11678D01*
X2083Y11654D01*
X2130Y11630D01*
X2178Y11583D01*
X2202Y11511D01*
X2202Y11392D01*
X2202Y12154D02*
X2202Y11869D01*
X2202Y12011D02*
X1702Y12011D01*
X1773Y11964D01*
X1821Y11916D01*
X1845Y11869D01*
X1702Y12607D02*
X1702Y12369D01*
X1940Y12345D01*
X1916Y12369D01*
X1892Y12416D01*
X1892Y12535D01*
X1916Y12583D01*
X1940Y12607D01*
X1988Y12630D01*
X2107Y12630D01*
X2154Y12607D01*
X2178Y12583D01*
X2202Y12535D01*
X2202Y12416D01*
X2178Y12369D01*
X2154Y12345D01*
X34833Y4797D02*
X34833Y4440D01*
X34809Y4369D01*
X34761Y4321D01*
X34690Y4297D01*
X34642Y4297D01*
X35095Y4297D02*
X35190Y4297D01*
X35238Y4321D01*
X35261Y4345D01*
X35309Y4416D01*
X35333Y4511D01*
X35333Y4702D01*
X35309Y4750D01*
X35285Y4773D01*
X35238Y4797D01*
X35142Y4797D01*
X35095Y4773D01*
X35071Y4750D01*
X35047Y4702D01*
X35047Y4583D01*
X35071Y4535D01*
X35095Y4511D01*
X35142Y4488D01*
X35238Y4488D01*
X35285Y4511D01*
X35309Y4535D01*
X35333Y4583D01*
%LPC*%
G54D14*
X31750Y56000D03*
X30750Y54500D03*
X29750Y56000D03*
X28750Y54500D03*
X27750Y56000D03*
X26750Y54500D03*
X25750Y56000D03*
X24750Y54500D03*
X23750Y56000D03*
X22750Y54500D03*
X21750Y56000D03*
X20750Y54500D03*
X20750Y47500D03*
X21750Y49000D03*
X22750Y47500D03*
X23750Y49000D03*
X24750Y47500D03*
X25750Y49000D03*
X26750Y47500D03*
X27750Y49000D03*
X28750Y47500D03*
X29750Y49000D03*
X30750Y47500D03*
X31750Y49000D03*
G54D15*
X975Y2500D03*
X975Y3500D03*
X975Y4500D03*
X975Y5500D03*
X975Y6500D03*
X975Y7500D03*
X975Y8500D03*
X975Y9500D03*
X5025Y2500D03*
X5025Y3500D03*
X5025Y4500D03*
X5025Y5500D03*
X5025Y6500D03*
X5025Y7500D03*
X5025Y8500D03*
X5025Y9500D03*
X975Y50500D03*
X975Y51500D03*
X975Y52500D03*
X975Y53500D03*
X975Y54500D03*
X975Y55500D03*
X975Y56500D03*
X975Y57500D03*
X5025Y50500D03*
X5025Y51500D03*
X5025Y52500D03*
X5025Y53500D03*
X5025Y54500D03*
X5025Y55500D03*
X5025Y56500D03*
X5025Y57500D03*
G54D16*
X21027Y7874D03*
X21027Y7500D03*
X21027Y7125D03*
X21972Y7125D03*
X21972Y7500D03*
X21972Y7874D03*
G54D17*
X18750Y39415D03*
X18250Y39415D03*
X17750Y39415D03*
X17250Y39415D03*
X16750Y39415D03*
X16250Y39415D03*
X15750Y39415D03*
X15250Y39415D03*
X15250Y37585D03*
X15750Y37585D03*
X16250Y37585D03*
X16750Y37585D03*
X17250Y37585D03*
X17750Y37585D03*
X18250Y37585D03*
X18750Y37585D03*
G54D18*
X7000Y2500D03*
G54D19*
X7000Y3500D03*
X7000Y4500D03*
X7000Y5500D03*
X7000Y6500D03*
X7000Y7500D03*
X7000Y8500D03*
X7000Y9500D03*
G54D18*
X7000Y50500D03*
G54D19*
X7000Y51500D03*
X7000Y52500D03*
X7000Y53500D03*
X7000Y54500D03*
X7000Y55500D03*
X7000Y56500D03*
X7000Y57500D03*
G54D20*
X22875Y7250D03*
X23625Y7250D03*
G54D21*
X24000Y10375D03*
X24000Y9625D03*
G54D22*
X20000Y6204D03*
X20000Y6796D03*
X18250Y36046D03*
X18250Y35454D03*
G54D23*
X21204Y8500D03*
X21796Y8500D03*
X22546Y6250D03*
X21954Y6250D03*
G54D22*
X20000Y7454D03*
X20000Y8046D03*
X20000Y38204D03*
X20000Y38796D03*
G54D24*
X30956Y6000D03*
X28043Y6000D03*
G54D25*
X22500Y9350D03*
X22500Y10650D03*
G54D26*
X39000Y45000D03*
X39000Y15000D03*
X3000Y45000D03*
X3000Y15000D03*
G54D27*
X22994Y8250D03*
G54D28*
X23742Y8250D03*
G54D18*
X31750Y57750D03*
G54D19*
X30750Y57750D03*
X29750Y57750D03*
X28750Y57750D03*
X27750Y57750D03*
X26750Y57750D03*
X25750Y57750D03*
X24750Y57750D03*
X23750Y57750D03*
X22750Y57750D03*
X21750Y57750D03*
X20750Y57750D03*
G54D18*
X20750Y45750D03*
G54D19*
X21750Y45750D03*
X22750Y45750D03*
X23750Y45750D03*
X24750Y45750D03*
X25750Y45750D03*
X26750Y45750D03*
X27750Y45750D03*
X28750Y45750D03*
X29750Y45750D03*
X30750Y45750D03*
X31750Y45750D03*
G54D29*
X8974Y23553D03*
X10470Y23553D03*
G54D30*
X9722Y23553D03*
G54D29*
X11499Y17715D03*
X10003Y17715D03*
G54D30*
X10751Y17715D03*
G54D29*
X11033Y11877D03*
X12529Y11877D03*
G54D30*
X11781Y11877D03*
G54D29*
X25619Y38362D03*
X27115Y38362D03*
G54D30*
X26367Y38362D03*
G54D29*
X27799Y34484D03*
X26303Y34484D03*
G54D30*
X27051Y34484D03*
G54D29*
X31445Y30004D03*
X32941Y30004D03*
G54D30*
X32193Y30004D03*
G54D29*
X29947Y21743D03*
X28451Y21743D03*
G54D30*
X29199Y21743D03*
G54D29*
X35382Y30004D03*
X36878Y30004D03*
G54D30*
X36130Y30004D03*
G54D29*
X6256Y47957D03*
X4760Y47957D03*
G54D30*
X5508Y47957D03*
G54D29*
X27767Y25621D03*
X29263Y25621D03*
G54D30*
X28515Y25621D03*
G54D29*
X5785Y42141D03*
X7282Y42141D03*
G54D30*
X6534Y42141D03*
G54D29*
X8307Y36326D03*
X6811Y36326D03*
G54D30*
X7559Y36326D03*
G54D29*
X20103Y30004D03*
X18606Y30004D03*
G54D30*
X19355Y30004D03*
G54D29*
X24040Y30004D03*
X22543Y30004D03*
G54D30*
X23292Y30004D03*
G54D29*
X4427Y11944D03*
X2931Y11944D03*
G54D30*
X3679Y11944D03*
G54D31*
X35206Y6000D03*
G54D32*
X38750Y3460D03*
X38750Y8539D03*
G54D33*
X40246Y6000D03*
M02*
