G04 (created by PCBNEW (2013-07-07 BZR 4022)-stable) date 11/4/2014 1:01:41 AM*
%MOIN*%
G04 Gerber Fmt 3.4, Leading zero omitted, Abs format*
%FSLAX34Y34*%
G01*
G70*
G90*
G04 APERTURE LIST*
%ADD10C,0.01*%
%ADD11R,0.035X0.07*%
%ADD12R,0.07X0.035*%
%ADD13R,0.0264961X0.0198031*%
%ADD14R,0.015X0.089*%
%ADD15R,0.0412X0.049*%
%ADD16R,0.049X0.0412*%
%ADD17R,0.0344X0.0304*%
%ADD18R,0.0304X0.0344*%
%ADD19R,0.0855512X0.215472*%
%ADD20R,0.145X0.05*%
%ADD21R,0.0737402X0.0383071*%
%ADD22R,0.0264961X0.0264961*%
%ADD23R,0.0461811X0.0579921*%
%ADD24R,0.168228X0.124921*%
%ADD25R,0.239094X0.148543*%
G04 APERTURE END LIST*
G54D10*
G54D11*
X31750Y56000D03*
X30750Y54500D03*
X29750Y56000D03*
X28750Y54500D03*
X27750Y56000D03*
X26750Y54500D03*
X25750Y56000D03*
X24750Y54500D03*
X23750Y56000D03*
X22750Y54500D03*
X21750Y56000D03*
X20750Y54500D03*
X20750Y47500D03*
X21750Y49000D03*
X22750Y47500D03*
X23750Y49000D03*
X24750Y47500D03*
X25750Y49000D03*
X26750Y47500D03*
X27750Y49000D03*
X28750Y47500D03*
X29750Y49000D03*
X30750Y47500D03*
X31750Y49000D03*
G54D12*
X975Y2500D03*
X975Y3500D03*
X975Y4500D03*
X975Y5500D03*
X975Y6500D03*
X975Y7500D03*
X975Y8500D03*
X975Y9500D03*
X5025Y2500D03*
X5025Y3500D03*
X5025Y4500D03*
X5025Y5500D03*
X5025Y6500D03*
X5025Y7500D03*
X5025Y8500D03*
X5025Y9500D03*
X975Y50500D03*
X975Y51500D03*
X975Y52500D03*
X975Y53500D03*
X975Y54500D03*
X975Y55500D03*
X975Y56500D03*
X975Y57500D03*
X5025Y50500D03*
X5025Y51500D03*
X5025Y52500D03*
X5025Y53500D03*
X5025Y54500D03*
X5025Y55500D03*
X5025Y56500D03*
X5025Y57500D03*
G54D13*
X21027Y7874D03*
X21027Y7500D03*
X21027Y7125D03*
X21972Y7125D03*
X21972Y7500D03*
X21972Y7874D03*
G54D14*
X18750Y39415D03*
X18250Y39415D03*
X17750Y39415D03*
X17250Y39415D03*
X16750Y39415D03*
X16250Y39415D03*
X15750Y39415D03*
X15250Y39415D03*
X15250Y37585D03*
X15750Y37585D03*
X16250Y37585D03*
X16750Y37585D03*
X17250Y37585D03*
X17750Y37585D03*
X18250Y37585D03*
X18750Y37585D03*
G54D15*
X22875Y7250D03*
X23625Y7250D03*
G54D16*
X24000Y10375D03*
X24000Y9625D03*
G54D17*
X20000Y6204D03*
X20000Y6796D03*
X18250Y36046D03*
X18250Y35454D03*
G54D18*
X21204Y8500D03*
X21796Y8500D03*
X22546Y6250D03*
X21954Y6250D03*
G54D17*
X20000Y7454D03*
X20000Y8046D03*
X20000Y38204D03*
X20000Y38796D03*
G54D19*
X30956Y6000D03*
X28043Y6000D03*
G54D20*
X22500Y9350D03*
X22500Y10650D03*
G54D21*
X22994Y8250D03*
G54D22*
X23742Y8250D03*
G54D23*
X8974Y23553D03*
X10470Y23553D03*
X11499Y17715D03*
X10003Y17715D03*
X11033Y11877D03*
X12529Y11877D03*
X25619Y38362D03*
X27115Y38362D03*
X27799Y34484D03*
X26303Y34484D03*
X31445Y30004D03*
X32941Y30004D03*
X29947Y21743D03*
X28451Y21743D03*
X35382Y30004D03*
X36878Y30004D03*
X6256Y47957D03*
X4760Y47957D03*
X27767Y25621D03*
X29263Y25621D03*
X5785Y42141D03*
X7282Y42141D03*
X8307Y36326D03*
X6811Y36326D03*
X20103Y30004D03*
X18606Y30004D03*
X24040Y30004D03*
X22543Y30004D03*
X4427Y11944D03*
X2931Y11944D03*
G54D24*
X35206Y6000D03*
G54D25*
X38750Y3460D03*
X38750Y8539D03*
M02*
