G04 (created by PCBNEW (2013-07-07 BZR 4022)-stable) date 11/4/2014 1:01:41 AM*
%MOIN*%
G04 Gerber Fmt 3.4, Leading zero omitted, Abs format*
%FSLAX34Y34*%
G01*
G70*
G90*
G04 APERTURE LIST*
%ADD10C,0.01*%
%ADD11R,0.054X0.089*%
%ADD12R,0.089X0.054*%
%ADD13R,0.0454961X0.0388031*%
%ADD14R,0.034X0.108*%
%ADD15R,0.074X0.074*%
%ADD16C,0.074*%
%ADD17R,0.0652X0.073*%
%ADD18R,0.073X0.0652*%
%ADD19R,0.0534X0.0494*%
%ADD20R,0.0494X0.0534*%
%ADD21R,0.104551X0.234472*%
%ADD22R,0.179X0.084*%
%ADD23C,0.301402*%
%ADD24R,0.0927402X0.0573071*%
%ADD25R,0.0454961X0.0454961*%
%ADD26R,0.0651811X0.0769921*%
%ADD27O,0.0987402X0.13811*%
%ADD28R,0.187228X0.143921*%
%ADD29R,0.258094X0.167543*%
%ADD30C,0.112425*%
G04 APERTURE END LIST*
G54D10*
G54D11*
X31750Y56000D03*
X30750Y54500D03*
X29750Y56000D03*
X28750Y54500D03*
X27750Y56000D03*
X26750Y54500D03*
X25750Y56000D03*
X24750Y54500D03*
X23750Y56000D03*
X22750Y54500D03*
X21750Y56000D03*
X20750Y54500D03*
X20750Y47500D03*
X21750Y49000D03*
X22750Y47500D03*
X23750Y49000D03*
X24750Y47500D03*
X25750Y49000D03*
X26750Y47500D03*
X27750Y49000D03*
X28750Y47500D03*
X29750Y49000D03*
X30750Y47500D03*
X31750Y49000D03*
G54D12*
X975Y2500D03*
X975Y3500D03*
X975Y4500D03*
X975Y5500D03*
X975Y6500D03*
X975Y7500D03*
X975Y8500D03*
X975Y9500D03*
X5025Y2500D03*
X5025Y3500D03*
X5025Y4500D03*
X5025Y5500D03*
X5025Y6500D03*
X5025Y7500D03*
X5025Y8500D03*
X5025Y9500D03*
X975Y50500D03*
X975Y51500D03*
X975Y52500D03*
X975Y53500D03*
X975Y54500D03*
X975Y55500D03*
X975Y56500D03*
X975Y57500D03*
X5025Y50500D03*
X5025Y51500D03*
X5025Y52500D03*
X5025Y53500D03*
X5025Y54500D03*
X5025Y55500D03*
X5025Y56500D03*
X5025Y57500D03*
G54D13*
X21027Y7874D03*
X21027Y7500D03*
X21027Y7125D03*
X21972Y7125D03*
X21972Y7500D03*
X21972Y7874D03*
G54D14*
X18750Y39415D03*
X18250Y39415D03*
X17750Y39415D03*
X17250Y39415D03*
X16750Y39415D03*
X16250Y39415D03*
X15750Y39415D03*
X15250Y39415D03*
X15250Y37585D03*
X15750Y37585D03*
X16250Y37585D03*
X16750Y37585D03*
X17250Y37585D03*
X17750Y37585D03*
X18250Y37585D03*
X18750Y37585D03*
G54D15*
X7000Y2500D03*
G54D16*
X7000Y3500D03*
X7000Y4500D03*
X7000Y5500D03*
X7000Y6500D03*
X7000Y7500D03*
X7000Y8500D03*
X7000Y9500D03*
G54D15*
X7000Y50500D03*
G54D16*
X7000Y51500D03*
X7000Y52500D03*
X7000Y53500D03*
X7000Y54500D03*
X7000Y55500D03*
X7000Y56500D03*
X7000Y57500D03*
G54D17*
X22875Y7250D03*
X23625Y7250D03*
G54D18*
X24000Y10375D03*
X24000Y9625D03*
G54D19*
X20000Y6204D03*
X20000Y6796D03*
X18250Y36046D03*
X18250Y35454D03*
G54D20*
X21204Y8500D03*
X21796Y8500D03*
X22546Y6250D03*
X21954Y6250D03*
G54D19*
X20000Y7454D03*
X20000Y8046D03*
X20000Y38204D03*
X20000Y38796D03*
G54D21*
X30956Y6000D03*
X28043Y6000D03*
G54D22*
X22500Y9350D03*
X22500Y10650D03*
G54D23*
X39000Y45000D03*
X39000Y15000D03*
X3000Y45000D03*
X3000Y15000D03*
G54D24*
X22994Y8250D03*
G54D25*
X23742Y8250D03*
G54D15*
X31750Y57750D03*
G54D16*
X30750Y57750D03*
X29750Y57750D03*
X28750Y57750D03*
X27750Y57750D03*
X26750Y57750D03*
X25750Y57750D03*
X24750Y57750D03*
X23750Y57750D03*
X22750Y57750D03*
X21750Y57750D03*
X20750Y57750D03*
G54D15*
X20750Y45750D03*
G54D16*
X21750Y45750D03*
X22750Y45750D03*
X23750Y45750D03*
X24750Y45750D03*
X25750Y45750D03*
X26750Y45750D03*
X27750Y45750D03*
X28750Y45750D03*
X29750Y45750D03*
X30750Y45750D03*
X31750Y45750D03*
G54D26*
X8974Y23553D03*
X10470Y23553D03*
G54D27*
X9722Y23553D03*
G54D26*
X11499Y17715D03*
X10003Y17715D03*
G54D27*
X10751Y17715D03*
G54D26*
X11033Y11877D03*
X12529Y11877D03*
G54D27*
X11781Y11877D03*
G54D26*
X25619Y38362D03*
X27115Y38362D03*
G54D27*
X26367Y38362D03*
G54D26*
X27799Y34484D03*
X26303Y34484D03*
G54D27*
X27051Y34484D03*
G54D26*
X31445Y30004D03*
X32941Y30004D03*
G54D27*
X32193Y30004D03*
G54D26*
X29947Y21743D03*
X28451Y21743D03*
G54D27*
X29199Y21743D03*
G54D26*
X35382Y30004D03*
X36878Y30004D03*
G54D27*
X36130Y30004D03*
G54D26*
X6256Y47957D03*
X4760Y47957D03*
G54D27*
X5508Y47957D03*
G54D26*
X27767Y25621D03*
X29263Y25621D03*
G54D27*
X28515Y25621D03*
G54D26*
X5785Y42141D03*
X7282Y42141D03*
G54D27*
X6534Y42141D03*
G54D26*
X8307Y36326D03*
X6811Y36326D03*
G54D27*
X7559Y36326D03*
G54D26*
X20103Y30004D03*
X18606Y30004D03*
G54D27*
X19355Y30004D03*
G54D26*
X24040Y30004D03*
X22543Y30004D03*
G54D27*
X23292Y30004D03*
G54D26*
X4427Y11944D03*
X2931Y11944D03*
G54D27*
X3679Y11944D03*
G54D28*
X35206Y6000D03*
G54D29*
X38750Y3460D03*
X38750Y8539D03*
G54D30*
X40246Y6000D03*
M02*
