G04 #@! TF.FileFunction,Soldermask,Bot*
%FSLAX45Y45*%
G04 Gerber Fmt 4.5, Leading zero omitted, Abs format (unit mm)*
G04 Created by KiCad (PCBNEW (2015-01-16 BZR 5376)-product) date 3/22/2015 17:44:56*
%MOMM*%
G01*
G04 APERTURE LIST*
%ADD10C,0.254000*%
%ADD11O,2.355600X3.355600*%
%ADD12R,1.879600X1.879600*%
%ADD13C,1.879600*%
%ADD14C,7.655600*%
G04 APERTURE END LIST*
D10*
D11*
X8748948Y6009653D03*
D12*
X8890000Y2413000D03*
D13*
X8890000Y2159000D03*
X8890000Y1905000D03*
X8890000Y1651000D03*
X8890000Y1397000D03*
X8890000Y1143000D03*
X8890000Y889000D03*
X8890000Y635000D03*
D14*
X762000Y3810000D03*
D12*
X8890000Y14605000D03*
D13*
X8890000Y14351000D03*
X8890000Y14097000D03*
X8890000Y13843000D03*
X8890000Y13589000D03*
X8890000Y13335000D03*
X8890000Y13081000D03*
X8890000Y12827000D03*
D12*
X1778000Y635000D03*
D13*
X1778000Y889000D03*
X1778000Y1143000D03*
X1778000Y1397000D03*
X1778000Y1651000D03*
X1778000Y1905000D03*
X1778000Y2159000D03*
X1778000Y2413000D03*
D12*
X1778000Y12827000D03*
D13*
X1778000Y13081000D03*
X1778000Y13335000D03*
X1778000Y13589000D03*
X1778000Y13843000D03*
X1778000Y14097000D03*
X1778000Y14351000D03*
X1778000Y14605000D03*
D14*
X9906000Y11430000D03*
X9906000Y3810000D03*
X762000Y11430000D03*
D11*
X7678645Y12208130D03*
X5766945Y13816100D03*
X4266990Y13816100D03*
X2767035Y13816100D03*
X1920105Y9226835D03*
X1659640Y10703990D03*
X934670Y3033990D03*
X3833900Y7621120D03*
X5334020Y7621120D03*
X6834140Y7621120D03*
X1399175Y12181145D03*
X7939110Y10730960D03*
X8199575Y9253790D03*
X9010425Y4526745D03*
X9271903Y3043838D03*
X7907480Y1405430D03*
X6407360Y1405430D03*
X4907240Y1405430D03*
X2469478Y5982713D03*
X2730955Y4499805D03*
X2992433Y3016898D03*
M02*
