G04 (created by PCBNEW (2013-07-07 BZR 4022)-stable) date 10/25/2014 9:32:03 PM*
%MOIN*%
G04 Gerber Fmt 3.4, Leading zero omitted, Abs format*
%FSLAX34Y34*%
G01*
G70*
G90*
G04 APERTURE LIST*
%ADD10C,0.01*%
%ADD11C,0.00393701*%
%ADD12R,0.0512X0.059*%
%ADD13R,0.0394X0.0354*%
%ADD14C,0.287402*%
%ADD15R,0.06X0.06*%
%ADD16C,0.06*%
%ADD17R,0.0905512X0.220472*%
%ADD18R,0.075X0.04*%
%ADD19R,0.02X0.094*%
%ADD20R,0.0511811X0.0629921*%
%ADD21O,0.0847402X0.12411*%
%ADD22C,0.045*%
%ADD23C,0.025*%
%ADD24C,0.05*%
%ADD25C,0.1*%
G04 APERTURE END LIST*
G54D10*
G54D11*
X42000Y0D02*
X0Y0D01*
X42000Y60000D02*
X42000Y0D01*
X0Y60000D02*
X42000Y60000D01*
X0Y0D02*
X0Y60000D01*
G54D12*
X9125Y30000D03*
X9875Y30000D03*
G54D13*
X18250Y22796D03*
X18250Y22204D03*
X19750Y25204D03*
X19750Y25796D03*
G54D14*
X39000Y15000D03*
X3000Y45000D03*
X3000Y15000D03*
X39000Y45000D03*
G54D15*
X35000Y57500D03*
G54D16*
X35000Y56500D03*
X35000Y55500D03*
X35000Y54500D03*
X35000Y53500D03*
X35000Y52500D03*
X35000Y51500D03*
X35000Y50500D03*
G54D15*
X7000Y50500D03*
G54D16*
X7000Y51500D03*
X7000Y52500D03*
X7000Y53500D03*
X7000Y54500D03*
X7000Y55500D03*
X7000Y56500D03*
X7000Y57500D03*
G54D15*
X35000Y9500D03*
G54D16*
X35000Y8500D03*
X35000Y7500D03*
X35000Y6500D03*
X35000Y5500D03*
X35000Y4500D03*
X35000Y3500D03*
X35000Y2500D03*
G54D15*
X7000Y2500D03*
G54D16*
X7000Y3500D03*
X7000Y4500D03*
X7000Y5500D03*
X7000Y6500D03*
X7000Y7500D03*
X7000Y8500D03*
X7000Y9500D03*
G54D17*
X30456Y57000D03*
X27543Y57000D03*
X14456Y3000D03*
X11543Y3000D03*
G54D18*
X41025Y57500D03*
X41025Y56500D03*
X41025Y55500D03*
X41025Y54500D03*
X41025Y53500D03*
X41025Y52500D03*
X41025Y51500D03*
X41025Y50500D03*
X36975Y57500D03*
X36975Y56500D03*
X36975Y55500D03*
X36975Y54500D03*
X36975Y53500D03*
X36975Y52500D03*
X36975Y51500D03*
X36975Y50500D03*
X975Y50500D03*
X975Y51500D03*
X975Y52500D03*
X975Y53500D03*
X975Y54500D03*
X975Y55500D03*
X975Y56500D03*
X975Y57500D03*
X5025Y50500D03*
X5025Y51500D03*
X5025Y52500D03*
X5025Y53500D03*
X5025Y54500D03*
X5025Y55500D03*
X5025Y56500D03*
X5025Y57500D03*
X41025Y9500D03*
X41025Y8500D03*
X41025Y7500D03*
X41025Y6500D03*
X41025Y5500D03*
X41025Y4500D03*
X41025Y3500D03*
X41025Y2500D03*
X36975Y9500D03*
X36975Y8500D03*
X36975Y7500D03*
X36975Y6500D03*
X36975Y5500D03*
X36975Y4500D03*
X36975Y3500D03*
X36975Y2500D03*
X975Y2500D03*
X975Y3500D03*
X975Y4500D03*
X975Y5500D03*
X975Y6500D03*
X975Y7500D03*
X975Y8500D03*
X975Y9500D03*
X5025Y2500D03*
X5025Y3500D03*
X5025Y4500D03*
X5025Y5500D03*
X5025Y6500D03*
X5025Y7500D03*
X5025Y8500D03*
X5025Y9500D03*
G54D19*
X19250Y21585D03*
X19750Y21585D03*
X20250Y21585D03*
X20750Y21585D03*
X21250Y21585D03*
X21750Y21585D03*
X22250Y21585D03*
X22750Y21585D03*
X22750Y23415D03*
X22250Y23415D03*
X21750Y23415D03*
X21250Y23415D03*
X20750Y23415D03*
X20250Y23415D03*
X19750Y23415D03*
X19250Y23415D03*
G54D20*
X30978Y48063D03*
X29482Y48063D03*
G54D21*
X30230Y48063D03*
G54D20*
X23452Y54394D03*
X21956Y54394D03*
G54D21*
X22704Y54394D03*
G54D20*
X17547Y54394D03*
X16051Y54394D03*
G54D21*
X16799Y54394D03*
G54D20*
X11641Y54394D03*
X10145Y54394D03*
G54D21*
X10893Y54394D03*
G54D20*
X8307Y36326D03*
X6811Y36326D03*
G54D21*
X7559Y36326D03*
G54D20*
X7282Y42141D03*
X5785Y42141D03*
G54D21*
X6534Y42141D03*
G54D20*
X4427Y11944D03*
X2931Y11944D03*
G54D21*
X3679Y11944D03*
G54D20*
X15842Y30004D03*
X14346Y30004D03*
G54D21*
X15094Y30004D03*
G54D20*
X21748Y30004D03*
X20252Y30004D03*
G54D21*
X21000Y30004D03*
G54D20*
X27654Y30004D03*
X26158Y30004D03*
G54D21*
X26906Y30004D03*
G54D20*
X6256Y47957D03*
X4760Y47957D03*
G54D21*
X5508Y47957D03*
G54D20*
X32004Y42247D03*
X30508Y42247D03*
G54D21*
X31256Y42247D03*
G54D20*
X33029Y36432D03*
X31533Y36432D03*
G54D21*
X32281Y36432D03*
G54D20*
X35192Y23660D03*
X33696Y23660D03*
G54D21*
X34444Y23660D03*
G54D20*
X36222Y17821D03*
X34726Y17821D03*
G54D21*
X35474Y17821D03*
G54D20*
X37251Y11983D03*
X35755Y11983D03*
G54D21*
X36503Y11983D03*
G54D20*
X30383Y5533D03*
X31879Y5533D03*
G54D21*
X31131Y5533D03*
G54D20*
X24477Y5533D03*
X25973Y5533D03*
G54D21*
X25225Y5533D03*
G54D20*
X18571Y5533D03*
X20067Y5533D03*
G54D21*
X19319Y5533D03*
G54D20*
X8974Y23553D03*
X10470Y23553D03*
G54D21*
X9722Y23553D03*
G54D20*
X11499Y17715D03*
X10003Y17715D03*
G54D21*
X10751Y17715D03*
G54D20*
X11033Y11877D03*
X12529Y11877D03*
G54D21*
X11781Y11877D03*
G54D22*
X19250Y53500D03*
X20250Y18500D03*
X19750Y52500D03*
X20750Y19000D03*
X36000Y33000D03*
X6000Y33000D03*
X6000Y24750D03*
X11750Y26500D03*
X20250Y24750D03*
X3500Y55500D03*
X20250Y51500D03*
X20750Y26000D03*
X16750Y22250D03*
X16750Y20750D03*
X16750Y21500D03*
X18250Y25750D03*
X3750Y14250D03*
X2250Y14250D03*
X2250Y15750D03*
X3750Y15750D03*
X2000Y15000D03*
X4000Y15000D03*
X3000Y14000D03*
X3000Y16000D03*
X3750Y44250D03*
X2250Y44250D03*
X2250Y45750D03*
X3750Y45750D03*
X2000Y45000D03*
X3000Y44000D03*
X4000Y45000D03*
X3000Y46000D03*
X38250Y14250D03*
X38250Y15750D03*
X39750Y15750D03*
X39750Y14250D03*
X38000Y15000D03*
X40000Y15000D03*
X39000Y14000D03*
X39000Y16000D03*
X39750Y44250D03*
X38250Y44250D03*
X38250Y45750D03*
X39750Y45750D03*
X40000Y45000D03*
X39000Y44000D03*
X38000Y45000D03*
X39000Y46000D03*
X12750Y49000D03*
X16000Y17000D03*
X3750Y13000D03*
X5000Y27000D03*
X22250Y27500D03*
X25750Y48000D03*
X9500Y54000D03*
X16500Y17500D03*
X22750Y16000D03*
X32750Y6000D03*
X12250Y26000D03*
X7500Y26000D03*
X8127Y30000D03*
X9750Y11750D03*
X16750Y2500D03*
X16750Y5500D03*
X25750Y57500D03*
X25750Y54500D03*
X29750Y30000D03*
X36000Y10250D03*
X34500Y36500D03*
X10250Y36250D03*
G54D23*
X20250Y21585D02*
X20250Y20750D01*
G54D10*
X20250Y20750D02*
X20250Y18500D01*
X35000Y6500D02*
X7000Y6500D01*
X7000Y53500D02*
X19250Y53500D01*
X19250Y53500D02*
X35000Y53500D01*
X7000Y53500D02*
X5025Y53500D01*
X5025Y53500D02*
X975Y53500D01*
X975Y6500D02*
X5025Y6500D01*
X5025Y6500D02*
X7000Y6500D01*
X41025Y6500D02*
X36975Y6500D01*
X36975Y6500D02*
X35000Y6500D01*
X36975Y53500D02*
X35000Y53500D01*
X41025Y53500D02*
X36975Y53500D01*
X20750Y20750D02*
X20750Y19000D01*
G54D23*
X20750Y21585D02*
X20750Y20750D01*
G54D10*
X7000Y7500D02*
X35000Y7500D01*
X35000Y52500D02*
X19750Y52500D01*
X19750Y52500D02*
X7000Y52500D01*
X975Y52500D02*
X5025Y52500D01*
X5025Y52500D02*
X7000Y52500D01*
X5025Y7500D02*
X7000Y7500D01*
X975Y7500D02*
X5025Y7500D01*
X41025Y7500D02*
X36975Y7500D01*
X36975Y7500D02*
X35000Y7500D01*
X36975Y52500D02*
X35000Y52500D01*
X41025Y52500D02*
X36975Y52500D01*
X6000Y33000D02*
X36000Y33000D01*
G54D23*
X19750Y20750D02*
X19750Y21585D01*
G54D10*
X19750Y18750D02*
X19750Y20750D01*
X19000Y18000D02*
X19750Y18750D01*
X16750Y18000D02*
X19000Y18000D01*
X14750Y20000D02*
X16750Y18000D01*
X14750Y22250D02*
X14750Y20000D01*
X12250Y24750D02*
X14750Y22250D01*
X6000Y24750D02*
X12250Y24750D01*
X975Y5500D02*
X5025Y5500D01*
X5025Y5500D02*
X7000Y5500D01*
X36975Y54500D02*
X35000Y54500D01*
X41025Y54500D02*
X36975Y54500D01*
X20250Y26000D02*
X20250Y24750D01*
X19750Y26500D02*
X20250Y26000D01*
X11750Y26500D02*
X19750Y26500D01*
X20250Y24250D02*
X20250Y24750D01*
G54D23*
X20250Y23415D02*
X20250Y24250D01*
G54D10*
X5025Y54500D02*
X7000Y54500D01*
X975Y54500D02*
X5025Y54500D01*
X41025Y5500D02*
X36975Y5500D01*
X36975Y5500D02*
X35000Y5500D01*
X35000Y4500D02*
X16000Y4500D01*
X10250Y4500D02*
X7000Y4500D01*
X10750Y5000D02*
X10250Y4500D01*
X15500Y5000D02*
X10750Y5000D01*
X16000Y4500D02*
X15500Y5000D01*
X7000Y55500D02*
X26000Y55500D01*
X32000Y55500D02*
X35000Y55500D01*
X31500Y55000D02*
X32000Y55500D01*
X26500Y55000D02*
X31500Y55000D01*
X26000Y55500D02*
X26500Y55000D01*
X975Y55500D02*
X3500Y55500D01*
X3500Y55500D02*
X5025Y55500D01*
X5025Y55500D02*
X7000Y55500D01*
X975Y4500D02*
X5025Y4500D01*
X5025Y4500D02*
X7000Y4500D01*
X41025Y4500D02*
X36975Y4500D01*
X36975Y4500D02*
X35000Y4500D01*
X36975Y55500D02*
X35000Y55500D01*
X41025Y55500D02*
X36975Y55500D01*
X35000Y8500D02*
X7000Y8500D01*
X7000Y51500D02*
X20250Y51500D01*
X20250Y51500D02*
X35000Y51500D01*
G54D23*
X20750Y24250D02*
X20750Y23415D01*
G54D10*
X20750Y26000D02*
X20750Y24250D01*
X7000Y51500D02*
X5025Y51500D01*
X5025Y51500D02*
X975Y51500D01*
X975Y8500D02*
X5025Y8500D01*
X5025Y8500D02*
X7000Y8500D01*
X41025Y8500D02*
X36975Y8500D01*
X36975Y8500D02*
X35000Y8500D01*
X36975Y51500D02*
X35000Y51500D01*
X41025Y51500D02*
X36975Y51500D01*
G54D23*
X16796Y22204D02*
X16750Y22250D01*
X18250Y22204D02*
X16796Y22204D01*
X16750Y21500D02*
X16750Y20750D01*
X19750Y25796D02*
X18296Y25796D01*
X18296Y25796D02*
X18250Y25750D01*
X18250Y22204D02*
X19046Y22204D01*
X19250Y21500D02*
X19250Y21585D01*
X19250Y22000D02*
X19250Y21500D01*
X19046Y22204D02*
X19250Y22000D01*
G54D24*
X3750Y14250D02*
X3000Y15000D01*
X3000Y15000D02*
X2250Y14250D01*
X2250Y15750D02*
X3000Y15000D01*
X3000Y15000D02*
X3750Y15750D01*
X2000Y15000D02*
X3000Y15000D01*
X3000Y15000D02*
X4000Y15000D01*
X3000Y14000D02*
X3000Y15000D01*
X3000Y15000D02*
X3000Y16000D01*
X3750Y44250D02*
X3000Y45000D01*
X3000Y45000D02*
X2250Y44250D01*
X2250Y45750D02*
X3000Y45000D01*
X3000Y45000D02*
X3750Y45750D01*
X2000Y45000D02*
X3000Y45000D01*
X3000Y45000D02*
X3000Y44000D01*
X4000Y45000D02*
X3000Y45000D01*
X3000Y45000D02*
X3000Y46000D01*
X38250Y14250D02*
X39000Y15000D01*
X38250Y15750D02*
X39000Y15000D01*
X39000Y15000D02*
X39750Y15750D01*
X39750Y14250D02*
X39000Y15000D01*
X39000Y15000D02*
X38000Y15000D01*
X40000Y15000D02*
X39000Y15000D01*
X39000Y15000D02*
X39000Y14000D01*
X39000Y16000D02*
X39000Y15000D01*
X39000Y45000D02*
X39750Y44250D01*
X39000Y45000D02*
X38250Y44250D01*
X38250Y45750D02*
X39000Y45000D01*
X39000Y45000D02*
X39750Y45750D01*
X39000Y45000D02*
X40000Y45000D01*
X39000Y45000D02*
X40000Y45000D01*
X40000Y45000D02*
X39000Y45000D01*
X39000Y44000D02*
X39000Y45000D01*
X39000Y45000D02*
X38000Y45000D01*
X39000Y45000D02*
X39000Y46000D01*
X975Y50500D02*
X5025Y50500D01*
X5025Y50500D02*
X7000Y50500D01*
X975Y9500D02*
X5025Y9500D01*
X5025Y9500D02*
X7000Y9500D01*
X36975Y9500D02*
X35000Y9500D01*
X41025Y9500D02*
X36975Y9500D01*
X36975Y50500D02*
X35000Y50500D01*
X41025Y50500D02*
X36975Y50500D01*
G54D23*
X19750Y23415D02*
X19750Y25250D01*
X19750Y25250D02*
X19750Y25204D01*
X12750Y49000D02*
X5250Y49000D01*
X4760Y47957D02*
X4760Y48510D01*
X21750Y17750D02*
X21750Y21585D01*
X21000Y17000D02*
X21750Y17750D01*
X16000Y17000D02*
X21000Y17000D01*
X4760Y48510D02*
X5250Y49000D01*
X30508Y42247D02*
X30508Y44758D01*
X30978Y45228D02*
X30978Y48063D01*
X30508Y44758D02*
X30978Y45228D01*
X15842Y30004D02*
X20252Y30004D01*
X21748Y30004D02*
X26158Y30004D01*
X31533Y36432D02*
X31533Y39033D01*
X32004Y39504D02*
X32004Y42247D01*
X31533Y39033D02*
X32004Y39504D01*
X34726Y17821D02*
X34726Y19976D01*
X35192Y20442D02*
X35192Y23660D01*
X34726Y19976D02*
X35192Y20442D01*
X35755Y11983D02*
X35755Y14255D01*
X36222Y14722D02*
X36222Y17821D01*
X35755Y14255D02*
X36222Y14722D01*
G54D24*
X35000Y57500D02*
X34250Y57500D01*
G54D25*
X34250Y57500D02*
X30956Y57500D01*
G54D24*
X30956Y57500D02*
X31000Y57543D01*
X31000Y57543D02*
X31000Y57750D01*
X31000Y57750D02*
X31000Y57543D01*
G54D25*
X30956Y57500D02*
X31000Y57543D01*
X31000Y57543D02*
X30456Y57000D01*
G54D24*
X41025Y57500D02*
X36975Y57500D01*
X36975Y57500D02*
X35000Y57500D01*
G54D23*
X17547Y54394D02*
X21956Y54394D01*
X11641Y54394D02*
X16051Y54394D01*
X12529Y11877D02*
X12529Y13970D01*
X11499Y15000D02*
X11499Y17715D01*
X12529Y13970D02*
X11499Y15000D01*
X30383Y5533D02*
X25973Y5533D01*
X24477Y5533D02*
X20067Y5533D01*
X10003Y17715D02*
X10003Y19746D01*
X8974Y20775D02*
X8974Y23553D01*
X10003Y19746D02*
X8974Y20775D01*
X5785Y42141D02*
X5785Y44535D01*
X6256Y45006D02*
X6256Y47957D01*
X5785Y44535D02*
X6256Y45006D01*
X6811Y36326D02*
X6811Y38811D01*
X7282Y39282D02*
X7282Y42141D01*
X6811Y38811D02*
X7282Y39282D01*
X6250Y27000D02*
X5000Y27000D01*
X3250Y13000D02*
X2931Y12681D01*
X21250Y26250D02*
X20500Y27000D01*
X20500Y27000D02*
X6250Y27000D01*
X3750Y13000D02*
X3250Y13000D01*
X21250Y23415D02*
X21250Y26250D01*
X2931Y12681D02*
X2931Y11944D01*
X3000Y12000D02*
X2931Y11944D01*
G54D24*
X7000Y2500D02*
X7750Y2500D01*
G54D25*
X7750Y2500D02*
X11043Y2500D01*
G54D24*
X11043Y2500D02*
X11543Y3000D01*
X975Y2500D02*
X5025Y2500D01*
X5025Y2500D02*
X7000Y2500D01*
G54D25*
X11043Y2500D02*
X11543Y3000D01*
G54D23*
X14346Y30004D02*
X14346Y28653D01*
X14346Y28653D02*
X15500Y27500D01*
X15500Y27500D02*
X20750Y27500D01*
X20750Y27500D02*
X21750Y26500D01*
X21750Y26500D02*
X21750Y23250D01*
X21750Y23250D02*
X21750Y23415D01*
X25750Y48000D02*
X29419Y48000D01*
X22250Y23415D02*
X22250Y27500D01*
X29419Y48000D02*
X29482Y48063D01*
X9500Y54000D02*
X9894Y54394D01*
X10145Y54394D02*
X9894Y54394D01*
X21250Y18000D02*
X21250Y21585D01*
X20750Y17500D02*
X16500Y17500D01*
X21250Y18000D02*
X20750Y17500D01*
X22750Y23415D02*
X22750Y24500D01*
X33089Y23660D02*
X33696Y23660D01*
X31750Y25000D02*
X33089Y23660D01*
X23250Y25000D02*
X31750Y25000D01*
X22750Y24500D02*
X23250Y25000D01*
X31879Y5533D02*
X32283Y5533D01*
X32283Y5533D02*
X32750Y6000D01*
X22750Y16000D02*
X22750Y21585D01*
X22250Y21585D02*
X22250Y17500D01*
X12696Y23553D02*
X10470Y23553D01*
X14250Y22000D02*
X12696Y23553D01*
X14250Y18000D02*
X14250Y22000D01*
X15750Y16500D02*
X14250Y18000D01*
X21250Y16500D02*
X15750Y16500D01*
X22250Y17500D02*
X21250Y16500D01*
X7500Y26000D02*
X12250Y26000D01*
X12250Y26000D02*
X13500Y26000D01*
X13500Y26000D02*
X16704Y22796D01*
X18250Y22796D02*
X16704Y22796D01*
X7000Y3500D02*
X10000Y3500D01*
X10000Y3500D02*
X11000Y4500D01*
X11000Y4500D02*
X15250Y4500D01*
X15250Y4500D02*
X16250Y3500D01*
X16250Y3500D02*
X35000Y3500D01*
X7000Y56500D02*
X25750Y56500D01*
X25750Y56500D02*
X26750Y55500D01*
X26750Y55500D02*
X31250Y55500D01*
X31250Y55500D02*
X32250Y56500D01*
X32250Y56500D02*
X35000Y56500D01*
X18250Y22796D02*
X19046Y22796D01*
X19046Y22796D02*
X19250Y23000D01*
X19250Y23000D02*
X19250Y23500D01*
X19250Y23500D02*
X19250Y23415D01*
X975Y56500D02*
X5025Y56500D01*
X5025Y56500D02*
X7000Y56500D01*
X975Y3500D02*
X5025Y3500D01*
X5025Y3500D02*
X7000Y3500D01*
X35000Y3500D02*
X36975Y3500D01*
X41025Y3500D02*
X36975Y3500D01*
X41025Y56500D02*
X36975Y56500D01*
X36975Y56500D02*
X35000Y56500D01*
G54D24*
X35000Y2500D02*
X34250Y2500D01*
G54D25*
X34250Y2500D02*
X16750Y2500D01*
G54D24*
X7000Y57500D02*
X7750Y57500D01*
G54D25*
X7750Y57500D02*
X25750Y57500D01*
G54D24*
X8127Y30000D02*
X9125Y30000D01*
X9750Y11750D02*
X9555Y11944D01*
X9555Y11944D02*
X4427Y11944D01*
X11033Y11877D02*
X9877Y11877D01*
X9877Y11877D02*
X9750Y11750D01*
X18571Y5533D02*
X18538Y5500D01*
X16750Y5500D02*
X18538Y5500D01*
X25644Y54394D02*
X23452Y54394D01*
X25750Y54500D02*
X25644Y54394D01*
X27654Y30004D02*
X29745Y30004D01*
X29745Y30004D02*
X29750Y30000D01*
X37251Y11983D02*
X37251Y11001D01*
X36500Y10250D02*
X37251Y11001D01*
X36500Y10250D02*
X36000Y10250D01*
X34432Y36432D02*
X33029Y36432D01*
X34500Y36500D02*
X34432Y36432D01*
X8383Y36250D02*
X8307Y36326D01*
X10250Y36250D02*
X8383Y36250D01*
X4495Y11877D02*
X4427Y11944D01*
G54D25*
X16750Y2500D02*
X16250Y2500D01*
X16250Y2500D02*
X14956Y2500D01*
X14956Y2500D02*
X14456Y3000D01*
X27543Y57000D02*
X27043Y57500D01*
X27043Y57500D02*
X25750Y57500D01*
G54D24*
X975Y57500D02*
X5025Y57500D01*
X5025Y57500D02*
X7000Y57500D01*
X36975Y2500D02*
X35000Y2500D01*
X41025Y2500D02*
X36975Y2500D01*
G54D10*
G36*
X19807Y25746D02*
X19800Y25746D01*
X19800Y25738D01*
X19700Y25738D01*
X19700Y25746D01*
X19365Y25746D01*
X19303Y25683D01*
X19302Y25569D01*
X19331Y25499D01*
X19303Y25430D01*
X19302Y25331D01*
X19302Y24977D01*
X19340Y24885D01*
X19375Y24851D01*
X19375Y24134D01*
X19300Y24135D01*
X19100Y24135D01*
X19008Y24097D01*
X18938Y24026D01*
X18900Y23934D01*
X18899Y23835D01*
X18899Y23625D01*
X18875Y23500D01*
X18875Y23415D01*
X18875Y23171D01*
X18602Y23171D01*
X18588Y23184D01*
X18496Y23222D01*
X18397Y23223D01*
X18003Y23223D01*
X17911Y23185D01*
X17897Y23171D01*
X16859Y23171D01*
X13830Y26200D01*
X19447Y26200D01*
X19411Y26184D01*
X19340Y26114D01*
X19302Y26022D01*
X19303Y25908D01*
X19365Y25846D01*
X19700Y25846D01*
X19700Y25853D01*
X19800Y25853D01*
X19800Y25846D01*
X19807Y25846D01*
X19807Y25746D01*
X19807Y25746D01*
G37*
X19807Y25746D02*
X19800Y25746D01*
X19800Y25738D01*
X19700Y25738D01*
X19700Y25746D01*
X19365Y25746D01*
X19303Y25683D01*
X19302Y25569D01*
X19331Y25499D01*
X19303Y25430D01*
X19302Y25331D01*
X19302Y24977D01*
X19340Y24885D01*
X19375Y24851D01*
X19375Y24134D01*
X19300Y24135D01*
X19100Y24135D01*
X19008Y24097D01*
X18938Y24026D01*
X18900Y23934D01*
X18899Y23835D01*
X18899Y23625D01*
X18875Y23500D01*
X18875Y23415D01*
X18875Y23171D01*
X18602Y23171D01*
X18588Y23184D01*
X18496Y23222D01*
X18397Y23223D01*
X18003Y23223D01*
X17911Y23185D01*
X17897Y23171D01*
X16859Y23171D01*
X13830Y26200D01*
X19447Y26200D01*
X19411Y26184D01*
X19340Y26114D01*
X19302Y26022D01*
X19303Y25908D01*
X19365Y25846D01*
X19700Y25846D01*
X19700Y25853D01*
X19800Y25853D01*
X19800Y25846D01*
X19807Y25846D01*
X19807Y25746D01*
G36*
X41730Y269D02*
X41650Y269D01*
X41650Y2349D01*
X41650Y2749D01*
X41612Y2841D01*
X41541Y2911D01*
X41449Y2949D01*
X41350Y2950D01*
X41234Y2950D01*
X41216Y2961D01*
X41025Y3000D01*
X36975Y3000D01*
X35230Y3000D01*
X35311Y3033D01*
X35402Y3125D01*
X36421Y3125D01*
X36458Y3088D01*
X36550Y3050D01*
X36649Y3049D01*
X37399Y3049D01*
X37491Y3087D01*
X37528Y3125D01*
X40471Y3125D01*
X40508Y3088D01*
X40600Y3050D01*
X40699Y3049D01*
X41449Y3049D01*
X41541Y3087D01*
X41611Y3158D01*
X41649Y3250D01*
X41650Y3349D01*
X41650Y3749D01*
X41612Y3841D01*
X41541Y3911D01*
X41449Y3949D01*
X41350Y3950D01*
X40600Y3950D01*
X40508Y3912D01*
X40471Y3875D01*
X37528Y3875D01*
X37491Y3911D01*
X37399Y3949D01*
X37300Y3950D01*
X36550Y3950D01*
X36458Y3912D01*
X36421Y3875D01*
X35402Y3875D01*
X35311Y3965D01*
X35230Y3999D01*
X35311Y4033D01*
X35465Y4188D01*
X35470Y4200D01*
X36370Y4200D01*
X36387Y4158D01*
X36458Y4088D01*
X36550Y4050D01*
X36649Y4049D01*
X37399Y4049D01*
X37491Y4087D01*
X37561Y4158D01*
X37579Y4200D01*
X40420Y4200D01*
X40437Y4158D01*
X40508Y4088D01*
X40600Y4050D01*
X40699Y4049D01*
X41449Y4049D01*
X41541Y4087D01*
X41611Y4158D01*
X41649Y4250D01*
X41650Y4349D01*
X41650Y4749D01*
X41612Y4841D01*
X41541Y4911D01*
X41449Y4949D01*
X41350Y4950D01*
X40600Y4950D01*
X40508Y4912D01*
X40438Y4841D01*
X40420Y4800D01*
X37579Y4800D01*
X37562Y4841D01*
X37491Y4911D01*
X37399Y4949D01*
X37300Y4950D01*
X36550Y4950D01*
X36458Y4912D01*
X36388Y4841D01*
X36370Y4800D01*
X35471Y4800D01*
X35466Y4811D01*
X35311Y4965D01*
X35230Y4999D01*
X35311Y5033D01*
X35465Y5188D01*
X35470Y5200D01*
X36370Y5200D01*
X36387Y5158D01*
X36458Y5088D01*
X36550Y5050D01*
X36649Y5049D01*
X37399Y5049D01*
X37491Y5087D01*
X37561Y5158D01*
X37579Y5200D01*
X40420Y5200D01*
X40437Y5158D01*
X40508Y5088D01*
X40600Y5050D01*
X40699Y5049D01*
X41449Y5049D01*
X41541Y5087D01*
X41611Y5158D01*
X41649Y5250D01*
X41650Y5349D01*
X41650Y5749D01*
X41612Y5841D01*
X41541Y5911D01*
X41449Y5949D01*
X41350Y5950D01*
X40600Y5950D01*
X40508Y5912D01*
X40438Y5841D01*
X40420Y5800D01*
X37579Y5800D01*
X37562Y5841D01*
X37491Y5911D01*
X37399Y5949D01*
X37300Y5950D01*
X36550Y5950D01*
X36458Y5912D01*
X36388Y5841D01*
X36370Y5800D01*
X35471Y5800D01*
X35466Y5811D01*
X35311Y5965D01*
X35230Y5999D01*
X35311Y6033D01*
X35465Y6188D01*
X35470Y6200D01*
X36370Y6200D01*
X36387Y6158D01*
X36458Y6088D01*
X36550Y6050D01*
X36649Y6049D01*
X37399Y6049D01*
X37491Y6087D01*
X37561Y6158D01*
X37579Y6200D01*
X40420Y6200D01*
X40437Y6158D01*
X40508Y6088D01*
X40600Y6050D01*
X40699Y6049D01*
X41449Y6049D01*
X41541Y6087D01*
X41611Y6158D01*
X41649Y6250D01*
X41650Y6349D01*
X41650Y6749D01*
X41612Y6841D01*
X41541Y6911D01*
X41449Y6949D01*
X41350Y6950D01*
X40600Y6950D01*
X40508Y6912D01*
X40438Y6841D01*
X40420Y6800D01*
X37579Y6800D01*
X37562Y6841D01*
X37491Y6911D01*
X37399Y6949D01*
X37300Y6950D01*
X36550Y6950D01*
X36458Y6912D01*
X36388Y6841D01*
X36370Y6800D01*
X35471Y6800D01*
X35466Y6811D01*
X35311Y6965D01*
X35230Y6999D01*
X35311Y7033D01*
X35465Y7188D01*
X35470Y7200D01*
X36370Y7200D01*
X36387Y7158D01*
X36458Y7088D01*
X36550Y7050D01*
X36649Y7049D01*
X37399Y7049D01*
X37491Y7087D01*
X37561Y7158D01*
X37579Y7200D01*
X40420Y7200D01*
X40437Y7158D01*
X40508Y7088D01*
X40600Y7050D01*
X40699Y7049D01*
X41449Y7049D01*
X41541Y7087D01*
X41611Y7158D01*
X41649Y7250D01*
X41650Y7349D01*
X41650Y7749D01*
X41612Y7841D01*
X41541Y7911D01*
X41449Y7949D01*
X41350Y7950D01*
X40600Y7950D01*
X40508Y7912D01*
X40438Y7841D01*
X40420Y7800D01*
X37579Y7800D01*
X37562Y7841D01*
X37491Y7911D01*
X37399Y7949D01*
X37300Y7950D01*
X36550Y7950D01*
X36458Y7912D01*
X36388Y7841D01*
X36370Y7800D01*
X35471Y7800D01*
X35466Y7811D01*
X35311Y7965D01*
X35230Y7999D01*
X35311Y8033D01*
X35465Y8188D01*
X35470Y8200D01*
X36370Y8200D01*
X36387Y8158D01*
X36458Y8088D01*
X36550Y8050D01*
X36649Y8049D01*
X37399Y8049D01*
X37491Y8087D01*
X37561Y8158D01*
X37579Y8200D01*
X40420Y8200D01*
X40437Y8158D01*
X40508Y8088D01*
X40600Y8050D01*
X40699Y8049D01*
X41449Y8049D01*
X41541Y8087D01*
X41611Y8158D01*
X41649Y8250D01*
X41650Y8349D01*
X41650Y8749D01*
X41650Y9250D01*
X41650Y9749D01*
X41650Y50250D01*
X41650Y50749D01*
X41650Y51349D01*
X41650Y51749D01*
X41612Y51841D01*
X41541Y51911D01*
X41449Y51949D01*
X41350Y51950D01*
X40600Y51950D01*
X40508Y51912D01*
X40438Y51841D01*
X40420Y51800D01*
X37579Y51800D01*
X37562Y51841D01*
X37491Y51911D01*
X37399Y51949D01*
X37300Y51950D01*
X36550Y51950D01*
X36458Y51912D01*
X36388Y51841D01*
X36370Y51800D01*
X35471Y51800D01*
X35466Y51811D01*
X35311Y51965D01*
X35230Y51999D01*
X35311Y52033D01*
X35465Y52188D01*
X35470Y52200D01*
X36370Y52200D01*
X36387Y52158D01*
X36458Y52088D01*
X36550Y52050D01*
X36649Y52049D01*
X37399Y52049D01*
X37491Y52087D01*
X37561Y52158D01*
X37579Y52200D01*
X40420Y52200D01*
X40437Y52158D01*
X40508Y52088D01*
X40600Y52050D01*
X40699Y52049D01*
X41449Y52049D01*
X41541Y52087D01*
X41611Y52158D01*
X41649Y52250D01*
X41650Y52349D01*
X41650Y52749D01*
X41612Y52841D01*
X41541Y52911D01*
X41449Y52949D01*
X41350Y52950D01*
X40600Y52950D01*
X40508Y52912D01*
X40438Y52841D01*
X40420Y52800D01*
X37579Y52800D01*
X37562Y52841D01*
X37491Y52911D01*
X37399Y52949D01*
X37300Y52950D01*
X36550Y52950D01*
X36458Y52912D01*
X36388Y52841D01*
X36370Y52800D01*
X35471Y52800D01*
X35466Y52811D01*
X35311Y52965D01*
X35230Y52999D01*
X35311Y53033D01*
X35465Y53188D01*
X35470Y53200D01*
X36370Y53200D01*
X36387Y53158D01*
X36458Y53088D01*
X36550Y53050D01*
X36649Y53049D01*
X37399Y53049D01*
X37491Y53087D01*
X37561Y53158D01*
X37579Y53200D01*
X40420Y53200D01*
X40437Y53158D01*
X40508Y53088D01*
X40600Y53050D01*
X40699Y53049D01*
X41449Y53049D01*
X41541Y53087D01*
X41611Y53158D01*
X41649Y53250D01*
X41650Y53349D01*
X41650Y53749D01*
X41612Y53841D01*
X41541Y53911D01*
X41449Y53949D01*
X41350Y53950D01*
X40600Y53950D01*
X40508Y53912D01*
X40438Y53841D01*
X40420Y53800D01*
X37579Y53800D01*
X37562Y53841D01*
X37491Y53911D01*
X37399Y53949D01*
X37300Y53950D01*
X36550Y53950D01*
X36458Y53912D01*
X36388Y53841D01*
X36370Y53800D01*
X35471Y53800D01*
X35466Y53811D01*
X35311Y53965D01*
X35230Y53999D01*
X35311Y54033D01*
X35465Y54188D01*
X35470Y54200D01*
X36370Y54200D01*
X36387Y54158D01*
X36458Y54088D01*
X36550Y54050D01*
X36649Y54049D01*
X37399Y54049D01*
X37491Y54087D01*
X37561Y54158D01*
X37579Y54200D01*
X40420Y54200D01*
X40437Y54158D01*
X40508Y54088D01*
X40600Y54050D01*
X40699Y54049D01*
X41449Y54049D01*
X41541Y54087D01*
X41611Y54158D01*
X41649Y54250D01*
X41650Y54349D01*
X41650Y54749D01*
X41612Y54841D01*
X41541Y54911D01*
X41449Y54949D01*
X41350Y54950D01*
X40600Y54950D01*
X40508Y54912D01*
X40438Y54841D01*
X40420Y54800D01*
X37579Y54800D01*
X37562Y54841D01*
X37491Y54911D01*
X37399Y54949D01*
X37300Y54950D01*
X36550Y54950D01*
X36458Y54912D01*
X36388Y54841D01*
X36370Y54800D01*
X35471Y54800D01*
X35466Y54811D01*
X35311Y54965D01*
X35230Y54999D01*
X35311Y55033D01*
X35465Y55188D01*
X35470Y55200D01*
X36370Y55200D01*
X36387Y55158D01*
X36458Y55088D01*
X36550Y55050D01*
X36649Y55049D01*
X37399Y55049D01*
X37491Y55087D01*
X37561Y55158D01*
X37579Y55200D01*
X40420Y55200D01*
X40437Y55158D01*
X40508Y55088D01*
X40600Y55050D01*
X40699Y55049D01*
X41449Y55049D01*
X41541Y55087D01*
X41611Y55158D01*
X41649Y55250D01*
X41650Y55349D01*
X41650Y55749D01*
X41612Y55841D01*
X41541Y55911D01*
X41449Y55949D01*
X41350Y55950D01*
X40600Y55950D01*
X40508Y55912D01*
X40438Y55841D01*
X40420Y55800D01*
X37579Y55800D01*
X37562Y55841D01*
X37491Y55911D01*
X37399Y55949D01*
X37300Y55950D01*
X36550Y55950D01*
X36458Y55912D01*
X36388Y55841D01*
X36370Y55800D01*
X35471Y55800D01*
X35466Y55811D01*
X35311Y55965D01*
X35230Y55999D01*
X35311Y56033D01*
X35402Y56125D01*
X36421Y56125D01*
X36458Y56088D01*
X36550Y56050D01*
X36649Y56049D01*
X37399Y56049D01*
X37491Y56087D01*
X37528Y56125D01*
X40471Y56125D01*
X40508Y56088D01*
X40600Y56050D01*
X40699Y56049D01*
X41449Y56049D01*
X41541Y56087D01*
X41611Y56158D01*
X41649Y56250D01*
X41650Y56349D01*
X41650Y56749D01*
X41612Y56841D01*
X41541Y56911D01*
X41449Y56949D01*
X41350Y56950D01*
X40600Y56950D01*
X40508Y56912D01*
X40471Y56875D01*
X37528Y56875D01*
X37491Y56911D01*
X37399Y56949D01*
X37300Y56950D01*
X36550Y56950D01*
X36458Y56912D01*
X36421Y56875D01*
X35402Y56875D01*
X35327Y56949D01*
X35349Y56949D01*
X35441Y56987D01*
X35453Y57000D01*
X36975Y57000D01*
X41025Y57000D01*
X41216Y57038D01*
X41234Y57049D01*
X41449Y57049D01*
X41541Y57087D01*
X41611Y57158D01*
X41649Y57250D01*
X41650Y57349D01*
X41650Y57749D01*
X41612Y57841D01*
X41541Y57911D01*
X41449Y57949D01*
X41350Y57950D01*
X41234Y57950D01*
X41216Y57961D01*
X41025Y58000D01*
X36975Y58000D01*
X35453Y58000D01*
X35441Y58011D01*
X35349Y58049D01*
X35250Y58050D01*
X34750Y58050D01*
X34537Y58192D01*
X34250Y58250D01*
X31217Y58250D01*
X31089Y58275D01*
X31051Y58314D01*
X30959Y58352D01*
X30859Y58352D01*
X29954Y58352D01*
X29862Y58314D01*
X29792Y58244D01*
X29753Y58152D01*
X29753Y58052D01*
X29753Y57237D01*
X29706Y57000D01*
X29753Y56762D01*
X29753Y55875D01*
X28246Y55875D01*
X28246Y55947D01*
X28246Y56762D01*
X28293Y57000D01*
X28246Y57237D01*
X28246Y58151D01*
X28208Y58243D01*
X28137Y58314D01*
X28046Y58352D01*
X27946Y58352D01*
X27041Y58352D01*
X26949Y58314D01*
X26884Y58250D01*
X25750Y58250D01*
X7750Y58250D01*
X7462Y58192D01*
X7219Y58030D01*
X7206Y58009D01*
X7109Y58049D01*
X6891Y58050D01*
X6769Y58000D01*
X5025Y58000D01*
X975Y58000D01*
X783Y57961D01*
X765Y57950D01*
X550Y57950D01*
X458Y57912D01*
X388Y57841D01*
X350Y57749D01*
X349Y57650D01*
X349Y57250D01*
X387Y57158D01*
X458Y57088D01*
X550Y57050D01*
X649Y57049D01*
X765Y57049D01*
X783Y57038D01*
X975Y57000D01*
X5025Y57000D01*
X6769Y57000D01*
X6688Y56966D01*
X6597Y56875D01*
X5578Y56875D01*
X5541Y56911D01*
X5449Y56949D01*
X5350Y56950D01*
X4600Y56950D01*
X4508Y56912D01*
X4471Y56875D01*
X1528Y56875D01*
X1491Y56911D01*
X1399Y56949D01*
X1300Y56950D01*
X550Y56950D01*
X458Y56912D01*
X388Y56841D01*
X350Y56749D01*
X349Y56650D01*
X349Y56250D01*
X387Y56158D01*
X458Y56088D01*
X550Y56050D01*
X649Y56049D01*
X1399Y56049D01*
X1491Y56087D01*
X1528Y56125D01*
X4471Y56125D01*
X4508Y56088D01*
X4600Y56050D01*
X4699Y56049D01*
X5449Y56049D01*
X5541Y56087D01*
X5578Y56125D01*
X6597Y56125D01*
X6688Y56034D01*
X6769Y56000D01*
X6688Y55966D01*
X6534Y55811D01*
X6529Y55800D01*
X5629Y55800D01*
X5612Y55841D01*
X5541Y55911D01*
X5449Y55949D01*
X5350Y55950D01*
X4600Y55950D01*
X4508Y55912D01*
X4438Y55841D01*
X4420Y55800D01*
X3871Y55800D01*
X3769Y55902D01*
X3594Y55974D01*
X3405Y55975D01*
X3231Y55902D01*
X3128Y55800D01*
X1579Y55800D01*
X1562Y55841D01*
X1491Y55911D01*
X1399Y55949D01*
X1300Y55950D01*
X550Y55950D01*
X458Y55912D01*
X388Y55841D01*
X350Y55749D01*
X349Y55650D01*
X349Y55250D01*
X387Y55158D01*
X458Y55088D01*
X550Y55050D01*
X649Y55049D01*
X1399Y55049D01*
X1491Y55087D01*
X1561Y55158D01*
X1579Y55200D01*
X3128Y55200D01*
X3230Y55097D01*
X3405Y55025D01*
X3594Y55024D01*
X3768Y55097D01*
X3871Y55200D01*
X4420Y55200D01*
X4437Y55158D01*
X4508Y55088D01*
X4600Y55050D01*
X4699Y55049D01*
X5449Y55049D01*
X5541Y55087D01*
X5611Y55158D01*
X5629Y55200D01*
X6528Y55200D01*
X6533Y55188D01*
X6688Y55034D01*
X6769Y55000D01*
X6688Y54966D01*
X6534Y54811D01*
X6529Y54800D01*
X5629Y54800D01*
X5612Y54841D01*
X5541Y54911D01*
X5449Y54949D01*
X5350Y54950D01*
X4600Y54950D01*
X4508Y54912D01*
X4438Y54841D01*
X4420Y54800D01*
X1579Y54800D01*
X1562Y54841D01*
X1491Y54911D01*
X1399Y54949D01*
X1300Y54950D01*
X550Y54950D01*
X458Y54912D01*
X388Y54841D01*
X350Y54749D01*
X349Y54650D01*
X349Y54250D01*
X387Y54158D01*
X458Y54088D01*
X550Y54050D01*
X649Y54049D01*
X1399Y54049D01*
X1491Y54087D01*
X1561Y54158D01*
X1579Y54200D01*
X4420Y54200D01*
X4437Y54158D01*
X4508Y54088D01*
X4600Y54050D01*
X4699Y54049D01*
X5449Y54049D01*
X5541Y54087D01*
X5611Y54158D01*
X5629Y54200D01*
X6528Y54200D01*
X6533Y54188D01*
X6688Y54034D01*
X6769Y54000D01*
X6688Y53966D01*
X6534Y53811D01*
X6529Y53800D01*
X5629Y53800D01*
X5612Y53841D01*
X5541Y53911D01*
X5449Y53949D01*
X5350Y53950D01*
X4600Y53950D01*
X4508Y53912D01*
X4438Y53841D01*
X4420Y53800D01*
X1579Y53800D01*
X1562Y53841D01*
X1491Y53911D01*
X1399Y53949D01*
X1300Y53950D01*
X550Y53950D01*
X458Y53912D01*
X388Y53841D01*
X350Y53749D01*
X349Y53650D01*
X349Y53250D01*
X387Y53158D01*
X458Y53088D01*
X550Y53050D01*
X649Y53049D01*
X1399Y53049D01*
X1491Y53087D01*
X1561Y53158D01*
X1579Y53200D01*
X4420Y53200D01*
X4437Y53158D01*
X4508Y53088D01*
X4600Y53050D01*
X4699Y53049D01*
X5449Y53049D01*
X5541Y53087D01*
X5611Y53158D01*
X5629Y53200D01*
X6528Y53200D01*
X6533Y53188D01*
X6688Y53034D01*
X6769Y53000D01*
X6688Y52966D01*
X6534Y52811D01*
X6529Y52800D01*
X5629Y52800D01*
X5612Y52841D01*
X5541Y52911D01*
X5449Y52949D01*
X5350Y52950D01*
X4600Y52950D01*
X4508Y52912D01*
X4438Y52841D01*
X4420Y52800D01*
X1579Y52800D01*
X1562Y52841D01*
X1491Y52911D01*
X1399Y52949D01*
X1300Y52950D01*
X550Y52950D01*
X458Y52912D01*
X388Y52841D01*
X350Y52749D01*
X349Y52650D01*
X349Y52250D01*
X387Y52158D01*
X458Y52088D01*
X550Y52050D01*
X649Y52049D01*
X1399Y52049D01*
X1491Y52087D01*
X1561Y52158D01*
X1579Y52200D01*
X4420Y52200D01*
X4437Y52158D01*
X4508Y52088D01*
X4600Y52050D01*
X4699Y52049D01*
X5449Y52049D01*
X5541Y52087D01*
X5611Y52158D01*
X5629Y52200D01*
X6528Y52200D01*
X6533Y52188D01*
X6688Y52034D01*
X6769Y52000D01*
X6688Y51966D01*
X6534Y51811D01*
X6529Y51800D01*
X5629Y51800D01*
X5612Y51841D01*
X5541Y51911D01*
X5449Y51949D01*
X5350Y51950D01*
X4600Y51950D01*
X4508Y51912D01*
X4438Y51841D01*
X4420Y51800D01*
X1579Y51800D01*
X1562Y51841D01*
X1491Y51911D01*
X1399Y51949D01*
X1300Y51950D01*
X550Y51950D01*
X458Y51912D01*
X388Y51841D01*
X350Y51749D01*
X349Y51650D01*
X349Y51250D01*
X387Y51158D01*
X458Y51088D01*
X550Y51050D01*
X649Y51049D01*
X1399Y51049D01*
X1491Y51087D01*
X1561Y51158D01*
X1579Y51200D01*
X4420Y51200D01*
X4437Y51158D01*
X4508Y51088D01*
X4600Y51050D01*
X4699Y51049D01*
X5449Y51049D01*
X5541Y51087D01*
X5611Y51158D01*
X5629Y51200D01*
X6528Y51200D01*
X6533Y51188D01*
X6672Y51049D01*
X6650Y51049D01*
X6558Y51011D01*
X6487Y50941D01*
X6449Y50849D01*
X6450Y50612D01*
X6512Y50550D01*
X6950Y50550D01*
X6950Y50557D01*
X7050Y50557D01*
X7050Y50550D01*
X7487Y50550D01*
X7550Y50612D01*
X7550Y50849D01*
X7512Y50941D01*
X7441Y51011D01*
X7349Y51049D01*
X7327Y51049D01*
X7465Y51188D01*
X7470Y51200D01*
X19878Y51200D01*
X19980Y51097D01*
X20155Y51025D01*
X20344Y51024D01*
X20518Y51097D01*
X20621Y51200D01*
X34528Y51200D01*
X34533Y51188D01*
X34688Y51034D01*
X34763Y51002D01*
X34712Y50981D01*
X34684Y50885D01*
X35000Y50570D01*
X35315Y50885D01*
X35287Y50981D01*
X35232Y51000D01*
X35311Y51033D01*
X35465Y51188D01*
X35470Y51200D01*
X36370Y51200D01*
X36387Y51158D01*
X36458Y51088D01*
X36550Y51050D01*
X36649Y51049D01*
X37399Y51049D01*
X37491Y51087D01*
X37561Y51158D01*
X37579Y51200D01*
X40420Y51200D01*
X40437Y51158D01*
X40508Y51088D01*
X40600Y51050D01*
X40699Y51049D01*
X41449Y51049D01*
X41541Y51087D01*
X41611Y51158D01*
X41649Y51250D01*
X41650Y51349D01*
X41650Y50749D01*
X41612Y50841D01*
X41541Y50911D01*
X41449Y50949D01*
X41350Y50950D01*
X41137Y50950D01*
X41075Y50887D01*
X41075Y50550D01*
X41587Y50550D01*
X41650Y50612D01*
X41650Y50749D01*
X41650Y50250D01*
X41650Y50387D01*
X41587Y50450D01*
X41075Y50450D01*
X41075Y50112D01*
X41137Y50050D01*
X41350Y50049D01*
X41449Y50050D01*
X41541Y50088D01*
X41612Y50158D01*
X41650Y50250D01*
X41650Y9749D01*
X41612Y9841D01*
X41541Y9911D01*
X41449Y9949D01*
X41350Y9950D01*
X41137Y9950D01*
X41075Y9887D01*
X41075Y9550D01*
X41587Y9550D01*
X41650Y9612D01*
X41650Y9749D01*
X41650Y9250D01*
X41650Y9387D01*
X41587Y9450D01*
X41075Y9450D01*
X41075Y9112D01*
X41137Y9050D01*
X41350Y9049D01*
X41449Y9050D01*
X41541Y9088D01*
X41612Y9158D01*
X41650Y9250D01*
X41650Y8749D01*
X41612Y8841D01*
X41541Y8911D01*
X41449Y8949D01*
X41350Y8950D01*
X40975Y8950D01*
X40975Y9112D01*
X40975Y9450D01*
X40975Y9550D01*
X40975Y9887D01*
X40975Y50112D01*
X40975Y50450D01*
X40975Y50550D01*
X40975Y50887D01*
X40912Y50950D01*
X40699Y50950D01*
X40600Y50949D01*
X40508Y50911D01*
X40437Y50841D01*
X40399Y50749D01*
X40400Y50612D01*
X40462Y50550D01*
X40975Y50550D01*
X40975Y50450D01*
X40462Y50450D01*
X40400Y50387D01*
X40399Y50250D01*
X40437Y50158D01*
X40508Y50088D01*
X40600Y50050D01*
X40699Y50049D01*
X40912Y50050D01*
X40975Y50112D01*
X40975Y9887D01*
X40912Y9950D01*
X40699Y9950D01*
X40690Y9950D01*
X40690Y15318D01*
X40690Y45318D01*
X40439Y45940D01*
X40420Y45970D01*
X40206Y46136D01*
X40136Y46065D01*
X40136Y46206D01*
X39970Y46420D01*
X39352Y46683D01*
X38681Y46690D01*
X38059Y46439D01*
X38029Y46420D01*
X37863Y46206D01*
X39000Y45070D01*
X40136Y46206D01*
X40136Y46065D01*
X39070Y45000D01*
X40206Y43863D01*
X40420Y44029D01*
X40683Y44647D01*
X40690Y45318D01*
X40690Y15318D01*
X40439Y15940D01*
X40420Y15970D01*
X40206Y16136D01*
X40136Y16065D01*
X40136Y16206D01*
X40136Y43793D01*
X39000Y44929D01*
X38929Y44858D01*
X38929Y45000D01*
X37793Y46136D01*
X37600Y45986D01*
X37600Y50250D01*
X37600Y50749D01*
X37562Y50841D01*
X37491Y50911D01*
X37399Y50949D01*
X37300Y50950D01*
X37087Y50950D01*
X37025Y50887D01*
X37025Y50550D01*
X37537Y50550D01*
X37600Y50612D01*
X37600Y50749D01*
X37600Y50250D01*
X37600Y50387D01*
X37537Y50450D01*
X37025Y50450D01*
X37025Y50112D01*
X37087Y50050D01*
X37300Y50049D01*
X37399Y50050D01*
X37491Y50088D01*
X37562Y50158D01*
X37600Y50250D01*
X37600Y45986D01*
X37579Y45970D01*
X37316Y45352D01*
X37309Y44681D01*
X37560Y44059D01*
X37579Y44029D01*
X37793Y43863D01*
X38929Y45000D01*
X38929Y44858D01*
X37863Y43793D01*
X38029Y43579D01*
X38647Y43316D01*
X39318Y43309D01*
X39940Y43560D01*
X39970Y43579D01*
X40136Y43793D01*
X40136Y16206D01*
X39970Y16420D01*
X39352Y16683D01*
X38681Y16690D01*
X38059Y16439D01*
X38029Y16420D01*
X37863Y16206D01*
X39000Y15070D01*
X40136Y16206D01*
X40136Y16065D01*
X39070Y15000D01*
X40206Y13863D01*
X40420Y14029D01*
X40683Y14647D01*
X40690Y15318D01*
X40690Y9950D01*
X40600Y9949D01*
X40508Y9911D01*
X40437Y9841D01*
X40399Y9749D01*
X40400Y9612D01*
X40462Y9550D01*
X40975Y9550D01*
X40975Y9450D01*
X40462Y9450D01*
X40400Y9387D01*
X40399Y9250D01*
X40437Y9158D01*
X40508Y9088D01*
X40600Y9050D01*
X40699Y9049D01*
X40912Y9050D01*
X40975Y9112D01*
X40975Y8950D01*
X40600Y8950D01*
X40508Y8912D01*
X40438Y8841D01*
X40420Y8800D01*
X40136Y8800D01*
X40136Y13793D01*
X39000Y14929D01*
X38929Y14858D01*
X38929Y15000D01*
X37793Y16136D01*
X37579Y15970D01*
X37316Y15352D01*
X37309Y14681D01*
X37560Y14059D01*
X37579Y14029D01*
X37793Y13863D01*
X38929Y15000D01*
X38929Y14858D01*
X37863Y13793D01*
X38029Y13579D01*
X38647Y13316D01*
X39318Y13309D01*
X39940Y13560D01*
X39970Y13579D01*
X40136Y13793D01*
X40136Y8800D01*
X37757Y8800D01*
X37757Y11718D01*
X37757Y12348D01*
X37719Y12440D01*
X37649Y12510D01*
X37557Y12548D01*
X37457Y12548D01*
X37063Y12548D01*
X36979Y12673D01*
X36925Y12710D01*
X36925Y50112D01*
X36925Y50450D01*
X36925Y50550D01*
X36925Y50887D01*
X36862Y50950D01*
X36649Y50950D01*
X36550Y50949D01*
X36458Y50911D01*
X36387Y50841D01*
X36349Y50749D01*
X36350Y50612D01*
X36412Y50550D01*
X36925Y50550D01*
X36925Y50450D01*
X36412Y50450D01*
X36350Y50387D01*
X36349Y50250D01*
X36387Y50158D01*
X36458Y50088D01*
X36550Y50050D01*
X36649Y50049D01*
X36862Y50050D01*
X36925Y50112D01*
X36925Y12710D01*
X36761Y12819D01*
X36503Y12871D01*
X36245Y12819D01*
X36130Y12742D01*
X36130Y14100D01*
X36487Y14456D01*
X36568Y14578D01*
X36597Y14722D01*
X36597Y17285D01*
X36619Y17294D01*
X36689Y17365D01*
X36728Y17456D01*
X36728Y17556D01*
X36728Y18186D01*
X36690Y18278D01*
X36619Y18348D01*
X36527Y18386D01*
X36475Y18386D01*
X36475Y33094D01*
X36402Y33268D01*
X36269Y33402D01*
X36094Y33474D01*
X35905Y33475D01*
X35731Y33402D01*
X35628Y33300D01*
X35554Y33300D01*
X35554Y50418D01*
X35543Y50636D01*
X35481Y50787D01*
X35385Y50815D01*
X35070Y50500D01*
X35385Y50184D01*
X35481Y50212D01*
X35554Y50418D01*
X35554Y33300D01*
X35315Y33300D01*
X35315Y50114D01*
X35000Y50429D01*
X34929Y50358D01*
X34929Y50500D01*
X34614Y50815D01*
X34518Y50787D01*
X34445Y50581D01*
X34456Y50363D01*
X34518Y50212D01*
X34614Y50184D01*
X34929Y50500D01*
X34929Y50358D01*
X34684Y50114D01*
X34712Y50018D01*
X34918Y49945D01*
X35136Y49956D01*
X35287Y50018D01*
X35315Y50114D01*
X35315Y33300D01*
X35000Y33300D01*
X35000Y36500D01*
X34961Y36691D01*
X34853Y36853D01*
X34691Y36961D01*
X34500Y37000D01*
X34308Y36961D01*
X34264Y36932D01*
X33454Y36932D01*
X33427Y36959D01*
X33335Y36997D01*
X33236Y36997D01*
X32841Y36997D01*
X32758Y37122D01*
X32539Y37268D01*
X32281Y37319D01*
X32023Y37268D01*
X31908Y37191D01*
X31908Y38878D01*
X32269Y39239D01*
X32350Y39360D01*
X32379Y39504D01*
X32379Y41711D01*
X32401Y41720D01*
X32472Y41791D01*
X32510Y41882D01*
X32510Y41982D01*
X32510Y42612D01*
X32472Y42704D01*
X32402Y42774D01*
X32310Y42812D01*
X32210Y42812D01*
X31816Y42812D01*
X31732Y42938D01*
X31514Y43084D01*
X31256Y43135D01*
X30998Y43084D01*
X30883Y43007D01*
X30883Y44602D01*
X31244Y44963D01*
X31325Y45085D01*
X31353Y45228D01*
X31353Y47527D01*
X31376Y47536D01*
X31446Y47606D01*
X31484Y47698D01*
X31484Y47798D01*
X31484Y48427D01*
X31446Y48519D01*
X31376Y48590D01*
X31284Y48628D01*
X31185Y48628D01*
X30790Y48628D01*
X30707Y48753D01*
X30488Y48899D01*
X30230Y48951D01*
X29973Y48899D01*
X29754Y48753D01*
X29670Y48628D01*
X29177Y48628D01*
X29085Y48590D01*
X29015Y48520D01*
X28976Y48428D01*
X28976Y48375D01*
X26046Y48375D01*
X26019Y48402D01*
X25844Y48474D01*
X25655Y48475D01*
X25481Y48402D01*
X25347Y48269D01*
X25275Y48094D01*
X25274Y47905D01*
X25347Y47731D01*
X25480Y47597D01*
X25655Y47525D01*
X25844Y47524D01*
X26018Y47597D01*
X26046Y47625D01*
X29007Y47625D01*
X29014Y47607D01*
X29085Y47536D01*
X29177Y47498D01*
X29276Y47498D01*
X29670Y47498D01*
X29754Y47373D01*
X29973Y47227D01*
X30230Y47175D01*
X30488Y47227D01*
X30603Y47304D01*
X30603Y45384D01*
X30243Y45023D01*
X30161Y44901D01*
X30133Y44758D01*
X30133Y42784D01*
X30110Y42774D01*
X30040Y42704D01*
X30002Y42612D01*
X30002Y42513D01*
X30002Y41883D01*
X30040Y41791D01*
X30110Y41721D01*
X30202Y41682D01*
X30301Y41682D01*
X30696Y41682D01*
X30779Y41557D01*
X30998Y41411D01*
X31256Y41360D01*
X31514Y41411D01*
X31629Y41488D01*
X31629Y39659D01*
X31268Y39298D01*
X31187Y39177D01*
X31158Y39033D01*
X31158Y36968D01*
X31136Y36959D01*
X31066Y36889D01*
X31027Y36797D01*
X31027Y36697D01*
X31027Y36067D01*
X31065Y35975D01*
X31136Y35905D01*
X31227Y35867D01*
X31327Y35867D01*
X31721Y35867D01*
X31805Y35741D01*
X32023Y35595D01*
X32281Y35544D01*
X32539Y35595D01*
X32758Y35741D01*
X32841Y35867D01*
X33335Y35867D01*
X33427Y35905D01*
X33454Y35932D01*
X34432Y35932D01*
X34432Y35932D01*
X34432Y35932D01*
X34623Y35970D01*
X34785Y36078D01*
X34853Y36146D01*
X34961Y36308D01*
X35000Y36500D01*
X35000Y33300D01*
X13225Y33300D01*
X13225Y49094D01*
X13152Y49268D01*
X13019Y49402D01*
X12844Y49474D01*
X12655Y49475D01*
X12481Y49402D01*
X12453Y49375D01*
X7550Y49375D01*
X7550Y50150D01*
X7550Y50387D01*
X7487Y50450D01*
X7050Y50450D01*
X7050Y50012D01*
X7112Y49950D01*
X7250Y49949D01*
X7349Y49950D01*
X7441Y49988D01*
X7512Y50058D01*
X7550Y50150D01*
X7550Y49375D01*
X6950Y49375D01*
X6950Y50012D01*
X6950Y50450D01*
X6512Y50450D01*
X6450Y50387D01*
X6449Y50150D01*
X6487Y50058D01*
X6558Y49988D01*
X6650Y49950D01*
X6749Y49949D01*
X6887Y49950D01*
X6950Y50012D01*
X6950Y49375D01*
X5650Y49375D01*
X5650Y50250D01*
X5650Y50749D01*
X5612Y50841D01*
X5541Y50911D01*
X5449Y50949D01*
X5350Y50950D01*
X5137Y50950D01*
X5075Y50887D01*
X5075Y50550D01*
X5587Y50550D01*
X5650Y50612D01*
X5650Y50749D01*
X5650Y50250D01*
X5650Y50387D01*
X5587Y50450D01*
X5075Y50450D01*
X5075Y50112D01*
X5137Y50050D01*
X5350Y50049D01*
X5449Y50050D01*
X5541Y50088D01*
X5612Y50158D01*
X5650Y50250D01*
X5650Y49375D01*
X5250Y49375D01*
X5106Y49346D01*
X4984Y49265D01*
X4975Y49255D01*
X4975Y50112D01*
X4975Y50450D01*
X4975Y50550D01*
X4975Y50887D01*
X4912Y50950D01*
X4699Y50950D01*
X4600Y50949D01*
X4508Y50911D01*
X4437Y50841D01*
X4399Y50749D01*
X4400Y50612D01*
X4462Y50550D01*
X4975Y50550D01*
X4975Y50450D01*
X4462Y50450D01*
X4400Y50387D01*
X4399Y50250D01*
X4437Y50158D01*
X4508Y50088D01*
X4600Y50050D01*
X4699Y50049D01*
X4912Y50050D01*
X4975Y50112D01*
X4975Y49255D01*
X4495Y48775D01*
X4414Y48654D01*
X4385Y48510D01*
X4385Y48493D01*
X4363Y48484D01*
X4292Y48414D01*
X4254Y48322D01*
X4254Y48222D01*
X4254Y47592D01*
X4292Y47500D01*
X4362Y47430D01*
X4454Y47392D01*
X4554Y47392D01*
X4948Y47392D01*
X5032Y47266D01*
X5250Y47120D01*
X5508Y47069D01*
X5766Y47120D01*
X5881Y47197D01*
X5881Y45161D01*
X5520Y44801D01*
X5439Y44679D01*
X5410Y44535D01*
X5410Y42677D01*
X5388Y42668D01*
X5318Y42598D01*
X5280Y42506D01*
X5280Y42407D01*
X5280Y41777D01*
X5318Y41685D01*
X5388Y41614D01*
X5480Y41576D01*
X5579Y41576D01*
X5973Y41576D01*
X6057Y41451D01*
X6276Y41305D01*
X6534Y41254D01*
X6791Y41305D01*
X6907Y41382D01*
X6907Y39437D01*
X6546Y39076D01*
X6464Y38954D01*
X6436Y38811D01*
X6436Y36862D01*
X6414Y36853D01*
X6343Y36782D01*
X6305Y36691D01*
X6305Y36591D01*
X6305Y35961D01*
X6343Y35869D01*
X6413Y35799D01*
X6505Y35761D01*
X6605Y35761D01*
X6999Y35761D01*
X7083Y35635D01*
X7301Y35489D01*
X7559Y35438D01*
X7817Y35489D01*
X8035Y35635D01*
X8119Y35761D01*
X8327Y35761D01*
X8383Y35750D01*
X10250Y35750D01*
X10441Y35788D01*
X10603Y35896D01*
X10711Y36058D01*
X10750Y36250D01*
X10711Y36441D01*
X10603Y36603D01*
X10441Y36711D01*
X10250Y36750D01*
X8788Y36750D01*
X8775Y36782D01*
X8705Y36852D01*
X8613Y36891D01*
X8513Y36891D01*
X8119Y36891D01*
X8035Y37016D01*
X7817Y37162D01*
X7559Y37213D01*
X7301Y37162D01*
X7186Y37085D01*
X7186Y38656D01*
X7547Y39016D01*
X7628Y39138D01*
X7657Y39282D01*
X7657Y41605D01*
X7679Y41614D01*
X7749Y41684D01*
X7787Y41776D01*
X7787Y41876D01*
X7787Y42506D01*
X7750Y42598D01*
X7679Y42668D01*
X7587Y42706D01*
X7488Y42706D01*
X7094Y42706D01*
X7010Y42831D01*
X6791Y42978D01*
X6534Y43029D01*
X6276Y42978D01*
X6160Y42901D01*
X6160Y44380D01*
X6521Y44741D01*
X6603Y44863D01*
X6631Y45006D01*
X6631Y47421D01*
X6653Y47430D01*
X6724Y47500D01*
X6762Y47592D01*
X6762Y47691D01*
X6762Y48321D01*
X6724Y48413D01*
X6654Y48484D01*
X6562Y48522D01*
X6462Y48522D01*
X6068Y48522D01*
X6000Y48625D01*
X12453Y48625D01*
X12480Y48597D01*
X12655Y48525D01*
X12844Y48524D01*
X13018Y48597D01*
X13152Y48730D01*
X13224Y48905D01*
X13225Y49094D01*
X13225Y33300D01*
X6371Y33300D01*
X6269Y33402D01*
X6094Y33474D01*
X5905Y33475D01*
X5731Y33402D01*
X5597Y33269D01*
X5525Y33094D01*
X5524Y32905D01*
X5597Y32731D01*
X5730Y32597D01*
X5905Y32525D01*
X6094Y32524D01*
X6268Y32597D01*
X6371Y32700D01*
X35628Y32700D01*
X35730Y32597D01*
X35905Y32525D01*
X36094Y32524D01*
X36268Y32597D01*
X36402Y32730D01*
X36474Y32905D01*
X36475Y33094D01*
X36475Y18386D01*
X36428Y18386D01*
X36034Y18386D01*
X35950Y18512D01*
X35731Y18658D01*
X35474Y18709D01*
X35216Y18658D01*
X35101Y18581D01*
X35101Y19820D01*
X35457Y20177D01*
X35539Y20299D01*
X35567Y20442D01*
X35567Y20442D01*
X35567Y23123D01*
X35590Y23133D01*
X35660Y23203D01*
X35698Y23295D01*
X35698Y23394D01*
X35698Y24024D01*
X35660Y24116D01*
X35590Y24186D01*
X35498Y24224D01*
X35399Y24225D01*
X35004Y24225D01*
X34921Y24350D01*
X34702Y24496D01*
X34444Y24547D01*
X34186Y24496D01*
X33968Y24350D01*
X33884Y24225D01*
X33391Y24225D01*
X33299Y24187D01*
X33228Y24116D01*
X33209Y24070D01*
X32015Y25265D01*
X31893Y25346D01*
X31750Y25375D01*
X23250Y25375D01*
X23106Y25346D01*
X22984Y25265D01*
X22625Y24905D01*
X22625Y27203D01*
X22652Y27230D01*
X22724Y27405D01*
X22725Y27594D01*
X22652Y27768D01*
X22519Y27902D01*
X22344Y27974D01*
X22155Y27975D01*
X21981Y27902D01*
X21847Y27769D01*
X21775Y27594D01*
X21774Y27405D01*
X21847Y27231D01*
X21875Y27203D01*
X21875Y26905D01*
X21015Y27765D01*
X20893Y27846D01*
X20750Y27875D01*
X15655Y27875D01*
X14721Y28809D01*
X14721Y29245D01*
X14836Y29168D01*
X15094Y29116D01*
X15351Y29168D01*
X15570Y29314D01*
X15654Y29439D01*
X16147Y29439D01*
X16239Y29477D01*
X16309Y29547D01*
X16343Y29629D01*
X19750Y29629D01*
X19784Y29548D01*
X19854Y29477D01*
X19946Y29439D01*
X20045Y29439D01*
X20439Y29439D01*
X20523Y29314D01*
X20742Y29168D01*
X21000Y29116D01*
X21257Y29168D01*
X21476Y29314D01*
X21560Y29439D01*
X22053Y29439D01*
X22145Y29477D01*
X22215Y29547D01*
X22249Y29629D01*
X25656Y29629D01*
X25690Y29548D01*
X25760Y29477D01*
X25852Y29439D01*
X25951Y29439D01*
X26345Y29439D01*
X26429Y29314D01*
X26648Y29168D01*
X26906Y29116D01*
X27163Y29168D01*
X27382Y29314D01*
X27466Y29439D01*
X27959Y29439D01*
X28051Y29477D01*
X28078Y29504D01*
X29727Y29504D01*
X29750Y29500D01*
X29941Y29538D01*
X30103Y29646D01*
X30211Y29808D01*
X30250Y30000D01*
X30211Y30191D01*
X30103Y30353D01*
X30099Y30357D01*
X29936Y30466D01*
X29745Y30504D01*
X29745Y30504D01*
X28078Y30504D01*
X28051Y30531D01*
X27959Y30569D01*
X27860Y30569D01*
X27466Y30569D01*
X27382Y30694D01*
X27163Y30840D01*
X26906Y30892D01*
X26648Y30840D01*
X26429Y30694D01*
X26345Y30569D01*
X25852Y30569D01*
X25760Y30531D01*
X25690Y30461D01*
X25656Y30379D01*
X22249Y30379D01*
X22216Y30460D01*
X22145Y30531D01*
X22053Y30569D01*
X21954Y30569D01*
X21560Y30569D01*
X21476Y30694D01*
X21257Y30840D01*
X21000Y30892D01*
X20742Y30840D01*
X20523Y30694D01*
X20439Y30569D01*
X19946Y30569D01*
X19854Y30531D01*
X19784Y30461D01*
X19750Y30379D01*
X16343Y30379D01*
X16310Y30460D01*
X16239Y30531D01*
X16147Y30569D01*
X16048Y30569D01*
X15654Y30569D01*
X15570Y30694D01*
X15351Y30840D01*
X15094Y30892D01*
X14836Y30840D01*
X14617Y30694D01*
X14534Y30569D01*
X14040Y30569D01*
X13948Y30531D01*
X13878Y30461D01*
X13840Y30369D01*
X13840Y30269D01*
X13840Y29639D01*
X13878Y29548D01*
X13948Y29477D01*
X13971Y29468D01*
X13971Y28653D01*
X13999Y28510D01*
X14080Y28388D01*
X15094Y27375D01*
X10381Y27375D01*
X10381Y29754D01*
X10381Y30245D01*
X10380Y30344D01*
X10342Y30436D01*
X10272Y30507D01*
X10180Y30545D01*
X9987Y30545D01*
X9925Y30482D01*
X9925Y30050D01*
X10318Y30050D01*
X10381Y30112D01*
X10381Y30245D01*
X10381Y29754D01*
X10381Y29887D01*
X10318Y29950D01*
X9925Y29950D01*
X9925Y29517D01*
X9987Y29455D01*
X10180Y29454D01*
X10272Y29492D01*
X10342Y29563D01*
X10380Y29655D01*
X10381Y29754D01*
X10381Y27375D01*
X9825Y27375D01*
X9825Y29517D01*
X9825Y29950D01*
X9817Y29950D01*
X9817Y30050D01*
X9825Y30050D01*
X9825Y30482D01*
X9762Y30545D01*
X9569Y30545D01*
X9499Y30516D01*
X9430Y30544D01*
X9331Y30545D01*
X8819Y30545D01*
X8727Y30507D01*
X8720Y30500D01*
X8127Y30500D01*
X7936Y30461D01*
X7773Y30353D01*
X7665Y30191D01*
X7627Y30000D01*
X7665Y29808D01*
X7773Y29646D01*
X7936Y29538D01*
X8127Y29500D01*
X8720Y29500D01*
X8727Y29493D01*
X8819Y29455D01*
X8918Y29454D01*
X9430Y29454D01*
X9500Y29483D01*
X9569Y29454D01*
X9762Y29455D01*
X9825Y29517D01*
X9825Y27375D01*
X6250Y27375D01*
X5296Y27375D01*
X5269Y27402D01*
X5094Y27474D01*
X4905Y27475D01*
X4731Y27402D01*
X4690Y27362D01*
X4690Y45318D01*
X4439Y45940D01*
X4420Y45970D01*
X4206Y46136D01*
X4136Y46065D01*
X4136Y46206D01*
X3970Y46420D01*
X3352Y46683D01*
X2681Y46690D01*
X2059Y46439D01*
X2029Y46420D01*
X1863Y46206D01*
X3000Y45070D01*
X4136Y46206D01*
X4136Y46065D01*
X3070Y45000D01*
X4206Y43863D01*
X4420Y44029D01*
X4683Y44647D01*
X4690Y45318D01*
X4690Y27362D01*
X4597Y27269D01*
X4525Y27094D01*
X4524Y26905D01*
X4597Y26731D01*
X4730Y26597D01*
X4905Y26525D01*
X5094Y26524D01*
X5268Y26597D01*
X5296Y26625D01*
X6250Y26625D01*
X11287Y26625D01*
X11275Y26594D01*
X11274Y26405D01*
X11287Y26375D01*
X7796Y26375D01*
X7769Y26402D01*
X7594Y26474D01*
X7405Y26475D01*
X7231Y26402D01*
X7097Y26269D01*
X7025Y26094D01*
X7024Y25905D01*
X7097Y25731D01*
X7230Y25597D01*
X7405Y25525D01*
X7594Y25524D01*
X7768Y25597D01*
X7796Y25625D01*
X11953Y25625D01*
X11980Y25597D01*
X12155Y25525D01*
X12344Y25524D01*
X12518Y25597D01*
X12546Y25625D01*
X13344Y25625D01*
X16438Y22530D01*
X16560Y22449D01*
X16704Y22421D01*
X17802Y22421D01*
X17803Y22316D01*
X17865Y22254D01*
X18200Y22254D01*
X18200Y22261D01*
X18300Y22261D01*
X18300Y22254D01*
X18634Y22254D01*
X18697Y22316D01*
X18697Y22421D01*
X19046Y22421D01*
X19189Y22449D01*
X19311Y22530D01*
X19511Y22731D01*
X19600Y22695D01*
X19699Y22694D01*
X19899Y22694D01*
X19991Y22732D01*
X19999Y22741D01*
X20008Y22733D01*
X20100Y22695D01*
X20199Y22694D01*
X20399Y22694D01*
X20491Y22732D01*
X20499Y22741D01*
X20508Y22733D01*
X20600Y22695D01*
X20699Y22694D01*
X20899Y22694D01*
X20991Y22732D01*
X20999Y22741D01*
X21008Y22733D01*
X21100Y22695D01*
X21199Y22694D01*
X21399Y22694D01*
X21491Y22732D01*
X21499Y22741D01*
X21508Y22733D01*
X21600Y22695D01*
X21699Y22694D01*
X21899Y22694D01*
X21991Y22732D01*
X21999Y22741D01*
X22008Y22733D01*
X22100Y22695D01*
X22199Y22694D01*
X22399Y22694D01*
X22491Y22732D01*
X22499Y22741D01*
X22508Y22733D01*
X22600Y22695D01*
X22699Y22694D01*
X22899Y22694D01*
X22991Y22732D01*
X23061Y22803D01*
X23099Y22895D01*
X23100Y22994D01*
X23100Y23289D01*
X23125Y23415D01*
X23125Y24344D01*
X23405Y24625D01*
X31594Y24625D01*
X32824Y23394D01*
X32824Y23394D01*
X32946Y23313D01*
X33089Y23285D01*
X33195Y23285D01*
X33228Y23203D01*
X33298Y23133D01*
X33390Y23095D01*
X33490Y23095D01*
X33884Y23095D01*
X33968Y22969D01*
X34186Y22823D01*
X34444Y22772D01*
X34702Y22823D01*
X34817Y22900D01*
X34817Y20598D01*
X34460Y20241D01*
X34379Y20119D01*
X34351Y19976D01*
X34351Y18358D01*
X34328Y18348D01*
X34258Y18278D01*
X34220Y18186D01*
X34220Y18087D01*
X34220Y17457D01*
X34258Y17365D01*
X34328Y17295D01*
X34420Y17256D01*
X34519Y17256D01*
X34914Y17256D01*
X34997Y17131D01*
X35216Y16985D01*
X35474Y16934D01*
X35731Y16985D01*
X35847Y17062D01*
X35847Y14877D01*
X35490Y14520D01*
X35409Y14399D01*
X35380Y14255D01*
X35380Y12519D01*
X35358Y12510D01*
X35287Y12440D01*
X35249Y12348D01*
X35249Y12249D01*
X35249Y11619D01*
X35287Y11527D01*
X35357Y11456D01*
X35449Y11418D01*
X35549Y11418D01*
X35943Y11418D01*
X36027Y11293D01*
X36245Y11147D01*
X36503Y11096D01*
X36672Y11129D01*
X36292Y10750D01*
X36000Y10750D01*
X35808Y10711D01*
X35646Y10603D01*
X35538Y10441D01*
X35500Y10250D01*
X35538Y10058D01*
X35646Y9896D01*
X35808Y9788D01*
X36000Y9750D01*
X36350Y9750D01*
X36349Y9749D01*
X36350Y9612D01*
X36412Y9550D01*
X36925Y9550D01*
X36925Y9887D01*
X36884Y9927D01*
X37605Y10648D01*
X37713Y10810D01*
X37751Y11001D01*
X37751Y11604D01*
X37757Y11618D01*
X37757Y11718D01*
X37757Y8800D01*
X37600Y8800D01*
X37600Y9250D01*
X37600Y9749D01*
X37562Y9841D01*
X37491Y9911D01*
X37399Y9949D01*
X37300Y9950D01*
X37087Y9950D01*
X37025Y9887D01*
X37025Y9550D01*
X37537Y9550D01*
X37600Y9612D01*
X37600Y9749D01*
X37600Y9250D01*
X37600Y9387D01*
X37537Y9450D01*
X37025Y9450D01*
X37025Y9112D01*
X37087Y9050D01*
X37300Y9049D01*
X37399Y9050D01*
X37491Y9088D01*
X37562Y9158D01*
X37600Y9250D01*
X37600Y8800D01*
X37579Y8800D01*
X37562Y8841D01*
X37491Y8911D01*
X37399Y8949D01*
X37300Y8950D01*
X36925Y8950D01*
X36925Y9112D01*
X36925Y9450D01*
X36412Y9450D01*
X36350Y9387D01*
X36349Y9250D01*
X36387Y9158D01*
X36458Y9088D01*
X36550Y9050D01*
X36649Y9049D01*
X36862Y9050D01*
X36925Y9112D01*
X36925Y8950D01*
X36550Y8950D01*
X36458Y8912D01*
X36388Y8841D01*
X36370Y8800D01*
X35471Y8800D01*
X35466Y8811D01*
X35327Y8950D01*
X35349Y8950D01*
X35441Y8988D01*
X35512Y9058D01*
X35550Y9150D01*
X35550Y9849D01*
X35512Y9941D01*
X35441Y10011D01*
X35349Y10049D01*
X35250Y10050D01*
X35112Y10050D01*
X35050Y9987D01*
X35050Y9550D01*
X35487Y9550D01*
X35550Y9612D01*
X35550Y9849D01*
X35550Y9150D01*
X35550Y9387D01*
X35487Y9450D01*
X35050Y9450D01*
X35050Y9442D01*
X34950Y9442D01*
X34950Y9450D01*
X34950Y9550D01*
X34950Y9987D01*
X34887Y10050D01*
X34749Y10050D01*
X34650Y10049D01*
X34558Y10011D01*
X34487Y9941D01*
X34449Y9849D01*
X34450Y9612D01*
X34512Y9550D01*
X34950Y9550D01*
X34950Y9450D01*
X34512Y9450D01*
X34450Y9387D01*
X34449Y9150D01*
X34487Y9058D01*
X34558Y8988D01*
X34650Y8950D01*
X34672Y8950D01*
X34534Y8811D01*
X34529Y8800D01*
X23225Y8800D01*
X23225Y16094D01*
X23152Y16268D01*
X23125Y16296D01*
X23125Y21585D01*
X23100Y21710D01*
X23100Y22104D01*
X23062Y22196D01*
X22991Y22266D01*
X22899Y22304D01*
X22800Y22305D01*
X22600Y22305D01*
X22508Y22267D01*
X22500Y22258D01*
X22491Y22266D01*
X22399Y22304D01*
X22300Y22305D01*
X22100Y22305D01*
X22008Y22267D01*
X22000Y22258D01*
X21991Y22266D01*
X21899Y22304D01*
X21800Y22305D01*
X21600Y22305D01*
X21508Y22267D01*
X21500Y22258D01*
X21491Y22266D01*
X21399Y22304D01*
X21300Y22305D01*
X21100Y22305D01*
X21008Y22267D01*
X21000Y22258D01*
X20991Y22266D01*
X20899Y22304D01*
X20800Y22305D01*
X20600Y22305D01*
X20508Y22267D01*
X20500Y22258D01*
X20491Y22266D01*
X20399Y22304D01*
X20300Y22305D01*
X20100Y22305D01*
X20008Y22267D01*
X20000Y22258D01*
X19991Y22266D01*
X19899Y22304D01*
X19800Y22305D01*
X19600Y22305D01*
X19508Y22267D01*
X19500Y22258D01*
X19491Y22266D01*
X19399Y22304D01*
X19362Y22304D01*
X19300Y22242D01*
X19300Y21635D01*
X19307Y21635D01*
X19307Y21535D01*
X19300Y21535D01*
X19300Y20927D01*
X19362Y20865D01*
X19375Y20865D01*
X19375Y20750D01*
X19403Y20606D01*
X19450Y20536D01*
X19450Y18874D01*
X19200Y18624D01*
X19200Y20927D01*
X19200Y21535D01*
X19200Y21635D01*
X19200Y22242D01*
X19137Y22304D01*
X19100Y22304D01*
X19008Y22266D01*
X18937Y22196D01*
X18899Y22104D01*
X18900Y21697D01*
X18962Y21635D01*
X19200Y21635D01*
X19200Y21535D01*
X18962Y21535D01*
X18900Y21472D01*
X18899Y21065D01*
X18937Y20973D01*
X19008Y20903D01*
X19100Y20865D01*
X19137Y20865D01*
X19200Y20927D01*
X19200Y18624D01*
X18875Y18300D01*
X18697Y18300D01*
X18697Y21977D01*
X18697Y22091D01*
X18634Y22154D01*
X18300Y22154D01*
X18300Y21839D01*
X18362Y21777D01*
X18397Y21776D01*
X18496Y21777D01*
X18588Y21815D01*
X18659Y21885D01*
X18697Y21977D01*
X18697Y18300D01*
X18200Y18300D01*
X18200Y21839D01*
X18200Y22154D01*
X17865Y22154D01*
X17803Y22091D01*
X17802Y21977D01*
X17840Y21885D01*
X17911Y21815D01*
X18003Y21777D01*
X18102Y21776D01*
X18137Y21777D01*
X18200Y21839D01*
X18200Y18300D01*
X16874Y18300D01*
X15050Y20124D01*
X15050Y22250D01*
X15027Y22364D01*
X14962Y22462D01*
X12462Y24962D01*
X12364Y25027D01*
X12250Y25050D01*
X6371Y25050D01*
X6269Y25152D01*
X6094Y25224D01*
X5905Y25225D01*
X5731Y25152D01*
X5597Y25019D01*
X5525Y24844D01*
X5524Y24655D01*
X5597Y24481D01*
X5730Y24347D01*
X5905Y24275D01*
X6094Y24274D01*
X6268Y24347D01*
X6371Y24450D01*
X12125Y24450D01*
X12646Y23928D01*
X10971Y23928D01*
X10938Y24010D01*
X10868Y24080D01*
X10776Y24118D01*
X10676Y24118D01*
X10282Y24118D01*
X10198Y24244D01*
X9980Y24390D01*
X9722Y24441D01*
X9464Y24390D01*
X9245Y24244D01*
X9162Y24118D01*
X8668Y24118D01*
X8576Y24081D01*
X8506Y24010D01*
X8468Y23918D01*
X8468Y23819D01*
X8468Y23189D01*
X8506Y23097D01*
X8576Y23027D01*
X8599Y23017D01*
X8599Y20775D01*
X8627Y20632D01*
X8709Y20510D01*
X9628Y19590D01*
X9628Y18252D01*
X9606Y18242D01*
X9536Y18172D01*
X9497Y18080D01*
X9497Y17981D01*
X9497Y17351D01*
X9535Y17259D01*
X9606Y17188D01*
X9697Y17150D01*
X9797Y17150D01*
X10191Y17150D01*
X10275Y17025D01*
X10493Y16879D01*
X10751Y16828D01*
X11009Y16879D01*
X11124Y16956D01*
X11124Y15000D01*
X11153Y14856D01*
X11234Y14735D01*
X12154Y13815D01*
X12154Y12636D01*
X12039Y12713D01*
X11781Y12765D01*
X11523Y12713D01*
X11304Y12567D01*
X11221Y12442D01*
X10727Y12442D01*
X10635Y12404D01*
X10608Y12377D01*
X9877Y12377D01*
X9877Y12377D01*
X9839Y12369D01*
X9810Y12364D01*
X9746Y12406D01*
X9555Y12444D01*
X9555Y12444D01*
X4852Y12444D01*
X4825Y12471D01*
X4733Y12509D01*
X4690Y12509D01*
X4690Y15318D01*
X4439Y15940D01*
X4420Y15970D01*
X4206Y16136D01*
X4136Y16065D01*
X4136Y16206D01*
X4136Y43793D01*
X3000Y44929D01*
X2929Y44858D01*
X2929Y45000D01*
X1793Y46136D01*
X1600Y45986D01*
X1600Y50250D01*
X1600Y50749D01*
X1562Y50841D01*
X1491Y50911D01*
X1399Y50949D01*
X1300Y50950D01*
X1087Y50950D01*
X1025Y50887D01*
X1025Y50550D01*
X1537Y50550D01*
X1600Y50612D01*
X1600Y50749D01*
X1600Y50250D01*
X1600Y50387D01*
X1537Y50450D01*
X1025Y50450D01*
X1025Y50112D01*
X1087Y50050D01*
X1300Y50049D01*
X1399Y50050D01*
X1491Y50088D01*
X1562Y50158D01*
X1600Y50250D01*
X1600Y45986D01*
X1579Y45970D01*
X1316Y45352D01*
X1309Y44681D01*
X1560Y44059D01*
X1579Y44029D01*
X1793Y43863D01*
X2929Y45000D01*
X2929Y44858D01*
X1863Y43793D01*
X2029Y43579D01*
X2647Y43316D01*
X3318Y43309D01*
X3940Y43560D01*
X3970Y43579D01*
X4136Y43793D01*
X4136Y16206D01*
X3970Y16420D01*
X3352Y16683D01*
X2681Y16690D01*
X2059Y16439D01*
X2029Y16420D01*
X1863Y16206D01*
X3000Y15070D01*
X4136Y16206D01*
X4136Y16065D01*
X3070Y15000D01*
X4206Y13863D01*
X4420Y14029D01*
X4683Y14647D01*
X4690Y15318D01*
X4690Y12509D01*
X4634Y12509D01*
X4239Y12509D01*
X4156Y12635D01*
X4096Y12674D01*
X4152Y12730D01*
X4224Y12905D01*
X4225Y13094D01*
X4152Y13268D01*
X4019Y13402D01*
X3844Y13474D01*
X3729Y13475D01*
X3940Y13560D01*
X3970Y13579D01*
X4136Y13793D01*
X3000Y14929D01*
X2929Y14858D01*
X2929Y15000D01*
X1793Y16136D01*
X1579Y15970D01*
X1316Y15352D01*
X1309Y14681D01*
X1560Y14059D01*
X1579Y14029D01*
X1793Y13863D01*
X2929Y15000D01*
X2929Y14858D01*
X1863Y13793D01*
X2029Y13579D01*
X2647Y13316D01*
X3055Y13312D01*
X2984Y13265D01*
X2666Y12946D01*
X2585Y12825D01*
X2556Y12681D01*
X2556Y12481D01*
X2534Y12471D01*
X2464Y12401D01*
X2425Y12309D01*
X2425Y12210D01*
X2425Y11580D01*
X2463Y11488D01*
X2534Y11418D01*
X2625Y11379D01*
X2725Y11379D01*
X3119Y11379D01*
X3203Y11254D01*
X3421Y11108D01*
X3679Y11057D01*
X3937Y11108D01*
X4156Y11254D01*
X4239Y11379D01*
X4483Y11379D01*
X4495Y11377D01*
X4506Y11379D01*
X4733Y11379D01*
X4825Y11417D01*
X4852Y11444D01*
X9348Y11444D01*
X9396Y11396D01*
X9396Y11396D01*
X9558Y11288D01*
X9750Y11249D01*
X9750Y11250D01*
X9941Y11288D01*
X10075Y11377D01*
X10608Y11377D01*
X10635Y11350D01*
X10727Y11312D01*
X10826Y11312D01*
X11221Y11312D01*
X11304Y11187D01*
X11523Y11041D01*
X11781Y10989D01*
X12039Y11041D01*
X12257Y11187D01*
X12341Y11312D01*
X12834Y11312D01*
X12926Y11350D01*
X12996Y11420D01*
X13035Y11512D01*
X13035Y11612D01*
X13035Y12242D01*
X12997Y12333D01*
X12926Y12404D01*
X12904Y12413D01*
X12904Y13970D01*
X12875Y14114D01*
X12794Y14235D01*
X11874Y15155D01*
X11874Y17179D01*
X11897Y17188D01*
X11967Y17259D01*
X12005Y17350D01*
X12005Y17450D01*
X12005Y18080D01*
X11967Y18172D01*
X11897Y18242D01*
X11805Y18280D01*
X11706Y18280D01*
X11311Y18280D01*
X11228Y18406D01*
X11009Y18552D01*
X10751Y18603D01*
X10493Y18552D01*
X10378Y18475D01*
X10378Y19746D01*
X10350Y19889D01*
X10268Y20011D01*
X9349Y20931D01*
X9349Y22794D01*
X9464Y22717D01*
X9722Y22666D01*
X9980Y22717D01*
X10198Y22863D01*
X10282Y22988D01*
X10775Y22988D01*
X10867Y23026D01*
X10938Y23097D01*
X10972Y23178D01*
X12540Y23178D01*
X13875Y21844D01*
X13875Y18000D01*
X13903Y17856D01*
X13984Y17734D01*
X15484Y16234D01*
X15484Y16234D01*
X15606Y16153D01*
X15750Y16125D01*
X21250Y16125D01*
X21393Y16153D01*
X21515Y16234D01*
X22375Y17094D01*
X22375Y16296D01*
X22347Y16269D01*
X22275Y16094D01*
X22274Y15905D01*
X22347Y15731D01*
X22480Y15597D01*
X22655Y15525D01*
X22844Y15524D01*
X23018Y15597D01*
X23152Y15730D01*
X23224Y15905D01*
X23225Y16094D01*
X23225Y8800D01*
X7554Y8800D01*
X7554Y9418D01*
X7543Y9636D01*
X7481Y9787D01*
X7385Y9815D01*
X7315Y9744D01*
X7315Y9885D01*
X7287Y9981D01*
X7081Y10054D01*
X6863Y10043D01*
X6712Y9981D01*
X6684Y9885D01*
X7000Y9570D01*
X7315Y9885D01*
X7315Y9744D01*
X7070Y9500D01*
X7385Y9184D01*
X7481Y9212D01*
X7554Y9418D01*
X7554Y8800D01*
X7471Y8800D01*
X7466Y8811D01*
X7311Y8965D01*
X7236Y8997D01*
X7287Y9018D01*
X7315Y9114D01*
X7000Y9429D01*
X6929Y9358D01*
X6929Y9500D01*
X6614Y9815D01*
X6518Y9787D01*
X6445Y9581D01*
X6456Y9363D01*
X6518Y9212D01*
X6614Y9184D01*
X6929Y9500D01*
X6929Y9358D01*
X6684Y9114D01*
X6712Y9018D01*
X6767Y8999D01*
X6688Y8966D01*
X6534Y8811D01*
X6529Y8800D01*
X5650Y8800D01*
X5650Y9250D01*
X5650Y9749D01*
X5612Y9841D01*
X5541Y9911D01*
X5449Y9949D01*
X5350Y9950D01*
X5137Y9950D01*
X5075Y9887D01*
X5075Y9550D01*
X5587Y9550D01*
X5650Y9612D01*
X5650Y9749D01*
X5650Y9250D01*
X5650Y9387D01*
X5587Y9450D01*
X5075Y9450D01*
X5075Y9112D01*
X5137Y9050D01*
X5350Y9049D01*
X5449Y9050D01*
X5541Y9088D01*
X5612Y9158D01*
X5650Y9250D01*
X5650Y8800D01*
X5629Y8800D01*
X5612Y8841D01*
X5541Y8911D01*
X5449Y8949D01*
X5350Y8950D01*
X4975Y8950D01*
X4975Y9112D01*
X4975Y9450D01*
X4975Y9550D01*
X4975Y9887D01*
X4912Y9950D01*
X4699Y9950D01*
X4600Y9949D01*
X4508Y9911D01*
X4437Y9841D01*
X4399Y9749D01*
X4400Y9612D01*
X4462Y9550D01*
X4975Y9550D01*
X4975Y9450D01*
X4462Y9450D01*
X4400Y9387D01*
X4399Y9250D01*
X4437Y9158D01*
X4508Y9088D01*
X4600Y9050D01*
X4699Y9049D01*
X4912Y9050D01*
X4975Y9112D01*
X4975Y8950D01*
X4600Y8950D01*
X4508Y8912D01*
X4438Y8841D01*
X4420Y8800D01*
X1600Y8800D01*
X1600Y9250D01*
X1600Y9749D01*
X1562Y9841D01*
X1491Y9911D01*
X1399Y9949D01*
X1300Y9950D01*
X1087Y9950D01*
X1025Y9887D01*
X1025Y9550D01*
X1537Y9550D01*
X1600Y9612D01*
X1600Y9749D01*
X1600Y9250D01*
X1600Y9387D01*
X1537Y9450D01*
X1025Y9450D01*
X1025Y9112D01*
X1087Y9050D01*
X1300Y9049D01*
X1399Y9050D01*
X1491Y9088D01*
X1562Y9158D01*
X1600Y9250D01*
X1600Y8800D01*
X1579Y8800D01*
X1562Y8841D01*
X1491Y8911D01*
X1399Y8949D01*
X1300Y8950D01*
X925Y8950D01*
X925Y9112D01*
X925Y9450D01*
X925Y9550D01*
X925Y9887D01*
X925Y50112D01*
X925Y50450D01*
X925Y50550D01*
X925Y50887D01*
X862Y50950D01*
X649Y50950D01*
X550Y50949D01*
X458Y50911D01*
X387Y50841D01*
X349Y50749D01*
X350Y50612D01*
X412Y50550D01*
X925Y50550D01*
X925Y50450D01*
X412Y50450D01*
X350Y50387D01*
X349Y50250D01*
X387Y50158D01*
X458Y50088D01*
X550Y50050D01*
X649Y50049D01*
X862Y50050D01*
X925Y50112D01*
X925Y9887D01*
X862Y9950D01*
X649Y9950D01*
X550Y9949D01*
X458Y9911D01*
X387Y9841D01*
X349Y9749D01*
X350Y9612D01*
X412Y9550D01*
X925Y9550D01*
X925Y9450D01*
X412Y9450D01*
X350Y9387D01*
X349Y9250D01*
X387Y9158D01*
X458Y9088D01*
X550Y9050D01*
X649Y9049D01*
X862Y9050D01*
X925Y9112D01*
X925Y8950D01*
X550Y8950D01*
X458Y8912D01*
X388Y8841D01*
X350Y8749D01*
X349Y8650D01*
X349Y8250D01*
X387Y8158D01*
X458Y8088D01*
X550Y8050D01*
X649Y8049D01*
X1399Y8049D01*
X1491Y8087D01*
X1561Y8158D01*
X1579Y8200D01*
X4420Y8200D01*
X4437Y8158D01*
X4508Y8088D01*
X4600Y8050D01*
X4699Y8049D01*
X5449Y8049D01*
X5541Y8087D01*
X5611Y8158D01*
X5629Y8200D01*
X6528Y8200D01*
X6533Y8188D01*
X6688Y8034D01*
X6769Y8000D01*
X6688Y7966D01*
X6534Y7811D01*
X6529Y7800D01*
X5629Y7800D01*
X5612Y7841D01*
X5541Y7911D01*
X5449Y7949D01*
X5350Y7950D01*
X4600Y7950D01*
X4508Y7912D01*
X4438Y7841D01*
X4420Y7800D01*
X1579Y7800D01*
X1562Y7841D01*
X1491Y7911D01*
X1399Y7949D01*
X1300Y7950D01*
X550Y7950D01*
X458Y7912D01*
X388Y7841D01*
X350Y7749D01*
X349Y7650D01*
X349Y7250D01*
X387Y7158D01*
X458Y7088D01*
X550Y7050D01*
X649Y7049D01*
X1399Y7049D01*
X1491Y7087D01*
X1561Y7158D01*
X1579Y7200D01*
X4420Y7200D01*
X4437Y7158D01*
X4508Y7088D01*
X4600Y7050D01*
X4699Y7049D01*
X5449Y7049D01*
X5541Y7087D01*
X5611Y7158D01*
X5629Y7200D01*
X6528Y7200D01*
X6533Y7188D01*
X6688Y7034D01*
X6769Y7000D01*
X6688Y6966D01*
X6534Y6811D01*
X6529Y6800D01*
X5629Y6800D01*
X5612Y6841D01*
X5541Y6911D01*
X5449Y6949D01*
X5350Y6950D01*
X4600Y6950D01*
X4508Y6912D01*
X4438Y6841D01*
X4420Y6800D01*
X1579Y6800D01*
X1562Y6841D01*
X1491Y6911D01*
X1399Y6949D01*
X1300Y6950D01*
X550Y6950D01*
X458Y6912D01*
X388Y6841D01*
X350Y6749D01*
X349Y6650D01*
X349Y6250D01*
X387Y6158D01*
X458Y6088D01*
X550Y6050D01*
X649Y6049D01*
X1399Y6049D01*
X1491Y6087D01*
X1561Y6158D01*
X1579Y6200D01*
X4420Y6200D01*
X4437Y6158D01*
X4508Y6088D01*
X4600Y6050D01*
X4699Y6049D01*
X5449Y6049D01*
X5541Y6087D01*
X5611Y6158D01*
X5629Y6200D01*
X6528Y6200D01*
X6533Y6188D01*
X6688Y6034D01*
X6769Y6000D01*
X6688Y5966D01*
X6534Y5811D01*
X6529Y5800D01*
X5629Y5800D01*
X5612Y5841D01*
X5541Y5911D01*
X5449Y5949D01*
X5350Y5950D01*
X4600Y5950D01*
X4508Y5912D01*
X4438Y5841D01*
X4420Y5800D01*
X1579Y5800D01*
X1562Y5841D01*
X1491Y5911D01*
X1399Y5949D01*
X1300Y5950D01*
X550Y5950D01*
X458Y5912D01*
X388Y5841D01*
X350Y5749D01*
X349Y5650D01*
X349Y5250D01*
X387Y5158D01*
X458Y5088D01*
X550Y5050D01*
X649Y5049D01*
X1399Y5049D01*
X1491Y5087D01*
X1561Y5158D01*
X1579Y5200D01*
X4420Y5200D01*
X4437Y5158D01*
X4508Y5088D01*
X4600Y5050D01*
X4699Y5049D01*
X5449Y5049D01*
X5541Y5087D01*
X5611Y5158D01*
X5629Y5200D01*
X6528Y5200D01*
X6533Y5188D01*
X6688Y5034D01*
X6769Y5000D01*
X6688Y4966D01*
X6534Y4811D01*
X6529Y4800D01*
X5629Y4800D01*
X5612Y4841D01*
X5541Y4911D01*
X5449Y4949D01*
X5350Y4950D01*
X4600Y4950D01*
X4508Y4912D01*
X4438Y4841D01*
X4420Y4800D01*
X1579Y4800D01*
X1562Y4841D01*
X1491Y4911D01*
X1399Y4949D01*
X1300Y4950D01*
X550Y4950D01*
X458Y4912D01*
X388Y4841D01*
X350Y4749D01*
X349Y4650D01*
X349Y4250D01*
X387Y4158D01*
X458Y4088D01*
X550Y4050D01*
X649Y4049D01*
X1399Y4049D01*
X1491Y4087D01*
X1561Y4158D01*
X1579Y4200D01*
X4420Y4200D01*
X4437Y4158D01*
X4508Y4088D01*
X4600Y4050D01*
X4699Y4049D01*
X5449Y4049D01*
X5541Y4087D01*
X5611Y4158D01*
X5629Y4200D01*
X6528Y4200D01*
X6533Y4188D01*
X6688Y4034D01*
X6769Y4000D01*
X6688Y3966D01*
X6597Y3875D01*
X5578Y3875D01*
X5541Y3911D01*
X5449Y3949D01*
X5350Y3950D01*
X4600Y3950D01*
X4508Y3912D01*
X4471Y3875D01*
X1528Y3875D01*
X1491Y3911D01*
X1399Y3949D01*
X1300Y3950D01*
X550Y3950D01*
X458Y3912D01*
X388Y3841D01*
X350Y3749D01*
X349Y3650D01*
X349Y3250D01*
X387Y3158D01*
X458Y3088D01*
X550Y3050D01*
X649Y3049D01*
X1399Y3049D01*
X1491Y3087D01*
X1528Y3125D01*
X4471Y3125D01*
X4508Y3088D01*
X4600Y3050D01*
X4699Y3049D01*
X5449Y3049D01*
X5541Y3087D01*
X5578Y3125D01*
X6597Y3125D01*
X6672Y3050D01*
X6650Y3050D01*
X6558Y3012D01*
X6546Y3000D01*
X5025Y3000D01*
X975Y3000D01*
X783Y2961D01*
X765Y2950D01*
X550Y2950D01*
X458Y2912D01*
X388Y2841D01*
X350Y2749D01*
X349Y2650D01*
X349Y2250D01*
X387Y2158D01*
X458Y2088D01*
X550Y2050D01*
X649Y2049D01*
X765Y2049D01*
X783Y2038D01*
X975Y2000D01*
X5025Y2000D01*
X6546Y2000D01*
X6558Y1988D01*
X6650Y1950D01*
X6749Y1949D01*
X7249Y1949D01*
X7462Y1807D01*
X7750Y1750D01*
X10884Y1750D01*
X10948Y1685D01*
X11040Y1647D01*
X11140Y1647D01*
X12045Y1647D01*
X12137Y1685D01*
X12207Y1755D01*
X12246Y1847D01*
X12246Y1947D01*
X12246Y2762D01*
X12293Y3000D01*
X12246Y3237D01*
X12246Y4125D01*
X13753Y4125D01*
X13753Y4052D01*
X13753Y3237D01*
X13706Y3000D01*
X13753Y2762D01*
X13753Y1848D01*
X13791Y1756D01*
X13862Y1685D01*
X13953Y1647D01*
X14053Y1647D01*
X14958Y1647D01*
X15050Y1685D01*
X15115Y1750D01*
X16250Y1750D01*
X16750Y1750D01*
X34250Y1750D01*
X34537Y1807D01*
X34780Y1969D01*
X34793Y1990D01*
X34890Y1950D01*
X35108Y1949D01*
X35230Y2000D01*
X36975Y2000D01*
X41025Y2000D01*
X41216Y2038D01*
X41234Y2049D01*
X41449Y2049D01*
X41541Y2087D01*
X41611Y2158D01*
X41649Y2250D01*
X41650Y2349D01*
X41650Y269D01*
X269Y269D01*
X269Y59730D01*
X41730Y59730D01*
X41730Y269D01*
X41730Y269D01*
G37*
X41730Y269D02*
X41650Y269D01*
X41650Y2349D01*
X41650Y2749D01*
X41612Y2841D01*
X41541Y2911D01*
X41449Y2949D01*
X41350Y2950D01*
X41234Y2950D01*
X41216Y2961D01*
X41025Y3000D01*
X36975Y3000D01*
X35230Y3000D01*
X35311Y3033D01*
X35402Y3125D01*
X36421Y3125D01*
X36458Y3088D01*
X36550Y3050D01*
X36649Y3049D01*
X37399Y3049D01*
X37491Y3087D01*
X37528Y3125D01*
X40471Y3125D01*
X40508Y3088D01*
X40600Y3050D01*
X40699Y3049D01*
X41449Y3049D01*
X41541Y3087D01*
X41611Y3158D01*
X41649Y3250D01*
X41650Y3349D01*
X41650Y3749D01*
X41612Y3841D01*
X41541Y3911D01*
X41449Y3949D01*
X41350Y3950D01*
X40600Y3950D01*
X40508Y3912D01*
X40471Y3875D01*
X37528Y3875D01*
X37491Y3911D01*
X37399Y3949D01*
X37300Y3950D01*
X36550Y3950D01*
X36458Y3912D01*
X36421Y3875D01*
X35402Y3875D01*
X35311Y3965D01*
X35230Y3999D01*
X35311Y4033D01*
X35465Y4188D01*
X35470Y4200D01*
X36370Y4200D01*
X36387Y4158D01*
X36458Y4088D01*
X36550Y4050D01*
X36649Y4049D01*
X37399Y4049D01*
X37491Y4087D01*
X37561Y4158D01*
X37579Y4200D01*
X40420Y4200D01*
X40437Y4158D01*
X40508Y4088D01*
X40600Y4050D01*
X40699Y4049D01*
X41449Y4049D01*
X41541Y4087D01*
X41611Y4158D01*
X41649Y4250D01*
X41650Y4349D01*
X41650Y4749D01*
X41612Y4841D01*
X41541Y4911D01*
X41449Y4949D01*
X41350Y4950D01*
X40600Y4950D01*
X40508Y4912D01*
X40438Y4841D01*
X40420Y4800D01*
X37579Y4800D01*
X37562Y4841D01*
X37491Y4911D01*
X37399Y4949D01*
X37300Y4950D01*
X36550Y4950D01*
X36458Y4912D01*
X36388Y4841D01*
X36370Y4800D01*
X35471Y4800D01*
X35466Y4811D01*
X35311Y4965D01*
X35230Y4999D01*
X35311Y5033D01*
X35465Y5188D01*
X35470Y5200D01*
X36370Y5200D01*
X36387Y5158D01*
X36458Y5088D01*
X36550Y5050D01*
X36649Y5049D01*
X37399Y5049D01*
X37491Y5087D01*
X37561Y5158D01*
X37579Y5200D01*
X40420Y5200D01*
X40437Y5158D01*
X40508Y5088D01*
X40600Y5050D01*
X40699Y5049D01*
X41449Y5049D01*
X41541Y5087D01*
X41611Y5158D01*
X41649Y5250D01*
X41650Y5349D01*
X41650Y5749D01*
X41612Y5841D01*
X41541Y5911D01*
X41449Y5949D01*
X41350Y5950D01*
X40600Y5950D01*
X40508Y5912D01*
X40438Y5841D01*
X40420Y5800D01*
X37579Y5800D01*
X37562Y5841D01*
X37491Y5911D01*
X37399Y5949D01*
X37300Y5950D01*
X36550Y5950D01*
X36458Y5912D01*
X36388Y5841D01*
X36370Y5800D01*
X35471Y5800D01*
X35466Y5811D01*
X35311Y5965D01*
X35230Y5999D01*
X35311Y6033D01*
X35465Y6188D01*
X35470Y6200D01*
X36370Y6200D01*
X36387Y6158D01*
X36458Y6088D01*
X36550Y6050D01*
X36649Y6049D01*
X37399Y6049D01*
X37491Y6087D01*
X37561Y6158D01*
X37579Y6200D01*
X40420Y6200D01*
X40437Y6158D01*
X40508Y6088D01*
X40600Y6050D01*
X40699Y6049D01*
X41449Y6049D01*
X41541Y6087D01*
X41611Y6158D01*
X41649Y6250D01*
X41650Y6349D01*
X41650Y6749D01*
X41612Y6841D01*
X41541Y6911D01*
X41449Y6949D01*
X41350Y6950D01*
X40600Y6950D01*
X40508Y6912D01*
X40438Y6841D01*
X40420Y6800D01*
X37579Y6800D01*
X37562Y6841D01*
X37491Y6911D01*
X37399Y6949D01*
X37300Y6950D01*
X36550Y6950D01*
X36458Y6912D01*
X36388Y6841D01*
X36370Y6800D01*
X35471Y6800D01*
X35466Y6811D01*
X35311Y6965D01*
X35230Y6999D01*
X35311Y7033D01*
X35465Y7188D01*
X35470Y7200D01*
X36370Y7200D01*
X36387Y7158D01*
X36458Y7088D01*
X36550Y7050D01*
X36649Y7049D01*
X37399Y7049D01*
X37491Y7087D01*
X37561Y7158D01*
X37579Y7200D01*
X40420Y7200D01*
X40437Y7158D01*
X40508Y7088D01*
X40600Y7050D01*
X40699Y7049D01*
X41449Y7049D01*
X41541Y7087D01*
X41611Y7158D01*
X41649Y7250D01*
X41650Y7349D01*
X41650Y7749D01*
X41612Y7841D01*
X41541Y7911D01*
X41449Y7949D01*
X41350Y7950D01*
X40600Y7950D01*
X40508Y7912D01*
X40438Y7841D01*
X40420Y7800D01*
X37579Y7800D01*
X37562Y7841D01*
X37491Y7911D01*
X37399Y7949D01*
X37300Y7950D01*
X36550Y7950D01*
X36458Y7912D01*
X36388Y7841D01*
X36370Y7800D01*
X35471Y7800D01*
X35466Y7811D01*
X35311Y7965D01*
X35230Y7999D01*
X35311Y8033D01*
X35465Y8188D01*
X35470Y8200D01*
X36370Y8200D01*
X36387Y8158D01*
X36458Y8088D01*
X36550Y8050D01*
X36649Y8049D01*
X37399Y8049D01*
X37491Y8087D01*
X37561Y8158D01*
X37579Y8200D01*
X40420Y8200D01*
X40437Y8158D01*
X40508Y8088D01*
X40600Y8050D01*
X40699Y8049D01*
X41449Y8049D01*
X41541Y8087D01*
X41611Y8158D01*
X41649Y8250D01*
X41650Y8349D01*
X41650Y8749D01*
X41650Y9250D01*
X41650Y9749D01*
X41650Y50250D01*
X41650Y50749D01*
X41650Y51349D01*
X41650Y51749D01*
X41612Y51841D01*
X41541Y51911D01*
X41449Y51949D01*
X41350Y51950D01*
X40600Y51950D01*
X40508Y51912D01*
X40438Y51841D01*
X40420Y51800D01*
X37579Y51800D01*
X37562Y51841D01*
X37491Y51911D01*
X37399Y51949D01*
X37300Y51950D01*
X36550Y51950D01*
X36458Y51912D01*
X36388Y51841D01*
X36370Y51800D01*
X35471Y51800D01*
X35466Y51811D01*
X35311Y51965D01*
X35230Y51999D01*
X35311Y52033D01*
X35465Y52188D01*
X35470Y52200D01*
X36370Y52200D01*
X36387Y52158D01*
X36458Y52088D01*
X36550Y52050D01*
X36649Y52049D01*
X37399Y52049D01*
X37491Y52087D01*
X37561Y52158D01*
X37579Y52200D01*
X40420Y52200D01*
X40437Y52158D01*
X40508Y52088D01*
X40600Y52050D01*
X40699Y52049D01*
X41449Y52049D01*
X41541Y52087D01*
X41611Y52158D01*
X41649Y52250D01*
X41650Y52349D01*
X41650Y52749D01*
X41612Y52841D01*
X41541Y52911D01*
X41449Y52949D01*
X41350Y52950D01*
X40600Y52950D01*
X40508Y52912D01*
X40438Y52841D01*
X40420Y52800D01*
X37579Y52800D01*
X37562Y52841D01*
X37491Y52911D01*
X37399Y52949D01*
X37300Y52950D01*
X36550Y52950D01*
X36458Y52912D01*
X36388Y52841D01*
X36370Y52800D01*
X35471Y52800D01*
X35466Y52811D01*
X35311Y52965D01*
X35230Y52999D01*
X35311Y53033D01*
X35465Y53188D01*
X35470Y53200D01*
X36370Y53200D01*
X36387Y53158D01*
X36458Y53088D01*
X36550Y53050D01*
X36649Y53049D01*
X37399Y53049D01*
X37491Y53087D01*
X37561Y53158D01*
X37579Y53200D01*
X40420Y53200D01*
X40437Y53158D01*
X40508Y53088D01*
X40600Y53050D01*
X40699Y53049D01*
X41449Y53049D01*
X41541Y53087D01*
X41611Y53158D01*
X41649Y53250D01*
X41650Y53349D01*
X41650Y53749D01*
X41612Y53841D01*
X41541Y53911D01*
X41449Y53949D01*
X41350Y53950D01*
X40600Y53950D01*
X40508Y53912D01*
X40438Y53841D01*
X40420Y53800D01*
X37579Y53800D01*
X37562Y53841D01*
X37491Y53911D01*
X37399Y53949D01*
X37300Y53950D01*
X36550Y53950D01*
X36458Y53912D01*
X36388Y53841D01*
X36370Y53800D01*
X35471Y53800D01*
X35466Y53811D01*
X35311Y53965D01*
X35230Y53999D01*
X35311Y54033D01*
X35465Y54188D01*
X35470Y54200D01*
X36370Y54200D01*
X36387Y54158D01*
X36458Y54088D01*
X36550Y54050D01*
X36649Y54049D01*
X37399Y54049D01*
X37491Y54087D01*
X37561Y54158D01*
X37579Y54200D01*
X40420Y54200D01*
X40437Y54158D01*
X40508Y54088D01*
X40600Y54050D01*
X40699Y54049D01*
X41449Y54049D01*
X41541Y54087D01*
X41611Y54158D01*
X41649Y54250D01*
X41650Y54349D01*
X41650Y54749D01*
X41612Y54841D01*
X41541Y54911D01*
X41449Y54949D01*
X41350Y54950D01*
X40600Y54950D01*
X40508Y54912D01*
X40438Y54841D01*
X40420Y54800D01*
X37579Y54800D01*
X37562Y54841D01*
X37491Y54911D01*
X37399Y54949D01*
X37300Y54950D01*
X36550Y54950D01*
X36458Y54912D01*
X36388Y54841D01*
X36370Y54800D01*
X35471Y54800D01*
X35466Y54811D01*
X35311Y54965D01*
X35230Y54999D01*
X35311Y55033D01*
X35465Y55188D01*
X35470Y55200D01*
X36370Y55200D01*
X36387Y55158D01*
X36458Y55088D01*
X36550Y55050D01*
X36649Y55049D01*
X37399Y55049D01*
X37491Y55087D01*
X37561Y55158D01*
X37579Y55200D01*
X40420Y55200D01*
X40437Y55158D01*
X40508Y55088D01*
X40600Y55050D01*
X40699Y55049D01*
X41449Y55049D01*
X41541Y55087D01*
X41611Y55158D01*
X41649Y55250D01*
X41650Y55349D01*
X41650Y55749D01*
X41612Y55841D01*
X41541Y55911D01*
X41449Y55949D01*
X41350Y55950D01*
X40600Y55950D01*
X40508Y55912D01*
X40438Y55841D01*
X40420Y55800D01*
X37579Y55800D01*
X37562Y55841D01*
X37491Y55911D01*
X37399Y55949D01*
X37300Y55950D01*
X36550Y55950D01*
X36458Y55912D01*
X36388Y55841D01*
X36370Y55800D01*
X35471Y55800D01*
X35466Y55811D01*
X35311Y55965D01*
X35230Y55999D01*
X35311Y56033D01*
X35402Y56125D01*
X36421Y56125D01*
X36458Y56088D01*
X36550Y56050D01*
X36649Y56049D01*
X37399Y56049D01*
X37491Y56087D01*
X37528Y56125D01*
X40471Y56125D01*
X40508Y56088D01*
X40600Y56050D01*
X40699Y56049D01*
X41449Y56049D01*
X41541Y56087D01*
X41611Y56158D01*
X41649Y56250D01*
X41650Y56349D01*
X41650Y56749D01*
X41612Y56841D01*
X41541Y56911D01*
X41449Y56949D01*
X41350Y56950D01*
X40600Y56950D01*
X40508Y56912D01*
X40471Y56875D01*
X37528Y56875D01*
X37491Y56911D01*
X37399Y56949D01*
X37300Y56950D01*
X36550Y56950D01*
X36458Y56912D01*
X36421Y56875D01*
X35402Y56875D01*
X35327Y56949D01*
X35349Y56949D01*
X35441Y56987D01*
X35453Y57000D01*
X36975Y57000D01*
X41025Y57000D01*
X41216Y57038D01*
X41234Y57049D01*
X41449Y57049D01*
X41541Y57087D01*
X41611Y57158D01*
X41649Y57250D01*
X41650Y57349D01*
X41650Y57749D01*
X41612Y57841D01*
X41541Y57911D01*
X41449Y57949D01*
X41350Y57950D01*
X41234Y57950D01*
X41216Y57961D01*
X41025Y58000D01*
X36975Y58000D01*
X35453Y58000D01*
X35441Y58011D01*
X35349Y58049D01*
X35250Y58050D01*
X34750Y58050D01*
X34537Y58192D01*
X34250Y58250D01*
X31217Y58250D01*
X31089Y58275D01*
X31051Y58314D01*
X30959Y58352D01*
X30859Y58352D01*
X29954Y58352D01*
X29862Y58314D01*
X29792Y58244D01*
X29753Y58152D01*
X29753Y58052D01*
X29753Y57237D01*
X29706Y57000D01*
X29753Y56762D01*
X29753Y55875D01*
X28246Y55875D01*
X28246Y55947D01*
X28246Y56762D01*
X28293Y57000D01*
X28246Y57237D01*
X28246Y58151D01*
X28208Y58243D01*
X28137Y58314D01*
X28046Y58352D01*
X27946Y58352D01*
X27041Y58352D01*
X26949Y58314D01*
X26884Y58250D01*
X25750Y58250D01*
X7750Y58250D01*
X7462Y58192D01*
X7219Y58030D01*
X7206Y58009D01*
X7109Y58049D01*
X6891Y58050D01*
X6769Y58000D01*
X5025Y58000D01*
X975Y58000D01*
X783Y57961D01*
X765Y57950D01*
X550Y57950D01*
X458Y57912D01*
X388Y57841D01*
X350Y57749D01*
X349Y57650D01*
X349Y57250D01*
X387Y57158D01*
X458Y57088D01*
X550Y57050D01*
X649Y57049D01*
X765Y57049D01*
X783Y57038D01*
X975Y57000D01*
X5025Y57000D01*
X6769Y57000D01*
X6688Y56966D01*
X6597Y56875D01*
X5578Y56875D01*
X5541Y56911D01*
X5449Y56949D01*
X5350Y56950D01*
X4600Y56950D01*
X4508Y56912D01*
X4471Y56875D01*
X1528Y56875D01*
X1491Y56911D01*
X1399Y56949D01*
X1300Y56950D01*
X550Y56950D01*
X458Y56912D01*
X388Y56841D01*
X350Y56749D01*
X349Y56650D01*
X349Y56250D01*
X387Y56158D01*
X458Y56088D01*
X550Y56050D01*
X649Y56049D01*
X1399Y56049D01*
X1491Y56087D01*
X1528Y56125D01*
X4471Y56125D01*
X4508Y56088D01*
X4600Y56050D01*
X4699Y56049D01*
X5449Y56049D01*
X5541Y56087D01*
X5578Y56125D01*
X6597Y56125D01*
X6688Y56034D01*
X6769Y56000D01*
X6688Y55966D01*
X6534Y55811D01*
X6529Y55800D01*
X5629Y55800D01*
X5612Y55841D01*
X5541Y55911D01*
X5449Y55949D01*
X5350Y55950D01*
X4600Y55950D01*
X4508Y55912D01*
X4438Y55841D01*
X4420Y55800D01*
X3871Y55800D01*
X3769Y55902D01*
X3594Y55974D01*
X3405Y55975D01*
X3231Y55902D01*
X3128Y55800D01*
X1579Y55800D01*
X1562Y55841D01*
X1491Y55911D01*
X1399Y55949D01*
X1300Y55950D01*
X550Y55950D01*
X458Y55912D01*
X388Y55841D01*
X350Y55749D01*
X349Y55650D01*
X349Y55250D01*
X387Y55158D01*
X458Y55088D01*
X550Y55050D01*
X649Y55049D01*
X1399Y55049D01*
X1491Y55087D01*
X1561Y55158D01*
X1579Y55200D01*
X3128Y55200D01*
X3230Y55097D01*
X3405Y55025D01*
X3594Y55024D01*
X3768Y55097D01*
X3871Y55200D01*
X4420Y55200D01*
X4437Y55158D01*
X4508Y55088D01*
X4600Y55050D01*
X4699Y55049D01*
X5449Y55049D01*
X5541Y55087D01*
X5611Y55158D01*
X5629Y55200D01*
X6528Y55200D01*
X6533Y55188D01*
X6688Y55034D01*
X6769Y55000D01*
X6688Y54966D01*
X6534Y54811D01*
X6529Y54800D01*
X5629Y54800D01*
X5612Y54841D01*
X5541Y54911D01*
X5449Y54949D01*
X5350Y54950D01*
X4600Y54950D01*
X4508Y54912D01*
X4438Y54841D01*
X4420Y54800D01*
X1579Y54800D01*
X1562Y54841D01*
X1491Y54911D01*
X1399Y54949D01*
X1300Y54950D01*
X550Y54950D01*
X458Y54912D01*
X388Y54841D01*
X350Y54749D01*
X349Y54650D01*
X349Y54250D01*
X387Y54158D01*
X458Y54088D01*
X550Y54050D01*
X649Y54049D01*
X1399Y54049D01*
X1491Y54087D01*
X1561Y54158D01*
X1579Y54200D01*
X4420Y54200D01*
X4437Y54158D01*
X4508Y54088D01*
X4600Y54050D01*
X4699Y54049D01*
X5449Y54049D01*
X5541Y54087D01*
X5611Y54158D01*
X5629Y54200D01*
X6528Y54200D01*
X6533Y54188D01*
X6688Y54034D01*
X6769Y54000D01*
X6688Y53966D01*
X6534Y53811D01*
X6529Y53800D01*
X5629Y53800D01*
X5612Y53841D01*
X5541Y53911D01*
X5449Y53949D01*
X5350Y53950D01*
X4600Y53950D01*
X4508Y53912D01*
X4438Y53841D01*
X4420Y53800D01*
X1579Y53800D01*
X1562Y53841D01*
X1491Y53911D01*
X1399Y53949D01*
X1300Y53950D01*
X550Y53950D01*
X458Y53912D01*
X388Y53841D01*
X350Y53749D01*
X349Y53650D01*
X349Y53250D01*
X387Y53158D01*
X458Y53088D01*
X550Y53050D01*
X649Y53049D01*
X1399Y53049D01*
X1491Y53087D01*
X1561Y53158D01*
X1579Y53200D01*
X4420Y53200D01*
X4437Y53158D01*
X4508Y53088D01*
X4600Y53050D01*
X4699Y53049D01*
X5449Y53049D01*
X5541Y53087D01*
X5611Y53158D01*
X5629Y53200D01*
X6528Y53200D01*
X6533Y53188D01*
X6688Y53034D01*
X6769Y53000D01*
X6688Y52966D01*
X6534Y52811D01*
X6529Y52800D01*
X5629Y52800D01*
X5612Y52841D01*
X5541Y52911D01*
X5449Y52949D01*
X5350Y52950D01*
X4600Y52950D01*
X4508Y52912D01*
X4438Y52841D01*
X4420Y52800D01*
X1579Y52800D01*
X1562Y52841D01*
X1491Y52911D01*
X1399Y52949D01*
X1300Y52950D01*
X550Y52950D01*
X458Y52912D01*
X388Y52841D01*
X350Y52749D01*
X349Y52650D01*
X349Y52250D01*
X387Y52158D01*
X458Y52088D01*
X550Y52050D01*
X649Y52049D01*
X1399Y52049D01*
X1491Y52087D01*
X1561Y52158D01*
X1579Y52200D01*
X4420Y52200D01*
X4437Y52158D01*
X4508Y52088D01*
X4600Y52050D01*
X4699Y52049D01*
X5449Y52049D01*
X5541Y52087D01*
X5611Y52158D01*
X5629Y52200D01*
X6528Y52200D01*
X6533Y52188D01*
X6688Y52034D01*
X6769Y52000D01*
X6688Y51966D01*
X6534Y51811D01*
X6529Y51800D01*
X5629Y51800D01*
X5612Y51841D01*
X5541Y51911D01*
X5449Y51949D01*
X5350Y51950D01*
X4600Y51950D01*
X4508Y51912D01*
X4438Y51841D01*
X4420Y51800D01*
X1579Y51800D01*
X1562Y51841D01*
X1491Y51911D01*
X1399Y51949D01*
X1300Y51950D01*
X550Y51950D01*
X458Y51912D01*
X388Y51841D01*
X350Y51749D01*
X349Y51650D01*
X349Y51250D01*
X387Y51158D01*
X458Y51088D01*
X550Y51050D01*
X649Y51049D01*
X1399Y51049D01*
X1491Y51087D01*
X1561Y51158D01*
X1579Y51200D01*
X4420Y51200D01*
X4437Y51158D01*
X4508Y51088D01*
X4600Y51050D01*
X4699Y51049D01*
X5449Y51049D01*
X5541Y51087D01*
X5611Y51158D01*
X5629Y51200D01*
X6528Y51200D01*
X6533Y51188D01*
X6672Y51049D01*
X6650Y51049D01*
X6558Y51011D01*
X6487Y50941D01*
X6449Y50849D01*
X6450Y50612D01*
X6512Y50550D01*
X6950Y50550D01*
X6950Y50557D01*
X7050Y50557D01*
X7050Y50550D01*
X7487Y50550D01*
X7550Y50612D01*
X7550Y50849D01*
X7512Y50941D01*
X7441Y51011D01*
X7349Y51049D01*
X7327Y51049D01*
X7465Y51188D01*
X7470Y51200D01*
X19878Y51200D01*
X19980Y51097D01*
X20155Y51025D01*
X20344Y51024D01*
X20518Y51097D01*
X20621Y51200D01*
X34528Y51200D01*
X34533Y51188D01*
X34688Y51034D01*
X34763Y51002D01*
X34712Y50981D01*
X34684Y50885D01*
X35000Y50570D01*
X35315Y50885D01*
X35287Y50981D01*
X35232Y51000D01*
X35311Y51033D01*
X35465Y51188D01*
X35470Y51200D01*
X36370Y51200D01*
X36387Y51158D01*
X36458Y51088D01*
X36550Y51050D01*
X36649Y51049D01*
X37399Y51049D01*
X37491Y51087D01*
X37561Y51158D01*
X37579Y51200D01*
X40420Y51200D01*
X40437Y51158D01*
X40508Y51088D01*
X40600Y51050D01*
X40699Y51049D01*
X41449Y51049D01*
X41541Y51087D01*
X41611Y51158D01*
X41649Y51250D01*
X41650Y51349D01*
X41650Y50749D01*
X41612Y50841D01*
X41541Y50911D01*
X41449Y50949D01*
X41350Y50950D01*
X41137Y50950D01*
X41075Y50887D01*
X41075Y50550D01*
X41587Y50550D01*
X41650Y50612D01*
X41650Y50749D01*
X41650Y50250D01*
X41650Y50387D01*
X41587Y50450D01*
X41075Y50450D01*
X41075Y50112D01*
X41137Y50050D01*
X41350Y50049D01*
X41449Y50050D01*
X41541Y50088D01*
X41612Y50158D01*
X41650Y50250D01*
X41650Y9749D01*
X41612Y9841D01*
X41541Y9911D01*
X41449Y9949D01*
X41350Y9950D01*
X41137Y9950D01*
X41075Y9887D01*
X41075Y9550D01*
X41587Y9550D01*
X41650Y9612D01*
X41650Y9749D01*
X41650Y9250D01*
X41650Y9387D01*
X41587Y9450D01*
X41075Y9450D01*
X41075Y9112D01*
X41137Y9050D01*
X41350Y9049D01*
X41449Y9050D01*
X41541Y9088D01*
X41612Y9158D01*
X41650Y9250D01*
X41650Y8749D01*
X41612Y8841D01*
X41541Y8911D01*
X41449Y8949D01*
X41350Y8950D01*
X40975Y8950D01*
X40975Y9112D01*
X40975Y9450D01*
X40975Y9550D01*
X40975Y9887D01*
X40975Y50112D01*
X40975Y50450D01*
X40975Y50550D01*
X40975Y50887D01*
X40912Y50950D01*
X40699Y50950D01*
X40600Y50949D01*
X40508Y50911D01*
X40437Y50841D01*
X40399Y50749D01*
X40400Y50612D01*
X40462Y50550D01*
X40975Y50550D01*
X40975Y50450D01*
X40462Y50450D01*
X40400Y50387D01*
X40399Y50250D01*
X40437Y50158D01*
X40508Y50088D01*
X40600Y50050D01*
X40699Y50049D01*
X40912Y50050D01*
X40975Y50112D01*
X40975Y9887D01*
X40912Y9950D01*
X40699Y9950D01*
X40690Y9950D01*
X40690Y15318D01*
X40690Y45318D01*
X40439Y45940D01*
X40420Y45970D01*
X40206Y46136D01*
X40136Y46065D01*
X40136Y46206D01*
X39970Y46420D01*
X39352Y46683D01*
X38681Y46690D01*
X38059Y46439D01*
X38029Y46420D01*
X37863Y46206D01*
X39000Y45070D01*
X40136Y46206D01*
X40136Y46065D01*
X39070Y45000D01*
X40206Y43863D01*
X40420Y44029D01*
X40683Y44647D01*
X40690Y45318D01*
X40690Y15318D01*
X40439Y15940D01*
X40420Y15970D01*
X40206Y16136D01*
X40136Y16065D01*
X40136Y16206D01*
X40136Y43793D01*
X39000Y44929D01*
X38929Y44858D01*
X38929Y45000D01*
X37793Y46136D01*
X37600Y45986D01*
X37600Y50250D01*
X37600Y50749D01*
X37562Y50841D01*
X37491Y50911D01*
X37399Y50949D01*
X37300Y50950D01*
X37087Y50950D01*
X37025Y50887D01*
X37025Y50550D01*
X37537Y50550D01*
X37600Y50612D01*
X37600Y50749D01*
X37600Y50250D01*
X37600Y50387D01*
X37537Y50450D01*
X37025Y50450D01*
X37025Y50112D01*
X37087Y50050D01*
X37300Y50049D01*
X37399Y50050D01*
X37491Y50088D01*
X37562Y50158D01*
X37600Y50250D01*
X37600Y45986D01*
X37579Y45970D01*
X37316Y45352D01*
X37309Y44681D01*
X37560Y44059D01*
X37579Y44029D01*
X37793Y43863D01*
X38929Y45000D01*
X38929Y44858D01*
X37863Y43793D01*
X38029Y43579D01*
X38647Y43316D01*
X39318Y43309D01*
X39940Y43560D01*
X39970Y43579D01*
X40136Y43793D01*
X40136Y16206D01*
X39970Y16420D01*
X39352Y16683D01*
X38681Y16690D01*
X38059Y16439D01*
X38029Y16420D01*
X37863Y16206D01*
X39000Y15070D01*
X40136Y16206D01*
X40136Y16065D01*
X39070Y15000D01*
X40206Y13863D01*
X40420Y14029D01*
X40683Y14647D01*
X40690Y15318D01*
X40690Y9950D01*
X40600Y9949D01*
X40508Y9911D01*
X40437Y9841D01*
X40399Y9749D01*
X40400Y9612D01*
X40462Y9550D01*
X40975Y9550D01*
X40975Y9450D01*
X40462Y9450D01*
X40400Y9387D01*
X40399Y9250D01*
X40437Y9158D01*
X40508Y9088D01*
X40600Y9050D01*
X40699Y9049D01*
X40912Y9050D01*
X40975Y9112D01*
X40975Y8950D01*
X40600Y8950D01*
X40508Y8912D01*
X40438Y8841D01*
X40420Y8800D01*
X40136Y8800D01*
X40136Y13793D01*
X39000Y14929D01*
X38929Y14858D01*
X38929Y15000D01*
X37793Y16136D01*
X37579Y15970D01*
X37316Y15352D01*
X37309Y14681D01*
X37560Y14059D01*
X37579Y14029D01*
X37793Y13863D01*
X38929Y15000D01*
X38929Y14858D01*
X37863Y13793D01*
X38029Y13579D01*
X38647Y13316D01*
X39318Y13309D01*
X39940Y13560D01*
X39970Y13579D01*
X40136Y13793D01*
X40136Y8800D01*
X37757Y8800D01*
X37757Y11718D01*
X37757Y12348D01*
X37719Y12440D01*
X37649Y12510D01*
X37557Y12548D01*
X37457Y12548D01*
X37063Y12548D01*
X36979Y12673D01*
X36925Y12710D01*
X36925Y50112D01*
X36925Y50450D01*
X36925Y50550D01*
X36925Y50887D01*
X36862Y50950D01*
X36649Y50950D01*
X36550Y50949D01*
X36458Y50911D01*
X36387Y50841D01*
X36349Y50749D01*
X36350Y50612D01*
X36412Y50550D01*
X36925Y50550D01*
X36925Y50450D01*
X36412Y50450D01*
X36350Y50387D01*
X36349Y50250D01*
X36387Y50158D01*
X36458Y50088D01*
X36550Y50050D01*
X36649Y50049D01*
X36862Y50050D01*
X36925Y50112D01*
X36925Y12710D01*
X36761Y12819D01*
X36503Y12871D01*
X36245Y12819D01*
X36130Y12742D01*
X36130Y14100D01*
X36487Y14456D01*
X36568Y14578D01*
X36597Y14722D01*
X36597Y17285D01*
X36619Y17294D01*
X36689Y17365D01*
X36728Y17456D01*
X36728Y17556D01*
X36728Y18186D01*
X36690Y18278D01*
X36619Y18348D01*
X36527Y18386D01*
X36475Y18386D01*
X36475Y33094D01*
X36402Y33268D01*
X36269Y33402D01*
X36094Y33474D01*
X35905Y33475D01*
X35731Y33402D01*
X35628Y33300D01*
X35554Y33300D01*
X35554Y50418D01*
X35543Y50636D01*
X35481Y50787D01*
X35385Y50815D01*
X35070Y50500D01*
X35385Y50184D01*
X35481Y50212D01*
X35554Y50418D01*
X35554Y33300D01*
X35315Y33300D01*
X35315Y50114D01*
X35000Y50429D01*
X34929Y50358D01*
X34929Y50500D01*
X34614Y50815D01*
X34518Y50787D01*
X34445Y50581D01*
X34456Y50363D01*
X34518Y50212D01*
X34614Y50184D01*
X34929Y50500D01*
X34929Y50358D01*
X34684Y50114D01*
X34712Y50018D01*
X34918Y49945D01*
X35136Y49956D01*
X35287Y50018D01*
X35315Y50114D01*
X35315Y33300D01*
X35000Y33300D01*
X35000Y36500D01*
X34961Y36691D01*
X34853Y36853D01*
X34691Y36961D01*
X34500Y37000D01*
X34308Y36961D01*
X34264Y36932D01*
X33454Y36932D01*
X33427Y36959D01*
X33335Y36997D01*
X33236Y36997D01*
X32841Y36997D01*
X32758Y37122D01*
X32539Y37268D01*
X32281Y37319D01*
X32023Y37268D01*
X31908Y37191D01*
X31908Y38878D01*
X32269Y39239D01*
X32350Y39360D01*
X32379Y39504D01*
X32379Y41711D01*
X32401Y41720D01*
X32472Y41791D01*
X32510Y41882D01*
X32510Y41982D01*
X32510Y42612D01*
X32472Y42704D01*
X32402Y42774D01*
X32310Y42812D01*
X32210Y42812D01*
X31816Y42812D01*
X31732Y42938D01*
X31514Y43084D01*
X31256Y43135D01*
X30998Y43084D01*
X30883Y43007D01*
X30883Y44602D01*
X31244Y44963D01*
X31325Y45085D01*
X31353Y45228D01*
X31353Y47527D01*
X31376Y47536D01*
X31446Y47606D01*
X31484Y47698D01*
X31484Y47798D01*
X31484Y48427D01*
X31446Y48519D01*
X31376Y48590D01*
X31284Y48628D01*
X31185Y48628D01*
X30790Y48628D01*
X30707Y48753D01*
X30488Y48899D01*
X30230Y48951D01*
X29973Y48899D01*
X29754Y48753D01*
X29670Y48628D01*
X29177Y48628D01*
X29085Y48590D01*
X29015Y48520D01*
X28976Y48428D01*
X28976Y48375D01*
X26046Y48375D01*
X26019Y48402D01*
X25844Y48474D01*
X25655Y48475D01*
X25481Y48402D01*
X25347Y48269D01*
X25275Y48094D01*
X25274Y47905D01*
X25347Y47731D01*
X25480Y47597D01*
X25655Y47525D01*
X25844Y47524D01*
X26018Y47597D01*
X26046Y47625D01*
X29007Y47625D01*
X29014Y47607D01*
X29085Y47536D01*
X29177Y47498D01*
X29276Y47498D01*
X29670Y47498D01*
X29754Y47373D01*
X29973Y47227D01*
X30230Y47175D01*
X30488Y47227D01*
X30603Y47304D01*
X30603Y45384D01*
X30243Y45023D01*
X30161Y44901D01*
X30133Y44758D01*
X30133Y42784D01*
X30110Y42774D01*
X30040Y42704D01*
X30002Y42612D01*
X30002Y42513D01*
X30002Y41883D01*
X30040Y41791D01*
X30110Y41721D01*
X30202Y41682D01*
X30301Y41682D01*
X30696Y41682D01*
X30779Y41557D01*
X30998Y41411D01*
X31256Y41360D01*
X31514Y41411D01*
X31629Y41488D01*
X31629Y39659D01*
X31268Y39298D01*
X31187Y39177D01*
X31158Y39033D01*
X31158Y36968D01*
X31136Y36959D01*
X31066Y36889D01*
X31027Y36797D01*
X31027Y36697D01*
X31027Y36067D01*
X31065Y35975D01*
X31136Y35905D01*
X31227Y35867D01*
X31327Y35867D01*
X31721Y35867D01*
X31805Y35741D01*
X32023Y35595D01*
X32281Y35544D01*
X32539Y35595D01*
X32758Y35741D01*
X32841Y35867D01*
X33335Y35867D01*
X33427Y35905D01*
X33454Y35932D01*
X34432Y35932D01*
X34432Y35932D01*
X34432Y35932D01*
X34623Y35970D01*
X34785Y36078D01*
X34853Y36146D01*
X34961Y36308D01*
X35000Y36500D01*
X35000Y33300D01*
X13225Y33300D01*
X13225Y49094D01*
X13152Y49268D01*
X13019Y49402D01*
X12844Y49474D01*
X12655Y49475D01*
X12481Y49402D01*
X12453Y49375D01*
X7550Y49375D01*
X7550Y50150D01*
X7550Y50387D01*
X7487Y50450D01*
X7050Y50450D01*
X7050Y50012D01*
X7112Y49950D01*
X7250Y49949D01*
X7349Y49950D01*
X7441Y49988D01*
X7512Y50058D01*
X7550Y50150D01*
X7550Y49375D01*
X6950Y49375D01*
X6950Y50012D01*
X6950Y50450D01*
X6512Y50450D01*
X6450Y50387D01*
X6449Y50150D01*
X6487Y50058D01*
X6558Y49988D01*
X6650Y49950D01*
X6749Y49949D01*
X6887Y49950D01*
X6950Y50012D01*
X6950Y49375D01*
X5650Y49375D01*
X5650Y50250D01*
X5650Y50749D01*
X5612Y50841D01*
X5541Y50911D01*
X5449Y50949D01*
X5350Y50950D01*
X5137Y50950D01*
X5075Y50887D01*
X5075Y50550D01*
X5587Y50550D01*
X5650Y50612D01*
X5650Y50749D01*
X5650Y50250D01*
X5650Y50387D01*
X5587Y50450D01*
X5075Y50450D01*
X5075Y50112D01*
X5137Y50050D01*
X5350Y50049D01*
X5449Y50050D01*
X5541Y50088D01*
X5612Y50158D01*
X5650Y50250D01*
X5650Y49375D01*
X5250Y49375D01*
X5106Y49346D01*
X4984Y49265D01*
X4975Y49255D01*
X4975Y50112D01*
X4975Y50450D01*
X4975Y50550D01*
X4975Y50887D01*
X4912Y50950D01*
X4699Y50950D01*
X4600Y50949D01*
X4508Y50911D01*
X4437Y50841D01*
X4399Y50749D01*
X4400Y50612D01*
X4462Y50550D01*
X4975Y50550D01*
X4975Y50450D01*
X4462Y50450D01*
X4400Y50387D01*
X4399Y50250D01*
X4437Y50158D01*
X4508Y50088D01*
X4600Y50050D01*
X4699Y50049D01*
X4912Y50050D01*
X4975Y50112D01*
X4975Y49255D01*
X4495Y48775D01*
X4414Y48654D01*
X4385Y48510D01*
X4385Y48493D01*
X4363Y48484D01*
X4292Y48414D01*
X4254Y48322D01*
X4254Y48222D01*
X4254Y47592D01*
X4292Y47500D01*
X4362Y47430D01*
X4454Y47392D01*
X4554Y47392D01*
X4948Y47392D01*
X5032Y47266D01*
X5250Y47120D01*
X5508Y47069D01*
X5766Y47120D01*
X5881Y47197D01*
X5881Y45161D01*
X5520Y44801D01*
X5439Y44679D01*
X5410Y44535D01*
X5410Y42677D01*
X5388Y42668D01*
X5318Y42598D01*
X5280Y42506D01*
X5280Y42407D01*
X5280Y41777D01*
X5318Y41685D01*
X5388Y41614D01*
X5480Y41576D01*
X5579Y41576D01*
X5973Y41576D01*
X6057Y41451D01*
X6276Y41305D01*
X6534Y41254D01*
X6791Y41305D01*
X6907Y41382D01*
X6907Y39437D01*
X6546Y39076D01*
X6464Y38954D01*
X6436Y38811D01*
X6436Y36862D01*
X6414Y36853D01*
X6343Y36782D01*
X6305Y36691D01*
X6305Y36591D01*
X6305Y35961D01*
X6343Y35869D01*
X6413Y35799D01*
X6505Y35761D01*
X6605Y35761D01*
X6999Y35761D01*
X7083Y35635D01*
X7301Y35489D01*
X7559Y35438D01*
X7817Y35489D01*
X8035Y35635D01*
X8119Y35761D01*
X8327Y35761D01*
X8383Y35750D01*
X10250Y35750D01*
X10441Y35788D01*
X10603Y35896D01*
X10711Y36058D01*
X10750Y36250D01*
X10711Y36441D01*
X10603Y36603D01*
X10441Y36711D01*
X10250Y36750D01*
X8788Y36750D01*
X8775Y36782D01*
X8705Y36852D01*
X8613Y36891D01*
X8513Y36891D01*
X8119Y36891D01*
X8035Y37016D01*
X7817Y37162D01*
X7559Y37213D01*
X7301Y37162D01*
X7186Y37085D01*
X7186Y38656D01*
X7547Y39016D01*
X7628Y39138D01*
X7657Y39282D01*
X7657Y41605D01*
X7679Y41614D01*
X7749Y41684D01*
X7787Y41776D01*
X7787Y41876D01*
X7787Y42506D01*
X7750Y42598D01*
X7679Y42668D01*
X7587Y42706D01*
X7488Y42706D01*
X7094Y42706D01*
X7010Y42831D01*
X6791Y42978D01*
X6534Y43029D01*
X6276Y42978D01*
X6160Y42901D01*
X6160Y44380D01*
X6521Y44741D01*
X6603Y44863D01*
X6631Y45006D01*
X6631Y47421D01*
X6653Y47430D01*
X6724Y47500D01*
X6762Y47592D01*
X6762Y47691D01*
X6762Y48321D01*
X6724Y48413D01*
X6654Y48484D01*
X6562Y48522D01*
X6462Y48522D01*
X6068Y48522D01*
X6000Y48625D01*
X12453Y48625D01*
X12480Y48597D01*
X12655Y48525D01*
X12844Y48524D01*
X13018Y48597D01*
X13152Y48730D01*
X13224Y48905D01*
X13225Y49094D01*
X13225Y33300D01*
X6371Y33300D01*
X6269Y33402D01*
X6094Y33474D01*
X5905Y33475D01*
X5731Y33402D01*
X5597Y33269D01*
X5525Y33094D01*
X5524Y32905D01*
X5597Y32731D01*
X5730Y32597D01*
X5905Y32525D01*
X6094Y32524D01*
X6268Y32597D01*
X6371Y32700D01*
X35628Y32700D01*
X35730Y32597D01*
X35905Y32525D01*
X36094Y32524D01*
X36268Y32597D01*
X36402Y32730D01*
X36474Y32905D01*
X36475Y33094D01*
X36475Y18386D01*
X36428Y18386D01*
X36034Y18386D01*
X35950Y18512D01*
X35731Y18658D01*
X35474Y18709D01*
X35216Y18658D01*
X35101Y18581D01*
X35101Y19820D01*
X35457Y20177D01*
X35539Y20299D01*
X35567Y20442D01*
X35567Y20442D01*
X35567Y23123D01*
X35590Y23133D01*
X35660Y23203D01*
X35698Y23295D01*
X35698Y23394D01*
X35698Y24024D01*
X35660Y24116D01*
X35590Y24186D01*
X35498Y24224D01*
X35399Y24225D01*
X35004Y24225D01*
X34921Y24350D01*
X34702Y24496D01*
X34444Y24547D01*
X34186Y24496D01*
X33968Y24350D01*
X33884Y24225D01*
X33391Y24225D01*
X33299Y24187D01*
X33228Y24116D01*
X33209Y24070D01*
X32015Y25265D01*
X31893Y25346D01*
X31750Y25375D01*
X23250Y25375D01*
X23106Y25346D01*
X22984Y25265D01*
X22625Y24905D01*
X22625Y27203D01*
X22652Y27230D01*
X22724Y27405D01*
X22725Y27594D01*
X22652Y27768D01*
X22519Y27902D01*
X22344Y27974D01*
X22155Y27975D01*
X21981Y27902D01*
X21847Y27769D01*
X21775Y27594D01*
X21774Y27405D01*
X21847Y27231D01*
X21875Y27203D01*
X21875Y26905D01*
X21015Y27765D01*
X20893Y27846D01*
X20750Y27875D01*
X15655Y27875D01*
X14721Y28809D01*
X14721Y29245D01*
X14836Y29168D01*
X15094Y29116D01*
X15351Y29168D01*
X15570Y29314D01*
X15654Y29439D01*
X16147Y29439D01*
X16239Y29477D01*
X16309Y29547D01*
X16343Y29629D01*
X19750Y29629D01*
X19784Y29548D01*
X19854Y29477D01*
X19946Y29439D01*
X20045Y29439D01*
X20439Y29439D01*
X20523Y29314D01*
X20742Y29168D01*
X21000Y29116D01*
X21257Y29168D01*
X21476Y29314D01*
X21560Y29439D01*
X22053Y29439D01*
X22145Y29477D01*
X22215Y29547D01*
X22249Y29629D01*
X25656Y29629D01*
X25690Y29548D01*
X25760Y29477D01*
X25852Y29439D01*
X25951Y29439D01*
X26345Y29439D01*
X26429Y29314D01*
X26648Y29168D01*
X26906Y29116D01*
X27163Y29168D01*
X27382Y29314D01*
X27466Y29439D01*
X27959Y29439D01*
X28051Y29477D01*
X28078Y29504D01*
X29727Y29504D01*
X29750Y29500D01*
X29941Y29538D01*
X30103Y29646D01*
X30211Y29808D01*
X30250Y30000D01*
X30211Y30191D01*
X30103Y30353D01*
X30099Y30357D01*
X29936Y30466D01*
X29745Y30504D01*
X29745Y30504D01*
X28078Y30504D01*
X28051Y30531D01*
X27959Y30569D01*
X27860Y30569D01*
X27466Y30569D01*
X27382Y30694D01*
X27163Y30840D01*
X26906Y30892D01*
X26648Y30840D01*
X26429Y30694D01*
X26345Y30569D01*
X25852Y30569D01*
X25760Y30531D01*
X25690Y30461D01*
X25656Y30379D01*
X22249Y30379D01*
X22216Y30460D01*
X22145Y30531D01*
X22053Y30569D01*
X21954Y30569D01*
X21560Y30569D01*
X21476Y30694D01*
X21257Y30840D01*
X21000Y30892D01*
X20742Y30840D01*
X20523Y30694D01*
X20439Y30569D01*
X19946Y30569D01*
X19854Y30531D01*
X19784Y30461D01*
X19750Y30379D01*
X16343Y30379D01*
X16310Y30460D01*
X16239Y30531D01*
X16147Y30569D01*
X16048Y30569D01*
X15654Y30569D01*
X15570Y30694D01*
X15351Y30840D01*
X15094Y30892D01*
X14836Y30840D01*
X14617Y30694D01*
X14534Y30569D01*
X14040Y30569D01*
X13948Y30531D01*
X13878Y30461D01*
X13840Y30369D01*
X13840Y30269D01*
X13840Y29639D01*
X13878Y29548D01*
X13948Y29477D01*
X13971Y29468D01*
X13971Y28653D01*
X13999Y28510D01*
X14080Y28388D01*
X15094Y27375D01*
X10381Y27375D01*
X10381Y29754D01*
X10381Y30245D01*
X10380Y30344D01*
X10342Y30436D01*
X10272Y30507D01*
X10180Y30545D01*
X9987Y30545D01*
X9925Y30482D01*
X9925Y30050D01*
X10318Y30050D01*
X10381Y30112D01*
X10381Y30245D01*
X10381Y29754D01*
X10381Y29887D01*
X10318Y29950D01*
X9925Y29950D01*
X9925Y29517D01*
X9987Y29455D01*
X10180Y29454D01*
X10272Y29492D01*
X10342Y29563D01*
X10380Y29655D01*
X10381Y29754D01*
X10381Y27375D01*
X9825Y27375D01*
X9825Y29517D01*
X9825Y29950D01*
X9817Y29950D01*
X9817Y30050D01*
X9825Y30050D01*
X9825Y30482D01*
X9762Y30545D01*
X9569Y30545D01*
X9499Y30516D01*
X9430Y30544D01*
X9331Y30545D01*
X8819Y30545D01*
X8727Y30507D01*
X8720Y30500D01*
X8127Y30500D01*
X7936Y30461D01*
X7773Y30353D01*
X7665Y30191D01*
X7627Y30000D01*
X7665Y29808D01*
X7773Y29646D01*
X7936Y29538D01*
X8127Y29500D01*
X8720Y29500D01*
X8727Y29493D01*
X8819Y29455D01*
X8918Y29454D01*
X9430Y29454D01*
X9500Y29483D01*
X9569Y29454D01*
X9762Y29455D01*
X9825Y29517D01*
X9825Y27375D01*
X6250Y27375D01*
X5296Y27375D01*
X5269Y27402D01*
X5094Y27474D01*
X4905Y27475D01*
X4731Y27402D01*
X4690Y27362D01*
X4690Y45318D01*
X4439Y45940D01*
X4420Y45970D01*
X4206Y46136D01*
X4136Y46065D01*
X4136Y46206D01*
X3970Y46420D01*
X3352Y46683D01*
X2681Y46690D01*
X2059Y46439D01*
X2029Y46420D01*
X1863Y46206D01*
X3000Y45070D01*
X4136Y46206D01*
X4136Y46065D01*
X3070Y45000D01*
X4206Y43863D01*
X4420Y44029D01*
X4683Y44647D01*
X4690Y45318D01*
X4690Y27362D01*
X4597Y27269D01*
X4525Y27094D01*
X4524Y26905D01*
X4597Y26731D01*
X4730Y26597D01*
X4905Y26525D01*
X5094Y26524D01*
X5268Y26597D01*
X5296Y26625D01*
X6250Y26625D01*
X11287Y26625D01*
X11275Y26594D01*
X11274Y26405D01*
X11287Y26375D01*
X7796Y26375D01*
X7769Y26402D01*
X7594Y26474D01*
X7405Y26475D01*
X7231Y26402D01*
X7097Y26269D01*
X7025Y26094D01*
X7024Y25905D01*
X7097Y25731D01*
X7230Y25597D01*
X7405Y25525D01*
X7594Y25524D01*
X7768Y25597D01*
X7796Y25625D01*
X11953Y25625D01*
X11980Y25597D01*
X12155Y25525D01*
X12344Y25524D01*
X12518Y25597D01*
X12546Y25625D01*
X13344Y25625D01*
X16438Y22530D01*
X16560Y22449D01*
X16704Y22421D01*
X17802Y22421D01*
X17803Y22316D01*
X17865Y22254D01*
X18200Y22254D01*
X18200Y22261D01*
X18300Y22261D01*
X18300Y22254D01*
X18634Y22254D01*
X18697Y22316D01*
X18697Y22421D01*
X19046Y22421D01*
X19189Y22449D01*
X19311Y22530D01*
X19511Y22731D01*
X19600Y22695D01*
X19699Y22694D01*
X19899Y22694D01*
X19991Y22732D01*
X19999Y22741D01*
X20008Y22733D01*
X20100Y22695D01*
X20199Y22694D01*
X20399Y22694D01*
X20491Y22732D01*
X20499Y22741D01*
X20508Y22733D01*
X20600Y22695D01*
X20699Y22694D01*
X20899Y22694D01*
X20991Y22732D01*
X20999Y22741D01*
X21008Y22733D01*
X21100Y22695D01*
X21199Y22694D01*
X21399Y22694D01*
X21491Y22732D01*
X21499Y22741D01*
X21508Y22733D01*
X21600Y22695D01*
X21699Y22694D01*
X21899Y22694D01*
X21991Y22732D01*
X21999Y22741D01*
X22008Y22733D01*
X22100Y22695D01*
X22199Y22694D01*
X22399Y22694D01*
X22491Y22732D01*
X22499Y22741D01*
X22508Y22733D01*
X22600Y22695D01*
X22699Y22694D01*
X22899Y22694D01*
X22991Y22732D01*
X23061Y22803D01*
X23099Y22895D01*
X23100Y22994D01*
X23100Y23289D01*
X23125Y23415D01*
X23125Y24344D01*
X23405Y24625D01*
X31594Y24625D01*
X32824Y23394D01*
X32824Y23394D01*
X32946Y23313D01*
X33089Y23285D01*
X33195Y23285D01*
X33228Y23203D01*
X33298Y23133D01*
X33390Y23095D01*
X33490Y23095D01*
X33884Y23095D01*
X33968Y22969D01*
X34186Y22823D01*
X34444Y22772D01*
X34702Y22823D01*
X34817Y22900D01*
X34817Y20598D01*
X34460Y20241D01*
X34379Y20119D01*
X34351Y19976D01*
X34351Y18358D01*
X34328Y18348D01*
X34258Y18278D01*
X34220Y18186D01*
X34220Y18087D01*
X34220Y17457D01*
X34258Y17365D01*
X34328Y17295D01*
X34420Y17256D01*
X34519Y17256D01*
X34914Y17256D01*
X34997Y17131D01*
X35216Y16985D01*
X35474Y16934D01*
X35731Y16985D01*
X35847Y17062D01*
X35847Y14877D01*
X35490Y14520D01*
X35409Y14399D01*
X35380Y14255D01*
X35380Y12519D01*
X35358Y12510D01*
X35287Y12440D01*
X35249Y12348D01*
X35249Y12249D01*
X35249Y11619D01*
X35287Y11527D01*
X35357Y11456D01*
X35449Y11418D01*
X35549Y11418D01*
X35943Y11418D01*
X36027Y11293D01*
X36245Y11147D01*
X36503Y11096D01*
X36672Y11129D01*
X36292Y10750D01*
X36000Y10750D01*
X35808Y10711D01*
X35646Y10603D01*
X35538Y10441D01*
X35500Y10250D01*
X35538Y10058D01*
X35646Y9896D01*
X35808Y9788D01*
X36000Y9750D01*
X36350Y9750D01*
X36349Y9749D01*
X36350Y9612D01*
X36412Y9550D01*
X36925Y9550D01*
X36925Y9887D01*
X36884Y9927D01*
X37605Y10648D01*
X37713Y10810D01*
X37751Y11001D01*
X37751Y11604D01*
X37757Y11618D01*
X37757Y11718D01*
X37757Y8800D01*
X37600Y8800D01*
X37600Y9250D01*
X37600Y9749D01*
X37562Y9841D01*
X37491Y9911D01*
X37399Y9949D01*
X37300Y9950D01*
X37087Y9950D01*
X37025Y9887D01*
X37025Y9550D01*
X37537Y9550D01*
X37600Y9612D01*
X37600Y9749D01*
X37600Y9250D01*
X37600Y9387D01*
X37537Y9450D01*
X37025Y9450D01*
X37025Y9112D01*
X37087Y9050D01*
X37300Y9049D01*
X37399Y9050D01*
X37491Y9088D01*
X37562Y9158D01*
X37600Y9250D01*
X37600Y8800D01*
X37579Y8800D01*
X37562Y8841D01*
X37491Y8911D01*
X37399Y8949D01*
X37300Y8950D01*
X36925Y8950D01*
X36925Y9112D01*
X36925Y9450D01*
X36412Y9450D01*
X36350Y9387D01*
X36349Y9250D01*
X36387Y9158D01*
X36458Y9088D01*
X36550Y9050D01*
X36649Y9049D01*
X36862Y9050D01*
X36925Y9112D01*
X36925Y8950D01*
X36550Y8950D01*
X36458Y8912D01*
X36388Y8841D01*
X36370Y8800D01*
X35471Y8800D01*
X35466Y8811D01*
X35327Y8950D01*
X35349Y8950D01*
X35441Y8988D01*
X35512Y9058D01*
X35550Y9150D01*
X35550Y9849D01*
X35512Y9941D01*
X35441Y10011D01*
X35349Y10049D01*
X35250Y10050D01*
X35112Y10050D01*
X35050Y9987D01*
X35050Y9550D01*
X35487Y9550D01*
X35550Y9612D01*
X35550Y9849D01*
X35550Y9150D01*
X35550Y9387D01*
X35487Y9450D01*
X35050Y9450D01*
X35050Y9442D01*
X34950Y9442D01*
X34950Y9450D01*
X34950Y9550D01*
X34950Y9987D01*
X34887Y10050D01*
X34749Y10050D01*
X34650Y10049D01*
X34558Y10011D01*
X34487Y9941D01*
X34449Y9849D01*
X34450Y9612D01*
X34512Y9550D01*
X34950Y9550D01*
X34950Y9450D01*
X34512Y9450D01*
X34450Y9387D01*
X34449Y9150D01*
X34487Y9058D01*
X34558Y8988D01*
X34650Y8950D01*
X34672Y8950D01*
X34534Y8811D01*
X34529Y8800D01*
X23225Y8800D01*
X23225Y16094D01*
X23152Y16268D01*
X23125Y16296D01*
X23125Y21585D01*
X23100Y21710D01*
X23100Y22104D01*
X23062Y22196D01*
X22991Y22266D01*
X22899Y22304D01*
X22800Y22305D01*
X22600Y22305D01*
X22508Y22267D01*
X22500Y22258D01*
X22491Y22266D01*
X22399Y22304D01*
X22300Y22305D01*
X22100Y22305D01*
X22008Y22267D01*
X22000Y22258D01*
X21991Y22266D01*
X21899Y22304D01*
X21800Y22305D01*
X21600Y22305D01*
X21508Y22267D01*
X21500Y22258D01*
X21491Y22266D01*
X21399Y22304D01*
X21300Y22305D01*
X21100Y22305D01*
X21008Y22267D01*
X21000Y22258D01*
X20991Y22266D01*
X20899Y22304D01*
X20800Y22305D01*
X20600Y22305D01*
X20508Y22267D01*
X20500Y22258D01*
X20491Y22266D01*
X20399Y22304D01*
X20300Y22305D01*
X20100Y22305D01*
X20008Y22267D01*
X20000Y22258D01*
X19991Y22266D01*
X19899Y22304D01*
X19800Y22305D01*
X19600Y22305D01*
X19508Y22267D01*
X19500Y22258D01*
X19491Y22266D01*
X19399Y22304D01*
X19362Y22304D01*
X19300Y22242D01*
X19300Y21635D01*
X19307Y21635D01*
X19307Y21535D01*
X19300Y21535D01*
X19300Y20927D01*
X19362Y20865D01*
X19375Y20865D01*
X19375Y20750D01*
X19403Y20606D01*
X19450Y20536D01*
X19450Y18874D01*
X19200Y18624D01*
X19200Y20927D01*
X19200Y21535D01*
X19200Y21635D01*
X19200Y22242D01*
X19137Y22304D01*
X19100Y22304D01*
X19008Y22266D01*
X18937Y22196D01*
X18899Y22104D01*
X18900Y21697D01*
X18962Y21635D01*
X19200Y21635D01*
X19200Y21535D01*
X18962Y21535D01*
X18900Y21472D01*
X18899Y21065D01*
X18937Y20973D01*
X19008Y20903D01*
X19100Y20865D01*
X19137Y20865D01*
X19200Y20927D01*
X19200Y18624D01*
X18875Y18300D01*
X18697Y18300D01*
X18697Y21977D01*
X18697Y22091D01*
X18634Y22154D01*
X18300Y22154D01*
X18300Y21839D01*
X18362Y21777D01*
X18397Y21776D01*
X18496Y21777D01*
X18588Y21815D01*
X18659Y21885D01*
X18697Y21977D01*
X18697Y18300D01*
X18200Y18300D01*
X18200Y21839D01*
X18200Y22154D01*
X17865Y22154D01*
X17803Y22091D01*
X17802Y21977D01*
X17840Y21885D01*
X17911Y21815D01*
X18003Y21777D01*
X18102Y21776D01*
X18137Y21777D01*
X18200Y21839D01*
X18200Y18300D01*
X16874Y18300D01*
X15050Y20124D01*
X15050Y22250D01*
X15027Y22364D01*
X14962Y22462D01*
X12462Y24962D01*
X12364Y25027D01*
X12250Y25050D01*
X6371Y25050D01*
X6269Y25152D01*
X6094Y25224D01*
X5905Y25225D01*
X5731Y25152D01*
X5597Y25019D01*
X5525Y24844D01*
X5524Y24655D01*
X5597Y24481D01*
X5730Y24347D01*
X5905Y24275D01*
X6094Y24274D01*
X6268Y24347D01*
X6371Y24450D01*
X12125Y24450D01*
X12646Y23928D01*
X10971Y23928D01*
X10938Y24010D01*
X10868Y24080D01*
X10776Y24118D01*
X10676Y24118D01*
X10282Y24118D01*
X10198Y24244D01*
X9980Y24390D01*
X9722Y24441D01*
X9464Y24390D01*
X9245Y24244D01*
X9162Y24118D01*
X8668Y24118D01*
X8576Y24081D01*
X8506Y24010D01*
X8468Y23918D01*
X8468Y23819D01*
X8468Y23189D01*
X8506Y23097D01*
X8576Y23027D01*
X8599Y23017D01*
X8599Y20775D01*
X8627Y20632D01*
X8709Y20510D01*
X9628Y19590D01*
X9628Y18252D01*
X9606Y18242D01*
X9536Y18172D01*
X9497Y18080D01*
X9497Y17981D01*
X9497Y17351D01*
X9535Y17259D01*
X9606Y17188D01*
X9697Y17150D01*
X9797Y17150D01*
X10191Y17150D01*
X10275Y17025D01*
X10493Y16879D01*
X10751Y16828D01*
X11009Y16879D01*
X11124Y16956D01*
X11124Y15000D01*
X11153Y14856D01*
X11234Y14735D01*
X12154Y13815D01*
X12154Y12636D01*
X12039Y12713D01*
X11781Y12765D01*
X11523Y12713D01*
X11304Y12567D01*
X11221Y12442D01*
X10727Y12442D01*
X10635Y12404D01*
X10608Y12377D01*
X9877Y12377D01*
X9877Y12377D01*
X9839Y12369D01*
X9810Y12364D01*
X9746Y12406D01*
X9555Y12444D01*
X9555Y12444D01*
X4852Y12444D01*
X4825Y12471D01*
X4733Y12509D01*
X4690Y12509D01*
X4690Y15318D01*
X4439Y15940D01*
X4420Y15970D01*
X4206Y16136D01*
X4136Y16065D01*
X4136Y16206D01*
X4136Y43793D01*
X3000Y44929D01*
X2929Y44858D01*
X2929Y45000D01*
X1793Y46136D01*
X1600Y45986D01*
X1600Y50250D01*
X1600Y50749D01*
X1562Y50841D01*
X1491Y50911D01*
X1399Y50949D01*
X1300Y50950D01*
X1087Y50950D01*
X1025Y50887D01*
X1025Y50550D01*
X1537Y50550D01*
X1600Y50612D01*
X1600Y50749D01*
X1600Y50250D01*
X1600Y50387D01*
X1537Y50450D01*
X1025Y50450D01*
X1025Y50112D01*
X1087Y50050D01*
X1300Y50049D01*
X1399Y50050D01*
X1491Y50088D01*
X1562Y50158D01*
X1600Y50250D01*
X1600Y45986D01*
X1579Y45970D01*
X1316Y45352D01*
X1309Y44681D01*
X1560Y44059D01*
X1579Y44029D01*
X1793Y43863D01*
X2929Y45000D01*
X2929Y44858D01*
X1863Y43793D01*
X2029Y43579D01*
X2647Y43316D01*
X3318Y43309D01*
X3940Y43560D01*
X3970Y43579D01*
X4136Y43793D01*
X4136Y16206D01*
X3970Y16420D01*
X3352Y16683D01*
X2681Y16690D01*
X2059Y16439D01*
X2029Y16420D01*
X1863Y16206D01*
X3000Y15070D01*
X4136Y16206D01*
X4136Y16065D01*
X3070Y15000D01*
X4206Y13863D01*
X4420Y14029D01*
X4683Y14647D01*
X4690Y15318D01*
X4690Y12509D01*
X4634Y12509D01*
X4239Y12509D01*
X4156Y12635D01*
X4096Y12674D01*
X4152Y12730D01*
X4224Y12905D01*
X4225Y13094D01*
X4152Y13268D01*
X4019Y13402D01*
X3844Y13474D01*
X3729Y13475D01*
X3940Y13560D01*
X3970Y13579D01*
X4136Y13793D01*
X3000Y14929D01*
X2929Y14858D01*
X2929Y15000D01*
X1793Y16136D01*
X1579Y15970D01*
X1316Y15352D01*
X1309Y14681D01*
X1560Y14059D01*
X1579Y14029D01*
X1793Y13863D01*
X2929Y15000D01*
X2929Y14858D01*
X1863Y13793D01*
X2029Y13579D01*
X2647Y13316D01*
X3055Y13312D01*
X2984Y13265D01*
X2666Y12946D01*
X2585Y12825D01*
X2556Y12681D01*
X2556Y12481D01*
X2534Y12471D01*
X2464Y12401D01*
X2425Y12309D01*
X2425Y12210D01*
X2425Y11580D01*
X2463Y11488D01*
X2534Y11418D01*
X2625Y11379D01*
X2725Y11379D01*
X3119Y11379D01*
X3203Y11254D01*
X3421Y11108D01*
X3679Y11057D01*
X3937Y11108D01*
X4156Y11254D01*
X4239Y11379D01*
X4483Y11379D01*
X4495Y11377D01*
X4506Y11379D01*
X4733Y11379D01*
X4825Y11417D01*
X4852Y11444D01*
X9348Y11444D01*
X9396Y11396D01*
X9396Y11396D01*
X9558Y11288D01*
X9750Y11249D01*
X9750Y11250D01*
X9941Y11288D01*
X10075Y11377D01*
X10608Y11377D01*
X10635Y11350D01*
X10727Y11312D01*
X10826Y11312D01*
X11221Y11312D01*
X11304Y11187D01*
X11523Y11041D01*
X11781Y10989D01*
X12039Y11041D01*
X12257Y11187D01*
X12341Y11312D01*
X12834Y11312D01*
X12926Y11350D01*
X12996Y11420D01*
X13035Y11512D01*
X13035Y11612D01*
X13035Y12242D01*
X12997Y12333D01*
X12926Y12404D01*
X12904Y12413D01*
X12904Y13970D01*
X12875Y14114D01*
X12794Y14235D01*
X11874Y15155D01*
X11874Y17179D01*
X11897Y17188D01*
X11967Y17259D01*
X12005Y17350D01*
X12005Y17450D01*
X12005Y18080D01*
X11967Y18172D01*
X11897Y18242D01*
X11805Y18280D01*
X11706Y18280D01*
X11311Y18280D01*
X11228Y18406D01*
X11009Y18552D01*
X10751Y18603D01*
X10493Y18552D01*
X10378Y18475D01*
X10378Y19746D01*
X10350Y19889D01*
X10268Y20011D01*
X9349Y20931D01*
X9349Y22794D01*
X9464Y22717D01*
X9722Y22666D01*
X9980Y22717D01*
X10198Y22863D01*
X10282Y22988D01*
X10775Y22988D01*
X10867Y23026D01*
X10938Y23097D01*
X10972Y23178D01*
X12540Y23178D01*
X13875Y21844D01*
X13875Y18000D01*
X13903Y17856D01*
X13984Y17734D01*
X15484Y16234D01*
X15484Y16234D01*
X15606Y16153D01*
X15750Y16125D01*
X21250Y16125D01*
X21393Y16153D01*
X21515Y16234D01*
X22375Y17094D01*
X22375Y16296D01*
X22347Y16269D01*
X22275Y16094D01*
X22274Y15905D01*
X22347Y15731D01*
X22480Y15597D01*
X22655Y15525D01*
X22844Y15524D01*
X23018Y15597D01*
X23152Y15730D01*
X23224Y15905D01*
X23225Y16094D01*
X23225Y8800D01*
X7554Y8800D01*
X7554Y9418D01*
X7543Y9636D01*
X7481Y9787D01*
X7385Y9815D01*
X7315Y9744D01*
X7315Y9885D01*
X7287Y9981D01*
X7081Y10054D01*
X6863Y10043D01*
X6712Y9981D01*
X6684Y9885D01*
X7000Y9570D01*
X7315Y9885D01*
X7315Y9744D01*
X7070Y9500D01*
X7385Y9184D01*
X7481Y9212D01*
X7554Y9418D01*
X7554Y8800D01*
X7471Y8800D01*
X7466Y8811D01*
X7311Y8965D01*
X7236Y8997D01*
X7287Y9018D01*
X7315Y9114D01*
X7000Y9429D01*
X6929Y9358D01*
X6929Y9500D01*
X6614Y9815D01*
X6518Y9787D01*
X6445Y9581D01*
X6456Y9363D01*
X6518Y9212D01*
X6614Y9184D01*
X6929Y9500D01*
X6929Y9358D01*
X6684Y9114D01*
X6712Y9018D01*
X6767Y8999D01*
X6688Y8966D01*
X6534Y8811D01*
X6529Y8800D01*
X5650Y8800D01*
X5650Y9250D01*
X5650Y9749D01*
X5612Y9841D01*
X5541Y9911D01*
X5449Y9949D01*
X5350Y9950D01*
X5137Y9950D01*
X5075Y9887D01*
X5075Y9550D01*
X5587Y9550D01*
X5650Y9612D01*
X5650Y9749D01*
X5650Y9250D01*
X5650Y9387D01*
X5587Y9450D01*
X5075Y9450D01*
X5075Y9112D01*
X5137Y9050D01*
X5350Y9049D01*
X5449Y9050D01*
X5541Y9088D01*
X5612Y9158D01*
X5650Y9250D01*
X5650Y8800D01*
X5629Y8800D01*
X5612Y8841D01*
X5541Y8911D01*
X5449Y8949D01*
X5350Y8950D01*
X4975Y8950D01*
X4975Y9112D01*
X4975Y9450D01*
X4975Y9550D01*
X4975Y9887D01*
X4912Y9950D01*
X4699Y9950D01*
X4600Y9949D01*
X4508Y9911D01*
X4437Y9841D01*
X4399Y9749D01*
X4400Y9612D01*
X4462Y9550D01*
X4975Y9550D01*
X4975Y9450D01*
X4462Y9450D01*
X4400Y9387D01*
X4399Y9250D01*
X4437Y9158D01*
X4508Y9088D01*
X4600Y9050D01*
X4699Y9049D01*
X4912Y9050D01*
X4975Y9112D01*
X4975Y8950D01*
X4600Y8950D01*
X4508Y8912D01*
X4438Y8841D01*
X4420Y8800D01*
X1600Y8800D01*
X1600Y9250D01*
X1600Y9749D01*
X1562Y9841D01*
X1491Y9911D01*
X1399Y9949D01*
X1300Y9950D01*
X1087Y9950D01*
X1025Y9887D01*
X1025Y9550D01*
X1537Y9550D01*
X1600Y9612D01*
X1600Y9749D01*
X1600Y9250D01*
X1600Y9387D01*
X1537Y9450D01*
X1025Y9450D01*
X1025Y9112D01*
X1087Y9050D01*
X1300Y9049D01*
X1399Y9050D01*
X1491Y9088D01*
X1562Y9158D01*
X1600Y9250D01*
X1600Y8800D01*
X1579Y8800D01*
X1562Y8841D01*
X1491Y8911D01*
X1399Y8949D01*
X1300Y8950D01*
X925Y8950D01*
X925Y9112D01*
X925Y9450D01*
X925Y9550D01*
X925Y9887D01*
X925Y50112D01*
X925Y50450D01*
X925Y50550D01*
X925Y50887D01*
X862Y50950D01*
X649Y50950D01*
X550Y50949D01*
X458Y50911D01*
X387Y50841D01*
X349Y50749D01*
X350Y50612D01*
X412Y50550D01*
X925Y50550D01*
X925Y50450D01*
X412Y50450D01*
X350Y50387D01*
X349Y50250D01*
X387Y50158D01*
X458Y50088D01*
X550Y50050D01*
X649Y50049D01*
X862Y50050D01*
X925Y50112D01*
X925Y9887D01*
X862Y9950D01*
X649Y9950D01*
X550Y9949D01*
X458Y9911D01*
X387Y9841D01*
X349Y9749D01*
X350Y9612D01*
X412Y9550D01*
X925Y9550D01*
X925Y9450D01*
X412Y9450D01*
X350Y9387D01*
X349Y9250D01*
X387Y9158D01*
X458Y9088D01*
X550Y9050D01*
X649Y9049D01*
X862Y9050D01*
X925Y9112D01*
X925Y8950D01*
X550Y8950D01*
X458Y8912D01*
X388Y8841D01*
X350Y8749D01*
X349Y8650D01*
X349Y8250D01*
X387Y8158D01*
X458Y8088D01*
X550Y8050D01*
X649Y8049D01*
X1399Y8049D01*
X1491Y8087D01*
X1561Y8158D01*
X1579Y8200D01*
X4420Y8200D01*
X4437Y8158D01*
X4508Y8088D01*
X4600Y8050D01*
X4699Y8049D01*
X5449Y8049D01*
X5541Y8087D01*
X5611Y8158D01*
X5629Y8200D01*
X6528Y8200D01*
X6533Y8188D01*
X6688Y8034D01*
X6769Y8000D01*
X6688Y7966D01*
X6534Y7811D01*
X6529Y7800D01*
X5629Y7800D01*
X5612Y7841D01*
X5541Y7911D01*
X5449Y7949D01*
X5350Y7950D01*
X4600Y7950D01*
X4508Y7912D01*
X4438Y7841D01*
X4420Y7800D01*
X1579Y7800D01*
X1562Y7841D01*
X1491Y7911D01*
X1399Y7949D01*
X1300Y7950D01*
X550Y7950D01*
X458Y7912D01*
X388Y7841D01*
X350Y7749D01*
X349Y7650D01*
X349Y7250D01*
X387Y7158D01*
X458Y7088D01*
X550Y7050D01*
X649Y7049D01*
X1399Y7049D01*
X1491Y7087D01*
X1561Y7158D01*
X1579Y7200D01*
X4420Y7200D01*
X4437Y7158D01*
X4508Y7088D01*
X4600Y7050D01*
X4699Y7049D01*
X5449Y7049D01*
X5541Y7087D01*
X5611Y7158D01*
X5629Y7200D01*
X6528Y7200D01*
X6533Y7188D01*
X6688Y7034D01*
X6769Y7000D01*
X6688Y6966D01*
X6534Y6811D01*
X6529Y6800D01*
X5629Y6800D01*
X5612Y6841D01*
X5541Y6911D01*
X5449Y6949D01*
X5350Y6950D01*
X4600Y6950D01*
X4508Y6912D01*
X4438Y6841D01*
X4420Y6800D01*
X1579Y6800D01*
X1562Y6841D01*
X1491Y6911D01*
X1399Y6949D01*
X1300Y6950D01*
X550Y6950D01*
X458Y6912D01*
X388Y6841D01*
X350Y6749D01*
X349Y6650D01*
X349Y6250D01*
X387Y6158D01*
X458Y6088D01*
X550Y6050D01*
X649Y6049D01*
X1399Y6049D01*
X1491Y6087D01*
X1561Y6158D01*
X1579Y6200D01*
X4420Y6200D01*
X4437Y6158D01*
X4508Y6088D01*
X4600Y6050D01*
X4699Y6049D01*
X5449Y6049D01*
X5541Y6087D01*
X5611Y6158D01*
X5629Y6200D01*
X6528Y6200D01*
X6533Y6188D01*
X6688Y6034D01*
X6769Y6000D01*
X6688Y5966D01*
X6534Y5811D01*
X6529Y5800D01*
X5629Y5800D01*
X5612Y5841D01*
X5541Y5911D01*
X5449Y5949D01*
X5350Y5950D01*
X4600Y5950D01*
X4508Y5912D01*
X4438Y5841D01*
X4420Y5800D01*
X1579Y5800D01*
X1562Y5841D01*
X1491Y5911D01*
X1399Y5949D01*
X1300Y5950D01*
X550Y5950D01*
X458Y5912D01*
X388Y5841D01*
X350Y5749D01*
X349Y5650D01*
X349Y5250D01*
X387Y5158D01*
X458Y5088D01*
X550Y5050D01*
X649Y5049D01*
X1399Y5049D01*
X1491Y5087D01*
X1561Y5158D01*
X1579Y5200D01*
X4420Y5200D01*
X4437Y5158D01*
X4508Y5088D01*
X4600Y5050D01*
X4699Y5049D01*
X5449Y5049D01*
X5541Y5087D01*
X5611Y5158D01*
X5629Y5200D01*
X6528Y5200D01*
X6533Y5188D01*
X6688Y5034D01*
X6769Y5000D01*
X6688Y4966D01*
X6534Y4811D01*
X6529Y4800D01*
X5629Y4800D01*
X5612Y4841D01*
X5541Y4911D01*
X5449Y4949D01*
X5350Y4950D01*
X4600Y4950D01*
X4508Y4912D01*
X4438Y4841D01*
X4420Y4800D01*
X1579Y4800D01*
X1562Y4841D01*
X1491Y4911D01*
X1399Y4949D01*
X1300Y4950D01*
X550Y4950D01*
X458Y4912D01*
X388Y4841D01*
X350Y4749D01*
X349Y4650D01*
X349Y4250D01*
X387Y4158D01*
X458Y4088D01*
X550Y4050D01*
X649Y4049D01*
X1399Y4049D01*
X1491Y4087D01*
X1561Y4158D01*
X1579Y4200D01*
X4420Y4200D01*
X4437Y4158D01*
X4508Y4088D01*
X4600Y4050D01*
X4699Y4049D01*
X5449Y4049D01*
X5541Y4087D01*
X5611Y4158D01*
X5629Y4200D01*
X6528Y4200D01*
X6533Y4188D01*
X6688Y4034D01*
X6769Y4000D01*
X6688Y3966D01*
X6597Y3875D01*
X5578Y3875D01*
X5541Y3911D01*
X5449Y3949D01*
X5350Y3950D01*
X4600Y3950D01*
X4508Y3912D01*
X4471Y3875D01*
X1528Y3875D01*
X1491Y3911D01*
X1399Y3949D01*
X1300Y3950D01*
X550Y3950D01*
X458Y3912D01*
X388Y3841D01*
X350Y3749D01*
X349Y3650D01*
X349Y3250D01*
X387Y3158D01*
X458Y3088D01*
X550Y3050D01*
X649Y3049D01*
X1399Y3049D01*
X1491Y3087D01*
X1528Y3125D01*
X4471Y3125D01*
X4508Y3088D01*
X4600Y3050D01*
X4699Y3049D01*
X5449Y3049D01*
X5541Y3087D01*
X5578Y3125D01*
X6597Y3125D01*
X6672Y3050D01*
X6650Y3050D01*
X6558Y3012D01*
X6546Y3000D01*
X5025Y3000D01*
X975Y3000D01*
X783Y2961D01*
X765Y2950D01*
X550Y2950D01*
X458Y2912D01*
X388Y2841D01*
X350Y2749D01*
X349Y2650D01*
X349Y2250D01*
X387Y2158D01*
X458Y2088D01*
X550Y2050D01*
X649Y2049D01*
X765Y2049D01*
X783Y2038D01*
X975Y2000D01*
X5025Y2000D01*
X6546Y2000D01*
X6558Y1988D01*
X6650Y1950D01*
X6749Y1949D01*
X7249Y1949D01*
X7462Y1807D01*
X7750Y1750D01*
X10884Y1750D01*
X10948Y1685D01*
X11040Y1647D01*
X11140Y1647D01*
X12045Y1647D01*
X12137Y1685D01*
X12207Y1755D01*
X12246Y1847D01*
X12246Y1947D01*
X12246Y2762D01*
X12293Y3000D01*
X12246Y3237D01*
X12246Y4125D01*
X13753Y4125D01*
X13753Y4052D01*
X13753Y3237D01*
X13706Y3000D01*
X13753Y2762D01*
X13753Y1848D01*
X13791Y1756D01*
X13862Y1685D01*
X13953Y1647D01*
X14053Y1647D01*
X14958Y1647D01*
X15050Y1685D01*
X15115Y1750D01*
X16250Y1750D01*
X16750Y1750D01*
X34250Y1750D01*
X34537Y1807D01*
X34780Y1969D01*
X34793Y1990D01*
X34890Y1950D01*
X35108Y1949D01*
X35230Y2000D01*
X36975Y2000D01*
X41025Y2000D01*
X41216Y2038D01*
X41234Y2049D01*
X41449Y2049D01*
X41541Y2087D01*
X41611Y2158D01*
X41649Y2250D01*
X41650Y2349D01*
X41650Y269D01*
X269Y269D01*
X269Y59730D01*
X41730Y59730D01*
X41730Y269D01*
M02*
