G04 (created by PCBNEW (2013-07-07 BZR 4022)-stable) date 10/25/2014 9:32:04 PM*
%MOIN*%
G04 Gerber Fmt 3.4, Leading zero omitted, Abs format*
%FSLAX34Y34*%
G01*
G70*
G90*
G04 APERTURE LIST*
%ADD10C,0.01*%
%ADD11C,0.00393701*%
G04 APERTURE END LIST*
G54D10*
X48285Y21595D02*
X48476Y21595D01*
X48571Y21642D01*
X48619Y21690D01*
X48714Y21833D01*
X48761Y22023D01*
X48761Y22404D01*
X48714Y22500D01*
X48666Y22547D01*
X48571Y22595D01*
X48380Y22595D01*
X48285Y22547D01*
X48238Y22500D01*
X48190Y22404D01*
X48190Y22166D01*
X48238Y22071D01*
X48285Y22023D01*
X48380Y21976D01*
X48571Y21976D01*
X48666Y22023D01*
X48714Y22071D01*
X48761Y22166D01*
X49190Y21690D02*
X49238Y21642D01*
X49190Y21595D01*
X49142Y21642D01*
X49190Y21690D01*
X49190Y21595D01*
X51142Y21642D02*
X51285Y21595D01*
X51523Y21595D01*
X51619Y21642D01*
X51666Y21690D01*
X51714Y21785D01*
X51714Y21880D01*
X51666Y21976D01*
X51619Y22023D01*
X51523Y22071D01*
X51333Y22119D01*
X51238Y22166D01*
X51190Y22214D01*
X51142Y22309D01*
X51142Y22404D01*
X51190Y22500D01*
X51238Y22547D01*
X51333Y22595D01*
X51571Y22595D01*
X51714Y22547D01*
X52571Y21642D02*
X52476Y21595D01*
X52285Y21595D01*
X52190Y21642D01*
X52142Y21690D01*
X52095Y21785D01*
X52095Y22071D01*
X52142Y22166D01*
X52190Y22214D01*
X52285Y22261D01*
X52476Y22261D01*
X52571Y22214D01*
X53000Y21595D02*
X53000Y22261D01*
X53000Y22071D02*
X53047Y22166D01*
X53095Y22214D01*
X53190Y22261D01*
X53285Y22261D01*
X54000Y21642D02*
X53904Y21595D01*
X53714Y21595D01*
X53619Y21642D01*
X53571Y21738D01*
X53571Y22119D01*
X53619Y22214D01*
X53714Y22261D01*
X53904Y22261D01*
X54000Y22214D01*
X54047Y22119D01*
X54047Y22023D01*
X53571Y21928D01*
X54857Y21642D02*
X54761Y21595D01*
X54571Y21595D01*
X54476Y21642D01*
X54428Y21738D01*
X54428Y22119D01*
X54476Y22214D01*
X54571Y22261D01*
X54761Y22261D01*
X54857Y22214D01*
X54904Y22119D01*
X54904Y22023D01*
X54428Y21928D01*
X55333Y22261D02*
X55333Y21595D01*
X55333Y22166D02*
X55380Y22214D01*
X55476Y22261D01*
X55619Y22261D01*
X55714Y22214D01*
X55761Y22119D01*
X55761Y21595D01*
X57000Y22261D02*
X57000Y21261D01*
X57000Y22214D02*
X57095Y22261D01*
X57285Y22261D01*
X57380Y22214D01*
X57428Y22166D01*
X57476Y22071D01*
X57476Y21785D01*
X57428Y21690D01*
X57380Y21642D01*
X57285Y21595D01*
X57095Y21595D01*
X57000Y21642D01*
X57904Y21595D02*
X57904Y22261D01*
X57904Y22071D02*
X57952Y22166D01*
X58000Y22214D01*
X58095Y22261D01*
X58190Y22261D01*
X58523Y21595D02*
X58523Y22261D01*
X58523Y22595D02*
X58476Y22547D01*
X58523Y22500D01*
X58571Y22547D01*
X58523Y22595D01*
X58523Y22500D01*
X59000Y22261D02*
X59000Y21595D01*
X59000Y22166D02*
X59047Y22214D01*
X59142Y22261D01*
X59285Y22261D01*
X59380Y22214D01*
X59428Y22119D01*
X59428Y21595D01*
X59761Y22261D02*
X60142Y22261D01*
X59904Y22595D02*
X59904Y21738D01*
X59952Y21642D01*
X60047Y21595D01*
X60142Y21595D01*
X61095Y22261D02*
X61476Y22261D01*
X61238Y22595D02*
X61238Y21738D01*
X61285Y21642D01*
X61380Y21595D01*
X61476Y21595D01*
X61809Y21595D02*
X61809Y22595D01*
X62238Y21595D02*
X62238Y22119D01*
X62190Y22214D01*
X62095Y22261D01*
X61952Y22261D01*
X61857Y22214D01*
X61809Y22166D01*
X63095Y21642D02*
X63000Y21595D01*
X62809Y21595D01*
X62714Y21642D01*
X62666Y21738D01*
X62666Y22119D01*
X62714Y22214D01*
X62809Y22261D01*
X63000Y22261D01*
X63095Y22214D01*
X63142Y22119D01*
X63142Y22023D01*
X62666Y21928D01*
X64476Y21595D02*
X64380Y21642D01*
X64333Y21738D01*
X64333Y22595D01*
X65238Y21642D02*
X65142Y21595D01*
X64952Y21595D01*
X64857Y21642D01*
X64809Y21738D01*
X64809Y22119D01*
X64857Y22214D01*
X64952Y22261D01*
X65142Y22261D01*
X65238Y22214D01*
X65285Y22119D01*
X65285Y22023D01*
X64809Y21928D01*
X66142Y22261D02*
X66142Y21452D01*
X66095Y21357D01*
X66047Y21309D01*
X65952Y21261D01*
X65809Y21261D01*
X65714Y21309D01*
X66142Y21642D02*
X66047Y21595D01*
X65857Y21595D01*
X65761Y21642D01*
X65714Y21690D01*
X65666Y21785D01*
X65666Y22071D01*
X65714Y22166D01*
X65761Y22214D01*
X65857Y22261D01*
X66047Y22261D01*
X66142Y22214D01*
X67000Y21642D02*
X66904Y21595D01*
X66714Y21595D01*
X66619Y21642D01*
X66571Y21738D01*
X66571Y22119D01*
X66619Y22214D01*
X66714Y22261D01*
X66904Y22261D01*
X67000Y22214D01*
X67047Y22119D01*
X67047Y22023D01*
X66571Y21928D01*
X67476Y22261D02*
X67476Y21595D01*
X67476Y22166D02*
X67523Y22214D01*
X67619Y22261D01*
X67761Y22261D01*
X67857Y22214D01*
X67904Y22119D01*
X67904Y21595D01*
X68809Y21595D02*
X68809Y22595D01*
X68809Y21642D02*
X68714Y21595D01*
X68523Y21595D01*
X68428Y21642D01*
X68380Y21690D01*
X68333Y21785D01*
X68333Y22071D01*
X68380Y22166D01*
X68428Y22214D01*
X68523Y22261D01*
X68714Y22261D01*
X68809Y22214D01*
X70190Y21595D02*
X70095Y21642D01*
X70047Y21690D01*
X70000Y21785D01*
X70000Y22071D01*
X70047Y22166D01*
X70095Y22214D01*
X70190Y22261D01*
X70333Y22261D01*
X70428Y22214D01*
X70476Y22166D01*
X70523Y22071D01*
X70523Y21785D01*
X70476Y21690D01*
X70428Y21642D01*
X70333Y21595D01*
X70190Y21595D01*
X70952Y22261D02*
X70952Y21595D01*
X70952Y22166D02*
X71000Y22214D01*
X71095Y22261D01*
X71238Y22261D01*
X71333Y22214D01*
X71380Y22119D01*
X71380Y21595D01*
X72476Y22261D02*
X72857Y22261D01*
X72619Y22595D02*
X72619Y21738D01*
X72666Y21642D01*
X72761Y21595D01*
X72857Y21595D01*
X73333Y21595D02*
X73238Y21642D01*
X73190Y21690D01*
X73142Y21785D01*
X73142Y22071D01*
X73190Y22166D01*
X73238Y22214D01*
X73333Y22261D01*
X73476Y22261D01*
X73571Y22214D01*
X73619Y22166D01*
X73666Y22071D01*
X73666Y21785D01*
X73619Y21690D01*
X73571Y21642D01*
X73476Y21595D01*
X73333Y21595D01*
X74095Y22261D02*
X74095Y21261D01*
X74095Y22214D02*
X74190Y22261D01*
X74380Y22261D01*
X74476Y22214D01*
X74523Y22166D01*
X74571Y22071D01*
X74571Y21785D01*
X74523Y21690D01*
X74476Y21642D01*
X74380Y21595D01*
X74190Y21595D01*
X74095Y21642D01*
X75714Y21642D02*
X75809Y21595D01*
X76000Y21595D01*
X76095Y21642D01*
X76142Y21738D01*
X76142Y21785D01*
X76095Y21880D01*
X76000Y21928D01*
X75857Y21928D01*
X75761Y21976D01*
X75714Y22071D01*
X75714Y22119D01*
X75761Y22214D01*
X75857Y22261D01*
X76000Y22261D01*
X76095Y22214D01*
X76571Y21595D02*
X76571Y22261D01*
X76571Y22595D02*
X76523Y22547D01*
X76571Y22500D01*
X76619Y22547D01*
X76571Y22595D01*
X76571Y22500D01*
X77476Y21595D02*
X77476Y22595D01*
X77476Y21642D02*
X77380Y21595D01*
X77190Y21595D01*
X77095Y21642D01*
X77047Y21690D01*
X77000Y21785D01*
X77000Y22071D01*
X77047Y22166D01*
X77095Y22214D01*
X77190Y22261D01*
X77380Y22261D01*
X77476Y22214D01*
X78333Y21642D02*
X78238Y21595D01*
X78047Y21595D01*
X77952Y21642D01*
X77904Y21738D01*
X77904Y22119D01*
X77952Y22214D01*
X78047Y22261D01*
X78238Y22261D01*
X78333Y22214D01*
X78380Y22119D01*
X78380Y22023D01*
X77904Y21928D01*
X79999Y22261D02*
X79999Y21595D01*
X79571Y22261D02*
X79571Y21738D01*
X79619Y21642D01*
X79714Y21595D01*
X79857Y21595D01*
X79952Y21642D01*
X79999Y21690D01*
X80428Y21642D02*
X80523Y21595D01*
X80714Y21595D01*
X80809Y21642D01*
X80857Y21738D01*
X80857Y21785D01*
X80809Y21880D01*
X80714Y21928D01*
X80571Y21928D01*
X80476Y21976D01*
X80428Y22071D01*
X80428Y22119D01*
X80476Y22214D01*
X80571Y22261D01*
X80714Y22261D01*
X80809Y22214D01*
X81285Y21595D02*
X81285Y22261D01*
X81285Y22595D02*
X81238Y22547D01*
X81285Y22500D01*
X81333Y22547D01*
X81285Y22595D01*
X81285Y22500D01*
X81761Y22261D02*
X81761Y21595D01*
X81761Y22166D02*
X81809Y22214D01*
X81904Y22261D01*
X82047Y22261D01*
X82142Y22214D01*
X82190Y22119D01*
X82190Y21595D01*
X83095Y22261D02*
X83095Y21452D01*
X83047Y21357D01*
X82999Y21309D01*
X82904Y21261D01*
X82761Y21261D01*
X82666Y21309D01*
X83095Y21642D02*
X82999Y21595D01*
X82809Y21595D01*
X82714Y21642D01*
X82666Y21690D01*
X82619Y21785D01*
X82619Y22071D01*
X82666Y22166D01*
X82714Y22214D01*
X82809Y22261D01*
X82999Y22261D01*
X83095Y22214D01*
X84333Y22261D02*
X84333Y21595D01*
X84333Y22166D02*
X84380Y22214D01*
X84476Y22261D01*
X84619Y22261D01*
X84714Y22214D01*
X84761Y22119D01*
X84761Y21595D01*
X85380Y21595D02*
X85285Y21642D01*
X85238Y21690D01*
X85190Y21785D01*
X85190Y22071D01*
X85238Y22166D01*
X85285Y22214D01*
X85380Y22261D01*
X85523Y22261D01*
X85619Y22214D01*
X85666Y22166D01*
X85714Y22071D01*
X85714Y21785D01*
X85666Y21690D01*
X85619Y21642D01*
X85523Y21595D01*
X85380Y21595D01*
X86142Y22261D02*
X86142Y21595D01*
X86142Y22166D02*
X86190Y22214D01*
X86285Y22261D01*
X86428Y22261D01*
X86523Y22214D01*
X86571Y22119D01*
X86571Y21595D01*
X87047Y21976D02*
X87809Y21976D01*
X88714Y21642D02*
X88619Y21595D01*
X88428Y21595D01*
X88333Y21642D01*
X88285Y21690D01*
X88238Y21785D01*
X88238Y22071D01*
X88285Y22166D01*
X88333Y22214D01*
X88428Y22261D01*
X88619Y22261D01*
X88714Y22214D01*
X89285Y21595D02*
X89190Y21642D01*
X89142Y21690D01*
X89095Y21785D01*
X89095Y22071D01*
X89142Y22166D01*
X89190Y22214D01*
X89285Y22261D01*
X89428Y22261D01*
X89523Y22214D01*
X89571Y22166D01*
X89619Y22071D01*
X89619Y21785D01*
X89571Y21690D01*
X89523Y21642D01*
X89428Y21595D01*
X89285Y21595D01*
X90047Y22261D02*
X90047Y21595D01*
X90047Y22166D02*
X90095Y22214D01*
X90190Y22261D01*
X90333Y22261D01*
X90428Y22214D01*
X90476Y22119D01*
X90476Y21595D01*
X91380Y21595D02*
X91380Y22595D01*
X91380Y21642D02*
X91285Y21595D01*
X91095Y21595D01*
X90999Y21642D01*
X90952Y21690D01*
X90904Y21785D01*
X90904Y22071D01*
X90952Y22166D01*
X90999Y22214D01*
X91095Y22261D01*
X91285Y22261D01*
X91380Y22214D01*
X92285Y22261D02*
X92285Y21595D01*
X91857Y22261D02*
X91857Y21738D01*
X91904Y21642D01*
X91999Y21595D01*
X92142Y21595D01*
X92238Y21642D01*
X92285Y21690D01*
X93190Y21642D02*
X93095Y21595D01*
X92904Y21595D01*
X92809Y21642D01*
X92761Y21690D01*
X92714Y21785D01*
X92714Y22071D01*
X92761Y22166D01*
X92809Y22214D01*
X92904Y22261D01*
X93095Y22261D01*
X93190Y22214D01*
X93476Y22261D02*
X93857Y22261D01*
X93619Y22595D02*
X93619Y21738D01*
X93666Y21642D01*
X93761Y21595D01*
X93857Y21595D01*
X94190Y21595D02*
X94190Y22261D01*
X94190Y22595D02*
X94142Y22547D01*
X94190Y22500D01*
X94238Y22547D01*
X94190Y22595D01*
X94190Y22500D01*
X94571Y22261D02*
X94809Y21595D01*
X95047Y22261D01*
X95809Y21642D02*
X95714Y21595D01*
X95523Y21595D01*
X95428Y21642D01*
X95380Y21738D01*
X95380Y22119D01*
X95428Y22214D01*
X95523Y22261D01*
X95714Y22261D01*
X95809Y22214D01*
X95857Y22119D01*
X95857Y22023D01*
X95380Y21928D01*
X96952Y22261D02*
X97142Y21595D01*
X97333Y22071D01*
X97523Y21595D01*
X97714Y22261D01*
X98095Y21595D02*
X98095Y22595D01*
X98523Y21595D02*
X98523Y22119D01*
X98476Y22214D01*
X98380Y22261D01*
X98238Y22261D01*
X98142Y22214D01*
X98095Y22166D01*
X98999Y21595D02*
X98999Y22261D01*
X98999Y22595D02*
X98952Y22547D01*
X98999Y22500D01*
X99047Y22547D01*
X98999Y22595D01*
X98999Y22500D01*
X99333Y22261D02*
X99714Y22261D01*
X99476Y22595D02*
X99476Y21738D01*
X99523Y21642D01*
X99619Y21595D01*
X99714Y21595D01*
X100428Y21642D02*
X100333Y21595D01*
X100142Y21595D01*
X100047Y21642D01*
X99999Y21738D01*
X99999Y22119D01*
X100047Y22214D01*
X100142Y22261D01*
X100333Y22261D01*
X100428Y22214D01*
X100476Y22119D01*
X100476Y22023D01*
X99999Y21928D01*
X102047Y21642D02*
X101952Y21595D01*
X101761Y21595D01*
X101666Y21642D01*
X101619Y21738D01*
X101619Y22119D01*
X101666Y22214D01*
X101761Y22261D01*
X101952Y22261D01*
X102047Y22214D01*
X102095Y22119D01*
X102095Y22023D01*
X101619Y21928D01*
X102523Y22261D02*
X102523Y21261D01*
X102523Y22214D02*
X102619Y22261D01*
X102809Y22261D01*
X102904Y22214D01*
X102952Y22166D01*
X102999Y22071D01*
X102999Y21785D01*
X102952Y21690D01*
X102904Y21642D01*
X102809Y21595D01*
X102619Y21595D01*
X102523Y21642D01*
X103571Y21595D02*
X103476Y21642D01*
X103428Y21690D01*
X103380Y21785D01*
X103380Y22071D01*
X103428Y22166D01*
X103476Y22214D01*
X103571Y22261D01*
X103714Y22261D01*
X103809Y22214D01*
X103857Y22166D01*
X103904Y22071D01*
X103904Y21785D01*
X103857Y21690D01*
X103809Y21642D01*
X103714Y21595D01*
X103571Y21595D01*
X104238Y21595D02*
X104761Y22261D01*
X104238Y22261D02*
X104761Y21595D01*
X105047Y22261D02*
X105285Y21595D01*
X105523Y22261D02*
X105285Y21595D01*
X105190Y21357D01*
X105142Y21309D01*
X105047Y21261D01*
X106666Y21595D02*
X106666Y22261D01*
X106666Y22595D02*
X106619Y22547D01*
X106666Y22500D01*
X106714Y22547D01*
X106666Y22595D01*
X106666Y22500D01*
X107142Y22261D02*
X107142Y21595D01*
X107142Y22166D02*
X107190Y22214D01*
X107285Y22261D01*
X107428Y22261D01*
X107523Y22214D01*
X107571Y22119D01*
X107571Y21595D01*
X108047Y21595D02*
X108047Y22595D01*
X108142Y21976D02*
X108428Y21595D01*
X108428Y22261D02*
X108047Y21880D01*
X108857Y21690D02*
X108904Y21642D01*
X108857Y21595D01*
X108809Y21642D01*
X108857Y21690D01*
X108857Y21595D01*
X51142Y21095D02*
X51714Y21095D01*
X51428Y20095D02*
X51428Y21095D01*
X52047Y20095D02*
X52047Y21095D01*
X52476Y20095D02*
X52476Y20619D01*
X52428Y20714D01*
X52333Y20761D01*
X52190Y20761D01*
X52095Y20714D01*
X52047Y20666D01*
X53333Y20142D02*
X53238Y20095D01*
X53047Y20095D01*
X52952Y20142D01*
X52904Y20238D01*
X52904Y20619D01*
X52952Y20714D01*
X53047Y20761D01*
X53238Y20761D01*
X53333Y20714D01*
X53380Y20619D01*
X53380Y20523D01*
X52904Y20428D01*
X53809Y20095D02*
X53809Y20761D01*
X53809Y20571D02*
X53857Y20666D01*
X53904Y20714D01*
X53999Y20761D01*
X54095Y20761D01*
X54809Y20142D02*
X54714Y20095D01*
X54523Y20095D01*
X54428Y20142D01*
X54380Y20238D01*
X54380Y20619D01*
X54428Y20714D01*
X54523Y20761D01*
X54714Y20761D01*
X54809Y20714D01*
X54857Y20619D01*
X54857Y20523D01*
X54380Y20428D01*
X56000Y20142D02*
X56095Y20095D01*
X56285Y20095D01*
X56380Y20142D01*
X56428Y20238D01*
X56428Y20285D01*
X56380Y20380D01*
X56285Y20428D01*
X56142Y20428D01*
X56047Y20476D01*
X56000Y20571D01*
X56000Y20619D01*
X56047Y20714D01*
X56142Y20761D01*
X56285Y20761D01*
X56380Y20714D01*
X56857Y20095D02*
X56857Y21095D01*
X57285Y20095D02*
X57285Y20619D01*
X57238Y20714D01*
X57142Y20761D01*
X56999Y20761D01*
X56904Y20714D01*
X56857Y20666D01*
X57904Y20095D02*
X57809Y20142D01*
X57761Y20190D01*
X57714Y20285D01*
X57714Y20571D01*
X57761Y20666D01*
X57809Y20714D01*
X57904Y20761D01*
X58047Y20761D01*
X58142Y20714D01*
X58190Y20666D01*
X58238Y20571D01*
X58238Y20285D01*
X58190Y20190D01*
X58142Y20142D01*
X58047Y20095D01*
X57904Y20095D01*
X59095Y20761D02*
X59095Y20095D01*
X58666Y20761D02*
X58666Y20238D01*
X58714Y20142D01*
X58809Y20095D01*
X58952Y20095D01*
X59047Y20142D01*
X59095Y20190D01*
X59714Y20095D02*
X59619Y20142D01*
X59571Y20238D01*
X59571Y21095D01*
X60523Y20095D02*
X60523Y21095D01*
X60523Y20142D02*
X60428Y20095D01*
X60238Y20095D01*
X60142Y20142D01*
X60095Y20190D01*
X60047Y20285D01*
X60047Y20571D01*
X60095Y20666D01*
X60142Y20714D01*
X60238Y20761D01*
X60428Y20761D01*
X60523Y20714D01*
X61761Y20095D02*
X61761Y21095D01*
X61761Y20714D02*
X61857Y20761D01*
X62047Y20761D01*
X62142Y20714D01*
X62190Y20666D01*
X62238Y20571D01*
X62238Y20285D01*
X62190Y20190D01*
X62142Y20142D01*
X62047Y20095D01*
X61857Y20095D01*
X61761Y20142D01*
X63047Y20142D02*
X62952Y20095D01*
X62761Y20095D01*
X62666Y20142D01*
X62619Y20238D01*
X62619Y20619D01*
X62666Y20714D01*
X62761Y20761D01*
X62952Y20761D01*
X63047Y20714D01*
X63095Y20619D01*
X63095Y20523D01*
X62619Y20428D01*
X64285Y20761D02*
X64285Y20095D01*
X64285Y20666D02*
X64333Y20714D01*
X64428Y20761D01*
X64571Y20761D01*
X64666Y20714D01*
X64714Y20619D01*
X64714Y20095D01*
X65333Y20095D02*
X65238Y20142D01*
X65190Y20190D01*
X65142Y20285D01*
X65142Y20571D01*
X65190Y20666D01*
X65238Y20714D01*
X65333Y20761D01*
X65476Y20761D01*
X65571Y20714D01*
X65619Y20666D01*
X65666Y20571D01*
X65666Y20285D01*
X65619Y20190D01*
X65571Y20142D01*
X65476Y20095D01*
X65333Y20095D01*
X66857Y20095D02*
X66857Y20761D01*
X66857Y21095D02*
X66809Y21047D01*
X66857Y21000D01*
X66904Y21047D01*
X66857Y21095D01*
X66857Y21000D01*
X67333Y20761D02*
X67333Y20095D01*
X67333Y20666D02*
X67380Y20714D01*
X67476Y20761D01*
X67619Y20761D01*
X67714Y20714D01*
X67761Y20619D01*
X67761Y20095D01*
X68238Y20095D02*
X68238Y21095D01*
X68333Y20476D02*
X68619Y20095D01*
X68619Y20761D02*
X68238Y20380D01*
X69952Y20095D02*
X69857Y20142D01*
X69809Y20190D01*
X69761Y20285D01*
X69761Y20571D01*
X69809Y20666D01*
X69857Y20714D01*
X69952Y20761D01*
X70095Y20761D01*
X70190Y20714D01*
X70238Y20666D01*
X70285Y20571D01*
X70285Y20285D01*
X70238Y20190D01*
X70190Y20142D01*
X70095Y20095D01*
X69952Y20095D01*
X70714Y20761D02*
X70714Y20095D01*
X70714Y20666D02*
X70761Y20714D01*
X70857Y20761D01*
X70999Y20761D01*
X71095Y20714D01*
X71142Y20619D01*
X71142Y20095D01*
X72380Y20761D02*
X72380Y19761D01*
X72380Y20714D02*
X72476Y20761D01*
X72666Y20761D01*
X72761Y20714D01*
X72809Y20666D01*
X72857Y20571D01*
X72857Y20285D01*
X72809Y20190D01*
X72761Y20142D01*
X72666Y20095D01*
X72476Y20095D01*
X72380Y20142D01*
X73714Y20095D02*
X73714Y20619D01*
X73666Y20714D01*
X73571Y20761D01*
X73380Y20761D01*
X73285Y20714D01*
X73714Y20142D02*
X73619Y20095D01*
X73380Y20095D01*
X73285Y20142D01*
X73238Y20238D01*
X73238Y20333D01*
X73285Y20428D01*
X73380Y20476D01*
X73619Y20476D01*
X73714Y20523D01*
X74619Y20095D02*
X74619Y21095D01*
X74619Y20142D02*
X74523Y20095D01*
X74333Y20095D01*
X74238Y20142D01*
X74190Y20190D01*
X74142Y20285D01*
X74142Y20571D01*
X74190Y20666D01*
X74238Y20714D01*
X74333Y20761D01*
X74523Y20761D01*
X74619Y20714D01*
X75142Y20142D02*
X75142Y20095D01*
X75095Y20000D01*
X75047Y19952D01*
X76190Y20761D02*
X76571Y20761D01*
X76333Y21095D02*
X76333Y20238D01*
X76380Y20142D01*
X76476Y20095D01*
X76571Y20095D01*
X77285Y20142D02*
X77190Y20095D01*
X76999Y20095D01*
X76904Y20142D01*
X76857Y20238D01*
X76857Y20619D01*
X76904Y20714D01*
X76999Y20761D01*
X77190Y20761D01*
X77285Y20714D01*
X77333Y20619D01*
X77333Y20523D01*
X76857Y20428D01*
X77714Y20142D02*
X77809Y20095D01*
X77999Y20095D01*
X78095Y20142D01*
X78142Y20238D01*
X78142Y20285D01*
X78095Y20380D01*
X77999Y20428D01*
X77857Y20428D01*
X77761Y20476D01*
X77714Y20571D01*
X77714Y20619D01*
X77761Y20714D01*
X77857Y20761D01*
X77999Y20761D01*
X78095Y20714D01*
X78428Y20761D02*
X78809Y20761D01*
X78571Y21095D02*
X78571Y20238D01*
X78619Y20142D01*
X78714Y20095D01*
X78809Y20095D01*
X79904Y20761D02*
X79904Y19761D01*
X79904Y20714D02*
X79999Y20761D01*
X80190Y20761D01*
X80285Y20714D01*
X80333Y20666D01*
X80380Y20571D01*
X80380Y20285D01*
X80333Y20190D01*
X80285Y20142D01*
X80190Y20095D01*
X79999Y20095D01*
X79904Y20142D01*
X80952Y20095D02*
X80857Y20142D01*
X80809Y20190D01*
X80761Y20285D01*
X80761Y20571D01*
X80809Y20666D01*
X80857Y20714D01*
X80952Y20761D01*
X81095Y20761D01*
X81190Y20714D01*
X81238Y20666D01*
X81285Y20571D01*
X81285Y20285D01*
X81238Y20190D01*
X81190Y20142D01*
X81095Y20095D01*
X80952Y20095D01*
X81714Y20095D02*
X81714Y20761D01*
X81714Y21095D02*
X81666Y21047D01*
X81714Y21000D01*
X81761Y21047D01*
X81714Y21095D01*
X81714Y21000D01*
X82190Y20761D02*
X82190Y20095D01*
X82190Y20666D02*
X82238Y20714D01*
X82333Y20761D01*
X82476Y20761D01*
X82571Y20714D01*
X82619Y20619D01*
X82619Y20095D01*
X82952Y20761D02*
X83333Y20761D01*
X83095Y21095D02*
X83095Y20238D01*
X83142Y20142D01*
X83238Y20095D01*
X83333Y20095D01*
X83714Y20142D02*
X83714Y20095D01*
X83666Y20000D01*
X83619Y19952D01*
X85047Y20095D02*
X84952Y20142D01*
X84904Y20190D01*
X84857Y20285D01*
X84857Y20571D01*
X84904Y20666D01*
X84952Y20714D01*
X85047Y20761D01*
X85190Y20761D01*
X85285Y20714D01*
X85333Y20666D01*
X85380Y20571D01*
X85380Y20285D01*
X85333Y20190D01*
X85285Y20142D01*
X85190Y20095D01*
X85047Y20095D01*
X85809Y20095D02*
X85809Y20761D01*
X85809Y20571D02*
X85857Y20666D01*
X85904Y20714D01*
X85999Y20761D01*
X86095Y20761D01*
X87571Y20142D02*
X87476Y20095D01*
X87285Y20095D01*
X87190Y20142D01*
X87142Y20238D01*
X87142Y20619D01*
X87190Y20714D01*
X87285Y20761D01*
X87476Y20761D01*
X87571Y20714D01*
X87619Y20619D01*
X87619Y20523D01*
X87142Y20428D01*
X87952Y20095D02*
X88476Y20761D01*
X87952Y20761D02*
X88476Y20095D01*
X88857Y20761D02*
X88857Y19761D01*
X88857Y20714D02*
X88952Y20761D01*
X89142Y20761D01*
X89238Y20714D01*
X89285Y20666D01*
X89333Y20571D01*
X89333Y20285D01*
X89285Y20190D01*
X89238Y20142D01*
X89142Y20095D01*
X88952Y20095D01*
X88857Y20142D01*
X89904Y20095D02*
X89809Y20142D01*
X89761Y20190D01*
X89714Y20285D01*
X89714Y20571D01*
X89761Y20666D01*
X89809Y20714D01*
X89904Y20761D01*
X90047Y20761D01*
X90142Y20714D01*
X90190Y20666D01*
X90238Y20571D01*
X90238Y20285D01*
X90190Y20190D01*
X90142Y20142D01*
X90047Y20095D01*
X89904Y20095D01*
X90619Y20142D02*
X90714Y20095D01*
X90904Y20095D01*
X90999Y20142D01*
X91047Y20238D01*
X91047Y20285D01*
X90999Y20380D01*
X90904Y20428D01*
X90761Y20428D01*
X90666Y20476D01*
X90619Y20571D01*
X90619Y20619D01*
X90666Y20714D01*
X90761Y20761D01*
X90904Y20761D01*
X90999Y20714D01*
X91857Y20142D02*
X91761Y20095D01*
X91571Y20095D01*
X91476Y20142D01*
X91428Y20238D01*
X91428Y20619D01*
X91476Y20714D01*
X91571Y20761D01*
X91761Y20761D01*
X91857Y20714D01*
X91904Y20619D01*
X91904Y20523D01*
X91428Y20428D01*
X92761Y20095D02*
X92761Y21095D01*
X92761Y20142D02*
X92666Y20095D01*
X92476Y20095D01*
X92380Y20142D01*
X92333Y20190D01*
X92285Y20285D01*
X92285Y20571D01*
X92333Y20666D01*
X92380Y20714D01*
X92476Y20761D01*
X92666Y20761D01*
X92761Y20714D01*
X93999Y20095D02*
X93999Y20761D01*
X93999Y20666D02*
X94047Y20714D01*
X94142Y20761D01*
X94285Y20761D01*
X94380Y20714D01*
X94428Y20619D01*
X94428Y20095D01*
X94428Y20619D02*
X94476Y20714D01*
X94571Y20761D01*
X94714Y20761D01*
X94809Y20714D01*
X94857Y20619D01*
X94857Y20095D01*
X95714Y20142D02*
X95619Y20095D01*
X95428Y20095D01*
X95333Y20142D01*
X95285Y20238D01*
X95285Y20619D01*
X95333Y20714D01*
X95428Y20761D01*
X95619Y20761D01*
X95714Y20714D01*
X95761Y20619D01*
X95761Y20523D01*
X95285Y20428D01*
X96047Y20761D02*
X96428Y20761D01*
X96190Y21095D02*
X96190Y20238D01*
X96238Y20142D01*
X96333Y20095D01*
X96428Y20095D01*
X97190Y20095D02*
X97190Y20619D01*
X97142Y20714D01*
X97047Y20761D01*
X96857Y20761D01*
X96761Y20714D01*
X97190Y20142D02*
X97095Y20095D01*
X96857Y20095D01*
X96761Y20142D01*
X96714Y20238D01*
X96714Y20333D01*
X96761Y20428D01*
X96857Y20476D01*
X97095Y20476D01*
X97190Y20523D01*
X97809Y20095D02*
X97714Y20142D01*
X97666Y20238D01*
X97666Y21095D01*
X99380Y20095D02*
X99380Y20619D01*
X99333Y20714D01*
X99238Y20761D01*
X99047Y20761D01*
X98952Y20714D01*
X99380Y20142D02*
X99285Y20095D01*
X99047Y20095D01*
X98952Y20142D01*
X98904Y20238D01*
X98904Y20333D01*
X98952Y20428D01*
X99047Y20476D01*
X99285Y20476D01*
X99380Y20523D01*
X99809Y20142D02*
X99904Y20095D01*
X100095Y20095D01*
X100190Y20142D01*
X100238Y20238D01*
X100238Y20285D01*
X100190Y20380D01*
X100095Y20428D01*
X99952Y20428D01*
X99857Y20476D01*
X99809Y20571D01*
X99809Y20619D01*
X99857Y20714D01*
X99952Y20761D01*
X100095Y20761D01*
X100190Y20714D01*
X101857Y20095D02*
X101857Y21095D01*
X101857Y20142D02*
X101761Y20095D01*
X101571Y20095D01*
X101476Y20142D01*
X101428Y20190D01*
X101380Y20285D01*
X101380Y20571D01*
X101428Y20666D01*
X101476Y20714D01*
X101571Y20761D01*
X101761Y20761D01*
X101857Y20714D01*
X102714Y20142D02*
X102619Y20095D01*
X102428Y20095D01*
X102333Y20142D01*
X102285Y20238D01*
X102285Y20619D01*
X102333Y20714D01*
X102428Y20761D01*
X102619Y20761D01*
X102714Y20714D01*
X102761Y20619D01*
X102761Y20523D01*
X102285Y20428D01*
X103047Y20761D02*
X103428Y20761D01*
X103190Y20095D02*
X103190Y20952D01*
X103238Y21047D01*
X103333Y21095D01*
X103428Y21095D01*
X103761Y20095D02*
X103761Y20761D01*
X103761Y21095D02*
X103714Y21047D01*
X103761Y21000D01*
X103809Y21047D01*
X103761Y21095D01*
X103761Y21000D01*
X104238Y20761D02*
X104238Y20095D01*
X104238Y20666D02*
X104285Y20714D01*
X104380Y20761D01*
X104523Y20761D01*
X104619Y20714D01*
X104666Y20619D01*
X104666Y20095D01*
X105523Y20142D02*
X105428Y20095D01*
X105238Y20095D01*
X105142Y20142D01*
X105095Y20238D01*
X105095Y20619D01*
X105142Y20714D01*
X105238Y20761D01*
X105428Y20761D01*
X105523Y20714D01*
X105571Y20619D01*
X105571Y20523D01*
X105095Y20428D01*
X106428Y20095D02*
X106428Y21095D01*
X106428Y20142D02*
X106333Y20095D01*
X106142Y20095D01*
X106047Y20142D01*
X105999Y20190D01*
X105952Y20285D01*
X105952Y20571D01*
X105999Y20666D01*
X106047Y20714D01*
X106142Y20761D01*
X106333Y20761D01*
X106428Y20714D01*
X107666Y20095D02*
X107666Y21095D01*
X107666Y20714D02*
X107761Y20761D01*
X107952Y20761D01*
X108047Y20714D01*
X108095Y20666D01*
X108142Y20571D01*
X108142Y20285D01*
X108095Y20190D01*
X108047Y20142D01*
X107952Y20095D01*
X107761Y20095D01*
X107666Y20142D01*
X108476Y20761D02*
X108714Y20095D01*
X108952Y20761D02*
X108714Y20095D01*
X108619Y19857D01*
X108571Y19809D01*
X108476Y19761D01*
X110047Y20142D02*
X110142Y20095D01*
X110333Y20095D01*
X110428Y20142D01*
X110476Y20238D01*
X110476Y20285D01*
X110428Y20380D01*
X110333Y20428D01*
X110190Y20428D01*
X110095Y20476D01*
X110047Y20571D01*
X110047Y20619D01*
X110095Y20714D01*
X110190Y20761D01*
X110333Y20761D01*
X110428Y20714D01*
X111047Y20095D02*
X110952Y20142D01*
X110904Y20190D01*
X110857Y20285D01*
X110857Y20571D01*
X110904Y20666D01*
X110952Y20714D01*
X111047Y20761D01*
X111190Y20761D01*
X111285Y20714D01*
X111333Y20666D01*
X111380Y20571D01*
X111380Y20285D01*
X111333Y20190D01*
X111285Y20142D01*
X111190Y20095D01*
X111047Y20095D01*
X111952Y20095D02*
X111857Y20142D01*
X111809Y20238D01*
X111809Y21095D01*
X112761Y20095D02*
X112761Y21095D01*
X112761Y20142D02*
X112666Y20095D01*
X112476Y20095D01*
X112380Y20142D01*
X112333Y20190D01*
X112285Y20285D01*
X112285Y20571D01*
X112333Y20666D01*
X112380Y20714D01*
X112476Y20761D01*
X112666Y20761D01*
X112761Y20714D01*
X113619Y20142D02*
X113523Y20095D01*
X113333Y20095D01*
X113238Y20142D01*
X113190Y20238D01*
X113190Y20619D01*
X113238Y20714D01*
X113333Y20761D01*
X113523Y20761D01*
X113619Y20714D01*
X113666Y20619D01*
X113666Y20523D01*
X113190Y20428D01*
X114095Y20095D02*
X114095Y20761D01*
X114095Y20571D02*
X114142Y20666D01*
X114190Y20714D01*
X114285Y20761D01*
X114380Y20761D01*
X115476Y20095D02*
X115476Y20761D01*
X115476Y20666D02*
X115523Y20714D01*
X115619Y20761D01*
X115761Y20761D01*
X115857Y20714D01*
X115904Y20619D01*
X115904Y20095D01*
X115904Y20619D02*
X115952Y20714D01*
X116047Y20761D01*
X116190Y20761D01*
X116285Y20714D01*
X116333Y20619D01*
X116333Y20095D01*
X117238Y20095D02*
X117238Y20619D01*
X117190Y20714D01*
X117095Y20761D01*
X116904Y20761D01*
X116809Y20714D01*
X117238Y20142D02*
X117142Y20095D01*
X116904Y20095D01*
X116809Y20142D01*
X116761Y20238D01*
X116761Y20333D01*
X116809Y20428D01*
X116904Y20476D01*
X117142Y20476D01*
X117238Y20523D01*
X117666Y20142D02*
X117761Y20095D01*
X117952Y20095D01*
X118047Y20142D01*
X118095Y20238D01*
X118095Y20285D01*
X118047Y20380D01*
X117952Y20428D01*
X117809Y20428D01*
X117714Y20476D01*
X117666Y20571D01*
X117666Y20619D01*
X117714Y20714D01*
X117809Y20761D01*
X117952Y20761D01*
X118047Y20714D01*
X118523Y20095D02*
X118523Y21095D01*
X118619Y20476D02*
X118904Y20095D01*
X118904Y20761D02*
X118523Y20380D01*
X120238Y20095D02*
X120142Y20142D01*
X120095Y20238D01*
X120095Y21095D01*
X121047Y20095D02*
X121047Y20619D01*
X120999Y20714D01*
X120904Y20761D01*
X120714Y20761D01*
X120619Y20714D01*
X121047Y20142D02*
X120952Y20095D01*
X120714Y20095D01*
X120619Y20142D01*
X120571Y20238D01*
X120571Y20333D01*
X120619Y20428D01*
X120714Y20476D01*
X120952Y20476D01*
X121047Y20523D01*
X121428Y20761D02*
X121666Y20095D01*
X121904Y20761D02*
X121666Y20095D01*
X121571Y19857D01*
X121523Y19809D01*
X121428Y19761D01*
X122666Y20142D02*
X122571Y20095D01*
X122380Y20095D01*
X122285Y20142D01*
X122238Y20238D01*
X122238Y20619D01*
X122285Y20714D01*
X122380Y20761D01*
X122571Y20761D01*
X122666Y20714D01*
X122714Y20619D01*
X122714Y20523D01*
X122238Y20428D01*
X123142Y20095D02*
X123142Y20761D01*
X123142Y20571D02*
X123190Y20666D01*
X123238Y20714D01*
X123333Y20761D01*
X123428Y20761D01*
X123761Y20190D02*
X123809Y20142D01*
X123761Y20095D01*
X123714Y20142D01*
X123761Y20190D01*
X123761Y20095D01*
X48380Y25166D02*
X48285Y25214D01*
X48238Y25261D01*
X48190Y25357D01*
X48190Y25404D01*
X48238Y25500D01*
X48285Y25547D01*
X48380Y25595D01*
X48571Y25595D01*
X48666Y25547D01*
X48714Y25500D01*
X48761Y25404D01*
X48761Y25357D01*
X48714Y25261D01*
X48666Y25214D01*
X48571Y25166D01*
X48380Y25166D01*
X48285Y25119D01*
X48238Y25071D01*
X48190Y24976D01*
X48190Y24785D01*
X48238Y24690D01*
X48285Y24642D01*
X48380Y24595D01*
X48571Y24595D01*
X48666Y24642D01*
X48714Y24690D01*
X48761Y24785D01*
X48761Y24976D01*
X48714Y25071D01*
X48666Y25119D01*
X48571Y25166D01*
X49190Y24690D02*
X49238Y24642D01*
X49190Y24595D01*
X49142Y24642D01*
X49190Y24690D01*
X49190Y24595D01*
X51142Y24880D02*
X51619Y24880D01*
X51047Y24595D02*
X51380Y25595D01*
X51714Y24595D01*
X52047Y25261D02*
X52047Y24261D01*
X52047Y25214D02*
X52142Y25261D01*
X52333Y25261D01*
X52428Y25214D01*
X52476Y25166D01*
X52523Y25071D01*
X52523Y24785D01*
X52476Y24690D01*
X52428Y24642D01*
X52333Y24595D01*
X52142Y24595D01*
X52047Y24642D01*
X52952Y25261D02*
X52952Y24261D01*
X52952Y25214D02*
X53047Y25261D01*
X53238Y25261D01*
X53333Y25214D01*
X53380Y25166D01*
X53428Y25071D01*
X53428Y24785D01*
X53380Y24690D01*
X53333Y24642D01*
X53238Y24595D01*
X53047Y24595D01*
X52952Y24642D01*
X54000Y24595D02*
X53904Y24642D01*
X53857Y24738D01*
X53857Y25595D01*
X54285Y25261D02*
X54523Y24595D01*
X54761Y25261D02*
X54523Y24595D01*
X54428Y24357D01*
X54380Y24309D01*
X54285Y24261D01*
X56380Y24595D02*
X55904Y24595D01*
X55904Y25595D01*
X56714Y24595D02*
X56714Y25595D01*
X57095Y25595D01*
X57190Y25547D01*
X57238Y25500D01*
X57285Y25404D01*
X57285Y25261D01*
X57238Y25166D01*
X57190Y25119D01*
X57095Y25071D01*
X56714Y25071D01*
X57714Y24595D02*
X57714Y25595D01*
X58904Y24642D02*
X58999Y24595D01*
X59190Y24595D01*
X59285Y24642D01*
X59333Y24738D01*
X59333Y24785D01*
X59285Y24880D01*
X59190Y24928D01*
X59047Y24928D01*
X58952Y24976D01*
X58904Y25071D01*
X58904Y25119D01*
X58952Y25214D01*
X59047Y25261D01*
X59190Y25261D01*
X59285Y25214D01*
X59904Y24595D02*
X59809Y24642D01*
X59761Y24690D01*
X59714Y24785D01*
X59714Y25071D01*
X59761Y25166D01*
X59809Y25214D01*
X59904Y25261D01*
X60047Y25261D01*
X60142Y25214D01*
X60190Y25166D01*
X60238Y25071D01*
X60238Y24785D01*
X60190Y24690D01*
X60142Y24642D01*
X60047Y24595D01*
X59904Y24595D01*
X60809Y24595D02*
X60714Y24642D01*
X60666Y24738D01*
X60666Y25595D01*
X61619Y24595D02*
X61619Y25595D01*
X61619Y24642D02*
X61523Y24595D01*
X61333Y24595D01*
X61238Y24642D01*
X61190Y24690D01*
X61142Y24785D01*
X61142Y25071D01*
X61190Y25166D01*
X61238Y25214D01*
X61333Y25261D01*
X61523Y25261D01*
X61619Y25214D01*
X62476Y24642D02*
X62380Y24595D01*
X62190Y24595D01*
X62095Y24642D01*
X62047Y24738D01*
X62047Y25119D01*
X62095Y25214D01*
X62190Y25261D01*
X62380Y25261D01*
X62476Y25214D01*
X62523Y25119D01*
X62523Y25023D01*
X62047Y24928D01*
X62952Y24595D02*
X62952Y25261D01*
X62952Y25071D02*
X62999Y25166D01*
X63047Y25214D01*
X63142Y25261D01*
X63238Y25261D01*
X63571Y24595D02*
X63571Y25261D01*
X63571Y25166D02*
X63619Y25214D01*
X63714Y25261D01*
X63857Y25261D01*
X63952Y25214D01*
X63999Y25119D01*
X63999Y24595D01*
X63999Y25119D02*
X64047Y25214D01*
X64142Y25261D01*
X64285Y25261D01*
X64380Y25214D01*
X64428Y25119D01*
X64428Y24595D01*
X65333Y24595D02*
X65333Y25119D01*
X65285Y25214D01*
X65190Y25261D01*
X64999Y25261D01*
X64904Y25214D01*
X65333Y24642D02*
X65238Y24595D01*
X64999Y24595D01*
X64904Y24642D01*
X64857Y24738D01*
X64857Y24833D01*
X64904Y24928D01*
X64999Y24976D01*
X65238Y24976D01*
X65333Y25023D01*
X65761Y24642D02*
X65857Y24595D01*
X66047Y24595D01*
X66142Y24642D01*
X66190Y24738D01*
X66190Y24785D01*
X66142Y24880D01*
X66047Y24928D01*
X65904Y24928D01*
X65809Y24976D01*
X65761Y25071D01*
X65761Y25119D01*
X65809Y25214D01*
X65904Y25261D01*
X66047Y25261D01*
X66142Y25214D01*
X66619Y24595D02*
X66619Y25595D01*
X66714Y24976D02*
X66999Y24595D01*
X66999Y25261D02*
X66619Y24880D01*
X68190Y24595D02*
X68190Y25595D01*
X68190Y25214D02*
X68285Y25261D01*
X68476Y25261D01*
X68571Y25214D01*
X68619Y25166D01*
X68666Y25071D01*
X68666Y24785D01*
X68619Y24690D01*
X68571Y24642D01*
X68476Y24595D01*
X68285Y24595D01*
X68190Y24642D01*
X69238Y24595D02*
X69142Y24642D01*
X69095Y24690D01*
X69047Y24785D01*
X69047Y25071D01*
X69095Y25166D01*
X69142Y25214D01*
X69238Y25261D01*
X69380Y25261D01*
X69476Y25214D01*
X69523Y25166D01*
X69571Y25071D01*
X69571Y24785D01*
X69523Y24690D01*
X69476Y24642D01*
X69380Y24595D01*
X69238Y24595D01*
X69857Y25261D02*
X70238Y25261D01*
X69999Y25595D02*
X69999Y24738D01*
X70047Y24642D01*
X70142Y24595D01*
X70238Y24595D01*
X70571Y24595D02*
X70571Y25595D01*
X70999Y24595D02*
X70999Y25119D01*
X70952Y25214D01*
X70857Y25261D01*
X70714Y25261D01*
X70619Y25214D01*
X70571Y25166D01*
X72190Y24642D02*
X72285Y24595D01*
X72476Y24595D01*
X72571Y24642D01*
X72619Y24738D01*
X72619Y24785D01*
X72571Y24880D01*
X72476Y24928D01*
X72333Y24928D01*
X72238Y24976D01*
X72190Y25071D01*
X72190Y25119D01*
X72238Y25214D01*
X72333Y25261D01*
X72476Y25261D01*
X72571Y25214D01*
X73047Y24595D02*
X73047Y25261D01*
X73047Y25595D02*
X72999Y25547D01*
X73047Y25500D01*
X73095Y25547D01*
X73047Y25595D01*
X73047Y25500D01*
X73952Y24595D02*
X73952Y25595D01*
X73952Y24642D02*
X73857Y24595D01*
X73666Y24595D01*
X73571Y24642D01*
X73523Y24690D01*
X73476Y24785D01*
X73476Y25071D01*
X73523Y25166D01*
X73571Y25214D01*
X73666Y25261D01*
X73857Y25261D01*
X73952Y25214D01*
X74809Y24642D02*
X74714Y24595D01*
X74523Y24595D01*
X74428Y24642D01*
X74380Y24738D01*
X74380Y25119D01*
X74428Y25214D01*
X74523Y25261D01*
X74714Y25261D01*
X74809Y25214D01*
X74857Y25119D01*
X74857Y25023D01*
X74380Y24928D01*
X75238Y24642D02*
X75333Y24595D01*
X75523Y24595D01*
X75619Y24642D01*
X75666Y24738D01*
X75666Y24785D01*
X75619Y24880D01*
X75523Y24928D01*
X75380Y24928D01*
X75285Y24976D01*
X75238Y25071D01*
X75238Y25119D01*
X75285Y25214D01*
X75380Y25261D01*
X75523Y25261D01*
X75619Y25214D01*
X76857Y25261D02*
X76857Y24261D01*
X76857Y25214D02*
X76952Y25261D01*
X77142Y25261D01*
X77238Y25214D01*
X77285Y25166D01*
X77333Y25071D01*
X77333Y24785D01*
X77285Y24690D01*
X77238Y24642D01*
X77142Y24595D01*
X76952Y24595D01*
X76857Y24642D01*
X78142Y24642D02*
X78047Y24595D01*
X77857Y24595D01*
X77761Y24642D01*
X77714Y24738D01*
X77714Y25119D01*
X77761Y25214D01*
X77857Y25261D01*
X78047Y25261D01*
X78142Y25214D01*
X78190Y25119D01*
X78190Y25023D01*
X77714Y24928D01*
X78619Y24595D02*
X78619Y25261D01*
X78619Y25071D02*
X78666Y25166D01*
X78714Y25214D01*
X78809Y25261D01*
X78904Y25261D01*
X79999Y24595D02*
X79999Y25595D01*
X80476Y24595D02*
X80476Y25595D01*
X80857Y25595D01*
X80952Y25547D01*
X80999Y25500D01*
X81047Y25404D01*
X81047Y25261D01*
X80999Y25166D01*
X80952Y25119D01*
X80857Y25071D01*
X80476Y25071D01*
X82047Y24690D02*
X81999Y24642D01*
X81857Y24595D01*
X81761Y24595D01*
X81619Y24642D01*
X81523Y24738D01*
X81476Y24833D01*
X81428Y25023D01*
X81428Y25166D01*
X81476Y25357D01*
X81523Y25452D01*
X81619Y25547D01*
X81761Y25595D01*
X81857Y25595D01*
X81999Y25547D01*
X82047Y25500D01*
X82476Y24976D02*
X83238Y24976D01*
X83666Y24642D02*
X83809Y24595D01*
X84047Y24595D01*
X84142Y24642D01*
X84190Y24690D01*
X84238Y24785D01*
X84238Y24880D01*
X84190Y24976D01*
X84142Y25023D01*
X84047Y25071D01*
X83857Y25119D01*
X83761Y25166D01*
X83714Y25214D01*
X83666Y25309D01*
X83666Y25404D01*
X83714Y25500D01*
X83761Y25547D01*
X83857Y25595D01*
X84095Y25595D01*
X84238Y25547D01*
X84666Y24595D02*
X84666Y25595D01*
X85238Y24595D01*
X85238Y25595D01*
X85714Y24976D02*
X86476Y24976D01*
X87095Y25166D02*
X86999Y25214D01*
X86952Y25261D01*
X86904Y25357D01*
X86904Y25404D01*
X86952Y25500D01*
X86999Y25547D01*
X87095Y25595D01*
X87285Y25595D01*
X87380Y25547D01*
X87428Y25500D01*
X87476Y25404D01*
X87476Y25357D01*
X87428Y25261D01*
X87380Y25214D01*
X87285Y25166D01*
X87095Y25166D01*
X86999Y25119D01*
X86952Y25071D01*
X86904Y24976D01*
X86904Y24785D01*
X86952Y24690D01*
X86999Y24642D01*
X87095Y24595D01*
X87285Y24595D01*
X87380Y24642D01*
X87428Y24690D01*
X87476Y24785D01*
X87476Y24976D01*
X87428Y25071D01*
X87380Y25119D01*
X87285Y25166D01*
X88333Y25261D02*
X88333Y24595D01*
X88095Y25642D02*
X87857Y24928D01*
X88476Y24928D01*
X88857Y24595D02*
X88857Y25595D01*
X89095Y25595D01*
X89238Y25547D01*
X89333Y25452D01*
X89380Y25357D01*
X89428Y25166D01*
X89428Y25023D01*
X89380Y24833D01*
X89333Y24738D01*
X89238Y24642D01*
X89095Y24595D01*
X88857Y24595D01*
X89904Y24642D02*
X89904Y24595D01*
X89857Y24500D01*
X89809Y24452D01*
X90952Y25595D02*
X91523Y25595D01*
X91238Y24595D02*
X91238Y25595D01*
X91761Y25261D02*
X91999Y24595D01*
X92238Y25261D02*
X91999Y24595D01*
X91904Y24357D01*
X91857Y24309D01*
X91761Y24261D01*
X92619Y25261D02*
X92619Y24261D01*
X92619Y25214D02*
X92714Y25261D01*
X92904Y25261D01*
X92999Y25214D01*
X93047Y25166D01*
X93095Y25071D01*
X93095Y24785D01*
X93047Y24690D01*
X92999Y24642D01*
X92904Y24595D01*
X92714Y24595D01*
X92619Y24642D01*
X93904Y24642D02*
X93809Y24595D01*
X93619Y24595D01*
X93523Y24642D01*
X93476Y24738D01*
X93476Y25119D01*
X93523Y25214D01*
X93619Y25261D01*
X93809Y25261D01*
X93904Y25214D01*
X93952Y25119D01*
X93952Y25023D01*
X93476Y24928D01*
X95095Y24880D02*
X95571Y24880D01*
X94999Y24595D02*
X95333Y25595D01*
X95666Y24595D01*
X96047Y24642D02*
X96047Y24595D01*
X95999Y24500D01*
X95952Y24452D01*
X97809Y24690D02*
X97761Y24642D01*
X97619Y24595D01*
X97523Y24595D01*
X97380Y24642D01*
X97285Y24738D01*
X97238Y24833D01*
X97190Y25023D01*
X97190Y25166D01*
X97238Y25357D01*
X97285Y25452D01*
X97380Y25547D01*
X97523Y25595D01*
X97619Y25595D01*
X97761Y25547D01*
X97809Y25500D01*
X98380Y24595D02*
X98285Y24642D01*
X98238Y24738D01*
X98238Y25595D01*
X99190Y24595D02*
X99190Y25119D01*
X99142Y25214D01*
X99047Y25261D01*
X98857Y25261D01*
X98761Y25214D01*
X99190Y24642D02*
X99095Y24595D01*
X98857Y24595D01*
X98761Y24642D01*
X98714Y24738D01*
X98714Y24833D01*
X98761Y24928D01*
X98857Y24976D01*
X99095Y24976D01*
X99190Y25023D01*
X99619Y24642D02*
X99714Y24595D01*
X99904Y24595D01*
X99999Y24642D01*
X100047Y24738D01*
X100047Y24785D01*
X99999Y24880D01*
X99904Y24928D01*
X99761Y24928D01*
X99666Y24976D01*
X99619Y25071D01*
X99619Y25119D01*
X99666Y25214D01*
X99761Y25261D01*
X99904Y25261D01*
X99999Y25214D01*
X100428Y24642D02*
X100523Y24595D01*
X100714Y24595D01*
X100809Y24642D01*
X100857Y24738D01*
X100857Y24785D01*
X100809Y24880D01*
X100714Y24928D01*
X100571Y24928D01*
X100476Y24976D01*
X100428Y25071D01*
X100428Y25119D01*
X100476Y25214D01*
X100571Y25261D01*
X100714Y25261D01*
X100809Y25214D01*
X101999Y25500D02*
X102047Y25547D01*
X102142Y25595D01*
X102380Y25595D01*
X102476Y25547D01*
X102523Y25500D01*
X102571Y25404D01*
X102571Y25309D01*
X102523Y25166D01*
X101952Y24595D01*
X102571Y24595D01*
X103047Y24642D02*
X103047Y24595D01*
X102999Y24500D01*
X102952Y24452D01*
X104666Y24642D02*
X104571Y24595D01*
X104380Y24595D01*
X104285Y24642D01*
X104238Y24690D01*
X104190Y24785D01*
X104190Y25071D01*
X104238Y25166D01*
X104285Y25214D01*
X104380Y25261D01*
X104571Y25261D01*
X104666Y25214D01*
X105238Y24595D02*
X105142Y24642D01*
X105095Y24690D01*
X105047Y24785D01*
X105047Y25071D01*
X105095Y25166D01*
X105142Y25214D01*
X105238Y25261D01*
X105380Y25261D01*
X105476Y25214D01*
X105523Y25166D01*
X105571Y25071D01*
X105571Y24785D01*
X105523Y24690D01*
X105476Y24642D01*
X105380Y24595D01*
X105238Y24595D01*
X106142Y24595D02*
X106047Y24642D01*
X105999Y24738D01*
X105999Y25595D01*
X106666Y24595D02*
X106571Y24642D01*
X106523Y24690D01*
X106476Y24785D01*
X106476Y25071D01*
X106523Y25166D01*
X106571Y25214D01*
X106666Y25261D01*
X106809Y25261D01*
X106904Y25214D01*
X106952Y25166D01*
X106999Y25071D01*
X106999Y24785D01*
X106952Y24690D01*
X106904Y24642D01*
X106809Y24595D01*
X106666Y24595D01*
X107428Y24595D02*
X107428Y25261D01*
X107428Y25071D02*
X107476Y25166D01*
X107523Y25214D01*
X107619Y25261D01*
X107714Y25261D01*
X108809Y24976D02*
X109571Y24976D01*
X111333Y25547D02*
X111238Y25595D01*
X111095Y25595D01*
X110952Y25547D01*
X110857Y25452D01*
X110809Y25357D01*
X110761Y25166D01*
X110761Y25023D01*
X110809Y24833D01*
X110857Y24738D01*
X110952Y24642D01*
X111095Y24595D01*
X111190Y24595D01*
X111333Y24642D01*
X111380Y24690D01*
X111380Y25023D01*
X111190Y25023D01*
X112380Y24595D02*
X112047Y25071D01*
X111809Y24595D02*
X111809Y25595D01*
X112190Y25595D01*
X112285Y25547D01*
X112333Y25500D01*
X112380Y25404D01*
X112380Y25261D01*
X112333Y25166D01*
X112285Y25119D01*
X112190Y25071D01*
X111809Y25071D01*
X112809Y25119D02*
X113142Y25119D01*
X113285Y24595D02*
X112809Y24595D01*
X112809Y25595D01*
X113285Y25595D01*
X113714Y25119D02*
X114047Y25119D01*
X114190Y24595D02*
X113714Y24595D01*
X113714Y25595D01*
X114190Y25595D01*
X114619Y24595D02*
X114619Y25595D01*
X115190Y24595D01*
X115190Y25595D01*
X115666Y24690D02*
X115714Y24642D01*
X115666Y24595D01*
X115619Y24642D01*
X115666Y24690D01*
X115666Y24595D01*
X48142Y28595D02*
X48809Y28595D01*
X48380Y27595D01*
X49190Y27690D02*
X49238Y27642D01*
X49190Y27595D01*
X49142Y27642D01*
X49190Y27690D01*
X49190Y27595D01*
X51523Y28119D02*
X51190Y28119D01*
X51190Y27595D02*
X51190Y28595D01*
X51666Y28595D01*
X52047Y27595D02*
X52047Y28595D01*
X52523Y27595D02*
X52523Y28595D01*
X53095Y27595D01*
X53095Y28595D01*
X53523Y27880D02*
X54000Y27880D01*
X53428Y27595D02*
X53761Y28595D01*
X54095Y27595D01*
X54904Y27595D02*
X54428Y27595D01*
X54428Y28595D01*
X56000Y27595D02*
X56000Y28595D01*
X56380Y28595D01*
X56476Y28547D01*
X56523Y28500D01*
X56571Y28404D01*
X56571Y28261D01*
X56523Y28166D01*
X56476Y28119D01*
X56380Y28071D01*
X56000Y28071D01*
X57476Y27595D02*
X57000Y27595D01*
X57000Y28595D01*
X57761Y27880D02*
X58238Y27880D01*
X57666Y27595D02*
X57999Y28595D01*
X58333Y27595D01*
X58523Y28595D02*
X59095Y28595D01*
X58809Y27595D02*
X58809Y28595D01*
X59428Y27595D02*
X59428Y28595D01*
X59904Y27595D02*
X59904Y28595D01*
X60476Y27595D01*
X60476Y28595D01*
X61476Y28547D02*
X61380Y28595D01*
X61238Y28595D01*
X61095Y28547D01*
X60999Y28452D01*
X60952Y28357D01*
X60904Y28166D01*
X60904Y28023D01*
X60952Y27833D01*
X60999Y27738D01*
X61095Y27642D01*
X61238Y27595D01*
X61333Y27595D01*
X61476Y27642D01*
X61523Y27690D01*
X61523Y28023D01*
X61333Y28023D01*
X61952Y27690D02*
X61999Y27642D01*
X61952Y27595D01*
X61904Y27642D01*
X61952Y27690D01*
X61952Y27595D01*
X61952Y28214D02*
X61999Y28166D01*
X61952Y28119D01*
X61904Y28166D01*
X61952Y28214D01*
X61952Y28119D01*
X63190Y27595D02*
X63190Y28595D01*
X63190Y28119D02*
X63761Y28119D01*
X63761Y27595D02*
X63761Y28595D01*
X64380Y27595D02*
X64285Y27642D01*
X64238Y27690D01*
X64190Y27785D01*
X64190Y28071D01*
X64238Y28166D01*
X64285Y28214D01*
X64380Y28261D01*
X64523Y28261D01*
X64619Y28214D01*
X64666Y28166D01*
X64714Y28071D01*
X64714Y27785D01*
X64666Y27690D01*
X64619Y27642D01*
X64523Y27595D01*
X64380Y27595D01*
X64999Y28261D02*
X65380Y28261D01*
X65142Y28595D02*
X65142Y27738D01*
X65190Y27642D01*
X65285Y27595D01*
X65380Y27595D01*
X66428Y27880D02*
X66904Y27880D01*
X66333Y27595D02*
X66666Y28595D01*
X66999Y27595D01*
X67333Y27595D02*
X67333Y28261D01*
X67333Y28595D02*
X67285Y28547D01*
X67333Y28500D01*
X67380Y28547D01*
X67333Y28595D01*
X67333Y28500D01*
X67809Y27595D02*
X67809Y28261D01*
X67809Y28071D02*
X67857Y28166D01*
X67904Y28214D01*
X67999Y28261D01*
X68095Y28261D01*
X69666Y27595D02*
X69190Y27595D01*
X69190Y28595D01*
X70380Y27642D02*
X70285Y27595D01*
X70095Y27595D01*
X69999Y27642D01*
X69952Y27738D01*
X69952Y28119D01*
X69999Y28214D01*
X70095Y28261D01*
X70285Y28261D01*
X70380Y28214D01*
X70428Y28119D01*
X70428Y28023D01*
X69952Y27928D01*
X70761Y28261D02*
X70999Y27595D01*
X71238Y28261D01*
X71999Y27642D02*
X71904Y27595D01*
X71714Y27595D01*
X71619Y27642D01*
X71571Y27738D01*
X71571Y28119D01*
X71619Y28214D01*
X71714Y28261D01*
X71904Y28261D01*
X71999Y28214D01*
X72047Y28119D01*
X72047Y28023D01*
X71571Y27928D01*
X72619Y27595D02*
X72523Y27642D01*
X72476Y27738D01*
X72476Y28595D01*
X73380Y27642D02*
X73285Y27595D01*
X73095Y27595D01*
X72999Y27642D01*
X72952Y27738D01*
X72952Y28119D01*
X72999Y28214D01*
X73095Y28261D01*
X73285Y28261D01*
X73380Y28214D01*
X73428Y28119D01*
X73428Y28023D01*
X72952Y27928D01*
X74285Y27595D02*
X74285Y28595D01*
X74285Y27642D02*
X74190Y27595D01*
X73999Y27595D01*
X73904Y27642D01*
X73857Y27690D01*
X73809Y27785D01*
X73809Y28071D01*
X73857Y28166D01*
X73904Y28214D01*
X73999Y28261D01*
X74190Y28261D01*
X74285Y28214D01*
X75999Y27595D02*
X75523Y27595D01*
X75523Y28595D01*
X76714Y27642D02*
X76619Y27595D01*
X76428Y27595D01*
X76333Y27642D01*
X76285Y27738D01*
X76285Y28119D01*
X76333Y28214D01*
X76428Y28261D01*
X76619Y28261D01*
X76714Y28214D01*
X76761Y28119D01*
X76761Y28023D01*
X76285Y27928D01*
X77619Y27595D02*
X77619Y28119D01*
X77571Y28214D01*
X77476Y28261D01*
X77285Y28261D01*
X77190Y28214D01*
X77619Y27642D02*
X77523Y27595D01*
X77285Y27595D01*
X77190Y27642D01*
X77142Y27738D01*
X77142Y27833D01*
X77190Y27928D01*
X77285Y27976D01*
X77523Y27976D01*
X77619Y28023D01*
X78523Y27595D02*
X78523Y28595D01*
X78523Y27642D02*
X78428Y27595D01*
X78238Y27595D01*
X78142Y27642D01*
X78095Y27690D01*
X78047Y27785D01*
X78047Y28071D01*
X78095Y28166D01*
X78142Y28214D01*
X78238Y28261D01*
X78428Y28261D01*
X78523Y28214D01*
X78999Y27976D02*
X79761Y27976D01*
X80095Y28261D02*
X80476Y28261D01*
X80238Y27595D02*
X80238Y28452D01*
X80285Y28547D01*
X80380Y28595D01*
X80476Y28595D01*
X80809Y27595D02*
X80809Y28261D01*
X80809Y28071D02*
X80857Y28166D01*
X80904Y28214D01*
X80999Y28261D01*
X81095Y28261D01*
X81809Y27642D02*
X81714Y27595D01*
X81523Y27595D01*
X81428Y27642D01*
X81380Y27738D01*
X81380Y28119D01*
X81428Y28214D01*
X81523Y28261D01*
X81714Y28261D01*
X81809Y28214D01*
X81857Y28119D01*
X81857Y28023D01*
X81380Y27928D01*
X82666Y27642D02*
X82571Y27595D01*
X82380Y27595D01*
X82285Y27642D01*
X82238Y27738D01*
X82238Y28119D01*
X82285Y28214D01*
X82380Y28261D01*
X82571Y28261D01*
X82666Y28214D01*
X82714Y28119D01*
X82714Y28023D01*
X82238Y27928D01*
X83857Y27642D02*
X83999Y27595D01*
X84238Y27595D01*
X84333Y27642D01*
X84380Y27690D01*
X84428Y27785D01*
X84428Y27880D01*
X84380Y27976D01*
X84333Y28023D01*
X84238Y28071D01*
X84047Y28119D01*
X83952Y28166D01*
X83904Y28214D01*
X83857Y28309D01*
X83857Y28404D01*
X83904Y28500D01*
X83952Y28547D01*
X84047Y28595D01*
X84285Y28595D01*
X84428Y28547D01*
X84999Y27595D02*
X84904Y27642D01*
X84857Y27690D01*
X84809Y27785D01*
X84809Y28071D01*
X84857Y28166D01*
X84904Y28214D01*
X84999Y28261D01*
X85142Y28261D01*
X85238Y28214D01*
X85285Y28166D01*
X85333Y28071D01*
X85333Y27785D01*
X85285Y27690D01*
X85238Y27642D01*
X85142Y27595D01*
X84999Y27595D01*
X85904Y27595D02*
X85809Y27642D01*
X85761Y27738D01*
X85761Y28595D01*
X86714Y27595D02*
X86714Y28595D01*
X86714Y27642D02*
X86619Y27595D01*
X86428Y27595D01*
X86333Y27642D01*
X86285Y27690D01*
X86238Y27785D01*
X86238Y28071D01*
X86285Y28166D01*
X86333Y28214D01*
X86428Y28261D01*
X86619Y28261D01*
X86714Y28214D01*
X87571Y27642D02*
X87476Y27595D01*
X87285Y27595D01*
X87190Y27642D01*
X87142Y27738D01*
X87142Y28119D01*
X87190Y28214D01*
X87285Y28261D01*
X87476Y28261D01*
X87571Y28214D01*
X87619Y28119D01*
X87619Y28023D01*
X87142Y27928D01*
X88047Y27595D02*
X88047Y28261D01*
X88047Y28071D02*
X88095Y28166D01*
X88142Y28214D01*
X88238Y28261D01*
X88333Y28261D01*
X88666Y27690D02*
X88714Y27642D01*
X88666Y27595D01*
X88619Y27642D01*
X88666Y27690D01*
X88666Y27595D01*
X48666Y31595D02*
X48476Y31595D01*
X48380Y31547D01*
X48333Y31500D01*
X48238Y31357D01*
X48190Y31166D01*
X48190Y30785D01*
X48238Y30690D01*
X48285Y30642D01*
X48380Y30595D01*
X48571Y30595D01*
X48666Y30642D01*
X48714Y30690D01*
X48761Y30785D01*
X48761Y31023D01*
X48714Y31119D01*
X48666Y31166D01*
X48571Y31214D01*
X48380Y31214D01*
X48285Y31166D01*
X48238Y31119D01*
X48190Y31023D01*
X49190Y30690D02*
X49238Y30642D01*
X49190Y30595D01*
X49142Y30642D01*
X49190Y30690D01*
X49190Y30595D01*
X51190Y30595D02*
X51190Y31595D01*
X51190Y31119D02*
X51761Y31119D01*
X51761Y30595D02*
X51761Y31595D01*
X52380Y30595D02*
X52285Y30642D01*
X52238Y30690D01*
X52190Y30785D01*
X52190Y31071D01*
X52238Y31166D01*
X52285Y31214D01*
X52380Y31261D01*
X52523Y31261D01*
X52619Y31214D01*
X52666Y31166D01*
X52714Y31071D01*
X52714Y30785D01*
X52666Y30690D01*
X52619Y30642D01*
X52523Y30595D01*
X52380Y30595D01*
X53285Y30595D02*
X53190Y30642D01*
X53142Y30738D01*
X53142Y31595D01*
X54047Y30642D02*
X53952Y30595D01*
X53761Y30595D01*
X53666Y30642D01*
X53619Y30738D01*
X53619Y31119D01*
X53666Y31214D01*
X53761Y31261D01*
X53952Y31261D01*
X54047Y31214D01*
X54095Y31119D01*
X54095Y31023D01*
X53619Y30928D01*
X55238Y30642D02*
X55333Y30595D01*
X55523Y30595D01*
X55619Y30642D01*
X55666Y30738D01*
X55666Y30785D01*
X55619Y30880D01*
X55523Y30928D01*
X55380Y30928D01*
X55285Y30976D01*
X55238Y31071D01*
X55238Y31119D01*
X55285Y31214D01*
X55380Y31261D01*
X55523Y31261D01*
X55619Y31214D01*
X56095Y30595D02*
X56095Y31261D01*
X56095Y31595D02*
X56047Y31547D01*
X56095Y31500D01*
X56142Y31547D01*
X56095Y31595D01*
X56095Y31500D01*
X56476Y31261D02*
X56999Y31261D01*
X56476Y30595D01*
X56999Y30595D01*
X57761Y30642D02*
X57666Y30595D01*
X57476Y30595D01*
X57380Y30642D01*
X57333Y30738D01*
X57333Y31119D01*
X57380Y31214D01*
X57476Y31261D01*
X57666Y31261D01*
X57761Y31214D01*
X57809Y31119D01*
X57809Y31023D01*
X57333Y30928D01*
X58190Y30642D02*
X58285Y30595D01*
X58476Y30595D01*
X58571Y30642D01*
X58619Y30738D01*
X58619Y30785D01*
X58571Y30880D01*
X58476Y30928D01*
X58333Y30928D01*
X58238Y30976D01*
X58190Y31071D01*
X58190Y31119D01*
X58238Y31214D01*
X58333Y31261D01*
X58476Y31261D01*
X58571Y31214D01*
X59809Y30595D02*
X59809Y31261D01*
X59809Y31166D02*
X59857Y31214D01*
X59952Y31261D01*
X60095Y31261D01*
X60190Y31214D01*
X60238Y31119D01*
X60238Y30595D01*
X60238Y31119D02*
X60285Y31214D01*
X60380Y31261D01*
X60523Y31261D01*
X60619Y31214D01*
X60666Y31119D01*
X60666Y30595D01*
X61523Y30642D02*
X61428Y30595D01*
X61238Y30595D01*
X61142Y30642D01*
X61095Y30738D01*
X61095Y31119D01*
X61142Y31214D01*
X61238Y31261D01*
X61428Y31261D01*
X61523Y31214D01*
X61571Y31119D01*
X61571Y31023D01*
X61095Y30928D01*
X62428Y30595D02*
X62428Y31119D01*
X62380Y31214D01*
X62285Y31261D01*
X62095Y31261D01*
X61999Y31214D01*
X62428Y30642D02*
X62333Y30595D01*
X62095Y30595D01*
X61999Y30642D01*
X61952Y30738D01*
X61952Y30833D01*
X61999Y30928D01*
X62095Y30976D01*
X62333Y30976D01*
X62428Y31023D01*
X62857Y30642D02*
X62952Y30595D01*
X63142Y30595D01*
X63238Y30642D01*
X63285Y30738D01*
X63285Y30785D01*
X63238Y30880D01*
X63142Y30928D01*
X62999Y30928D01*
X62904Y30976D01*
X62857Y31071D01*
X62857Y31119D01*
X62904Y31214D01*
X62999Y31261D01*
X63142Y31261D01*
X63238Y31214D01*
X64142Y31261D02*
X64142Y30595D01*
X63714Y31261D02*
X63714Y30738D01*
X63761Y30642D01*
X63857Y30595D01*
X63999Y30595D01*
X64095Y30642D01*
X64142Y30690D01*
X64619Y30595D02*
X64619Y31261D01*
X64619Y31071D02*
X64666Y31166D01*
X64714Y31214D01*
X64809Y31261D01*
X64904Y31261D01*
X65619Y30642D02*
X65523Y30595D01*
X65333Y30595D01*
X65238Y30642D01*
X65190Y30738D01*
X65190Y31119D01*
X65238Y31214D01*
X65333Y31261D01*
X65523Y31261D01*
X65619Y31214D01*
X65666Y31119D01*
X65666Y31023D01*
X65190Y30928D01*
X66523Y30595D02*
X66523Y31595D01*
X66523Y30642D02*
X66428Y30595D01*
X66238Y30595D01*
X66142Y30642D01*
X66095Y30690D01*
X66047Y30785D01*
X66047Y31071D01*
X66095Y31166D01*
X66142Y31214D01*
X66238Y31261D01*
X66428Y31261D01*
X66523Y31214D01*
X68190Y30595D02*
X68190Y31119D01*
X68142Y31214D01*
X68047Y31261D01*
X67857Y31261D01*
X67761Y31214D01*
X68190Y30642D02*
X68095Y30595D01*
X67857Y30595D01*
X67761Y30642D01*
X67714Y30738D01*
X67714Y30833D01*
X67761Y30928D01*
X67857Y30976D01*
X68095Y30976D01*
X68190Y31023D01*
X68523Y31261D02*
X68904Y31261D01*
X68666Y30595D02*
X68666Y31452D01*
X68714Y31547D01*
X68809Y31595D01*
X68904Y31595D01*
X69095Y31261D02*
X69476Y31261D01*
X69238Y31595D02*
X69238Y30738D01*
X69285Y30642D01*
X69380Y30595D01*
X69476Y30595D01*
X70190Y30642D02*
X70095Y30595D01*
X69904Y30595D01*
X69809Y30642D01*
X69761Y30738D01*
X69761Y31119D01*
X69809Y31214D01*
X69904Y31261D01*
X70095Y31261D01*
X70190Y31214D01*
X70238Y31119D01*
X70238Y31023D01*
X69761Y30928D01*
X70666Y30595D02*
X70666Y31261D01*
X70666Y31071D02*
X70714Y31166D01*
X70761Y31214D01*
X70857Y31261D01*
X70952Y31261D01*
X72047Y31261D02*
X72047Y30261D01*
X72047Y31214D02*
X72142Y31261D01*
X72333Y31261D01*
X72428Y31214D01*
X72476Y31166D01*
X72523Y31071D01*
X72523Y30785D01*
X72476Y30690D01*
X72428Y30642D01*
X72333Y30595D01*
X72142Y30595D01*
X72047Y30642D01*
X73095Y30595D02*
X72999Y30642D01*
X72952Y30738D01*
X72952Y31595D01*
X73904Y30595D02*
X73904Y31119D01*
X73857Y31214D01*
X73761Y31261D01*
X73571Y31261D01*
X73476Y31214D01*
X73904Y30642D02*
X73809Y30595D01*
X73571Y30595D01*
X73476Y30642D01*
X73428Y30738D01*
X73428Y30833D01*
X73476Y30928D01*
X73571Y30976D01*
X73809Y30976D01*
X73904Y31023D01*
X74238Y31261D02*
X74619Y31261D01*
X74380Y31595D02*
X74380Y30738D01*
X74428Y30642D01*
X74523Y30595D01*
X74619Y30595D01*
X74952Y30595D02*
X74952Y31261D01*
X74952Y31595D02*
X74904Y31547D01*
X74952Y31500D01*
X74999Y31547D01*
X74952Y31595D01*
X74952Y31500D01*
X75428Y31261D02*
X75428Y30595D01*
X75428Y31166D02*
X75476Y31214D01*
X75571Y31261D01*
X75714Y31261D01*
X75809Y31214D01*
X75857Y31119D01*
X75857Y30595D01*
X76761Y31261D02*
X76761Y30452D01*
X76714Y30357D01*
X76666Y30309D01*
X76571Y30261D01*
X76428Y30261D01*
X76333Y30309D01*
X76761Y30642D02*
X76666Y30595D01*
X76476Y30595D01*
X76380Y30642D01*
X76333Y30690D01*
X76285Y30785D01*
X76285Y31071D01*
X76333Y31166D01*
X76380Y31214D01*
X76476Y31261D01*
X76666Y31261D01*
X76761Y31214D01*
X77238Y30690D02*
X77285Y30642D01*
X77238Y30595D01*
X77190Y30642D01*
X77238Y30690D01*
X77238Y30595D01*
X48714Y38595D02*
X48238Y38595D01*
X48190Y38119D01*
X48238Y38166D01*
X48333Y38214D01*
X48571Y38214D01*
X48666Y38166D01*
X48714Y38119D01*
X48761Y38023D01*
X48761Y37785D01*
X48714Y37690D01*
X48666Y37642D01*
X48571Y37595D01*
X48333Y37595D01*
X48238Y37642D01*
X48190Y37690D01*
X49190Y37690D02*
X49238Y37642D01*
X49190Y37595D01*
X49142Y37642D01*
X49190Y37690D01*
X49190Y37595D01*
X51523Y38119D02*
X51190Y38119D01*
X51190Y37595D02*
X51190Y38595D01*
X51666Y38595D01*
X52000Y37880D02*
X52476Y37880D01*
X51904Y37595D02*
X52238Y38595D01*
X52571Y37595D01*
X53238Y38119D02*
X53380Y38071D01*
X53428Y38023D01*
X53476Y37928D01*
X53476Y37785D01*
X53428Y37690D01*
X53380Y37642D01*
X53285Y37595D01*
X52904Y37595D01*
X52904Y38595D01*
X53238Y38595D01*
X53333Y38547D01*
X53380Y38500D01*
X53428Y38404D01*
X53428Y38309D01*
X53380Y38214D01*
X53333Y38166D01*
X53238Y38119D01*
X52904Y38119D01*
X54476Y37595D02*
X54142Y38071D01*
X53904Y37595D02*
X53904Y38595D01*
X54285Y38595D01*
X54380Y38547D01*
X54428Y38500D01*
X54476Y38404D01*
X54476Y38261D01*
X54428Y38166D01*
X54380Y38119D01*
X54285Y38071D01*
X53904Y38071D01*
X54904Y37595D02*
X54904Y38595D01*
X55952Y37690D02*
X55904Y37642D01*
X55761Y37595D01*
X55666Y37595D01*
X55523Y37642D01*
X55428Y37738D01*
X55380Y37833D01*
X55333Y38023D01*
X55333Y38166D01*
X55380Y38357D01*
X55428Y38452D01*
X55523Y38547D01*
X55666Y38595D01*
X55761Y38595D01*
X55904Y38547D01*
X55952Y38500D01*
X56333Y37880D02*
X56809Y37880D01*
X56238Y37595D02*
X56571Y38595D01*
X56904Y37595D01*
X57095Y38595D02*
X57666Y38595D01*
X57380Y37595D02*
X57380Y38595D01*
X58000Y37595D02*
X58000Y38595D01*
X58666Y38595D02*
X58857Y38595D01*
X58952Y38547D01*
X59047Y38452D01*
X59095Y38261D01*
X59095Y37928D01*
X59047Y37738D01*
X58952Y37642D01*
X58857Y37595D01*
X58666Y37595D01*
X58571Y37642D01*
X58476Y37738D01*
X58428Y37928D01*
X58428Y38261D01*
X58476Y38452D01*
X58571Y38547D01*
X58666Y38595D01*
X59523Y37595D02*
X59523Y38595D01*
X60095Y37595D01*
X60095Y38595D01*
X61190Y38595D02*
X61761Y38595D01*
X61476Y37595D02*
X61476Y38595D01*
X62285Y38595D02*
X62476Y38595D01*
X62571Y38547D01*
X62666Y38452D01*
X62714Y38261D01*
X62714Y37928D01*
X62666Y37738D01*
X62571Y37642D01*
X62476Y37595D01*
X62285Y37595D01*
X62190Y37642D01*
X62095Y37738D01*
X62047Y37928D01*
X62047Y38261D01*
X62095Y38452D01*
X62190Y38547D01*
X62285Y38595D01*
X63619Y37595D02*
X63142Y37595D01*
X63142Y38595D01*
X63952Y38119D02*
X64285Y38119D01*
X64428Y37595D02*
X63952Y37595D01*
X63952Y38595D01*
X64428Y38595D01*
X65428Y37595D02*
X65095Y38071D01*
X64857Y37595D02*
X64857Y38595D01*
X65238Y38595D01*
X65333Y38547D01*
X65380Y38500D01*
X65428Y38404D01*
X65428Y38261D01*
X65380Y38166D01*
X65333Y38119D01*
X65238Y38071D01*
X64857Y38071D01*
X65809Y37880D02*
X66285Y37880D01*
X65714Y37595D02*
X66047Y38595D01*
X66380Y37595D01*
X66714Y37595D02*
X66714Y38595D01*
X67285Y37595D01*
X67285Y38595D01*
X68333Y37690D02*
X68285Y37642D01*
X68142Y37595D01*
X68047Y37595D01*
X67904Y37642D01*
X67809Y37738D01*
X67761Y37833D01*
X67714Y38023D01*
X67714Y38166D01*
X67761Y38357D01*
X67809Y38452D01*
X67904Y38547D01*
X68047Y38595D01*
X68142Y38595D01*
X68285Y38547D01*
X68333Y38500D01*
X68761Y38119D02*
X69095Y38119D01*
X69238Y37595D02*
X68761Y37595D01*
X68761Y38595D01*
X69238Y38595D01*
X69619Y37642D02*
X69761Y37595D01*
X69999Y37595D01*
X70095Y37642D01*
X70142Y37690D01*
X70190Y37785D01*
X70190Y37880D01*
X70142Y37976D01*
X70095Y38023D01*
X69999Y38071D01*
X69809Y38119D01*
X69714Y38166D01*
X69666Y38214D01*
X69619Y38309D01*
X69619Y38404D01*
X69666Y38500D01*
X69714Y38547D01*
X69809Y38595D01*
X70047Y38595D01*
X70190Y38547D01*
X70619Y37690D02*
X70666Y37642D01*
X70619Y37595D01*
X70571Y37642D01*
X70619Y37690D01*
X70619Y37595D01*
X70619Y38214D02*
X70666Y38166D01*
X70619Y38119D01*
X70571Y38166D01*
X70619Y38214D01*
X70619Y38119D01*
X51142Y37095D02*
X51714Y37095D01*
X51428Y36095D02*
X51428Y37095D01*
X52047Y36095D02*
X52047Y36761D01*
X52047Y36571D02*
X52095Y36666D01*
X52142Y36714D01*
X52238Y36761D01*
X52333Y36761D01*
X53095Y36095D02*
X53095Y36619D01*
X53047Y36714D01*
X52952Y36761D01*
X52761Y36761D01*
X52666Y36714D01*
X53095Y36142D02*
X53000Y36095D01*
X52761Y36095D01*
X52666Y36142D01*
X52619Y36238D01*
X52619Y36333D01*
X52666Y36428D01*
X52761Y36476D01*
X53000Y36476D01*
X53095Y36523D01*
X53999Y36142D02*
X53904Y36095D01*
X53714Y36095D01*
X53619Y36142D01*
X53571Y36190D01*
X53523Y36285D01*
X53523Y36571D01*
X53571Y36666D01*
X53619Y36714D01*
X53714Y36761D01*
X53904Y36761D01*
X53999Y36714D01*
X54809Y36142D02*
X54714Y36095D01*
X54523Y36095D01*
X54428Y36142D01*
X54380Y36238D01*
X54380Y36619D01*
X54428Y36714D01*
X54523Y36761D01*
X54714Y36761D01*
X54809Y36714D01*
X54857Y36619D01*
X54857Y36523D01*
X54380Y36428D01*
X56000Y37142D02*
X55142Y35857D01*
X56285Y36142D02*
X56428Y36095D01*
X56666Y36095D01*
X56761Y36142D01*
X56809Y36190D01*
X56857Y36285D01*
X56857Y36380D01*
X56809Y36476D01*
X56761Y36523D01*
X56666Y36571D01*
X56476Y36619D01*
X56380Y36666D01*
X56333Y36714D01*
X56285Y36809D01*
X56285Y36904D01*
X56333Y37000D01*
X56380Y37047D01*
X56476Y37095D01*
X56714Y37095D01*
X56857Y37047D01*
X57285Y36761D02*
X57285Y35761D01*
X57285Y36714D02*
X57380Y36761D01*
X57571Y36761D01*
X57666Y36714D01*
X57714Y36666D01*
X57761Y36571D01*
X57761Y36285D01*
X57714Y36190D01*
X57666Y36142D01*
X57571Y36095D01*
X57380Y36095D01*
X57285Y36142D01*
X58619Y36095D02*
X58619Y36619D01*
X58571Y36714D01*
X58476Y36761D01*
X58285Y36761D01*
X58190Y36714D01*
X58619Y36142D02*
X58523Y36095D01*
X58285Y36095D01*
X58190Y36142D01*
X58142Y36238D01*
X58142Y36333D01*
X58190Y36428D01*
X58285Y36476D01*
X58523Y36476D01*
X58619Y36523D01*
X59523Y36142D02*
X59428Y36095D01*
X59238Y36095D01*
X59142Y36142D01*
X59095Y36190D01*
X59047Y36285D01*
X59047Y36571D01*
X59095Y36666D01*
X59142Y36714D01*
X59238Y36761D01*
X59428Y36761D01*
X59523Y36714D01*
X60333Y36142D02*
X60238Y36095D01*
X60047Y36095D01*
X59952Y36142D01*
X59904Y36238D01*
X59904Y36619D01*
X59952Y36714D01*
X60047Y36761D01*
X60238Y36761D01*
X60333Y36714D01*
X60380Y36619D01*
X60380Y36523D01*
X59904Y36428D01*
X61714Y36666D02*
X61619Y36714D01*
X61571Y36761D01*
X61523Y36857D01*
X61523Y36904D01*
X61571Y37000D01*
X61619Y37047D01*
X61714Y37095D01*
X61904Y37095D01*
X61999Y37047D01*
X62047Y37000D01*
X62095Y36904D01*
X62095Y36857D01*
X62047Y36761D01*
X61999Y36714D01*
X61904Y36666D01*
X61714Y36666D01*
X61619Y36619D01*
X61571Y36571D01*
X61523Y36476D01*
X61523Y36285D01*
X61571Y36190D01*
X61619Y36142D01*
X61714Y36095D01*
X61904Y36095D01*
X61999Y36142D01*
X62047Y36190D01*
X62095Y36285D01*
X62095Y36476D01*
X62047Y36571D01*
X61999Y36619D01*
X61904Y36666D01*
X63238Y37142D02*
X62380Y35857D01*
X63714Y36666D02*
X63619Y36714D01*
X63571Y36761D01*
X63523Y36857D01*
X63523Y36904D01*
X63571Y37000D01*
X63619Y37047D01*
X63714Y37095D01*
X63904Y37095D01*
X63999Y37047D01*
X64047Y37000D01*
X64095Y36904D01*
X64095Y36857D01*
X64047Y36761D01*
X63999Y36714D01*
X63904Y36666D01*
X63714Y36666D01*
X63619Y36619D01*
X63571Y36571D01*
X63523Y36476D01*
X63523Y36285D01*
X63571Y36190D01*
X63619Y36142D01*
X63714Y36095D01*
X63904Y36095D01*
X63999Y36142D01*
X64047Y36190D01*
X64095Y36285D01*
X64095Y36476D01*
X64047Y36571D01*
X63999Y36619D01*
X63904Y36666D01*
X65285Y36095D02*
X65285Y36761D01*
X65285Y36666D02*
X65333Y36714D01*
X65428Y36761D01*
X65571Y36761D01*
X65666Y36714D01*
X65714Y36619D01*
X65714Y36095D01*
X65714Y36619D02*
X65761Y36714D01*
X65857Y36761D01*
X66000Y36761D01*
X66095Y36714D01*
X66142Y36619D01*
X66142Y36095D01*
X66619Y36095D02*
X66619Y36761D01*
X66619Y37095D02*
X66571Y37047D01*
X66619Y37000D01*
X66666Y37047D01*
X66619Y37095D01*
X66619Y37000D01*
X67238Y36095D02*
X67142Y36142D01*
X67095Y36238D01*
X67095Y37095D01*
X67571Y36142D02*
X67666Y36095D01*
X67857Y36095D01*
X67952Y36142D01*
X68000Y36238D01*
X68000Y36285D01*
X67952Y36380D01*
X67857Y36428D01*
X67714Y36428D01*
X67619Y36476D01*
X67571Y36571D01*
X67571Y36619D01*
X67619Y36714D01*
X67714Y36761D01*
X67857Y36761D01*
X67952Y36714D01*
X68428Y36190D02*
X68476Y36142D01*
X68428Y36095D01*
X68380Y36142D01*
X68428Y36190D01*
X68428Y36095D01*
X51142Y35595D02*
X51714Y35595D01*
X51428Y34595D02*
X51428Y35595D01*
X52047Y34595D02*
X52047Y35261D01*
X52047Y35071D02*
X52095Y35166D01*
X52142Y35214D01*
X52238Y35261D01*
X52333Y35261D01*
X53095Y34595D02*
X53095Y35119D01*
X53047Y35214D01*
X52952Y35261D01*
X52761Y35261D01*
X52666Y35214D01*
X53095Y34642D02*
X53000Y34595D01*
X52761Y34595D01*
X52666Y34642D01*
X52619Y34738D01*
X52619Y34833D01*
X52666Y34928D01*
X52761Y34976D01*
X53000Y34976D01*
X53095Y35023D01*
X53999Y34642D02*
X53904Y34595D01*
X53714Y34595D01*
X53619Y34642D01*
X53571Y34690D01*
X53523Y34785D01*
X53523Y35071D01*
X53571Y35166D01*
X53619Y35214D01*
X53714Y35261D01*
X53904Y35261D01*
X53999Y35214D01*
X54809Y34642D02*
X54714Y34595D01*
X54523Y34595D01*
X54428Y34642D01*
X54380Y34738D01*
X54380Y35119D01*
X54428Y35214D01*
X54523Y35261D01*
X54714Y35261D01*
X54809Y35214D01*
X54857Y35119D01*
X54857Y35023D01*
X54380Y34928D01*
X55952Y35261D02*
X56142Y34595D01*
X56333Y35071D01*
X56523Y34595D01*
X56714Y35261D01*
X57095Y34595D02*
X57095Y35261D01*
X57095Y35595D02*
X57047Y35547D01*
X57095Y35500D01*
X57142Y35547D01*
X57095Y35595D01*
X57095Y35500D01*
X57999Y34595D02*
X57999Y35595D01*
X57999Y34642D02*
X57904Y34595D01*
X57714Y34595D01*
X57619Y34642D01*
X57571Y34690D01*
X57523Y34785D01*
X57523Y35071D01*
X57571Y35166D01*
X57619Y35214D01*
X57714Y35261D01*
X57904Y35261D01*
X57999Y35214D01*
X58333Y35261D02*
X58714Y35261D01*
X58476Y35595D02*
X58476Y34738D01*
X58523Y34642D01*
X58619Y34595D01*
X58714Y34595D01*
X59047Y34595D02*
X59047Y35595D01*
X59476Y34595D02*
X59476Y35119D01*
X59428Y35214D01*
X59333Y35261D01*
X59190Y35261D01*
X59095Y35214D01*
X59047Y35166D01*
X60714Y34595D02*
X60714Y35261D01*
X60714Y35166D02*
X60761Y35214D01*
X60857Y35261D01*
X60999Y35261D01*
X61095Y35214D01*
X61142Y35119D01*
X61142Y34595D01*
X61142Y35119D02*
X61190Y35214D01*
X61285Y35261D01*
X61428Y35261D01*
X61523Y35214D01*
X61571Y35119D01*
X61571Y34595D01*
X62476Y35261D02*
X62476Y34595D01*
X62047Y35261D02*
X62047Y34738D01*
X62095Y34642D01*
X62190Y34595D01*
X62333Y34595D01*
X62428Y34642D01*
X62476Y34690D01*
X62904Y34642D02*
X62999Y34595D01*
X63190Y34595D01*
X63285Y34642D01*
X63333Y34738D01*
X63333Y34785D01*
X63285Y34880D01*
X63190Y34928D01*
X63047Y34928D01*
X62952Y34976D01*
X62904Y35071D01*
X62904Y35119D01*
X62952Y35214D01*
X63047Y35261D01*
X63190Y35261D01*
X63285Y35214D01*
X63619Y35261D02*
X63999Y35261D01*
X63761Y35595D02*
X63761Y34738D01*
X63809Y34642D01*
X63904Y34595D01*
X63999Y34595D01*
X65095Y34595D02*
X65095Y35261D01*
X65095Y35166D02*
X65142Y35214D01*
X65238Y35261D01*
X65380Y35261D01*
X65476Y35214D01*
X65523Y35119D01*
X65523Y34595D01*
X65523Y35119D02*
X65571Y35214D01*
X65666Y35261D01*
X65809Y35261D01*
X65904Y35214D01*
X65952Y35119D01*
X65952Y34595D01*
X66857Y34595D02*
X66857Y35119D01*
X66809Y35214D01*
X66714Y35261D01*
X66523Y35261D01*
X66428Y35214D01*
X66857Y34642D02*
X66761Y34595D01*
X66523Y34595D01*
X66428Y34642D01*
X66380Y34738D01*
X66380Y34833D01*
X66428Y34928D01*
X66523Y34976D01*
X66761Y34976D01*
X66857Y35023D01*
X67333Y34595D02*
X67333Y35261D01*
X67333Y35595D02*
X67285Y35547D01*
X67333Y35500D01*
X67380Y35547D01*
X67333Y35595D01*
X67333Y35500D01*
X67809Y35261D02*
X67809Y34595D01*
X67809Y35166D02*
X67857Y35214D01*
X67952Y35261D01*
X68095Y35261D01*
X68190Y35214D01*
X68238Y35119D01*
X68238Y34595D01*
X68571Y35261D02*
X68952Y35261D01*
X68714Y35595D02*
X68714Y34738D01*
X68761Y34642D01*
X68857Y34595D01*
X68952Y34595D01*
X69714Y34595D02*
X69714Y35119D01*
X69666Y35214D01*
X69571Y35261D01*
X69380Y35261D01*
X69285Y35214D01*
X69714Y34642D02*
X69619Y34595D01*
X69380Y34595D01*
X69285Y34642D01*
X69238Y34738D01*
X69238Y34833D01*
X69285Y34928D01*
X69380Y34976D01*
X69619Y34976D01*
X69714Y35023D01*
X70190Y34595D02*
X70190Y35261D01*
X70190Y35595D02*
X70142Y35547D01*
X70190Y35500D01*
X70238Y35547D01*
X70190Y35595D01*
X70190Y35500D01*
X70666Y35261D02*
X70666Y34595D01*
X70666Y35166D02*
X70714Y35214D01*
X70809Y35261D01*
X70952Y35261D01*
X71047Y35214D01*
X71095Y35119D01*
X71095Y34595D01*
X72761Y34595D02*
X72761Y35119D01*
X72714Y35214D01*
X72619Y35261D01*
X72428Y35261D01*
X72333Y35214D01*
X72761Y34642D02*
X72666Y34595D01*
X72428Y34595D01*
X72333Y34642D01*
X72285Y34738D01*
X72285Y34833D01*
X72333Y34928D01*
X72428Y34976D01*
X72666Y34976D01*
X72761Y35023D01*
X73999Y34976D02*
X74761Y34976D01*
X74380Y34595D02*
X74380Y35357D01*
X75952Y35642D02*
X75095Y34357D01*
X76285Y34976D02*
X77047Y34976D01*
X78238Y35500D02*
X78285Y35547D01*
X78380Y35595D01*
X78619Y35595D01*
X78714Y35547D01*
X78761Y35500D01*
X78809Y35404D01*
X78809Y35309D01*
X78761Y35166D01*
X78190Y34595D01*
X78809Y34595D01*
X79428Y35595D02*
X79523Y35595D01*
X79619Y35547D01*
X79666Y35500D01*
X79714Y35404D01*
X79761Y35214D01*
X79761Y34976D01*
X79714Y34785D01*
X79666Y34690D01*
X79619Y34642D01*
X79523Y34595D01*
X79428Y34595D01*
X79333Y34642D01*
X79285Y34690D01*
X79238Y34785D01*
X79190Y34976D01*
X79190Y35214D01*
X79238Y35404D01*
X79285Y35500D01*
X79333Y35547D01*
X79428Y35595D01*
X80142Y34595D02*
X80904Y35595D01*
X80285Y35595D02*
X80380Y35547D01*
X80428Y35452D01*
X80380Y35357D01*
X80285Y35309D01*
X80190Y35357D01*
X80142Y35452D01*
X80190Y35547D01*
X80285Y35595D01*
X80857Y34642D02*
X80904Y34738D01*
X80857Y34833D01*
X80761Y34880D01*
X80666Y34833D01*
X80619Y34738D01*
X80666Y34642D01*
X80761Y34595D01*
X80857Y34642D01*
X82095Y34595D02*
X82095Y35261D01*
X82095Y35595D02*
X82047Y35547D01*
X82095Y35500D01*
X82142Y35547D01*
X82095Y35595D01*
X82095Y35500D01*
X82571Y35261D02*
X82571Y34595D01*
X82571Y35166D02*
X82619Y35214D01*
X82714Y35261D01*
X82857Y35261D01*
X82952Y35214D01*
X82999Y35119D01*
X82999Y34595D01*
X84095Y35261D02*
X84476Y35261D01*
X84238Y35595D02*
X84238Y34738D01*
X84285Y34642D01*
X84380Y34595D01*
X84476Y34595D01*
X84952Y34595D02*
X84857Y34642D01*
X84809Y34690D01*
X84761Y34785D01*
X84761Y35071D01*
X84809Y35166D01*
X84857Y35214D01*
X84952Y35261D01*
X85095Y35261D01*
X85190Y35214D01*
X85238Y35166D01*
X85285Y35071D01*
X85285Y34785D01*
X85238Y34690D01*
X85190Y34642D01*
X85095Y34595D01*
X84952Y34595D01*
X85857Y34595D02*
X85761Y34642D01*
X85714Y34738D01*
X85714Y35595D01*
X86619Y34642D02*
X86523Y34595D01*
X86333Y34595D01*
X86238Y34642D01*
X86190Y34738D01*
X86190Y35119D01*
X86238Y35214D01*
X86333Y35261D01*
X86523Y35261D01*
X86619Y35214D01*
X86666Y35119D01*
X86666Y35023D01*
X86190Y34928D01*
X87095Y34595D02*
X87095Y35261D01*
X87095Y35071D02*
X87142Y35166D01*
X87190Y35214D01*
X87285Y35261D01*
X87380Y35261D01*
X88142Y34595D02*
X88142Y35119D01*
X88095Y35214D01*
X87999Y35261D01*
X87809Y35261D01*
X87714Y35214D01*
X88142Y34642D02*
X88047Y34595D01*
X87809Y34595D01*
X87714Y34642D01*
X87666Y34738D01*
X87666Y34833D01*
X87714Y34928D01*
X87809Y34976D01*
X88047Y34976D01*
X88142Y35023D01*
X88619Y35261D02*
X88619Y34595D01*
X88619Y35166D02*
X88666Y35214D01*
X88761Y35261D01*
X88904Y35261D01*
X88999Y35214D01*
X89047Y35119D01*
X89047Y34595D01*
X89952Y34642D02*
X89857Y34595D01*
X89666Y34595D01*
X89571Y34642D01*
X89523Y34690D01*
X89476Y34785D01*
X89476Y35071D01*
X89523Y35166D01*
X89571Y35214D01*
X89666Y35261D01*
X89857Y35261D01*
X89952Y35214D01*
X90761Y34642D02*
X90666Y34595D01*
X90476Y34595D01*
X90380Y34642D01*
X90333Y34738D01*
X90333Y35119D01*
X90380Y35214D01*
X90476Y35261D01*
X90666Y35261D01*
X90761Y35214D01*
X90809Y35119D01*
X90809Y35023D01*
X90333Y34928D01*
X91238Y34690D02*
X91285Y34642D01*
X91238Y34595D01*
X91190Y34642D01*
X91238Y34690D01*
X91238Y34595D01*
X51238Y33380D02*
X51714Y33380D01*
X51142Y33095D02*
X51476Y34095D01*
X51809Y33095D01*
X52285Y33095D02*
X52190Y33142D01*
X52142Y33238D01*
X52142Y34095D01*
X52809Y33095D02*
X52714Y33142D01*
X52666Y33238D01*
X52666Y34095D01*
X53952Y33095D02*
X53952Y34095D01*
X54380Y33095D02*
X54380Y33619D01*
X54333Y33714D01*
X54238Y33761D01*
X54095Y33761D01*
X53999Y33714D01*
X53952Y33666D01*
X54999Y33095D02*
X54904Y33142D01*
X54857Y33190D01*
X54809Y33285D01*
X54809Y33571D01*
X54857Y33666D01*
X54904Y33714D01*
X54999Y33761D01*
X55142Y33761D01*
X55238Y33714D01*
X55285Y33666D01*
X55333Y33571D01*
X55333Y33285D01*
X55285Y33190D01*
X55238Y33142D01*
X55142Y33095D01*
X54999Y33095D01*
X55904Y33095D02*
X55809Y33142D01*
X55761Y33238D01*
X55761Y34095D01*
X56666Y33142D02*
X56571Y33095D01*
X56380Y33095D01*
X56285Y33142D01*
X56238Y33238D01*
X56238Y33619D01*
X56285Y33714D01*
X56380Y33761D01*
X56571Y33761D01*
X56666Y33714D01*
X56714Y33619D01*
X56714Y33523D01*
X56238Y33428D01*
X57095Y33142D02*
X57190Y33095D01*
X57380Y33095D01*
X57476Y33142D01*
X57523Y33238D01*
X57523Y33285D01*
X57476Y33380D01*
X57380Y33428D01*
X57238Y33428D01*
X57142Y33476D01*
X57095Y33571D01*
X57095Y33619D01*
X57142Y33714D01*
X57238Y33761D01*
X57380Y33761D01*
X57476Y33714D01*
X59142Y33095D02*
X59142Y33619D01*
X59095Y33714D01*
X58999Y33761D01*
X58809Y33761D01*
X58714Y33714D01*
X59142Y33142D02*
X59047Y33095D01*
X58809Y33095D01*
X58714Y33142D01*
X58666Y33238D01*
X58666Y33333D01*
X58714Y33428D01*
X58809Y33476D01*
X59047Y33476D01*
X59142Y33523D01*
X59619Y33761D02*
X59619Y33095D01*
X59619Y33666D02*
X59666Y33714D01*
X59761Y33761D01*
X59904Y33761D01*
X59999Y33714D01*
X60047Y33619D01*
X60047Y33095D01*
X60952Y33095D02*
X60952Y34095D01*
X60952Y33142D02*
X60857Y33095D01*
X60666Y33095D01*
X60571Y33142D01*
X60523Y33190D01*
X60476Y33285D01*
X60476Y33571D01*
X60523Y33666D01*
X60571Y33714D01*
X60666Y33761D01*
X60857Y33761D01*
X60952Y33714D01*
X62190Y33095D02*
X62190Y33761D01*
X62190Y33571D02*
X62238Y33666D01*
X62285Y33714D01*
X62380Y33761D01*
X62476Y33761D01*
X63190Y33142D02*
X63095Y33095D01*
X62904Y33095D01*
X62809Y33142D01*
X62761Y33238D01*
X62761Y33619D01*
X62809Y33714D01*
X62904Y33761D01*
X63095Y33761D01*
X63190Y33714D01*
X63238Y33619D01*
X63238Y33523D01*
X62761Y33428D01*
X64095Y33761D02*
X64095Y32952D01*
X64047Y32857D01*
X63999Y32809D01*
X63904Y32761D01*
X63761Y32761D01*
X63666Y32809D01*
X64095Y33142D02*
X63999Y33095D01*
X63809Y33095D01*
X63714Y33142D01*
X63666Y33190D01*
X63619Y33285D01*
X63619Y33571D01*
X63666Y33666D01*
X63714Y33714D01*
X63809Y33761D01*
X63999Y33761D01*
X64095Y33714D01*
X64571Y33095D02*
X64571Y33761D01*
X64571Y34095D02*
X64523Y34047D01*
X64571Y34000D01*
X64619Y34047D01*
X64571Y34095D01*
X64571Y34000D01*
X64999Y33142D02*
X65095Y33095D01*
X65285Y33095D01*
X65380Y33142D01*
X65428Y33238D01*
X65428Y33285D01*
X65380Y33380D01*
X65285Y33428D01*
X65142Y33428D01*
X65047Y33476D01*
X64999Y33571D01*
X64999Y33619D01*
X65047Y33714D01*
X65142Y33761D01*
X65285Y33761D01*
X65380Y33714D01*
X65714Y33761D02*
X66095Y33761D01*
X65857Y34095D02*
X65857Y33238D01*
X65904Y33142D01*
X65999Y33095D01*
X66095Y33095D01*
X66428Y33095D02*
X66428Y33761D01*
X66428Y33571D02*
X66476Y33666D01*
X66523Y33714D01*
X66619Y33761D01*
X66714Y33761D01*
X67476Y33095D02*
X67476Y33619D01*
X67428Y33714D01*
X67333Y33761D01*
X67142Y33761D01*
X67047Y33714D01*
X67476Y33142D02*
X67380Y33095D01*
X67142Y33095D01*
X67047Y33142D01*
X66999Y33238D01*
X66999Y33333D01*
X67047Y33428D01*
X67142Y33476D01*
X67380Y33476D01*
X67476Y33523D01*
X67809Y33761D02*
X68190Y33761D01*
X67952Y34095D02*
X67952Y33238D01*
X67999Y33142D01*
X68095Y33095D01*
X68190Y33095D01*
X68523Y33095D02*
X68523Y33761D01*
X68523Y34095D02*
X68476Y34047D01*
X68523Y34000D01*
X68571Y34047D01*
X68523Y34095D01*
X68523Y34000D01*
X69142Y33095D02*
X69047Y33142D01*
X68999Y33190D01*
X68952Y33285D01*
X68952Y33571D01*
X68999Y33666D01*
X69047Y33714D01*
X69142Y33761D01*
X69285Y33761D01*
X69380Y33714D01*
X69428Y33666D01*
X69476Y33571D01*
X69476Y33285D01*
X69428Y33190D01*
X69380Y33142D01*
X69285Y33095D01*
X69142Y33095D01*
X69904Y33761D02*
X69904Y33095D01*
X69904Y33666D02*
X69952Y33714D01*
X70047Y33761D01*
X70190Y33761D01*
X70285Y33714D01*
X70333Y33619D01*
X70333Y33095D01*
X71571Y33095D02*
X71571Y33761D01*
X71571Y33666D02*
X71619Y33714D01*
X71714Y33761D01*
X71857Y33761D01*
X71952Y33714D01*
X71999Y33619D01*
X71999Y33095D01*
X71999Y33619D02*
X72047Y33714D01*
X72142Y33761D01*
X72285Y33761D01*
X72380Y33714D01*
X72428Y33619D01*
X72428Y33095D01*
X73333Y33761D02*
X73333Y33095D01*
X72904Y33761D02*
X72904Y33238D01*
X72952Y33142D01*
X73047Y33095D01*
X73190Y33095D01*
X73285Y33142D01*
X73333Y33190D01*
X73761Y33142D02*
X73857Y33095D01*
X74047Y33095D01*
X74142Y33142D01*
X74190Y33238D01*
X74190Y33285D01*
X74142Y33380D01*
X74047Y33428D01*
X73904Y33428D01*
X73809Y33476D01*
X73761Y33571D01*
X73761Y33619D01*
X73809Y33714D01*
X73904Y33761D01*
X74047Y33761D01*
X74142Y33714D01*
X74476Y33761D02*
X74857Y33761D01*
X74619Y34095D02*
X74619Y33238D01*
X74666Y33142D01*
X74761Y33095D01*
X74857Y33095D01*
X75952Y33095D02*
X75952Y34095D01*
X75952Y33714D02*
X76047Y33761D01*
X76238Y33761D01*
X76333Y33714D01*
X76380Y33666D01*
X76428Y33571D01*
X76428Y33285D01*
X76380Y33190D01*
X76333Y33142D01*
X76238Y33095D01*
X76047Y33095D01*
X75952Y33142D01*
X77238Y33142D02*
X77142Y33095D01*
X76952Y33095D01*
X76857Y33142D01*
X76809Y33238D01*
X76809Y33619D01*
X76857Y33714D01*
X76952Y33761D01*
X77142Y33761D01*
X77238Y33714D01*
X77285Y33619D01*
X77285Y33523D01*
X76809Y33428D01*
X78380Y33761D02*
X78571Y33095D01*
X78761Y33571D01*
X78952Y33095D01*
X79142Y33761D01*
X79523Y33095D02*
X79523Y33761D01*
X79523Y34095D02*
X79476Y34047D01*
X79523Y34000D01*
X79571Y34047D01*
X79523Y34095D01*
X79523Y34000D01*
X79857Y33761D02*
X80238Y33761D01*
X79999Y34095D02*
X79999Y33238D01*
X80047Y33142D01*
X80142Y33095D01*
X80238Y33095D01*
X80571Y33095D02*
X80571Y34095D01*
X80999Y33095D02*
X80999Y33619D01*
X80952Y33714D01*
X80857Y33761D01*
X80714Y33761D01*
X80619Y33714D01*
X80571Y33666D01*
X81476Y33095D02*
X81476Y33761D01*
X81476Y34095D02*
X81428Y34047D01*
X81476Y34000D01*
X81523Y34047D01*
X81476Y34095D01*
X81476Y34000D01*
X81952Y33761D02*
X81952Y33095D01*
X81952Y33666D02*
X81999Y33714D01*
X82095Y33761D01*
X82238Y33761D01*
X82333Y33714D01*
X82380Y33619D01*
X82380Y33095D01*
X83809Y34095D02*
X83904Y34095D01*
X83999Y34047D01*
X84047Y34000D01*
X84095Y33904D01*
X84142Y33714D01*
X84142Y33476D01*
X84095Y33285D01*
X84047Y33190D01*
X83999Y33142D01*
X83904Y33095D01*
X83809Y33095D01*
X83714Y33142D01*
X83666Y33190D01*
X83619Y33285D01*
X83571Y33476D01*
X83571Y33714D01*
X83619Y33904D01*
X83666Y34000D01*
X83714Y34047D01*
X83809Y34095D01*
X84571Y33190D02*
X84619Y33142D01*
X84571Y33095D01*
X84523Y33142D01*
X84571Y33190D01*
X84571Y33095D01*
X85238Y34095D02*
X85333Y34095D01*
X85428Y34047D01*
X85476Y34000D01*
X85523Y33904D01*
X85571Y33714D01*
X85571Y33476D01*
X85523Y33285D01*
X85476Y33190D01*
X85428Y33142D01*
X85333Y33095D01*
X85238Y33095D01*
X85142Y33142D01*
X85095Y33190D01*
X85047Y33285D01*
X84999Y33476D01*
X84999Y33714D01*
X85047Y33904D01*
X85095Y34000D01*
X85142Y34047D01*
X85238Y34095D01*
X86190Y34095D02*
X86285Y34095D01*
X86380Y34047D01*
X86428Y34000D01*
X86476Y33904D01*
X86523Y33714D01*
X86523Y33476D01*
X86476Y33285D01*
X86428Y33190D01*
X86380Y33142D01*
X86285Y33095D01*
X86190Y33095D01*
X86095Y33142D01*
X86047Y33190D01*
X85999Y33285D01*
X85952Y33476D01*
X85952Y33714D01*
X85999Y33904D01*
X86047Y34000D01*
X86095Y34047D01*
X86190Y34095D01*
X87095Y33666D02*
X86999Y33714D01*
X86952Y33761D01*
X86904Y33857D01*
X86904Y33904D01*
X86952Y34000D01*
X86999Y34047D01*
X87095Y34095D01*
X87285Y34095D01*
X87380Y34047D01*
X87428Y34000D01*
X87476Y33904D01*
X87476Y33857D01*
X87428Y33761D01*
X87380Y33714D01*
X87285Y33666D01*
X87095Y33666D01*
X86999Y33619D01*
X86952Y33571D01*
X86904Y33476D01*
X86904Y33285D01*
X86952Y33190D01*
X86999Y33142D01*
X87095Y33095D01*
X87285Y33095D01*
X87380Y33142D01*
X87428Y33190D01*
X87476Y33285D01*
X87476Y33476D01*
X87428Y33571D01*
X87380Y33619D01*
X87285Y33666D01*
X88666Y33095D02*
X88666Y33761D01*
X88666Y34095D02*
X88619Y34047D01*
X88666Y34000D01*
X88714Y34047D01*
X88666Y34095D01*
X88666Y34000D01*
X89142Y33761D02*
X89142Y33095D01*
X89142Y33666D02*
X89190Y33714D01*
X89285Y33761D01*
X89428Y33761D01*
X89523Y33714D01*
X89571Y33619D01*
X89571Y33095D01*
X90476Y33142D02*
X90380Y33095D01*
X90190Y33095D01*
X90095Y33142D01*
X90047Y33190D01*
X89999Y33285D01*
X89999Y33571D01*
X90047Y33666D01*
X90095Y33714D01*
X90190Y33761D01*
X90380Y33761D01*
X90476Y33714D01*
X90904Y33095D02*
X90904Y34095D01*
X91333Y33095D02*
X91333Y33619D01*
X91285Y33714D01*
X91190Y33761D01*
X91047Y33761D01*
X90952Y33714D01*
X90904Y33666D01*
X92714Y33095D02*
X92619Y33142D01*
X92571Y33190D01*
X92523Y33285D01*
X92523Y33571D01*
X92571Y33666D01*
X92619Y33714D01*
X92714Y33761D01*
X92857Y33761D01*
X92952Y33714D01*
X92999Y33666D01*
X93047Y33571D01*
X93047Y33285D01*
X92999Y33190D01*
X92952Y33142D01*
X92857Y33095D01*
X92714Y33095D01*
X93333Y33761D02*
X93714Y33761D01*
X93476Y33095D02*
X93476Y33952D01*
X93523Y34047D01*
X93619Y34095D01*
X93714Y34095D01*
X94666Y33761D02*
X95047Y33761D01*
X94809Y34095D02*
X94809Y33238D01*
X94857Y33142D01*
X94952Y33095D01*
X95047Y33095D01*
X95380Y33095D02*
X95380Y33761D01*
X95380Y33571D02*
X95428Y33666D01*
X95476Y33714D01*
X95571Y33761D01*
X95666Y33761D01*
X96428Y33761D02*
X96428Y33095D01*
X95999Y33761D02*
X95999Y33238D01*
X96047Y33142D01*
X96142Y33095D01*
X96285Y33095D01*
X96380Y33142D01*
X96428Y33190D01*
X97285Y33142D02*
X97190Y33095D01*
X96999Y33095D01*
X96904Y33142D01*
X96857Y33238D01*
X96857Y33619D01*
X96904Y33714D01*
X96999Y33761D01*
X97190Y33761D01*
X97285Y33714D01*
X97333Y33619D01*
X97333Y33523D01*
X96857Y33428D01*
X98523Y33761D02*
X98523Y32761D01*
X98523Y33714D02*
X98619Y33761D01*
X98809Y33761D01*
X98904Y33714D01*
X98952Y33666D01*
X98999Y33571D01*
X98999Y33285D01*
X98952Y33190D01*
X98904Y33142D01*
X98809Y33095D01*
X98619Y33095D01*
X98523Y33142D01*
X99571Y33095D02*
X99476Y33142D01*
X99428Y33190D01*
X99380Y33285D01*
X99380Y33571D01*
X99428Y33666D01*
X99476Y33714D01*
X99571Y33761D01*
X99714Y33761D01*
X99809Y33714D01*
X99857Y33666D01*
X99904Y33571D01*
X99904Y33285D01*
X99857Y33190D01*
X99809Y33142D01*
X99714Y33095D01*
X99571Y33095D01*
X100285Y33142D02*
X100380Y33095D01*
X100571Y33095D01*
X100666Y33142D01*
X100714Y33238D01*
X100714Y33285D01*
X100666Y33380D01*
X100571Y33428D01*
X100428Y33428D01*
X100333Y33476D01*
X100285Y33571D01*
X100285Y33619D01*
X100333Y33714D01*
X100428Y33761D01*
X100571Y33761D01*
X100666Y33714D01*
X101142Y33095D02*
X101142Y33761D01*
X101142Y34095D02*
X101095Y34047D01*
X101142Y34000D01*
X101190Y34047D01*
X101142Y34095D01*
X101142Y34000D01*
X101476Y33761D02*
X101857Y33761D01*
X101619Y34095D02*
X101619Y33238D01*
X101666Y33142D01*
X101761Y33095D01*
X101857Y33095D01*
X102190Y33095D02*
X102190Y33761D01*
X102190Y34095D02*
X102142Y34047D01*
X102190Y34000D01*
X102238Y34047D01*
X102190Y34095D01*
X102190Y34000D01*
X102809Y33095D02*
X102714Y33142D01*
X102666Y33190D01*
X102619Y33285D01*
X102619Y33571D01*
X102666Y33666D01*
X102714Y33714D01*
X102809Y33761D01*
X102952Y33761D01*
X103047Y33714D01*
X103095Y33666D01*
X103142Y33571D01*
X103142Y33285D01*
X103095Y33190D01*
X103047Y33142D01*
X102952Y33095D01*
X102809Y33095D01*
X103571Y33761D02*
X103571Y33095D01*
X103571Y33666D02*
X103619Y33714D01*
X103714Y33761D01*
X103857Y33761D01*
X103952Y33714D01*
X103999Y33619D01*
X103999Y33095D01*
X104476Y33190D02*
X104523Y33142D01*
X104476Y33095D01*
X104428Y33142D01*
X104476Y33190D01*
X104476Y33095D01*
X48666Y42261D02*
X48666Y41595D01*
X48428Y42642D02*
X48190Y41928D01*
X48809Y41928D01*
X49190Y41690D02*
X49238Y41642D01*
X49190Y41595D01*
X49142Y41642D01*
X49190Y41690D01*
X49190Y41595D01*
X51190Y41595D02*
X51190Y42595D01*
X51523Y41880D01*
X51857Y42595D01*
X51857Y41595D01*
X52285Y41880D02*
X52761Y41880D01*
X52190Y41595D02*
X52523Y42595D01*
X52857Y41595D01*
X53047Y42595D02*
X53619Y42595D01*
X53333Y41595D02*
X53333Y42595D01*
X53952Y42119D02*
X54285Y42119D01*
X54428Y41595D02*
X53952Y41595D01*
X53952Y42595D01*
X54428Y42595D01*
X55428Y41595D02*
X55095Y42071D01*
X54857Y41595D02*
X54857Y42595D01*
X55238Y42595D01*
X55333Y42547D01*
X55380Y42500D01*
X55428Y42404D01*
X55428Y42261D01*
X55380Y42166D01*
X55333Y42119D01*
X55238Y42071D01*
X54857Y42071D01*
X55857Y41595D02*
X55857Y42595D01*
X56285Y41880D02*
X56761Y41880D01*
X56190Y41595D02*
X56523Y42595D01*
X56857Y41595D01*
X57666Y41595D02*
X57190Y41595D01*
X57190Y42595D01*
X58000Y41690D02*
X58047Y41642D01*
X58000Y41595D01*
X57952Y41642D01*
X58000Y41690D01*
X58000Y41595D01*
X58000Y42214D02*
X58047Y42166D01*
X58000Y42119D01*
X57952Y42166D01*
X58000Y42214D01*
X58000Y42119D01*
X59714Y41595D02*
X59238Y41595D01*
X59238Y42595D01*
X60476Y41595D02*
X60476Y42119D01*
X60428Y42214D01*
X60333Y42261D01*
X60142Y42261D01*
X60047Y42214D01*
X60476Y41642D02*
X60380Y41595D01*
X60142Y41595D01*
X60047Y41642D01*
X60000Y41738D01*
X60000Y41833D01*
X60047Y41928D01*
X60142Y41976D01*
X60380Y41976D01*
X60476Y42023D01*
X60952Y41595D02*
X60952Y42261D01*
X60952Y42166D02*
X60999Y42214D01*
X61095Y42261D01*
X61238Y42261D01*
X61333Y42214D01*
X61380Y42119D01*
X61380Y41595D01*
X61380Y42119D02*
X61428Y42214D01*
X61523Y42261D01*
X61666Y42261D01*
X61761Y42214D01*
X61809Y42119D01*
X61809Y41595D01*
X62285Y41595D02*
X62285Y42261D01*
X62285Y42595D02*
X62238Y42547D01*
X62285Y42500D01*
X62333Y42547D01*
X62285Y42595D01*
X62285Y42500D01*
X62761Y42261D02*
X62761Y41595D01*
X62761Y42166D02*
X62809Y42214D01*
X62904Y42261D01*
X63047Y42261D01*
X63142Y42214D01*
X63190Y42119D01*
X63190Y41595D01*
X64095Y41595D02*
X64095Y42119D01*
X64047Y42214D01*
X63952Y42261D01*
X63761Y42261D01*
X63666Y42214D01*
X64095Y41642D02*
X64000Y41595D01*
X63761Y41595D01*
X63666Y41642D01*
X63619Y41738D01*
X63619Y41833D01*
X63666Y41928D01*
X63761Y41976D01*
X64000Y41976D01*
X64095Y42023D01*
X64428Y42261D02*
X64809Y42261D01*
X64571Y42595D02*
X64571Y41738D01*
X64619Y41642D01*
X64714Y41595D01*
X64809Y41595D01*
X65523Y41642D02*
X65428Y41595D01*
X65238Y41595D01*
X65142Y41642D01*
X65095Y41738D01*
X65095Y42119D01*
X65142Y42214D01*
X65238Y42261D01*
X65428Y42261D01*
X65523Y42214D01*
X65571Y42119D01*
X65571Y42023D01*
X65095Y41928D01*
X66428Y41595D02*
X66428Y42595D01*
X66428Y41642D02*
X66333Y41595D01*
X66142Y41595D01*
X66047Y41642D01*
X66000Y41690D01*
X65952Y41785D01*
X65952Y42071D01*
X66000Y42166D01*
X66047Y42214D01*
X66142Y42261D01*
X66333Y42261D01*
X66428Y42214D01*
X68190Y42547D02*
X68095Y42595D01*
X67952Y42595D01*
X67809Y42547D01*
X67714Y42452D01*
X67666Y42357D01*
X67619Y42166D01*
X67619Y42023D01*
X67666Y41833D01*
X67714Y41738D01*
X67809Y41642D01*
X67952Y41595D01*
X68047Y41595D01*
X68190Y41642D01*
X68238Y41690D01*
X68238Y42023D01*
X68047Y42023D01*
X68809Y41595D02*
X68714Y41642D01*
X68666Y41738D01*
X68666Y42595D01*
X69619Y41595D02*
X69619Y42119D01*
X69571Y42214D01*
X69476Y42261D01*
X69285Y42261D01*
X69190Y42214D01*
X69619Y41642D02*
X69523Y41595D01*
X69285Y41595D01*
X69190Y41642D01*
X69142Y41738D01*
X69142Y41833D01*
X69190Y41928D01*
X69285Y41976D01*
X69523Y41976D01*
X69619Y42023D01*
X70047Y41642D02*
X70142Y41595D01*
X70333Y41595D01*
X70428Y41642D01*
X70476Y41738D01*
X70476Y41785D01*
X70428Y41880D01*
X70333Y41928D01*
X70190Y41928D01*
X70095Y41976D01*
X70047Y42071D01*
X70047Y42119D01*
X70095Y42214D01*
X70190Y42261D01*
X70333Y42261D01*
X70428Y42214D01*
X70857Y41642D02*
X70952Y41595D01*
X71142Y41595D01*
X71238Y41642D01*
X71285Y41738D01*
X71285Y41785D01*
X71238Y41880D01*
X71142Y41928D01*
X70999Y41928D01*
X70904Y41976D01*
X70857Y42071D01*
X70857Y42119D01*
X70904Y42214D01*
X70999Y42261D01*
X71142Y42261D01*
X71238Y42214D01*
X72476Y42119D02*
X72809Y42119D01*
X72952Y41595D02*
X72476Y41595D01*
X72476Y42595D01*
X72952Y42595D01*
X73380Y42261D02*
X73380Y41261D01*
X73380Y42214D02*
X73476Y42261D01*
X73666Y42261D01*
X73761Y42214D01*
X73809Y42166D01*
X73857Y42071D01*
X73857Y41785D01*
X73809Y41690D01*
X73761Y41642D01*
X73666Y41595D01*
X73476Y41595D01*
X73380Y41642D01*
X74428Y41595D02*
X74333Y41642D01*
X74285Y41690D01*
X74238Y41785D01*
X74238Y42071D01*
X74285Y42166D01*
X74333Y42214D01*
X74428Y42261D01*
X74571Y42261D01*
X74666Y42214D01*
X74714Y42166D01*
X74761Y42071D01*
X74761Y41785D01*
X74714Y41690D01*
X74666Y41642D01*
X74571Y41595D01*
X74428Y41595D01*
X75095Y41595D02*
X75619Y42261D01*
X75095Y42261D02*
X75619Y41595D01*
X75904Y42261D02*
X76142Y41595D01*
X76380Y42261D02*
X76142Y41595D01*
X76047Y41357D01*
X75999Y41309D01*
X75904Y41261D01*
X77857Y42119D02*
X77523Y42119D01*
X77523Y41595D02*
X77523Y42595D01*
X77999Y42595D01*
X78952Y41595D02*
X78619Y42071D01*
X78380Y41595D02*
X78380Y42595D01*
X78761Y42595D01*
X78857Y42547D01*
X78904Y42500D01*
X78952Y42404D01*
X78952Y42261D01*
X78904Y42166D01*
X78857Y42119D01*
X78761Y42071D01*
X78380Y42071D01*
X79380Y41976D02*
X80142Y41976D01*
X81047Y42261D02*
X81047Y41595D01*
X80809Y42642D02*
X80571Y41928D01*
X81190Y41928D01*
X82476Y41595D02*
X82380Y41642D01*
X82333Y41690D01*
X82285Y41785D01*
X82285Y42071D01*
X82333Y42166D01*
X82380Y42214D01*
X82476Y42261D01*
X82619Y42261D01*
X82714Y42214D01*
X82761Y42166D01*
X82809Y42071D01*
X82809Y41785D01*
X82761Y41690D01*
X82714Y41642D01*
X82619Y41595D01*
X82476Y41595D01*
X83238Y41595D02*
X83238Y42261D01*
X83238Y42071D02*
X83285Y42166D01*
X83333Y42214D01*
X83428Y42261D01*
X83523Y42261D01*
X84999Y41642D02*
X84904Y41595D01*
X84714Y41595D01*
X84619Y41642D01*
X84571Y41738D01*
X84571Y42119D01*
X84619Y42214D01*
X84714Y42261D01*
X84904Y42261D01*
X84999Y42214D01*
X85047Y42119D01*
X85047Y42023D01*
X84571Y41928D01*
X85904Y42261D02*
X85904Y41261D01*
X85904Y41642D02*
X85809Y41595D01*
X85619Y41595D01*
X85523Y41642D01*
X85476Y41690D01*
X85428Y41785D01*
X85428Y42071D01*
X85476Y42166D01*
X85523Y42214D01*
X85619Y42261D01*
X85809Y42261D01*
X85904Y42214D01*
X86809Y42261D02*
X86809Y41595D01*
X86380Y42261D02*
X86380Y41738D01*
X86428Y41642D01*
X86523Y41595D01*
X86666Y41595D01*
X86761Y41642D01*
X86809Y41690D01*
X87285Y41595D02*
X87285Y42261D01*
X87285Y42595D02*
X87238Y42547D01*
X87285Y42500D01*
X87333Y42547D01*
X87285Y42595D01*
X87285Y42500D01*
X87666Y42261D02*
X87904Y41595D01*
X88142Y42261D01*
X88952Y41595D02*
X88952Y42119D01*
X88904Y42214D01*
X88809Y42261D01*
X88619Y42261D01*
X88523Y42214D01*
X88952Y41642D02*
X88857Y41595D01*
X88619Y41595D01*
X88523Y41642D01*
X88476Y41738D01*
X88476Y41833D01*
X88523Y41928D01*
X88619Y41976D01*
X88857Y41976D01*
X88952Y42023D01*
X89571Y41595D02*
X89476Y41642D01*
X89428Y41738D01*
X89428Y42595D01*
X90333Y41642D02*
X90238Y41595D01*
X90047Y41595D01*
X89952Y41642D01*
X89904Y41738D01*
X89904Y42119D01*
X89952Y42214D01*
X90047Y42261D01*
X90238Y42261D01*
X90333Y42214D01*
X90380Y42119D01*
X90380Y42023D01*
X89904Y41928D01*
X90809Y42261D02*
X90809Y41595D01*
X90809Y42166D02*
X90857Y42214D01*
X90952Y42261D01*
X91095Y42261D01*
X91190Y42214D01*
X91238Y42119D01*
X91238Y41595D01*
X91571Y42261D02*
X91952Y42261D01*
X91714Y42595D02*
X91714Y41738D01*
X91761Y41642D01*
X91857Y41595D01*
X91952Y41595D01*
X92285Y41690D02*
X92333Y41642D01*
X92285Y41595D01*
X92238Y41642D01*
X92285Y41690D01*
X92285Y41595D01*
X93857Y42119D02*
X93999Y42071D01*
X94047Y42023D01*
X94095Y41928D01*
X94095Y41785D01*
X94047Y41690D01*
X93999Y41642D01*
X93904Y41595D01*
X93523Y41595D01*
X93523Y42595D01*
X93857Y42595D01*
X93952Y42547D01*
X93999Y42500D01*
X94047Y42404D01*
X94047Y42309D01*
X93999Y42214D01*
X93952Y42166D01*
X93857Y42119D01*
X93523Y42119D01*
X94666Y41595D02*
X94571Y41642D01*
X94523Y41690D01*
X94476Y41785D01*
X94476Y42071D01*
X94523Y42166D01*
X94571Y42214D01*
X94666Y42261D01*
X94809Y42261D01*
X94904Y42214D01*
X94952Y42166D01*
X94999Y42071D01*
X94999Y41785D01*
X94952Y41690D01*
X94904Y41642D01*
X94809Y41595D01*
X94666Y41595D01*
X95857Y41595D02*
X95857Y42119D01*
X95809Y42214D01*
X95714Y42261D01*
X95523Y42261D01*
X95428Y42214D01*
X95857Y41642D02*
X95761Y41595D01*
X95523Y41595D01*
X95428Y41642D01*
X95380Y41738D01*
X95380Y41833D01*
X95428Y41928D01*
X95523Y41976D01*
X95761Y41976D01*
X95857Y42023D01*
X96333Y41595D02*
X96333Y42261D01*
X96333Y42071D02*
X96380Y42166D01*
X96428Y42214D01*
X96523Y42261D01*
X96619Y42261D01*
X97380Y41595D02*
X97380Y42595D01*
X97380Y41642D02*
X97285Y41595D01*
X97095Y41595D01*
X96999Y41642D01*
X96952Y41690D01*
X96904Y41785D01*
X96904Y42071D01*
X96952Y42166D01*
X96999Y42214D01*
X97095Y42261D01*
X97285Y42261D01*
X97380Y42214D01*
X98476Y42261D02*
X98857Y42261D01*
X98619Y42595D02*
X98619Y41738D01*
X98666Y41642D01*
X98761Y41595D01*
X98857Y41595D01*
X99190Y41595D02*
X99190Y42595D01*
X99619Y41595D02*
X99619Y42119D01*
X99571Y42214D01*
X99476Y42261D01*
X99333Y42261D01*
X99238Y42214D01*
X99190Y42166D01*
X100095Y41595D02*
X100095Y42261D01*
X100095Y42595D02*
X100047Y42547D01*
X100095Y42500D01*
X100142Y42547D01*
X100095Y42595D01*
X100095Y42500D01*
X100999Y41642D02*
X100904Y41595D01*
X100714Y41595D01*
X100619Y41642D01*
X100571Y41690D01*
X100523Y41785D01*
X100523Y42071D01*
X100571Y42166D01*
X100619Y42214D01*
X100714Y42261D01*
X100904Y42261D01*
X100999Y42214D01*
X101428Y41595D02*
X101428Y42595D01*
X101523Y41976D02*
X101809Y41595D01*
X101809Y42261D02*
X101428Y41880D01*
X102238Y42261D02*
X102238Y41595D01*
X102238Y42166D02*
X102285Y42214D01*
X102380Y42261D01*
X102523Y42261D01*
X102619Y42214D01*
X102666Y42119D01*
X102666Y41595D01*
X103523Y41642D02*
X103428Y41595D01*
X103238Y41595D01*
X103142Y41642D01*
X103095Y41738D01*
X103095Y42119D01*
X103142Y42214D01*
X103238Y42261D01*
X103428Y42261D01*
X103523Y42214D01*
X103571Y42119D01*
X103571Y42023D01*
X103095Y41928D01*
X103952Y41642D02*
X104047Y41595D01*
X104238Y41595D01*
X104333Y41642D01*
X104380Y41738D01*
X104380Y41785D01*
X104333Y41880D01*
X104238Y41928D01*
X104095Y41928D01*
X103999Y41976D01*
X103952Y42071D01*
X103952Y42119D01*
X103999Y42214D01*
X104095Y42261D01*
X104238Y42261D01*
X104333Y42214D01*
X104761Y41642D02*
X104857Y41595D01*
X105047Y41595D01*
X105142Y41642D01*
X105190Y41738D01*
X105190Y41785D01*
X105142Y41880D01*
X105047Y41928D01*
X104904Y41928D01*
X104809Y41976D01*
X104761Y42071D01*
X104761Y42119D01*
X104809Y42214D01*
X104904Y42261D01*
X105047Y42261D01*
X105142Y42214D01*
X106571Y42595D02*
X106666Y42595D01*
X106761Y42547D01*
X106809Y42500D01*
X106857Y42404D01*
X106904Y42214D01*
X106904Y41976D01*
X106857Y41785D01*
X106809Y41690D01*
X106761Y41642D01*
X106666Y41595D01*
X106571Y41595D01*
X106476Y41642D01*
X106428Y41690D01*
X106380Y41785D01*
X106333Y41976D01*
X106333Y42214D01*
X106380Y42404D01*
X106428Y42500D01*
X106476Y42547D01*
X106571Y42595D01*
X107333Y41690D02*
X107380Y41642D01*
X107333Y41595D01*
X107285Y41642D01*
X107333Y41690D01*
X107333Y41595D01*
X107999Y42595D02*
X108095Y42595D01*
X108190Y42547D01*
X108238Y42500D01*
X108285Y42404D01*
X108333Y42214D01*
X108333Y41976D01*
X108285Y41785D01*
X108238Y41690D01*
X108190Y41642D01*
X108095Y41595D01*
X107999Y41595D01*
X107904Y41642D01*
X107857Y41690D01*
X107809Y41785D01*
X107761Y41976D01*
X107761Y42214D01*
X107809Y42404D01*
X107857Y42500D01*
X107904Y42547D01*
X107999Y42595D01*
X109190Y42595D02*
X108999Y42595D01*
X108904Y42547D01*
X108857Y42500D01*
X108761Y42357D01*
X108714Y42166D01*
X108714Y41785D01*
X108761Y41690D01*
X108809Y41642D01*
X108904Y41595D01*
X109095Y41595D01*
X109190Y41642D01*
X109238Y41690D01*
X109285Y41785D01*
X109285Y42023D01*
X109238Y42119D01*
X109190Y42166D01*
X109095Y42214D01*
X108904Y42214D01*
X108809Y42166D01*
X108761Y42119D01*
X108714Y42023D01*
X109666Y42500D02*
X109714Y42547D01*
X109809Y42595D01*
X110047Y42595D01*
X110142Y42547D01*
X110190Y42500D01*
X110238Y42404D01*
X110238Y42309D01*
X110190Y42166D01*
X109619Y41595D01*
X110238Y41595D01*
X111428Y41595D02*
X111428Y42261D01*
X111428Y42595D02*
X111380Y42547D01*
X111428Y42500D01*
X111476Y42547D01*
X111428Y42595D01*
X111428Y42500D01*
X111904Y42261D02*
X111904Y41595D01*
X111904Y42166D02*
X111952Y42214D01*
X112047Y42261D01*
X112190Y42261D01*
X112285Y42214D01*
X112333Y42119D01*
X112333Y41595D01*
X113238Y41642D02*
X113142Y41595D01*
X112952Y41595D01*
X112857Y41642D01*
X112809Y41690D01*
X112761Y41785D01*
X112761Y42071D01*
X112809Y42166D01*
X112857Y42214D01*
X112952Y42261D01*
X113142Y42261D01*
X113238Y42214D01*
X113666Y41595D02*
X113666Y42595D01*
X114095Y41595D02*
X114095Y42119D01*
X114047Y42214D01*
X113952Y42261D01*
X113809Y42261D01*
X113714Y42214D01*
X113666Y42166D01*
X114571Y41690D02*
X114619Y41642D01*
X114571Y41595D01*
X114523Y41642D01*
X114571Y41690D01*
X114571Y41595D01*
X51809Y40095D02*
X51238Y40095D01*
X51523Y40095D02*
X51523Y41095D01*
X51428Y40952D01*
X51333Y40857D01*
X51238Y40809D01*
X53142Y40095D02*
X53047Y40142D01*
X53000Y40190D01*
X52952Y40285D01*
X52952Y40571D01*
X53000Y40666D01*
X53047Y40714D01*
X53142Y40761D01*
X53285Y40761D01*
X53380Y40714D01*
X53428Y40666D01*
X53476Y40571D01*
X53476Y40285D01*
X53428Y40190D01*
X53380Y40142D01*
X53285Y40095D01*
X53142Y40095D01*
X53809Y40761D02*
X54333Y40761D01*
X53809Y40095D01*
X54333Y40095D01*
X56047Y40190D02*
X55999Y40142D01*
X55857Y40095D01*
X55761Y40095D01*
X55619Y40142D01*
X55523Y40238D01*
X55476Y40333D01*
X55428Y40523D01*
X55428Y40666D01*
X55476Y40857D01*
X55523Y40952D01*
X55619Y41047D01*
X55761Y41095D01*
X55857Y41095D01*
X55999Y41047D01*
X56047Y41000D01*
X56619Y40095D02*
X56523Y40142D01*
X56476Y40190D01*
X56428Y40285D01*
X56428Y40571D01*
X56476Y40666D01*
X56523Y40714D01*
X56619Y40761D01*
X56761Y40761D01*
X56857Y40714D01*
X56904Y40666D01*
X56952Y40571D01*
X56952Y40285D01*
X56904Y40190D01*
X56857Y40142D01*
X56761Y40095D01*
X56619Y40095D01*
X57380Y40761D02*
X57380Y39761D01*
X57380Y40714D02*
X57476Y40761D01*
X57666Y40761D01*
X57761Y40714D01*
X57809Y40666D01*
X57857Y40571D01*
X57857Y40285D01*
X57809Y40190D01*
X57761Y40142D01*
X57666Y40095D01*
X57476Y40095D01*
X57380Y40142D01*
X58285Y40761D02*
X58285Y39761D01*
X58285Y40714D02*
X58380Y40761D01*
X58571Y40761D01*
X58666Y40714D01*
X58714Y40666D01*
X58761Y40571D01*
X58761Y40285D01*
X58714Y40190D01*
X58666Y40142D01*
X58571Y40095D01*
X58380Y40095D01*
X58285Y40142D01*
X59571Y40142D02*
X59476Y40095D01*
X59285Y40095D01*
X59190Y40142D01*
X59142Y40238D01*
X59142Y40619D01*
X59190Y40714D01*
X59285Y40761D01*
X59476Y40761D01*
X59571Y40714D01*
X59619Y40619D01*
X59619Y40523D01*
X59142Y40428D01*
X60047Y40095D02*
X60047Y40761D01*
X60047Y40571D02*
X60095Y40666D01*
X60142Y40714D01*
X60238Y40761D01*
X60333Y40761D01*
X61285Y40761D02*
X61666Y40761D01*
X61428Y40095D02*
X61428Y40952D01*
X61476Y41047D01*
X61571Y41095D01*
X61666Y41095D01*
X62142Y40095D02*
X62047Y40142D01*
X61999Y40190D01*
X61952Y40285D01*
X61952Y40571D01*
X61999Y40666D01*
X62047Y40714D01*
X62142Y40761D01*
X62285Y40761D01*
X62380Y40714D01*
X62428Y40666D01*
X62476Y40571D01*
X62476Y40285D01*
X62428Y40190D01*
X62380Y40142D01*
X62285Y40095D01*
X62142Y40095D01*
X62904Y40095D02*
X62904Y40761D01*
X62904Y40571D02*
X62952Y40666D01*
X62999Y40714D01*
X63095Y40761D01*
X63190Y40761D01*
X64714Y40095D02*
X64714Y40619D01*
X64666Y40714D01*
X64571Y40761D01*
X64380Y40761D01*
X64285Y40714D01*
X64714Y40142D02*
X64619Y40095D01*
X64380Y40095D01*
X64285Y40142D01*
X64238Y40238D01*
X64238Y40333D01*
X64285Y40428D01*
X64380Y40476D01*
X64619Y40476D01*
X64714Y40523D01*
X65333Y40095D02*
X65238Y40142D01*
X65190Y40238D01*
X65190Y41095D01*
X65857Y40095D02*
X65761Y40142D01*
X65714Y40238D01*
X65714Y41095D01*
X66999Y40095D02*
X66999Y40761D01*
X66999Y40666D02*
X67047Y40714D01*
X67142Y40761D01*
X67285Y40761D01*
X67380Y40714D01*
X67428Y40619D01*
X67428Y40095D01*
X67428Y40619D02*
X67476Y40714D01*
X67571Y40761D01*
X67714Y40761D01*
X67809Y40714D01*
X67857Y40619D01*
X67857Y40095D01*
X68714Y40142D02*
X68619Y40095D01*
X68428Y40095D01*
X68333Y40142D01*
X68285Y40238D01*
X68285Y40619D01*
X68333Y40714D01*
X68428Y40761D01*
X68619Y40761D01*
X68714Y40714D01*
X68761Y40619D01*
X68761Y40523D01*
X68285Y40428D01*
X69047Y40761D02*
X69428Y40761D01*
X69190Y41095D02*
X69190Y40238D01*
X69238Y40142D01*
X69333Y40095D01*
X69428Y40095D01*
X70190Y40095D02*
X70190Y40619D01*
X70142Y40714D01*
X70047Y40761D01*
X69857Y40761D01*
X69761Y40714D01*
X70190Y40142D02*
X70095Y40095D01*
X69857Y40095D01*
X69761Y40142D01*
X69714Y40238D01*
X69714Y40333D01*
X69761Y40428D01*
X69857Y40476D01*
X70095Y40476D01*
X70190Y40523D01*
X70809Y40095D02*
X70714Y40142D01*
X70666Y40238D01*
X70666Y41095D01*
X72095Y40095D02*
X71999Y40142D01*
X71952Y40238D01*
X71952Y41095D01*
X72904Y40095D02*
X72904Y40619D01*
X72857Y40714D01*
X72761Y40761D01*
X72571Y40761D01*
X72476Y40714D01*
X72904Y40142D02*
X72809Y40095D01*
X72571Y40095D01*
X72476Y40142D01*
X72428Y40238D01*
X72428Y40333D01*
X72476Y40428D01*
X72571Y40476D01*
X72809Y40476D01*
X72904Y40523D01*
X73285Y40761D02*
X73523Y40095D01*
X73761Y40761D02*
X73523Y40095D01*
X73428Y39857D01*
X73380Y39809D01*
X73285Y39761D01*
X74523Y40142D02*
X74428Y40095D01*
X74238Y40095D01*
X74142Y40142D01*
X74095Y40238D01*
X74095Y40619D01*
X74142Y40714D01*
X74238Y40761D01*
X74428Y40761D01*
X74523Y40714D01*
X74571Y40619D01*
X74571Y40523D01*
X74095Y40428D01*
X74999Y40095D02*
X74999Y40761D01*
X74999Y40571D02*
X75047Y40666D01*
X75095Y40714D01*
X75190Y40761D01*
X75285Y40761D01*
X75571Y40142D02*
X75666Y40095D01*
X75857Y40095D01*
X75952Y40142D01*
X75999Y40238D01*
X75999Y40285D01*
X75952Y40380D01*
X75857Y40428D01*
X75714Y40428D01*
X75619Y40476D01*
X75571Y40571D01*
X75571Y40619D01*
X75619Y40714D01*
X75714Y40761D01*
X75857Y40761D01*
X75952Y40714D01*
X76428Y40190D02*
X76476Y40142D01*
X76428Y40095D01*
X76380Y40142D01*
X76428Y40190D01*
X76428Y40095D01*
X-5295Y26976D02*
X-5295Y26785D01*
X-5247Y26690D01*
X-5200Y26642D01*
X-5057Y26547D01*
X-4866Y26500D01*
X-4485Y26500D01*
X-4390Y26547D01*
X-4342Y26595D01*
X-4295Y26690D01*
X-4295Y26880D01*
X-4342Y26976D01*
X-4390Y27023D01*
X-4485Y27071D01*
X-4723Y27071D01*
X-4819Y27023D01*
X-4866Y26976D01*
X-4914Y26880D01*
X-4914Y26690D01*
X-4866Y26595D01*
X-4819Y26547D01*
X-4723Y26500D01*
X-4390Y27500D02*
X-4342Y27547D01*
X-4295Y27500D01*
X-4342Y27452D01*
X-4390Y27500D01*
X-4295Y27500D01*
X-5295Y28166D02*
X-5295Y28261D01*
X-5247Y28357D01*
X-5200Y28404D01*
X-5104Y28452D01*
X-4914Y28500D01*
X-4676Y28500D01*
X-4485Y28452D01*
X-4390Y28404D01*
X-4342Y28357D01*
X-4295Y28261D01*
X-4295Y28166D01*
X-4342Y28071D01*
X-4390Y28023D01*
X-4485Y27976D01*
X-4676Y27928D01*
X-4914Y27928D01*
X-5104Y27976D01*
X-5200Y28023D01*
X-5247Y28071D01*
X-5295Y28166D01*
X-5295Y29119D02*
X-5295Y29214D01*
X-5247Y29309D01*
X-5200Y29357D01*
X-5104Y29404D01*
X-4914Y29452D01*
X-4676Y29452D01*
X-4485Y29404D01*
X-4390Y29357D01*
X-4342Y29309D01*
X-4295Y29214D01*
X-4295Y29119D01*
X-4342Y29023D01*
X-4390Y28976D01*
X-4485Y28928D01*
X-4676Y28880D01*
X-4914Y28880D01*
X-5104Y28928D01*
X-5200Y28976D01*
X-5247Y29023D01*
X-5295Y29119D01*
X-5295Y30071D02*
X-5295Y30166D01*
X-5247Y30261D01*
X-5200Y30309D01*
X-5104Y30357D01*
X-4914Y30404D01*
X-4676Y30404D01*
X-4485Y30357D01*
X-4390Y30309D01*
X-4342Y30261D01*
X-4295Y30166D01*
X-4295Y30071D01*
X-4342Y29976D01*
X-4390Y29928D01*
X-4485Y29880D01*
X-4676Y29833D01*
X-4914Y29833D01*
X-5104Y29880D01*
X-5200Y29928D01*
X-5247Y29976D01*
X-5295Y30071D01*
X-5295Y31023D02*
X-5295Y31119D01*
X-5247Y31214D01*
X-5200Y31261D01*
X-5104Y31309D01*
X-4914Y31357D01*
X-4676Y31357D01*
X-4485Y31309D01*
X-4390Y31261D01*
X-4342Y31214D01*
X-4295Y31119D01*
X-4295Y31023D01*
X-4342Y30928D01*
X-4390Y30880D01*
X-4485Y30833D01*
X-4676Y30785D01*
X-4914Y30785D01*
X-5104Y30833D01*
X-5200Y30880D01*
X-5247Y30928D01*
X-5295Y31023D01*
X-4295Y32547D02*
X-4961Y32547D01*
X-5295Y32547D02*
X-5247Y32500D01*
X-5200Y32547D01*
X-5247Y32595D01*
X-5295Y32547D01*
X-5200Y32547D01*
X-4961Y33023D02*
X-4295Y33023D01*
X-4866Y33023D02*
X-4914Y33071D01*
X-4961Y33166D01*
X-4961Y33309D01*
X-4914Y33404D01*
X-4819Y33452D01*
X-4295Y33452D01*
X-4000Y0D02*
X-4000Y60000D01*
X0Y0D02*
X-5400Y0D01*
X0Y60000D02*
X-5400Y60000D01*
X-4000Y60000D02*
X-3769Y59556D01*
X-4000Y60000D02*
X-4230Y59556D01*
X-4000Y0D02*
X-3769Y443D01*
X-4000Y0D02*
X-4230Y443D01*
X17976Y64961D02*
X17976Y64295D01*
X17738Y65342D02*
X17500Y64628D01*
X18119Y64628D01*
X18500Y64390D02*
X18547Y64342D01*
X18500Y64295D01*
X18452Y64342D01*
X18500Y64390D01*
X18500Y64295D01*
X18928Y65199D02*
X18976Y65247D01*
X19071Y65295D01*
X19309Y65295D01*
X19404Y65247D01*
X19452Y65199D01*
X19500Y65104D01*
X19500Y65009D01*
X19452Y64866D01*
X18880Y64295D01*
X19500Y64295D01*
X20119Y65295D02*
X20214Y65295D01*
X20309Y65247D01*
X20357Y65199D01*
X20404Y65104D01*
X20452Y64914D01*
X20452Y64676D01*
X20404Y64485D01*
X20357Y64390D01*
X20309Y64342D01*
X20214Y64295D01*
X20119Y64295D01*
X20023Y64342D01*
X19976Y64390D01*
X19928Y64485D01*
X19880Y64676D01*
X19880Y64914D01*
X19928Y65104D01*
X19976Y65199D01*
X20023Y65247D01*
X20119Y65295D01*
X21071Y65295D02*
X21166Y65295D01*
X21261Y65247D01*
X21309Y65199D01*
X21357Y65104D01*
X21404Y64914D01*
X21404Y64676D01*
X21357Y64485D01*
X21309Y64390D01*
X21261Y64342D01*
X21166Y64295D01*
X21071Y64295D01*
X20976Y64342D01*
X20928Y64390D01*
X20880Y64485D01*
X20833Y64676D01*
X20833Y64914D01*
X20880Y65104D01*
X20928Y65199D01*
X20976Y65247D01*
X21071Y65295D01*
X22023Y65295D02*
X22119Y65295D01*
X22214Y65247D01*
X22261Y65199D01*
X22309Y65104D01*
X22357Y64914D01*
X22357Y64676D01*
X22309Y64485D01*
X22261Y64390D01*
X22214Y64342D01*
X22119Y64295D01*
X22023Y64295D01*
X21928Y64342D01*
X21880Y64390D01*
X21833Y64485D01*
X21785Y64676D01*
X21785Y64914D01*
X21833Y65104D01*
X21880Y65199D01*
X21928Y65247D01*
X22023Y65295D01*
X23547Y64295D02*
X23547Y64961D01*
X23547Y65295D02*
X23500Y65247D01*
X23547Y65199D01*
X23595Y65247D01*
X23547Y65295D01*
X23547Y65199D01*
X24023Y64961D02*
X24023Y64295D01*
X24023Y64866D02*
X24071Y64914D01*
X24166Y64961D01*
X24309Y64961D01*
X24404Y64914D01*
X24452Y64819D01*
X24452Y64295D01*
X0Y63999D02*
X42000Y63999D01*
X0Y60000D02*
X0Y65399D01*
X42000Y60000D02*
X42000Y65399D01*
X42000Y63999D02*
X41556Y63769D01*
X42000Y63999D02*
X41556Y64230D01*
X0Y63999D02*
X443Y63769D01*
X0Y63999D02*
X443Y64230D01*
X48142Y45595D02*
X48761Y45595D01*
X48428Y45214D01*
X48571Y45214D01*
X48666Y45166D01*
X48714Y45119D01*
X48761Y45023D01*
X48761Y44785D01*
X48714Y44690D01*
X48666Y44642D01*
X48571Y44595D01*
X48285Y44595D01*
X48190Y44642D01*
X48142Y44690D01*
X49190Y44690D02*
X49238Y44642D01*
X49190Y44595D01*
X49142Y44642D01*
X49190Y44690D01*
X49190Y44595D01*
X51142Y44880D02*
X51619Y44880D01*
X51047Y44595D02*
X51380Y45595D01*
X51714Y44595D01*
X52476Y44642D02*
X52380Y44595D01*
X52190Y44595D01*
X52095Y44642D01*
X52047Y44690D01*
X52000Y44785D01*
X52000Y45071D01*
X52047Y45166D01*
X52095Y45214D01*
X52190Y45261D01*
X52380Y45261D01*
X52476Y45214D01*
X53333Y44642D02*
X53238Y44595D01*
X53047Y44595D01*
X52952Y44642D01*
X52904Y44690D01*
X52857Y44785D01*
X52857Y45071D01*
X52904Y45166D01*
X52952Y45214D01*
X53047Y45261D01*
X53238Y45261D01*
X53333Y45214D01*
X54142Y44642D02*
X54047Y44595D01*
X53857Y44595D01*
X53761Y44642D01*
X53714Y44738D01*
X53714Y45119D01*
X53761Y45214D01*
X53857Y45261D01*
X54047Y45261D01*
X54142Y45214D01*
X54190Y45119D01*
X54190Y45023D01*
X53714Y44928D01*
X54619Y45261D02*
X54619Y44261D01*
X54619Y45214D02*
X54714Y45261D01*
X54904Y45261D01*
X55000Y45214D01*
X55047Y45166D01*
X55095Y45071D01*
X55095Y44785D01*
X55047Y44690D01*
X55000Y44642D01*
X54904Y44595D01*
X54714Y44595D01*
X54619Y44642D01*
X55380Y45261D02*
X55761Y45261D01*
X55523Y45595D02*
X55523Y44738D01*
X55571Y44642D01*
X55666Y44595D01*
X55761Y44595D01*
X56095Y44595D02*
X56095Y45261D01*
X56095Y45595D02*
X56047Y45547D01*
X56095Y45500D01*
X56142Y45547D01*
X56095Y45595D01*
X56095Y45500D01*
X56571Y44595D02*
X56571Y45595D01*
X56571Y45214D02*
X56666Y45261D01*
X56857Y45261D01*
X56952Y45214D01*
X57000Y45166D01*
X57047Y45071D01*
X57047Y44785D01*
X57000Y44690D01*
X56952Y44642D01*
X56857Y44595D01*
X56666Y44595D01*
X56571Y44642D01*
X57476Y44595D02*
X57476Y45261D01*
X57476Y45595D02*
X57428Y45547D01*
X57476Y45500D01*
X57523Y45547D01*
X57476Y45595D01*
X57476Y45500D01*
X58095Y44595D02*
X58000Y44642D01*
X57952Y44738D01*
X57952Y45595D01*
X58476Y44595D02*
X58476Y45261D01*
X58476Y45595D02*
X58428Y45547D01*
X58476Y45500D01*
X58523Y45547D01*
X58476Y45595D01*
X58476Y45500D01*
X58809Y45261D02*
X59190Y45261D01*
X58952Y45595D02*
X58952Y44738D01*
X59000Y44642D01*
X59095Y44595D01*
X59190Y44595D01*
X59428Y45261D02*
X59666Y44595D01*
X59904Y45261D02*
X59666Y44595D01*
X59571Y44357D01*
X59523Y44309D01*
X59428Y44261D01*
X61000Y44642D02*
X61095Y44595D01*
X61285Y44595D01*
X61380Y44642D01*
X61428Y44738D01*
X61428Y44785D01*
X61380Y44880D01*
X61285Y44928D01*
X61142Y44928D01*
X61047Y44976D01*
X61000Y45071D01*
X61000Y45119D01*
X61047Y45214D01*
X61142Y45261D01*
X61285Y45261D01*
X61380Y45214D01*
X61857Y44595D02*
X61857Y45595D01*
X62285Y44595D02*
X62285Y45119D01*
X62238Y45214D01*
X62142Y45261D01*
X62000Y45261D01*
X61904Y45214D01*
X61857Y45166D01*
X63190Y44595D02*
X63190Y45119D01*
X63142Y45214D01*
X63047Y45261D01*
X62857Y45261D01*
X62761Y45214D01*
X63190Y44642D02*
X63095Y44595D01*
X62857Y44595D01*
X62761Y44642D01*
X62714Y44738D01*
X62714Y44833D01*
X62761Y44928D01*
X62857Y44976D01*
X63095Y44976D01*
X63190Y45023D01*
X63809Y44595D02*
X63714Y44642D01*
X63666Y44738D01*
X63666Y45595D01*
X64333Y44595D02*
X64238Y44642D01*
X64190Y44738D01*
X64190Y45595D01*
X65476Y44595D02*
X65476Y45595D01*
X65476Y45214D02*
X65571Y45261D01*
X65761Y45261D01*
X65857Y45214D01*
X65904Y45166D01*
X65952Y45071D01*
X65952Y44785D01*
X65904Y44690D01*
X65857Y44642D01*
X65761Y44595D01*
X65571Y44595D01*
X65476Y44642D01*
X66761Y44642D02*
X66666Y44595D01*
X66476Y44595D01*
X66380Y44642D01*
X66333Y44738D01*
X66333Y45119D01*
X66380Y45214D01*
X66476Y45261D01*
X66666Y45261D01*
X66761Y45214D01*
X66809Y45119D01*
X66809Y45023D01*
X66333Y44928D01*
X68000Y44595D02*
X68000Y45595D01*
X68000Y45214D02*
X68095Y45261D01*
X68285Y45261D01*
X68380Y45214D01*
X68428Y45166D01*
X68476Y45071D01*
X68476Y44785D01*
X68428Y44690D01*
X68380Y44642D01*
X68285Y44595D01*
X68095Y44595D01*
X68000Y44642D01*
X69333Y44595D02*
X69333Y45119D01*
X69285Y45214D01*
X69190Y45261D01*
X69000Y45261D01*
X68904Y45214D01*
X69333Y44642D02*
X69238Y44595D01*
X69000Y44595D01*
X68904Y44642D01*
X68857Y44738D01*
X68857Y44833D01*
X68904Y44928D01*
X69000Y44976D01*
X69238Y44976D01*
X69333Y45023D01*
X69761Y44642D02*
X69857Y44595D01*
X70047Y44595D01*
X70142Y44642D01*
X70190Y44738D01*
X70190Y44785D01*
X70142Y44880D01*
X70047Y44928D01*
X69904Y44928D01*
X69809Y44976D01*
X69761Y45071D01*
X69761Y45119D01*
X69809Y45214D01*
X69904Y45261D01*
X70047Y45261D01*
X70142Y45214D01*
X70999Y44642D02*
X70904Y44595D01*
X70714Y44595D01*
X70619Y44642D01*
X70571Y44738D01*
X70571Y45119D01*
X70619Y45214D01*
X70714Y45261D01*
X70904Y45261D01*
X70999Y45214D01*
X71047Y45119D01*
X71047Y45023D01*
X70571Y44928D01*
X71904Y44595D02*
X71904Y45595D01*
X71904Y44642D02*
X71809Y44595D01*
X71619Y44595D01*
X71523Y44642D01*
X71476Y44690D01*
X71428Y44785D01*
X71428Y45071D01*
X71476Y45166D01*
X71523Y45214D01*
X71619Y45261D01*
X71809Y45261D01*
X71904Y45214D01*
X73285Y44595D02*
X73190Y44642D01*
X73142Y44690D01*
X73095Y44785D01*
X73095Y45071D01*
X73142Y45166D01*
X73190Y45214D01*
X73285Y45261D01*
X73428Y45261D01*
X73523Y45214D01*
X73571Y45166D01*
X73619Y45071D01*
X73619Y44785D01*
X73571Y44690D01*
X73523Y44642D01*
X73428Y44595D01*
X73285Y44595D01*
X74047Y45261D02*
X74047Y44595D01*
X74047Y45166D02*
X74095Y45214D01*
X74190Y45261D01*
X74333Y45261D01*
X74428Y45214D01*
X74476Y45119D01*
X74476Y44595D01*
X75714Y44595D02*
X75714Y45595D01*
X76190Y44595D02*
X76190Y45595D01*
X76571Y45595D01*
X76666Y45547D01*
X76714Y45500D01*
X76761Y45404D01*
X76761Y45261D01*
X76714Y45166D01*
X76666Y45119D01*
X76571Y45071D01*
X76190Y45071D01*
X77761Y44690D02*
X77714Y44642D01*
X77571Y44595D01*
X77476Y44595D01*
X77333Y44642D01*
X77238Y44738D01*
X77190Y44833D01*
X77142Y45023D01*
X77142Y45166D01*
X77190Y45357D01*
X77238Y45452D01*
X77333Y45547D01*
X77476Y45595D01*
X77571Y45595D01*
X77714Y45547D01*
X77761Y45500D01*
X78190Y44976D02*
X78952Y44976D01*
X79380Y44880D02*
X79857Y44880D01*
X79285Y44595D02*
X79619Y45595D01*
X79952Y44595D01*
X80285Y44976D02*
X81047Y44976D01*
X81952Y45595D02*
X81761Y45595D01*
X81666Y45547D01*
X81619Y45500D01*
X81523Y45357D01*
X81476Y45166D01*
X81476Y44785D01*
X81523Y44690D01*
X81571Y44642D01*
X81666Y44595D01*
X81857Y44595D01*
X81952Y44642D01*
X81999Y44690D01*
X82047Y44785D01*
X82047Y45023D01*
X81999Y45119D01*
X81952Y45166D01*
X81857Y45214D01*
X81666Y45214D01*
X81571Y45166D01*
X81523Y45119D01*
X81476Y45023D01*
X82666Y45595D02*
X82761Y45595D01*
X82857Y45547D01*
X82904Y45500D01*
X82952Y45404D01*
X82999Y45214D01*
X82999Y44976D01*
X82952Y44785D01*
X82904Y44690D01*
X82857Y44642D01*
X82761Y44595D01*
X82666Y44595D01*
X82571Y44642D01*
X82523Y44690D01*
X82476Y44785D01*
X82428Y44976D01*
X82428Y45214D01*
X82476Y45404D01*
X82523Y45500D01*
X82571Y45547D01*
X82666Y45595D01*
X83619Y45595D02*
X83714Y45595D01*
X83809Y45547D01*
X83857Y45500D01*
X83904Y45404D01*
X83952Y45214D01*
X83952Y44976D01*
X83904Y44785D01*
X83857Y44690D01*
X83809Y44642D01*
X83714Y44595D01*
X83619Y44595D01*
X83523Y44642D01*
X83476Y44690D01*
X83428Y44785D01*
X83380Y44976D01*
X83380Y45214D01*
X83428Y45404D01*
X83476Y45500D01*
X83523Y45547D01*
X83619Y45595D01*
X85714Y44595D02*
X85380Y45071D01*
X85142Y44595D02*
X85142Y45595D01*
X85523Y45595D01*
X85619Y45547D01*
X85666Y45500D01*
X85714Y45404D01*
X85714Y45261D01*
X85666Y45166D01*
X85619Y45119D01*
X85523Y45071D01*
X85142Y45071D01*
X86523Y44642D02*
X86428Y44595D01*
X86238Y44595D01*
X86142Y44642D01*
X86095Y44738D01*
X86095Y45119D01*
X86142Y45214D01*
X86238Y45261D01*
X86428Y45261D01*
X86523Y45214D01*
X86571Y45119D01*
X86571Y45023D01*
X86095Y44928D01*
X86904Y45261D02*
X87142Y44595D01*
X87380Y45261D01*
X89047Y45547D02*
X88952Y45595D01*
X88809Y45595D01*
X88666Y45547D01*
X88571Y45452D01*
X88523Y45357D01*
X88476Y45166D01*
X88476Y45023D01*
X88523Y44833D01*
X88571Y44738D01*
X88666Y44642D01*
X88809Y44595D01*
X88904Y44595D01*
X89047Y44642D01*
X89095Y44690D01*
X89095Y45023D01*
X88904Y45023D01*
X89523Y44690D02*
X89571Y44642D01*
X89523Y44595D01*
X89476Y44642D01*
X89523Y44690D01*
X89523Y44595D01*
X90761Y44595D02*
X90761Y45595D01*
X91142Y45595D01*
X91238Y45547D01*
X91285Y45500D01*
X91333Y45404D01*
X91333Y45261D01*
X91285Y45166D01*
X91238Y45119D01*
X91142Y45071D01*
X90761Y45071D01*
X92142Y44642D02*
X92047Y44595D01*
X91857Y44595D01*
X91761Y44642D01*
X91714Y44738D01*
X91714Y45119D01*
X91761Y45214D01*
X91857Y45261D01*
X92047Y45261D01*
X92142Y45214D01*
X92190Y45119D01*
X92190Y45023D01*
X91714Y44928D01*
X92619Y44595D02*
X92619Y45261D01*
X92619Y45071D02*
X92666Y45166D01*
X92714Y45214D01*
X92809Y45261D01*
X92904Y45261D01*
X93095Y45261D02*
X93476Y45261D01*
X93238Y44595D02*
X93238Y45452D01*
X93285Y45547D01*
X93380Y45595D01*
X93476Y45595D01*
X93952Y44595D02*
X93857Y44642D01*
X93809Y44690D01*
X93761Y44785D01*
X93761Y45071D01*
X93809Y45166D01*
X93857Y45214D01*
X93952Y45261D01*
X94095Y45261D01*
X94190Y45214D01*
X94238Y45166D01*
X94285Y45071D01*
X94285Y44785D01*
X94238Y44690D01*
X94190Y44642D01*
X94095Y44595D01*
X93952Y44595D01*
X94714Y44595D02*
X94714Y45261D01*
X94714Y45071D02*
X94761Y45166D01*
X94809Y45214D01*
X94904Y45261D01*
X95000Y45261D01*
X95333Y44595D02*
X95333Y45261D01*
X95333Y45166D02*
X95380Y45214D01*
X95476Y45261D01*
X95619Y45261D01*
X95714Y45214D01*
X95761Y45119D01*
X95761Y44595D01*
X95761Y45119D02*
X95809Y45214D01*
X95904Y45261D01*
X96047Y45261D01*
X96142Y45214D01*
X96190Y45119D01*
X96190Y44595D01*
X97095Y44595D02*
X97095Y45119D01*
X97047Y45214D01*
X96952Y45261D01*
X96761Y45261D01*
X96666Y45214D01*
X97095Y44642D02*
X97000Y44595D01*
X96761Y44595D01*
X96666Y44642D01*
X96619Y44738D01*
X96619Y44833D01*
X96666Y44928D01*
X96761Y44976D01*
X97000Y44976D01*
X97095Y45023D01*
X97571Y45261D02*
X97571Y44595D01*
X97571Y45166D02*
X97619Y45214D01*
X97714Y45261D01*
X97857Y45261D01*
X97952Y45214D01*
X98000Y45119D01*
X98000Y44595D01*
X98904Y44642D02*
X98809Y44595D01*
X98619Y44595D01*
X98523Y44642D01*
X98476Y44690D01*
X98428Y44785D01*
X98428Y45071D01*
X98476Y45166D01*
X98523Y45214D01*
X98619Y45261D01*
X98809Y45261D01*
X98904Y45214D01*
X99714Y44642D02*
X99619Y44595D01*
X99428Y44595D01*
X99333Y44642D01*
X99285Y44738D01*
X99285Y45119D01*
X99333Y45214D01*
X99428Y45261D01*
X99619Y45261D01*
X99714Y45214D01*
X99761Y45119D01*
X99761Y45023D01*
X99285Y44928D01*
X100952Y44595D02*
X100952Y45261D01*
X100952Y45166D02*
X101000Y45214D01*
X101095Y45261D01*
X101238Y45261D01*
X101333Y45214D01*
X101380Y45119D01*
X101380Y44595D01*
X101380Y45119D02*
X101428Y45214D01*
X101523Y45261D01*
X101666Y45261D01*
X101761Y45214D01*
X101809Y45119D01*
X101809Y44595D01*
X102714Y45261D02*
X102714Y44595D01*
X102285Y45261D02*
X102285Y44738D01*
X102333Y44642D01*
X102428Y44595D01*
X102571Y44595D01*
X102666Y44642D01*
X102714Y44690D01*
X103142Y44642D02*
X103238Y44595D01*
X103428Y44595D01*
X103523Y44642D01*
X103571Y44738D01*
X103571Y44785D01*
X103523Y44880D01*
X103428Y44928D01*
X103285Y44928D01*
X103190Y44976D01*
X103142Y45071D01*
X103142Y45119D01*
X103190Y45214D01*
X103285Y45261D01*
X103428Y45261D01*
X103523Y45214D01*
X103857Y45261D02*
X104238Y45261D01*
X104000Y45595D02*
X104000Y44738D01*
X104047Y44642D01*
X104142Y44595D01*
X104238Y44595D01*
X105333Y44595D02*
X105333Y45261D01*
X105333Y45166D02*
X105380Y45214D01*
X105476Y45261D01*
X105619Y45261D01*
X105714Y45214D01*
X105761Y45119D01*
X105761Y44595D01*
X105761Y45119D02*
X105809Y45214D01*
X105904Y45261D01*
X106047Y45261D01*
X106142Y45214D01*
X106190Y45119D01*
X106190Y44595D01*
X107047Y44642D02*
X106952Y44595D01*
X106761Y44595D01*
X106666Y44642D01*
X106619Y44738D01*
X106619Y45119D01*
X106666Y45214D01*
X106761Y45261D01*
X106952Y45261D01*
X107047Y45214D01*
X107095Y45119D01*
X107095Y45023D01*
X106619Y44928D01*
X107904Y44642D02*
X107809Y44595D01*
X107619Y44595D01*
X107523Y44642D01*
X107476Y44738D01*
X107476Y45119D01*
X107523Y45214D01*
X107619Y45261D01*
X107809Y45261D01*
X107904Y45214D01*
X107952Y45119D01*
X107952Y45023D01*
X107476Y44928D01*
X108238Y45261D02*
X108619Y45261D01*
X108380Y45595D02*
X108380Y44738D01*
X108428Y44642D01*
X108523Y44595D01*
X108619Y44595D01*
X109714Y44595D02*
X109714Y45595D01*
X110190Y44595D02*
X110190Y45595D01*
X110571Y45595D01*
X110666Y45547D01*
X110714Y45500D01*
X110761Y45404D01*
X110761Y45261D01*
X110714Y45166D01*
X110666Y45119D01*
X110571Y45071D01*
X110190Y45071D01*
X111761Y44690D02*
X111714Y44642D01*
X111571Y44595D01*
X111476Y44595D01*
X111333Y44642D01*
X111238Y44738D01*
X111190Y44833D01*
X111142Y45023D01*
X111142Y45166D01*
X111190Y45357D01*
X111238Y45452D01*
X111333Y45547D01*
X111476Y45595D01*
X111571Y45595D01*
X111714Y45547D01*
X111761Y45500D01*
X112190Y44976D02*
X112952Y44976D01*
X113857Y45595D02*
X113666Y45595D01*
X113571Y45547D01*
X113523Y45500D01*
X113428Y45357D01*
X113380Y45166D01*
X113380Y44785D01*
X113428Y44690D01*
X113476Y44642D01*
X113571Y44595D01*
X113761Y44595D01*
X113857Y44642D01*
X113904Y44690D01*
X113952Y44785D01*
X113952Y45023D01*
X113904Y45119D01*
X113857Y45166D01*
X113761Y45214D01*
X113571Y45214D01*
X113476Y45166D01*
X113428Y45119D01*
X113380Y45023D01*
X114571Y45595D02*
X114666Y45595D01*
X114761Y45547D01*
X114809Y45500D01*
X114857Y45404D01*
X114904Y45214D01*
X114904Y44976D01*
X114857Y44785D01*
X114809Y44690D01*
X114761Y44642D01*
X114666Y44595D01*
X114571Y44595D01*
X114476Y44642D01*
X114428Y44690D01*
X114380Y44785D01*
X114333Y44976D01*
X114333Y45214D01*
X114380Y45404D01*
X114428Y45500D01*
X114476Y45547D01*
X114571Y45595D01*
X115857Y44595D02*
X115285Y44595D01*
X115571Y44595D02*
X115571Y45595D01*
X115476Y45452D01*
X115380Y45357D01*
X115285Y45309D01*
X116238Y45500D02*
X116285Y45547D01*
X116380Y45595D01*
X116619Y45595D01*
X116714Y45547D01*
X116761Y45500D01*
X116809Y45404D01*
X116809Y45309D01*
X116761Y45166D01*
X116190Y44595D01*
X116809Y44595D01*
X118571Y44690D02*
X118523Y44642D01*
X118380Y44595D01*
X118285Y44595D01*
X118142Y44642D01*
X118047Y44738D01*
X118000Y44833D01*
X117952Y45023D01*
X117952Y45166D01*
X118000Y45357D01*
X118047Y45452D01*
X118142Y45547D01*
X118285Y45595D01*
X118380Y45595D01*
X118523Y45547D01*
X118571Y45500D01*
X119142Y44595D02*
X119047Y44642D01*
X119000Y44738D01*
X119000Y45595D01*
X119952Y44595D02*
X119952Y45119D01*
X119904Y45214D01*
X119809Y45261D01*
X119619Y45261D01*
X119523Y45214D01*
X119952Y44642D02*
X119857Y44595D01*
X119619Y44595D01*
X119523Y44642D01*
X119476Y44738D01*
X119476Y44833D01*
X119523Y44928D01*
X119619Y44976D01*
X119857Y44976D01*
X119952Y45023D01*
X120380Y44642D02*
X120476Y44595D01*
X120666Y44595D01*
X120761Y44642D01*
X120809Y44738D01*
X120809Y44785D01*
X120761Y44880D01*
X120666Y44928D01*
X120523Y44928D01*
X120428Y44976D01*
X120380Y45071D01*
X120380Y45119D01*
X120428Y45214D01*
X120523Y45261D01*
X120666Y45261D01*
X120761Y45214D01*
X121190Y44642D02*
X121285Y44595D01*
X121476Y44595D01*
X121571Y44642D01*
X121619Y44738D01*
X121619Y44785D01*
X121571Y44880D01*
X121476Y44928D01*
X121333Y44928D01*
X121238Y44976D01*
X121190Y45071D01*
X121190Y45119D01*
X121238Y45214D01*
X121333Y45261D01*
X121476Y45261D01*
X121571Y45214D01*
X122761Y45500D02*
X122809Y45547D01*
X122904Y45595D01*
X123142Y45595D01*
X123238Y45547D01*
X123285Y45500D01*
X123333Y45404D01*
X123333Y45309D01*
X123285Y45166D01*
X122714Y44595D01*
X123333Y44595D01*
X123761Y44690D02*
X123809Y44642D01*
X123761Y44595D01*
X123714Y44642D01*
X123761Y44690D01*
X123761Y44595D01*
X48190Y48500D02*
X48238Y48547D01*
X48333Y48595D01*
X48571Y48595D01*
X48666Y48547D01*
X48714Y48500D01*
X48761Y48404D01*
X48761Y48309D01*
X48714Y48166D01*
X48142Y47595D01*
X48761Y47595D01*
X49190Y47690D02*
X49238Y47642D01*
X49190Y47595D01*
X49142Y47642D01*
X49190Y47690D01*
X49190Y47595D01*
X51523Y48119D02*
X51190Y48119D01*
X51190Y47595D02*
X51190Y48595D01*
X51666Y48595D01*
X52476Y47595D02*
X52476Y48119D01*
X52428Y48214D01*
X52333Y48261D01*
X52142Y48261D01*
X52047Y48214D01*
X52476Y47642D02*
X52380Y47595D01*
X52142Y47595D01*
X52047Y47642D01*
X52000Y47738D01*
X52000Y47833D01*
X52047Y47928D01*
X52142Y47976D01*
X52380Y47976D01*
X52476Y48023D01*
X52952Y47595D02*
X52952Y48595D01*
X52952Y48214D02*
X53047Y48261D01*
X53238Y48261D01*
X53333Y48214D01*
X53380Y48166D01*
X53428Y48071D01*
X53428Y47785D01*
X53380Y47690D01*
X53333Y47642D01*
X53238Y47595D01*
X53047Y47595D01*
X52952Y47642D01*
X53857Y47595D02*
X53857Y48261D01*
X53857Y48071D02*
X53904Y48166D01*
X53952Y48214D01*
X54047Y48261D01*
X54142Y48261D01*
X54476Y47595D02*
X54476Y48261D01*
X54476Y48595D02*
X54428Y48547D01*
X54476Y48500D01*
X54523Y48547D01*
X54476Y48595D01*
X54476Y48500D01*
X55380Y47642D02*
X55285Y47595D01*
X55095Y47595D01*
X55000Y47642D01*
X54952Y47690D01*
X54904Y47785D01*
X54904Y48071D01*
X54952Y48166D01*
X55000Y48214D01*
X55095Y48261D01*
X55285Y48261D01*
X55380Y48214D01*
X56238Y47595D02*
X56238Y48119D01*
X56190Y48214D01*
X56095Y48261D01*
X55904Y48261D01*
X55809Y48214D01*
X56238Y47642D02*
X56142Y47595D01*
X55904Y47595D01*
X55809Y47642D01*
X55761Y47738D01*
X55761Y47833D01*
X55809Y47928D01*
X55904Y47976D01*
X56142Y47976D01*
X56238Y48023D01*
X56571Y48261D02*
X56952Y48261D01*
X56714Y48595D02*
X56714Y47738D01*
X56761Y47642D01*
X56857Y47595D01*
X56952Y47595D01*
X57666Y47642D02*
X57571Y47595D01*
X57380Y47595D01*
X57285Y47642D01*
X57238Y47738D01*
X57238Y48119D01*
X57285Y48214D01*
X57380Y48261D01*
X57571Y48261D01*
X57666Y48214D01*
X57714Y48119D01*
X57714Y48023D01*
X57238Y47928D01*
X58904Y47595D02*
X58904Y48595D01*
X58904Y48214D02*
X59000Y48261D01*
X59190Y48261D01*
X59285Y48214D01*
X59333Y48166D01*
X59380Y48071D01*
X59380Y47785D01*
X59333Y47690D01*
X59285Y47642D01*
X59190Y47595D01*
X59000Y47595D01*
X58904Y47642D01*
X59952Y47595D02*
X59857Y47642D01*
X59809Y47690D01*
X59761Y47785D01*
X59761Y48071D01*
X59809Y48166D01*
X59857Y48214D01*
X59952Y48261D01*
X60095Y48261D01*
X60190Y48214D01*
X60238Y48166D01*
X60285Y48071D01*
X60285Y47785D01*
X60238Y47690D01*
X60190Y47642D01*
X60095Y47595D01*
X59952Y47595D01*
X61142Y47595D02*
X61142Y48119D01*
X61095Y48214D01*
X61000Y48261D01*
X60809Y48261D01*
X60714Y48214D01*
X61142Y47642D02*
X61047Y47595D01*
X60809Y47595D01*
X60714Y47642D01*
X60666Y47738D01*
X60666Y47833D01*
X60714Y47928D01*
X60809Y47976D01*
X61047Y47976D01*
X61142Y48023D01*
X61619Y47595D02*
X61619Y48261D01*
X61619Y48071D02*
X61666Y48166D01*
X61714Y48214D01*
X61809Y48261D01*
X61904Y48261D01*
X62666Y47595D02*
X62666Y48595D01*
X62666Y47642D02*
X62571Y47595D01*
X62380Y47595D01*
X62285Y47642D01*
X62238Y47690D01*
X62190Y47785D01*
X62190Y48071D01*
X62238Y48166D01*
X62285Y48214D01*
X62380Y48261D01*
X62571Y48261D01*
X62666Y48214D01*
X64333Y48261D02*
X64333Y47595D01*
X63904Y48261D02*
X63904Y47738D01*
X63952Y47642D01*
X64047Y47595D01*
X64190Y47595D01*
X64285Y47642D01*
X64333Y47690D01*
X64761Y47642D02*
X64857Y47595D01*
X65047Y47595D01*
X65142Y47642D01*
X65190Y47738D01*
X65190Y47785D01*
X65142Y47880D01*
X65047Y47928D01*
X64904Y47928D01*
X64809Y47976D01*
X64761Y48071D01*
X64761Y48119D01*
X64809Y48214D01*
X64904Y48261D01*
X65047Y48261D01*
X65142Y48214D01*
X65619Y47595D02*
X65619Y48261D01*
X65619Y48595D02*
X65571Y48547D01*
X65619Y48500D01*
X65666Y48547D01*
X65619Y48595D01*
X65619Y48500D01*
X66095Y48261D02*
X66095Y47595D01*
X66095Y48166D02*
X66142Y48214D01*
X66238Y48261D01*
X66380Y48261D01*
X66476Y48214D01*
X66523Y48119D01*
X66523Y47595D01*
X67428Y48261D02*
X67428Y47452D01*
X67380Y47357D01*
X67333Y47309D01*
X67238Y47261D01*
X67095Y47261D01*
X66999Y47309D01*
X67428Y47642D02*
X67333Y47595D01*
X67142Y47595D01*
X67047Y47642D01*
X66999Y47690D01*
X66952Y47785D01*
X66952Y48071D01*
X66999Y48166D01*
X67047Y48214D01*
X67142Y48261D01*
X67333Y48261D01*
X67428Y48214D01*
X69095Y47595D02*
X69095Y48119D01*
X69047Y48214D01*
X68952Y48261D01*
X68761Y48261D01*
X68666Y48214D01*
X69095Y47642D02*
X68999Y47595D01*
X68761Y47595D01*
X68666Y47642D01*
X68619Y47738D01*
X68619Y47833D01*
X68666Y47928D01*
X68761Y47976D01*
X68999Y47976D01*
X69095Y48023D01*
X69571Y47595D02*
X69571Y48261D01*
X69571Y48071D02*
X69619Y48166D01*
X69666Y48214D01*
X69761Y48261D01*
X69857Y48261D01*
X70047Y48261D02*
X70428Y48261D01*
X70190Y48595D02*
X70190Y47738D01*
X70238Y47642D01*
X70333Y47595D01*
X70428Y47595D01*
X70666Y48261D02*
X70857Y47595D01*
X71047Y48071D01*
X71238Y47595D01*
X71428Y48261D01*
X71952Y47595D02*
X71857Y47642D01*
X71809Y47690D01*
X71761Y47785D01*
X71761Y48071D01*
X71809Y48166D01*
X71857Y48214D01*
X71952Y48261D01*
X72095Y48261D01*
X72190Y48214D01*
X72238Y48166D01*
X72285Y48071D01*
X72285Y47785D01*
X72238Y47690D01*
X72190Y47642D01*
X72095Y47595D01*
X71952Y47595D01*
X72714Y47595D02*
X72714Y48261D01*
X72714Y48071D02*
X72761Y48166D01*
X72809Y48214D01*
X72904Y48261D01*
X72999Y48261D01*
X73333Y47595D02*
X73333Y48595D01*
X73428Y47976D02*
X73714Y47595D01*
X73714Y48261D02*
X73333Y47880D01*
X74142Y47690D02*
X74190Y47642D01*
X74142Y47595D01*
X74095Y47642D01*
X74142Y47690D01*
X74142Y47595D01*
X75333Y47880D02*
X75809Y47880D01*
X75238Y47595D02*
X75571Y48595D01*
X75904Y47595D01*
X76380Y47595D02*
X76285Y47642D01*
X76238Y47738D01*
X76238Y48595D01*
X76904Y47595D02*
X76809Y47642D01*
X76761Y47738D01*
X76761Y48595D01*
X77904Y48261D02*
X78285Y48261D01*
X78047Y48595D02*
X78047Y47738D01*
X78095Y47642D01*
X78190Y47595D01*
X78285Y47595D01*
X78523Y48261D02*
X78761Y47595D01*
X78999Y48261D02*
X78761Y47595D01*
X78666Y47357D01*
X78619Y47309D01*
X78523Y47261D01*
X79380Y48261D02*
X79380Y47261D01*
X79380Y48214D02*
X79476Y48261D01*
X79666Y48261D01*
X79761Y48214D01*
X79809Y48166D01*
X79857Y48071D01*
X79857Y47785D01*
X79809Y47690D01*
X79761Y47642D01*
X79666Y47595D01*
X79476Y47595D01*
X79380Y47642D01*
X80285Y47595D02*
X80285Y48261D01*
X80285Y48595D02*
X80238Y48547D01*
X80285Y48500D01*
X80333Y48547D01*
X80285Y48595D01*
X80285Y48500D01*
X81190Y47642D02*
X81095Y47595D01*
X80904Y47595D01*
X80809Y47642D01*
X80761Y47690D01*
X80714Y47785D01*
X80714Y48071D01*
X80761Y48166D01*
X80809Y48214D01*
X80904Y48261D01*
X81095Y48261D01*
X81190Y48214D01*
X82047Y47595D02*
X82047Y48119D01*
X81999Y48214D01*
X81904Y48261D01*
X81714Y48261D01*
X81619Y48214D01*
X82047Y47642D02*
X81952Y47595D01*
X81714Y47595D01*
X81619Y47642D01*
X81571Y47738D01*
X81571Y47833D01*
X81619Y47928D01*
X81714Y47976D01*
X81952Y47976D01*
X82047Y48023D01*
X82666Y47595D02*
X82571Y47642D01*
X82523Y47738D01*
X82523Y48595D01*
X84238Y47595D02*
X84238Y48595D01*
X84238Y47642D02*
X84142Y47595D01*
X83952Y47595D01*
X83857Y47642D01*
X83809Y47690D01*
X83761Y47785D01*
X83761Y48071D01*
X83809Y48166D01*
X83857Y48214D01*
X83952Y48261D01*
X84142Y48261D01*
X84238Y48214D01*
X84714Y47595D02*
X84714Y48261D01*
X84714Y48595D02*
X84666Y48547D01*
X84714Y48500D01*
X84761Y48547D01*
X84714Y48595D01*
X84714Y48500D01*
X85190Y47595D02*
X85190Y48261D01*
X85190Y48166D02*
X85238Y48214D01*
X85333Y48261D01*
X85476Y48261D01*
X85571Y48214D01*
X85619Y48119D01*
X85619Y47595D01*
X85619Y48119D02*
X85666Y48214D01*
X85761Y48261D01*
X85904Y48261D01*
X85999Y48214D01*
X86047Y48119D01*
X86047Y47595D01*
X86904Y47642D02*
X86809Y47595D01*
X86619Y47595D01*
X86523Y47642D01*
X86476Y47738D01*
X86476Y48119D01*
X86523Y48214D01*
X86619Y48261D01*
X86809Y48261D01*
X86904Y48214D01*
X86952Y48119D01*
X86952Y48023D01*
X86476Y47928D01*
X87380Y48261D02*
X87380Y47595D01*
X87380Y48166D02*
X87428Y48214D01*
X87523Y48261D01*
X87666Y48261D01*
X87761Y48214D01*
X87809Y48119D01*
X87809Y47595D01*
X88238Y47642D02*
X88333Y47595D01*
X88523Y47595D01*
X88619Y47642D01*
X88666Y47738D01*
X88666Y47785D01*
X88619Y47880D01*
X88523Y47928D01*
X88380Y47928D01*
X88285Y47976D01*
X88238Y48071D01*
X88238Y48119D01*
X88285Y48214D01*
X88380Y48261D01*
X88523Y48261D01*
X88619Y48214D01*
X89095Y47595D02*
X89095Y48261D01*
X89095Y48595D02*
X89047Y48547D01*
X89095Y48500D01*
X89142Y48547D01*
X89095Y48595D01*
X89095Y48500D01*
X89714Y47595D02*
X89619Y47642D01*
X89571Y47690D01*
X89523Y47785D01*
X89523Y48071D01*
X89571Y48166D01*
X89619Y48214D01*
X89714Y48261D01*
X89857Y48261D01*
X89952Y48214D01*
X89999Y48166D01*
X90047Y48071D01*
X90047Y47785D01*
X89999Y47690D01*
X89952Y47642D01*
X89857Y47595D01*
X89714Y47595D01*
X90476Y48261D02*
X90476Y47595D01*
X90476Y48166D02*
X90523Y48214D01*
X90619Y48261D01*
X90761Y48261D01*
X90857Y48214D01*
X90904Y48119D01*
X90904Y47595D01*
X91333Y47642D02*
X91428Y47595D01*
X91619Y47595D01*
X91714Y47642D01*
X91761Y47738D01*
X91761Y47785D01*
X91714Y47880D01*
X91619Y47928D01*
X91476Y47928D01*
X91380Y47976D01*
X91333Y48071D01*
X91333Y48119D01*
X91380Y48214D01*
X91476Y48261D01*
X91619Y48261D01*
X91714Y48214D01*
X93380Y47595D02*
X93380Y48119D01*
X93333Y48214D01*
X93238Y48261D01*
X93047Y48261D01*
X92952Y48214D01*
X93380Y47642D02*
X93285Y47595D01*
X93047Y47595D01*
X92952Y47642D01*
X92904Y47738D01*
X92904Y47833D01*
X92952Y47928D01*
X93047Y47976D01*
X93285Y47976D01*
X93380Y48023D01*
X93857Y47595D02*
X93857Y48261D01*
X93857Y48071D02*
X93904Y48166D01*
X93952Y48214D01*
X94047Y48261D01*
X94142Y48261D01*
X94857Y47642D02*
X94761Y47595D01*
X94571Y47595D01*
X94476Y47642D01*
X94428Y47738D01*
X94428Y48119D01*
X94476Y48214D01*
X94571Y48261D01*
X94761Y48261D01*
X94857Y48214D01*
X94904Y48119D01*
X94904Y48023D01*
X94428Y47928D01*
X95952Y48261D02*
X96333Y48261D01*
X96095Y48595D02*
X96095Y47738D01*
X96142Y47642D01*
X96238Y47595D01*
X96333Y47595D01*
X96809Y47595D02*
X96714Y47642D01*
X96666Y47690D01*
X96619Y47785D01*
X96619Y48071D01*
X96666Y48166D01*
X96714Y48214D01*
X96809Y48261D01*
X96952Y48261D01*
X97047Y48214D01*
X97095Y48166D01*
X97142Y48071D01*
X97142Y47785D01*
X97095Y47690D01*
X97047Y47642D01*
X96952Y47595D01*
X96809Y47595D01*
X97714Y47595D02*
X97619Y47642D01*
X97571Y47738D01*
X97571Y48595D01*
X98476Y47642D02*
X98380Y47595D01*
X98190Y47595D01*
X98095Y47642D01*
X98047Y47738D01*
X98047Y48119D01*
X98095Y48214D01*
X98190Y48261D01*
X98380Y48261D01*
X98476Y48214D01*
X98523Y48119D01*
X98523Y48023D01*
X98047Y47928D01*
X98952Y47595D02*
X98952Y48261D01*
X98952Y48071D02*
X98999Y48166D01*
X99047Y48214D01*
X99142Y48261D01*
X99238Y48261D01*
X99999Y47595D02*
X99999Y48119D01*
X99952Y48214D01*
X99857Y48261D01*
X99666Y48261D01*
X99571Y48214D01*
X99999Y47642D02*
X99904Y47595D01*
X99666Y47595D01*
X99571Y47642D01*
X99523Y47738D01*
X99523Y47833D01*
X99571Y47928D01*
X99666Y47976D01*
X99904Y47976D01*
X99999Y48023D01*
X100476Y48261D02*
X100476Y47595D01*
X100476Y48166D02*
X100523Y48214D01*
X100619Y48261D01*
X100761Y48261D01*
X100857Y48214D01*
X100904Y48119D01*
X100904Y47595D01*
X101809Y47642D02*
X101714Y47595D01*
X101523Y47595D01*
X101428Y47642D01*
X101380Y47690D01*
X101333Y47785D01*
X101333Y48071D01*
X101380Y48166D01*
X101428Y48214D01*
X101523Y48261D01*
X101714Y48261D01*
X101809Y48214D01*
X102619Y47642D02*
X102523Y47595D01*
X102333Y47595D01*
X102238Y47642D01*
X102190Y47738D01*
X102190Y48119D01*
X102238Y48214D01*
X102333Y48261D01*
X102523Y48261D01*
X102619Y48214D01*
X102666Y48119D01*
X102666Y48023D01*
X102190Y47928D01*
X103857Y48261D02*
X103857Y47595D01*
X103857Y48166D02*
X103904Y48214D01*
X103999Y48261D01*
X104142Y48261D01*
X104238Y48214D01*
X104285Y48119D01*
X104285Y47595D01*
X104904Y47595D02*
X104809Y47642D01*
X104761Y47690D01*
X104714Y47785D01*
X104714Y48071D01*
X104761Y48166D01*
X104809Y48214D01*
X104904Y48261D01*
X105047Y48261D01*
X105142Y48214D01*
X105190Y48166D01*
X105238Y48071D01*
X105238Y47785D01*
X105190Y47690D01*
X105142Y47642D01*
X105047Y47595D01*
X104904Y47595D01*
X105666Y48261D02*
X105666Y47595D01*
X105666Y48166D02*
X105714Y48214D01*
X105809Y48261D01*
X105952Y48261D01*
X106047Y48214D01*
X106095Y48119D01*
X106095Y47595D01*
X106571Y47976D02*
X107333Y47976D01*
X108238Y47642D02*
X108142Y47595D01*
X107952Y47595D01*
X107857Y47642D01*
X107809Y47690D01*
X107761Y47785D01*
X107761Y48071D01*
X107809Y48166D01*
X107857Y48214D01*
X107952Y48261D01*
X108142Y48261D01*
X108238Y48214D01*
X109095Y48261D02*
X109095Y47595D01*
X108666Y48261D02*
X108666Y47738D01*
X108714Y47642D01*
X108809Y47595D01*
X108952Y47595D01*
X109047Y47642D01*
X109095Y47690D01*
X109571Y47595D02*
X109571Y48261D01*
X109571Y48166D02*
X109619Y48214D01*
X109714Y48261D01*
X109857Y48261D01*
X109952Y48214D01*
X109999Y48119D01*
X109999Y47595D01*
X109999Y48119D02*
X110047Y48214D01*
X110142Y48261D01*
X110285Y48261D01*
X110380Y48214D01*
X110428Y48119D01*
X110428Y47595D01*
X111047Y47595D02*
X110952Y47642D01*
X110904Y47738D01*
X110904Y48595D01*
X111857Y47595D02*
X111857Y48119D01*
X111809Y48214D01*
X111714Y48261D01*
X111523Y48261D01*
X111428Y48214D01*
X111857Y47642D02*
X111761Y47595D01*
X111523Y47595D01*
X111428Y47642D01*
X111380Y47738D01*
X111380Y47833D01*
X111428Y47928D01*
X111523Y47976D01*
X111761Y47976D01*
X111857Y48023D01*
X112190Y48261D02*
X112571Y48261D01*
X112333Y48595D02*
X112333Y47738D01*
X112380Y47642D01*
X112476Y47595D01*
X112571Y47595D01*
X112904Y47595D02*
X112904Y48261D01*
X112904Y48595D02*
X112857Y48547D01*
X112904Y48500D01*
X112952Y48547D01*
X112904Y48595D01*
X112904Y48500D01*
X113285Y48261D02*
X113523Y47595D01*
X113761Y48261D01*
X114523Y47642D02*
X114428Y47595D01*
X114238Y47595D01*
X114142Y47642D01*
X114095Y47738D01*
X114095Y48119D01*
X114142Y48214D01*
X114238Y48261D01*
X114428Y48261D01*
X114523Y48214D01*
X114571Y48119D01*
X114571Y48023D01*
X114095Y47928D01*
X114999Y47690D02*
X115047Y47642D01*
X114999Y47595D01*
X114952Y47642D01*
X114999Y47690D01*
X114999Y47595D01*
X48761Y52595D02*
X48190Y52595D01*
X48476Y52595D02*
X48476Y53595D01*
X48380Y53452D01*
X48285Y53357D01*
X48190Y53309D01*
X49190Y52690D02*
X49238Y52642D01*
X49190Y52595D01*
X49142Y52642D01*
X49190Y52690D01*
X49190Y52595D01*
X51142Y52880D02*
X51619Y52880D01*
X51047Y52595D02*
X51380Y53595D01*
X51714Y52595D01*
X52190Y52595D02*
X52095Y52642D01*
X52047Y52738D01*
X52047Y53595D01*
X52714Y52595D02*
X52619Y52642D01*
X52571Y52738D01*
X52571Y53595D01*
X53857Y52595D02*
X53857Y53261D01*
X53857Y53071D02*
X53904Y53166D01*
X53952Y53214D01*
X54047Y53261D01*
X54142Y53261D01*
X54857Y52642D02*
X54761Y52595D01*
X54571Y52595D01*
X54476Y52642D01*
X54428Y52738D01*
X54428Y53119D01*
X54476Y53214D01*
X54571Y53261D01*
X54761Y53261D01*
X54857Y53214D01*
X54904Y53119D01*
X54904Y53023D01*
X54428Y52928D01*
X55761Y53261D02*
X55761Y52261D01*
X55761Y52642D02*
X55666Y52595D01*
X55476Y52595D01*
X55380Y52642D01*
X55333Y52690D01*
X55285Y52785D01*
X55285Y53071D01*
X55333Y53166D01*
X55380Y53214D01*
X55476Y53261D01*
X55666Y53261D01*
X55761Y53214D01*
X56666Y53261D02*
X56666Y52595D01*
X56238Y53261D02*
X56238Y52738D01*
X56285Y52642D01*
X56380Y52595D01*
X56523Y52595D01*
X56619Y52642D01*
X56666Y52690D01*
X57523Y52642D02*
X57428Y52595D01*
X57238Y52595D01*
X57142Y52642D01*
X57095Y52738D01*
X57095Y53119D01*
X57142Y53214D01*
X57238Y53261D01*
X57428Y53261D01*
X57523Y53214D01*
X57571Y53119D01*
X57571Y53023D01*
X57095Y52928D01*
X57952Y52642D02*
X58047Y52595D01*
X58238Y52595D01*
X58333Y52642D01*
X58380Y52738D01*
X58380Y52785D01*
X58333Y52880D01*
X58238Y52928D01*
X58095Y52928D01*
X58000Y52976D01*
X57952Y53071D01*
X57952Y53119D01*
X58000Y53214D01*
X58095Y53261D01*
X58238Y53261D01*
X58333Y53214D01*
X58666Y53261D02*
X59047Y53261D01*
X58809Y53595D02*
X58809Y52738D01*
X58857Y52642D01*
X58952Y52595D01*
X59047Y52595D01*
X59333Y52642D02*
X59428Y52595D01*
X59619Y52595D01*
X59714Y52642D01*
X59761Y52738D01*
X59761Y52785D01*
X59714Y52880D01*
X59619Y52928D01*
X59476Y52928D01*
X59380Y52976D01*
X59333Y53071D01*
X59333Y53119D01*
X59380Y53214D01*
X59476Y53261D01*
X59619Y53261D01*
X59714Y53214D01*
X60809Y53261D02*
X61190Y53261D01*
X60952Y52595D02*
X60952Y53452D01*
X60999Y53547D01*
X61095Y53595D01*
X61190Y53595D01*
X61666Y52595D02*
X61571Y52642D01*
X61523Y52690D01*
X61476Y52785D01*
X61476Y53071D01*
X61523Y53166D01*
X61571Y53214D01*
X61666Y53261D01*
X61809Y53261D01*
X61904Y53214D01*
X61952Y53166D01*
X62000Y53071D01*
X62000Y52785D01*
X61952Y52690D01*
X61904Y52642D01*
X61809Y52595D01*
X61666Y52595D01*
X62428Y52595D02*
X62428Y53261D01*
X62428Y53071D02*
X62476Y53166D01*
X62523Y53214D01*
X62619Y53261D01*
X62714Y53261D01*
X64238Y52595D02*
X64238Y53595D01*
X64238Y52642D02*
X64142Y52595D01*
X63952Y52595D01*
X63857Y52642D01*
X63809Y52690D01*
X63761Y52785D01*
X63761Y53071D01*
X63809Y53166D01*
X63857Y53214D01*
X63952Y53261D01*
X64142Y53261D01*
X64238Y53214D01*
X65095Y52642D02*
X64999Y52595D01*
X64809Y52595D01*
X64714Y52642D01*
X64666Y52738D01*
X64666Y53119D01*
X64714Y53214D01*
X64809Y53261D01*
X64999Y53261D01*
X65095Y53214D01*
X65142Y53119D01*
X65142Y53023D01*
X64666Y52928D01*
X65523Y52642D02*
X65619Y52595D01*
X65809Y52595D01*
X65904Y52642D01*
X65952Y52738D01*
X65952Y52785D01*
X65904Y52880D01*
X65809Y52928D01*
X65666Y52928D01*
X65571Y52976D01*
X65523Y53071D01*
X65523Y53119D01*
X65571Y53214D01*
X65666Y53261D01*
X65809Y53261D01*
X65904Y53214D01*
X66380Y52595D02*
X66380Y53261D01*
X66380Y53595D02*
X66333Y53547D01*
X66380Y53500D01*
X66428Y53547D01*
X66380Y53595D01*
X66380Y53500D01*
X67285Y53261D02*
X67285Y52452D01*
X67238Y52357D01*
X67190Y52309D01*
X67095Y52261D01*
X66952Y52261D01*
X66857Y52309D01*
X67285Y52642D02*
X67190Y52595D01*
X66999Y52595D01*
X66904Y52642D01*
X66857Y52690D01*
X66809Y52785D01*
X66809Y53071D01*
X66857Y53166D01*
X66904Y53214D01*
X66999Y53261D01*
X67190Y53261D01*
X67285Y53214D01*
X67761Y53261D02*
X67761Y52595D01*
X67761Y53166D02*
X67809Y53214D01*
X67904Y53261D01*
X68047Y53261D01*
X68142Y53214D01*
X68190Y53119D01*
X68190Y52595D01*
X69571Y52595D02*
X69476Y52642D01*
X69428Y52690D01*
X69380Y52785D01*
X69380Y53071D01*
X69428Y53166D01*
X69476Y53214D01*
X69571Y53261D01*
X69714Y53261D01*
X69809Y53214D01*
X69857Y53166D01*
X69904Y53071D01*
X69904Y52785D01*
X69857Y52690D01*
X69809Y52642D01*
X69714Y52595D01*
X69571Y52595D01*
X70333Y52595D02*
X70333Y53261D01*
X70333Y53071D02*
X70380Y53166D01*
X70428Y53214D01*
X70523Y53261D01*
X70619Y53261D01*
X71714Y52595D02*
X71714Y53261D01*
X71714Y53166D02*
X71761Y53214D01*
X71857Y53261D01*
X71999Y53261D01*
X72095Y53214D01*
X72142Y53119D01*
X72142Y52595D01*
X72142Y53119D02*
X72190Y53214D01*
X72285Y53261D01*
X72428Y53261D01*
X72523Y53214D01*
X72571Y53119D01*
X72571Y52595D01*
X73476Y52595D02*
X73476Y53119D01*
X73428Y53214D01*
X73333Y53261D01*
X73142Y53261D01*
X73047Y53214D01*
X73476Y52642D02*
X73380Y52595D01*
X73142Y52595D01*
X73047Y52642D01*
X72999Y52738D01*
X72999Y52833D01*
X73047Y52928D01*
X73142Y52976D01*
X73380Y52976D01*
X73476Y53023D01*
X73809Y53261D02*
X74190Y53261D01*
X73952Y53595D02*
X73952Y52738D01*
X73999Y52642D01*
X74095Y52595D01*
X74190Y52595D01*
X74904Y52642D02*
X74809Y52595D01*
X74619Y52595D01*
X74523Y52642D01*
X74476Y52738D01*
X74476Y53119D01*
X74523Y53214D01*
X74619Y53261D01*
X74809Y53261D01*
X74904Y53214D01*
X74952Y53119D01*
X74952Y53023D01*
X74476Y52928D01*
X75380Y52595D02*
X75380Y53261D01*
X75380Y53071D02*
X75428Y53166D01*
X75476Y53214D01*
X75571Y53261D01*
X75666Y53261D01*
X75999Y52595D02*
X75999Y53261D01*
X75999Y53595D02*
X75952Y53547D01*
X75999Y53500D01*
X76047Y53547D01*
X75999Y53595D01*
X75999Y53500D01*
X76904Y52595D02*
X76904Y53119D01*
X76857Y53214D01*
X76761Y53261D01*
X76571Y53261D01*
X76476Y53214D01*
X76904Y52642D02*
X76809Y52595D01*
X76571Y52595D01*
X76476Y52642D01*
X76428Y52738D01*
X76428Y52833D01*
X76476Y52928D01*
X76571Y52976D01*
X76809Y52976D01*
X76904Y53023D01*
X77523Y52595D02*
X77428Y52642D01*
X77380Y52738D01*
X77380Y53595D01*
X79095Y52642D02*
X78999Y52595D01*
X78809Y52595D01*
X78714Y52642D01*
X78666Y52690D01*
X78619Y52785D01*
X78619Y53071D01*
X78666Y53166D01*
X78714Y53214D01*
X78809Y53261D01*
X78999Y53261D01*
X79095Y53214D01*
X79523Y52595D02*
X79523Y53595D01*
X79952Y52595D02*
X79952Y53119D01*
X79904Y53214D01*
X79809Y53261D01*
X79666Y53261D01*
X79571Y53214D01*
X79523Y53166D01*
X80857Y52595D02*
X80857Y53119D01*
X80809Y53214D01*
X80714Y53261D01*
X80523Y53261D01*
X80428Y53214D01*
X80857Y52642D02*
X80761Y52595D01*
X80523Y52595D01*
X80428Y52642D01*
X80380Y52738D01*
X80380Y52833D01*
X80428Y52928D01*
X80523Y52976D01*
X80761Y52976D01*
X80857Y53023D01*
X81333Y53261D02*
X81333Y52595D01*
X81333Y53166D02*
X81380Y53214D01*
X81476Y53261D01*
X81619Y53261D01*
X81714Y53214D01*
X81761Y53119D01*
X81761Y52595D01*
X82666Y53261D02*
X82666Y52452D01*
X82619Y52357D01*
X82571Y52309D01*
X82476Y52261D01*
X82333Y52261D01*
X82238Y52309D01*
X82666Y52642D02*
X82571Y52595D01*
X82380Y52595D01*
X82285Y52642D01*
X82238Y52690D01*
X82190Y52785D01*
X82190Y53071D01*
X82238Y53166D01*
X82285Y53214D01*
X82380Y53261D01*
X82571Y53261D01*
X82666Y53214D01*
X83523Y52642D02*
X83428Y52595D01*
X83238Y52595D01*
X83142Y52642D01*
X83095Y52738D01*
X83095Y53119D01*
X83142Y53214D01*
X83238Y53261D01*
X83428Y53261D01*
X83523Y53214D01*
X83571Y53119D01*
X83571Y53023D01*
X83095Y52928D01*
X83952Y52642D02*
X84047Y52595D01*
X84238Y52595D01*
X84333Y52642D01*
X84380Y52738D01*
X84380Y52785D01*
X84333Y52880D01*
X84238Y52928D01*
X84095Y52928D01*
X83999Y52976D01*
X83952Y53071D01*
X83952Y53119D01*
X83999Y53214D01*
X84095Y53261D01*
X84238Y53261D01*
X84333Y53214D01*
X85571Y52595D02*
X85571Y53261D01*
X85571Y53166D02*
X85619Y53214D01*
X85714Y53261D01*
X85857Y53261D01*
X85952Y53214D01*
X85999Y53119D01*
X85999Y52595D01*
X85999Y53119D02*
X86047Y53214D01*
X86142Y53261D01*
X86285Y53261D01*
X86380Y53214D01*
X86428Y53119D01*
X86428Y52595D01*
X87333Y53261D02*
X87333Y52595D01*
X86904Y53261D02*
X86904Y52738D01*
X86952Y52642D01*
X87047Y52595D01*
X87190Y52595D01*
X87285Y52642D01*
X87333Y52690D01*
X87761Y52642D02*
X87857Y52595D01*
X88047Y52595D01*
X88142Y52642D01*
X88190Y52738D01*
X88190Y52785D01*
X88142Y52880D01*
X88047Y52928D01*
X87904Y52928D01*
X87809Y52976D01*
X87761Y53071D01*
X87761Y53119D01*
X87809Y53214D01*
X87904Y53261D01*
X88047Y53261D01*
X88142Y53214D01*
X88476Y53261D02*
X88857Y53261D01*
X88619Y53595D02*
X88619Y52738D01*
X88666Y52642D01*
X88761Y52595D01*
X88857Y52595D01*
X89952Y52595D02*
X89952Y53595D01*
X89952Y53214D02*
X90047Y53261D01*
X90238Y53261D01*
X90333Y53214D01*
X90380Y53166D01*
X90428Y53071D01*
X90428Y52785D01*
X90380Y52690D01*
X90333Y52642D01*
X90238Y52595D01*
X90047Y52595D01*
X89952Y52642D01*
X91238Y52642D02*
X91142Y52595D01*
X90952Y52595D01*
X90857Y52642D01*
X90809Y52738D01*
X90809Y53119D01*
X90857Y53214D01*
X90952Y53261D01*
X91142Y53261D01*
X91238Y53214D01*
X91285Y53119D01*
X91285Y53023D01*
X90809Y52928D01*
X92333Y53261D02*
X92714Y53261D01*
X92476Y52595D02*
X92476Y53452D01*
X92523Y53547D01*
X92619Y53595D01*
X92714Y53595D01*
X93190Y52595D02*
X93095Y52642D01*
X93047Y52690D01*
X92999Y52785D01*
X92999Y53071D01*
X93047Y53166D01*
X93095Y53214D01*
X93190Y53261D01*
X93333Y53261D01*
X93428Y53214D01*
X93476Y53166D01*
X93523Y53071D01*
X93523Y52785D01*
X93476Y52690D01*
X93428Y52642D01*
X93333Y52595D01*
X93190Y52595D01*
X93952Y52595D02*
X93952Y53261D01*
X93952Y53071D02*
X93999Y53166D01*
X94047Y53214D01*
X94142Y53261D01*
X94238Y53261D01*
X94476Y53261D02*
X94666Y52595D01*
X94857Y53071D01*
X95047Y52595D01*
X95238Y53261D01*
X96047Y52595D02*
X96047Y53119D01*
X95999Y53214D01*
X95904Y53261D01*
X95714Y53261D01*
X95619Y53214D01*
X96047Y52642D02*
X95952Y52595D01*
X95714Y52595D01*
X95619Y52642D01*
X95571Y52738D01*
X95571Y52833D01*
X95619Y52928D01*
X95714Y52976D01*
X95952Y52976D01*
X96047Y53023D01*
X96523Y52595D02*
X96523Y53261D01*
X96523Y53071D02*
X96571Y53166D01*
X96619Y53214D01*
X96714Y53261D01*
X96809Y53261D01*
X97571Y52595D02*
X97571Y53595D01*
X97571Y52642D02*
X97476Y52595D01*
X97285Y52595D01*
X97190Y52642D01*
X97142Y52690D01*
X97095Y52785D01*
X97095Y53071D01*
X97142Y53166D01*
X97190Y53214D01*
X97285Y53261D01*
X97476Y53261D01*
X97571Y53214D01*
X98428Y52642D02*
X98333Y52595D01*
X98142Y52595D01*
X98047Y52642D01*
X97999Y52738D01*
X97999Y53119D01*
X98047Y53214D01*
X98142Y53261D01*
X98333Y53261D01*
X98428Y53214D01*
X98476Y53119D01*
X98476Y53023D01*
X97999Y52928D01*
X99333Y52595D02*
X99333Y53595D01*
X99333Y52642D02*
X99238Y52595D01*
X99047Y52595D01*
X98952Y52642D01*
X98904Y52690D01*
X98857Y52785D01*
X98857Y53071D01*
X98904Y53166D01*
X98952Y53214D01*
X99047Y53261D01*
X99238Y53261D01*
X99333Y53214D01*
X100428Y53261D02*
X100809Y53261D01*
X100571Y53595D02*
X100571Y52738D01*
X100619Y52642D01*
X100714Y52595D01*
X100809Y52595D01*
X101285Y52595D02*
X101190Y52642D01*
X101142Y52690D01*
X101095Y52785D01*
X101095Y53071D01*
X101142Y53166D01*
X101190Y53214D01*
X101285Y53261D01*
X101428Y53261D01*
X101523Y53214D01*
X101571Y53166D01*
X101619Y53071D01*
X101619Y52785D01*
X101571Y52690D01*
X101523Y52642D01*
X101428Y52595D01*
X101285Y52595D01*
X103095Y53595D02*
X103095Y52880D01*
X103047Y52738D01*
X102952Y52642D01*
X102809Y52595D01*
X102714Y52595D01*
X103999Y52595D02*
X103999Y53119D01*
X103952Y53214D01*
X103857Y53261D01*
X103666Y53261D01*
X103571Y53214D01*
X103999Y52642D02*
X103904Y52595D01*
X103666Y52595D01*
X103571Y52642D01*
X103523Y52738D01*
X103523Y52833D01*
X103571Y52928D01*
X103666Y52976D01*
X103904Y52976D01*
X103999Y53023D01*
X104428Y52642D02*
X104523Y52595D01*
X104714Y52595D01*
X104809Y52642D01*
X104857Y52738D01*
X104857Y52785D01*
X104809Y52880D01*
X104714Y52928D01*
X104571Y52928D01*
X104476Y52976D01*
X104428Y53071D01*
X104428Y53119D01*
X104476Y53214D01*
X104571Y53261D01*
X104714Y53261D01*
X104809Y53214D01*
X105428Y52595D02*
X105333Y52642D01*
X105285Y52690D01*
X105238Y52785D01*
X105238Y53071D01*
X105285Y53166D01*
X105333Y53214D01*
X105428Y53261D01*
X105571Y53261D01*
X105666Y53214D01*
X105714Y53166D01*
X105761Y53071D01*
X105761Y52785D01*
X105714Y52690D01*
X105666Y52642D01*
X105571Y52595D01*
X105428Y52595D01*
X106190Y53261D02*
X106190Y52595D01*
X106190Y53166D02*
X106238Y53214D01*
X106333Y53261D01*
X106476Y53261D01*
X106571Y53214D01*
X106619Y53119D01*
X106619Y52595D01*
X108428Y52690D02*
X108380Y52642D01*
X108238Y52595D01*
X108142Y52595D01*
X107999Y52642D01*
X107904Y52738D01*
X107857Y52833D01*
X107809Y53023D01*
X107809Y53166D01*
X107857Y53357D01*
X107904Y53452D01*
X107999Y53547D01*
X108142Y53595D01*
X108238Y53595D01*
X108380Y53547D01*
X108428Y53500D01*
X109238Y52642D02*
X109142Y52595D01*
X108952Y52595D01*
X108857Y52642D01*
X108809Y52738D01*
X108809Y53119D01*
X108857Y53214D01*
X108952Y53261D01*
X109142Y53261D01*
X109238Y53214D01*
X109285Y53119D01*
X109285Y53023D01*
X108809Y52928D01*
X109714Y52595D02*
X109714Y53261D01*
X109714Y53071D02*
X109761Y53166D01*
X109809Y53214D01*
X109904Y53261D01*
X109999Y53261D01*
X110761Y53261D02*
X110761Y52595D01*
X110333Y53261D02*
X110333Y52738D01*
X110380Y52642D01*
X110476Y52595D01*
X110619Y52595D01*
X110714Y52642D01*
X110761Y52690D01*
X111238Y53261D02*
X111238Y52595D01*
X111238Y53166D02*
X111285Y53214D01*
X111380Y53261D01*
X111523Y53261D01*
X111619Y53214D01*
X111666Y53119D01*
X111666Y52595D01*
X112571Y52595D02*
X112571Y53595D01*
X112571Y52642D02*
X112476Y52595D01*
X112285Y52595D01*
X112190Y52642D01*
X112142Y52690D01*
X112095Y52785D01*
X112095Y53071D01*
X112142Y53166D01*
X112190Y53214D01*
X112285Y53261D01*
X112476Y53261D01*
X112571Y53214D01*
X113190Y52595D02*
X113095Y52642D01*
X113047Y52690D01*
X112999Y52785D01*
X112999Y53071D01*
X113047Y53166D01*
X113095Y53214D01*
X113190Y53261D01*
X113333Y53261D01*
X113428Y53214D01*
X113476Y53166D01*
X113523Y53071D01*
X113523Y52785D01*
X113476Y52690D01*
X113428Y52642D01*
X113333Y52595D01*
X113190Y52595D01*
X114095Y52595D02*
X113999Y52642D01*
X113952Y52738D01*
X113952Y53595D01*
X114619Y52595D02*
X114523Y52642D01*
X114476Y52690D01*
X114428Y52785D01*
X114428Y53071D01*
X114476Y53166D01*
X114523Y53214D01*
X114619Y53261D01*
X114761Y53261D01*
X114857Y53214D01*
X114904Y53166D01*
X114952Y53071D01*
X114952Y52785D01*
X114904Y52690D01*
X114857Y52642D01*
X114761Y52595D01*
X114619Y52595D01*
X115380Y52690D02*
X115428Y52642D01*
X115380Y52595D01*
X115333Y52642D01*
X115380Y52690D01*
X115380Y52595D01*
X51285Y51095D02*
X51285Y52095D01*
X51857Y51095D01*
X51857Y52095D01*
X52476Y51095D02*
X52380Y51142D01*
X52333Y51190D01*
X52285Y51285D01*
X52285Y51571D01*
X52333Y51666D01*
X52380Y51714D01*
X52476Y51761D01*
X52619Y51761D01*
X52714Y51714D01*
X52761Y51666D01*
X52809Y51571D01*
X52809Y51285D01*
X52761Y51190D01*
X52714Y51142D01*
X52619Y51095D01*
X52476Y51095D01*
X54428Y51095D02*
X54428Y52095D01*
X54428Y51142D02*
X54333Y51095D01*
X54142Y51095D01*
X54047Y51142D01*
X53999Y51190D01*
X53952Y51285D01*
X53952Y51571D01*
X53999Y51666D01*
X54047Y51714D01*
X54142Y51761D01*
X54333Y51761D01*
X54428Y51714D01*
X55285Y51142D02*
X55190Y51095D01*
X54999Y51095D01*
X54904Y51142D01*
X54857Y51238D01*
X54857Y51619D01*
X54904Y51714D01*
X54999Y51761D01*
X55190Y51761D01*
X55285Y51714D01*
X55333Y51619D01*
X55333Y51523D01*
X54857Y51428D01*
X55714Y51142D02*
X55809Y51095D01*
X55999Y51095D01*
X56095Y51142D01*
X56142Y51238D01*
X56142Y51285D01*
X56095Y51380D01*
X55999Y51428D01*
X55857Y51428D01*
X55761Y51476D01*
X55714Y51571D01*
X55714Y51619D01*
X55761Y51714D01*
X55857Y51761D01*
X55999Y51761D01*
X56095Y51714D01*
X56571Y51095D02*
X56571Y51761D01*
X56571Y52095D02*
X56523Y52047D01*
X56571Y52000D01*
X56619Y52047D01*
X56571Y52095D01*
X56571Y52000D01*
X57476Y51761D02*
X57476Y50952D01*
X57428Y50857D01*
X57380Y50809D01*
X57285Y50761D01*
X57142Y50761D01*
X57047Y50809D01*
X57476Y51142D02*
X57380Y51095D01*
X57190Y51095D01*
X57095Y51142D01*
X57047Y51190D01*
X56999Y51285D01*
X56999Y51571D01*
X57047Y51666D01*
X57095Y51714D01*
X57190Y51761D01*
X57380Y51761D01*
X57476Y51714D01*
X57952Y51761D02*
X57952Y51095D01*
X57952Y51666D02*
X57999Y51714D01*
X58095Y51761D01*
X58238Y51761D01*
X58333Y51714D01*
X58380Y51619D01*
X58380Y51095D01*
X59761Y51095D02*
X59666Y51142D01*
X59619Y51190D01*
X59571Y51285D01*
X59571Y51571D01*
X59619Y51666D01*
X59666Y51714D01*
X59761Y51761D01*
X59904Y51761D01*
X59999Y51714D01*
X60047Y51666D01*
X60095Y51571D01*
X60095Y51285D01*
X60047Y51190D01*
X59999Y51142D01*
X59904Y51095D01*
X59761Y51095D01*
X60523Y51095D02*
X60523Y51761D01*
X60523Y51571D02*
X60571Y51666D01*
X60619Y51714D01*
X60714Y51761D01*
X60809Y51761D01*
X61904Y51095D02*
X61904Y51761D01*
X61904Y51666D02*
X61952Y51714D01*
X62047Y51761D01*
X62190Y51761D01*
X62285Y51714D01*
X62333Y51619D01*
X62333Y51095D01*
X62333Y51619D02*
X62380Y51714D01*
X62476Y51761D01*
X62619Y51761D01*
X62714Y51714D01*
X62761Y51619D01*
X62761Y51095D01*
X63666Y51095D02*
X63666Y51619D01*
X63619Y51714D01*
X63523Y51761D01*
X63333Y51761D01*
X63238Y51714D01*
X63666Y51142D02*
X63571Y51095D01*
X63333Y51095D01*
X63238Y51142D01*
X63190Y51238D01*
X63190Y51333D01*
X63238Y51428D01*
X63333Y51476D01*
X63571Y51476D01*
X63666Y51523D01*
X63999Y51761D02*
X64380Y51761D01*
X64142Y52095D02*
X64142Y51238D01*
X64190Y51142D01*
X64285Y51095D01*
X64380Y51095D01*
X65095Y51142D02*
X64999Y51095D01*
X64809Y51095D01*
X64714Y51142D01*
X64666Y51238D01*
X64666Y51619D01*
X64714Y51714D01*
X64809Y51761D01*
X64999Y51761D01*
X65095Y51714D01*
X65142Y51619D01*
X65142Y51523D01*
X64666Y51428D01*
X65571Y51095D02*
X65571Y51761D01*
X65571Y51571D02*
X65619Y51666D01*
X65666Y51714D01*
X65761Y51761D01*
X65857Y51761D01*
X66190Y51095D02*
X66190Y51761D01*
X66190Y52095D02*
X66142Y52047D01*
X66190Y52000D01*
X66238Y52047D01*
X66190Y52095D01*
X66190Y52000D01*
X67095Y51095D02*
X67095Y51619D01*
X67047Y51714D01*
X66952Y51761D01*
X66761Y51761D01*
X66666Y51714D01*
X67095Y51142D02*
X66999Y51095D01*
X66761Y51095D01*
X66666Y51142D01*
X66619Y51238D01*
X66619Y51333D01*
X66666Y51428D01*
X66761Y51476D01*
X66999Y51476D01*
X67095Y51523D01*
X67714Y51095D02*
X67619Y51142D01*
X67571Y51238D01*
X67571Y52095D01*
X69285Y51142D02*
X69190Y51095D01*
X68999Y51095D01*
X68904Y51142D01*
X68857Y51190D01*
X68809Y51285D01*
X68809Y51571D01*
X68857Y51666D01*
X68904Y51714D01*
X68999Y51761D01*
X69190Y51761D01*
X69285Y51714D01*
X69714Y51095D02*
X69714Y52095D01*
X70142Y51095D02*
X70142Y51619D01*
X70095Y51714D01*
X69999Y51761D01*
X69857Y51761D01*
X69761Y51714D01*
X69714Y51666D01*
X71047Y51095D02*
X71047Y51619D01*
X70999Y51714D01*
X70904Y51761D01*
X70714Y51761D01*
X70619Y51714D01*
X71047Y51142D02*
X70952Y51095D01*
X70714Y51095D01*
X70619Y51142D01*
X70571Y51238D01*
X70571Y51333D01*
X70619Y51428D01*
X70714Y51476D01*
X70952Y51476D01*
X71047Y51523D01*
X71523Y51761D02*
X71523Y51095D01*
X71523Y51666D02*
X71571Y51714D01*
X71666Y51761D01*
X71809Y51761D01*
X71904Y51714D01*
X71952Y51619D01*
X71952Y51095D01*
X72857Y51761D02*
X72857Y50952D01*
X72809Y50857D01*
X72761Y50809D01*
X72666Y50761D01*
X72523Y50761D01*
X72428Y50809D01*
X72857Y51142D02*
X72761Y51095D01*
X72571Y51095D01*
X72476Y51142D01*
X72428Y51190D01*
X72380Y51285D01*
X72380Y51571D01*
X72428Y51666D01*
X72476Y51714D01*
X72571Y51761D01*
X72761Y51761D01*
X72857Y51714D01*
X73714Y51142D02*
X73619Y51095D01*
X73428Y51095D01*
X73333Y51142D01*
X73285Y51238D01*
X73285Y51619D01*
X73333Y51714D01*
X73428Y51761D01*
X73619Y51761D01*
X73714Y51714D01*
X73761Y51619D01*
X73761Y51523D01*
X73285Y51428D01*
X74142Y51142D02*
X74238Y51095D01*
X74428Y51095D01*
X74523Y51142D01*
X74571Y51238D01*
X74571Y51285D01*
X74523Y51380D01*
X74428Y51428D01*
X74285Y51428D01*
X74190Y51476D01*
X74142Y51571D01*
X74142Y51619D01*
X74190Y51714D01*
X74285Y51761D01*
X74428Y51761D01*
X74523Y51714D01*
X75714Y51142D02*
X75809Y51095D01*
X75999Y51095D01*
X76095Y51142D01*
X76142Y51238D01*
X76142Y51285D01*
X76095Y51380D01*
X75999Y51428D01*
X75857Y51428D01*
X75761Y51476D01*
X75714Y51571D01*
X75714Y51619D01*
X75761Y51714D01*
X75857Y51761D01*
X75999Y51761D01*
X76095Y51714D01*
X76571Y51095D02*
X76571Y52095D01*
X76999Y51095D02*
X76999Y51619D01*
X76952Y51714D01*
X76857Y51761D01*
X76714Y51761D01*
X76619Y51714D01*
X76571Y51666D01*
X77904Y51095D02*
X77904Y51619D01*
X77857Y51714D01*
X77761Y51761D01*
X77571Y51761D01*
X77476Y51714D01*
X77904Y51142D02*
X77809Y51095D01*
X77571Y51095D01*
X77476Y51142D01*
X77428Y51238D01*
X77428Y51333D01*
X77476Y51428D01*
X77571Y51476D01*
X77809Y51476D01*
X77904Y51523D01*
X78523Y51095D02*
X78428Y51142D01*
X78380Y51238D01*
X78380Y52095D01*
X79047Y51095D02*
X78952Y51142D01*
X78904Y51238D01*
X78904Y52095D01*
X80190Y51095D02*
X80190Y52095D01*
X80190Y51714D02*
X80285Y51761D01*
X80476Y51761D01*
X80571Y51714D01*
X80619Y51666D01*
X80666Y51571D01*
X80666Y51285D01*
X80619Y51190D01*
X80571Y51142D01*
X80476Y51095D01*
X80285Y51095D01*
X80190Y51142D01*
X81476Y51142D02*
X81380Y51095D01*
X81190Y51095D01*
X81095Y51142D01*
X81047Y51238D01*
X81047Y51619D01*
X81095Y51714D01*
X81190Y51761D01*
X81380Y51761D01*
X81476Y51714D01*
X81523Y51619D01*
X81523Y51523D01*
X81047Y51428D01*
X82714Y51095D02*
X82714Y51761D01*
X82714Y52095D02*
X82666Y52047D01*
X82714Y52000D01*
X82761Y52047D01*
X82714Y52095D01*
X82714Y52000D01*
X83190Y51095D02*
X83190Y51761D01*
X83190Y51666D02*
X83238Y51714D01*
X83333Y51761D01*
X83476Y51761D01*
X83571Y51714D01*
X83619Y51619D01*
X83619Y51095D01*
X83619Y51619D02*
X83666Y51714D01*
X83761Y51761D01*
X83904Y51761D01*
X83999Y51714D01*
X84047Y51619D01*
X84047Y51095D01*
X84523Y51761D02*
X84523Y50761D01*
X84523Y51714D02*
X84619Y51761D01*
X84809Y51761D01*
X84904Y51714D01*
X84952Y51666D01*
X84999Y51571D01*
X84999Y51285D01*
X84952Y51190D01*
X84904Y51142D01*
X84809Y51095D01*
X84619Y51095D01*
X84523Y51142D01*
X85571Y51095D02*
X85476Y51142D01*
X85428Y51238D01*
X85428Y52095D01*
X86333Y51142D02*
X86238Y51095D01*
X86047Y51095D01*
X85952Y51142D01*
X85904Y51238D01*
X85904Y51619D01*
X85952Y51714D01*
X86047Y51761D01*
X86238Y51761D01*
X86333Y51714D01*
X86380Y51619D01*
X86380Y51523D01*
X85904Y51428D01*
X86809Y51095D02*
X86809Y51761D01*
X86809Y51666D02*
X86857Y51714D01*
X86952Y51761D01*
X87095Y51761D01*
X87190Y51714D01*
X87238Y51619D01*
X87238Y51095D01*
X87238Y51619D02*
X87285Y51714D01*
X87380Y51761D01*
X87523Y51761D01*
X87619Y51714D01*
X87666Y51619D01*
X87666Y51095D01*
X88523Y51142D02*
X88428Y51095D01*
X88238Y51095D01*
X88142Y51142D01*
X88095Y51238D01*
X88095Y51619D01*
X88142Y51714D01*
X88238Y51761D01*
X88428Y51761D01*
X88523Y51714D01*
X88571Y51619D01*
X88571Y51523D01*
X88095Y51428D01*
X88999Y51761D02*
X88999Y51095D01*
X88999Y51666D02*
X89047Y51714D01*
X89142Y51761D01*
X89285Y51761D01*
X89380Y51714D01*
X89428Y51619D01*
X89428Y51095D01*
X89761Y51761D02*
X90142Y51761D01*
X89904Y52095D02*
X89904Y51238D01*
X89952Y51142D01*
X90047Y51095D01*
X90142Y51095D01*
X90857Y51142D02*
X90761Y51095D01*
X90571Y51095D01*
X90476Y51142D01*
X90428Y51238D01*
X90428Y51619D01*
X90476Y51714D01*
X90571Y51761D01*
X90761Y51761D01*
X90857Y51714D01*
X90904Y51619D01*
X90904Y51523D01*
X90428Y51428D01*
X91761Y51095D02*
X91761Y52095D01*
X91761Y51142D02*
X91666Y51095D01*
X91476Y51095D01*
X91380Y51142D01*
X91333Y51190D01*
X91285Y51285D01*
X91285Y51571D01*
X91333Y51666D01*
X91380Y51714D01*
X91476Y51761D01*
X91666Y51761D01*
X91761Y51714D01*
X92904Y51761D02*
X93095Y51095D01*
X93285Y51571D01*
X93476Y51095D01*
X93666Y51761D01*
X94047Y51095D02*
X94047Y51761D01*
X94047Y52095D02*
X93999Y52047D01*
X94047Y52000D01*
X94095Y52047D01*
X94047Y52095D01*
X94047Y52000D01*
X94380Y51761D02*
X94761Y51761D01*
X94523Y52095D02*
X94523Y51238D01*
X94571Y51142D01*
X94666Y51095D01*
X94761Y51095D01*
X95095Y51095D02*
X95095Y52095D01*
X95523Y51095D02*
X95523Y51619D01*
X95476Y51714D01*
X95380Y51761D01*
X95238Y51761D01*
X95142Y51714D01*
X95095Y51666D01*
X96142Y51095D02*
X96047Y51142D01*
X95999Y51190D01*
X95952Y51285D01*
X95952Y51571D01*
X95999Y51666D01*
X96047Y51714D01*
X96142Y51761D01*
X96285Y51761D01*
X96380Y51714D01*
X96428Y51666D01*
X96476Y51571D01*
X96476Y51285D01*
X96428Y51190D01*
X96380Y51142D01*
X96285Y51095D01*
X96142Y51095D01*
X97333Y51761D02*
X97333Y51095D01*
X96904Y51761D02*
X96904Y51238D01*
X96952Y51142D01*
X97047Y51095D01*
X97190Y51095D01*
X97285Y51142D01*
X97333Y51190D01*
X97666Y51761D02*
X98047Y51761D01*
X97809Y52095D02*
X97809Y51238D01*
X97857Y51142D01*
X97952Y51095D01*
X98047Y51095D01*
X99571Y51095D02*
X99571Y51619D01*
X99523Y51714D01*
X99428Y51761D01*
X99238Y51761D01*
X99142Y51714D01*
X99571Y51142D02*
X99476Y51095D01*
X99238Y51095D01*
X99142Y51142D01*
X99095Y51238D01*
X99095Y51333D01*
X99142Y51428D01*
X99238Y51476D01*
X99476Y51476D01*
X99571Y51523D01*
X100047Y51761D02*
X100047Y50761D01*
X100047Y51714D02*
X100142Y51761D01*
X100333Y51761D01*
X100428Y51714D01*
X100476Y51666D01*
X100523Y51571D01*
X100523Y51285D01*
X100476Y51190D01*
X100428Y51142D01*
X100333Y51095D01*
X100142Y51095D01*
X100047Y51142D01*
X100952Y51761D02*
X100952Y50761D01*
X100952Y51714D02*
X101047Y51761D01*
X101238Y51761D01*
X101333Y51714D01*
X101380Y51666D01*
X101428Y51571D01*
X101428Y51285D01*
X101380Y51190D01*
X101333Y51142D01*
X101238Y51095D01*
X101047Y51095D01*
X100952Y51142D01*
X101857Y51095D02*
X101857Y51761D01*
X101857Y51571D02*
X101904Y51666D01*
X101952Y51714D01*
X102047Y51761D01*
X102142Y51761D01*
X102619Y51095D02*
X102523Y51142D01*
X102476Y51190D01*
X102428Y51285D01*
X102428Y51571D01*
X102476Y51666D01*
X102523Y51714D01*
X102619Y51761D01*
X102761Y51761D01*
X102857Y51714D01*
X102904Y51666D01*
X102952Y51571D01*
X102952Y51285D01*
X102904Y51190D01*
X102857Y51142D01*
X102761Y51095D01*
X102619Y51095D01*
X103285Y51761D02*
X103523Y51095D01*
X103761Y51761D01*
X104571Y51095D02*
X104571Y51619D01*
X104523Y51714D01*
X104428Y51761D01*
X104238Y51761D01*
X104142Y51714D01*
X104571Y51142D02*
X104476Y51095D01*
X104238Y51095D01*
X104142Y51142D01*
X104095Y51238D01*
X104095Y51333D01*
X104142Y51428D01*
X104238Y51476D01*
X104476Y51476D01*
X104571Y51523D01*
X105190Y51095D02*
X105095Y51142D01*
X105047Y51238D01*
X105047Y52095D01*
X51142Y50261D02*
X51523Y50261D01*
X51285Y49595D02*
X51285Y50452D01*
X51333Y50547D01*
X51428Y50595D01*
X51523Y50595D01*
X51857Y49595D02*
X51857Y50261D01*
X51857Y50071D02*
X51904Y50166D01*
X51952Y50214D01*
X52047Y50261D01*
X52142Y50261D01*
X52619Y49595D02*
X52523Y49642D01*
X52476Y49690D01*
X52428Y49785D01*
X52428Y50071D01*
X52476Y50166D01*
X52523Y50214D01*
X52619Y50261D01*
X52761Y50261D01*
X52857Y50214D01*
X52904Y50166D01*
X52952Y50071D01*
X52952Y49785D01*
X52904Y49690D01*
X52857Y49642D01*
X52761Y49595D01*
X52619Y49595D01*
X53380Y49595D02*
X53380Y50261D01*
X53380Y50166D02*
X53428Y50214D01*
X53523Y50261D01*
X53666Y50261D01*
X53761Y50214D01*
X53809Y50119D01*
X53809Y49595D01*
X53809Y50119D02*
X53857Y50214D01*
X53952Y50261D01*
X54095Y50261D01*
X54190Y50214D01*
X54238Y50119D01*
X54238Y49595D01*
X55761Y50595D02*
X55761Y49880D01*
X55714Y49738D01*
X55619Y49642D01*
X55476Y49595D01*
X55380Y49595D01*
X56666Y49595D02*
X56666Y50119D01*
X56619Y50214D01*
X56523Y50261D01*
X56333Y50261D01*
X56238Y50214D01*
X56666Y49642D02*
X56571Y49595D01*
X56333Y49595D01*
X56238Y49642D01*
X56190Y49738D01*
X56190Y49833D01*
X56238Y49928D01*
X56333Y49976D01*
X56571Y49976D01*
X56666Y50023D01*
X57095Y49642D02*
X57190Y49595D01*
X57380Y49595D01*
X57476Y49642D01*
X57523Y49738D01*
X57523Y49785D01*
X57476Y49880D01*
X57380Y49928D01*
X57238Y49928D01*
X57142Y49976D01*
X57095Y50071D01*
X57095Y50119D01*
X57142Y50214D01*
X57238Y50261D01*
X57380Y50261D01*
X57476Y50214D01*
X58095Y49595D02*
X57999Y49642D01*
X57952Y49690D01*
X57904Y49785D01*
X57904Y50071D01*
X57952Y50166D01*
X57999Y50214D01*
X58095Y50261D01*
X58238Y50261D01*
X58333Y50214D01*
X58380Y50166D01*
X58428Y50071D01*
X58428Y49785D01*
X58380Y49690D01*
X58333Y49642D01*
X58238Y49595D01*
X58095Y49595D01*
X58857Y50261D02*
X58857Y49595D01*
X58857Y50166D02*
X58904Y50214D01*
X58999Y50261D01*
X59142Y50261D01*
X59238Y50214D01*
X59285Y50119D01*
X59285Y49595D01*
X61095Y49690D02*
X61047Y49642D01*
X60904Y49595D01*
X60809Y49595D01*
X60666Y49642D01*
X60571Y49738D01*
X60523Y49833D01*
X60476Y50023D01*
X60476Y50166D01*
X60523Y50357D01*
X60571Y50452D01*
X60666Y50547D01*
X60809Y50595D01*
X60904Y50595D01*
X61047Y50547D01*
X61095Y50500D01*
X61904Y49642D02*
X61809Y49595D01*
X61619Y49595D01*
X61523Y49642D01*
X61476Y49738D01*
X61476Y50119D01*
X61523Y50214D01*
X61619Y50261D01*
X61809Y50261D01*
X61904Y50214D01*
X61952Y50119D01*
X61952Y50023D01*
X61476Y49928D01*
X62380Y49595D02*
X62380Y50261D01*
X62380Y50071D02*
X62428Y50166D01*
X62476Y50214D01*
X62571Y50261D01*
X62666Y50261D01*
X63428Y50261D02*
X63428Y49595D01*
X62999Y50261D02*
X62999Y49738D01*
X63047Y49642D01*
X63142Y49595D01*
X63285Y49595D01*
X63380Y49642D01*
X63428Y49690D01*
X63904Y50261D02*
X63904Y49595D01*
X63904Y50166D02*
X63952Y50214D01*
X64047Y50261D01*
X64190Y50261D01*
X64285Y50214D01*
X64333Y50119D01*
X64333Y49595D01*
X65238Y49595D02*
X65238Y50595D01*
X65238Y49642D02*
X65142Y49595D01*
X64952Y49595D01*
X64857Y49642D01*
X64809Y49690D01*
X64761Y49785D01*
X64761Y50071D01*
X64809Y50166D01*
X64857Y50214D01*
X64952Y50261D01*
X65142Y50261D01*
X65238Y50214D01*
X65857Y49595D02*
X65761Y49642D01*
X65714Y49690D01*
X65666Y49785D01*
X65666Y50071D01*
X65714Y50166D01*
X65761Y50214D01*
X65857Y50261D01*
X65999Y50261D01*
X66095Y50214D01*
X66142Y50166D01*
X66190Y50071D01*
X66190Y49785D01*
X66142Y49690D01*
X66095Y49642D01*
X65999Y49595D01*
X65857Y49595D01*
X66761Y49595D02*
X66666Y49642D01*
X66619Y49738D01*
X66619Y50595D01*
X67285Y49595D02*
X67190Y49642D01*
X67142Y49690D01*
X67095Y49785D01*
X67095Y50071D01*
X67142Y50166D01*
X67190Y50214D01*
X67285Y50261D01*
X67428Y50261D01*
X67523Y50214D01*
X67571Y50166D01*
X67619Y50071D01*
X67619Y49785D01*
X67571Y49690D01*
X67523Y49642D01*
X67428Y49595D01*
X67285Y49595D01*
X69095Y49214D02*
X69047Y49261D01*
X68952Y49404D01*
X68904Y49500D01*
X68857Y49642D01*
X68809Y49880D01*
X68809Y50071D01*
X68857Y50309D01*
X68904Y50452D01*
X68952Y50547D01*
X69047Y50690D01*
X69095Y50738D01*
X69476Y50261D02*
X69476Y49404D01*
X69428Y49309D01*
X69333Y49261D01*
X69285Y49261D01*
X69476Y50595D02*
X69428Y50547D01*
X69476Y50500D01*
X69523Y50547D01*
X69476Y50595D01*
X69476Y50500D01*
X70380Y49595D02*
X70380Y50119D01*
X70333Y50214D01*
X70238Y50261D01*
X70047Y50261D01*
X69952Y50214D01*
X70380Y49642D02*
X70285Y49595D01*
X70047Y49595D01*
X69952Y49642D01*
X69904Y49738D01*
X69904Y49833D01*
X69952Y49928D01*
X70047Y49976D01*
X70285Y49976D01*
X70380Y50023D01*
X70809Y49642D02*
X70904Y49595D01*
X71095Y49595D01*
X71190Y49642D01*
X71238Y49738D01*
X71238Y49785D01*
X71190Y49880D01*
X71095Y49928D01*
X70952Y49928D01*
X70857Y49976D01*
X70809Y50071D01*
X70809Y50119D01*
X70857Y50214D01*
X70952Y50261D01*
X71095Y50261D01*
X71190Y50214D01*
X71809Y49595D02*
X71714Y49642D01*
X71666Y49690D01*
X71619Y49785D01*
X71619Y50071D01*
X71666Y50166D01*
X71714Y50214D01*
X71809Y50261D01*
X71952Y50261D01*
X72047Y50214D01*
X72095Y50166D01*
X72142Y50071D01*
X72142Y49785D01*
X72095Y49690D01*
X72047Y49642D01*
X71952Y49595D01*
X71809Y49595D01*
X72571Y50261D02*
X72571Y49595D01*
X72571Y50166D02*
X72619Y50214D01*
X72714Y50261D01*
X72857Y50261D01*
X72952Y50214D01*
X72999Y50119D01*
X72999Y49595D01*
X74095Y50071D02*
X74047Y50119D01*
X73952Y50166D01*
X73857Y50166D01*
X73761Y50119D01*
X73714Y50071D01*
X73666Y49976D01*
X73666Y49880D01*
X73714Y49785D01*
X73761Y49738D01*
X73857Y49690D01*
X73952Y49690D01*
X74047Y49738D01*
X74095Y49785D01*
X74095Y50166D02*
X74095Y49785D01*
X74142Y49738D01*
X74190Y49738D01*
X74285Y49785D01*
X74333Y49880D01*
X74333Y50119D01*
X74238Y50261D01*
X74095Y50357D01*
X73904Y50404D01*
X73714Y50357D01*
X73571Y50261D01*
X73476Y50119D01*
X73428Y49928D01*
X73476Y49738D01*
X73571Y49595D01*
X73714Y49500D01*
X73904Y49452D01*
X74095Y49500D01*
X74238Y49595D01*
X75190Y49642D02*
X75095Y49595D01*
X74904Y49595D01*
X74809Y49642D01*
X74761Y49690D01*
X74714Y49785D01*
X74714Y50071D01*
X74761Y50166D01*
X74809Y50214D01*
X74904Y50261D01*
X75095Y50261D01*
X75190Y50214D01*
X75999Y49642D02*
X75904Y49595D01*
X75714Y49595D01*
X75619Y49642D01*
X75571Y49738D01*
X75571Y50119D01*
X75619Y50214D01*
X75714Y50261D01*
X75904Y50261D01*
X75999Y50214D01*
X76047Y50119D01*
X76047Y50023D01*
X75571Y49928D01*
X76476Y49595D02*
X76476Y50261D01*
X76476Y50071D02*
X76523Y50166D01*
X76571Y50214D01*
X76666Y50261D01*
X76761Y50261D01*
X77523Y50261D02*
X77523Y49595D01*
X77095Y50261D02*
X77095Y49738D01*
X77142Y49642D01*
X77238Y49595D01*
X77380Y49595D01*
X77476Y49642D01*
X77523Y49690D01*
X77999Y50261D02*
X77999Y49595D01*
X77999Y50166D02*
X78047Y50214D01*
X78142Y50261D01*
X78285Y50261D01*
X78380Y50214D01*
X78428Y50119D01*
X78428Y49595D01*
X79333Y49595D02*
X79333Y50595D01*
X79333Y49642D02*
X79238Y49595D01*
X79047Y49595D01*
X78952Y49642D01*
X78904Y49690D01*
X78857Y49785D01*
X78857Y50071D01*
X78904Y50166D01*
X78952Y50214D01*
X79047Y50261D01*
X79238Y50261D01*
X79333Y50214D01*
X79952Y49595D02*
X79857Y49642D01*
X79809Y49690D01*
X79761Y49785D01*
X79761Y50071D01*
X79809Y50166D01*
X79857Y50214D01*
X79952Y50261D01*
X80095Y50261D01*
X80190Y50214D01*
X80238Y50166D01*
X80285Y50071D01*
X80285Y49785D01*
X80238Y49690D01*
X80190Y49642D01*
X80095Y49595D01*
X79952Y49595D01*
X80857Y49595D02*
X80761Y49642D01*
X80714Y49738D01*
X80714Y50595D01*
X81380Y49595D02*
X81285Y49642D01*
X81238Y49690D01*
X81190Y49785D01*
X81190Y50071D01*
X81238Y50166D01*
X81285Y50214D01*
X81380Y50261D01*
X81523Y50261D01*
X81619Y50214D01*
X81666Y50166D01*
X81714Y50071D01*
X81714Y49785D01*
X81666Y49690D01*
X81619Y49642D01*
X81523Y49595D01*
X81380Y49595D01*
X82142Y49690D02*
X82190Y49642D01*
X82142Y49595D01*
X82095Y49642D01*
X82142Y49690D01*
X82142Y49595D01*
X83047Y49642D02*
X82952Y49595D01*
X82761Y49595D01*
X82666Y49642D01*
X82619Y49690D01*
X82571Y49785D01*
X82571Y50071D01*
X82619Y50166D01*
X82666Y50214D01*
X82761Y50261D01*
X82952Y50261D01*
X83047Y50214D01*
X83619Y49595D02*
X83523Y49642D01*
X83476Y49690D01*
X83428Y49785D01*
X83428Y50071D01*
X83476Y50166D01*
X83523Y50214D01*
X83619Y50261D01*
X83761Y50261D01*
X83857Y50214D01*
X83904Y50166D01*
X83952Y50071D01*
X83952Y49785D01*
X83904Y49690D01*
X83857Y49642D01*
X83761Y49595D01*
X83619Y49595D01*
X84380Y49595D02*
X84380Y50261D01*
X84380Y50166D02*
X84428Y50214D01*
X84523Y50261D01*
X84666Y50261D01*
X84761Y50214D01*
X84809Y50119D01*
X84809Y49595D01*
X84809Y50119D02*
X84857Y50214D01*
X84952Y50261D01*
X85095Y50261D01*
X85190Y50214D01*
X85238Y50119D01*
X85238Y49595D01*
X85619Y49214D02*
X85666Y49261D01*
X85761Y49404D01*
X85809Y49500D01*
X85857Y49642D01*
X85904Y49880D01*
X85904Y50071D01*
X85857Y50309D01*
X85809Y50452D01*
X85761Y50547D01*
X85666Y50690D01*
X85619Y50738D01*
X86380Y49690D02*
X86428Y49642D01*
X86380Y49595D01*
X86333Y49642D01*
X86380Y49690D01*
X86380Y49595D01*
X55476Y56595D02*
X55476Y57595D01*
X56047Y56595D01*
X56047Y57595D01*
X56714Y57595D02*
X56904Y57595D01*
X57000Y57547D01*
X57095Y57452D01*
X57142Y57261D01*
X57142Y56928D01*
X57095Y56738D01*
X57000Y56642D01*
X56904Y56595D01*
X56714Y56595D01*
X56619Y56642D01*
X56523Y56738D01*
X56476Y56928D01*
X56476Y57261D01*
X56523Y57452D01*
X56619Y57547D01*
X56714Y57595D01*
X57428Y57595D02*
X58000Y57595D01*
X57714Y56595D02*
X57714Y57595D01*
X58333Y57119D02*
X58666Y57119D01*
X58809Y56595D02*
X58333Y56595D01*
X58333Y57595D01*
X58809Y57595D01*
X59190Y56642D02*
X59333Y56595D01*
X59571Y56595D01*
X59666Y56642D01*
X59714Y56690D01*
X59761Y56785D01*
X59761Y56880D01*
X59714Y56976D01*
X59666Y57023D01*
X59571Y57071D01*
X59380Y57119D01*
X59285Y57166D01*
X59238Y57214D01*
X59190Y57309D01*
X59190Y57404D01*
X59238Y57500D01*
X59285Y57547D01*
X59380Y57595D01*
X59619Y57595D01*
X59761Y57547D01*
X61238Y56214D02*
X61190Y56261D01*
X61095Y56404D01*
X61047Y56500D01*
X61000Y56642D01*
X60952Y56880D01*
X60952Y57071D01*
X61000Y57309D01*
X61047Y57452D01*
X61095Y57547D01*
X61190Y57690D01*
X61238Y57738D01*
X61619Y57595D02*
X61619Y56785D01*
X61666Y56690D01*
X61714Y56642D01*
X61809Y56595D01*
X62000Y56595D01*
X62095Y56642D01*
X62142Y56690D01*
X62190Y56785D01*
X62190Y57595D01*
X62666Y57261D02*
X62666Y56595D01*
X62666Y57166D02*
X62714Y57214D01*
X62809Y57261D01*
X62952Y57261D01*
X63047Y57214D01*
X63095Y57119D01*
X63095Y56595D01*
X63714Y56595D02*
X63619Y56642D01*
X63571Y56738D01*
X63571Y57595D01*
X64476Y56642D02*
X64380Y56595D01*
X64190Y56595D01*
X64095Y56642D01*
X64047Y56738D01*
X64047Y57119D01*
X64095Y57214D01*
X64190Y57261D01*
X64380Y57261D01*
X64476Y57214D01*
X64523Y57119D01*
X64523Y57023D01*
X64047Y56928D01*
X64904Y56642D02*
X65000Y56595D01*
X65190Y56595D01*
X65285Y56642D01*
X65333Y56738D01*
X65333Y56785D01*
X65285Y56880D01*
X65190Y56928D01*
X65047Y56928D01*
X64952Y56976D01*
X64904Y57071D01*
X64904Y57119D01*
X64952Y57214D01*
X65047Y57261D01*
X65190Y57261D01*
X65285Y57214D01*
X65714Y56642D02*
X65809Y56595D01*
X66000Y56595D01*
X66095Y56642D01*
X66142Y56738D01*
X66142Y56785D01*
X66095Y56880D01*
X66000Y56928D01*
X65857Y56928D01*
X65761Y56976D01*
X65714Y57071D01*
X65714Y57119D01*
X65761Y57214D01*
X65857Y57261D01*
X66000Y57261D01*
X66095Y57214D01*
X67476Y56595D02*
X67380Y56642D01*
X67333Y56690D01*
X67285Y56785D01*
X67285Y57071D01*
X67333Y57166D01*
X67380Y57214D01*
X67476Y57261D01*
X67619Y57261D01*
X67714Y57214D01*
X67761Y57166D01*
X67809Y57071D01*
X67809Y56785D01*
X67761Y56690D01*
X67714Y56642D01*
X67619Y56595D01*
X67476Y56595D01*
X68095Y57261D02*
X68476Y57261D01*
X68238Y57595D02*
X68238Y56738D01*
X68285Y56642D01*
X68380Y56595D01*
X68476Y56595D01*
X68809Y56595D02*
X68809Y57595D01*
X69238Y56595D02*
X69238Y57119D01*
X69190Y57214D01*
X69095Y57261D01*
X68952Y57261D01*
X68857Y57214D01*
X68809Y57166D01*
X70095Y56642D02*
X69999Y56595D01*
X69809Y56595D01*
X69714Y56642D01*
X69666Y56738D01*
X69666Y57119D01*
X69714Y57214D01*
X69809Y57261D01*
X69999Y57261D01*
X70095Y57214D01*
X70142Y57119D01*
X70142Y57023D01*
X69666Y56928D01*
X70571Y56595D02*
X70571Y57261D01*
X70571Y57071D02*
X70619Y57166D01*
X70666Y57214D01*
X70761Y57261D01*
X70857Y57261D01*
X71095Y57261D02*
X71285Y56595D01*
X71476Y57071D01*
X71666Y56595D01*
X71857Y57261D01*
X72238Y56595D02*
X72238Y57261D01*
X72238Y57595D02*
X72190Y57547D01*
X72238Y57500D01*
X72285Y57547D01*
X72238Y57595D01*
X72238Y57500D01*
X72666Y56642D02*
X72761Y56595D01*
X72952Y56595D01*
X73047Y56642D01*
X73095Y56738D01*
X73095Y56785D01*
X73047Y56880D01*
X72952Y56928D01*
X72809Y56928D01*
X72714Y56976D01*
X72666Y57071D01*
X72666Y57119D01*
X72714Y57214D01*
X72809Y57261D01*
X72952Y57261D01*
X73047Y57214D01*
X73904Y56642D02*
X73809Y56595D01*
X73619Y56595D01*
X73523Y56642D01*
X73476Y56738D01*
X73476Y57119D01*
X73523Y57214D01*
X73619Y57261D01*
X73809Y57261D01*
X73904Y57214D01*
X73952Y57119D01*
X73952Y57023D01*
X73476Y56928D01*
X75095Y56642D02*
X75190Y56595D01*
X75380Y56595D01*
X75476Y56642D01*
X75523Y56738D01*
X75523Y56785D01*
X75476Y56880D01*
X75380Y56928D01*
X75238Y56928D01*
X75142Y56976D01*
X75095Y57071D01*
X75095Y57119D01*
X75142Y57214D01*
X75238Y57261D01*
X75380Y57261D01*
X75476Y57214D01*
X75952Y57261D02*
X75952Y56261D01*
X75952Y57214D02*
X76047Y57261D01*
X76238Y57261D01*
X76333Y57214D01*
X76380Y57166D01*
X76428Y57071D01*
X76428Y56785D01*
X76380Y56690D01*
X76333Y56642D01*
X76238Y56595D01*
X76047Y56595D01*
X75952Y56642D01*
X77238Y56642D02*
X77142Y56595D01*
X76952Y56595D01*
X76857Y56642D01*
X76809Y56738D01*
X76809Y57119D01*
X76857Y57214D01*
X76952Y57261D01*
X77142Y57261D01*
X77238Y57214D01*
X77285Y57119D01*
X77285Y57023D01*
X76809Y56928D01*
X78142Y56642D02*
X78047Y56595D01*
X77857Y56595D01*
X77761Y56642D01*
X77714Y56690D01*
X77666Y56785D01*
X77666Y57071D01*
X77714Y57166D01*
X77761Y57214D01*
X77857Y57261D01*
X78047Y57261D01*
X78142Y57214D01*
X78571Y56595D02*
X78571Y57261D01*
X78571Y57595D02*
X78523Y57547D01*
X78571Y57500D01*
X78619Y57547D01*
X78571Y57595D01*
X78571Y57500D01*
X78904Y57261D02*
X79285Y57261D01*
X79047Y56595D02*
X79047Y57452D01*
X79095Y57547D01*
X79190Y57595D01*
X79285Y57595D01*
X79619Y56595D02*
X79619Y57261D01*
X79619Y57595D02*
X79571Y57547D01*
X79619Y57500D01*
X79666Y57547D01*
X79619Y57595D01*
X79619Y57500D01*
X80476Y56642D02*
X80380Y56595D01*
X80190Y56595D01*
X80095Y56642D01*
X80047Y56738D01*
X80047Y57119D01*
X80095Y57214D01*
X80190Y57261D01*
X80380Y57261D01*
X80476Y57214D01*
X80523Y57119D01*
X80523Y57023D01*
X80047Y56928D01*
X81380Y56595D02*
X81380Y57595D01*
X81380Y56642D02*
X81285Y56595D01*
X81095Y56595D01*
X80999Y56642D01*
X80952Y56690D01*
X80904Y56785D01*
X80904Y57071D01*
X80952Y57166D01*
X80999Y57214D01*
X81095Y57261D01*
X81285Y57261D01*
X81380Y57214D01*
X81857Y56690D02*
X81904Y56642D01*
X81857Y56595D01*
X81809Y56642D01*
X81857Y56690D01*
X81857Y56595D01*
X82238Y56214D02*
X82285Y56261D01*
X82380Y56404D01*
X82428Y56500D01*
X82476Y56642D01*
X82523Y56880D01*
X82523Y57071D01*
X82476Y57309D01*
X82428Y57452D01*
X82380Y57547D01*
X82285Y57690D01*
X82238Y57738D01*
G54D11*
X42000Y0D02*
X0Y0D01*
X42000Y60000D02*
X42000Y0D01*
X0Y60000D02*
X42000Y60000D01*
X0Y0D02*
X0Y60000D01*
M02*
