M48
;DRILL file {kicad (2015-01-16 BZR 5376)-product} date 3/22/2015 17:45:08
;FORMAT={2:4/ absolute / inch / keep zeros}
FMAT,2
INCH,TZ
T1C0.020
T2C0.040
T3C0.122
%
G90
G05
M72
T1
X002000Y045000
X002000Y015000
X002250Y045750
X002250Y044250
X002250Y015750
X002250Y014250
X003000Y046000
X003000Y044000
X003000Y016000
X003000Y014000
X003400Y028500
X003750Y045750
X003750Y044250
X003750Y015750
X003750Y014250
X004000Y045000
X004000Y015000
X006050Y002500
X007500Y024917
X007500Y018500
X008450Y049700
X008450Y045000
X008695Y011945
X009400Y029500
X009400Y029000
X009400Y028000
X009400Y027500
X009500Y054000
X009500Y038850
X009900Y009500
X010250Y036250
X010450Y009500
X011000Y035350
X011000Y009500
X011350Y023550
X011500Y048500
X011500Y048000
X011500Y047500
X011500Y047000
X011550Y009500
X012100Y044500
X012100Y016550
X013550Y057500
X013750Y044950
X013750Y030000
X013750Y017400
X013750Y005500
X014750Y024550
X015114Y003500
X015600Y033050
X016600Y033050
X016850Y025250
X017000Y012500
X017100Y035000
X017150Y036850
X017250Y005500
X017250Y002500
X017850Y028400
X018500Y043500
X018500Y043000
X018500Y042500
X018500Y042000
X018600Y033050
X018850Y027000
X019500Y041750
X019750Y015000
X020300Y015000
X020600Y033300
X020850Y027000
X021000Y037200
X021400Y015000
X021500Y037700
X021850Y032650
X021850Y028400
X021900Y015000
X022000Y051500
X022000Y042300
X022100Y033300
X022750Y017400
X022750Y007500
X022850Y027000
X023500Y049000
X023500Y042750
X024150Y032300
X024250Y009500
X024800Y009500
X024850Y045000
X025350Y045000
X025350Y009500
X025750Y057500
X025750Y054400
X025800Y035000
X025850Y045000
X025950Y009500
X026350Y045000
X026750Y017400
X026750Y008500
X028000Y054500
X028750Y056500
X028750Y003500
X029750Y030000
X029750Y002500
X030900Y022700
X031100Y032050
X031720Y022503
X032750Y006000
X032800Y049850
X034250Y036450
X035950Y057550
X036000Y010250
X038000Y045000
X038000Y015000
X038250Y045750
X038250Y044250
X038250Y015750
X038250Y014250
X039000Y046000
X039000Y044000
X039000Y016000
X039000Y014000
X039750Y045750
X039750Y044250
X039750Y015750
X039750Y014250
X040000Y045000
X040000Y015000
T2
X007000Y057500
X007000Y056500
X007000Y055500
X007000Y054500
X007000Y053500
X007000Y052500
X007000Y051500
X007000Y050500
X007000Y009500
X007000Y008500
X007000Y007500
X007000Y006500
X007000Y005500
X007000Y004500
X007000Y003500
X007000Y002500
X035000Y057500
X035000Y056500
X035000Y055500
X035000Y054500
X035000Y053500
X035000Y052500
X035000Y051500
X035000Y050500
X035000Y009500
X035000Y008500
X035000Y007500
X035000Y006500
X035000Y005500
X035000Y004500
X035000Y003500
X035000Y002500
T3
X003000Y045000
X003000Y015000
X039000Y045000
X039000Y015000
T0
M30
