G04 (created by PCBNEW (2013-07-07 BZR 4022)-stable) date 10/26/2014 5:03:24 PM*
%MOIN*%
G04 Gerber Fmt 3.4, Leading zero omitted, Abs format*
%FSLAX34Y34*%
G01*
G70*
G90*
G04 APERTURE LIST*
%ADD10C,0.01*%
%ADD11C,0.00393701*%
%ADD12R,0.0652X0.073*%
%ADD13R,0.0534X0.0494*%
%ADD14C,0.301402*%
%ADD15R,0.074X0.074*%
%ADD16C,0.074*%
%ADD17R,0.104551X0.234472*%
%ADD18R,0.089X0.054*%
%ADD19R,0.034X0.108*%
%ADD20R,0.0651811X0.0769921*%
%ADD21O,0.0987402X0.13811*%
G04 APERTURE END LIST*
G54D10*
G54D11*
X42000Y0D02*
X0Y0D01*
X42000Y60000D02*
X42000Y0D01*
X0Y60000D02*
X42000Y60000D01*
X0Y0D02*
X0Y60000D01*
G54D12*
X9125Y30000D03*
X9875Y30000D03*
G54D13*
X18250Y22796D03*
X18250Y22204D03*
X19750Y25204D03*
X19750Y25796D03*
G54D14*
X39000Y15000D03*
X3000Y45000D03*
X3000Y15000D03*
X39000Y45000D03*
G54D15*
X35000Y57500D03*
G54D16*
X35000Y56500D03*
X35000Y55500D03*
X35000Y54500D03*
X35000Y53500D03*
X35000Y52500D03*
X35000Y51500D03*
X35000Y50500D03*
G54D15*
X7000Y50500D03*
G54D16*
X7000Y51500D03*
X7000Y52500D03*
X7000Y53500D03*
X7000Y54500D03*
X7000Y55500D03*
X7000Y56500D03*
X7000Y57500D03*
G54D15*
X35000Y9500D03*
G54D16*
X35000Y8500D03*
X35000Y7500D03*
X35000Y6500D03*
X35000Y5500D03*
X35000Y4500D03*
X35000Y3500D03*
X35000Y2500D03*
G54D15*
X7000Y2500D03*
G54D16*
X7000Y3500D03*
X7000Y4500D03*
X7000Y5500D03*
X7000Y6500D03*
X7000Y7500D03*
X7000Y8500D03*
X7000Y9500D03*
G54D17*
X30456Y57000D03*
X27543Y57000D03*
X14456Y3000D03*
X11543Y3000D03*
G54D18*
X41025Y57500D03*
X41025Y56500D03*
X41025Y55500D03*
X41025Y54500D03*
X41025Y53500D03*
X41025Y52500D03*
X41025Y51500D03*
X41025Y50500D03*
X36975Y57500D03*
X36975Y56500D03*
X36975Y55500D03*
X36975Y54500D03*
X36975Y53500D03*
X36975Y52500D03*
X36975Y51500D03*
X36975Y50500D03*
X975Y50500D03*
X975Y51500D03*
X975Y52500D03*
X975Y53500D03*
X975Y54500D03*
X975Y55500D03*
X975Y56500D03*
X975Y57500D03*
X5025Y50500D03*
X5025Y51500D03*
X5025Y52500D03*
X5025Y53500D03*
X5025Y54500D03*
X5025Y55500D03*
X5025Y56500D03*
X5025Y57500D03*
X41025Y9500D03*
X41025Y8500D03*
X41025Y7500D03*
X41025Y6500D03*
X41025Y5500D03*
X41025Y4500D03*
X41025Y3500D03*
X41025Y2500D03*
X36975Y9500D03*
X36975Y8500D03*
X36975Y7500D03*
X36975Y6500D03*
X36975Y5500D03*
X36975Y4500D03*
X36975Y3500D03*
X36975Y2500D03*
X975Y2500D03*
X975Y3500D03*
X975Y4500D03*
X975Y5500D03*
X975Y6500D03*
X975Y7500D03*
X975Y8500D03*
X975Y9500D03*
X5025Y2500D03*
X5025Y3500D03*
X5025Y4500D03*
X5025Y5500D03*
X5025Y6500D03*
X5025Y7500D03*
X5025Y8500D03*
X5025Y9500D03*
G54D19*
X19250Y21585D03*
X19750Y21585D03*
X20250Y21585D03*
X20750Y21585D03*
X21250Y21585D03*
X21750Y21585D03*
X22250Y21585D03*
X22750Y21585D03*
X22750Y23415D03*
X22250Y23415D03*
X21750Y23415D03*
X21250Y23415D03*
X20750Y23415D03*
X20250Y23415D03*
X19750Y23415D03*
X19250Y23415D03*
G54D20*
X30978Y48063D03*
X29482Y48063D03*
G54D21*
X30230Y48063D03*
G54D20*
X23452Y54394D03*
X21956Y54394D03*
G54D21*
X22704Y54394D03*
G54D20*
X17547Y54394D03*
X16051Y54394D03*
G54D21*
X16799Y54394D03*
G54D20*
X11641Y54394D03*
X10145Y54394D03*
G54D21*
X10893Y54394D03*
G54D20*
X8307Y36326D03*
X6811Y36326D03*
G54D21*
X7559Y36326D03*
G54D20*
X7282Y42141D03*
X5785Y42141D03*
G54D21*
X6534Y42141D03*
G54D20*
X4427Y11944D03*
X2931Y11944D03*
G54D21*
X3679Y11944D03*
G54D20*
X15842Y30004D03*
X14346Y30004D03*
G54D21*
X15094Y30004D03*
G54D20*
X21748Y30004D03*
X20252Y30004D03*
G54D21*
X21000Y30004D03*
G54D20*
X27654Y30004D03*
X26158Y30004D03*
G54D21*
X26906Y30004D03*
G54D20*
X6256Y47957D03*
X4760Y47957D03*
G54D21*
X5508Y47957D03*
G54D20*
X32004Y42247D03*
X30508Y42247D03*
G54D21*
X31256Y42247D03*
G54D20*
X33029Y36432D03*
X31533Y36432D03*
G54D21*
X32281Y36432D03*
G54D20*
X35192Y23660D03*
X33696Y23660D03*
G54D21*
X34444Y23660D03*
G54D20*
X36222Y17821D03*
X34726Y17821D03*
G54D21*
X35474Y17821D03*
G54D20*
X37251Y11983D03*
X35755Y11983D03*
G54D21*
X36503Y11983D03*
G54D20*
X30383Y5533D03*
X31879Y5533D03*
G54D21*
X31131Y5533D03*
G54D20*
X24477Y5533D03*
X25973Y5533D03*
G54D21*
X25225Y5533D03*
G54D20*
X18571Y5533D03*
X20067Y5533D03*
G54D21*
X19319Y5533D03*
G54D20*
X8974Y23553D03*
X10470Y23553D03*
G54D21*
X9722Y23553D03*
G54D20*
X11499Y17715D03*
X10003Y17715D03*
G54D21*
X10751Y17715D03*
G54D20*
X11033Y11877D03*
X12529Y11877D03*
G54D21*
X11781Y11877D03*
M02*
