G04 (created by PCBNEW (2013-07-07 BZR 4022)-stable) date 10/25/2014 7:02:50 PM*
%MOIN*%
G04 Gerber Fmt 3.4, Leading zero omitted, Abs format*
%FSLAX34Y34*%
G01*
G70*
G90*
G04 APERTURE LIST*
%ADD10C,0.01*%
%ADD11C,0.00393701*%
%ADD12C,0.05*%
%ADD13R,0.059X0.0512*%
%ADD14R,0.0394X0.0354*%
%ADD15C,0.287402*%
%ADD16R,0.06X0.06*%
%ADD17C,0.06*%
%ADD18R,0.0905512X0.220472*%
%ADD19R,0.075X0.04*%
%ADD20R,0.02X0.094*%
%ADD21R,0.0511811X0.0629921*%
%ADD22O,0.0847402X0.12411*%
G04 APERTURE END LIST*
G54D10*
G54D11*
X42000Y0D02*
X0Y0D01*
X42000Y60000D02*
X42000Y0D01*
X0Y60000D02*
X42000Y60000D01*
X0Y0D02*
X0Y60000D01*
G54D12*
X48250Y11500D03*
X48750Y9500D03*
X48750Y8500D03*
X48500Y12500D03*
X48750Y6500D03*
X48750Y5500D03*
X49000Y4000D03*
G54D13*
X15750Y22875D03*
X15750Y22125D03*
G54D14*
X18250Y22796D03*
X18250Y22204D03*
X19750Y25204D03*
X19750Y25796D03*
G54D15*
X39000Y15000D03*
X3000Y45000D03*
X3000Y15000D03*
X39000Y45000D03*
G54D12*
X47000Y3000D03*
G54D16*
X35000Y57500D03*
G54D17*
X35000Y56500D03*
X35000Y55500D03*
X35000Y54500D03*
X35000Y53500D03*
X35000Y52500D03*
X35000Y51500D03*
X35000Y50500D03*
G54D16*
X7000Y50500D03*
G54D17*
X7000Y51500D03*
X7000Y52500D03*
X7000Y53500D03*
X7000Y54500D03*
X7000Y55500D03*
X7000Y56500D03*
X7000Y57500D03*
G54D16*
X35000Y9500D03*
G54D17*
X35000Y8500D03*
X35000Y7500D03*
X35000Y6500D03*
X35000Y5500D03*
X35000Y4500D03*
X35000Y3500D03*
X35000Y2500D03*
G54D16*
X7000Y2500D03*
G54D17*
X7000Y3500D03*
X7000Y4500D03*
X7000Y5500D03*
X7000Y6500D03*
X7000Y7500D03*
X7000Y8500D03*
X7000Y9500D03*
G54D18*
X30456Y57000D03*
X27543Y57000D03*
X14456Y3000D03*
X11543Y3000D03*
G54D19*
X41025Y57500D03*
X41025Y56500D03*
X41025Y55500D03*
X41025Y54500D03*
X41025Y53500D03*
X41025Y52500D03*
X41025Y51500D03*
X41025Y50500D03*
X36975Y57500D03*
X36975Y56500D03*
X36975Y55500D03*
X36975Y54500D03*
X36975Y53500D03*
X36975Y52500D03*
X36975Y51500D03*
X36975Y50500D03*
X975Y50500D03*
X975Y51500D03*
X975Y52500D03*
X975Y53500D03*
X975Y54500D03*
X975Y55500D03*
X975Y56500D03*
X975Y57500D03*
X5025Y50500D03*
X5025Y51500D03*
X5025Y52500D03*
X5025Y53500D03*
X5025Y54500D03*
X5025Y55500D03*
X5025Y56500D03*
X5025Y57500D03*
X41025Y9500D03*
X41025Y8500D03*
X41025Y7500D03*
X41025Y6500D03*
X41025Y5500D03*
X41025Y4500D03*
X41025Y3500D03*
X41025Y2500D03*
X36975Y9500D03*
X36975Y8500D03*
X36975Y7500D03*
X36975Y6500D03*
X36975Y5500D03*
X36975Y4500D03*
X36975Y3500D03*
X36975Y2500D03*
X975Y2500D03*
X975Y3500D03*
X975Y4500D03*
X975Y5500D03*
X975Y6500D03*
X975Y7500D03*
X975Y8500D03*
X975Y9500D03*
X5025Y2500D03*
X5025Y3500D03*
X5025Y4500D03*
X5025Y5500D03*
X5025Y6500D03*
X5025Y7500D03*
X5025Y8500D03*
X5025Y9500D03*
G54D20*
X19250Y21585D03*
X19750Y21585D03*
X20250Y21585D03*
X20750Y21585D03*
X21250Y21585D03*
X21750Y21585D03*
X22250Y21585D03*
X22750Y21585D03*
X22750Y23415D03*
X22250Y23415D03*
X21750Y23415D03*
X21250Y23415D03*
X20750Y23415D03*
X20250Y23415D03*
X19750Y23415D03*
X19250Y23415D03*
G54D21*
X30978Y48063D03*
X29482Y48063D03*
G54D22*
X30230Y48063D03*
G54D21*
X23452Y54394D03*
X21956Y54394D03*
G54D22*
X22704Y54394D03*
G54D21*
X17547Y54394D03*
X16051Y54394D03*
G54D22*
X16799Y54394D03*
G54D21*
X11641Y54394D03*
X10145Y54394D03*
G54D22*
X10893Y54394D03*
G54D21*
X8307Y36326D03*
X6811Y36326D03*
G54D22*
X7559Y36326D03*
G54D21*
X7282Y42141D03*
X5785Y42141D03*
G54D22*
X6534Y42141D03*
G54D21*
X4427Y11944D03*
X2931Y11944D03*
G54D22*
X3679Y11944D03*
G54D21*
X15842Y30004D03*
X14346Y30004D03*
G54D22*
X15094Y30004D03*
G54D21*
X21748Y30004D03*
X20252Y30004D03*
G54D22*
X21000Y30004D03*
G54D21*
X27654Y30004D03*
X26158Y30004D03*
G54D22*
X26906Y30004D03*
G54D21*
X6256Y47957D03*
X4760Y47957D03*
G54D22*
X5508Y47957D03*
G54D21*
X32004Y42247D03*
X30508Y42247D03*
G54D22*
X31256Y42247D03*
G54D21*
X33029Y36432D03*
X31533Y36432D03*
G54D22*
X32281Y36432D03*
G54D21*
X35192Y23660D03*
X33696Y23660D03*
G54D22*
X34444Y23660D03*
G54D21*
X36222Y17821D03*
X34726Y17821D03*
G54D22*
X35474Y17821D03*
G54D21*
X37251Y11983D03*
X35755Y11983D03*
G54D22*
X36503Y11983D03*
G54D21*
X18571Y5533D03*
X20067Y5533D03*
G54D22*
X19319Y5533D03*
G54D21*
X24477Y5533D03*
X25973Y5533D03*
G54D22*
X25225Y5533D03*
G54D21*
X30383Y5533D03*
X31879Y5533D03*
G54D22*
X31131Y5533D03*
G54D21*
X8974Y23553D03*
X10470Y23553D03*
G54D22*
X9722Y23553D03*
G54D21*
X11499Y17715D03*
X10003Y17715D03*
G54D22*
X10751Y17715D03*
G54D21*
X11033Y11877D03*
X12529Y11877D03*
G54D22*
X11781Y11877D03*
M02*
