M48
;DRILL file {kicad (2015-01-16 BZR 5376)-product} date 3/22/2015 17:45:08
;FORMAT={2:4/ absolute / inch / keep zeros}
FMAT,2
INCH,TZ
T1C0.079
%
G90
G05
M72
T1
X003680Y011748G85X003680Y012142
G05
X005509Y047760G85X005509Y048154
G05
X006534Y041945G85X006534Y042339
G05
X007559Y036129G85X007559Y036523
G05
X009722Y023751G85X009722Y023357
G05
X010752Y017519G85X010752Y017913
G05
X010894Y054197G85X010894Y054591
G05
X011781Y012074G85X011781Y011681
G05
X015094Y029808G85X015094Y030201
G05
X016799Y054197G85X016799Y054591
G05
X019320Y005730G85X019320Y005336
G05
X021000Y029808G85X021000Y030201
G05
X022705Y054197G85X022705Y054591
G05
X025226Y005730G85X025226Y005336
G05
X026906Y029808G85X026906Y030201
G05
X030231Y047867G85X030231Y048260
G05
X031132Y005730G85X031132Y005336
G05
X031256Y042051G85X031256Y042445
G05
X032282Y036235G85X032282Y036629
G05
X034445Y023463G85X034445Y023857
G05
X035474Y017625G85X035474Y018019
G05
X036504Y011787G85X036504Y012180
G05
T0
M30
