M48
;DRILL file {Pcbnew (2013-07-07 BZR 4022)-stable} date 10/25/2014 7:02:54 PM
;FORMAT={-:-/ absolute / inch / decimal}
FMAT,2
INCH,TZ
T1C0.040
T2C0.079
T3C0.122
%
G90
G05
M72
T1
X0.7Y5.75
X0.7Y5.65
X0.7Y5.55
X0.7Y5.45
X0.7Y5.35
X0.7Y5.25
X0.7Y5.15
X0.7Y5.05
X0.7Y0.95
X0.7Y0.85
X0.7Y0.75
X0.7Y0.65
X0.7Y0.55
X0.7Y0.45
X0.7Y0.35
X0.7Y0.25
X3.5Y5.75
X3.5Y5.65
X3.5Y5.55
X3.5Y5.45
X3.5Y5.35
X3.5Y5.25
X3.5Y5.15
X3.5Y5.05
X3.5Y0.95
X3.5Y0.85
X3.5Y0.75
X3.5Y0.65
X3.5Y0.55
X3.5Y0.45
X3.5Y0.35
X3.5Y0.25
T3
X0.3Y4.5
X0.3Y1.5
X3.9Y4.5
X3.9Y1.5
T2
X0.368Y1.1748G85X0.368Y1.2142
G05
X0.5509Y4.776G85X0.5509Y4.8154
G05
X0.6534Y4.1945G85X0.6534Y4.2339
G05
X0.7559Y3.6129G85X0.7559Y3.6523
G05
X0.9722Y2.3751G85X0.9722Y2.3357
G05
X1.0752Y1.7519G85X1.0752Y1.7913
G05
X1.0894Y5.4197G85X1.0894Y5.4591
G05
X1.1781Y1.2074G85X1.1781Y1.1681
G05
X1.5094Y2.9808G85X1.5094Y3.0201
G05
X1.6799Y5.4197G85X1.6799Y5.4591
G05
X1.932Y0.573G85X1.932Y0.5336
G05
X2.1Y2.9808G85X2.1Y3.0201
G05
X2.2705Y5.4197G85X2.2705Y5.4591
G05
X2.5226Y0.573G85X2.5226Y0.5336
G05
X2.6906Y2.9808G85X2.6906Y3.0201
G05
X3.0231Y4.7867G85X3.0231Y4.826
G05
X3.1132Y0.573G85X3.1132Y0.5336
G05
X3.1256Y4.2051G85X3.1256Y4.2445
G05
X3.2282Y3.6235G85X3.2282Y3.6629
G05
X3.4445Y2.3463G85X3.4445Y2.3857
G05
X3.5474Y1.7625G85X3.5474Y1.8019
G05
X3.6504Y1.1787G85X3.6504Y1.218
G05
T0
M30
