G04 This is an RS-274x file exported by *
G04 gerbv version 2.6.1 *
G04 More information is available about gerbv at *
G04 http://gerbv.geda-project.org/ *
G04 --End of header info--*
%MOIN*%
%FSLAX34Y34*%
%IPPOS*%
G04 --Define apertures--*
%ADD10C,0.0100*%
%ADD11C,0.0039*%
%ADD12R,0.0352X0.0430*%
%ADD13R,0.0274X0.0234*%
%ADD14R,0.0666X0.1965*%
%ADD15R,0.0590X0.0240*%
%ADD16R,0.0100X0.0840*%
%ADD17R,0.0352X0.0470*%
G04 --Start main section--*
G54D11*
G01X0042000Y0000000D02*
G01X0000000Y0000000D01*
G01X0042000Y0060000D02*
G01X0042000Y0000000D01*
G01X0000000Y0060000D02*
G01X0042000Y0060000D01*
G01X0000000Y0000000D02*
G01X0000000Y0060000D01*
G54D12*
G01X0009125Y0030000D03*
G01X0009875Y0030000D03*
G54D13*
G01X0018250Y0022796D03*
G01X0018250Y0022204D03*
G01X0019750Y0025204D03*
G01X0019750Y0025796D03*
G54D14*
G01X0030456Y0057000D03*
G01X0027543Y0057000D03*
G01X0014456Y0003000D03*
G01X0011543Y0003000D03*
G54D15*
G01X0041025Y0057500D03*
G01X0041025Y0056500D03*
G01X0041025Y0055500D03*
G01X0041025Y0054500D03*
G01X0041025Y0053500D03*
G01X0041025Y0052500D03*
G01X0041025Y0051500D03*
G01X0041025Y0050500D03*
G01X0036975Y0057500D03*
G01X0036975Y0056500D03*
G01X0036975Y0055500D03*
G01X0036975Y0054500D03*
G01X0036975Y0053500D03*
G01X0036975Y0052500D03*
G01X0036975Y0051500D03*
G01X0036975Y0050500D03*
G01X0000975Y0050500D03*
G01X0000975Y0051500D03*
G01X0000975Y0052500D03*
G01X0000975Y0053500D03*
G01X0000975Y0054500D03*
G01X0000975Y0055500D03*
G01X0000975Y0056500D03*
G01X0000975Y0057500D03*
G01X0005025Y0050500D03*
G01X0005025Y0051500D03*
G01X0005025Y0052500D03*
G01X0005025Y0053500D03*
G01X0005025Y0054500D03*
G01X0005025Y0055500D03*
G01X0005025Y0056500D03*
G01X0005025Y0057500D03*
G01X0041025Y0009500D03*
G01X0041025Y0008500D03*
G01X0041025Y0007500D03*
G01X0041025Y0006500D03*
G01X0041025Y0005500D03*
G01X0041025Y0004500D03*
G01X0041025Y0003500D03*
G01X0041025Y0002500D03*
G01X0036975Y0009500D03*
G01X0036975Y0008500D03*
G01X0036975Y0007500D03*
G01X0036975Y0006500D03*
G01X0036975Y0005500D03*
G01X0036975Y0004500D03*
G01X0036975Y0003500D03*
G01X0036975Y0002500D03*
G01X0000975Y0002500D03*
G01X0000975Y0003500D03*
G01X0000975Y0004500D03*
G01X0000975Y0005500D03*
G01X0000975Y0006500D03*
G01X0000975Y0007500D03*
G01X0000975Y0008500D03*
G01X0000975Y0009500D03*
G01X0005025Y0002500D03*
G01X0005025Y0003500D03*
G01X0005025Y0004500D03*
G01X0005025Y0005500D03*
G01X0005025Y0006500D03*
G01X0005025Y0007500D03*
G01X0005025Y0008500D03*
G01X0005025Y0009500D03*
G54D16*
G01X0019250Y0021585D03*
G01X0019750Y0021585D03*
G01X0020250Y0021585D03*
G01X0020750Y0021585D03*
G01X0021250Y0021585D03*
G01X0021750Y0021585D03*
G01X0022250Y0021585D03*
G01X0022750Y0021585D03*
G01X0022750Y0023415D03*
G01X0022250Y0023415D03*
G01X0021750Y0023415D03*
G01X0021250Y0023415D03*
G01X0020750Y0023415D03*
G01X0020250Y0023415D03*
G01X0019750Y0023415D03*
G01X0019250Y0023415D03*
G54D17*
G01X0030978Y0048063D03*
G01X0029482Y0048063D03*
G01X0023452Y0054394D03*
G01X0021956Y0054394D03*
G01X0017547Y0054394D03*
G01X0016051Y0054394D03*
G01X0011641Y0054394D03*
G01X0010145Y0054394D03*
G01X0008307Y0036326D03*
G01X0006811Y0036326D03*
G01X0007282Y0042141D03*
G01X0005785Y0042141D03*
G01X0004427Y0011944D03*
G01X0002931Y0011944D03*
G01X0015842Y0030004D03*
G01X0014346Y0030004D03*
G01X0021748Y0030004D03*
G01X0020252Y0030004D03*
G01X0027654Y0030004D03*
G01X0026158Y0030004D03*
G01X0006256Y0047957D03*
G01X0004760Y0047957D03*
G01X0032004Y0042247D03*
G01X0030508Y0042247D03*
G01X0033029Y0036432D03*
G01X0031533Y0036432D03*
G01X0035192Y0023660D03*
G01X0033696Y0023660D03*
G01X0036222Y0017821D03*
G01X0034726Y0017821D03*
G01X0037251Y0011983D03*
G01X0035755Y0011983D03*
G01X0030383Y0005533D03*
G01X0031879Y0005533D03*
G01X0024477Y0005533D03*
G01X0025973Y0005533D03*
G01X0018571Y0005533D03*
G01X0020067Y0005533D03*
G01X0008974Y0023553D03*
G01X0010470Y0023553D03*
G01X0011499Y0017715D03*
G01X0010003Y0017715D03*
G01X0011033Y0011877D03*
G01X0012529Y0011877D03*
M02*
