G04 (created by PCBNEW (2013-07-07 BZR 4022)-stable) date 10/26/2014 5:03:24 PM*
%MOIN*%
G04 Gerber Fmt 3.4, Leading zero omitted, Abs format*
%FSLAX34Y34*%
G01*
G70*
G90*
G04 APERTURE LIST*
%ADD10C,0.01*%
%ADD11C,0.00393701*%
%ADD12C,0.287402*%
%ADD13R,0.06X0.06*%
%ADD14C,0.06*%
%ADD15O,0.0847402X0.12411*%
%ADD16C,0.045*%
%ADD17C,0.025*%
%ADD18C,0.05*%
G04 APERTURE END LIST*
G54D10*
G54D11*
X42000Y0D02*
X0Y0D01*
X42000Y60000D02*
X42000Y0D01*
X0Y60000D02*
X42000Y60000D01*
X0Y0D02*
X0Y60000D01*
G54D12*
X39000Y15000D03*
X3000Y45000D03*
X3000Y15000D03*
X39000Y45000D03*
G54D13*
X35000Y57500D03*
G54D14*
X35000Y56500D03*
X35000Y55500D03*
X35000Y54500D03*
X35000Y53500D03*
X35000Y52500D03*
X35000Y51500D03*
X35000Y50500D03*
G54D13*
X7000Y50500D03*
G54D14*
X7000Y51500D03*
X7000Y52500D03*
X7000Y53500D03*
X7000Y54500D03*
X7000Y55500D03*
X7000Y56500D03*
X7000Y57500D03*
G54D13*
X35000Y9500D03*
G54D14*
X35000Y8500D03*
X35000Y7500D03*
X35000Y6500D03*
X35000Y5500D03*
X35000Y4500D03*
X35000Y3500D03*
X35000Y2500D03*
G54D13*
X7000Y2500D03*
G54D14*
X7000Y3500D03*
X7000Y4500D03*
X7000Y5500D03*
X7000Y6500D03*
X7000Y7500D03*
X7000Y8500D03*
X7000Y9500D03*
G54D15*
X30230Y48063D03*
X22704Y54394D03*
X16799Y54394D03*
X10893Y54394D03*
X7559Y36326D03*
X6534Y42141D03*
X3679Y11944D03*
X15094Y30004D03*
X21000Y30004D03*
X26906Y30004D03*
X5508Y47957D03*
X31256Y42247D03*
X32281Y36432D03*
X34444Y23660D03*
X35474Y17821D03*
X36503Y11983D03*
X31131Y5533D03*
X25225Y5533D03*
X19319Y5533D03*
X9722Y23553D03*
X10751Y17715D03*
X11781Y11877D03*
G54D16*
X19250Y53500D03*
X20250Y18500D03*
X19750Y52500D03*
X20750Y19000D03*
X36000Y33000D03*
X6000Y33000D03*
X6000Y24750D03*
X11750Y26500D03*
X20250Y24750D03*
X3500Y55500D03*
X20250Y51500D03*
X20750Y26000D03*
X16750Y21500D03*
X16750Y20750D03*
X16750Y22250D03*
X18250Y20750D03*
X17500Y20750D03*
X18250Y25750D03*
X3750Y14250D03*
X2250Y14250D03*
X2250Y15750D03*
X3750Y15750D03*
X2000Y15000D03*
X4000Y15000D03*
X3000Y14000D03*
X3000Y16000D03*
X3750Y44250D03*
X2250Y44250D03*
X2250Y45750D03*
X3750Y45750D03*
X2000Y45000D03*
X3000Y44000D03*
X4000Y45000D03*
X3000Y46000D03*
X38250Y14250D03*
X38250Y15750D03*
X39750Y15750D03*
X39750Y14250D03*
X38000Y15000D03*
X40000Y15000D03*
X39000Y14000D03*
X39000Y16000D03*
X39750Y44250D03*
X38250Y44250D03*
X38250Y45750D03*
X39750Y45750D03*
X40000Y45000D03*
X39000Y44000D03*
X38000Y45000D03*
X39000Y46000D03*
X12750Y49000D03*
X16000Y17000D03*
X3750Y13000D03*
X5000Y27000D03*
X22250Y27500D03*
X25750Y48000D03*
X9500Y54000D03*
X16500Y17500D03*
X22750Y16000D03*
X32750Y6000D03*
X12250Y26000D03*
X7500Y26000D03*
X8127Y30000D03*
X9750Y11750D03*
X16750Y2500D03*
X16750Y5500D03*
X25750Y57500D03*
X25750Y54500D03*
X29750Y30000D03*
X36000Y10250D03*
X34500Y36500D03*
X10250Y36250D03*
G54D10*
X20250Y18500D02*
X20250Y19250D01*
X19250Y26500D02*
X19250Y53500D01*
X20750Y25000D02*
X19250Y26500D01*
X20750Y19750D02*
X20750Y25000D01*
X20250Y19250D02*
X20750Y19750D01*
X32750Y10500D02*
X32750Y8750D01*
X20250Y18500D02*
X24750Y18500D01*
X24750Y18500D02*
X32750Y10500D01*
X32750Y8750D02*
X35000Y6500D01*
X20750Y19000D02*
X21250Y19500D01*
X21250Y25000D02*
X20750Y25500D01*
X21250Y19500D02*
X21250Y25000D01*
X19750Y26500D02*
X19750Y52500D01*
X20750Y25500D02*
X19750Y26500D01*
X33500Y10500D02*
X33500Y9000D01*
X25000Y19000D02*
X33500Y10500D01*
X20750Y19000D02*
X25000Y19000D01*
X33500Y9000D02*
X35000Y7500D01*
X6000Y24750D02*
X6000Y33000D01*
X36000Y53500D02*
X35000Y54500D01*
X36000Y33000D02*
X36000Y53500D01*
X7000Y5500D02*
X6000Y6500D01*
X6000Y6500D02*
X6000Y24750D01*
X7000Y54500D02*
X11750Y49750D01*
X11750Y49750D02*
X11750Y26500D01*
X19750Y18250D02*
X19750Y24250D01*
X32000Y8500D02*
X35000Y5500D01*
X19750Y18250D02*
X20000Y18000D01*
X20000Y18000D02*
X24500Y18000D01*
X24500Y18000D02*
X32000Y10500D01*
X32000Y10500D02*
X32000Y8500D01*
X19750Y24250D02*
X20250Y24750D01*
X7000Y4500D02*
X8000Y5500D01*
X3500Y48000D02*
X3500Y55500D01*
X5000Y46500D02*
X3500Y48000D01*
X5000Y36750D02*
X5000Y46500D01*
X6750Y35000D02*
X5000Y36750D01*
X6750Y13000D02*
X6750Y35000D01*
X8000Y11750D02*
X6750Y13000D01*
X8000Y5500D02*
X8000Y11750D01*
X20750Y26000D02*
X25250Y21500D01*
X25250Y21500D02*
X25250Y19500D01*
X20750Y26000D02*
X20250Y26500D01*
X20250Y26500D02*
X20250Y26750D01*
X20250Y26750D02*
X20250Y51500D01*
X34250Y10500D02*
X34250Y9250D01*
X34250Y10500D02*
X25250Y19500D01*
X34250Y9250D02*
X35000Y8500D01*
G54D17*
X16750Y22250D02*
X16750Y21500D01*
X17500Y20750D02*
X18250Y20750D01*
G54D18*
X3000Y15000D02*
X3750Y14250D01*
X2250Y14250D02*
X3000Y15000D01*
X3000Y15000D02*
X2250Y15750D01*
X3750Y15750D02*
X3000Y15000D01*
X3000Y15000D02*
X2000Y15000D01*
X4000Y15000D02*
X3000Y15000D01*
X3000Y15000D02*
X3000Y14000D01*
X3000Y16000D02*
X3000Y15000D01*
X3000Y45000D02*
X3750Y44250D01*
X2250Y44250D02*
X3000Y45000D01*
X3000Y45000D02*
X2250Y45750D01*
X3750Y45750D02*
X3000Y45000D01*
X3000Y45000D02*
X2000Y45000D01*
X3000Y44000D02*
X3000Y45000D01*
X3000Y45000D02*
X4000Y45000D01*
X3000Y46000D02*
X3000Y45000D01*
X39000Y15000D02*
X38250Y14250D01*
X39000Y15000D02*
X38250Y15750D01*
X39750Y15750D02*
X39000Y15000D01*
X39000Y15000D02*
X39750Y14250D01*
X38000Y15000D02*
X39000Y15000D01*
X39000Y15000D02*
X40000Y15000D01*
X39000Y14000D02*
X39000Y15000D01*
X39000Y15000D02*
X39000Y16000D01*
X39750Y44250D02*
X39000Y45000D01*
X38250Y44250D02*
X39000Y45000D01*
X39000Y45000D02*
X38250Y45750D01*
X39750Y45750D02*
X39000Y45000D01*
X39000Y45000D02*
X40000Y45000D01*
X39000Y45000D02*
X39000Y44000D01*
X38000Y45000D02*
X39000Y45000D01*
X39000Y46000D02*
X39000Y45000D01*
G54D17*
X13500Y19500D02*
X13500Y48250D01*
X13500Y48250D02*
X12750Y49000D01*
X16000Y17000D02*
X13500Y19500D01*
X5000Y14250D02*
X3750Y13000D01*
X5000Y14250D02*
X5000Y27000D01*
X22250Y27500D02*
X25750Y31000D01*
X25750Y31000D02*
X25750Y48000D01*
X14000Y49500D02*
X14000Y20000D01*
X14000Y49500D02*
X9500Y54000D01*
X16500Y17500D02*
X14000Y20000D01*
X32750Y6000D02*
X22750Y16000D01*
X12250Y26000D02*
X12250Y50250D01*
X7750Y55750D02*
X7000Y56500D01*
X7750Y54750D02*
X7750Y55750D01*
X12250Y50250D02*
X7750Y54750D01*
X7500Y26000D02*
X7500Y13000D01*
X8500Y5000D02*
X7000Y3500D01*
X8500Y12000D02*
X7500Y13000D01*
X8500Y5000D02*
X8500Y12000D01*
G54D18*
X9750Y11750D02*
X8127Y13372D01*
X8127Y34127D02*
X10250Y36250D01*
X8127Y13372D02*
X8127Y30000D01*
X8127Y30000D02*
X8127Y34127D01*
X16000Y5500D02*
X16750Y5500D01*
X9750Y11750D02*
X16000Y5500D01*
X16750Y5500D02*
X16750Y2500D01*
X25750Y54500D02*
X25750Y57500D01*
X25750Y49500D02*
X25750Y54500D01*
X25750Y49500D02*
X29750Y45500D01*
X29750Y34750D02*
X29750Y45500D01*
X29750Y34750D02*
X32750Y34750D01*
X32750Y34750D02*
X34500Y36500D01*
X36000Y3500D02*
X35000Y2500D01*
X36000Y10250D02*
X36000Y3500D01*
X29750Y16500D02*
X36000Y10250D01*
X29750Y34750D02*
X29750Y30000D01*
X29750Y30000D02*
X29750Y16500D01*
X10250Y36250D02*
X10250Y45750D01*
X10250Y45750D02*
X6000Y50000D01*
X6000Y50000D02*
X6000Y56500D01*
X6000Y56500D02*
X7000Y57500D01*
G54D10*
G36*
X7700Y5624D02*
X7554Y5479D01*
X7554Y9418D01*
X7543Y9636D01*
X7481Y9787D01*
X7385Y9815D01*
X7315Y9744D01*
X7315Y9885D01*
X7287Y9981D01*
X7081Y10054D01*
X6863Y10043D01*
X6712Y9981D01*
X6684Y9885D01*
X7000Y9570D01*
X7315Y9885D01*
X7315Y9744D01*
X7070Y9500D01*
X7385Y9184D01*
X7481Y9212D01*
X7554Y9418D01*
X7554Y5479D01*
X7549Y5474D01*
X7550Y5608D01*
X7466Y5811D01*
X7311Y5965D01*
X7230Y5999D01*
X7311Y6033D01*
X7465Y6188D01*
X7549Y6390D01*
X7550Y6608D01*
X7466Y6811D01*
X7311Y6965D01*
X7230Y6999D01*
X7311Y7033D01*
X7465Y7188D01*
X7549Y7390D01*
X7550Y7608D01*
X7466Y7811D01*
X7311Y7965D01*
X7230Y7999D01*
X7311Y8033D01*
X7465Y8188D01*
X7549Y8390D01*
X7550Y8608D01*
X7466Y8811D01*
X7311Y8965D01*
X7236Y8997D01*
X7287Y9018D01*
X7315Y9114D01*
X7000Y9429D01*
X6929Y9358D01*
X6929Y9500D01*
X6614Y9815D01*
X6518Y9787D01*
X6445Y9581D01*
X6456Y9363D01*
X6518Y9212D01*
X6614Y9184D01*
X6929Y9500D01*
X6929Y9358D01*
X6684Y9114D01*
X6712Y9018D01*
X6767Y8999D01*
X6688Y8966D01*
X6534Y8811D01*
X6450Y8609D01*
X6449Y8391D01*
X6533Y8188D01*
X6688Y8034D01*
X6769Y8000D01*
X6688Y7966D01*
X6534Y7811D01*
X6450Y7609D01*
X6449Y7391D01*
X6533Y7188D01*
X6688Y7034D01*
X6769Y7000D01*
X6688Y6966D01*
X6534Y6811D01*
X6450Y6609D01*
X6449Y6474D01*
X6300Y6624D01*
X6300Y24378D01*
X6402Y24480D01*
X6450Y24595D01*
X6450Y13000D01*
X6472Y12885D01*
X6537Y12787D01*
X7700Y11625D01*
X7700Y5624D01*
X7700Y5624D01*
G37*
X7700Y5624D02*
X7554Y5479D01*
X7554Y9418D01*
X7543Y9636D01*
X7481Y9787D01*
X7385Y9815D01*
X7315Y9744D01*
X7315Y9885D01*
X7287Y9981D01*
X7081Y10054D01*
X6863Y10043D01*
X6712Y9981D01*
X6684Y9885D01*
X7000Y9570D01*
X7315Y9885D01*
X7315Y9744D01*
X7070Y9500D01*
X7385Y9184D01*
X7481Y9212D01*
X7554Y9418D01*
X7554Y5479D01*
X7549Y5474D01*
X7550Y5608D01*
X7466Y5811D01*
X7311Y5965D01*
X7230Y5999D01*
X7311Y6033D01*
X7465Y6188D01*
X7549Y6390D01*
X7550Y6608D01*
X7466Y6811D01*
X7311Y6965D01*
X7230Y6999D01*
X7311Y7033D01*
X7465Y7188D01*
X7549Y7390D01*
X7550Y7608D01*
X7466Y7811D01*
X7311Y7965D01*
X7230Y7999D01*
X7311Y8033D01*
X7465Y8188D01*
X7549Y8390D01*
X7550Y8608D01*
X7466Y8811D01*
X7311Y8965D01*
X7236Y8997D01*
X7287Y9018D01*
X7315Y9114D01*
X7000Y9429D01*
X6929Y9358D01*
X6929Y9500D01*
X6614Y9815D01*
X6518Y9787D01*
X6445Y9581D01*
X6456Y9363D01*
X6518Y9212D01*
X6614Y9184D01*
X6929Y9500D01*
X6929Y9358D01*
X6684Y9114D01*
X6712Y9018D01*
X6767Y8999D01*
X6688Y8966D01*
X6534Y8811D01*
X6450Y8609D01*
X6449Y8391D01*
X6533Y8188D01*
X6688Y8034D01*
X6769Y8000D01*
X6688Y7966D01*
X6534Y7811D01*
X6450Y7609D01*
X6449Y7391D01*
X6533Y7188D01*
X6688Y7034D01*
X6769Y7000D01*
X6688Y6966D01*
X6534Y6811D01*
X6450Y6609D01*
X6449Y6474D01*
X6300Y6624D01*
X6300Y24378D01*
X6402Y24480D01*
X6450Y24595D01*
X6450Y13000D01*
X6472Y12885D01*
X6537Y12787D01*
X7700Y11625D01*
X7700Y5624D01*
G36*
X41730Y269D02*
X40690Y269D01*
X40690Y15318D01*
X40690Y45318D01*
X40439Y45940D01*
X40420Y45970D01*
X40206Y46136D01*
X40136Y46065D01*
X40136Y46206D01*
X39970Y46420D01*
X39352Y46683D01*
X38681Y46690D01*
X38059Y46439D01*
X38029Y46420D01*
X37863Y46206D01*
X39000Y45070D01*
X40136Y46206D01*
X40136Y46065D01*
X39070Y45000D01*
X40206Y43863D01*
X40420Y44029D01*
X40683Y44647D01*
X40690Y45318D01*
X40690Y15318D01*
X40439Y15940D01*
X40420Y15970D01*
X40206Y16136D01*
X40136Y16065D01*
X40136Y16206D01*
X40136Y43793D01*
X39000Y44929D01*
X38929Y44858D01*
X38929Y45000D01*
X37793Y46136D01*
X37579Y45970D01*
X37316Y45352D01*
X37309Y44681D01*
X37560Y44059D01*
X37579Y44029D01*
X37793Y43863D01*
X38929Y45000D01*
X38929Y44858D01*
X37863Y43793D01*
X38029Y43579D01*
X38647Y43316D01*
X39318Y43309D01*
X39940Y43560D01*
X39970Y43579D01*
X40136Y43793D01*
X40136Y16206D01*
X39970Y16420D01*
X39352Y16683D01*
X38681Y16690D01*
X38059Y16439D01*
X38029Y16420D01*
X37863Y16206D01*
X39000Y15070D01*
X40136Y16206D01*
X40136Y16065D01*
X39070Y15000D01*
X40206Y13863D01*
X40420Y14029D01*
X40683Y14647D01*
X40690Y15318D01*
X40690Y269D01*
X40136Y269D01*
X40136Y13793D01*
X39000Y14929D01*
X38929Y14858D01*
X38929Y15000D01*
X37793Y16136D01*
X37579Y15970D01*
X37316Y15352D01*
X37309Y14681D01*
X37560Y14059D01*
X37579Y14029D01*
X37793Y13863D01*
X38929Y15000D01*
X38929Y14858D01*
X37863Y13793D01*
X38029Y13579D01*
X38647Y13316D01*
X39318Y13309D01*
X39940Y13560D01*
X39970Y13579D01*
X40136Y13793D01*
X40136Y269D01*
X37177Y269D01*
X37177Y11769D01*
X37177Y12197D01*
X37125Y12455D01*
X36979Y12673D01*
X36761Y12819D01*
X36503Y12871D01*
X36475Y12865D01*
X36475Y33094D01*
X36402Y33268D01*
X36300Y33371D01*
X36300Y53500D01*
X36277Y53614D01*
X36212Y53712D01*
X36212Y53712D01*
X35545Y54378D01*
X35549Y54390D01*
X35550Y54608D01*
X35466Y54811D01*
X35311Y54965D01*
X35230Y54999D01*
X35311Y55033D01*
X35465Y55188D01*
X35549Y55390D01*
X35550Y55608D01*
X35466Y55811D01*
X35311Y55965D01*
X35230Y55999D01*
X35311Y56033D01*
X35465Y56188D01*
X35549Y56390D01*
X35550Y56608D01*
X35466Y56811D01*
X35327Y56949D01*
X35349Y56949D01*
X35441Y56987D01*
X35511Y57058D01*
X35549Y57150D01*
X35550Y57249D01*
X35550Y57849D01*
X35512Y57941D01*
X35441Y58011D01*
X35349Y58049D01*
X35250Y58050D01*
X34650Y58050D01*
X34558Y58012D01*
X34488Y57941D01*
X34450Y57849D01*
X34449Y57750D01*
X34449Y57150D01*
X34487Y57058D01*
X34558Y56988D01*
X34650Y56950D01*
X34672Y56950D01*
X34534Y56811D01*
X34450Y56609D01*
X34449Y56391D01*
X34533Y56188D01*
X34688Y56034D01*
X34769Y56000D01*
X34688Y55966D01*
X34534Y55811D01*
X34450Y55609D01*
X34449Y55391D01*
X34533Y55188D01*
X34688Y55034D01*
X34769Y55000D01*
X34688Y54966D01*
X34534Y54811D01*
X34450Y54609D01*
X34449Y54391D01*
X34533Y54188D01*
X34688Y54034D01*
X34769Y54000D01*
X34688Y53966D01*
X34534Y53811D01*
X34450Y53609D01*
X34449Y53391D01*
X34533Y53188D01*
X34688Y53034D01*
X34769Y53000D01*
X34688Y52966D01*
X34534Y52811D01*
X34450Y52609D01*
X34449Y52391D01*
X34533Y52188D01*
X34688Y52034D01*
X34769Y52000D01*
X34688Y51966D01*
X34534Y51811D01*
X34450Y51609D01*
X34449Y51391D01*
X34533Y51188D01*
X34688Y51034D01*
X34763Y51002D01*
X34712Y50981D01*
X34684Y50885D01*
X35000Y50570D01*
X35315Y50885D01*
X35287Y50981D01*
X35232Y51000D01*
X35311Y51033D01*
X35465Y51188D01*
X35549Y51390D01*
X35550Y51608D01*
X35466Y51811D01*
X35311Y51965D01*
X35230Y51999D01*
X35311Y52033D01*
X35465Y52188D01*
X35549Y52390D01*
X35550Y52608D01*
X35466Y52811D01*
X35311Y52965D01*
X35230Y52999D01*
X35311Y53033D01*
X35465Y53188D01*
X35549Y53390D01*
X35550Y53525D01*
X35700Y53375D01*
X35700Y33371D01*
X35597Y33269D01*
X35554Y33166D01*
X35554Y50418D01*
X35543Y50636D01*
X35481Y50787D01*
X35385Y50815D01*
X35070Y50500D01*
X35385Y50184D01*
X35481Y50212D01*
X35554Y50418D01*
X35554Y33166D01*
X35525Y33094D01*
X35524Y32905D01*
X35597Y32731D01*
X35730Y32597D01*
X35905Y32525D01*
X36094Y32524D01*
X36268Y32597D01*
X36402Y32730D01*
X36474Y32905D01*
X36475Y33094D01*
X36475Y12865D01*
X36245Y12819D01*
X36147Y12754D01*
X36147Y17607D01*
X36147Y18035D01*
X36096Y18293D01*
X35950Y18512D01*
X35731Y18658D01*
X35474Y18709D01*
X35315Y18677D01*
X35315Y50114D01*
X35000Y50429D01*
X34929Y50358D01*
X34929Y50500D01*
X34614Y50815D01*
X34518Y50787D01*
X34445Y50581D01*
X34456Y50363D01*
X34518Y50212D01*
X34614Y50184D01*
X34929Y50500D01*
X34929Y50358D01*
X34684Y50114D01*
X34712Y50018D01*
X34918Y49945D01*
X35136Y49956D01*
X35287Y50018D01*
X35315Y50114D01*
X35315Y18677D01*
X35216Y18658D01*
X35118Y18592D01*
X35118Y23446D01*
X35118Y23873D01*
X35067Y24131D01*
X34921Y24350D01*
X34702Y24496D01*
X34444Y24547D01*
X34186Y24496D01*
X33968Y24350D01*
X33822Y24131D01*
X33770Y23873D01*
X33770Y23446D01*
X33822Y23188D01*
X33968Y22969D01*
X34186Y22823D01*
X34444Y22772D01*
X34702Y22823D01*
X34921Y22969D01*
X35067Y23188D01*
X35118Y23446D01*
X35118Y18592D01*
X34997Y18512D01*
X34851Y18293D01*
X34800Y18035D01*
X34800Y17607D01*
X34851Y17350D01*
X34997Y17131D01*
X35216Y16985D01*
X35474Y16934D01*
X35731Y16985D01*
X35950Y17131D01*
X36096Y17350D01*
X36147Y17607D01*
X36147Y12754D01*
X36027Y12673D01*
X35881Y12455D01*
X35829Y12197D01*
X35829Y11769D01*
X35881Y11511D01*
X36027Y11293D01*
X36245Y11147D01*
X36503Y11096D01*
X36761Y11147D01*
X36979Y11293D01*
X37125Y11511D01*
X37177Y11769D01*
X37177Y269D01*
X36500Y269D01*
X36500Y3500D01*
X36500Y10250D01*
X36461Y10441D01*
X36353Y10603D01*
X36353Y10603D01*
X30250Y16707D01*
X30250Y30000D01*
X30250Y34250D01*
X32749Y34250D01*
X32750Y34249D01*
X32750Y34250D01*
X32941Y34288D01*
X33103Y34396D01*
X34853Y36146D01*
X34961Y36308D01*
X35000Y36500D01*
X34961Y36691D01*
X34853Y36853D01*
X34691Y36961D01*
X34500Y37000D01*
X34308Y36961D01*
X34146Y36853D01*
X32955Y35662D01*
X32955Y36218D01*
X32955Y36646D01*
X32904Y36903D01*
X32758Y37122D01*
X32539Y37268D01*
X32281Y37319D01*
X32023Y37268D01*
X31930Y37205D01*
X31930Y42033D01*
X31930Y42461D01*
X31878Y42719D01*
X31732Y42938D01*
X31514Y43084D01*
X31256Y43135D01*
X30998Y43084D01*
X30904Y43021D01*
X30904Y47849D01*
X30904Y48277D01*
X30853Y48535D01*
X30707Y48753D01*
X30488Y48899D01*
X30230Y48951D01*
X29973Y48899D01*
X29754Y48753D01*
X29608Y48535D01*
X29557Y48277D01*
X29557Y47849D01*
X29608Y47591D01*
X29754Y47373D01*
X29973Y47227D01*
X30230Y47175D01*
X30488Y47227D01*
X30707Y47373D01*
X30853Y47591D01*
X30904Y47849D01*
X30904Y43021D01*
X30779Y42938D01*
X30633Y42719D01*
X30582Y42461D01*
X30582Y42033D01*
X30633Y41776D01*
X30779Y41557D01*
X30998Y41411D01*
X31256Y41360D01*
X31514Y41411D01*
X31732Y41557D01*
X31878Y41776D01*
X31930Y42033D01*
X31930Y37205D01*
X31805Y37122D01*
X31659Y36903D01*
X31608Y36646D01*
X31608Y36218D01*
X31659Y35960D01*
X31805Y35741D01*
X32023Y35595D01*
X32281Y35544D01*
X32539Y35595D01*
X32758Y35741D01*
X32904Y35960D01*
X32955Y36218D01*
X32955Y35662D01*
X32542Y35250D01*
X30250Y35250D01*
X30250Y45500D01*
X30249Y45500D01*
X30250Y45500D01*
X30243Y45531D01*
X30211Y45691D01*
X30103Y45853D01*
X30103Y45853D01*
X26250Y49707D01*
X26250Y54500D01*
X26250Y57500D01*
X26211Y57691D01*
X26103Y57853D01*
X25941Y57961D01*
X25750Y58000D01*
X25558Y57961D01*
X25396Y57853D01*
X25288Y57691D01*
X25250Y57500D01*
X25250Y54500D01*
X25250Y49500D01*
X25249Y49500D01*
X25288Y49308D01*
X25396Y49146D01*
X29250Y45292D01*
X29250Y34750D01*
X29250Y30000D01*
X29250Y16500D01*
X29249Y16500D01*
X29288Y16308D01*
X29396Y16146D01*
X35500Y10042D01*
X35500Y9953D01*
X35441Y10011D01*
X35349Y10049D01*
X35250Y10050D01*
X35112Y10050D01*
X35050Y9987D01*
X35050Y9550D01*
X35057Y9550D01*
X35057Y9450D01*
X35050Y9450D01*
X35050Y9442D01*
X34950Y9442D01*
X34950Y9450D01*
X34942Y9450D01*
X34942Y9550D01*
X34950Y9550D01*
X34950Y9987D01*
X34887Y10050D01*
X34749Y10050D01*
X34650Y10049D01*
X34558Y10011D01*
X34550Y10003D01*
X34550Y10500D01*
X34527Y10614D01*
X34527Y10614D01*
X34462Y10712D01*
X27579Y17594D01*
X27579Y29790D01*
X27579Y30218D01*
X27528Y30476D01*
X27382Y30694D01*
X27163Y30840D01*
X26906Y30892D01*
X26648Y30840D01*
X26429Y30694D01*
X26283Y30476D01*
X26232Y30218D01*
X26232Y29790D01*
X26283Y29532D01*
X26429Y29314D01*
X26648Y29168D01*
X26906Y29116D01*
X27163Y29168D01*
X27382Y29314D01*
X27528Y29532D01*
X27579Y29790D01*
X27579Y17594D01*
X26225Y18949D01*
X26225Y48094D01*
X26152Y48268D01*
X26019Y48402D01*
X25844Y48474D01*
X25655Y48475D01*
X25481Y48402D01*
X25347Y48269D01*
X25275Y48094D01*
X25274Y47905D01*
X25347Y47731D01*
X25375Y47703D01*
X25375Y31155D01*
X23378Y29158D01*
X23378Y54180D01*
X23378Y54607D01*
X23326Y54865D01*
X23180Y55084D01*
X22962Y55230D01*
X22704Y55281D01*
X22446Y55230D01*
X22228Y55084D01*
X22082Y54865D01*
X22030Y54607D01*
X22030Y54180D01*
X22082Y53922D01*
X22228Y53703D01*
X22446Y53557D01*
X22704Y53506D01*
X22962Y53557D01*
X23180Y53703D01*
X23326Y53922D01*
X23378Y54180D01*
X23378Y29158D01*
X22194Y27975D01*
X22155Y27975D01*
X21981Y27902D01*
X21847Y27769D01*
X21775Y27594D01*
X21774Y27405D01*
X21847Y27231D01*
X21980Y27097D01*
X22155Y27025D01*
X22344Y27024D01*
X22518Y27097D01*
X22652Y27230D01*
X22724Y27405D01*
X22724Y27444D01*
X26015Y30734D01*
X26015Y30734D01*
X26096Y30856D01*
X26124Y31000D01*
X26125Y31000D01*
X26125Y47703D01*
X26152Y47730D01*
X26224Y47905D01*
X26225Y48094D01*
X26225Y18949D01*
X25550Y19624D01*
X25550Y21500D01*
X25527Y21614D01*
X25527Y21614D01*
X25462Y21712D01*
X21224Y25949D01*
X21225Y26094D01*
X21152Y26268D01*
X21019Y26402D01*
X20844Y26474D01*
X20699Y26475D01*
X20550Y26624D01*
X20550Y26750D01*
X20550Y29296D01*
X20742Y29168D01*
X21000Y29116D01*
X21257Y29168D01*
X21476Y29314D01*
X21622Y29532D01*
X21673Y29790D01*
X21673Y30218D01*
X21622Y30476D01*
X21476Y30694D01*
X21257Y30840D01*
X21000Y30892D01*
X20742Y30840D01*
X20550Y30712D01*
X20550Y51128D01*
X20652Y51230D01*
X20724Y51405D01*
X20725Y51594D01*
X20652Y51768D01*
X20519Y51902D01*
X20344Y51974D01*
X20155Y51975D01*
X20050Y51931D01*
X20050Y52128D01*
X20152Y52230D01*
X20224Y52405D01*
X20225Y52594D01*
X20152Y52768D01*
X20019Y52902D01*
X19844Y52974D01*
X19655Y52975D01*
X19550Y52931D01*
X19550Y53128D01*
X19652Y53230D01*
X19724Y53405D01*
X19725Y53594D01*
X19652Y53768D01*
X19519Y53902D01*
X19344Y53974D01*
X19155Y53975D01*
X18981Y53902D01*
X18847Y53769D01*
X18775Y53594D01*
X18774Y53405D01*
X18847Y53231D01*
X18950Y53128D01*
X18950Y26500D01*
X18972Y26385D01*
X19037Y26287D01*
X20116Y25208D01*
X19981Y25152D01*
X19847Y25019D01*
X19775Y24844D01*
X19774Y24699D01*
X19537Y24462D01*
X19472Y24364D01*
X19450Y24250D01*
X19450Y18250D01*
X19472Y18135D01*
X19537Y18037D01*
X19787Y17787D01*
X19787Y17787D01*
X19885Y17722D01*
X20000Y17700D01*
X24375Y17700D01*
X31700Y10375D01*
X31700Y8500D01*
X31722Y8385D01*
X31787Y8287D01*
X34454Y5621D01*
X34450Y5609D01*
X34449Y5391D01*
X34533Y5188D01*
X34688Y5034D01*
X34769Y5000D01*
X34688Y4966D01*
X34534Y4811D01*
X34450Y4609D01*
X34449Y4391D01*
X34533Y4188D01*
X34688Y4034D01*
X34769Y4000D01*
X34688Y3966D01*
X34534Y3811D01*
X34450Y3609D01*
X34449Y3391D01*
X34533Y3188D01*
X34688Y3034D01*
X34769Y3000D01*
X34688Y2966D01*
X34534Y2811D01*
X34450Y2609D01*
X34449Y2391D01*
X34533Y2188D01*
X34688Y2034D01*
X34890Y1950D01*
X35108Y1949D01*
X35311Y2033D01*
X35465Y2188D01*
X35516Y2309D01*
X36353Y3146D01*
X36353Y3146D01*
X36353Y3146D01*
X36461Y3308D01*
X36500Y3500D01*
X36500Y269D01*
X33225Y269D01*
X33225Y6094D01*
X33152Y6268D01*
X33019Y6402D01*
X32844Y6474D01*
X32805Y6474D01*
X23225Y16055D01*
X23225Y16094D01*
X23152Y16268D01*
X23019Y16402D01*
X22844Y16474D01*
X22655Y16475D01*
X22481Y16402D01*
X22347Y16269D01*
X22275Y16094D01*
X22274Y15905D01*
X22347Y15731D01*
X22480Y15597D01*
X22655Y15525D01*
X22694Y15525D01*
X32274Y5944D01*
X32274Y5905D01*
X32347Y5731D01*
X32480Y5597D01*
X32655Y5525D01*
X32844Y5524D01*
X33018Y5597D01*
X33152Y5730D01*
X33224Y5905D01*
X33225Y6094D01*
X33225Y269D01*
X31805Y269D01*
X31805Y5319D01*
X31805Y5747D01*
X31754Y6004D01*
X31608Y6223D01*
X31389Y6369D01*
X31131Y6420D01*
X30873Y6369D01*
X30655Y6223D01*
X30509Y6004D01*
X30458Y5747D01*
X30458Y5319D01*
X30509Y5061D01*
X30655Y4842D01*
X30873Y4696D01*
X31131Y4645D01*
X31389Y4696D01*
X31608Y4842D01*
X31754Y5061D01*
X31805Y5319D01*
X31805Y269D01*
X25899Y269D01*
X25899Y5319D01*
X25899Y5747D01*
X25848Y6004D01*
X25702Y6223D01*
X25483Y6369D01*
X25225Y6420D01*
X24968Y6369D01*
X24749Y6223D01*
X24603Y6004D01*
X24552Y5747D01*
X24552Y5319D01*
X24603Y5061D01*
X24749Y4842D01*
X24968Y4696D01*
X25225Y4645D01*
X25483Y4696D01*
X25702Y4842D01*
X25848Y5061D01*
X25899Y5319D01*
X25899Y269D01*
X19993Y269D01*
X19993Y5319D01*
X19993Y5747D01*
X19942Y6004D01*
X19796Y6223D01*
X19577Y6369D01*
X19319Y6420D01*
X19062Y6369D01*
X18843Y6223D01*
X18697Y6004D01*
X18646Y5747D01*
X18646Y5319D01*
X18697Y5061D01*
X18843Y4842D01*
X19062Y4696D01*
X19319Y4645D01*
X19577Y4696D01*
X19796Y4842D01*
X19942Y5061D01*
X19993Y5319D01*
X19993Y269D01*
X17472Y269D01*
X17472Y54180D01*
X17472Y54607D01*
X17421Y54865D01*
X17275Y55084D01*
X17056Y55230D01*
X16799Y55281D01*
X16541Y55230D01*
X16322Y55084D01*
X16176Y54865D01*
X16125Y54607D01*
X16125Y54180D01*
X16176Y53922D01*
X16322Y53703D01*
X16541Y53557D01*
X16799Y53506D01*
X17056Y53557D01*
X17275Y53703D01*
X17421Y53922D01*
X17472Y54180D01*
X17472Y269D01*
X17250Y269D01*
X17250Y2500D01*
X17250Y5500D01*
X17211Y5691D01*
X17103Y5853D01*
X16941Y5961D01*
X16750Y6000D01*
X16207Y6000D01*
X12454Y9752D01*
X12454Y11663D01*
X12454Y12091D01*
X12403Y12349D01*
X12257Y12567D01*
X12039Y12713D01*
X11781Y12765D01*
X11523Y12713D01*
X11425Y12648D01*
X11425Y17501D01*
X11425Y17929D01*
X11374Y18187D01*
X11228Y18406D01*
X11009Y18552D01*
X10751Y18603D01*
X10493Y18552D01*
X10396Y18486D01*
X10396Y23340D01*
X10396Y23767D01*
X10344Y24025D01*
X10198Y24244D01*
X9980Y24390D01*
X9722Y24441D01*
X9464Y24390D01*
X9245Y24244D01*
X9099Y24025D01*
X9048Y23767D01*
X9048Y23340D01*
X9099Y23082D01*
X9245Y22863D01*
X9464Y22717D01*
X9722Y22666D01*
X9980Y22717D01*
X10198Y22863D01*
X10344Y23082D01*
X10396Y23340D01*
X10396Y18486D01*
X10275Y18406D01*
X10129Y18187D01*
X10078Y17929D01*
X10078Y17501D01*
X10129Y17244D01*
X10275Y17025D01*
X10493Y16879D01*
X10751Y16828D01*
X11009Y16879D01*
X11228Y17025D01*
X11374Y17244D01*
X11425Y17501D01*
X11425Y12648D01*
X11304Y12567D01*
X11158Y12349D01*
X11107Y12091D01*
X11107Y11663D01*
X11158Y11405D01*
X11304Y11187D01*
X11523Y11041D01*
X11781Y10989D01*
X12039Y11041D01*
X12257Y11187D01*
X12403Y11405D01*
X12454Y11663D01*
X12454Y9752D01*
X10103Y12103D01*
X10103Y12103D01*
X8627Y13579D01*
X8627Y30000D01*
X8627Y33920D01*
X10603Y35896D01*
X10603Y35896D01*
X10603Y35896D01*
X10711Y36058D01*
X10750Y36250D01*
X10750Y45750D01*
X10711Y45941D01*
X10603Y46103D01*
X10603Y46103D01*
X7550Y49157D01*
X7550Y50150D01*
X7550Y50387D01*
X7487Y50450D01*
X7050Y50450D01*
X7050Y50012D01*
X7112Y49950D01*
X7250Y49949D01*
X7349Y49950D01*
X7441Y49988D01*
X7512Y50058D01*
X7550Y50150D01*
X7550Y49157D01*
X6757Y49949D01*
X6887Y49950D01*
X6950Y50012D01*
X6950Y50450D01*
X6942Y50450D01*
X6942Y50550D01*
X6950Y50550D01*
X6950Y50557D01*
X7050Y50557D01*
X7050Y50550D01*
X7487Y50550D01*
X7550Y50612D01*
X7550Y50849D01*
X7512Y50941D01*
X7441Y51011D01*
X7349Y51049D01*
X7327Y51049D01*
X7465Y51188D01*
X7549Y51390D01*
X7550Y51608D01*
X7466Y51811D01*
X7311Y51965D01*
X7230Y51999D01*
X7311Y52033D01*
X7465Y52188D01*
X7549Y52390D01*
X7550Y52608D01*
X7466Y52811D01*
X7311Y52965D01*
X7230Y52999D01*
X7311Y53033D01*
X7465Y53188D01*
X7549Y53390D01*
X7550Y53525D01*
X11450Y49625D01*
X11450Y26871D01*
X11347Y26769D01*
X11275Y26594D01*
X11274Y26405D01*
X11347Y26231D01*
X11480Y26097D01*
X11655Y26025D01*
X11775Y26024D01*
X11774Y25905D01*
X11847Y25731D01*
X11980Y25597D01*
X12155Y25525D01*
X12344Y25524D01*
X12518Y25597D01*
X12652Y25730D01*
X12724Y25905D01*
X12725Y26094D01*
X12652Y26268D01*
X12625Y26296D01*
X12625Y48537D01*
X12655Y48525D01*
X12694Y48525D01*
X13125Y48094D01*
X13125Y19500D01*
X13153Y19356D01*
X13234Y19234D01*
X15524Y16944D01*
X15524Y16905D01*
X15597Y16731D01*
X15730Y16597D01*
X15905Y16525D01*
X16094Y16524D01*
X16268Y16597D01*
X16402Y16730D01*
X16474Y16905D01*
X16475Y17025D01*
X16594Y17024D01*
X16768Y17097D01*
X16902Y17230D01*
X16974Y17405D01*
X16975Y17594D01*
X16902Y17768D01*
X16769Y17902D01*
X16594Y17974D01*
X16555Y17974D01*
X15767Y18762D01*
X15767Y29790D01*
X15767Y30218D01*
X15716Y30476D01*
X15570Y30694D01*
X15351Y30840D01*
X15094Y30892D01*
X14836Y30840D01*
X14617Y30694D01*
X14471Y30476D01*
X14420Y30218D01*
X14420Y29790D01*
X14471Y29532D01*
X14617Y29314D01*
X14836Y29168D01*
X15094Y29116D01*
X15351Y29168D01*
X15570Y29314D01*
X15716Y29532D01*
X15767Y29790D01*
X15767Y18762D01*
X14375Y20155D01*
X14375Y49500D01*
X14346Y49643D01*
X14265Y49765D01*
X11567Y52462D01*
X11567Y54180D01*
X11567Y54607D01*
X11516Y54865D01*
X11370Y55084D01*
X11151Y55230D01*
X10893Y55281D01*
X10636Y55230D01*
X10417Y55084D01*
X10271Y54865D01*
X10220Y54607D01*
X10220Y54180D01*
X10271Y53922D01*
X10417Y53703D01*
X10636Y53557D01*
X10893Y53506D01*
X11151Y53557D01*
X11370Y53703D01*
X11516Y53922D01*
X11567Y54180D01*
X11567Y52462D01*
X9975Y54055D01*
X9975Y54094D01*
X9902Y54268D01*
X9769Y54402D01*
X9594Y54474D01*
X9405Y54475D01*
X9231Y54402D01*
X9097Y54269D01*
X9025Y54094D01*
X9025Y54005D01*
X8125Y54905D01*
X8125Y55750D01*
X8124Y55750D01*
X8096Y55893D01*
X8015Y56015D01*
X8015Y56015D01*
X7549Y56480D01*
X7550Y56608D01*
X7466Y56811D01*
X7311Y56965D01*
X7230Y56999D01*
X7311Y57033D01*
X7465Y57188D01*
X7549Y57390D01*
X7550Y57608D01*
X7466Y57811D01*
X7311Y57965D01*
X7109Y58049D01*
X6891Y58050D01*
X6688Y57966D01*
X6534Y57811D01*
X6483Y57690D01*
X5646Y56853D01*
X5538Y56691D01*
X5499Y56500D01*
X5500Y56499D01*
X5500Y50000D01*
X5499Y50000D01*
X5538Y49808D01*
X5646Y49646D01*
X9750Y45542D01*
X9750Y36457D01*
X8233Y34940D01*
X8233Y36112D01*
X8233Y36540D01*
X8181Y36797D01*
X8035Y37016D01*
X7817Y37162D01*
X7559Y37213D01*
X7301Y37162D01*
X7207Y37099D01*
X7207Y41927D01*
X7207Y42355D01*
X7156Y42613D01*
X7010Y42831D01*
X6791Y42978D01*
X6534Y43029D01*
X6276Y42978D01*
X6182Y42915D01*
X6182Y47743D01*
X6182Y48171D01*
X6130Y48428D01*
X5984Y48647D01*
X5766Y48793D01*
X5508Y48844D01*
X5250Y48793D01*
X5032Y48647D01*
X4886Y48428D01*
X4834Y48171D01*
X4834Y47743D01*
X4886Y47485D01*
X5032Y47266D01*
X5250Y47120D01*
X5508Y47069D01*
X5766Y47120D01*
X5984Y47266D01*
X6130Y47485D01*
X6182Y47743D01*
X6182Y42915D01*
X6057Y42831D01*
X5911Y42613D01*
X5860Y42355D01*
X5860Y41927D01*
X5911Y41669D01*
X6057Y41451D01*
X6276Y41305D01*
X6534Y41254D01*
X6791Y41305D01*
X7010Y41451D01*
X7156Y41669D01*
X7207Y41927D01*
X7207Y37099D01*
X7083Y37016D01*
X6937Y36797D01*
X6885Y36540D01*
X6885Y36112D01*
X6937Y35854D01*
X7083Y35635D01*
X7301Y35489D01*
X7559Y35438D01*
X7817Y35489D01*
X8035Y35635D01*
X8181Y35854D01*
X8233Y36112D01*
X8233Y34940D01*
X7773Y34481D01*
X7665Y34318D01*
X7627Y34127D01*
X7627Y34127D01*
X7627Y30000D01*
X7627Y26461D01*
X7594Y26474D01*
X7405Y26475D01*
X7231Y26402D01*
X7097Y26269D01*
X7050Y26154D01*
X7050Y35000D01*
X7027Y35114D01*
X6962Y35212D01*
X6962Y35212D01*
X5300Y36874D01*
X5300Y46500D01*
X5277Y46614D01*
X5212Y46712D01*
X5212Y46712D01*
X3800Y48124D01*
X3800Y55128D01*
X3902Y55230D01*
X3974Y55405D01*
X3975Y55594D01*
X3902Y55768D01*
X3769Y55902D01*
X3594Y55974D01*
X3405Y55975D01*
X3231Y55902D01*
X3097Y55769D01*
X3025Y55594D01*
X3024Y55405D01*
X3097Y55231D01*
X3200Y55128D01*
X3200Y48000D01*
X3222Y47885D01*
X3287Y47787D01*
X4700Y46375D01*
X4700Y36750D01*
X4722Y36635D01*
X4787Y36537D01*
X6450Y34875D01*
X6450Y33154D01*
X6402Y33268D01*
X6269Y33402D01*
X6094Y33474D01*
X5905Y33475D01*
X5731Y33402D01*
X5597Y33269D01*
X5525Y33094D01*
X5524Y32905D01*
X5597Y32731D01*
X5700Y32628D01*
X5700Y25121D01*
X5597Y25019D01*
X5525Y24844D01*
X5524Y24655D01*
X5597Y24481D01*
X5700Y24378D01*
X5700Y6500D01*
X5722Y6385D01*
X5787Y6287D01*
X6454Y5621D01*
X6450Y5609D01*
X6449Y5391D01*
X6533Y5188D01*
X6688Y5034D01*
X6769Y5000D01*
X6688Y4966D01*
X6534Y4811D01*
X6450Y4609D01*
X6449Y4391D01*
X6533Y4188D01*
X6688Y4034D01*
X6769Y4000D01*
X6688Y3966D01*
X6534Y3811D01*
X6450Y3609D01*
X6449Y3391D01*
X6533Y3188D01*
X6672Y3050D01*
X6650Y3050D01*
X6558Y3012D01*
X6488Y2941D01*
X6450Y2849D01*
X6449Y2750D01*
X6449Y2150D01*
X6487Y2058D01*
X6558Y1988D01*
X6650Y1950D01*
X6749Y1949D01*
X7349Y1949D01*
X7441Y1987D01*
X7511Y2058D01*
X7549Y2150D01*
X7550Y2249D01*
X7550Y2849D01*
X7512Y2941D01*
X7441Y3011D01*
X7349Y3049D01*
X7327Y3049D01*
X7465Y3188D01*
X7549Y3390D01*
X7550Y3519D01*
X8765Y4734D01*
X8765Y4734D01*
X8846Y4856D01*
X8874Y5000D01*
X8875Y5000D01*
X8875Y11917D01*
X9396Y11396D01*
X9396Y11396D01*
X15646Y5146D01*
X15646Y5146D01*
X15808Y5038D01*
X16000Y5000D01*
X16250Y5000D01*
X16250Y2500D01*
X16288Y2308D01*
X16396Y2146D01*
X16558Y2038D01*
X16750Y2000D01*
X16941Y2038D01*
X17103Y2146D01*
X17211Y2308D01*
X17250Y2500D01*
X17250Y269D01*
X5475Y269D01*
X5475Y27094D01*
X5402Y27268D01*
X5269Y27402D01*
X5094Y27474D01*
X4905Y27475D01*
X4731Y27402D01*
X4690Y27362D01*
X4690Y45318D01*
X4439Y45940D01*
X4420Y45970D01*
X4206Y46136D01*
X4136Y46065D01*
X4136Y46206D01*
X3970Y46420D01*
X3352Y46683D01*
X2681Y46690D01*
X2059Y46439D01*
X2029Y46420D01*
X1863Y46206D01*
X3000Y45070D01*
X4136Y46206D01*
X4136Y46065D01*
X3070Y45000D01*
X4206Y43863D01*
X4420Y44029D01*
X4683Y44647D01*
X4690Y45318D01*
X4690Y27362D01*
X4597Y27269D01*
X4525Y27094D01*
X4524Y26905D01*
X4597Y26731D01*
X4625Y26703D01*
X4625Y15480D01*
X4439Y15940D01*
X4420Y15970D01*
X4206Y16136D01*
X4136Y16065D01*
X4136Y16206D01*
X4136Y43793D01*
X3000Y44929D01*
X2929Y44858D01*
X2929Y45000D01*
X1793Y46136D01*
X1579Y45970D01*
X1316Y45352D01*
X1309Y44681D01*
X1560Y44059D01*
X1579Y44029D01*
X1793Y43863D01*
X2929Y45000D01*
X2929Y44858D01*
X1863Y43793D01*
X2029Y43579D01*
X2647Y43316D01*
X3318Y43309D01*
X3940Y43560D01*
X3970Y43579D01*
X4136Y43793D01*
X4136Y16206D01*
X3970Y16420D01*
X3352Y16683D01*
X2681Y16690D01*
X2059Y16439D01*
X2029Y16420D01*
X1863Y16206D01*
X3000Y15070D01*
X4136Y16206D01*
X4136Y16065D01*
X3070Y15000D01*
X3076Y14994D01*
X3005Y14923D01*
X3000Y14929D01*
X2929Y14858D01*
X2929Y15000D01*
X1793Y16136D01*
X1579Y15970D01*
X1316Y15352D01*
X1309Y14681D01*
X1560Y14059D01*
X1579Y14029D01*
X1793Y13863D01*
X2929Y15000D01*
X2929Y14858D01*
X1863Y13793D01*
X2029Y13579D01*
X2647Y13316D01*
X3318Y13309D01*
X3434Y13356D01*
X3347Y13269D01*
X3275Y13094D01*
X3274Y12905D01*
X3347Y12731D01*
X3347Y12731D01*
X3203Y12635D01*
X3057Y12416D01*
X3006Y12158D01*
X3006Y11730D01*
X3057Y11473D01*
X3203Y11254D01*
X3421Y11108D01*
X3679Y11057D01*
X3937Y11108D01*
X4156Y11254D01*
X4302Y11473D01*
X4353Y11730D01*
X4353Y12158D01*
X4302Y12416D01*
X4156Y12635D01*
X4096Y12674D01*
X4152Y12730D01*
X4224Y12905D01*
X4224Y12944D01*
X5265Y13984D01*
X5346Y14106D01*
X5375Y14250D01*
X5375Y26703D01*
X5402Y26730D01*
X5474Y26905D01*
X5475Y27094D01*
X5475Y269D01*
X269Y269D01*
X269Y59730D01*
X41730Y59730D01*
X41730Y269D01*
X41730Y269D01*
G37*
X41730Y269D02*
X40690Y269D01*
X40690Y15318D01*
X40690Y45318D01*
X40439Y45940D01*
X40420Y45970D01*
X40206Y46136D01*
X40136Y46065D01*
X40136Y46206D01*
X39970Y46420D01*
X39352Y46683D01*
X38681Y46690D01*
X38059Y46439D01*
X38029Y46420D01*
X37863Y46206D01*
X39000Y45070D01*
X40136Y46206D01*
X40136Y46065D01*
X39070Y45000D01*
X40206Y43863D01*
X40420Y44029D01*
X40683Y44647D01*
X40690Y45318D01*
X40690Y15318D01*
X40439Y15940D01*
X40420Y15970D01*
X40206Y16136D01*
X40136Y16065D01*
X40136Y16206D01*
X40136Y43793D01*
X39000Y44929D01*
X38929Y44858D01*
X38929Y45000D01*
X37793Y46136D01*
X37579Y45970D01*
X37316Y45352D01*
X37309Y44681D01*
X37560Y44059D01*
X37579Y44029D01*
X37793Y43863D01*
X38929Y45000D01*
X38929Y44858D01*
X37863Y43793D01*
X38029Y43579D01*
X38647Y43316D01*
X39318Y43309D01*
X39940Y43560D01*
X39970Y43579D01*
X40136Y43793D01*
X40136Y16206D01*
X39970Y16420D01*
X39352Y16683D01*
X38681Y16690D01*
X38059Y16439D01*
X38029Y16420D01*
X37863Y16206D01*
X39000Y15070D01*
X40136Y16206D01*
X40136Y16065D01*
X39070Y15000D01*
X40206Y13863D01*
X40420Y14029D01*
X40683Y14647D01*
X40690Y15318D01*
X40690Y269D01*
X40136Y269D01*
X40136Y13793D01*
X39000Y14929D01*
X38929Y14858D01*
X38929Y15000D01*
X37793Y16136D01*
X37579Y15970D01*
X37316Y15352D01*
X37309Y14681D01*
X37560Y14059D01*
X37579Y14029D01*
X37793Y13863D01*
X38929Y15000D01*
X38929Y14858D01*
X37863Y13793D01*
X38029Y13579D01*
X38647Y13316D01*
X39318Y13309D01*
X39940Y13560D01*
X39970Y13579D01*
X40136Y13793D01*
X40136Y269D01*
X37177Y269D01*
X37177Y11769D01*
X37177Y12197D01*
X37125Y12455D01*
X36979Y12673D01*
X36761Y12819D01*
X36503Y12871D01*
X36475Y12865D01*
X36475Y33094D01*
X36402Y33268D01*
X36300Y33371D01*
X36300Y53500D01*
X36277Y53614D01*
X36212Y53712D01*
X36212Y53712D01*
X35545Y54378D01*
X35549Y54390D01*
X35550Y54608D01*
X35466Y54811D01*
X35311Y54965D01*
X35230Y54999D01*
X35311Y55033D01*
X35465Y55188D01*
X35549Y55390D01*
X35550Y55608D01*
X35466Y55811D01*
X35311Y55965D01*
X35230Y55999D01*
X35311Y56033D01*
X35465Y56188D01*
X35549Y56390D01*
X35550Y56608D01*
X35466Y56811D01*
X35327Y56949D01*
X35349Y56949D01*
X35441Y56987D01*
X35511Y57058D01*
X35549Y57150D01*
X35550Y57249D01*
X35550Y57849D01*
X35512Y57941D01*
X35441Y58011D01*
X35349Y58049D01*
X35250Y58050D01*
X34650Y58050D01*
X34558Y58012D01*
X34488Y57941D01*
X34450Y57849D01*
X34449Y57750D01*
X34449Y57150D01*
X34487Y57058D01*
X34558Y56988D01*
X34650Y56950D01*
X34672Y56950D01*
X34534Y56811D01*
X34450Y56609D01*
X34449Y56391D01*
X34533Y56188D01*
X34688Y56034D01*
X34769Y56000D01*
X34688Y55966D01*
X34534Y55811D01*
X34450Y55609D01*
X34449Y55391D01*
X34533Y55188D01*
X34688Y55034D01*
X34769Y55000D01*
X34688Y54966D01*
X34534Y54811D01*
X34450Y54609D01*
X34449Y54391D01*
X34533Y54188D01*
X34688Y54034D01*
X34769Y54000D01*
X34688Y53966D01*
X34534Y53811D01*
X34450Y53609D01*
X34449Y53391D01*
X34533Y53188D01*
X34688Y53034D01*
X34769Y53000D01*
X34688Y52966D01*
X34534Y52811D01*
X34450Y52609D01*
X34449Y52391D01*
X34533Y52188D01*
X34688Y52034D01*
X34769Y52000D01*
X34688Y51966D01*
X34534Y51811D01*
X34450Y51609D01*
X34449Y51391D01*
X34533Y51188D01*
X34688Y51034D01*
X34763Y51002D01*
X34712Y50981D01*
X34684Y50885D01*
X35000Y50570D01*
X35315Y50885D01*
X35287Y50981D01*
X35232Y51000D01*
X35311Y51033D01*
X35465Y51188D01*
X35549Y51390D01*
X35550Y51608D01*
X35466Y51811D01*
X35311Y51965D01*
X35230Y51999D01*
X35311Y52033D01*
X35465Y52188D01*
X35549Y52390D01*
X35550Y52608D01*
X35466Y52811D01*
X35311Y52965D01*
X35230Y52999D01*
X35311Y53033D01*
X35465Y53188D01*
X35549Y53390D01*
X35550Y53525D01*
X35700Y53375D01*
X35700Y33371D01*
X35597Y33269D01*
X35554Y33166D01*
X35554Y50418D01*
X35543Y50636D01*
X35481Y50787D01*
X35385Y50815D01*
X35070Y50500D01*
X35385Y50184D01*
X35481Y50212D01*
X35554Y50418D01*
X35554Y33166D01*
X35525Y33094D01*
X35524Y32905D01*
X35597Y32731D01*
X35730Y32597D01*
X35905Y32525D01*
X36094Y32524D01*
X36268Y32597D01*
X36402Y32730D01*
X36474Y32905D01*
X36475Y33094D01*
X36475Y12865D01*
X36245Y12819D01*
X36147Y12754D01*
X36147Y17607D01*
X36147Y18035D01*
X36096Y18293D01*
X35950Y18512D01*
X35731Y18658D01*
X35474Y18709D01*
X35315Y18677D01*
X35315Y50114D01*
X35000Y50429D01*
X34929Y50358D01*
X34929Y50500D01*
X34614Y50815D01*
X34518Y50787D01*
X34445Y50581D01*
X34456Y50363D01*
X34518Y50212D01*
X34614Y50184D01*
X34929Y50500D01*
X34929Y50358D01*
X34684Y50114D01*
X34712Y50018D01*
X34918Y49945D01*
X35136Y49956D01*
X35287Y50018D01*
X35315Y50114D01*
X35315Y18677D01*
X35216Y18658D01*
X35118Y18592D01*
X35118Y23446D01*
X35118Y23873D01*
X35067Y24131D01*
X34921Y24350D01*
X34702Y24496D01*
X34444Y24547D01*
X34186Y24496D01*
X33968Y24350D01*
X33822Y24131D01*
X33770Y23873D01*
X33770Y23446D01*
X33822Y23188D01*
X33968Y22969D01*
X34186Y22823D01*
X34444Y22772D01*
X34702Y22823D01*
X34921Y22969D01*
X35067Y23188D01*
X35118Y23446D01*
X35118Y18592D01*
X34997Y18512D01*
X34851Y18293D01*
X34800Y18035D01*
X34800Y17607D01*
X34851Y17350D01*
X34997Y17131D01*
X35216Y16985D01*
X35474Y16934D01*
X35731Y16985D01*
X35950Y17131D01*
X36096Y17350D01*
X36147Y17607D01*
X36147Y12754D01*
X36027Y12673D01*
X35881Y12455D01*
X35829Y12197D01*
X35829Y11769D01*
X35881Y11511D01*
X36027Y11293D01*
X36245Y11147D01*
X36503Y11096D01*
X36761Y11147D01*
X36979Y11293D01*
X37125Y11511D01*
X37177Y11769D01*
X37177Y269D01*
X36500Y269D01*
X36500Y3500D01*
X36500Y10250D01*
X36461Y10441D01*
X36353Y10603D01*
X36353Y10603D01*
X30250Y16707D01*
X30250Y30000D01*
X30250Y34250D01*
X32749Y34250D01*
X32750Y34249D01*
X32750Y34250D01*
X32941Y34288D01*
X33103Y34396D01*
X34853Y36146D01*
X34961Y36308D01*
X35000Y36500D01*
X34961Y36691D01*
X34853Y36853D01*
X34691Y36961D01*
X34500Y37000D01*
X34308Y36961D01*
X34146Y36853D01*
X32955Y35662D01*
X32955Y36218D01*
X32955Y36646D01*
X32904Y36903D01*
X32758Y37122D01*
X32539Y37268D01*
X32281Y37319D01*
X32023Y37268D01*
X31930Y37205D01*
X31930Y42033D01*
X31930Y42461D01*
X31878Y42719D01*
X31732Y42938D01*
X31514Y43084D01*
X31256Y43135D01*
X30998Y43084D01*
X30904Y43021D01*
X30904Y47849D01*
X30904Y48277D01*
X30853Y48535D01*
X30707Y48753D01*
X30488Y48899D01*
X30230Y48951D01*
X29973Y48899D01*
X29754Y48753D01*
X29608Y48535D01*
X29557Y48277D01*
X29557Y47849D01*
X29608Y47591D01*
X29754Y47373D01*
X29973Y47227D01*
X30230Y47175D01*
X30488Y47227D01*
X30707Y47373D01*
X30853Y47591D01*
X30904Y47849D01*
X30904Y43021D01*
X30779Y42938D01*
X30633Y42719D01*
X30582Y42461D01*
X30582Y42033D01*
X30633Y41776D01*
X30779Y41557D01*
X30998Y41411D01*
X31256Y41360D01*
X31514Y41411D01*
X31732Y41557D01*
X31878Y41776D01*
X31930Y42033D01*
X31930Y37205D01*
X31805Y37122D01*
X31659Y36903D01*
X31608Y36646D01*
X31608Y36218D01*
X31659Y35960D01*
X31805Y35741D01*
X32023Y35595D01*
X32281Y35544D01*
X32539Y35595D01*
X32758Y35741D01*
X32904Y35960D01*
X32955Y36218D01*
X32955Y35662D01*
X32542Y35250D01*
X30250Y35250D01*
X30250Y45500D01*
X30249Y45500D01*
X30250Y45500D01*
X30243Y45531D01*
X30211Y45691D01*
X30103Y45853D01*
X30103Y45853D01*
X26250Y49707D01*
X26250Y54500D01*
X26250Y57500D01*
X26211Y57691D01*
X26103Y57853D01*
X25941Y57961D01*
X25750Y58000D01*
X25558Y57961D01*
X25396Y57853D01*
X25288Y57691D01*
X25250Y57500D01*
X25250Y54500D01*
X25250Y49500D01*
X25249Y49500D01*
X25288Y49308D01*
X25396Y49146D01*
X29250Y45292D01*
X29250Y34750D01*
X29250Y30000D01*
X29250Y16500D01*
X29249Y16500D01*
X29288Y16308D01*
X29396Y16146D01*
X35500Y10042D01*
X35500Y9953D01*
X35441Y10011D01*
X35349Y10049D01*
X35250Y10050D01*
X35112Y10050D01*
X35050Y9987D01*
X35050Y9550D01*
X35057Y9550D01*
X35057Y9450D01*
X35050Y9450D01*
X35050Y9442D01*
X34950Y9442D01*
X34950Y9450D01*
X34942Y9450D01*
X34942Y9550D01*
X34950Y9550D01*
X34950Y9987D01*
X34887Y10050D01*
X34749Y10050D01*
X34650Y10049D01*
X34558Y10011D01*
X34550Y10003D01*
X34550Y10500D01*
X34527Y10614D01*
X34527Y10614D01*
X34462Y10712D01*
X27579Y17594D01*
X27579Y29790D01*
X27579Y30218D01*
X27528Y30476D01*
X27382Y30694D01*
X27163Y30840D01*
X26906Y30892D01*
X26648Y30840D01*
X26429Y30694D01*
X26283Y30476D01*
X26232Y30218D01*
X26232Y29790D01*
X26283Y29532D01*
X26429Y29314D01*
X26648Y29168D01*
X26906Y29116D01*
X27163Y29168D01*
X27382Y29314D01*
X27528Y29532D01*
X27579Y29790D01*
X27579Y17594D01*
X26225Y18949D01*
X26225Y48094D01*
X26152Y48268D01*
X26019Y48402D01*
X25844Y48474D01*
X25655Y48475D01*
X25481Y48402D01*
X25347Y48269D01*
X25275Y48094D01*
X25274Y47905D01*
X25347Y47731D01*
X25375Y47703D01*
X25375Y31155D01*
X23378Y29158D01*
X23378Y54180D01*
X23378Y54607D01*
X23326Y54865D01*
X23180Y55084D01*
X22962Y55230D01*
X22704Y55281D01*
X22446Y55230D01*
X22228Y55084D01*
X22082Y54865D01*
X22030Y54607D01*
X22030Y54180D01*
X22082Y53922D01*
X22228Y53703D01*
X22446Y53557D01*
X22704Y53506D01*
X22962Y53557D01*
X23180Y53703D01*
X23326Y53922D01*
X23378Y54180D01*
X23378Y29158D01*
X22194Y27975D01*
X22155Y27975D01*
X21981Y27902D01*
X21847Y27769D01*
X21775Y27594D01*
X21774Y27405D01*
X21847Y27231D01*
X21980Y27097D01*
X22155Y27025D01*
X22344Y27024D01*
X22518Y27097D01*
X22652Y27230D01*
X22724Y27405D01*
X22724Y27444D01*
X26015Y30734D01*
X26015Y30734D01*
X26096Y30856D01*
X26124Y31000D01*
X26125Y31000D01*
X26125Y47703D01*
X26152Y47730D01*
X26224Y47905D01*
X26225Y48094D01*
X26225Y18949D01*
X25550Y19624D01*
X25550Y21500D01*
X25527Y21614D01*
X25527Y21614D01*
X25462Y21712D01*
X21224Y25949D01*
X21225Y26094D01*
X21152Y26268D01*
X21019Y26402D01*
X20844Y26474D01*
X20699Y26475D01*
X20550Y26624D01*
X20550Y26750D01*
X20550Y29296D01*
X20742Y29168D01*
X21000Y29116D01*
X21257Y29168D01*
X21476Y29314D01*
X21622Y29532D01*
X21673Y29790D01*
X21673Y30218D01*
X21622Y30476D01*
X21476Y30694D01*
X21257Y30840D01*
X21000Y30892D01*
X20742Y30840D01*
X20550Y30712D01*
X20550Y51128D01*
X20652Y51230D01*
X20724Y51405D01*
X20725Y51594D01*
X20652Y51768D01*
X20519Y51902D01*
X20344Y51974D01*
X20155Y51975D01*
X20050Y51931D01*
X20050Y52128D01*
X20152Y52230D01*
X20224Y52405D01*
X20225Y52594D01*
X20152Y52768D01*
X20019Y52902D01*
X19844Y52974D01*
X19655Y52975D01*
X19550Y52931D01*
X19550Y53128D01*
X19652Y53230D01*
X19724Y53405D01*
X19725Y53594D01*
X19652Y53768D01*
X19519Y53902D01*
X19344Y53974D01*
X19155Y53975D01*
X18981Y53902D01*
X18847Y53769D01*
X18775Y53594D01*
X18774Y53405D01*
X18847Y53231D01*
X18950Y53128D01*
X18950Y26500D01*
X18972Y26385D01*
X19037Y26287D01*
X20116Y25208D01*
X19981Y25152D01*
X19847Y25019D01*
X19775Y24844D01*
X19774Y24699D01*
X19537Y24462D01*
X19472Y24364D01*
X19450Y24250D01*
X19450Y18250D01*
X19472Y18135D01*
X19537Y18037D01*
X19787Y17787D01*
X19787Y17787D01*
X19885Y17722D01*
X20000Y17700D01*
X24375Y17700D01*
X31700Y10375D01*
X31700Y8500D01*
X31722Y8385D01*
X31787Y8287D01*
X34454Y5621D01*
X34450Y5609D01*
X34449Y5391D01*
X34533Y5188D01*
X34688Y5034D01*
X34769Y5000D01*
X34688Y4966D01*
X34534Y4811D01*
X34450Y4609D01*
X34449Y4391D01*
X34533Y4188D01*
X34688Y4034D01*
X34769Y4000D01*
X34688Y3966D01*
X34534Y3811D01*
X34450Y3609D01*
X34449Y3391D01*
X34533Y3188D01*
X34688Y3034D01*
X34769Y3000D01*
X34688Y2966D01*
X34534Y2811D01*
X34450Y2609D01*
X34449Y2391D01*
X34533Y2188D01*
X34688Y2034D01*
X34890Y1950D01*
X35108Y1949D01*
X35311Y2033D01*
X35465Y2188D01*
X35516Y2309D01*
X36353Y3146D01*
X36353Y3146D01*
X36353Y3146D01*
X36461Y3308D01*
X36500Y3500D01*
X36500Y269D01*
X33225Y269D01*
X33225Y6094D01*
X33152Y6268D01*
X33019Y6402D01*
X32844Y6474D01*
X32805Y6474D01*
X23225Y16055D01*
X23225Y16094D01*
X23152Y16268D01*
X23019Y16402D01*
X22844Y16474D01*
X22655Y16475D01*
X22481Y16402D01*
X22347Y16269D01*
X22275Y16094D01*
X22274Y15905D01*
X22347Y15731D01*
X22480Y15597D01*
X22655Y15525D01*
X22694Y15525D01*
X32274Y5944D01*
X32274Y5905D01*
X32347Y5731D01*
X32480Y5597D01*
X32655Y5525D01*
X32844Y5524D01*
X33018Y5597D01*
X33152Y5730D01*
X33224Y5905D01*
X33225Y6094D01*
X33225Y269D01*
X31805Y269D01*
X31805Y5319D01*
X31805Y5747D01*
X31754Y6004D01*
X31608Y6223D01*
X31389Y6369D01*
X31131Y6420D01*
X30873Y6369D01*
X30655Y6223D01*
X30509Y6004D01*
X30458Y5747D01*
X30458Y5319D01*
X30509Y5061D01*
X30655Y4842D01*
X30873Y4696D01*
X31131Y4645D01*
X31389Y4696D01*
X31608Y4842D01*
X31754Y5061D01*
X31805Y5319D01*
X31805Y269D01*
X25899Y269D01*
X25899Y5319D01*
X25899Y5747D01*
X25848Y6004D01*
X25702Y6223D01*
X25483Y6369D01*
X25225Y6420D01*
X24968Y6369D01*
X24749Y6223D01*
X24603Y6004D01*
X24552Y5747D01*
X24552Y5319D01*
X24603Y5061D01*
X24749Y4842D01*
X24968Y4696D01*
X25225Y4645D01*
X25483Y4696D01*
X25702Y4842D01*
X25848Y5061D01*
X25899Y5319D01*
X25899Y269D01*
X19993Y269D01*
X19993Y5319D01*
X19993Y5747D01*
X19942Y6004D01*
X19796Y6223D01*
X19577Y6369D01*
X19319Y6420D01*
X19062Y6369D01*
X18843Y6223D01*
X18697Y6004D01*
X18646Y5747D01*
X18646Y5319D01*
X18697Y5061D01*
X18843Y4842D01*
X19062Y4696D01*
X19319Y4645D01*
X19577Y4696D01*
X19796Y4842D01*
X19942Y5061D01*
X19993Y5319D01*
X19993Y269D01*
X17472Y269D01*
X17472Y54180D01*
X17472Y54607D01*
X17421Y54865D01*
X17275Y55084D01*
X17056Y55230D01*
X16799Y55281D01*
X16541Y55230D01*
X16322Y55084D01*
X16176Y54865D01*
X16125Y54607D01*
X16125Y54180D01*
X16176Y53922D01*
X16322Y53703D01*
X16541Y53557D01*
X16799Y53506D01*
X17056Y53557D01*
X17275Y53703D01*
X17421Y53922D01*
X17472Y54180D01*
X17472Y269D01*
X17250Y269D01*
X17250Y2500D01*
X17250Y5500D01*
X17211Y5691D01*
X17103Y5853D01*
X16941Y5961D01*
X16750Y6000D01*
X16207Y6000D01*
X12454Y9752D01*
X12454Y11663D01*
X12454Y12091D01*
X12403Y12349D01*
X12257Y12567D01*
X12039Y12713D01*
X11781Y12765D01*
X11523Y12713D01*
X11425Y12648D01*
X11425Y17501D01*
X11425Y17929D01*
X11374Y18187D01*
X11228Y18406D01*
X11009Y18552D01*
X10751Y18603D01*
X10493Y18552D01*
X10396Y18486D01*
X10396Y23340D01*
X10396Y23767D01*
X10344Y24025D01*
X10198Y24244D01*
X9980Y24390D01*
X9722Y24441D01*
X9464Y24390D01*
X9245Y24244D01*
X9099Y24025D01*
X9048Y23767D01*
X9048Y23340D01*
X9099Y23082D01*
X9245Y22863D01*
X9464Y22717D01*
X9722Y22666D01*
X9980Y22717D01*
X10198Y22863D01*
X10344Y23082D01*
X10396Y23340D01*
X10396Y18486D01*
X10275Y18406D01*
X10129Y18187D01*
X10078Y17929D01*
X10078Y17501D01*
X10129Y17244D01*
X10275Y17025D01*
X10493Y16879D01*
X10751Y16828D01*
X11009Y16879D01*
X11228Y17025D01*
X11374Y17244D01*
X11425Y17501D01*
X11425Y12648D01*
X11304Y12567D01*
X11158Y12349D01*
X11107Y12091D01*
X11107Y11663D01*
X11158Y11405D01*
X11304Y11187D01*
X11523Y11041D01*
X11781Y10989D01*
X12039Y11041D01*
X12257Y11187D01*
X12403Y11405D01*
X12454Y11663D01*
X12454Y9752D01*
X10103Y12103D01*
X10103Y12103D01*
X8627Y13579D01*
X8627Y30000D01*
X8627Y33920D01*
X10603Y35896D01*
X10603Y35896D01*
X10603Y35896D01*
X10711Y36058D01*
X10750Y36250D01*
X10750Y45750D01*
X10711Y45941D01*
X10603Y46103D01*
X10603Y46103D01*
X7550Y49157D01*
X7550Y50150D01*
X7550Y50387D01*
X7487Y50450D01*
X7050Y50450D01*
X7050Y50012D01*
X7112Y49950D01*
X7250Y49949D01*
X7349Y49950D01*
X7441Y49988D01*
X7512Y50058D01*
X7550Y50150D01*
X7550Y49157D01*
X6757Y49949D01*
X6887Y49950D01*
X6950Y50012D01*
X6950Y50450D01*
X6942Y50450D01*
X6942Y50550D01*
X6950Y50550D01*
X6950Y50557D01*
X7050Y50557D01*
X7050Y50550D01*
X7487Y50550D01*
X7550Y50612D01*
X7550Y50849D01*
X7512Y50941D01*
X7441Y51011D01*
X7349Y51049D01*
X7327Y51049D01*
X7465Y51188D01*
X7549Y51390D01*
X7550Y51608D01*
X7466Y51811D01*
X7311Y51965D01*
X7230Y51999D01*
X7311Y52033D01*
X7465Y52188D01*
X7549Y52390D01*
X7550Y52608D01*
X7466Y52811D01*
X7311Y52965D01*
X7230Y52999D01*
X7311Y53033D01*
X7465Y53188D01*
X7549Y53390D01*
X7550Y53525D01*
X11450Y49625D01*
X11450Y26871D01*
X11347Y26769D01*
X11275Y26594D01*
X11274Y26405D01*
X11347Y26231D01*
X11480Y26097D01*
X11655Y26025D01*
X11775Y26024D01*
X11774Y25905D01*
X11847Y25731D01*
X11980Y25597D01*
X12155Y25525D01*
X12344Y25524D01*
X12518Y25597D01*
X12652Y25730D01*
X12724Y25905D01*
X12725Y26094D01*
X12652Y26268D01*
X12625Y26296D01*
X12625Y48537D01*
X12655Y48525D01*
X12694Y48525D01*
X13125Y48094D01*
X13125Y19500D01*
X13153Y19356D01*
X13234Y19234D01*
X15524Y16944D01*
X15524Y16905D01*
X15597Y16731D01*
X15730Y16597D01*
X15905Y16525D01*
X16094Y16524D01*
X16268Y16597D01*
X16402Y16730D01*
X16474Y16905D01*
X16475Y17025D01*
X16594Y17024D01*
X16768Y17097D01*
X16902Y17230D01*
X16974Y17405D01*
X16975Y17594D01*
X16902Y17768D01*
X16769Y17902D01*
X16594Y17974D01*
X16555Y17974D01*
X15767Y18762D01*
X15767Y29790D01*
X15767Y30218D01*
X15716Y30476D01*
X15570Y30694D01*
X15351Y30840D01*
X15094Y30892D01*
X14836Y30840D01*
X14617Y30694D01*
X14471Y30476D01*
X14420Y30218D01*
X14420Y29790D01*
X14471Y29532D01*
X14617Y29314D01*
X14836Y29168D01*
X15094Y29116D01*
X15351Y29168D01*
X15570Y29314D01*
X15716Y29532D01*
X15767Y29790D01*
X15767Y18762D01*
X14375Y20155D01*
X14375Y49500D01*
X14346Y49643D01*
X14265Y49765D01*
X11567Y52462D01*
X11567Y54180D01*
X11567Y54607D01*
X11516Y54865D01*
X11370Y55084D01*
X11151Y55230D01*
X10893Y55281D01*
X10636Y55230D01*
X10417Y55084D01*
X10271Y54865D01*
X10220Y54607D01*
X10220Y54180D01*
X10271Y53922D01*
X10417Y53703D01*
X10636Y53557D01*
X10893Y53506D01*
X11151Y53557D01*
X11370Y53703D01*
X11516Y53922D01*
X11567Y54180D01*
X11567Y52462D01*
X9975Y54055D01*
X9975Y54094D01*
X9902Y54268D01*
X9769Y54402D01*
X9594Y54474D01*
X9405Y54475D01*
X9231Y54402D01*
X9097Y54269D01*
X9025Y54094D01*
X9025Y54005D01*
X8125Y54905D01*
X8125Y55750D01*
X8124Y55750D01*
X8096Y55893D01*
X8015Y56015D01*
X8015Y56015D01*
X7549Y56480D01*
X7550Y56608D01*
X7466Y56811D01*
X7311Y56965D01*
X7230Y56999D01*
X7311Y57033D01*
X7465Y57188D01*
X7549Y57390D01*
X7550Y57608D01*
X7466Y57811D01*
X7311Y57965D01*
X7109Y58049D01*
X6891Y58050D01*
X6688Y57966D01*
X6534Y57811D01*
X6483Y57690D01*
X5646Y56853D01*
X5538Y56691D01*
X5499Y56500D01*
X5500Y56499D01*
X5500Y50000D01*
X5499Y50000D01*
X5538Y49808D01*
X5646Y49646D01*
X9750Y45542D01*
X9750Y36457D01*
X8233Y34940D01*
X8233Y36112D01*
X8233Y36540D01*
X8181Y36797D01*
X8035Y37016D01*
X7817Y37162D01*
X7559Y37213D01*
X7301Y37162D01*
X7207Y37099D01*
X7207Y41927D01*
X7207Y42355D01*
X7156Y42613D01*
X7010Y42831D01*
X6791Y42978D01*
X6534Y43029D01*
X6276Y42978D01*
X6182Y42915D01*
X6182Y47743D01*
X6182Y48171D01*
X6130Y48428D01*
X5984Y48647D01*
X5766Y48793D01*
X5508Y48844D01*
X5250Y48793D01*
X5032Y48647D01*
X4886Y48428D01*
X4834Y48171D01*
X4834Y47743D01*
X4886Y47485D01*
X5032Y47266D01*
X5250Y47120D01*
X5508Y47069D01*
X5766Y47120D01*
X5984Y47266D01*
X6130Y47485D01*
X6182Y47743D01*
X6182Y42915D01*
X6057Y42831D01*
X5911Y42613D01*
X5860Y42355D01*
X5860Y41927D01*
X5911Y41669D01*
X6057Y41451D01*
X6276Y41305D01*
X6534Y41254D01*
X6791Y41305D01*
X7010Y41451D01*
X7156Y41669D01*
X7207Y41927D01*
X7207Y37099D01*
X7083Y37016D01*
X6937Y36797D01*
X6885Y36540D01*
X6885Y36112D01*
X6937Y35854D01*
X7083Y35635D01*
X7301Y35489D01*
X7559Y35438D01*
X7817Y35489D01*
X8035Y35635D01*
X8181Y35854D01*
X8233Y36112D01*
X8233Y34940D01*
X7773Y34481D01*
X7665Y34318D01*
X7627Y34127D01*
X7627Y34127D01*
X7627Y30000D01*
X7627Y26461D01*
X7594Y26474D01*
X7405Y26475D01*
X7231Y26402D01*
X7097Y26269D01*
X7050Y26154D01*
X7050Y35000D01*
X7027Y35114D01*
X6962Y35212D01*
X6962Y35212D01*
X5300Y36874D01*
X5300Y46500D01*
X5277Y46614D01*
X5212Y46712D01*
X5212Y46712D01*
X3800Y48124D01*
X3800Y55128D01*
X3902Y55230D01*
X3974Y55405D01*
X3975Y55594D01*
X3902Y55768D01*
X3769Y55902D01*
X3594Y55974D01*
X3405Y55975D01*
X3231Y55902D01*
X3097Y55769D01*
X3025Y55594D01*
X3024Y55405D01*
X3097Y55231D01*
X3200Y55128D01*
X3200Y48000D01*
X3222Y47885D01*
X3287Y47787D01*
X4700Y46375D01*
X4700Y36750D01*
X4722Y36635D01*
X4787Y36537D01*
X6450Y34875D01*
X6450Y33154D01*
X6402Y33268D01*
X6269Y33402D01*
X6094Y33474D01*
X5905Y33475D01*
X5731Y33402D01*
X5597Y33269D01*
X5525Y33094D01*
X5524Y32905D01*
X5597Y32731D01*
X5700Y32628D01*
X5700Y25121D01*
X5597Y25019D01*
X5525Y24844D01*
X5524Y24655D01*
X5597Y24481D01*
X5700Y24378D01*
X5700Y6500D01*
X5722Y6385D01*
X5787Y6287D01*
X6454Y5621D01*
X6450Y5609D01*
X6449Y5391D01*
X6533Y5188D01*
X6688Y5034D01*
X6769Y5000D01*
X6688Y4966D01*
X6534Y4811D01*
X6450Y4609D01*
X6449Y4391D01*
X6533Y4188D01*
X6688Y4034D01*
X6769Y4000D01*
X6688Y3966D01*
X6534Y3811D01*
X6450Y3609D01*
X6449Y3391D01*
X6533Y3188D01*
X6672Y3050D01*
X6650Y3050D01*
X6558Y3012D01*
X6488Y2941D01*
X6450Y2849D01*
X6449Y2750D01*
X6449Y2150D01*
X6487Y2058D01*
X6558Y1988D01*
X6650Y1950D01*
X6749Y1949D01*
X7349Y1949D01*
X7441Y1987D01*
X7511Y2058D01*
X7549Y2150D01*
X7550Y2249D01*
X7550Y2849D01*
X7512Y2941D01*
X7441Y3011D01*
X7349Y3049D01*
X7327Y3049D01*
X7465Y3188D01*
X7549Y3390D01*
X7550Y3519D01*
X8765Y4734D01*
X8765Y4734D01*
X8846Y4856D01*
X8874Y5000D01*
X8875Y5000D01*
X8875Y11917D01*
X9396Y11396D01*
X9396Y11396D01*
X15646Y5146D01*
X15646Y5146D01*
X15808Y5038D01*
X16000Y5000D01*
X16250Y5000D01*
X16250Y2500D01*
X16288Y2308D01*
X16396Y2146D01*
X16558Y2038D01*
X16750Y2000D01*
X16941Y2038D01*
X17103Y2146D01*
X17211Y2308D01*
X17250Y2500D01*
X17250Y269D01*
X5475Y269D01*
X5475Y27094D01*
X5402Y27268D01*
X5269Y27402D01*
X5094Y27474D01*
X4905Y27475D01*
X4731Y27402D01*
X4690Y27362D01*
X4690Y45318D01*
X4439Y45940D01*
X4420Y45970D01*
X4206Y46136D01*
X4136Y46065D01*
X4136Y46206D01*
X3970Y46420D01*
X3352Y46683D01*
X2681Y46690D01*
X2059Y46439D01*
X2029Y46420D01*
X1863Y46206D01*
X3000Y45070D01*
X4136Y46206D01*
X4136Y46065D01*
X3070Y45000D01*
X4206Y43863D01*
X4420Y44029D01*
X4683Y44647D01*
X4690Y45318D01*
X4690Y27362D01*
X4597Y27269D01*
X4525Y27094D01*
X4524Y26905D01*
X4597Y26731D01*
X4625Y26703D01*
X4625Y15480D01*
X4439Y15940D01*
X4420Y15970D01*
X4206Y16136D01*
X4136Y16065D01*
X4136Y16206D01*
X4136Y43793D01*
X3000Y44929D01*
X2929Y44858D01*
X2929Y45000D01*
X1793Y46136D01*
X1579Y45970D01*
X1316Y45352D01*
X1309Y44681D01*
X1560Y44059D01*
X1579Y44029D01*
X1793Y43863D01*
X2929Y45000D01*
X2929Y44858D01*
X1863Y43793D01*
X2029Y43579D01*
X2647Y43316D01*
X3318Y43309D01*
X3940Y43560D01*
X3970Y43579D01*
X4136Y43793D01*
X4136Y16206D01*
X3970Y16420D01*
X3352Y16683D01*
X2681Y16690D01*
X2059Y16439D01*
X2029Y16420D01*
X1863Y16206D01*
X3000Y15070D01*
X4136Y16206D01*
X4136Y16065D01*
X3070Y15000D01*
X3076Y14994D01*
X3005Y14923D01*
X3000Y14929D01*
X2929Y14858D01*
X2929Y15000D01*
X1793Y16136D01*
X1579Y15970D01*
X1316Y15352D01*
X1309Y14681D01*
X1560Y14059D01*
X1579Y14029D01*
X1793Y13863D01*
X2929Y15000D01*
X2929Y14858D01*
X1863Y13793D01*
X2029Y13579D01*
X2647Y13316D01*
X3318Y13309D01*
X3434Y13356D01*
X3347Y13269D01*
X3275Y13094D01*
X3274Y12905D01*
X3347Y12731D01*
X3347Y12731D01*
X3203Y12635D01*
X3057Y12416D01*
X3006Y12158D01*
X3006Y11730D01*
X3057Y11473D01*
X3203Y11254D01*
X3421Y11108D01*
X3679Y11057D01*
X3937Y11108D01*
X4156Y11254D01*
X4302Y11473D01*
X4353Y11730D01*
X4353Y12158D01*
X4302Y12416D01*
X4156Y12635D01*
X4096Y12674D01*
X4152Y12730D01*
X4224Y12905D01*
X4224Y12944D01*
X5265Y13984D01*
X5346Y14106D01*
X5375Y14250D01*
X5375Y26703D01*
X5402Y26730D01*
X5474Y26905D01*
X5475Y27094D01*
X5475Y269D01*
X269Y269D01*
X269Y59730D01*
X41730Y59730D01*
X41730Y269D01*
M02*
