G04 #@! TF.FileFunction,Copper,L2,Bot,Signal*
%FSLAX45Y45*%
G04 Gerber Fmt 4.5, Leading zero omitted, Abs format (unit mm)*
G04 Created by KiCad (PCBNEW (2015-01-16 BZR 5376)-product) date 3/22/2015 17:44:56*
%MOMM*%
G01*
G04 APERTURE LIST*
%ADD10C,0.254000*%
%ADD11R,1.524000X1.524000*%
%ADD12C,1.524000*%
%ADD13C,7.300000*%
%ADD14C,1.142998*%
%ADD15C,1.143000*%
%ADD16C,1.142999*%
%ADD17C,0.508000*%
%ADD18C,0.635000*%
%ADD19C,1.270000*%
%ADD20C,2.540000*%
G04 APERTURE END LIST*
D10*
D11*
X8890000Y2413000D03*
D12*
X8890000Y2159000D03*
X8890000Y1905000D03*
X8890000Y1651000D03*
X8890000Y1397000D03*
X8890000Y1143000D03*
X8890000Y889000D03*
X8890000Y635000D03*
D13*
X762000Y3810000D03*
D11*
X8890000Y14605000D03*
D12*
X8890000Y14351000D03*
X8890000Y14097000D03*
X8890000Y13843000D03*
X8890000Y13589000D03*
X8890000Y13335000D03*
X8890000Y13081000D03*
X8890000Y12827000D03*
D11*
X1778000Y635000D03*
D12*
X1778000Y889000D03*
X1778000Y1143000D03*
X1778000Y1397000D03*
X1778000Y1651000D03*
X1778000Y1905000D03*
X1778000Y2159000D03*
X1778000Y2413000D03*
D11*
X1778000Y12827000D03*
D12*
X1778000Y13081000D03*
X1778000Y13335000D03*
X1778000Y13589000D03*
X1778000Y13843000D03*
X1778000Y14097000D03*
X1778000Y14351000D03*
X1778000Y14605000D03*
D13*
X9906000Y11430000D03*
X9906000Y3810000D03*
X762000Y11430000D03*
D14*
X2387600Y7112000D03*
X5435600Y3810000D03*
D15*
X2387600Y6985000D03*
X5562600Y3810000D03*
D14*
X5295900Y6858000D03*
D16*
X5232400Y8458200D03*
X5461000Y9575800D03*
D14*
X8056882Y5715763D03*
X5778500Y4419600D03*
X3962400Y8394700D03*
X6553200Y8890000D03*
X4533900Y7213600D03*
X4356100Y9359900D03*
D16*
X4343400Y8890000D03*
D14*
X5778500Y1905000D03*
X3492500Y1397000D03*
X5334000Y9448800D03*
X7112000Y13843000D03*
X3492500Y4419600D03*
X5803900Y6858000D03*
X4724400Y8394700D03*
X6134100Y8204200D03*
X2146300Y11430000D03*
D15*
X8331200Y12661900D03*
D14*
X2146300Y12623800D03*
X3746500Y6235700D03*
X5549900Y7213600D03*
X5549900Y8293100D03*
X7848600Y5765800D03*
X6794500Y2159000D03*
X6794500Y4419600D03*
X4216400Y8394700D03*
X5588000Y13081000D03*
X4787900Y6858000D03*
X5588000Y10744200D03*
D15*
X9906000Y11684000D03*
X9652000Y11430000D03*
X9906000Y11176000D03*
X10160000Y11430000D03*
X10096500Y11620500D03*
X9715500Y11620500D03*
X9715500Y11239500D03*
X10096500Y11239500D03*
X9906000Y4064000D03*
X9906000Y3556000D03*
X10160000Y3810000D03*
X9652000Y3810000D03*
X10096500Y3619500D03*
X10096500Y4000500D03*
X9715500Y4000500D03*
X9715500Y3619500D03*
X762000Y11684000D03*
X1016000Y11430000D03*
X762000Y11176000D03*
X508000Y11430000D03*
X952500Y11620500D03*
X571500Y11620500D03*
X571500Y11239500D03*
X952500Y11239500D03*
X762000Y4064000D03*
X762000Y3556000D03*
X1016000Y3810000D03*
X508000Y3810000D03*
X952500Y4000500D03*
X571500Y4000500D03*
X571500Y3619500D03*
X952500Y3619500D03*
D14*
X2514600Y2413000D03*
X2654300Y2413000D03*
X2794000Y2413000D03*
X2933700Y2413000D03*
X6591300Y2413000D03*
X6438900Y2413000D03*
X6299200Y2413000D03*
X6159500Y2413000D03*
X6311900Y11430000D03*
X6438900Y11430000D03*
X6565900Y11430000D03*
X6692900Y11430000D03*
X5613400Y8458200D03*
X2387600Y7493000D03*
X2387600Y7366000D03*
X5016500Y3810000D03*
X5156200Y3810000D03*
X2921000Y12319000D03*
X2921000Y12192000D03*
X2921000Y12065000D03*
X2921000Y11938000D03*
X4699000Y10668000D03*
X4699000Y10795000D03*
X4699000Y10922000D03*
X4699000Y11049000D03*
X863600Y7239000D03*
D15*
X3839052Y889000D03*
X7302500Y14351000D03*
X7302500Y889000D03*
X4318000Y3175000D03*
D14*
X4279900Y6413500D03*
X4953000Y10604500D03*
X2208490Y3033990D03*
X4381500Y1397000D03*
X4381500Y635000D03*
X1905000Y6328863D03*
X7556500Y7620000D03*
X8699500Y9258300D03*
X6540500Y14605000D03*
X6540500Y13817600D03*
X1905000Y4699000D03*
D15*
X9144000Y2603500D03*
X2603500Y9207500D03*
D14*
X9131300Y14617700D03*
X3441700Y14605000D03*
X7556500Y635000D03*
D15*
X1536700Y635000D03*
D14*
X2413000Y9867900D03*
D15*
X2413000Y13716000D03*
D14*
X2794000Y8978900D03*
X2882900Y5981700D03*
D15*
X8318500Y1524000D03*
D16*
X7899400Y8140700D03*
X5969000Y12446000D03*
X5969000Y10858500D03*
D14*
X3492500Y11417300D03*
X3492500Y7620000D03*
X3073400Y11303000D03*
X3073400Y4203700D03*
D17*
X2387600Y7239000D02*
X2387600Y7124700D01*
X2387600Y7124700D02*
X2387600Y7112000D01*
X5295900Y3810000D02*
X5435600Y3810000D01*
D10*
X5232400Y8940800D02*
X5461000Y9169400D01*
X5461000Y9169400D02*
X5461000Y9575800D01*
X5232400Y8458200D02*
X5232400Y8940800D01*
X5295900Y6858000D02*
X5054600Y7099300D01*
X5054600Y7099300D02*
X5054600Y8199578D01*
X5054600Y8199578D02*
X5232400Y8377378D01*
X5232400Y8377378D02*
X5232400Y8458200D01*
D18*
X8890000Y1651000D02*
X8034018Y2506982D01*
X8034018Y2506982D02*
X8034018Y5692899D01*
X8034018Y5692899D02*
X8056882Y5715763D01*
X8890000Y13589000D02*
X8478518Y13177518D01*
X8478518Y13177518D02*
X8478518Y12643309D01*
X8478518Y12643309D02*
X9037318Y12084509D01*
X9037318Y12084509D02*
X9037318Y8684523D01*
X9037318Y8684523D02*
X8056882Y7704087D01*
X8056882Y7704087D02*
X8056882Y5796585D01*
X8056882Y5796585D02*
X8056882Y5715763D01*
D10*
X3962400Y8394700D02*
X4533900Y7823200D01*
X4533900Y7823200D02*
X4533900Y7213600D01*
X5778500Y4419600D02*
X6553200Y5194300D01*
X6553200Y5194300D02*
X6553200Y8890000D01*
X4356100Y9359900D02*
X4356100Y8902700D01*
X4356100Y8902700D02*
X4343400Y8890000D01*
X5778500Y4419600D02*
X5778500Y1905000D01*
D18*
X8890000Y1905000D02*
X8166100Y2628900D01*
X8166100Y2628900D02*
X8166100Y7701949D01*
X8166100Y7701949D02*
X9116059Y8651908D01*
X9116059Y8651908D02*
X9116059Y12117125D01*
X9116059Y12117125D02*
X8557259Y12675925D01*
X8557259Y12675925D02*
X8557259Y13002259D01*
X8557259Y13002259D02*
X8813800Y13258800D01*
X8813800Y13258800D02*
X8890000Y13335000D01*
X3492500Y4419600D02*
X3492500Y1397000D01*
X5803900Y6858000D02*
X5803900Y7874839D01*
X3492500Y4419600D02*
X5803900Y6731000D01*
X5803900Y6731000D02*
X5803900Y6858000D01*
D10*
X4724400Y8839200D02*
X5334000Y9448800D01*
X4724400Y8394700D02*
X4724400Y8839200D01*
D18*
X6252132Y8322232D02*
X6134100Y8204200D01*
X6252132Y8804832D02*
X6252132Y8322232D01*
X7192009Y9744709D02*
X6252132Y8804832D01*
X7192009Y13762991D02*
X7192009Y9744709D01*
X7112000Y13843000D02*
X7192009Y13762991D01*
X6076111Y8147050D02*
X5803900Y7874839D01*
X6076950Y8147050D02*
X6076111Y8147050D01*
X6134100Y8204200D02*
X6076950Y8147050D01*
X1778000Y13843000D02*
X2146300Y13474700D01*
X8890000Y1397000D02*
X7952740Y2334260D01*
X7952740Y2334260D02*
X7952740Y7715309D01*
X7952740Y7715309D02*
X8958577Y8721146D01*
X8958577Y8721146D02*
X8958577Y12034523D01*
X8958577Y12034523D02*
X8388350Y12604750D01*
X8388350Y12604750D02*
X8331200Y12661900D01*
X2146300Y13474700D02*
X2146300Y12623800D01*
X2146300Y12542978D02*
X2146300Y11430000D01*
X2146300Y12623800D02*
X2146300Y12542978D01*
D10*
X4883150Y6292850D02*
X5549900Y6959600D01*
X5549900Y6959600D02*
X5549900Y7213600D01*
X3746500Y6235700D02*
X3803650Y6292850D01*
X3803650Y6292850D02*
X4883150Y6292850D01*
X5549900Y7213600D02*
X5549900Y8293100D01*
D18*
X8890000Y1143000D02*
X7851137Y2181863D01*
X7848600Y7921856D02*
X7848600Y5765800D01*
X8873491Y8946748D02*
X7848600Y7921856D01*
X8873491Y11796749D02*
X8873491Y8946748D01*
X8195311Y12474929D02*
X8873491Y11796749D01*
X8195311Y13402311D02*
X8195311Y12474929D01*
X8890000Y14097000D02*
X8195311Y13402311D01*
X7851137Y5682441D02*
X7851137Y2181863D01*
X7848600Y5684978D02*
X7851137Y5682441D01*
X7848600Y5765800D02*
X7848600Y5684978D01*
D10*
X6794500Y4419600D02*
X6794500Y2159000D01*
X4216400Y8394700D02*
X4216400Y9372600D01*
X4216400Y9372600D02*
X5588000Y10744200D01*
X4216400Y8394700D02*
X4787900Y7823200D01*
X4787900Y7823200D02*
X4787900Y6858000D01*
X5588000Y10744200D02*
X5588000Y13081000D01*
D18*
X9194800Y8619293D02*
X9194800Y12776200D01*
X8244841Y7669333D02*
X9194800Y8619293D01*
X8244841Y2804159D02*
X8244841Y7669333D01*
X8890000Y2159000D02*
X8244841Y2804159D01*
X9194800Y12776200D02*
X8890000Y13081000D01*
D19*
X9906000Y11684000D02*
X9906000Y11430000D01*
X9652000Y11430000D02*
X9906000Y11430000D01*
X9906000Y11430000D02*
X9906000Y11176000D01*
X9906000Y11430000D02*
X10160000Y11430000D01*
X10096500Y11620500D02*
X9906000Y11430000D01*
X9906000Y11430000D02*
X9715500Y11620500D01*
X9715500Y11239500D02*
X9906000Y11430000D01*
X10096500Y11239500D02*
X9906000Y11430000D01*
X9906000Y3810000D02*
X9906000Y4064000D01*
X9906000Y3556000D02*
X9906000Y3810000D01*
X9906000Y3810000D02*
X10160000Y3810000D01*
X9652000Y3810000D02*
X9906000Y3810000D01*
X9906000Y3810000D02*
X10096500Y3619500D01*
X10096500Y4000500D02*
X9906000Y3810000D01*
X9906000Y3810000D02*
X9715500Y4000500D01*
X9906000Y3810000D02*
X9715500Y3619500D01*
X762000Y11684000D02*
X762000Y11430000D01*
X762000Y11430000D02*
X1016000Y11430000D01*
X762000Y11176000D02*
X762000Y11430000D01*
X762000Y11430000D02*
X508000Y11430000D01*
X952500Y11620500D02*
X762000Y11430000D01*
X762000Y11430000D02*
X571500Y11620500D01*
X571500Y11239500D02*
X762000Y11430000D01*
X762000Y11430000D02*
X952500Y11239500D01*
X762000Y4064000D02*
X762000Y3810000D01*
X762000Y3810000D02*
X762000Y3556000D01*
X1016000Y3810000D02*
X762000Y3810000D01*
X762000Y3810000D02*
X508000Y3810000D01*
X952500Y4000500D02*
X762000Y3810000D01*
X762000Y3810000D02*
X571500Y4000500D01*
X571500Y3619500D02*
X762000Y3810000D01*
X762000Y3810000D02*
X952500Y3619500D01*
D17*
X2514600Y2413000D02*
X2654300Y2413000D01*
X2794000Y2413000D02*
X2959100Y2413000D01*
X2959100Y2413000D02*
X2933700Y2413000D01*
X6311900Y11430000D02*
X6438900Y11430000D01*
X6648450Y11385550D02*
X6635750Y11372850D01*
X6635750Y11372850D02*
X6623050Y11372850D01*
X6623050Y11372850D02*
X6565900Y11430000D01*
X6565900Y11430000D02*
X6692900Y11430000D01*
X2387600Y7493000D02*
X2387600Y7366000D01*
X5016500Y3810000D02*
X5156200Y3810000D01*
X2921000Y12319000D02*
X2921000Y12192000D01*
X2921000Y12065000D02*
X2921000Y11938000D01*
X4699000Y10668000D02*
X4699000Y10795000D01*
X4699000Y10922000D02*
X4699000Y11049000D01*
D19*
X1562100Y6540500D02*
X1562100Y1104900D01*
X1562100Y1104900D02*
X1778000Y889000D01*
X863600Y7239000D02*
X1562100Y6540500D01*
X4318000Y3175000D02*
X3839052Y2696053D01*
X3839052Y2696053D02*
X3839052Y889000D01*
X7302500Y4635500D02*
X7302500Y14351000D01*
X7302500Y4635500D02*
X7302500Y4554678D01*
X7302500Y4554678D02*
X7302500Y889000D01*
D18*
X4112260Y9763760D02*
X4953000Y10604500D01*
X4112260Y8344713D02*
X4112260Y9763760D01*
X4683760Y7773213D02*
X4112260Y8344713D01*
X4683760Y6817360D02*
X4683760Y7773213D01*
X4279900Y6413500D02*
X4683760Y6817360D01*
X4381500Y1397000D02*
X4381500Y1316178D01*
X4381500Y1316178D02*
X4381500Y635000D01*
D20*
X6540500Y14605000D02*
X7611888Y14605000D01*
X1905000Y4699000D02*
X1905000Y6328863D01*
X1905000Y6328863D02*
X1905000Y8509000D01*
D18*
X1915613Y6318250D02*
X1905000Y6328863D01*
X8890000Y635000D02*
X9144000Y889000D01*
X9144000Y889000D02*
X9144000Y2603500D01*
X6540500Y13817600D02*
X6540500Y14605000D01*
D20*
X1905000Y8509000D02*
X2603500Y9207500D01*
X2222500Y4381500D02*
X1905000Y4699000D01*
D18*
X2222500Y3048000D02*
X2222500Y4381500D01*
D20*
X7611888Y13377423D02*
X7611888Y14605000D01*
X8021320Y12967991D02*
X7611888Y13377423D01*
X8021320Y11506200D02*
X8021320Y12967991D01*
X7556500Y7620000D02*
X7556500Y8196122D01*
X8001803Y8641425D02*
X8278205Y8641425D01*
X7556500Y8196122D02*
X8001803Y8641425D01*
X8699500Y9062720D02*
X8278205Y8641425D01*
X8699500Y9258300D02*
X8699500Y9062720D01*
X8699500Y10828020D02*
X8699500Y9258300D01*
X8021320Y11506200D02*
X8699500Y10828020D01*
X9050478Y14617700D02*
X9131300Y14617700D01*
X6540500Y14605000D02*
X3441700Y14605000D01*
X8902700Y14617700D02*
X8890000Y14605000D01*
X9131300Y14617700D02*
X8902700Y14617700D01*
X8890000Y14605000D02*
X7611888Y14605000D01*
X4381500Y635000D02*
X7556500Y635000D01*
X7556500Y635000D02*
X7556500Y7620000D01*
X2222500Y4381500D02*
X2222500Y985978D01*
X1536700Y635000D02*
X1778000Y635000D01*
X2222500Y749300D02*
X2222500Y985978D01*
X2108200Y635000D02*
X2222500Y749300D01*
X1778000Y635000D02*
X2108200Y635000D01*
X2108200Y635000D02*
X4381500Y635000D01*
X2603500Y9288322D02*
X2658110Y9342932D01*
X2603500Y9207500D02*
X2603500Y9288322D01*
X3441700Y13342027D02*
X2658110Y12558437D01*
X3441700Y14605000D02*
X3441700Y13342027D01*
X2658110Y9342932D02*
X2658110Y12558437D01*
D18*
X2413000Y13716000D02*
X2413000Y9867900D01*
X2794000Y6070600D02*
X2882900Y5981700D01*
X2794000Y8978900D02*
X2794000Y6070600D01*
X7842250Y8083550D02*
X7899400Y8140700D01*
X8318500Y1524000D02*
X7744460Y2098040D01*
X7744460Y2098040D02*
X7744460Y7985760D01*
X7744460Y7985760D02*
X7842250Y8083550D01*
X5969000Y12446000D02*
X5969000Y12192000D01*
X5969000Y10858500D02*
X5969000Y12192000D01*
X3492500Y11417300D02*
X3492500Y7620000D01*
X3073400Y11303000D02*
X3073400Y4203700D01*
D10*
G36*
X7195123Y825500D02*
X6997640Y825500D01*
X6997640Y7566937D01*
X6997640Y7675303D01*
X6985194Y7737871D01*
X6949752Y7790915D01*
X6896709Y7826357D01*
X6834140Y7838803D01*
X6771571Y7826357D01*
X6718528Y7790915D01*
X6683086Y7737871D01*
X6670640Y7675303D01*
X6670640Y7566937D01*
X6683086Y7504369D01*
X6718528Y7451325D01*
X6771571Y7415883D01*
X6834140Y7403437D01*
X6896709Y7415883D01*
X6949752Y7451325D01*
X6985194Y7504369D01*
X6997640Y7566937D01*
X6997640Y825500D01*
X6915171Y825500D01*
X6915171Y2182894D01*
X6896842Y2227253D01*
X6870700Y2253441D01*
X6870700Y4325191D01*
X6896722Y4351168D01*
X6915129Y4395496D01*
X6915171Y4443494D01*
X6896842Y4487853D01*
X6862932Y4521822D01*
X6818604Y4540229D01*
X6770606Y4540271D01*
X6726247Y4521942D01*
X6692278Y4488032D01*
X6673871Y4443704D01*
X6673829Y4395707D01*
X6692158Y4351347D01*
X6718300Y4325159D01*
X6718300Y2253409D01*
X6692278Y2227432D01*
X6673871Y2183104D01*
X6673829Y2135107D01*
X6692158Y2090747D01*
X6726068Y2056778D01*
X6770396Y2038371D01*
X6818393Y2038329D01*
X6862753Y2056658D01*
X6896722Y2090568D01*
X6915129Y2134896D01*
X6915171Y2182894D01*
X6915171Y825500D01*
X6570860Y825500D01*
X6570860Y1351247D01*
X6570860Y1459613D01*
X6558414Y1522181D01*
X6522972Y1575225D01*
X6469929Y1610667D01*
X6407360Y1623113D01*
X6344791Y1610667D01*
X6291748Y1575225D01*
X6256306Y1522181D01*
X6243860Y1459613D01*
X6243860Y1351247D01*
X6256306Y1288679D01*
X6291748Y1235635D01*
X6344791Y1200193D01*
X6407360Y1187747D01*
X6469929Y1200193D01*
X6522972Y1235635D01*
X6558414Y1288679D01*
X6570860Y1351247D01*
X6570860Y825500D01*
X5070740Y825500D01*
X5070740Y1351247D01*
X5070740Y1459613D01*
X5058294Y1522181D01*
X5022852Y1575225D01*
X4969809Y1610667D01*
X4907240Y1623113D01*
X4844671Y1610667D01*
X4791628Y1575225D01*
X4756186Y1522181D01*
X4743740Y1459613D01*
X4743740Y1351247D01*
X4756186Y1288679D01*
X4791628Y1235635D01*
X4844671Y1200193D01*
X4907240Y1187747D01*
X4969809Y1200193D01*
X5022852Y1235635D01*
X5058294Y1288679D01*
X5070740Y1351247D01*
X5070740Y825500D01*
X4476750Y825500D01*
X4476750Y1316178D01*
X4476750Y1321608D01*
X4483722Y1328568D01*
X4502129Y1372896D01*
X4502171Y1420893D01*
X4483842Y1465253D01*
X4449932Y1499222D01*
X4405604Y1517629D01*
X4357607Y1517671D01*
X4313247Y1499342D01*
X4279278Y1465432D01*
X4260871Y1421104D01*
X4260829Y1373107D01*
X4279158Y1328747D01*
X4286250Y1321643D01*
X4286250Y1316178D01*
X4286250Y825500D01*
X3946430Y825500D01*
X3956385Y840399D01*
X3966052Y889000D01*
X3966052Y2643447D01*
X4407803Y3085197D01*
X4435333Y3126399D01*
X4445000Y3175000D01*
X4435333Y3223601D01*
X4407803Y3264803D01*
X4366601Y3292333D01*
X4318000Y3302000D01*
X4269399Y3292333D01*
X4228198Y3264803D01*
X3749250Y2785855D01*
X3721720Y2744653D01*
X3712052Y2696053D01*
X3712052Y2696052D01*
X3712052Y889000D01*
X3721720Y840399D01*
X3731675Y825500D01*
X3155933Y825500D01*
X3155933Y2962715D01*
X3155933Y3071081D01*
X3143487Y3133649D01*
X3108045Y3186693D01*
X3055002Y3222135D01*
X2992433Y3234581D01*
X2929864Y3222135D01*
X2894455Y3198475D01*
X2894455Y4445622D01*
X2894455Y4553988D01*
X2882009Y4616556D01*
X2846567Y4669600D01*
X2793524Y4705042D01*
X2730955Y4717488D01*
X2668386Y4705042D01*
X2632978Y4681383D01*
X2632978Y5928530D01*
X2632978Y6036896D01*
X2620532Y6099464D01*
X2585090Y6152508D01*
X2532047Y6187950D01*
X2508271Y6192679D01*
X2508271Y7008893D01*
X2491888Y7048543D01*
X2508229Y7087896D01*
X2508271Y7135893D01*
X2489942Y7180253D01*
X2476500Y7193719D01*
X2476500Y7239000D01*
X2469733Y7273021D01*
X2450462Y7301862D01*
X2421621Y7321133D01*
X2387600Y7327900D01*
X2353579Y7321133D01*
X2324738Y7301862D01*
X2305467Y7273021D01*
X2298700Y7239000D01*
X2298700Y7193731D01*
X2285378Y7180432D01*
X2266971Y7136104D01*
X2266929Y7088106D01*
X2283312Y7048457D01*
X2266971Y7009104D01*
X2266929Y6961106D01*
X2285258Y6916746D01*
X2319168Y6882777D01*
X2363496Y6864371D01*
X2411494Y6864329D01*
X2455854Y6882658D01*
X2489823Y6916568D01*
X2508229Y6960896D01*
X2508271Y7008893D01*
X2508271Y6192679D01*
X2469478Y6200396D01*
X2406909Y6187950D01*
X2353866Y6152508D01*
X2318424Y6099464D01*
X2305978Y6036896D01*
X2305978Y5928530D01*
X2318424Y5865962D01*
X2353866Y5812918D01*
X2406909Y5777476D01*
X2469478Y5765030D01*
X2532047Y5777476D01*
X2585090Y5812918D01*
X2620532Y5865962D01*
X2632978Y5928530D01*
X2632978Y4681383D01*
X2615343Y4669600D01*
X2579901Y4616556D01*
X2567455Y4553988D01*
X2567455Y4445622D01*
X2579901Y4383054D01*
X2615343Y4330010D01*
X2668386Y4294568D01*
X2730955Y4282122D01*
X2793524Y4294568D01*
X2846567Y4330010D01*
X2882009Y4383054D01*
X2894455Y4445622D01*
X2894455Y3198475D01*
X2876821Y3186693D01*
X2841379Y3133649D01*
X2828933Y3071081D01*
X2828933Y2962715D01*
X2841379Y2900147D01*
X2876821Y2847103D01*
X2929864Y2811661D01*
X2992433Y2799215D01*
X3055002Y2811661D01*
X3108045Y2847103D01*
X3143487Y2900147D01*
X3155933Y2962715D01*
X3155933Y825500D01*
X2413000Y825500D01*
X2413000Y985978D01*
X2413000Y4381500D01*
X2398499Y4454401D01*
X2357204Y4516204D01*
X2095500Y4777908D01*
X2095500Y6328863D01*
X2095500Y8430092D01*
X2676893Y9011485D01*
X2673371Y9003004D01*
X2673329Y8955007D01*
X2691658Y8910647D01*
X2698750Y8903543D01*
X2698750Y6070600D01*
X2706001Y6034149D01*
X2726648Y6003248D01*
X2762238Y5967658D01*
X2762229Y5957806D01*
X2780558Y5913447D01*
X2814468Y5879478D01*
X2858796Y5861071D01*
X2906793Y5861029D01*
X2951153Y5879358D01*
X2978150Y5906308D01*
X2978150Y4279092D01*
X2971178Y4272132D01*
X2952771Y4227804D01*
X2952729Y4179806D01*
X2971058Y4135447D01*
X3004968Y4101478D01*
X3049296Y4083071D01*
X3097293Y4083029D01*
X3141653Y4101358D01*
X3175622Y4135268D01*
X3194029Y4179596D01*
X3194071Y4227594D01*
X3175742Y4271953D01*
X3168650Y4279058D01*
X3168650Y11227608D01*
X3175622Y11234568D01*
X3194029Y11278896D01*
X3194071Y11326893D01*
X3175742Y11371253D01*
X3141832Y11405222D01*
X3097504Y11423629D01*
X3049506Y11423671D01*
X3005147Y11405342D01*
X2971178Y11371432D01*
X2952771Y11327104D01*
X2952729Y11279106D01*
X2971058Y11234747D01*
X2978150Y11227643D01*
X2978150Y6057057D01*
X2951332Y6083922D01*
X2907004Y6102329D01*
X2896966Y6102338D01*
X2889250Y6110054D01*
X2889250Y8903508D01*
X2896222Y8910468D01*
X2914629Y8954796D01*
X2914671Y9002794D01*
X2896342Y9047153D01*
X2862432Y9081122D01*
X2818104Y9099529D01*
X2770107Y9099571D01*
X2750750Y9091573D01*
X2779499Y9134599D01*
X2794000Y9207500D01*
X2794000Y9210004D01*
X2834109Y9270031D01*
X2848610Y9342932D01*
X2848610Y9342932D01*
X2848610Y12479529D01*
X3576404Y13207323D01*
X3617699Y13269126D01*
X3632200Y13342027D01*
X3632200Y13342027D01*
X3632200Y14414500D01*
X6445250Y14414500D01*
X6445250Y13892992D01*
X6438278Y13886032D01*
X6419871Y13841704D01*
X6419829Y13793706D01*
X6438158Y13749347D01*
X6472068Y13715378D01*
X6516396Y13696971D01*
X6564393Y13696929D01*
X6608753Y13715258D01*
X6642722Y13749168D01*
X6661129Y13793496D01*
X6661171Y13841493D01*
X6642842Y13885853D01*
X6635750Y13892957D01*
X6635750Y14414500D01*
X7195123Y14414500D01*
X7185167Y14399601D01*
X7175500Y14351000D01*
X7175500Y13947270D01*
X7136104Y13963629D01*
X7088106Y13963671D01*
X7043747Y13945342D01*
X7009778Y13911432D01*
X6991371Y13867104D01*
X6991329Y13819106D01*
X7009658Y13774747D01*
X7043568Y13740778D01*
X7087896Y13722371D01*
X7096759Y13722363D01*
X7096759Y9784163D01*
X6184780Y8872184D01*
X6164133Y8841283D01*
X6156882Y8804832D01*
X6156882Y8361686D01*
X6120058Y8324862D01*
X6110206Y8324871D01*
X6089671Y8316386D01*
X6089671Y10882394D01*
X6071342Y10926753D01*
X6064250Y10933858D01*
X6064250Y12192000D01*
X6064250Y12370608D01*
X6071222Y12377568D01*
X6089629Y12421896D01*
X6089671Y12469893D01*
X6071342Y12514253D01*
X6037432Y12548222D01*
X5993104Y12566629D01*
X5945106Y12566671D01*
X5930445Y12560613D01*
X5930445Y13761917D01*
X5930445Y13870283D01*
X5917999Y13932851D01*
X5882557Y13985895D01*
X5829514Y14021337D01*
X5766945Y14033783D01*
X5704376Y14021337D01*
X5651333Y13985895D01*
X5615891Y13932851D01*
X5603445Y13870283D01*
X5603445Y13761917D01*
X5615891Y13699349D01*
X5651333Y13646305D01*
X5704376Y13610863D01*
X5766945Y13598417D01*
X5829514Y13610863D01*
X5882557Y13646305D01*
X5917999Y13699349D01*
X5930445Y13761917D01*
X5930445Y12560613D01*
X5900747Y12548342D01*
X5866778Y12514432D01*
X5848371Y12470104D01*
X5848329Y12422106D01*
X5866658Y12377747D01*
X5873750Y12370643D01*
X5873750Y12192000D01*
X5873750Y10933892D01*
X5866778Y10926932D01*
X5848371Y10882604D01*
X5848329Y10834607D01*
X5866658Y10790247D01*
X5900568Y10756278D01*
X5944896Y10737871D01*
X5992893Y10737829D01*
X6037253Y10756158D01*
X6071222Y10790068D01*
X6089629Y10834396D01*
X6089671Y10882394D01*
X6089671Y8316386D01*
X6065847Y8306542D01*
X6031878Y8272632D01*
X6013471Y8228304D01*
X6013462Y8218266D01*
X6011288Y8216092D01*
X6008759Y8214402D01*
X5736548Y7942191D01*
X5715900Y7911290D01*
X5708671Y7874944D01*
X5708671Y10768094D01*
X5690342Y10812453D01*
X5664200Y10838641D01*
X5664200Y12986591D01*
X5690222Y13012568D01*
X5708629Y13056896D01*
X5708671Y13104893D01*
X5690342Y13149253D01*
X5656432Y13183222D01*
X5612104Y13201629D01*
X5564107Y13201671D01*
X5519747Y13183342D01*
X5485778Y13149432D01*
X5467371Y13105104D01*
X5467329Y13057106D01*
X5485658Y13012747D01*
X5511800Y12986559D01*
X5511800Y10838609D01*
X5485778Y10812632D01*
X5467371Y10768304D01*
X5467339Y10731302D01*
X4207510Y9471473D01*
X4207510Y9724306D01*
X4967042Y10483838D01*
X4976894Y10483829D01*
X5021253Y10502158D01*
X5055222Y10536068D01*
X5073629Y10580396D01*
X5073671Y10628394D01*
X5055342Y10672753D01*
X5021432Y10706722D01*
X4977104Y10725129D01*
X4929107Y10725171D01*
X4884747Y10706842D01*
X4850778Y10672932D01*
X4832371Y10628604D01*
X4832362Y10618566D01*
X4430490Y10216694D01*
X4430490Y13761917D01*
X4430490Y13870283D01*
X4418044Y13932851D01*
X4382602Y13985895D01*
X4329559Y14021337D01*
X4266990Y14033783D01*
X4204421Y14021337D01*
X4151378Y13985895D01*
X4115936Y13932851D01*
X4103490Y13870283D01*
X4103490Y13761917D01*
X4115936Y13699349D01*
X4151378Y13646305D01*
X4204421Y13610863D01*
X4266990Y13598417D01*
X4329559Y13610863D01*
X4382602Y13646305D01*
X4418044Y13699349D01*
X4430490Y13761917D01*
X4430490Y10216694D01*
X4044908Y9831112D01*
X4024260Y9800211D01*
X4017010Y9763760D01*
X4017010Y8502662D01*
X3986504Y8515329D01*
X3938506Y8515371D01*
X3894147Y8497042D01*
X3860178Y8463132D01*
X3841771Y8418804D01*
X3841729Y8370806D01*
X3860058Y8326447D01*
X3893968Y8292478D01*
X3938296Y8274071D01*
X3975298Y8274039D01*
X4457700Y7791637D01*
X4457700Y7308009D01*
X4431678Y7282032D01*
X4413271Y7237704D01*
X4413229Y7189706D01*
X4431558Y7145347D01*
X4465468Y7111378D01*
X4509796Y7092971D01*
X4557794Y7092929D01*
X4588510Y7105621D01*
X4588510Y6856814D01*
X4265858Y6534162D01*
X4256007Y6534171D01*
X4211647Y6515842D01*
X4177678Y6481932D01*
X4159271Y6437604D01*
X4159229Y6389606D01*
X4167723Y6369050D01*
X3997400Y6369050D01*
X3997400Y7566937D01*
X3997400Y7675303D01*
X3984954Y7737871D01*
X3949512Y7790915D01*
X3896469Y7826357D01*
X3833900Y7838803D01*
X3771331Y7826357D01*
X3718288Y7790915D01*
X3682846Y7737871D01*
X3670400Y7675303D01*
X3670400Y7566937D01*
X3682846Y7504369D01*
X3718288Y7451325D01*
X3771331Y7415883D01*
X3833900Y7403437D01*
X3896469Y7415883D01*
X3949512Y7451325D01*
X3984954Y7504369D01*
X3997400Y7566937D01*
X3997400Y6369050D01*
X3803650Y6369050D01*
X3774489Y6363249D01*
X3764140Y6356335D01*
X3764140Y6356335D01*
X3722606Y6356371D01*
X3678247Y6338042D01*
X3644278Y6304132D01*
X3625871Y6259804D01*
X3625829Y6211806D01*
X3644158Y6167447D01*
X3678068Y6133478D01*
X3722396Y6115071D01*
X3770393Y6115029D01*
X3814753Y6133358D01*
X3848722Y6167268D01*
X3867129Y6211596D01*
X3867133Y6216650D01*
X4883150Y6216650D01*
X4883150Y6216650D01*
X4912310Y6222450D01*
X4912310Y6222450D01*
X4937031Y6238968D01*
X5603781Y6905718D01*
X5603782Y6905718D01*
X5613683Y6920538D01*
X5620300Y6930439D01*
X5620300Y6930440D01*
X5626100Y6959600D01*
X5626100Y7119191D01*
X5652122Y7145168D01*
X5670529Y7189496D01*
X5670571Y7237493D01*
X5652242Y7281853D01*
X5626100Y7308041D01*
X5626100Y8198691D01*
X5652122Y8224668D01*
X5670529Y8268996D01*
X5670571Y8316993D01*
X5652242Y8361353D01*
X5618332Y8395322D01*
X5574004Y8413729D01*
X5526007Y8413771D01*
X5481647Y8395442D01*
X5447678Y8361532D01*
X5429271Y8317204D01*
X5429229Y8269206D01*
X5447558Y8224847D01*
X5473700Y8198659D01*
X5473700Y7754894D01*
X5449632Y7790915D01*
X5396589Y7826357D01*
X5334020Y7838803D01*
X5271451Y7826357D01*
X5218408Y7790915D01*
X5182966Y7737871D01*
X5170520Y7675303D01*
X5170520Y7566937D01*
X5182966Y7504369D01*
X5218408Y7451325D01*
X5271451Y7415883D01*
X5334020Y7403437D01*
X5396589Y7415883D01*
X5449632Y7451325D01*
X5473700Y7487346D01*
X5473700Y7308009D01*
X5447678Y7282032D01*
X5429271Y7237704D01*
X5429229Y7189706D01*
X5447558Y7145347D01*
X5473700Y7119159D01*
X5473700Y6991163D01*
X5401326Y6918789D01*
X5398242Y6926253D01*
X5364332Y6960222D01*
X5320004Y6978629D01*
X5283002Y6978661D01*
X5130800Y7130863D01*
X5130800Y8168015D01*
X5286282Y8323496D01*
X5286282Y8323496D01*
X5296183Y8338316D01*
X5302800Y8348217D01*
X5302800Y8348217D01*
X5305228Y8360425D01*
X5334622Y8389768D01*
X5353029Y8434096D01*
X5353071Y8482094D01*
X5334742Y8526453D01*
X5308600Y8552641D01*
X5308600Y8909237D01*
X5514882Y9115518D01*
X5514882Y9115519D01*
X5531400Y9140240D01*
X5537200Y9169400D01*
X5537200Y9169400D01*
X5537200Y9481391D01*
X5563222Y9507368D01*
X5581629Y9551696D01*
X5581671Y9599694D01*
X5563342Y9644053D01*
X5529432Y9678022D01*
X5485104Y9696429D01*
X5437107Y9696471D01*
X5392747Y9678142D01*
X5358778Y9644232D01*
X5340371Y9599904D01*
X5340345Y9569445D01*
X5310107Y9569471D01*
X5265747Y9551142D01*
X5231778Y9517232D01*
X5213371Y9472904D01*
X5213339Y9435902D01*
X4670519Y8893082D01*
X4654000Y8868361D01*
X4648200Y8839200D01*
X4648200Y8489109D01*
X4622178Y8463132D01*
X4603771Y8418804D01*
X4603729Y8370806D01*
X4622058Y8326447D01*
X4655968Y8292478D01*
X4700296Y8274071D01*
X4748294Y8274029D01*
X4792653Y8292358D01*
X4826622Y8326268D01*
X4845029Y8370596D01*
X4845071Y8418594D01*
X4826742Y8462953D01*
X4800600Y8489141D01*
X4800600Y8807637D01*
X5321124Y9328161D01*
X5357894Y9328129D01*
X5384800Y9339247D01*
X5384800Y9200963D01*
X5178519Y8994682D01*
X5162000Y8969961D01*
X5156200Y8940800D01*
X5156200Y8552609D01*
X5130178Y8526632D01*
X5111771Y8482304D01*
X5111729Y8434307D01*
X5130058Y8389947D01*
X5133629Y8386370D01*
X5000719Y8253459D01*
X4984200Y8228738D01*
X4978400Y8199578D01*
X4978400Y7099300D01*
X4984200Y7070139D01*
X5000719Y7045418D01*
X5175261Y6870876D01*
X5175229Y6834106D01*
X5193558Y6789747D01*
X5227468Y6755778D01*
X5235132Y6752595D01*
X4851587Y6369050D01*
X4392080Y6369050D01*
X4400529Y6389396D01*
X4400538Y6399434D01*
X4745904Y6744800D01*
X4763796Y6737371D01*
X4811794Y6737329D01*
X4856153Y6755658D01*
X4890122Y6789568D01*
X4908529Y6833896D01*
X4908571Y6881893D01*
X4890242Y6926253D01*
X4864100Y6952441D01*
X4864100Y7823200D01*
X4858300Y7852360D01*
X4858300Y7852360D01*
X4841782Y7877081D01*
X4337039Y8381824D01*
X4337071Y8418594D01*
X4318742Y8462953D01*
X4292600Y8489141D01*
X4292600Y8780456D01*
X4319296Y8769371D01*
X4367294Y8769329D01*
X4411653Y8787658D01*
X4445622Y8821568D01*
X4464029Y8865896D01*
X4464071Y8913894D01*
X4445742Y8958253D01*
X4432300Y8971719D01*
X4432300Y9265491D01*
X4458322Y9291468D01*
X4476729Y9335796D01*
X4476771Y9383794D01*
X4458442Y9428153D01*
X4424532Y9462122D01*
X4416868Y9465305D01*
X5575124Y10623561D01*
X5611893Y10623529D01*
X5656253Y10641858D01*
X5690222Y10675768D01*
X5708629Y10720096D01*
X5708671Y10768094D01*
X5708671Y7874944D01*
X5708650Y7874839D01*
X5708650Y6933392D01*
X5701678Y6926432D01*
X5683271Y6882104D01*
X5683229Y6834106D01*
X5701558Y6789747D01*
X5708650Y6782643D01*
X5708650Y6770454D01*
X3613171Y4674975D01*
X3613171Y7643893D01*
X3594842Y7688253D01*
X3587750Y7695357D01*
X3587750Y11341908D01*
X3594722Y11348868D01*
X3613129Y11393196D01*
X3613171Y11441193D01*
X3594842Y11485553D01*
X3560932Y11519522D01*
X3516604Y11537929D01*
X3468606Y11537971D01*
X3424247Y11519642D01*
X3390278Y11485732D01*
X3371871Y11441404D01*
X3371829Y11393406D01*
X3390158Y11349047D01*
X3397250Y11341943D01*
X3397250Y7695392D01*
X3390278Y7688432D01*
X3371871Y7644104D01*
X3371829Y7596106D01*
X3390158Y7551747D01*
X3424068Y7517778D01*
X3468396Y7499371D01*
X3516393Y7499329D01*
X3560753Y7517658D01*
X3594722Y7551568D01*
X3613129Y7595896D01*
X3613171Y7643893D01*
X3613171Y4674975D01*
X3478458Y4540262D01*
X3468606Y4540271D01*
X3424247Y4521942D01*
X3390278Y4488032D01*
X3371871Y4443704D01*
X3371829Y4395707D01*
X3390158Y4351347D01*
X3397250Y4344243D01*
X3397250Y1472392D01*
X3390278Y1465432D01*
X3371871Y1421104D01*
X3371829Y1373107D01*
X3390158Y1328747D01*
X3424068Y1294778D01*
X3468396Y1276371D01*
X3516393Y1276329D01*
X3560753Y1294658D01*
X3594722Y1328568D01*
X3613129Y1372896D01*
X3613171Y1420893D01*
X3594842Y1465253D01*
X3587750Y1472357D01*
X3587750Y4344208D01*
X3594722Y4351168D01*
X3613129Y4395496D01*
X3613138Y4405534D01*
X5871252Y6663648D01*
X5891899Y6694549D01*
X5899150Y6731000D01*
X5899150Y6782608D01*
X5906122Y6789568D01*
X5924529Y6833896D01*
X5924571Y6881893D01*
X5906242Y6926253D01*
X5899150Y6933357D01*
X5899150Y7835385D01*
X6141773Y8078009D01*
X6144302Y8079698D01*
X6148142Y8083538D01*
X6157993Y8083529D01*
X6202353Y8101858D01*
X6236322Y8135768D01*
X6254729Y8180096D01*
X6254738Y8190134D01*
X6319484Y8254880D01*
X6340132Y8285782D01*
X6347382Y8322232D01*
X6347382Y8765379D01*
X6437085Y8855081D01*
X6450858Y8821747D01*
X6477000Y8795559D01*
X6477000Y5225863D01*
X5791376Y4540239D01*
X5754606Y4540271D01*
X5710247Y4521942D01*
X5676278Y4488032D01*
X5657871Y4443704D01*
X5657829Y4395707D01*
X5676158Y4351347D01*
X5702300Y4325159D01*
X5702300Y1999409D01*
X5683271Y1980413D01*
X5683271Y3833893D01*
X5664942Y3878253D01*
X5631032Y3912222D01*
X5586704Y3930629D01*
X5538707Y3930671D01*
X5499057Y3914288D01*
X5459704Y3930629D01*
X5411707Y3930671D01*
X5367347Y3912342D01*
X5353881Y3898900D01*
X5295900Y3898900D01*
X5261879Y3892133D01*
X5233038Y3872862D01*
X5213767Y3844021D01*
X5207000Y3810000D01*
X5213767Y3775979D01*
X5233038Y3747138D01*
X5261879Y3727867D01*
X5295900Y3721100D01*
X5353869Y3721100D01*
X5367168Y3707778D01*
X5411496Y3689371D01*
X5459494Y3689329D01*
X5499143Y3705712D01*
X5538496Y3689371D01*
X5586494Y3689329D01*
X5630853Y3707658D01*
X5664822Y3741568D01*
X5683229Y3785896D01*
X5683271Y3833893D01*
X5683271Y1980413D01*
X5676278Y1973432D01*
X5657871Y1929104D01*
X5657829Y1881106D01*
X5676158Y1836747D01*
X5710068Y1802778D01*
X5754396Y1784371D01*
X5802393Y1784329D01*
X5846753Y1802658D01*
X5880722Y1836568D01*
X5899129Y1880896D01*
X5899171Y1928893D01*
X5880842Y1973253D01*
X5854700Y1999441D01*
X5854700Y4325191D01*
X5880722Y4351168D01*
X5899129Y4395496D01*
X5899161Y4432498D01*
X6607081Y5140418D01*
X6607081Y5140419D01*
X6623600Y5165140D01*
X6629400Y5194300D01*
X6629400Y5194300D01*
X6629400Y8795591D01*
X6655422Y8821568D01*
X6673829Y8865896D01*
X6673871Y8913894D01*
X6655542Y8958253D01*
X6621632Y8992222D01*
X6588135Y9006132D01*
X7175500Y9593496D01*
X7175500Y4635500D01*
X7175500Y4554678D01*
X7175500Y889000D01*
X7185167Y840399D01*
X7195123Y825500D01*
X7195123Y825500D01*
G37*
X7195123Y825500D02*
X6997640Y825500D01*
X6997640Y7566937D01*
X6997640Y7675303D01*
X6985194Y7737871D01*
X6949752Y7790915D01*
X6896709Y7826357D01*
X6834140Y7838803D01*
X6771571Y7826357D01*
X6718528Y7790915D01*
X6683086Y7737871D01*
X6670640Y7675303D01*
X6670640Y7566937D01*
X6683086Y7504369D01*
X6718528Y7451325D01*
X6771571Y7415883D01*
X6834140Y7403437D01*
X6896709Y7415883D01*
X6949752Y7451325D01*
X6985194Y7504369D01*
X6997640Y7566937D01*
X6997640Y825500D01*
X6915171Y825500D01*
X6915171Y2182894D01*
X6896842Y2227253D01*
X6870700Y2253441D01*
X6870700Y4325191D01*
X6896722Y4351168D01*
X6915129Y4395496D01*
X6915171Y4443494D01*
X6896842Y4487853D01*
X6862932Y4521822D01*
X6818604Y4540229D01*
X6770606Y4540271D01*
X6726247Y4521942D01*
X6692278Y4488032D01*
X6673871Y4443704D01*
X6673829Y4395707D01*
X6692158Y4351347D01*
X6718300Y4325159D01*
X6718300Y2253409D01*
X6692278Y2227432D01*
X6673871Y2183104D01*
X6673829Y2135107D01*
X6692158Y2090747D01*
X6726068Y2056778D01*
X6770396Y2038371D01*
X6818393Y2038329D01*
X6862753Y2056658D01*
X6896722Y2090568D01*
X6915129Y2134896D01*
X6915171Y2182894D01*
X6915171Y825500D01*
X6570860Y825500D01*
X6570860Y1351247D01*
X6570860Y1459613D01*
X6558414Y1522181D01*
X6522972Y1575225D01*
X6469929Y1610667D01*
X6407360Y1623113D01*
X6344791Y1610667D01*
X6291748Y1575225D01*
X6256306Y1522181D01*
X6243860Y1459613D01*
X6243860Y1351247D01*
X6256306Y1288679D01*
X6291748Y1235635D01*
X6344791Y1200193D01*
X6407360Y1187747D01*
X6469929Y1200193D01*
X6522972Y1235635D01*
X6558414Y1288679D01*
X6570860Y1351247D01*
X6570860Y825500D01*
X5070740Y825500D01*
X5070740Y1351247D01*
X5070740Y1459613D01*
X5058294Y1522181D01*
X5022852Y1575225D01*
X4969809Y1610667D01*
X4907240Y1623113D01*
X4844671Y1610667D01*
X4791628Y1575225D01*
X4756186Y1522181D01*
X4743740Y1459613D01*
X4743740Y1351247D01*
X4756186Y1288679D01*
X4791628Y1235635D01*
X4844671Y1200193D01*
X4907240Y1187747D01*
X4969809Y1200193D01*
X5022852Y1235635D01*
X5058294Y1288679D01*
X5070740Y1351247D01*
X5070740Y825500D01*
X4476750Y825500D01*
X4476750Y1316178D01*
X4476750Y1321608D01*
X4483722Y1328568D01*
X4502129Y1372896D01*
X4502171Y1420893D01*
X4483842Y1465253D01*
X4449932Y1499222D01*
X4405604Y1517629D01*
X4357607Y1517671D01*
X4313247Y1499342D01*
X4279278Y1465432D01*
X4260871Y1421104D01*
X4260829Y1373107D01*
X4279158Y1328747D01*
X4286250Y1321643D01*
X4286250Y1316178D01*
X4286250Y825500D01*
X3946430Y825500D01*
X3956385Y840399D01*
X3966052Y889000D01*
X3966052Y2643447D01*
X4407803Y3085197D01*
X4435333Y3126399D01*
X4445000Y3175000D01*
X4435333Y3223601D01*
X4407803Y3264803D01*
X4366601Y3292333D01*
X4318000Y3302000D01*
X4269399Y3292333D01*
X4228198Y3264803D01*
X3749250Y2785855D01*
X3721720Y2744653D01*
X3712052Y2696053D01*
X3712052Y2696052D01*
X3712052Y889000D01*
X3721720Y840399D01*
X3731675Y825500D01*
X3155933Y825500D01*
X3155933Y2962715D01*
X3155933Y3071081D01*
X3143487Y3133649D01*
X3108045Y3186693D01*
X3055002Y3222135D01*
X2992433Y3234581D01*
X2929864Y3222135D01*
X2894455Y3198475D01*
X2894455Y4445622D01*
X2894455Y4553988D01*
X2882009Y4616556D01*
X2846567Y4669600D01*
X2793524Y4705042D01*
X2730955Y4717488D01*
X2668386Y4705042D01*
X2632978Y4681383D01*
X2632978Y5928530D01*
X2632978Y6036896D01*
X2620532Y6099464D01*
X2585090Y6152508D01*
X2532047Y6187950D01*
X2508271Y6192679D01*
X2508271Y7008893D01*
X2491888Y7048543D01*
X2508229Y7087896D01*
X2508271Y7135893D01*
X2489942Y7180253D01*
X2476500Y7193719D01*
X2476500Y7239000D01*
X2469733Y7273021D01*
X2450462Y7301862D01*
X2421621Y7321133D01*
X2387600Y7327900D01*
X2353579Y7321133D01*
X2324738Y7301862D01*
X2305467Y7273021D01*
X2298700Y7239000D01*
X2298700Y7193731D01*
X2285378Y7180432D01*
X2266971Y7136104D01*
X2266929Y7088106D01*
X2283312Y7048457D01*
X2266971Y7009104D01*
X2266929Y6961106D01*
X2285258Y6916746D01*
X2319168Y6882777D01*
X2363496Y6864371D01*
X2411494Y6864329D01*
X2455854Y6882658D01*
X2489823Y6916568D01*
X2508229Y6960896D01*
X2508271Y7008893D01*
X2508271Y6192679D01*
X2469478Y6200396D01*
X2406909Y6187950D01*
X2353866Y6152508D01*
X2318424Y6099464D01*
X2305978Y6036896D01*
X2305978Y5928530D01*
X2318424Y5865962D01*
X2353866Y5812918D01*
X2406909Y5777476D01*
X2469478Y5765030D01*
X2532047Y5777476D01*
X2585090Y5812918D01*
X2620532Y5865962D01*
X2632978Y5928530D01*
X2632978Y4681383D01*
X2615343Y4669600D01*
X2579901Y4616556D01*
X2567455Y4553988D01*
X2567455Y4445622D01*
X2579901Y4383054D01*
X2615343Y4330010D01*
X2668386Y4294568D01*
X2730955Y4282122D01*
X2793524Y4294568D01*
X2846567Y4330010D01*
X2882009Y4383054D01*
X2894455Y4445622D01*
X2894455Y3198475D01*
X2876821Y3186693D01*
X2841379Y3133649D01*
X2828933Y3071081D01*
X2828933Y2962715D01*
X2841379Y2900147D01*
X2876821Y2847103D01*
X2929864Y2811661D01*
X2992433Y2799215D01*
X3055002Y2811661D01*
X3108045Y2847103D01*
X3143487Y2900147D01*
X3155933Y2962715D01*
X3155933Y825500D01*
X2413000Y825500D01*
X2413000Y985978D01*
X2413000Y4381500D01*
X2398499Y4454401D01*
X2357204Y4516204D01*
X2095500Y4777908D01*
X2095500Y6328863D01*
X2095500Y8430092D01*
X2676893Y9011485D01*
X2673371Y9003004D01*
X2673329Y8955007D01*
X2691658Y8910647D01*
X2698750Y8903543D01*
X2698750Y6070600D01*
X2706001Y6034149D01*
X2726648Y6003248D01*
X2762238Y5967658D01*
X2762229Y5957806D01*
X2780558Y5913447D01*
X2814468Y5879478D01*
X2858796Y5861071D01*
X2906793Y5861029D01*
X2951153Y5879358D01*
X2978150Y5906308D01*
X2978150Y4279092D01*
X2971178Y4272132D01*
X2952771Y4227804D01*
X2952729Y4179806D01*
X2971058Y4135447D01*
X3004968Y4101478D01*
X3049296Y4083071D01*
X3097293Y4083029D01*
X3141653Y4101358D01*
X3175622Y4135268D01*
X3194029Y4179596D01*
X3194071Y4227594D01*
X3175742Y4271953D01*
X3168650Y4279058D01*
X3168650Y11227608D01*
X3175622Y11234568D01*
X3194029Y11278896D01*
X3194071Y11326893D01*
X3175742Y11371253D01*
X3141832Y11405222D01*
X3097504Y11423629D01*
X3049506Y11423671D01*
X3005147Y11405342D01*
X2971178Y11371432D01*
X2952771Y11327104D01*
X2952729Y11279106D01*
X2971058Y11234747D01*
X2978150Y11227643D01*
X2978150Y6057057D01*
X2951332Y6083922D01*
X2907004Y6102329D01*
X2896966Y6102338D01*
X2889250Y6110054D01*
X2889250Y8903508D01*
X2896222Y8910468D01*
X2914629Y8954796D01*
X2914671Y9002794D01*
X2896342Y9047153D01*
X2862432Y9081122D01*
X2818104Y9099529D01*
X2770107Y9099571D01*
X2750750Y9091573D01*
X2779499Y9134599D01*
X2794000Y9207500D01*
X2794000Y9210004D01*
X2834109Y9270031D01*
X2848610Y9342932D01*
X2848610Y9342932D01*
X2848610Y12479529D01*
X3576404Y13207323D01*
X3617699Y13269126D01*
X3632200Y13342027D01*
X3632200Y13342027D01*
X3632200Y14414500D01*
X6445250Y14414500D01*
X6445250Y13892992D01*
X6438278Y13886032D01*
X6419871Y13841704D01*
X6419829Y13793706D01*
X6438158Y13749347D01*
X6472068Y13715378D01*
X6516396Y13696971D01*
X6564393Y13696929D01*
X6608753Y13715258D01*
X6642722Y13749168D01*
X6661129Y13793496D01*
X6661171Y13841493D01*
X6642842Y13885853D01*
X6635750Y13892957D01*
X6635750Y14414500D01*
X7195123Y14414500D01*
X7185167Y14399601D01*
X7175500Y14351000D01*
X7175500Y13947270D01*
X7136104Y13963629D01*
X7088106Y13963671D01*
X7043747Y13945342D01*
X7009778Y13911432D01*
X6991371Y13867104D01*
X6991329Y13819106D01*
X7009658Y13774747D01*
X7043568Y13740778D01*
X7087896Y13722371D01*
X7096759Y13722363D01*
X7096759Y9784163D01*
X6184780Y8872184D01*
X6164133Y8841283D01*
X6156882Y8804832D01*
X6156882Y8361686D01*
X6120058Y8324862D01*
X6110206Y8324871D01*
X6089671Y8316386D01*
X6089671Y10882394D01*
X6071342Y10926753D01*
X6064250Y10933858D01*
X6064250Y12192000D01*
X6064250Y12370608D01*
X6071222Y12377568D01*
X6089629Y12421896D01*
X6089671Y12469893D01*
X6071342Y12514253D01*
X6037432Y12548222D01*
X5993104Y12566629D01*
X5945106Y12566671D01*
X5930445Y12560613D01*
X5930445Y13761917D01*
X5930445Y13870283D01*
X5917999Y13932851D01*
X5882557Y13985895D01*
X5829514Y14021337D01*
X5766945Y14033783D01*
X5704376Y14021337D01*
X5651333Y13985895D01*
X5615891Y13932851D01*
X5603445Y13870283D01*
X5603445Y13761917D01*
X5615891Y13699349D01*
X5651333Y13646305D01*
X5704376Y13610863D01*
X5766945Y13598417D01*
X5829514Y13610863D01*
X5882557Y13646305D01*
X5917999Y13699349D01*
X5930445Y13761917D01*
X5930445Y12560613D01*
X5900747Y12548342D01*
X5866778Y12514432D01*
X5848371Y12470104D01*
X5848329Y12422106D01*
X5866658Y12377747D01*
X5873750Y12370643D01*
X5873750Y12192000D01*
X5873750Y10933892D01*
X5866778Y10926932D01*
X5848371Y10882604D01*
X5848329Y10834607D01*
X5866658Y10790247D01*
X5900568Y10756278D01*
X5944896Y10737871D01*
X5992893Y10737829D01*
X6037253Y10756158D01*
X6071222Y10790068D01*
X6089629Y10834396D01*
X6089671Y10882394D01*
X6089671Y8316386D01*
X6065847Y8306542D01*
X6031878Y8272632D01*
X6013471Y8228304D01*
X6013462Y8218266D01*
X6011288Y8216092D01*
X6008759Y8214402D01*
X5736548Y7942191D01*
X5715900Y7911290D01*
X5708671Y7874944D01*
X5708671Y10768094D01*
X5690342Y10812453D01*
X5664200Y10838641D01*
X5664200Y12986591D01*
X5690222Y13012568D01*
X5708629Y13056896D01*
X5708671Y13104893D01*
X5690342Y13149253D01*
X5656432Y13183222D01*
X5612104Y13201629D01*
X5564107Y13201671D01*
X5519747Y13183342D01*
X5485778Y13149432D01*
X5467371Y13105104D01*
X5467329Y13057106D01*
X5485658Y13012747D01*
X5511800Y12986559D01*
X5511800Y10838609D01*
X5485778Y10812632D01*
X5467371Y10768304D01*
X5467339Y10731302D01*
X4207510Y9471473D01*
X4207510Y9724306D01*
X4967042Y10483838D01*
X4976894Y10483829D01*
X5021253Y10502158D01*
X5055222Y10536068D01*
X5073629Y10580396D01*
X5073671Y10628394D01*
X5055342Y10672753D01*
X5021432Y10706722D01*
X4977104Y10725129D01*
X4929107Y10725171D01*
X4884747Y10706842D01*
X4850778Y10672932D01*
X4832371Y10628604D01*
X4832362Y10618566D01*
X4430490Y10216694D01*
X4430490Y13761917D01*
X4430490Y13870283D01*
X4418044Y13932851D01*
X4382602Y13985895D01*
X4329559Y14021337D01*
X4266990Y14033783D01*
X4204421Y14021337D01*
X4151378Y13985895D01*
X4115936Y13932851D01*
X4103490Y13870283D01*
X4103490Y13761917D01*
X4115936Y13699349D01*
X4151378Y13646305D01*
X4204421Y13610863D01*
X4266990Y13598417D01*
X4329559Y13610863D01*
X4382602Y13646305D01*
X4418044Y13699349D01*
X4430490Y13761917D01*
X4430490Y10216694D01*
X4044908Y9831112D01*
X4024260Y9800211D01*
X4017010Y9763760D01*
X4017010Y8502662D01*
X3986504Y8515329D01*
X3938506Y8515371D01*
X3894147Y8497042D01*
X3860178Y8463132D01*
X3841771Y8418804D01*
X3841729Y8370806D01*
X3860058Y8326447D01*
X3893968Y8292478D01*
X3938296Y8274071D01*
X3975298Y8274039D01*
X4457700Y7791637D01*
X4457700Y7308009D01*
X4431678Y7282032D01*
X4413271Y7237704D01*
X4413229Y7189706D01*
X4431558Y7145347D01*
X4465468Y7111378D01*
X4509796Y7092971D01*
X4557794Y7092929D01*
X4588510Y7105621D01*
X4588510Y6856814D01*
X4265858Y6534162D01*
X4256007Y6534171D01*
X4211647Y6515842D01*
X4177678Y6481932D01*
X4159271Y6437604D01*
X4159229Y6389606D01*
X4167723Y6369050D01*
X3997400Y6369050D01*
X3997400Y7566937D01*
X3997400Y7675303D01*
X3984954Y7737871D01*
X3949512Y7790915D01*
X3896469Y7826357D01*
X3833900Y7838803D01*
X3771331Y7826357D01*
X3718288Y7790915D01*
X3682846Y7737871D01*
X3670400Y7675303D01*
X3670400Y7566937D01*
X3682846Y7504369D01*
X3718288Y7451325D01*
X3771331Y7415883D01*
X3833900Y7403437D01*
X3896469Y7415883D01*
X3949512Y7451325D01*
X3984954Y7504369D01*
X3997400Y7566937D01*
X3997400Y6369050D01*
X3803650Y6369050D01*
X3774489Y6363249D01*
X3764140Y6356335D01*
X3764140Y6356335D01*
X3722606Y6356371D01*
X3678247Y6338042D01*
X3644278Y6304132D01*
X3625871Y6259804D01*
X3625829Y6211806D01*
X3644158Y6167447D01*
X3678068Y6133478D01*
X3722396Y6115071D01*
X3770393Y6115029D01*
X3814753Y6133358D01*
X3848722Y6167268D01*
X3867129Y6211596D01*
X3867133Y6216650D01*
X4883150Y6216650D01*
X4883150Y6216650D01*
X4912310Y6222450D01*
X4912310Y6222450D01*
X4937031Y6238968D01*
X5603781Y6905718D01*
X5603782Y6905718D01*
X5613683Y6920538D01*
X5620300Y6930439D01*
X5620300Y6930440D01*
X5626100Y6959600D01*
X5626100Y7119191D01*
X5652122Y7145168D01*
X5670529Y7189496D01*
X5670571Y7237493D01*
X5652242Y7281853D01*
X5626100Y7308041D01*
X5626100Y8198691D01*
X5652122Y8224668D01*
X5670529Y8268996D01*
X5670571Y8316993D01*
X5652242Y8361353D01*
X5618332Y8395322D01*
X5574004Y8413729D01*
X5526007Y8413771D01*
X5481647Y8395442D01*
X5447678Y8361532D01*
X5429271Y8317204D01*
X5429229Y8269206D01*
X5447558Y8224847D01*
X5473700Y8198659D01*
X5473700Y7754894D01*
X5449632Y7790915D01*
X5396589Y7826357D01*
X5334020Y7838803D01*
X5271451Y7826357D01*
X5218408Y7790915D01*
X5182966Y7737871D01*
X5170520Y7675303D01*
X5170520Y7566937D01*
X5182966Y7504369D01*
X5218408Y7451325D01*
X5271451Y7415883D01*
X5334020Y7403437D01*
X5396589Y7415883D01*
X5449632Y7451325D01*
X5473700Y7487346D01*
X5473700Y7308009D01*
X5447678Y7282032D01*
X5429271Y7237704D01*
X5429229Y7189706D01*
X5447558Y7145347D01*
X5473700Y7119159D01*
X5473700Y6991163D01*
X5401326Y6918789D01*
X5398242Y6926253D01*
X5364332Y6960222D01*
X5320004Y6978629D01*
X5283002Y6978661D01*
X5130800Y7130863D01*
X5130800Y8168015D01*
X5286282Y8323496D01*
X5286282Y8323496D01*
X5296183Y8338316D01*
X5302800Y8348217D01*
X5302800Y8348217D01*
X5305228Y8360425D01*
X5334622Y8389768D01*
X5353029Y8434096D01*
X5353071Y8482094D01*
X5334742Y8526453D01*
X5308600Y8552641D01*
X5308600Y8909237D01*
X5514882Y9115518D01*
X5514882Y9115519D01*
X5531400Y9140240D01*
X5537200Y9169400D01*
X5537200Y9169400D01*
X5537200Y9481391D01*
X5563222Y9507368D01*
X5581629Y9551696D01*
X5581671Y9599694D01*
X5563342Y9644053D01*
X5529432Y9678022D01*
X5485104Y9696429D01*
X5437107Y9696471D01*
X5392747Y9678142D01*
X5358778Y9644232D01*
X5340371Y9599904D01*
X5340345Y9569445D01*
X5310107Y9569471D01*
X5265747Y9551142D01*
X5231778Y9517232D01*
X5213371Y9472904D01*
X5213339Y9435902D01*
X4670519Y8893082D01*
X4654000Y8868361D01*
X4648200Y8839200D01*
X4648200Y8489109D01*
X4622178Y8463132D01*
X4603771Y8418804D01*
X4603729Y8370806D01*
X4622058Y8326447D01*
X4655968Y8292478D01*
X4700296Y8274071D01*
X4748294Y8274029D01*
X4792653Y8292358D01*
X4826622Y8326268D01*
X4845029Y8370596D01*
X4845071Y8418594D01*
X4826742Y8462953D01*
X4800600Y8489141D01*
X4800600Y8807637D01*
X5321124Y9328161D01*
X5357894Y9328129D01*
X5384800Y9339247D01*
X5384800Y9200963D01*
X5178519Y8994682D01*
X5162000Y8969961D01*
X5156200Y8940800D01*
X5156200Y8552609D01*
X5130178Y8526632D01*
X5111771Y8482304D01*
X5111729Y8434307D01*
X5130058Y8389947D01*
X5133629Y8386370D01*
X5000719Y8253459D01*
X4984200Y8228738D01*
X4978400Y8199578D01*
X4978400Y7099300D01*
X4984200Y7070139D01*
X5000719Y7045418D01*
X5175261Y6870876D01*
X5175229Y6834106D01*
X5193558Y6789747D01*
X5227468Y6755778D01*
X5235132Y6752595D01*
X4851587Y6369050D01*
X4392080Y6369050D01*
X4400529Y6389396D01*
X4400538Y6399434D01*
X4745904Y6744800D01*
X4763796Y6737371D01*
X4811794Y6737329D01*
X4856153Y6755658D01*
X4890122Y6789568D01*
X4908529Y6833896D01*
X4908571Y6881893D01*
X4890242Y6926253D01*
X4864100Y6952441D01*
X4864100Y7823200D01*
X4858300Y7852360D01*
X4858300Y7852360D01*
X4841782Y7877081D01*
X4337039Y8381824D01*
X4337071Y8418594D01*
X4318742Y8462953D01*
X4292600Y8489141D01*
X4292600Y8780456D01*
X4319296Y8769371D01*
X4367294Y8769329D01*
X4411653Y8787658D01*
X4445622Y8821568D01*
X4464029Y8865896D01*
X4464071Y8913894D01*
X4445742Y8958253D01*
X4432300Y8971719D01*
X4432300Y9265491D01*
X4458322Y9291468D01*
X4476729Y9335796D01*
X4476771Y9383794D01*
X4458442Y9428153D01*
X4424532Y9462122D01*
X4416868Y9465305D01*
X5575124Y10623561D01*
X5611893Y10623529D01*
X5656253Y10641858D01*
X5690222Y10675768D01*
X5708629Y10720096D01*
X5708671Y10768094D01*
X5708671Y7874944D01*
X5708650Y7874839D01*
X5708650Y6933392D01*
X5701678Y6926432D01*
X5683271Y6882104D01*
X5683229Y6834106D01*
X5701558Y6789747D01*
X5708650Y6782643D01*
X5708650Y6770454D01*
X3613171Y4674975D01*
X3613171Y7643893D01*
X3594842Y7688253D01*
X3587750Y7695357D01*
X3587750Y11341908D01*
X3594722Y11348868D01*
X3613129Y11393196D01*
X3613171Y11441193D01*
X3594842Y11485553D01*
X3560932Y11519522D01*
X3516604Y11537929D01*
X3468606Y11537971D01*
X3424247Y11519642D01*
X3390278Y11485732D01*
X3371871Y11441404D01*
X3371829Y11393406D01*
X3390158Y11349047D01*
X3397250Y11341943D01*
X3397250Y7695392D01*
X3390278Y7688432D01*
X3371871Y7644104D01*
X3371829Y7596106D01*
X3390158Y7551747D01*
X3424068Y7517778D01*
X3468396Y7499371D01*
X3516393Y7499329D01*
X3560753Y7517658D01*
X3594722Y7551568D01*
X3613129Y7595896D01*
X3613171Y7643893D01*
X3613171Y4674975D01*
X3478458Y4540262D01*
X3468606Y4540271D01*
X3424247Y4521942D01*
X3390278Y4488032D01*
X3371871Y4443704D01*
X3371829Y4395707D01*
X3390158Y4351347D01*
X3397250Y4344243D01*
X3397250Y1472392D01*
X3390278Y1465432D01*
X3371871Y1421104D01*
X3371829Y1373107D01*
X3390158Y1328747D01*
X3424068Y1294778D01*
X3468396Y1276371D01*
X3516393Y1276329D01*
X3560753Y1294658D01*
X3594722Y1328568D01*
X3613129Y1372896D01*
X3613171Y1420893D01*
X3594842Y1465253D01*
X3587750Y1472357D01*
X3587750Y4344208D01*
X3594722Y4351168D01*
X3613129Y4395496D01*
X3613138Y4405534D01*
X5871252Y6663648D01*
X5891899Y6694549D01*
X5899150Y6731000D01*
X5899150Y6782608D01*
X5906122Y6789568D01*
X5924529Y6833896D01*
X5924571Y6881893D01*
X5906242Y6926253D01*
X5899150Y6933357D01*
X5899150Y7835385D01*
X6141773Y8078009D01*
X6144302Y8079698D01*
X6148142Y8083538D01*
X6157993Y8083529D01*
X6202353Y8101858D01*
X6236322Y8135768D01*
X6254729Y8180096D01*
X6254738Y8190134D01*
X6319484Y8254880D01*
X6340132Y8285782D01*
X6347382Y8322232D01*
X6347382Y8765379D01*
X6437085Y8855081D01*
X6450858Y8821747D01*
X6477000Y8795559D01*
X6477000Y5225863D01*
X5791376Y4540239D01*
X5754606Y4540271D01*
X5710247Y4521942D01*
X5676278Y4488032D01*
X5657871Y4443704D01*
X5657829Y4395707D01*
X5676158Y4351347D01*
X5702300Y4325159D01*
X5702300Y1999409D01*
X5683271Y1980413D01*
X5683271Y3833893D01*
X5664942Y3878253D01*
X5631032Y3912222D01*
X5586704Y3930629D01*
X5538707Y3930671D01*
X5499057Y3914288D01*
X5459704Y3930629D01*
X5411707Y3930671D01*
X5367347Y3912342D01*
X5353881Y3898900D01*
X5295900Y3898900D01*
X5261879Y3892133D01*
X5233038Y3872862D01*
X5213767Y3844021D01*
X5207000Y3810000D01*
X5213767Y3775979D01*
X5233038Y3747138D01*
X5261879Y3727867D01*
X5295900Y3721100D01*
X5353869Y3721100D01*
X5367168Y3707778D01*
X5411496Y3689371D01*
X5459494Y3689329D01*
X5499143Y3705712D01*
X5538496Y3689371D01*
X5586494Y3689329D01*
X5630853Y3707658D01*
X5664822Y3741568D01*
X5683229Y3785896D01*
X5683271Y3833893D01*
X5683271Y1980413D01*
X5676278Y1973432D01*
X5657871Y1929104D01*
X5657829Y1881106D01*
X5676158Y1836747D01*
X5710068Y1802778D01*
X5754396Y1784371D01*
X5802393Y1784329D01*
X5846753Y1802658D01*
X5880722Y1836568D01*
X5899129Y1880896D01*
X5899171Y1928893D01*
X5880842Y1973253D01*
X5854700Y1999441D01*
X5854700Y4325191D01*
X5880722Y4351168D01*
X5899129Y4395496D01*
X5899161Y4432498D01*
X6607081Y5140418D01*
X6607081Y5140419D01*
X6623600Y5165140D01*
X6629400Y5194300D01*
X6629400Y5194300D01*
X6629400Y8795591D01*
X6655422Y8821568D01*
X6673829Y8865896D01*
X6673871Y8913894D01*
X6655542Y8958253D01*
X6621632Y8992222D01*
X6588135Y9006132D01*
X7175500Y9593496D01*
X7175500Y4635500D01*
X7175500Y4554678D01*
X7175500Y889000D01*
X7185167Y840399D01*
X7195123Y825500D01*
G36*
X9099550Y12268338D02*
X8997812Y12370075D01*
X8997812Y12701227D01*
X8890000Y12809039D01*
X8872040Y12791079D01*
X8872040Y12827000D01*
X8764227Y12934812D01*
X8725734Y12930648D01*
X8698574Y12859896D01*
X8700556Y12784137D01*
X8725734Y12723352D01*
X8764227Y12719188D01*
X8872040Y12827000D01*
X8872040Y12791079D01*
X8782188Y12701227D01*
X8786352Y12662734D01*
X8857104Y12635574D01*
X8932863Y12637556D01*
X8993648Y12662734D01*
X8997812Y12701227D01*
X8997812Y12370075D01*
X8652509Y12715379D01*
X8652509Y12962805D01*
X8750282Y13060578D01*
X8750276Y13053334D01*
X8771499Y13001970D01*
X8785945Y12987499D01*
X8782188Y12952773D01*
X8890000Y12844960D01*
X8891414Y12846375D01*
X8909375Y12828414D01*
X8907961Y12827000D01*
X9015773Y12719188D01*
X9054266Y12723352D01*
X9070543Y12765753D01*
X9099550Y12736746D01*
X9099550Y12268338D01*
X9099550Y12268338D01*
G37*
X9099550Y12268338D02*
X8997812Y12370075D01*
X8997812Y12701227D01*
X8890000Y12809039D01*
X8872040Y12791079D01*
X8872040Y12827000D01*
X8764227Y12934812D01*
X8725734Y12930648D01*
X8698574Y12859896D01*
X8700556Y12784137D01*
X8725734Y12723352D01*
X8764227Y12719188D01*
X8872040Y12827000D01*
X8872040Y12791079D01*
X8782188Y12701227D01*
X8786352Y12662734D01*
X8857104Y12635574D01*
X8932863Y12637556D01*
X8993648Y12662734D01*
X8997812Y12701227D01*
X8997812Y12370075D01*
X8652509Y12715379D01*
X8652509Y12962805D01*
X8750282Y13060578D01*
X8750276Y13053334D01*
X8771499Y13001970D01*
X8785945Y12987499D01*
X8782188Y12952773D01*
X8890000Y12844960D01*
X8891414Y12846375D01*
X8909375Y12828414D01*
X8907961Y12827000D01*
X9015773Y12719188D01*
X9054266Y12723352D01*
X9070543Y12765753D01*
X9099550Y12736746D01*
X9099550Y12268338D01*
G36*
X10599500Y68500D02*
X10386524Y68500D01*
X10386524Y3898966D01*
X10386524Y11518966D01*
X10315900Y11696082D01*
X10308690Y11706873D01*
X10240207Y11746246D01*
X10222246Y11728286D01*
X10222246Y11764207D01*
X10182873Y11832690D01*
X10007695Y11907992D01*
X9817034Y11910524D01*
X9639918Y11839900D01*
X9629127Y11832690D01*
X9589754Y11764207D01*
X9906000Y11447960D01*
X10222246Y11764207D01*
X10222246Y11728286D01*
X9923961Y11430000D01*
X10240207Y11113754D01*
X10308690Y11153127D01*
X10383992Y11328305D01*
X10386524Y11518966D01*
X10386524Y3898966D01*
X10315900Y4076082D01*
X10308690Y4086873D01*
X10240207Y4126246D01*
X10222246Y4108286D01*
X10222246Y4144207D01*
X10222246Y11095793D01*
X9906000Y11412039D01*
X9888040Y11394079D01*
X9888040Y11430000D01*
X9571793Y11746246D01*
X9503310Y11706873D01*
X9428008Y11531695D01*
X9425476Y11341034D01*
X9496100Y11163918D01*
X9503310Y11153127D01*
X9571793Y11113754D01*
X9888040Y11430000D01*
X9888040Y11394079D01*
X9589754Y11095793D01*
X9629127Y11027310D01*
X9804305Y10952008D01*
X9994966Y10949476D01*
X10172082Y11020100D01*
X10182873Y11027310D01*
X10222246Y11095793D01*
X10222246Y4144207D01*
X10182873Y4212690D01*
X10007695Y4287992D01*
X9817034Y4290524D01*
X9639918Y4219900D01*
X9629127Y4212690D01*
X9589754Y4144207D01*
X9906000Y3827960D01*
X10222246Y4144207D01*
X10222246Y4108286D01*
X9923961Y3810000D01*
X10240207Y3493754D01*
X10308690Y3533127D01*
X10383992Y3708305D01*
X10386524Y3898966D01*
X10386524Y68500D01*
X10222246Y68500D01*
X10222246Y3475793D01*
X9906000Y3792039D01*
X9888040Y3774079D01*
X9888040Y3810000D01*
X9571793Y4126246D01*
X9503310Y4086873D01*
X9428008Y3911695D01*
X9425476Y3721034D01*
X9496100Y3543918D01*
X9503310Y3533127D01*
X9571793Y3493754D01*
X9888040Y3810000D01*
X9888040Y3774079D01*
X9589754Y3475793D01*
X9629127Y3407310D01*
X9804305Y3332008D01*
X9994966Y3329476D01*
X10172082Y3400100D01*
X10182873Y3407310D01*
X10222246Y3475793D01*
X10222246Y68500D01*
X9435403Y68500D01*
X9435403Y2989655D01*
X9435403Y3098021D01*
X9422957Y3160589D01*
X9387515Y3213633D01*
X9334472Y3249075D01*
X9321800Y3251596D01*
X9321800Y14617700D01*
X9307299Y14690601D01*
X9266004Y14752404D01*
X9204201Y14793699D01*
X9131300Y14808200D01*
X9050478Y14808200D01*
X8902700Y14808200D01*
X8838853Y14795500D01*
X7611888Y14795500D01*
X6540500Y14795500D01*
X3441700Y14795500D01*
X3368799Y14780999D01*
X3306996Y14739704D01*
X3265701Y14677901D01*
X3251200Y14605000D01*
X3251200Y13420935D01*
X2930535Y13100270D01*
X2930535Y13761917D01*
X2930535Y13870283D01*
X2918089Y13932851D01*
X2882647Y13985895D01*
X2829604Y14021337D01*
X2767035Y14033783D01*
X2704466Y14021337D01*
X2651423Y13985895D01*
X2615981Y13932851D01*
X2603535Y13870283D01*
X2603535Y13761917D01*
X2615981Y13699349D01*
X2651423Y13646305D01*
X2704466Y13610863D01*
X2767035Y13598417D01*
X2829604Y13610863D01*
X2882647Y13646305D01*
X2918089Y13699349D01*
X2930535Y13761917D01*
X2930535Y13100270D01*
X2523406Y12693141D01*
X2508250Y12670458D01*
X2508250Y13640608D01*
X2515223Y13647568D01*
X2533629Y13691896D01*
X2533671Y13739893D01*
X2515342Y13784253D01*
X2481432Y13818222D01*
X2437104Y13836629D01*
X2389107Y13836671D01*
X2344747Y13818342D01*
X2310778Y13784432D01*
X2292371Y13740104D01*
X2292329Y13692106D01*
X2310658Y13647746D01*
X2317750Y13640642D01*
X2317750Y9943292D01*
X2310778Y9936332D01*
X2292371Y9892004D01*
X2292329Y9844007D01*
X2310658Y9799647D01*
X2344568Y9765678D01*
X2388896Y9747271D01*
X2436894Y9747229D01*
X2467610Y9759921D01*
X2467610Y9421251D01*
X2427501Y9361224D01*
X2413000Y9288322D01*
X2413000Y9286408D01*
X2266971Y9140379D01*
X2266971Y11453893D01*
X2248642Y11498253D01*
X2241550Y11505357D01*
X2241550Y12542978D01*
X2241550Y12548408D01*
X2248522Y12555368D01*
X2266929Y12599696D01*
X2266971Y12647693D01*
X2248642Y12692053D01*
X2241550Y12699157D01*
X2241550Y13474700D01*
X2234300Y13511150D01*
X2234300Y13511151D01*
X2226029Y13523528D01*
X2213652Y13542052D01*
X1917696Y13838008D01*
X1917724Y13870666D01*
X1896501Y13922030D01*
X1857237Y13961363D01*
X1836449Y13969995D01*
X1857030Y13978499D01*
X1896363Y14017763D01*
X1917676Y14069090D01*
X1917724Y14124666D01*
X1896501Y14176030D01*
X1857237Y14215363D01*
X1836449Y14223995D01*
X1857030Y14232499D01*
X1896363Y14271763D01*
X1917676Y14323090D01*
X1917724Y14378666D01*
X1896501Y14430030D01*
X1857237Y14469363D01*
X1836449Y14477995D01*
X1857030Y14486499D01*
X1896363Y14525763D01*
X1917676Y14577090D01*
X1917724Y14632666D01*
X1896501Y14684030D01*
X1857237Y14723363D01*
X1805910Y14744676D01*
X1750334Y14744724D01*
X1698970Y14723501D01*
X1659637Y14684237D01*
X1638324Y14632910D01*
X1638276Y14577334D01*
X1659499Y14525970D01*
X1698763Y14486637D01*
X1719551Y14478005D01*
X1698970Y14469501D01*
X1659637Y14430237D01*
X1638324Y14378910D01*
X1638276Y14323334D01*
X1659499Y14271970D01*
X1698763Y14232637D01*
X1719551Y14224005D01*
X1698970Y14215501D01*
X1659637Y14176237D01*
X1638324Y14124910D01*
X1638276Y14069334D01*
X1659499Y14017970D01*
X1698763Y13978637D01*
X1719551Y13970005D01*
X1698970Y13961501D01*
X1659637Y13922237D01*
X1638324Y13870910D01*
X1638276Y13815334D01*
X1659499Y13763970D01*
X1698763Y13724637D01*
X1719551Y13716005D01*
X1698970Y13707501D01*
X1659637Y13668237D01*
X1638324Y13616910D01*
X1638276Y13561334D01*
X1659499Y13509970D01*
X1698763Y13470637D01*
X1719551Y13462005D01*
X1698970Y13453501D01*
X1659637Y13414237D01*
X1638324Y13362910D01*
X1638276Y13307334D01*
X1659499Y13255970D01*
X1698763Y13216637D01*
X1719551Y13208005D01*
X1698970Y13199501D01*
X1659637Y13160237D01*
X1638324Y13108910D01*
X1638276Y13053334D01*
X1656879Y13008311D01*
X1637054Y13000099D01*
X1604901Y12967946D01*
X1587500Y12925936D01*
X1587500Y12868275D01*
X1616075Y12839700D01*
X1765300Y12839700D01*
X1765300Y12841700D01*
X1790700Y12841700D01*
X1790700Y12839700D01*
X1939925Y12839700D01*
X1968500Y12868275D01*
X1968500Y12925936D01*
X1951099Y12967946D01*
X1918946Y13000099D01*
X1899087Y13008324D01*
X1917676Y13053090D01*
X1917724Y13108666D01*
X1896501Y13160030D01*
X1857237Y13199363D01*
X1836449Y13207995D01*
X1857030Y13216499D01*
X1896363Y13255763D01*
X1917676Y13307090D01*
X1917724Y13362666D01*
X1896501Y13414030D01*
X1857237Y13453363D01*
X1836449Y13461995D01*
X1857030Y13470499D01*
X1896363Y13509763D01*
X1917676Y13561090D01*
X1917682Y13568614D01*
X2051050Y13435246D01*
X2051050Y12699192D01*
X2044078Y12692232D01*
X2025671Y12647904D01*
X2025629Y12599906D01*
X2043958Y12555547D01*
X2051050Y12548443D01*
X2051050Y12542978D01*
X2051050Y11505392D01*
X2044078Y11498432D01*
X2025671Y11454104D01*
X2025629Y11406106D01*
X2043958Y11361747D01*
X2077868Y11327778D01*
X2122196Y11309371D01*
X2170194Y11309329D01*
X2214553Y11327658D01*
X2248522Y11361568D01*
X2266929Y11405896D01*
X2266971Y11453893D01*
X2266971Y9140379D01*
X2083605Y8957013D01*
X2083605Y9172652D01*
X2083605Y9281018D01*
X2071159Y9343586D01*
X2035717Y9396630D01*
X1982674Y9432072D01*
X1968500Y9434891D01*
X1968500Y12728064D01*
X1968500Y12785725D01*
X1939925Y12814300D01*
X1790700Y12814300D01*
X1790700Y12665075D01*
X1819275Y12636500D01*
X1831464Y12636500D01*
X1876936Y12636500D01*
X1918946Y12653901D01*
X1951099Y12686054D01*
X1968500Y12728064D01*
X1968500Y9434891D01*
X1920105Y9444518D01*
X1857536Y9432072D01*
X1823140Y9409089D01*
X1823140Y10649807D01*
X1823140Y10758173D01*
X1810694Y10820741D01*
X1775252Y10873785D01*
X1765300Y10880434D01*
X1765300Y12665075D01*
X1765300Y12814300D01*
X1616075Y12814300D01*
X1587500Y12785725D01*
X1587500Y12728064D01*
X1604901Y12686054D01*
X1637054Y12653901D01*
X1679064Y12636500D01*
X1724536Y12636500D01*
X1736725Y12636500D01*
X1765300Y12665075D01*
X1765300Y10880434D01*
X1722209Y10909227D01*
X1659640Y10921673D01*
X1597071Y10909227D01*
X1562675Y10886244D01*
X1562675Y12126962D01*
X1562675Y12235328D01*
X1550229Y12297896D01*
X1514787Y12350940D01*
X1461744Y12386382D01*
X1399175Y12398828D01*
X1336606Y12386382D01*
X1283563Y12350940D01*
X1248121Y12297896D01*
X1235675Y12235328D01*
X1235675Y12126962D01*
X1248121Y12064394D01*
X1283563Y12011350D01*
X1336606Y11975908D01*
X1399175Y11963462D01*
X1461744Y11975908D01*
X1514787Y12011350D01*
X1550229Y12064394D01*
X1562675Y12126962D01*
X1562675Y10886244D01*
X1544028Y10873785D01*
X1508586Y10820741D01*
X1496140Y10758173D01*
X1496140Y10649807D01*
X1508586Y10587239D01*
X1544028Y10534195D01*
X1597071Y10498753D01*
X1659640Y10486307D01*
X1722209Y10498753D01*
X1775252Y10534195D01*
X1810694Y10587239D01*
X1823140Y10649807D01*
X1823140Y9409089D01*
X1804493Y9396630D01*
X1769051Y9343586D01*
X1756605Y9281018D01*
X1756605Y9172652D01*
X1769051Y9110084D01*
X1804493Y9057040D01*
X1857536Y9021598D01*
X1920105Y9009152D01*
X1982674Y9021598D01*
X2035717Y9057040D01*
X2071159Y9110084D01*
X2083605Y9172652D01*
X2083605Y8957013D01*
X1770296Y8643704D01*
X1729001Y8581901D01*
X1714500Y8509000D01*
X1714500Y6328863D01*
X1714500Y4699000D01*
X1729001Y4626099D01*
X1770296Y4564296D01*
X2032000Y4302592D01*
X2032000Y985978D01*
X2032000Y828208D01*
X2029292Y825500D01*
X1969426Y825500D01*
X1969426Y2380104D01*
X1967444Y2455863D01*
X1942266Y2516648D01*
X1903773Y2520812D01*
X1795960Y2413000D01*
X1903773Y2305188D01*
X1942266Y2309352D01*
X1969426Y2380104D01*
X1969426Y825500D01*
X1902897Y825500D01*
X1917676Y861090D01*
X1917724Y916666D01*
X1896501Y968030D01*
X1857237Y1007363D01*
X1836449Y1015995D01*
X1857030Y1024499D01*
X1896363Y1063763D01*
X1917676Y1115090D01*
X1917724Y1170666D01*
X1896501Y1222030D01*
X1857237Y1261363D01*
X1836449Y1269995D01*
X1857030Y1278499D01*
X1896363Y1317763D01*
X1917676Y1369090D01*
X1917724Y1424666D01*
X1896501Y1476030D01*
X1857237Y1515363D01*
X1836449Y1523995D01*
X1857030Y1532499D01*
X1896363Y1571763D01*
X1917676Y1623090D01*
X1917724Y1678666D01*
X1896501Y1730030D01*
X1857237Y1769363D01*
X1836449Y1777995D01*
X1857030Y1786499D01*
X1896363Y1825763D01*
X1917676Y1877090D01*
X1917724Y1932666D01*
X1896501Y1984030D01*
X1857237Y2023363D01*
X1836449Y2031995D01*
X1857030Y2040499D01*
X1896363Y2079763D01*
X1917676Y2131090D01*
X1917724Y2186666D01*
X1896501Y2238030D01*
X1882055Y2252501D01*
X1885812Y2287227D01*
X1778000Y2395040D01*
X1776586Y2393625D01*
X1758625Y2411586D01*
X1760039Y2413000D01*
X1758625Y2414414D01*
X1776586Y2432375D01*
X1778000Y2430961D01*
X1885812Y2538773D01*
X1881648Y2577266D01*
X1810896Y2604426D01*
X1735137Y2602444D01*
X1689100Y2583375D01*
X1689100Y6540499D01*
X1689100Y6540500D01*
X1689100Y6540500D01*
X1679433Y6589101D01*
X1651903Y6630302D01*
X1651903Y6630303D01*
X1651902Y6630303D01*
X1242524Y7039682D01*
X1242524Y11518966D01*
X1171900Y11696082D01*
X1164690Y11706873D01*
X1096207Y11746246D01*
X1078246Y11728286D01*
X1078246Y11764207D01*
X1038873Y11832690D01*
X863695Y11907992D01*
X673034Y11910524D01*
X495918Y11839900D01*
X485127Y11832690D01*
X445754Y11764207D01*
X762000Y11447960D01*
X1078246Y11764207D01*
X1078246Y11728286D01*
X779960Y11430000D01*
X1096207Y11113754D01*
X1164690Y11153127D01*
X1239992Y11328305D01*
X1242524Y11518966D01*
X1242524Y7039682D01*
X1078246Y7203959D01*
X1078246Y11095793D01*
X762000Y11412039D01*
X744039Y11394079D01*
X744039Y11430000D01*
X427793Y11746246D01*
X359310Y11706873D01*
X284008Y11531695D01*
X281476Y11341034D01*
X352100Y11163918D01*
X359310Y11153127D01*
X427793Y11113754D01*
X744039Y11430000D01*
X744039Y11394079D01*
X445754Y11095793D01*
X485127Y11027310D01*
X660305Y10952008D01*
X850966Y10949476D01*
X1028082Y11020100D01*
X1038873Y11027310D01*
X1078246Y11095793D01*
X1078246Y7203959D01*
X953403Y7328803D01*
X912201Y7356333D01*
X863600Y7366000D01*
X814999Y7356333D01*
X773797Y7328803D01*
X746267Y7287601D01*
X736600Y7239000D01*
X746267Y7190399D01*
X773797Y7149197D01*
X1435100Y6487895D01*
X1435100Y1104901D01*
X1435100Y1104900D01*
X1444767Y1056299D01*
X1472297Y1015097D01*
X1646877Y840518D01*
X1653082Y825500D01*
X1536700Y825500D01*
X1463799Y810999D01*
X1401996Y769704D01*
X1360701Y707901D01*
X1346200Y635000D01*
X1360701Y562099D01*
X1401996Y500296D01*
X1463799Y459001D01*
X1536700Y444500D01*
X1778000Y444500D01*
X2108200Y444500D01*
X4381500Y444500D01*
X7556500Y444500D01*
X7629401Y459001D01*
X7691204Y500296D01*
X7732499Y562099D01*
X7747000Y635000D01*
X7747000Y1336065D01*
X7756426Y1288679D01*
X7791868Y1235635D01*
X7844911Y1200193D01*
X7907480Y1187747D01*
X7970049Y1200193D01*
X8023092Y1235635D01*
X8058534Y1288679D01*
X8070980Y1351247D01*
X8070980Y1459613D01*
X8058534Y1522181D01*
X8023092Y1575225D01*
X7970049Y1610667D01*
X7907480Y1623113D01*
X7844911Y1610667D01*
X7791868Y1575225D01*
X7756426Y1522181D01*
X7747000Y1474795D01*
X7747000Y1960796D01*
X8197838Y1509958D01*
X8197829Y1500106D01*
X8216158Y1455746D01*
X8250068Y1421777D01*
X8294396Y1403371D01*
X8342393Y1403329D01*
X8386753Y1421658D01*
X8420723Y1455568D01*
X8427179Y1471117D01*
X8750304Y1147992D01*
X8750276Y1115334D01*
X8771499Y1063970D01*
X8810763Y1024637D01*
X8831551Y1016005D01*
X8810970Y1007501D01*
X8771637Y968237D01*
X8750324Y916910D01*
X8750276Y861334D01*
X8771499Y809970D01*
X8810763Y770637D01*
X8831551Y762005D01*
X8810970Y753501D01*
X8771637Y714237D01*
X8750324Y662910D01*
X8750276Y607334D01*
X8771499Y555970D01*
X8810763Y516637D01*
X8862090Y495324D01*
X8917666Y495276D01*
X8969030Y516499D01*
X9008363Y555763D01*
X9029676Y607090D01*
X9029704Y640001D01*
X9211352Y821648D01*
X9211352Y821648D01*
X9232000Y852549D01*
X9239250Y889000D01*
X9239250Y889000D01*
X9239250Y2528108D01*
X9246223Y2535068D01*
X9264629Y2579396D01*
X9264671Y2627394D01*
X9246342Y2671754D01*
X9212432Y2705723D01*
X9168104Y2724129D01*
X9120107Y2724171D01*
X9075747Y2705842D01*
X9041778Y2671932D01*
X9023371Y2627604D01*
X9023338Y2589250D01*
X8988936Y2603500D01*
X8943464Y2603500D01*
X8931275Y2603500D01*
X8902700Y2574925D01*
X8902700Y2425700D01*
X8904700Y2425700D01*
X8904700Y2400300D01*
X8902700Y2400300D01*
X8902700Y2398300D01*
X8877300Y2398300D01*
X8877300Y2400300D01*
X8875300Y2400300D01*
X8875300Y2425700D01*
X8877300Y2425700D01*
X8877300Y2574925D01*
X8848725Y2603500D01*
X8836536Y2603500D01*
X8791064Y2603500D01*
X8749054Y2586099D01*
X8716901Y2553946D01*
X8699500Y2511936D01*
X8699500Y2484204D01*
X8340091Y2843613D01*
X8340091Y7629880D01*
X9262152Y8551941D01*
X9282800Y8582842D01*
X9290050Y8619293D01*
X9290050Y12776200D01*
X9282800Y12812651D01*
X9262152Y12843552D01*
X9029696Y13076008D01*
X9029724Y13108666D01*
X9008501Y13160030D01*
X8969237Y13199363D01*
X8948449Y13207995D01*
X8969030Y13216499D01*
X9008363Y13255763D01*
X9029676Y13307090D01*
X9029724Y13362666D01*
X9008501Y13414030D01*
X8969237Y13453363D01*
X8948449Y13461995D01*
X8969030Y13470499D01*
X9008363Y13509763D01*
X9029676Y13561090D01*
X9029724Y13616666D01*
X9008501Y13668030D01*
X8969237Y13707363D01*
X8948449Y13715995D01*
X8969030Y13724499D01*
X9008363Y13763763D01*
X9029676Y13815090D01*
X9029724Y13870666D01*
X9008501Y13922030D01*
X8969237Y13961363D01*
X8948449Y13969995D01*
X8969030Y13978499D01*
X9008363Y14017763D01*
X9029676Y14069090D01*
X9029724Y14124666D01*
X9008501Y14176030D01*
X8969237Y14215363D01*
X8948449Y14223995D01*
X8969030Y14232499D01*
X9008363Y14271763D01*
X9029676Y14323090D01*
X9029724Y14378666D01*
X9009670Y14427200D01*
X9050478Y14427200D01*
X9131300Y14427200D01*
X9204201Y14441701D01*
X9266004Y14482996D01*
X9307299Y14544799D01*
X9321800Y14617700D01*
X9321800Y3251596D01*
X9271903Y3261521D01*
X9209334Y3249075D01*
X9173925Y3225415D01*
X9173925Y4472562D01*
X9173925Y4580928D01*
X9161479Y4643496D01*
X9126037Y4696540D01*
X9072994Y4731982D01*
X9010425Y4744428D01*
X8947856Y4731982D01*
X8912448Y4708323D01*
X8912448Y5955470D01*
X8912448Y6063836D01*
X8900002Y6126404D01*
X8864560Y6179448D01*
X8811517Y6214890D01*
X8748948Y6227336D01*
X8686379Y6214890D01*
X8633336Y6179448D01*
X8597894Y6126404D01*
X8585448Y6063836D01*
X8585448Y5955470D01*
X8597894Y5892902D01*
X8633336Y5839858D01*
X8686379Y5804416D01*
X8748948Y5791970D01*
X8811517Y5804416D01*
X8864560Y5839858D01*
X8900002Y5892902D01*
X8912448Y5955470D01*
X8912448Y4708323D01*
X8894813Y4696540D01*
X8859371Y4643496D01*
X8846925Y4580928D01*
X8846925Y4472562D01*
X8859371Y4409994D01*
X8894813Y4356950D01*
X8947856Y4321508D01*
X9010425Y4309062D01*
X9072994Y4321508D01*
X9126037Y4356950D01*
X9161479Y4409994D01*
X9173925Y4472562D01*
X9173925Y3225415D01*
X9156291Y3213633D01*
X9120849Y3160589D01*
X9108403Y3098021D01*
X9108403Y2989655D01*
X9120849Y2927087D01*
X9156291Y2874043D01*
X9209334Y2838601D01*
X9271903Y2826155D01*
X9334472Y2838601D01*
X9387515Y2874043D01*
X9422957Y2927087D01*
X9435403Y2989655D01*
X9435403Y68500D01*
X1242524Y68500D01*
X1242524Y3898966D01*
X1171900Y4076082D01*
X1164690Y4086873D01*
X1096207Y4126246D01*
X1078246Y4108286D01*
X1078246Y4144207D01*
X1038873Y4212690D01*
X863695Y4287992D01*
X673034Y4290524D01*
X495918Y4219900D01*
X485127Y4212690D01*
X445754Y4144207D01*
X762000Y3827960D01*
X1078246Y4144207D01*
X1078246Y4108286D01*
X779960Y3810000D01*
X1096207Y3493754D01*
X1164690Y3533127D01*
X1239992Y3708305D01*
X1242524Y3898966D01*
X1242524Y68500D01*
X1098170Y68500D01*
X1098170Y2979807D01*
X1098170Y3088173D01*
X1085724Y3150741D01*
X1078246Y3161933D01*
X1078246Y3475793D01*
X762000Y3792039D01*
X744039Y3774079D01*
X744039Y3810000D01*
X427793Y4126246D01*
X359310Y4086873D01*
X284008Y3911695D01*
X281476Y3721034D01*
X352100Y3543918D01*
X359310Y3533127D01*
X427793Y3493754D01*
X744039Y3810000D01*
X744039Y3774079D01*
X445754Y3475793D01*
X485127Y3407310D01*
X660305Y3332008D01*
X850966Y3329476D01*
X1028082Y3400100D01*
X1038873Y3407310D01*
X1078246Y3475793D01*
X1078246Y3161933D01*
X1050282Y3203785D01*
X997239Y3239227D01*
X934670Y3251673D01*
X872101Y3239227D01*
X819058Y3203785D01*
X783616Y3150741D01*
X771170Y3088173D01*
X771170Y2979807D01*
X783616Y2917239D01*
X819058Y2864195D01*
X872101Y2828753D01*
X934670Y2816307D01*
X997239Y2828753D01*
X1050282Y2864195D01*
X1085724Y2917239D01*
X1098170Y2979807D01*
X1098170Y68500D01*
X68500Y68500D01*
X68500Y15171500D01*
X10599500Y15171500D01*
X10599500Y68500D01*
X10599500Y68500D01*
G37*
X10599500Y68500D02*
X10386524Y68500D01*
X10386524Y3898966D01*
X10386524Y11518966D01*
X10315900Y11696082D01*
X10308690Y11706873D01*
X10240207Y11746246D01*
X10222246Y11728286D01*
X10222246Y11764207D01*
X10182873Y11832690D01*
X10007695Y11907992D01*
X9817034Y11910524D01*
X9639918Y11839900D01*
X9629127Y11832690D01*
X9589754Y11764207D01*
X9906000Y11447960D01*
X10222246Y11764207D01*
X10222246Y11728286D01*
X9923961Y11430000D01*
X10240207Y11113754D01*
X10308690Y11153127D01*
X10383992Y11328305D01*
X10386524Y11518966D01*
X10386524Y3898966D01*
X10315900Y4076082D01*
X10308690Y4086873D01*
X10240207Y4126246D01*
X10222246Y4108286D01*
X10222246Y4144207D01*
X10222246Y11095793D01*
X9906000Y11412039D01*
X9888040Y11394079D01*
X9888040Y11430000D01*
X9571793Y11746246D01*
X9503310Y11706873D01*
X9428008Y11531695D01*
X9425476Y11341034D01*
X9496100Y11163918D01*
X9503310Y11153127D01*
X9571793Y11113754D01*
X9888040Y11430000D01*
X9888040Y11394079D01*
X9589754Y11095793D01*
X9629127Y11027310D01*
X9804305Y10952008D01*
X9994966Y10949476D01*
X10172082Y11020100D01*
X10182873Y11027310D01*
X10222246Y11095793D01*
X10222246Y4144207D01*
X10182873Y4212690D01*
X10007695Y4287992D01*
X9817034Y4290524D01*
X9639918Y4219900D01*
X9629127Y4212690D01*
X9589754Y4144207D01*
X9906000Y3827960D01*
X10222246Y4144207D01*
X10222246Y4108286D01*
X9923961Y3810000D01*
X10240207Y3493754D01*
X10308690Y3533127D01*
X10383992Y3708305D01*
X10386524Y3898966D01*
X10386524Y68500D01*
X10222246Y68500D01*
X10222246Y3475793D01*
X9906000Y3792039D01*
X9888040Y3774079D01*
X9888040Y3810000D01*
X9571793Y4126246D01*
X9503310Y4086873D01*
X9428008Y3911695D01*
X9425476Y3721034D01*
X9496100Y3543918D01*
X9503310Y3533127D01*
X9571793Y3493754D01*
X9888040Y3810000D01*
X9888040Y3774079D01*
X9589754Y3475793D01*
X9629127Y3407310D01*
X9804305Y3332008D01*
X9994966Y3329476D01*
X10172082Y3400100D01*
X10182873Y3407310D01*
X10222246Y3475793D01*
X10222246Y68500D01*
X9435403Y68500D01*
X9435403Y2989655D01*
X9435403Y3098021D01*
X9422957Y3160589D01*
X9387515Y3213633D01*
X9334472Y3249075D01*
X9321800Y3251596D01*
X9321800Y14617700D01*
X9307299Y14690601D01*
X9266004Y14752404D01*
X9204201Y14793699D01*
X9131300Y14808200D01*
X9050478Y14808200D01*
X8902700Y14808200D01*
X8838853Y14795500D01*
X7611888Y14795500D01*
X6540500Y14795500D01*
X3441700Y14795500D01*
X3368799Y14780999D01*
X3306996Y14739704D01*
X3265701Y14677901D01*
X3251200Y14605000D01*
X3251200Y13420935D01*
X2930535Y13100270D01*
X2930535Y13761917D01*
X2930535Y13870283D01*
X2918089Y13932851D01*
X2882647Y13985895D01*
X2829604Y14021337D01*
X2767035Y14033783D01*
X2704466Y14021337D01*
X2651423Y13985895D01*
X2615981Y13932851D01*
X2603535Y13870283D01*
X2603535Y13761917D01*
X2615981Y13699349D01*
X2651423Y13646305D01*
X2704466Y13610863D01*
X2767035Y13598417D01*
X2829604Y13610863D01*
X2882647Y13646305D01*
X2918089Y13699349D01*
X2930535Y13761917D01*
X2930535Y13100270D01*
X2523406Y12693141D01*
X2508250Y12670458D01*
X2508250Y13640608D01*
X2515223Y13647568D01*
X2533629Y13691896D01*
X2533671Y13739893D01*
X2515342Y13784253D01*
X2481432Y13818222D01*
X2437104Y13836629D01*
X2389107Y13836671D01*
X2344747Y13818342D01*
X2310778Y13784432D01*
X2292371Y13740104D01*
X2292329Y13692106D01*
X2310658Y13647746D01*
X2317750Y13640642D01*
X2317750Y9943292D01*
X2310778Y9936332D01*
X2292371Y9892004D01*
X2292329Y9844007D01*
X2310658Y9799647D01*
X2344568Y9765678D01*
X2388896Y9747271D01*
X2436894Y9747229D01*
X2467610Y9759921D01*
X2467610Y9421251D01*
X2427501Y9361224D01*
X2413000Y9288322D01*
X2413000Y9286408D01*
X2266971Y9140379D01*
X2266971Y11453893D01*
X2248642Y11498253D01*
X2241550Y11505357D01*
X2241550Y12542978D01*
X2241550Y12548408D01*
X2248522Y12555368D01*
X2266929Y12599696D01*
X2266971Y12647693D01*
X2248642Y12692053D01*
X2241550Y12699157D01*
X2241550Y13474700D01*
X2234300Y13511150D01*
X2234300Y13511151D01*
X2226029Y13523528D01*
X2213652Y13542052D01*
X1917696Y13838008D01*
X1917724Y13870666D01*
X1896501Y13922030D01*
X1857237Y13961363D01*
X1836449Y13969995D01*
X1857030Y13978499D01*
X1896363Y14017763D01*
X1917676Y14069090D01*
X1917724Y14124666D01*
X1896501Y14176030D01*
X1857237Y14215363D01*
X1836449Y14223995D01*
X1857030Y14232499D01*
X1896363Y14271763D01*
X1917676Y14323090D01*
X1917724Y14378666D01*
X1896501Y14430030D01*
X1857237Y14469363D01*
X1836449Y14477995D01*
X1857030Y14486499D01*
X1896363Y14525763D01*
X1917676Y14577090D01*
X1917724Y14632666D01*
X1896501Y14684030D01*
X1857237Y14723363D01*
X1805910Y14744676D01*
X1750334Y14744724D01*
X1698970Y14723501D01*
X1659637Y14684237D01*
X1638324Y14632910D01*
X1638276Y14577334D01*
X1659499Y14525970D01*
X1698763Y14486637D01*
X1719551Y14478005D01*
X1698970Y14469501D01*
X1659637Y14430237D01*
X1638324Y14378910D01*
X1638276Y14323334D01*
X1659499Y14271970D01*
X1698763Y14232637D01*
X1719551Y14224005D01*
X1698970Y14215501D01*
X1659637Y14176237D01*
X1638324Y14124910D01*
X1638276Y14069334D01*
X1659499Y14017970D01*
X1698763Y13978637D01*
X1719551Y13970005D01*
X1698970Y13961501D01*
X1659637Y13922237D01*
X1638324Y13870910D01*
X1638276Y13815334D01*
X1659499Y13763970D01*
X1698763Y13724637D01*
X1719551Y13716005D01*
X1698970Y13707501D01*
X1659637Y13668237D01*
X1638324Y13616910D01*
X1638276Y13561334D01*
X1659499Y13509970D01*
X1698763Y13470637D01*
X1719551Y13462005D01*
X1698970Y13453501D01*
X1659637Y13414237D01*
X1638324Y13362910D01*
X1638276Y13307334D01*
X1659499Y13255970D01*
X1698763Y13216637D01*
X1719551Y13208005D01*
X1698970Y13199501D01*
X1659637Y13160237D01*
X1638324Y13108910D01*
X1638276Y13053334D01*
X1656879Y13008311D01*
X1637054Y13000099D01*
X1604901Y12967946D01*
X1587500Y12925936D01*
X1587500Y12868275D01*
X1616075Y12839700D01*
X1765300Y12839700D01*
X1765300Y12841700D01*
X1790700Y12841700D01*
X1790700Y12839700D01*
X1939925Y12839700D01*
X1968500Y12868275D01*
X1968500Y12925936D01*
X1951099Y12967946D01*
X1918946Y13000099D01*
X1899087Y13008324D01*
X1917676Y13053090D01*
X1917724Y13108666D01*
X1896501Y13160030D01*
X1857237Y13199363D01*
X1836449Y13207995D01*
X1857030Y13216499D01*
X1896363Y13255763D01*
X1917676Y13307090D01*
X1917724Y13362666D01*
X1896501Y13414030D01*
X1857237Y13453363D01*
X1836449Y13461995D01*
X1857030Y13470499D01*
X1896363Y13509763D01*
X1917676Y13561090D01*
X1917682Y13568614D01*
X2051050Y13435246D01*
X2051050Y12699192D01*
X2044078Y12692232D01*
X2025671Y12647904D01*
X2025629Y12599906D01*
X2043958Y12555547D01*
X2051050Y12548443D01*
X2051050Y12542978D01*
X2051050Y11505392D01*
X2044078Y11498432D01*
X2025671Y11454104D01*
X2025629Y11406106D01*
X2043958Y11361747D01*
X2077868Y11327778D01*
X2122196Y11309371D01*
X2170194Y11309329D01*
X2214553Y11327658D01*
X2248522Y11361568D01*
X2266929Y11405896D01*
X2266971Y11453893D01*
X2266971Y9140379D01*
X2083605Y8957013D01*
X2083605Y9172652D01*
X2083605Y9281018D01*
X2071159Y9343586D01*
X2035717Y9396630D01*
X1982674Y9432072D01*
X1968500Y9434891D01*
X1968500Y12728064D01*
X1968500Y12785725D01*
X1939925Y12814300D01*
X1790700Y12814300D01*
X1790700Y12665075D01*
X1819275Y12636500D01*
X1831464Y12636500D01*
X1876936Y12636500D01*
X1918946Y12653901D01*
X1951099Y12686054D01*
X1968500Y12728064D01*
X1968500Y9434891D01*
X1920105Y9444518D01*
X1857536Y9432072D01*
X1823140Y9409089D01*
X1823140Y10649807D01*
X1823140Y10758173D01*
X1810694Y10820741D01*
X1775252Y10873785D01*
X1765300Y10880434D01*
X1765300Y12665075D01*
X1765300Y12814300D01*
X1616075Y12814300D01*
X1587500Y12785725D01*
X1587500Y12728064D01*
X1604901Y12686054D01*
X1637054Y12653901D01*
X1679064Y12636500D01*
X1724536Y12636500D01*
X1736725Y12636500D01*
X1765300Y12665075D01*
X1765300Y10880434D01*
X1722209Y10909227D01*
X1659640Y10921673D01*
X1597071Y10909227D01*
X1562675Y10886244D01*
X1562675Y12126962D01*
X1562675Y12235328D01*
X1550229Y12297896D01*
X1514787Y12350940D01*
X1461744Y12386382D01*
X1399175Y12398828D01*
X1336606Y12386382D01*
X1283563Y12350940D01*
X1248121Y12297896D01*
X1235675Y12235328D01*
X1235675Y12126962D01*
X1248121Y12064394D01*
X1283563Y12011350D01*
X1336606Y11975908D01*
X1399175Y11963462D01*
X1461744Y11975908D01*
X1514787Y12011350D01*
X1550229Y12064394D01*
X1562675Y12126962D01*
X1562675Y10886244D01*
X1544028Y10873785D01*
X1508586Y10820741D01*
X1496140Y10758173D01*
X1496140Y10649807D01*
X1508586Y10587239D01*
X1544028Y10534195D01*
X1597071Y10498753D01*
X1659640Y10486307D01*
X1722209Y10498753D01*
X1775252Y10534195D01*
X1810694Y10587239D01*
X1823140Y10649807D01*
X1823140Y9409089D01*
X1804493Y9396630D01*
X1769051Y9343586D01*
X1756605Y9281018D01*
X1756605Y9172652D01*
X1769051Y9110084D01*
X1804493Y9057040D01*
X1857536Y9021598D01*
X1920105Y9009152D01*
X1982674Y9021598D01*
X2035717Y9057040D01*
X2071159Y9110084D01*
X2083605Y9172652D01*
X2083605Y8957013D01*
X1770296Y8643704D01*
X1729001Y8581901D01*
X1714500Y8509000D01*
X1714500Y6328863D01*
X1714500Y4699000D01*
X1729001Y4626099D01*
X1770296Y4564296D01*
X2032000Y4302592D01*
X2032000Y985978D01*
X2032000Y828208D01*
X2029292Y825500D01*
X1969426Y825500D01*
X1969426Y2380104D01*
X1967444Y2455863D01*
X1942266Y2516648D01*
X1903773Y2520812D01*
X1795960Y2413000D01*
X1903773Y2305188D01*
X1942266Y2309352D01*
X1969426Y2380104D01*
X1969426Y825500D01*
X1902897Y825500D01*
X1917676Y861090D01*
X1917724Y916666D01*
X1896501Y968030D01*
X1857237Y1007363D01*
X1836449Y1015995D01*
X1857030Y1024499D01*
X1896363Y1063763D01*
X1917676Y1115090D01*
X1917724Y1170666D01*
X1896501Y1222030D01*
X1857237Y1261363D01*
X1836449Y1269995D01*
X1857030Y1278499D01*
X1896363Y1317763D01*
X1917676Y1369090D01*
X1917724Y1424666D01*
X1896501Y1476030D01*
X1857237Y1515363D01*
X1836449Y1523995D01*
X1857030Y1532499D01*
X1896363Y1571763D01*
X1917676Y1623090D01*
X1917724Y1678666D01*
X1896501Y1730030D01*
X1857237Y1769363D01*
X1836449Y1777995D01*
X1857030Y1786499D01*
X1896363Y1825763D01*
X1917676Y1877090D01*
X1917724Y1932666D01*
X1896501Y1984030D01*
X1857237Y2023363D01*
X1836449Y2031995D01*
X1857030Y2040499D01*
X1896363Y2079763D01*
X1917676Y2131090D01*
X1917724Y2186666D01*
X1896501Y2238030D01*
X1882055Y2252501D01*
X1885812Y2287227D01*
X1778000Y2395040D01*
X1776586Y2393625D01*
X1758625Y2411586D01*
X1760039Y2413000D01*
X1758625Y2414414D01*
X1776586Y2432375D01*
X1778000Y2430961D01*
X1885812Y2538773D01*
X1881648Y2577266D01*
X1810896Y2604426D01*
X1735137Y2602444D01*
X1689100Y2583375D01*
X1689100Y6540499D01*
X1689100Y6540500D01*
X1689100Y6540500D01*
X1679433Y6589101D01*
X1651903Y6630302D01*
X1651903Y6630303D01*
X1651902Y6630303D01*
X1242524Y7039682D01*
X1242524Y11518966D01*
X1171900Y11696082D01*
X1164690Y11706873D01*
X1096207Y11746246D01*
X1078246Y11728286D01*
X1078246Y11764207D01*
X1038873Y11832690D01*
X863695Y11907992D01*
X673034Y11910524D01*
X495918Y11839900D01*
X485127Y11832690D01*
X445754Y11764207D01*
X762000Y11447960D01*
X1078246Y11764207D01*
X1078246Y11728286D01*
X779960Y11430000D01*
X1096207Y11113754D01*
X1164690Y11153127D01*
X1239992Y11328305D01*
X1242524Y11518966D01*
X1242524Y7039682D01*
X1078246Y7203959D01*
X1078246Y11095793D01*
X762000Y11412039D01*
X744039Y11394079D01*
X744039Y11430000D01*
X427793Y11746246D01*
X359310Y11706873D01*
X284008Y11531695D01*
X281476Y11341034D01*
X352100Y11163918D01*
X359310Y11153127D01*
X427793Y11113754D01*
X744039Y11430000D01*
X744039Y11394079D01*
X445754Y11095793D01*
X485127Y11027310D01*
X660305Y10952008D01*
X850966Y10949476D01*
X1028082Y11020100D01*
X1038873Y11027310D01*
X1078246Y11095793D01*
X1078246Y7203959D01*
X953403Y7328803D01*
X912201Y7356333D01*
X863600Y7366000D01*
X814999Y7356333D01*
X773797Y7328803D01*
X746267Y7287601D01*
X736600Y7239000D01*
X746267Y7190399D01*
X773797Y7149197D01*
X1435100Y6487895D01*
X1435100Y1104901D01*
X1435100Y1104900D01*
X1444767Y1056299D01*
X1472297Y1015097D01*
X1646877Y840518D01*
X1653082Y825500D01*
X1536700Y825500D01*
X1463799Y810999D01*
X1401996Y769704D01*
X1360701Y707901D01*
X1346200Y635000D01*
X1360701Y562099D01*
X1401996Y500296D01*
X1463799Y459001D01*
X1536700Y444500D01*
X1778000Y444500D01*
X2108200Y444500D01*
X4381500Y444500D01*
X7556500Y444500D01*
X7629401Y459001D01*
X7691204Y500296D01*
X7732499Y562099D01*
X7747000Y635000D01*
X7747000Y1336065D01*
X7756426Y1288679D01*
X7791868Y1235635D01*
X7844911Y1200193D01*
X7907480Y1187747D01*
X7970049Y1200193D01*
X8023092Y1235635D01*
X8058534Y1288679D01*
X8070980Y1351247D01*
X8070980Y1459613D01*
X8058534Y1522181D01*
X8023092Y1575225D01*
X7970049Y1610667D01*
X7907480Y1623113D01*
X7844911Y1610667D01*
X7791868Y1575225D01*
X7756426Y1522181D01*
X7747000Y1474795D01*
X7747000Y1960796D01*
X8197838Y1509958D01*
X8197829Y1500106D01*
X8216158Y1455746D01*
X8250068Y1421777D01*
X8294396Y1403371D01*
X8342393Y1403329D01*
X8386753Y1421658D01*
X8420723Y1455568D01*
X8427179Y1471117D01*
X8750304Y1147992D01*
X8750276Y1115334D01*
X8771499Y1063970D01*
X8810763Y1024637D01*
X8831551Y1016005D01*
X8810970Y1007501D01*
X8771637Y968237D01*
X8750324Y916910D01*
X8750276Y861334D01*
X8771499Y809970D01*
X8810763Y770637D01*
X8831551Y762005D01*
X8810970Y753501D01*
X8771637Y714237D01*
X8750324Y662910D01*
X8750276Y607334D01*
X8771499Y555970D01*
X8810763Y516637D01*
X8862090Y495324D01*
X8917666Y495276D01*
X8969030Y516499D01*
X9008363Y555763D01*
X9029676Y607090D01*
X9029704Y640001D01*
X9211352Y821648D01*
X9211352Y821648D01*
X9232000Y852549D01*
X9239250Y889000D01*
X9239250Y889000D01*
X9239250Y2528108D01*
X9246223Y2535068D01*
X9264629Y2579396D01*
X9264671Y2627394D01*
X9246342Y2671754D01*
X9212432Y2705723D01*
X9168104Y2724129D01*
X9120107Y2724171D01*
X9075747Y2705842D01*
X9041778Y2671932D01*
X9023371Y2627604D01*
X9023338Y2589250D01*
X8988936Y2603500D01*
X8943464Y2603500D01*
X8931275Y2603500D01*
X8902700Y2574925D01*
X8902700Y2425700D01*
X8904700Y2425700D01*
X8904700Y2400300D01*
X8902700Y2400300D01*
X8902700Y2398300D01*
X8877300Y2398300D01*
X8877300Y2400300D01*
X8875300Y2400300D01*
X8875300Y2425700D01*
X8877300Y2425700D01*
X8877300Y2574925D01*
X8848725Y2603500D01*
X8836536Y2603500D01*
X8791064Y2603500D01*
X8749054Y2586099D01*
X8716901Y2553946D01*
X8699500Y2511936D01*
X8699500Y2484204D01*
X8340091Y2843613D01*
X8340091Y7629880D01*
X9262152Y8551941D01*
X9282800Y8582842D01*
X9290050Y8619293D01*
X9290050Y12776200D01*
X9282800Y12812651D01*
X9262152Y12843552D01*
X9029696Y13076008D01*
X9029724Y13108666D01*
X9008501Y13160030D01*
X8969237Y13199363D01*
X8948449Y13207995D01*
X8969030Y13216499D01*
X9008363Y13255763D01*
X9029676Y13307090D01*
X9029724Y13362666D01*
X9008501Y13414030D01*
X8969237Y13453363D01*
X8948449Y13461995D01*
X8969030Y13470499D01*
X9008363Y13509763D01*
X9029676Y13561090D01*
X9029724Y13616666D01*
X9008501Y13668030D01*
X8969237Y13707363D01*
X8948449Y13715995D01*
X8969030Y13724499D01*
X9008363Y13763763D01*
X9029676Y13815090D01*
X9029724Y13870666D01*
X9008501Y13922030D01*
X8969237Y13961363D01*
X8948449Y13969995D01*
X8969030Y13978499D01*
X9008363Y14017763D01*
X9029676Y14069090D01*
X9029724Y14124666D01*
X9008501Y14176030D01*
X8969237Y14215363D01*
X8948449Y14223995D01*
X8969030Y14232499D01*
X9008363Y14271763D01*
X9029676Y14323090D01*
X9029724Y14378666D01*
X9009670Y14427200D01*
X9050478Y14427200D01*
X9131300Y14427200D01*
X9204201Y14441701D01*
X9266004Y14482996D01*
X9307299Y14544799D01*
X9321800Y14617700D01*
X9321800Y3251596D01*
X9271903Y3261521D01*
X9209334Y3249075D01*
X9173925Y3225415D01*
X9173925Y4472562D01*
X9173925Y4580928D01*
X9161479Y4643496D01*
X9126037Y4696540D01*
X9072994Y4731982D01*
X9010425Y4744428D01*
X8947856Y4731982D01*
X8912448Y4708323D01*
X8912448Y5955470D01*
X8912448Y6063836D01*
X8900002Y6126404D01*
X8864560Y6179448D01*
X8811517Y6214890D01*
X8748948Y6227336D01*
X8686379Y6214890D01*
X8633336Y6179448D01*
X8597894Y6126404D01*
X8585448Y6063836D01*
X8585448Y5955470D01*
X8597894Y5892902D01*
X8633336Y5839858D01*
X8686379Y5804416D01*
X8748948Y5791970D01*
X8811517Y5804416D01*
X8864560Y5839858D01*
X8900002Y5892902D01*
X8912448Y5955470D01*
X8912448Y4708323D01*
X8894813Y4696540D01*
X8859371Y4643496D01*
X8846925Y4580928D01*
X8846925Y4472562D01*
X8859371Y4409994D01*
X8894813Y4356950D01*
X8947856Y4321508D01*
X9010425Y4309062D01*
X9072994Y4321508D01*
X9126037Y4356950D01*
X9161479Y4409994D01*
X9173925Y4472562D01*
X9173925Y3225415D01*
X9156291Y3213633D01*
X9120849Y3160589D01*
X9108403Y3098021D01*
X9108403Y2989655D01*
X9120849Y2927087D01*
X9156291Y2874043D01*
X9209334Y2838601D01*
X9271903Y2826155D01*
X9334472Y2838601D01*
X9387515Y2874043D01*
X9422957Y2927087D01*
X9435403Y2989655D01*
X9435403Y68500D01*
X1242524Y68500D01*
X1242524Y3898966D01*
X1171900Y4076082D01*
X1164690Y4086873D01*
X1096207Y4126246D01*
X1078246Y4108286D01*
X1078246Y4144207D01*
X1038873Y4212690D01*
X863695Y4287992D01*
X673034Y4290524D01*
X495918Y4219900D01*
X485127Y4212690D01*
X445754Y4144207D01*
X762000Y3827960D01*
X1078246Y4144207D01*
X1078246Y4108286D01*
X779960Y3810000D01*
X1096207Y3493754D01*
X1164690Y3533127D01*
X1239992Y3708305D01*
X1242524Y3898966D01*
X1242524Y68500D01*
X1098170Y68500D01*
X1098170Y2979807D01*
X1098170Y3088173D01*
X1085724Y3150741D01*
X1078246Y3161933D01*
X1078246Y3475793D01*
X762000Y3792039D01*
X744039Y3774079D01*
X744039Y3810000D01*
X427793Y4126246D01*
X359310Y4086873D01*
X284008Y3911695D01*
X281476Y3721034D01*
X352100Y3543918D01*
X359310Y3533127D01*
X427793Y3493754D01*
X744039Y3810000D01*
X744039Y3774079D01*
X445754Y3475793D01*
X485127Y3407310D01*
X660305Y3332008D01*
X850966Y3329476D01*
X1028082Y3400100D01*
X1038873Y3407310D01*
X1078246Y3475793D01*
X1078246Y3161933D01*
X1050282Y3203785D01*
X997239Y3239227D01*
X934670Y3251673D01*
X872101Y3239227D01*
X819058Y3203785D01*
X783616Y3150741D01*
X771170Y3088173D01*
X771170Y2979807D01*
X783616Y2917239D01*
X819058Y2864195D01*
X872101Y2828753D01*
X934670Y2816307D01*
X997239Y2828753D01*
X1050282Y2864195D01*
X1085724Y2917239D01*
X1098170Y2979807D01*
X1098170Y68500D01*
X68500Y68500D01*
X68500Y15171500D01*
X10599500Y15171500D01*
X10599500Y68500D01*
M02*
