G04 #@! TF.FileFunction,Soldermask,Top*
%FSLAX45Y45*%
G04 Gerber Fmt 4.5, Leading zero omitted, Abs format (unit mm)*
G04 Created by KiCad (PCBNEW (2015-01-16 BZR 5376)-product) date 3/22/2015 17:44:56*
%MOMM*%
G01*
G04 APERTURE LIST*
%ADD10C,0.254000*%
%ADD11C,0.100000*%
%ADD12R,1.498600X2.260600*%
%ADD13R,1.555600X1.955600*%
%ADD14O,2.355600X3.355600*%
%ADD15R,1.498600X3.530600*%
%ADD16R,2.260600X1.371600*%
%ADD17R,1.879600X1.879600*%
%ADD18C,1.879600*%
%ADD19C,7.655600*%
%ADD20R,3.530600X1.498600*%
%ADD21R,1.105600X1.155600*%
%ADD22R,1.355600X1.605600*%
%ADD23R,0.863600X2.743200*%
%ADD24R,6.705600X4.165600*%
%ADD25R,4.419600X3.657600*%
G04 APERTURE END LIST*
D10*
D11*
G36*
X4156613Y12002823D02*
X4152352Y11993267D01*
X4148090Y11983711D01*
X4000163Y11849598D01*
X3852236Y11715485D01*
X3843157Y11711916D01*
X3834077Y11708346D01*
X3622146Y11708379D01*
X3410215Y11708413D01*
X3401612Y11711755D01*
X3398739Y11712892D01*
X3396170Y11713950D01*
X3394085Y11714849D01*
X3392666Y11715514D01*
X3392134Y11715820D01*
X3391680Y11716221D01*
X3390462Y11717300D01*
X3388508Y11719034D01*
X3385845Y11721399D01*
X3382501Y11724370D01*
X3378504Y11727922D01*
X3373879Y11732031D01*
X3368656Y11736674D01*
X3362861Y11741825D01*
X3356522Y11747461D01*
X3349666Y11753556D01*
X3342320Y11760087D01*
X3334512Y11767030D01*
X3326270Y11774359D01*
X3317620Y11782051D01*
X3308589Y11790081D01*
X3299207Y11798425D01*
X3289499Y11807058D01*
X3279493Y11815957D01*
X3269216Y11825097D01*
X3258697Y11834453D01*
X3247962Y11844001D01*
X3241193Y11850021D01*
X3091127Y11983499D01*
X3086761Y11993157D01*
X3082396Y12002815D01*
X3082422Y12193054D01*
X3082447Y12383294D01*
X3086787Y12392872D01*
X3091127Y12402450D01*
X3242017Y12535685D01*
X3392906Y12668920D01*
X3401790Y12672289D01*
X3410673Y12675658D01*
X3459127Y12675640D01*
X3507581Y12675622D01*
X3518944Y12669125D01*
X3530307Y12662627D01*
X3549725Y12630117D01*
X3569143Y12597606D01*
X3571038Y12590884D01*
X3572933Y12584162D01*
X3572926Y12495105D01*
X3572918Y12406048D01*
X3570873Y12399169D01*
X3568829Y12392290D01*
X3469906Y12235127D01*
X3462457Y12223293D01*
X3455147Y12211679D01*
X3447995Y12200317D01*
X3441023Y12189240D01*
X3434250Y12178480D01*
X3427697Y12168070D01*
X3421385Y12158043D01*
X3415335Y12148431D01*
X3409566Y12139267D01*
X3404100Y12130583D01*
X3398957Y12122412D01*
X3394157Y12114787D01*
X3389721Y12107741D01*
X3385670Y12101305D01*
X3382023Y12095513D01*
X3378803Y12090397D01*
X3376028Y12085990D01*
X3373720Y12082324D01*
X3371899Y12079432D01*
X3370586Y12077346D01*
X3369800Y12076100D01*
X3369573Y12075739D01*
X3368162Y12073513D01*
X3428537Y12016340D01*
X3488911Y11959167D01*
X3622412Y11959167D01*
X3755914Y11959167D01*
X3813781Y12013992D01*
X3820428Y12020291D01*
X3826890Y12026414D01*
X3833122Y12032321D01*
X3839081Y12037969D01*
X3844721Y12043317D01*
X3849999Y12048322D01*
X3854871Y12052943D01*
X3859292Y12057137D01*
X3863218Y12060863D01*
X3866605Y12064079D01*
X3869410Y12066743D01*
X3871587Y12068813D01*
X3873092Y12070248D01*
X3873883Y12071005D01*
X3873950Y12071070D01*
X3876252Y12073322D01*
X3773260Y12232762D01*
X3670268Y12392201D01*
X3668167Y12399223D01*
X3666067Y12406244D01*
X3666067Y12495140D01*
X3666067Y12584035D01*
X3668356Y12591401D01*
X3670645Y12598768D01*
X3692282Y12630436D01*
X3695848Y12635650D01*
X3699259Y12640629D01*
X3702467Y12645301D01*
X3705421Y12649593D01*
X3708071Y12653433D01*
X3710368Y12656749D01*
X3712261Y12659469D01*
X3713700Y12661520D01*
X3714635Y12662830D01*
X3714996Y12663306D01*
X3715768Y12663896D01*
X3717330Y12664882D01*
X3719530Y12666174D01*
X3722218Y12667685D01*
X3725241Y12669326D01*
X3726656Y12670077D01*
X3737240Y12675648D01*
X3785658Y12675649D01*
X3834077Y12675650D01*
X3843178Y12672082D01*
X3852280Y12668515D01*
X4000076Y12535494D01*
X4147873Y12402473D01*
X4152221Y12392884D01*
X4156569Y12383294D01*
X4156591Y12193058D01*
X4156613Y12002823D01*
X4156613Y12002823D01*
X4156613Y12002823D01*
G37*
X4156613Y12002823D02*
X4152352Y11993267D01*
X4148090Y11983711D01*
X4000163Y11849598D01*
X3852236Y11715485D01*
X3843157Y11711916D01*
X3834077Y11708346D01*
X3622146Y11708379D01*
X3410215Y11708413D01*
X3401612Y11711755D01*
X3398739Y11712892D01*
X3396170Y11713950D01*
X3394085Y11714849D01*
X3392666Y11715514D01*
X3392134Y11715820D01*
X3391680Y11716221D01*
X3390462Y11717300D01*
X3388508Y11719034D01*
X3385845Y11721399D01*
X3382501Y11724370D01*
X3378504Y11727922D01*
X3373879Y11732031D01*
X3368656Y11736674D01*
X3362861Y11741825D01*
X3356522Y11747461D01*
X3349666Y11753556D01*
X3342320Y11760087D01*
X3334512Y11767030D01*
X3326270Y11774359D01*
X3317620Y11782051D01*
X3308589Y11790081D01*
X3299207Y11798425D01*
X3289499Y11807058D01*
X3279493Y11815957D01*
X3269216Y11825097D01*
X3258697Y11834453D01*
X3247962Y11844001D01*
X3241193Y11850021D01*
X3091127Y11983499D01*
X3086761Y11993157D01*
X3082396Y12002815D01*
X3082422Y12193054D01*
X3082447Y12383294D01*
X3086787Y12392872D01*
X3091127Y12402450D01*
X3242017Y12535685D01*
X3392906Y12668920D01*
X3401790Y12672289D01*
X3410673Y12675658D01*
X3459127Y12675640D01*
X3507581Y12675622D01*
X3518944Y12669125D01*
X3530307Y12662627D01*
X3549725Y12630117D01*
X3569143Y12597606D01*
X3571038Y12590884D01*
X3572933Y12584162D01*
X3572926Y12495105D01*
X3572918Y12406048D01*
X3570873Y12399169D01*
X3568829Y12392290D01*
X3469906Y12235127D01*
X3462457Y12223293D01*
X3455147Y12211679D01*
X3447995Y12200317D01*
X3441023Y12189240D01*
X3434250Y12178480D01*
X3427697Y12168070D01*
X3421385Y12158043D01*
X3415335Y12148431D01*
X3409566Y12139267D01*
X3404100Y12130583D01*
X3398957Y12122412D01*
X3394157Y12114787D01*
X3389721Y12107741D01*
X3385670Y12101305D01*
X3382023Y12095513D01*
X3378803Y12090397D01*
X3376028Y12085990D01*
X3373720Y12082324D01*
X3371899Y12079432D01*
X3370586Y12077346D01*
X3369800Y12076100D01*
X3369573Y12075739D01*
X3368162Y12073513D01*
X3428537Y12016340D01*
X3488911Y11959167D01*
X3622412Y11959167D01*
X3755914Y11959167D01*
X3813781Y12013992D01*
X3820428Y12020291D01*
X3826890Y12026414D01*
X3833122Y12032321D01*
X3839081Y12037969D01*
X3844721Y12043317D01*
X3849999Y12048322D01*
X3854871Y12052943D01*
X3859292Y12057137D01*
X3863218Y12060863D01*
X3866605Y12064079D01*
X3869410Y12066743D01*
X3871587Y12068813D01*
X3873092Y12070248D01*
X3873883Y12071005D01*
X3873950Y12071070D01*
X3876252Y12073322D01*
X3773260Y12232762D01*
X3670268Y12392201D01*
X3668167Y12399223D01*
X3666067Y12406244D01*
X3666067Y12495140D01*
X3666067Y12584035D01*
X3668356Y12591401D01*
X3670645Y12598768D01*
X3692282Y12630436D01*
X3695848Y12635650D01*
X3699259Y12640629D01*
X3702467Y12645301D01*
X3705421Y12649593D01*
X3708071Y12653433D01*
X3710368Y12656749D01*
X3712261Y12659469D01*
X3713700Y12661520D01*
X3714635Y12662830D01*
X3714996Y12663306D01*
X3715768Y12663896D01*
X3717330Y12664882D01*
X3719530Y12666174D01*
X3722218Y12667685D01*
X3725241Y12669326D01*
X3726656Y12670077D01*
X3737240Y12675648D01*
X3785658Y12675649D01*
X3834077Y12675650D01*
X3843178Y12672082D01*
X3852280Y12668515D01*
X4000076Y12535494D01*
X4147873Y12402473D01*
X4152221Y12392884D01*
X4156569Y12383294D01*
X4156591Y12193058D01*
X4156613Y12002823D01*
X4156613Y12002823D01*
D12*
X4533900Y6858000D03*
X4787900Y7213600D03*
X5041900Y6858000D03*
X5295900Y7213600D03*
X5549900Y6858000D03*
X5803900Y7213600D03*
X6057900Y6858000D03*
X6311900Y7213600D03*
X6565900Y6858000D03*
X6819900Y7213600D03*
X7073900Y6858000D03*
X7327900Y7213600D03*
D13*
X8943948Y6009653D03*
X8553948Y6009653D03*
D14*
X8748948Y6009653D03*
D15*
X7556500Y4127500D03*
X7302500Y4127500D03*
X7048500Y4127500D03*
X6794500Y4127500D03*
X6540500Y4127500D03*
X6286500Y4127500D03*
X6032500Y4127500D03*
X5778500Y4127500D03*
X5524500Y4127500D03*
X5270500Y4127500D03*
X5016500Y4127500D03*
X4762500Y4127500D03*
X4508500Y4127500D03*
X4254500Y4127500D03*
X4000500Y4127500D03*
X3746500Y4127500D03*
X3492500Y4127500D03*
D12*
X7327900Y5080000D03*
X7073900Y4724400D03*
X6819900Y5080000D03*
X6565900Y4724400D03*
X6311900Y5080000D03*
X6057900Y4724400D03*
X5803900Y5080000D03*
X5549900Y4724400D03*
X5295900Y5080000D03*
X5041900Y4724400D03*
X4787900Y5080000D03*
X4533900Y4724400D03*
D16*
X247650Y635000D03*
X247650Y889000D03*
X247650Y1143000D03*
X247650Y1397000D03*
X247650Y1651000D03*
X247650Y1905000D03*
X247650Y2159000D03*
X247650Y2413000D03*
X1276350Y635000D03*
X1276350Y889000D03*
X1276350Y1143000D03*
X1276350Y1397000D03*
X1276350Y1651000D03*
X1276350Y1905000D03*
X1276350Y2159000D03*
X1276350Y2413000D03*
D17*
X8890000Y2413000D03*
D18*
X8890000Y2159000D03*
X8890000Y1905000D03*
X8890000Y1651000D03*
X8890000Y1397000D03*
X8890000Y1143000D03*
X8890000Y889000D03*
X8890000Y635000D03*
D19*
X762000Y3810000D03*
D20*
X571500Y6731000D03*
X571500Y6985000D03*
X571500Y7239000D03*
X571500Y7747000D03*
X571500Y8001000D03*
X571500Y8255000D03*
D15*
X5334000Y3505200D03*
X5080000Y3505200D03*
X4826000Y3505200D03*
X4572000Y3505200D03*
X4318000Y3505200D03*
X4064000Y3505200D03*
X3810000Y3505200D03*
X3556000Y3505200D03*
X3048000Y3505200D03*
X2794000Y3505200D03*
X2540000Y3505200D03*
X2286000Y3505200D03*
X2032000Y3505200D03*
X1778000Y3505200D03*
X1778000Y8686800D03*
X2032000Y8686800D03*
X2286000Y8686800D03*
X2540000Y8686800D03*
X2794000Y8686800D03*
X3048000Y8686800D03*
X3302000Y8686800D03*
X3556000Y8686800D03*
X3492500Y6007100D03*
X3746500Y6007100D03*
X4000500Y6007100D03*
X4254500Y6007100D03*
X4508500Y6007100D03*
X4762500Y6007100D03*
X5016500Y6007100D03*
X5270500Y6007100D03*
X5524500Y6007100D03*
X5778500Y6007100D03*
X6032500Y6007100D03*
X6286500Y6007100D03*
X6540500Y6007100D03*
X6794500Y6007100D03*
X7048500Y6007100D03*
X7302500Y6007100D03*
X7556500Y6007100D03*
D21*
X4953000Y10235000D03*
X4953000Y10085000D03*
D22*
X1487500Y7493000D03*
X1687500Y7493000D03*
D16*
X10420350Y14605000D03*
X10420350Y14351000D03*
X10420350Y14097000D03*
X10420350Y13843000D03*
X10420350Y13589000D03*
X10420350Y13335000D03*
X10420350Y13081000D03*
X10420350Y12827000D03*
X9391650Y14605000D03*
X9391650Y14351000D03*
X9391650Y14097000D03*
X9391650Y13843000D03*
X9391650Y13589000D03*
X9391650Y13335000D03*
X9391650Y13081000D03*
X9391650Y12827000D03*
X10420350Y2413000D03*
X10420350Y2159000D03*
X10420350Y1905000D03*
X10420350Y1651000D03*
X10420350Y1397000D03*
X10420350Y1143000D03*
X10420350Y889000D03*
X10420350Y635000D03*
X9391650Y2413000D03*
X9391650Y2159000D03*
X9391650Y1905000D03*
X9391650Y1651000D03*
X9391650Y1397000D03*
X9391650Y1143000D03*
X9391650Y889000D03*
X9391650Y635000D03*
X247650Y12827000D03*
X247650Y13081000D03*
X247650Y13335000D03*
X247650Y13589000D03*
X247650Y13843000D03*
X247650Y14097000D03*
X247650Y14351000D03*
X247650Y14605000D03*
X1276350Y12827000D03*
X1276350Y13081000D03*
X1276350Y13335000D03*
X1276350Y13589000D03*
X1276350Y13843000D03*
X1276350Y14097000D03*
X1276350Y14351000D03*
X1276350Y14605000D03*
D17*
X8890000Y14605000D03*
D18*
X8890000Y14351000D03*
X8890000Y14097000D03*
X8890000Y13843000D03*
X8890000Y13589000D03*
X8890000Y13335000D03*
X8890000Y13081000D03*
X8890000Y12827000D03*
D17*
X1778000Y635000D03*
D18*
X1778000Y889000D03*
X1778000Y1143000D03*
X1778000Y1397000D03*
X1778000Y1651000D03*
X1778000Y1905000D03*
X1778000Y2159000D03*
X1778000Y2413000D03*
D17*
X1778000Y12827000D03*
D18*
X1778000Y13081000D03*
X1778000Y13335000D03*
X1778000Y13589000D03*
X1778000Y13843000D03*
X1778000Y14097000D03*
X1778000Y14351000D03*
X1778000Y14605000D03*
D21*
X5334000Y10847000D03*
X5334000Y10997000D03*
D23*
X5207000Y9927590D03*
X5334000Y9927590D03*
X5461000Y9927590D03*
X5588000Y9927590D03*
X5715000Y9927590D03*
X5842000Y9927590D03*
X5969000Y9927590D03*
X6096000Y9927590D03*
X6096000Y10392410D03*
X5969000Y10392410D03*
X5842000Y10392410D03*
X5715000Y10392410D03*
X5588000Y10392410D03*
X5461000Y10392410D03*
X5334000Y10392410D03*
X5207000Y10392410D03*
D19*
X9906000Y11430000D03*
X9906000Y3810000D03*
X762000Y11430000D03*
D15*
X3962400Y8686800D03*
X4216400Y8686800D03*
X4470400Y8686800D03*
X4724400Y8686800D03*
X4978400Y8686800D03*
X5232400Y8686800D03*
X5486400Y8686800D03*
X5740400Y8686800D03*
X5994400Y8686800D03*
X6248400Y8686800D03*
D24*
X762000Y6125210D03*
X762000Y4796790D03*
D25*
X1625600Y5406390D03*
D13*
X7873645Y12208130D03*
X7483645Y12208130D03*
D14*
X7678645Y12208130D03*
D13*
X5961945Y13816100D03*
X5571945Y13816100D03*
D14*
X5766945Y13816100D03*
D13*
X4461990Y13816100D03*
X4071990Y13816100D03*
D14*
X4266990Y13816100D03*
D13*
X2962035Y13816100D03*
X2572035Y13816100D03*
D14*
X2767035Y13816100D03*
D13*
X2115105Y9226835D03*
X1725105Y9226835D03*
D14*
X1920105Y9226835D03*
D13*
X1854640Y10703990D03*
X1464640Y10703990D03*
D14*
X1659640Y10703990D03*
D13*
X1129670Y3033990D03*
X739670Y3033990D03*
D14*
X934670Y3033990D03*
D13*
X4028900Y7621120D03*
X3638900Y7621120D03*
D14*
X3833900Y7621120D03*
D13*
X5529020Y7621120D03*
X5139020Y7621120D03*
D14*
X5334020Y7621120D03*
D13*
X7029140Y7621120D03*
X6639140Y7621120D03*
D14*
X6834140Y7621120D03*
D13*
X1594175Y12181145D03*
X1204175Y12181145D03*
D14*
X1399175Y12181145D03*
D13*
X8134110Y10730960D03*
X7744110Y10730960D03*
D14*
X7939110Y10730960D03*
D13*
X8394575Y9253790D03*
X8004575Y9253790D03*
D14*
X8199575Y9253790D03*
D13*
X9205425Y4526745D03*
X8815425Y4526745D03*
D14*
X9010425Y4526745D03*
D13*
X9466903Y3043838D03*
X9076903Y3043838D03*
D14*
X9271903Y3043838D03*
D13*
X7712480Y1405430D03*
X8102480Y1405430D03*
D14*
X7907480Y1405430D03*
D13*
X6212360Y1405430D03*
X6602360Y1405430D03*
D14*
X6407360Y1405430D03*
D13*
X4712240Y1405430D03*
X5102240Y1405430D03*
D14*
X4907240Y1405430D03*
D13*
X2274478Y5982713D03*
X2664478Y5982713D03*
D14*
X2469478Y5982713D03*
D13*
X2925955Y4499805D03*
X2535955Y4499805D03*
D14*
X2730955Y4499805D03*
D13*
X2797433Y3016898D03*
X3187433Y3016898D03*
D14*
X2992433Y3016898D03*
M02*
